<svg id="Capa_1" enable-background="new 0 0 512 512" height="512" viewBox="0 0 512 512" width="512" xmlns="http://www.w3.org/2000/svg" xmlns:xlink="http://www.w3.org/1999/xlink"><linearGradient id="lg1"><stop offset="0" stop-color="#ffbf51"/><stop offset="1" stop-color="#c5715a"/></linearGradient><linearGradient id="SVGID_1_" gradientUnits="userSpaceOnUse" x1="132.632" x2="303.722" xlink:href="#lg1" y1="198.18" y2="242.022"/><linearGradient id="lg2"><stop offset="0" stop-color="#c4573a" stop-opacity="0"/><stop offset=".2529" stop-color="#ba5338" stop-opacity=".253"/><stop offset=".6769" stop-color="#a04933" stop-opacity=".677"/><stop offset="1" stop-color="#883f2e"/></linearGradient><linearGradient id="SVGID_00000005987907878609257720000011321188215876805517_" gradientUnits="userSpaceOnUse" x1="307.247" x2="428.079" xlink:href="#lg2" y1="232.784" y2="249.893"/><linearGradient id="SVGID_00000078041028245242297660000006275423496563269035_" gradientUnits="userSpaceOnUse" x1="367.085" x2="440.867" xlink:href="#lg2" y1="216.025" y2="204.262"/><linearGradient id="SVGID_00000183224120826783873330000011868104013158733993_" gradientUnits="userSpaceOnUse" x1="129.079" x2="30.703" xlink:href="#lg2" y1="208.973" y2="188.657"/><linearGradient id="SVGID_00000110460441447649652650000018328611385551270533_" gradientUnits="userSpaceOnUse" x1="256" x2="256" xlink:href="#lg2" y1="226.762" y2="364.807"/><linearGradient id="SVGID_00000021087669376590535380000016003394503108741816_" gradientUnits="userSpaceOnUse" x1="323.567" x2="279.725" xlink:href="#lg2" y1="94.304" y2="44.047"/><linearGradient id="SVGID_00000102511683974993596980000015183446861060089248_" gradientUnits="userSpaceOnUse" x1="180.075" x2="230.689" xlink:href="#lg2" y1="102.11" y2="38.664"/><linearGradient id="SVGID_00000114037952342911521350000016329288685740244657_" gradientUnits="userSpaceOnUse" x1="343.98" x2="296.93" xlink:href="#lg2" y1="163.564" y2="54.495"/><linearGradient id="SVGID_00000008843959188246683050000011994475122711744384_" gradientUnits="userSpaceOnUse" x1="174.048" x2="215.394" xlink:href="#lg2" y1="149.445" y2="56.059"/><linearGradient id="SVGID_00000003795181024725260960000007337028040721765296_" gradientUnits="userSpaceOnUse" x1="339.925" x2="300.004" xlink:href="#lg2" y1="203.619" y2="97.402"/><linearGradient id="SVGID_00000063622464269626872270000018122243926680748711_" gradientUnits="userSpaceOnUse" x1="176.997" x2="207.65" xlink:href="#lg2" y1="188.914" y2="98.38"/><linearGradient id="SVGID_00000122685855075528513930000015248619826209328019_" gradientUnits="userSpaceOnUse" x1="201.152" x2="287.765" xlink:href="#lg1" y1="357.792" y2="502.149"/><linearGradient id="SVGID_00000179637833693357806070000007277414835164914831_" gradientUnits="userSpaceOnUse" x1="289.386" x2="366.712" xlink:href="#lg2" y1="442.766" y2="493.347"/><linearGradient id="SVGID_00000141415471694997574980000011143452577371718277_" gradientUnits="userSpaceOnUse" x1="184.46" x2="82.135" xlink:href="#lg2" y1="445.263" y2="490.031"/><linearGradient id="SVGID_00000168831659891386551470000012824263231907542965_" gradientUnits="userSpaceOnUse" x1="258.504" x2="262.782" xlink:href="#lg2" y1="388.553" y2="269.266"/><linearGradient id="SVGID_00000116924443972225302980000007285271538550445987_" gradientUnits="userSpaceOnUse" x1="282.541" x2="325.788" xlink:href="#lg2" y1="435.676" y2="480.825"/><linearGradient id="SVGID_00000023254815670012036480000006967360224193046924_" gradientUnits="userSpaceOnUse" x1="231.385" x2="147.266" xlink:href="#lg2" y1="418.188" y2="476.644"/><linearGradient id="SVGID_00000048479649114989755400000000535716820500801664_" gradientUnits="userSpaceOnUse" x1="231.221" x2="212.212" xlink:href="#lg2" y1="378.362" y2="363.629"/><linearGradient id="SVGID_00000136386172519253115510000012795727826965247367_" gradientUnits="userSpaceOnUse" x1="247.889" x2="301.592" xlink:href="#lg2" y1="400.348" y2="368.031"/><linearGradient id="SVGID_00000084500722633033015500000010338330701650219927_" gradientUnits="userSpaceOnUse" x1="342.545" x2="429.783" xlink:href="#lg2" y1="407.163" y2="407.163"/><linearGradient id="SVGID_00000142137005988598888790000006228279646575230336_" gradientUnits="userSpaceOnUse" x1="313.762" x2="276.693" xlink:href="#lg2" y1="367.379" y2="303.221"/><linearGradient id="SVGID_00000141443876872991255920000017464517981456375711_" gradientUnits="userSpaceOnUse" x1="256" x2="256" xlink:href="#lg2" y1="458.035" y2="518.259"/><linearGradient id="lg3"><stop offset="0" stop-color="#5a5a5a"/><stop offset="1" stop-color="#444"/></linearGradient><linearGradient id="SVGID_00000035527717651833763290000009740003995780728201_" gradientUnits="userSpaceOnUse" x1="245.107" x2="269.345" xlink:href="#lg3" y1="305.81" y2="341.81"/><linearGradient id="SVGID_00000109721215796124422580000013156733571128679596_" gradientUnits="userSpaceOnUse" x1="153.261" x2="188.559" xlink:href="#lg3" y1="200.835" y2="226.819"/><linearGradient id="SVGID_00000065074714025493349920000009527773671332457118_" gradientUnits="userSpaceOnUse" x1="323.855" x2="355.231" xlink:href="#lg3" y1="199.313" y2="222.846"/><linearGradient id="SVGID_00000160190661257203966410000005401392678060546953_" gradientUnits="userSpaceOnUse" x1="52.049" x2="113.641" xlink:href="#lg1" y1="67.838" y2="117.636"/><linearGradient id="SVGID_00000105395905740093602630000012963552019765136316_" gradientUnits="userSpaceOnUse" x1="396.411" x2="508.903" xlink:href="#lg1" y1="75.552" y2="176.918"/><linearGradient id="SVGID_00000041997362804527419220000008990439634947171202_" gradientUnits="userSpaceOnUse" x1="54.239" x2="118.52" xlink:href="#lg2" y1="78.115" y2="118.909"/><linearGradient id="SVGID_00000147906285818717057780000015575877406543071404_" gradientUnits="userSpaceOnUse" x1="398.278" x2="494.7" xlink:href="#lg2" y1="83.298" y2="162.413"/><g><path d="m306.459 458.084h-100.918c-47.272 0-87.442-34.562-94.497-81.305l-32.539-215.58c-12.806-84.845 52.889-161.199 138.694-161.199h77.601c85.805 0 151.5 76.354 138.694 161.199l-32.538 215.581c-7.055 46.743-47.224 81.304-94.497 81.304z" fill="url(#SVGID_1_)"/><path d="m294.801 0h-38.028v458.084h49.686c47.272 0 87.442-34.562 94.497-81.305l32.538-215.581c12.807-84.844-52.888-161.198-138.693-161.198z" fill="url(#SVGID_00000005987907878609257720000011321188215876805517_)"/><path d="m294.801 0h-38.028v458.084h49.686c47.272 0 87.442-34.562 94.497-81.305l32.538-215.581c12.807-84.844-52.888-161.198-138.693-161.198z" fill="url(#SVGID_00000078041028245242297660000006275423496563269035_)"/><path d="m256.77 0v458.08h-51.23c-47.27 0-87.44-34.56-94.5-81.3l-32.53-215.58c-12.81-84.85 52.88-161.2 138.69-161.2z" fill="url(#SVGID_00000183224120826783873330000011868104013158733993_)"/><path d="m81.509 181.098 29.535 195.682c7.055 46.743 47.225 81.305 94.497 81.305h100.919c47.272 0 87.442-34.562 94.497-81.305l29.535-195.682z" fill="url(#SVGID_00000110460441447649652650000018328611385551270533_)"/><g opacity=".55"><ellipse cx="345.975" cy="119.991" fill="url(#SVGID_00000021087669376590535380000016003394503108741816_)" rx="89.12" ry="72.355"/><ellipse cx="165.81" cy="119.991" fill="url(#SVGID_00000102511683974993596980000015183446861060089248_)" rx="89.12" ry="72.355"/></g><g opacity=".55"><ellipse cx="343.661" cy="162.825" fill="url(#SVGID_00000114037952342911521350000016329288685740244657_)" rx="86.831" ry="70.496"/><ellipse cx="168.124" cy="162.825" fill="url(#SVGID_00000008843959188246683050000011994475122711744384_)" rx="86.831" ry="70.496"/></g><g opacity=".55"><ellipse cx="338.333" cy="199.385" fill="url(#SVGID_00000003795181024725260960000007337028040721765296_)" rx="81.56" ry="66.217"/><ellipse cx="173.451" cy="199.385" fill="url(#SVGID_00000063622464269626872270000018122243926680748711_)" rx="81.56" ry="66.217"/></g><path d="m87.909 444.684v41.194c0 13.943 10.932 25.73 24.87 26.112 14.461.396 26.308-11.208 26.308-25.579v-.532c0-2.521 2.065-4.531 4.586-4.505.173.002.346.003.519.003 15.618 0 29.74-6.37 39.935-16.644 1.53-1.542 3.893-1.804 5.726-.639 8.713 5.537 19.047 8.749 30.135 8.749 12.464 0 23.979-4.055 33.305-10.914 1.617-1.19 3.796-1.19 5.413 0 9.326 6.859 20.841 10.914 33.305 10.914 11.088 0 21.422-3.212 30.135-8.749 1.833-1.165 4.196-.902 5.726.639 10.195 10.274 24.317 16.644 39.935 16.644.173 0 .346-.001.519-.003 2.521-.026 4.586 1.983 4.586 4.505 0 13.498 10.241 25.09 23.705 26.054 14.985 1.073 27.474-10.766 27.474-25.522v-41.726c0-78.622-63.736-142.358-142.358-142.358h-51.468c-78.621 0-142.356 63.735-142.356 142.357z" fill="url(#SVGID_00000122685855075528513930000015248619826209328019_)"/><path d="m138.849 444.684v41.194c0 .999.044 1.986.12 2.96.075-.799.119-1.608.119-2.428v-.532c0-2.521 2.065-4.531 4.586-4.505.173.002.346.003.519.003 15.618 0 29.74-6.37 39.935-16.644 1.53-1.542 3.893-1.804 5.726-.639 8.713 5.537 19.047 8.749 30.135 8.749 12.464 0 23.979-4.055 33.305-10.914 1.617-1.19 3.796-1.19 5.413 0 9.326 6.859 20.841 10.914 33.305 10.914 11.088 0 21.422-3.212 30.135-8.749 1.833-1.165 4.196-.902 5.726.639 10.195 10.274 24.317 16.644 39.935 16.644.173 0 .346-.001.519-.003 2.521-.026 4.586 1.983 4.586 4.505 0 .965.058 1.919.16 2.862.048-.768.078-1.543.078-2.329v-41.726c0-78.622-44.421-142.358-99.216-142.358h-35.87c-54.796 0-99.216 63.735-99.216 142.357z" fill="url(#SVGID_00000179637833693357806070000007277414835164914831_)"/><path d="m138.849 444.684v41.194c0 .999.044 1.986.12 2.96.075-.799.119-1.608.119-2.428v-.532c0-2.521 2.065-4.531 4.586-4.505.173.002.346.003.519.003 15.618 0 29.74-6.37 39.935-16.644 1.53-1.542 3.893-1.804 5.726-.639 8.713 5.537 19.047 8.749 30.135 8.749 12.464 0 23.979-4.055 33.305-10.914 1.617-1.19 3.796-1.19 5.413 0 9.326 6.859 20.841 10.914 33.305 10.914 11.088 0 21.422-3.212 30.135-8.749 1.833-1.165 4.196-.902 5.726.639 10.195 10.274 24.317 16.644 39.935 16.644.173 0 .346-.001.519-.003 2.521-.026 4.586 1.983 4.586 4.505 0 .965.058 1.919.16 2.862.048-.768.078-1.543.078-2.329v-41.726c0-78.622-44.421-142.358-99.216-142.358h-35.87c-54.796 0-99.216 63.735-99.216 142.357z" fill="url(#SVGID_00000141415471694997574980000011143452577371718277_)"/><path d="m166.066 444.684v32.273c6.807-2.879 12.932-7.056 18.061-12.225 1.53-1.542 3.893-1.804 5.726-.639 8.713 5.537 19.047 8.749 30.135 8.749 12.464 0 23.979-4.055 33.305-10.914 1.617-1.19 3.796-1.19 5.413 0 9.326 6.859 20.841 10.914 33.305 10.914 11.088 0 21.422-3.212 30.135-8.749 1.833-1.165 4.196-.902 5.726.639 5.129 5.169 11.254 9.347 18.061 12.225v-32.273c0-78.622-34.1-142.358-76.166-142.358h-27.537c-42.063.001-76.164 63.736-76.164 142.358z" fill="url(#SVGID_00000168831659891386551470000012824263231907542965_)"/><path d="m184.962 444.684v19.397c1.475-.925 3.364-.959 4.891.011 8.713 5.537 19.047 8.749 30.135 8.749 12.464 0 23.979-4.055 33.305-10.914 1.617-1.19 3.796-1.19 5.413 0 9.326 6.859 20.841 10.914 33.305 10.914 11.088 0 21.422-3.212 30.135-8.749 1.527-.971 3.416-.937 4.891-.011v-19.398c0-78.622-26.936-142.358-60.162-142.358h-21.751c-33.226.002-60.162 63.737-60.162 142.359z" fill="url(#SVGID_00000116924443972225302980000007285271538550445987_)"/><path d="m184.962 444.684v19.397c1.475-.925 3.364-.959 4.891.011 8.713 5.537 19.047 8.749 30.135 8.749 12.464 0 23.979-4.055 33.305-10.914 1.617-1.19 3.796-1.19 5.413 0 9.326 6.859 20.841 10.914 33.305 10.914 11.088 0 21.422-3.212 30.135-8.749 1.527-.971 3.416-.937 4.891-.011v-19.398c0-78.622-26.936-142.358-60.162-142.358h-21.751c-33.226.002-60.162 63.737-60.162 142.359z" fill="url(#SVGID_00000023254815670012036480000006967360224193046924_)"/><path d="m222.921 444.684v28.074c11.335-.583 21.783-4.513 30.373-10.83 1.617-1.19 3.796-1.19 5.413 0 8.589 6.317 19.038 10.247 30.373 10.83v-28.074c0-78.622-12.543-142.358-28.015-142.358h-10.128c-15.473.001-28.016 63.736-28.016 142.358z" fill="url(#SVGID_00000048479649114989755400000000535716820500801664_)"/><path d="m222.921 444.684v28.074c11.335-.583 21.783-4.513 30.373-10.83 1.617-1.19 3.796-1.19 5.413 0 8.589 6.317 19.038 10.247 30.373 10.83v-28.074c0-78.622-12.543-142.358-28.015-142.358h-10.128c-15.473.001-28.016 63.736-28.016 142.358z" fill="url(#SVGID_00000136386172519253115510000012795727826965247367_)"/><path d="m281.734 302.327h-24.961v158.78c.682.118 1.346.389 1.934.821 9.326 6.859 20.841 10.914 33.305 10.914 11.088 0 21.422-3.212 30.135-8.749 1.833-1.165 4.196-.902 5.726.639 10.195 10.274 24.317 16.644 39.935 16.644.173 0 .346-.001.519-.003 2.521-.026 4.586 1.983 4.586 4.505 0 13.498 10.241 25.09 23.705 26.054 14.984 1.073 27.474-10.766 27.474-25.522v-41.726c-.001-78.622-63.736-142.357-142.358-142.357z" fill="url(#SVGID_00000084500722633033015500000010338330701650219927_)"/><path d="m281.734 302.327h-23.481l-44.253 44.253 129.063 129.063c7.467 3.667 15.862 5.733 24.745 5.733.173 0 .346-.001.519-.003 2.521-.026 4.586 1.983 4.586 4.505 0 13.498 10.241 25.09 23.705 26.054 14.984 1.073 27.474-10.766 27.474-25.522v-41.726c-.001-78.622-63.736-142.357-142.358-142.357z" fill="url(#SVGID_00000142137005988598888790000006228279646575230336_)"/><path d="m87.909 444.684v41.194c0 13.943 10.932 25.73 24.87 26.112 14.461.396 26.308-11.208 26.308-25.579v-.532c0-2.521 2.065-4.531 4.586-4.505.173.002.346.003.519.003 15.618 0 29.74-6.37 39.935-16.644 1.53-1.542 3.893-1.804 5.726-.639 8.713 5.537 19.047 8.749 30.135 8.749 12.464 0 23.979-4.055 33.305-10.914 1.617-1.19 3.796-1.19 5.413 0 9.326 6.859 20.841 10.914 33.305 10.914 11.088 0 21.422-3.212 30.135-8.749 1.833-1.165 4.196-.902 5.726.639 10.195 10.274 24.317 16.644 39.935 16.644.173 0 .346-.001.519-.003 2.521-.026 4.586 1.983 4.586 4.505 0 13.498 10.241 25.09 23.705 26.054 14.984 1.073 27.474-10.766 27.474-25.522v-41.726c0-20.27-4.246-39.545-11.881-56.998h-312.42c-7.636 17.453-11.881 36.728-11.881 56.997z" fill="url(#SVGID_00000141443876872991255920000017464517981456375711_)"/><path d="m283.061 355.996 7.83-4.248c10.817-5.869 17.553-17.188 17.553-29.494v-.523c0-18.533-15.024-33.556-33.556-33.556h-37.774c-18.533 0-33.556 15.024-33.556 33.556v.523c0 12.306 6.736 23.625 17.553 29.494l7.83 4.248c16.877 9.158 37.241 9.158 54.12 0z" fill="url(#SVGID_00000035527717651833763290000009740003995780728201_)"/><g><path d="m169.842 244.983c-14.041 0-25.424-11.383-25.424-25.424v-13.038c0-14.041 11.382-25.424 25.424-25.424 14.041 0 25.424 11.383 25.424 25.424v13.038c0 14.042-11.383 25.424-25.424 25.424z" fill="url(#SVGID_00000109721215796124422580000013156733571128679596_)"/><path d="m342.158 244.983c-14.041 0-25.424-11.383-25.424-25.424v-13.038c0-14.041 11.382-25.424 25.424-25.424 14.041 0 25.424 11.383 25.424 25.424v13.038c-.001 14.042-11.383 25.424-25.424 25.424z" fill="url(#SVGID_00000065074714025493349920000009527773671332457118_)"/></g><g><g><g><path d="m155.174 14.391s-130.161 53.259-151.028 74.686c-15.74 16.163 16.5 75.722 43.549 111.44 8.259 10.906 25.563 6.896 28.183-6.531 9.239-47.352 32.086-135.934 79.296-179.595z" fill="url(#SVGID_00000160190661257203966410000005401392678060546953_)"/><path d="m356.826 14.391s130.161 53.259 151.028 74.686c15.74 16.163-16.5 75.722-43.549 111.44-8.259 10.906-25.563 6.896-28.183-6.531-9.239-47.352-32.086-135.934-79.296-179.595z" fill="url(#SVGID_00000105395905740093602630000012963552019765136316_)"/></g><path d="m155.174 14.391s-130.161 53.259-151.028 74.686c-15.74 16.163 16.5 75.722 43.549 111.44 8.259 10.906 25.563 6.896 28.183-6.531 9.239-47.352 32.086-135.934 79.296-179.595z" fill="url(#SVGID_00000041997362804527419220000008990439634947171202_)"/></g><path d="m356.826 14.391s130.161 53.259 151.028 74.686c15.74 16.163-16.5 75.722-43.549 111.44-8.259 10.906-25.563 6.896-28.183-6.531-9.239-47.352-32.086-135.934-79.296-179.595z" fill="url(#SVGID_00000147906285818717057780000015575877406543071404_)"/></g></g></svg>