<svg id="Capa_1" enable-background="new 0 0 512 512" height="512" viewBox="0 0 512 512" width="512" xmlns="http://www.w3.org/2000/svg" xmlns:xlink="http://www.w3.org/1999/xlink"><linearGradient id="lg1"><stop offset="0" stop-color="#b9acac"/><stop offset="1" stop-color="#766e6e"/></linearGradient><linearGradient id="SVGID_1_" gradientUnits="userSpaceOnUse" x1="67.485" x2="137.392" xlink:href="#lg1" y1="50.066" y2="146.001"/><linearGradient id="lg2"><stop offset="0" stop-color="#433f43" stop-opacity="0"/><stop offset=".2995" stop-color="#3e3b3e" stop-opacity=".3"/><stop offset=".6425" stop-color="#302e30" stop-opacity=".643"/><stop offset="1" stop-color="#1a1a1a"/></linearGradient><linearGradient id="SVGID_00000122708111048958492170000011613880086762055079_" gradientUnits="userSpaceOnUse" x1="100.536" x2="147.391" xlink:href="#lg2" y1="90.273" y2="158.696"/><linearGradient id="SVGID_00000135669087005291330490000017128567359693059999_" gradientUnits="userSpaceOnUse" x1="161.741" x2="248.757" xlink:href="#lg2" y1="105.026" y2="75.277"/><linearGradient id="lg3"><stop offset="0" stop-color="#ffdfcf"/><stop offset="1" stop-color="#fd8087"/></linearGradient><linearGradient id="SVGID_00000079476460772118357920000001231063939635701897_" gradientUnits="userSpaceOnUse" x1="96.502" x2="139.636" xlink:href="#lg3" y1="76.127" y2="128.929"/><linearGradient id="lg4"><stop offset="0" stop-color="#fd4755" stop-opacity="0"/><stop offset=".2593" stop-color="#f74452" stop-opacity=".259"/><stop offset=".6276" stop-color="#e43b4c" stop-opacity=".628"/><stop offset="1" stop-color="#ca2e43"/></linearGradient><linearGradient id="SVGID_00000130641040814502345100000006755530276033907626_" gradientUnits="userSpaceOnUse" x1="114.411" x2="89.126" xlink:href="#lg4" y1="115.562" y2="106.638"/><linearGradient id="SVGID_00000158710211312689657730000010491836983577999762_" gradientUnits="userSpaceOnUse" x1="308.077" x2="394.345" xlink:href="#lg1" y1="78.891" y2="177.801"/><linearGradient id="SVGID_00000003078542596846696870000014386178370298907827_" gradientUnits="userSpaceOnUse" x1="394.403" x2="370.604" xlink:href="#lg2" y1="99.814" y2="142.207"/><linearGradient id="SVGID_00000072959268542787372650000013559789459859703691_" gradientUnits="userSpaceOnUse" x1="413.001" x2="450.186" xlink:href="#lg2" y1="126.604" y2="124.373"/><linearGradient id="SVGID_00000072238218946029585910000015614028295484112045_" gradientUnits="userSpaceOnUse" x1="330.354" x2="364.563" xlink:href="#lg3" y1="69.451" y2="139.357"/><linearGradient id="SVGID_00000013905028837315059520000008625098152419228293_" gradientUnits="userSpaceOnUse" x1="373.702" x2="363.29" xlink:href="#lg4" y1="74.589" y2="116.235"/><linearGradient id="SVGID_00000085230656556805935660000018186245156153736320_" gradientUnits="userSpaceOnUse" x1="350.997" x2="326.455" xlink:href="#lg4" y1="107.766" y2="85.455"/><linearGradient id="lg5"><stop offset="0" stop-color="#fffaf8"/><stop offset="1" stop-color="#ffdfcf"/></linearGradient><linearGradient id="SVGID_00000178902015995526099380000006966775712186613140_" gradientUnits="userSpaceOnUse" x1="248.817" x2="265.516" xlink:href="#lg5" y1="315.725" y2="492.729"/><linearGradient id="lg6"><stop offset="0" stop-color="#f89580" stop-opacity="0"/><stop offset=".2599" stop-color="#f2917c" stop-opacity=".261"/><stop offset=".5954" stop-color="#e2856f" stop-opacity=".597"/><stop offset=".9709" stop-color="#c8725b" stop-opacity=".974"/><stop offset=".9972" stop-color="#c5715a"/></linearGradient><linearGradient id="SVGID_00000074422591209718434620000002455206092677681034_" gradientUnits="userSpaceOnUse" x1="402.919" x2="485.472" xlink:href="#lg6" y1="379.278" y2="420.182"/><linearGradient id="SVGID_00000034084809588484003020000005395467769165479843_" gradientUnits="userSpaceOnUse" x1="256" x2="256" xlink:href="#lg6" y1="438.339" y2="493.794"/><linearGradient id="SVGID_00000147904811934119272790000008122916546513753014_" gradientUnits="userSpaceOnUse" x1="128.916" x2="421.65" xlink:href="#lg1" y1="242.436" y2="242.436"/><linearGradient id="SVGID_00000135687616340686011400000018199431235248669613_" gradientUnits="userSpaceOnUse" x1="400.336" x2="468.759" xlink:href="#lg2" y1="226.21" y2="212.823"/><linearGradient id="lg7"><stop offset="0" stop-color="#5a5a5a"/><stop offset="1" stop-color="#444"/></linearGradient><linearGradient id="SVGID_00000086670447574514524610000011085911628808450480_" gradientUnits="userSpaceOnUse" x1="134.768" x2="176.421" xlink:href="#lg7" y1="294.667" y2="325.328"/><linearGradient id="SVGID_00000125589800364402890450000008237305815401310369_" gradientUnits="userSpaceOnUse" x1="336.068" x2="373.092" xlink:href="#lg7" y1="292.872" y2="320.64"/><linearGradient id="SVGID_00000161592712562571713460000014102318241899477123_" gradientUnits="userSpaceOnUse" x1="258.456" x2="255.726" xlink:href="#lg5" y1="456.946" y2="499.259"/><linearGradient id="SVGID_00000183229162029400317920000016341289611357136544_" gradientUnits="userSpaceOnUse" x1="259.057" x2="275.436" xlink:href="#lg6" y1="466.319" y2="520.917"/><linearGradient id="SVGID_00000022558595918614210890000015521619080057273494_" gradientUnits="userSpaceOnUse" x1="226.616" x2="288.163" xlink:href="#lg5" y1="365.081" y2="493.002"/><linearGradient id="SVGID_00000121992384540181128400000014259719589661544100_" gradientUnits="userSpaceOnUse" x1="298.138" x2="400.582" xlink:href="#lg6" y1="413.27" y2="462.079"/><linearGradient id="SVGID_00000043443249644475702870000011970328719750957744_" gradientUnits="userSpaceOnUse" x1="256" x2="256" xlink:href="#lg6" y1="439.412" y2="513.499"/><linearGradient id="SVGID_00000026884783278523445290000015499622537817978552_" gradientUnits="userSpaceOnUse" x1="301.86" x2="253.856" xlink:href="#lg6" y1="438.821" y2="358.636"/><linearGradient id="SVGID_00000119831237256890471060000005485355172690412185_" gradientUnits="userSpaceOnUse" x1="249.338" x2="265.428" xlink:href="#lg7" y1="377.446" y2="406.945"/><g><g><g><path d="m91.79 13.961c6.707-12.31 21.891-17.373 34.643-11.551 69.188 31.586 135.735 112.139 151.837 185.186-74.138-34.415-158.156-6.392-196.8 65.617-30.953-68.086-26.069-172.461 10.32-239.252z" fill="url(#SVGID_1_)"/><path d="m91.79 13.961c6.707-12.31 21.891-17.373 34.643-11.551 69.188 31.586 135.735 112.139 151.837 185.186-74.138-34.415-158.156-6.392-196.8 65.617-30.953-68.086-26.069-172.461 10.32-239.252z" fill="url(#SVGID_00000122708111048958492170000011613880086762055079_)"/><path d="m91.79 13.961c6.707-12.31 21.891-17.373 34.643-11.551 69.188 31.586 135.735 112.139 151.837 185.186-74.138-34.415-158.156-6.392-196.8 65.617-30.953-68.086-26.069-172.461 10.32-239.252z" fill="url(#SVGID_00000135669087005291330490000017128567359693059999_)"/><path d="m138.992 54.75c-9.48-4.965-21.232-1.047-25.835 8.614-16.713 35.073-18.315 86.407-2.839 120.447 20.27-37.771 64.341-52.471 103.229-34.419-8.051-36.52-40.14-76.618-74.555-94.642z" fill="url(#SVGID_00000079476460772118357920000001231063939635701897_)"/><path d="m138.992 54.75c-9.48-4.965-21.232-1.047-25.835 8.614-16.713 35.073-18.315 86.407-2.839 120.447 20.27-37.771 64.341-52.471 103.229-34.419-8.051-36.52-40.14-76.618-74.555-94.642z" fill="url(#SVGID_00000130641040814502345100000006755530276033907626_)"/></g><g><path d="m419.985 13.961c-6.707-12.31-21.891-17.373-34.643-11.551-69.188 31.586-135.735 112.139-151.837 185.186 74.138-34.415 158.156-6.392 196.8 65.617 30.954-68.086 26.07-172.461-10.32-239.252z" fill="url(#SVGID_00000158710211312689657730000010491836983577999762_)"/><path d="m419.985 13.961c-6.707-12.31-21.891-17.373-34.643-11.551-69.188 31.586-135.735 112.139-151.837 185.186 74.138-34.415 158.156-6.392 196.8 65.617 30.954-68.086 26.07-172.461-10.32-239.252z" fill="url(#SVGID_00000003078542596846696870000014386178370298907827_)"/><path d="m419.985 13.961c-6.707-12.31-21.891-17.373-34.643-11.551-69.188 31.586-135.735 112.139-151.837 185.186 74.138-34.415 158.156-6.392 196.8 65.617 30.954-68.086 26.07-172.461-10.32-239.252z" fill="url(#SVGID_00000072959268542787372650000013559789459859703691_)"/><path d="m372.784 54.75c9.48-4.965 21.232-1.047 25.835 8.614 16.713 35.073 18.315 86.407 2.839 120.447-20.27-37.771-64.341-52.471-103.229-34.419 8.05-36.52 40.139-76.618 74.555-94.642z" fill="url(#SVGID_00000072238218946029585910000015614028295484112045_)"/><path d="m372.784 54.75c9.48-4.965 21.232-1.047 25.835 8.614 16.713 35.073 18.315 86.407 2.839 120.447-20.27-37.771-64.341-52.471-103.229-34.419 8.05-36.52 40.139-76.618 74.555-94.642z" fill="url(#SVGID_00000013905028837315059520000008625098152419228293_)"/><path d="m372.784 54.75c9.48-4.965 21.232-1.047 25.835 8.614 16.713 35.073 18.315 86.407 2.839 120.447-20.27-37.771-64.341-52.471-103.229-34.419 8.05-36.52 40.139-76.618 74.555-94.642z" fill="url(#SVGID_00000085230656556805935660000018186245156153736320_)"/></g></g><g><path d="m483.104 391.86c-5.079 45.854-43.981 83.154-93.029 83.154h-268.15c-49.048 0-87.95-37.3-93.029-83.154l53.674-126.108c30.676-72.072 103.668-117.582 181.762-111.53 1.43.111 2.858.237 4.286.378 61.959 6.127 116.276 44.084 144.492 99.584z" fill="url(#SVGID_00000178902015995526099380000006966775712186613140_)"/><path d="m268.618 154.6c-1.427-.141-2.856-.267-4.286-.378-4.502-.349-8.985-.519-13.446-.53v321.321h139.189c49.048 0 87.95-37.3 93.029-83.154l-69.994-137.675c-28.216-55.5-82.533-93.457-144.492-99.584z" fill="url(#SVGID_00000074422591209718434620000002455206092677681034_)"/><path d="m28.896 391.86c5.079 45.854 43.981 83.154 93.029 83.154h268.151c49.048 0 87.95-37.3 93.029-83.154l-26.902-27.517h-400.405z" fill="url(#SVGID_00000034084809588484003020000005395467769165479843_)"/><path d="m483.104 391.86-3.092-1.591c-43.383-22.267-73.877-63.505-82.454-111.504-3.194-17.843-9.537-34.817-18.588-50.188-9.063-15.371-20.834-29.14-34.896-40.572-7.64-6.207-16.771-9.198-25.822-9.198-13.43 0-26.68 6.58-34.568 18.892-2.111 3.296-3.724 6.873-4.819 10.598-1.083 3.713-1.648 7.595-1.648 11.511v188.056h-42.435v-188.057c0-3.916-.564-7.799-1.648-11.511-1.095-3.724-2.709-7.302-4.819-10.598-7.889-12.313-21.138-18.892-34.568-18.892-9.051 0-18.182 2.991-25.822 9.198-14.062 11.432-25.833 25.201-34.896 40.572-9.051 15.371-15.394 32.345-18.588 50.188-8.577 47.999-39.071 89.237-82.454 111.504l-3.092 1.591c-1.027-9.22-.688-18.791 1.219-28.474l28.113-143.036c16.376-83.278 89.395-143.341 174.264-143.341h47.017c84.869 0 157.889 60.063 174.264 143.341l28.113 143.036c1.908 9.684 2.246 19.254 1.219 28.475z" fill="url(#SVGID_00000147904811934119272790000008122916546513753014_)"/><path d="m453.773 220.349c-16.376-83.278-89.395-143.341-174.264-143.341h-46.003v132.746c.825 3.268 1.278 6.645 1.278 10.053v188.056h42.435v-188.056c0-3.916.564-7.799 1.648-11.511 1.095-3.724 2.709-7.302 4.819-10.598 7.889-12.313 21.138-18.892 34.568-18.892 9.051 0 18.181 2.991 25.822 9.198 14.062 11.432 25.833 25.201 34.896 40.573 9.051 15.371 15.394 32.345 18.588 50.188 8.577 47.999 39.071 89.237 82.454 111.504l3.092 1.591c1.027-9.22.688-18.791-1.219-28.474z" fill="url(#SVGID_00000135687616340686011400000018199431235248669613_)"/><g><path d="m154.334 346.762c-16.568 0-30-13.431-30-30v-15.384c0-16.568 13.431-30 30-30 16.568 0 30 13.431 30 30v15.384c0 16.569-13.431 30-30 30z" fill="url(#SVGID_00000086670447574514524610000011085911628808450480_)"/><path d="m357.666 346.762c-16.569 0-30-13.431-30-30v-15.384c0-16.568 13.431-30 30-30 16.568 0 30 13.431 30 30v15.384c-.001 16.569-13.432 30-30 30z" fill="url(#SVGID_00000125589800364402890450000008237305815401310369_)"/></g><g><g><path d="m268.666 512h-23.502c-18.658 0-33.154-16.253-31.029-34.79l8.336-72.709h68.887l8.336 72.709c2.127 18.537-12.369 34.79-31.028 34.79z" fill="url(#SVGID_00000161592712562571713460000014102318241899477123_)"/><path d="m268.666 512h-23.502c-18.658 0-33.154-16.253-31.029-34.79l8.336-72.709h68.887l8.336 72.709c2.127 18.537-12.369 34.79-31.028 34.79z" fill="url(#SVGID_00000183229162029400317920000016341289611357136544_)"/></g><path d="m372.649 413.38-3.604-12.368c-12.806-43.946-53.085-74.162-98.858-74.162h-28.373c-45.774 0-86.053 30.217-98.858 74.163l-3.604 12.368c-10.847 37.222 17.619 73.36 59.724 80.38 5.688.948 11.523-.426 16.269-3.701 24.473-16.887 56.837-16.887 81.311 0 4.746 3.275 10.581 4.65 16.269 3.701 42.105-7.021 70.57-43.159 59.724-80.381z" fill="url(#SVGID_00000022558595918614210890000015521619080057273494_)"/><path d="m369.045 401.012c-12.806-43.946-53.085-74.162-98.858-74.162h-14.187v150.544c14.209 0 28.419 4.222 40.655 12.665 4.746 3.275 10.581 4.65 16.269 3.701 42.105-7.02 70.571-43.158 59.724-80.38z" fill="url(#SVGID_00000121992384540181128400000014259719589661544100_)"/><path d="m142.955 401.012-3.604 12.368c-10.847 37.222 17.619 73.36 59.724 80.38 5.688.948 11.523-.426 16.269-3.701 24.473-16.887 56.837-16.887 81.311 0 4.746 3.275 10.581 4.65 16.269 3.701 42.105-7.02 70.571-43.158 59.724-80.38l-3.604-12.368c-.443-1.521-.927-3.021-1.435-4.509h-223.219c-.508 1.488-.992 2.988-1.435 4.509z" fill="url(#SVGID_00000043443249644475702870000011970328719750957744_)"/><path d="m369.582 453.397-81.183-81.183-64.065 35.654 86.144 86.144c.816-.042 1.633-.117 2.447-.253 26.281-4.381 47.247-20.108 56.657-40.362z" fill="url(#SVGID_00000026884783278523445290000015499622537817978552_)"/><path d="m276.263 415.128 5.863-3.181c8.1-4.395 13.144-12.871 13.144-22.086v-.392c0-13.877-11.25-25.127-25.127-25.127h-28.285c-13.877 0-25.127 11.25-25.127 25.127v.392c0 9.215 5.044 17.691 13.144 22.086l5.863 3.181c12.637 6.857 27.887 6.857 40.525 0z" fill="url(#SVGID_00000119831237256890471060000005485355172690412185_)"/></g></g></g></svg>