<svg id="Capa_1" enable-background="new 0 0 512 512" height="512" viewBox="0 0 512 512" width="512" xmlns="http://www.w3.org/2000/svg" xmlns:xlink="http://www.w3.org/1999/xlink"><linearGradient id="lg1"><stop offset="0" stop-color="#5a5a5a"/><stop offset="1" stop-color="#444"/></linearGradient><linearGradient id="SVGID_1_" gradientTransform="matrix(.956 .294 -.294 .956 38.534 -29.845)" gradientUnits="userSpaceOnUse" x1="89.465" x2="170.019" xlink:href="#lg1" y1="62.266" y2="96.484"/><linearGradient id="lg2"><stop offset="0" stop-color="#433f43" stop-opacity="0"/><stop offset=".2995" stop-color="#3e3b3e" stop-opacity=".3"/><stop offset=".6425" stop-color="#302e30" stop-opacity=".643"/><stop offset="1" stop-color="#1a1a1a"/></linearGradient><linearGradient id="SVGID_00000171709364672933313870000005916276682930577813_" gradientTransform="matrix(.956 .294 -.294 .956 38.534 -29.845)" gradientUnits="userSpaceOnUse" x1="148.979" x2="157.533" xlink:href="#lg2" y1="46.091" y2="71.754"/><linearGradient id="SVGID_00000110449565694691285390000005893927985321303987_" gradientTransform="matrix(.956 .294 -.294 .956 38.534 -29.845)" gradientUnits="userSpaceOnUse" x1="143.936" x2="116.371" xlink:href="#lg2" y1="90.666" y2="81.636"/><linearGradient id="lg3"><stop offset="0" stop-color="#ffdfcf"/><stop offset="1" stop-color="#fd8087"/></linearGradient><linearGradient id="SVGID_00000052070921803173306200000007269497464821757353_" gradientTransform="matrix(.956 .294 -.294 .956 38.534 -29.845)" gradientUnits="userSpaceOnUse" x1="106.013" x2="145.934" xlink:href="#lg3" y1="66.798" y2="93.174"/><linearGradient id="lg4"><stop offset="0" stop-color="#fd4755" stop-opacity="0"/><stop offset=".2593" stop-color="#f74452" stop-opacity=".259"/><stop offset=".6276" stop-color="#e43b4c" stop-opacity=".628"/><stop offset="1" stop-color="#ca2e43"/></linearGradient><linearGradient id="SVGID_00000118365177279606218940000002160568231382657434_" gradientTransform="matrix(.956 .294 -.294 .956 38.534 -29.845)" gradientUnits="userSpaceOnUse" x1="149.608" x2="101.608" xlink:href="#lg4" y1="108.509" y2="91.4"/><linearGradient id="SVGID_00000098915104530325673270000003759378528244816023_" gradientTransform="matrix(.956 .294 -.294 .956 38.534 -29.845)" gradientUnits="userSpaceOnUse" x1="175.963" x2="150.3" xlink:href="#lg4" y1="90.3" y2="139.726"/><linearGradient id="SVGID_00000176016155527668188400000005565132945756527786_" gradientTransform="matrix(-.956 .294 .294 .956 206.221 -29.845)" gradientUnits="userSpaceOnUse" x1="-166.009" x2="-85.455" xlink:href="#lg1" y1="140.71" y2="174.928"/><linearGradient id="SVGID_00000150806104032333787530000018182068263782795957_" gradientTransform="matrix(-.956 .294 .294 .956 206.221 -29.845)" gradientUnits="userSpaceOnUse" x1="-106.495" x2="-97.941" xlink:href="#lg2" y1="124.534" y2="150.198"/><linearGradient id="SVGID_00000168806102894678435490000008366068552579419284_" gradientTransform="matrix(-.956 .294 .294 .956 206.221 -29.845)" gradientUnits="userSpaceOnUse" x1="-111.538" x2="-139.103" xlink:href="#lg2" y1="169.11" y2="160.08"/><linearGradient id="SVGID_00000060003414526522304670000002145422904979618988_" gradientTransform="matrix(-.956 .294 .294 .956 206.221 -29.845)" gradientUnits="userSpaceOnUse" x1="-149.461" x2="-109.54" xlink:href="#lg3" y1="145.242" y2="171.618"/><linearGradient id="SVGID_00000065075193289540652870000000105651857514779818_" gradientTransform="matrix(-.956 .294 .294 .956 206.221 -29.845)" gradientUnits="userSpaceOnUse" x1="-105.866" x2="-153.866" xlink:href="#lg4" y1="186.953" y2="169.844"/><linearGradient id="SVGID_00000071528396143917655090000003797041022862726021_" gradientTransform="matrix(-.956 .294 .294 .956 206.221 -29.845)" gradientUnits="userSpaceOnUse" x1="-79.511" x2="-105.174" xlink:href="#lg4" y1="168.744" y2="218.169"/><linearGradient id="lg5"><stop offset="0" stop-color="#fffaf8"/><stop offset="1" stop-color="#ffdfcf"/></linearGradient><linearGradient id="SVGID_00000133496686365067567100000001097885656131202976_" gradientUnits="userSpaceOnUse" x1="212.01" x2="291.7" xlink:href="#lg5" y1="299.798" y2="299.798"/><linearGradient id="SVGID_00000181788850364435753090000005423703579063552186_" gradientUnits="userSpaceOnUse" x1="119.7" x2="408.413" xlink:href="#lg1" y1="232.03" y2="312.228"/><linearGradient id="SVGID_00000134970422801199974640000005874833583234367383_" gradientUnits="userSpaceOnUse" x1="381.251" x2="491.39" xlink:href="#lg2" y1="268.983" y2="262.567"/><linearGradient id="SVGID_00000010306313589603292030000016688182764245427072_" gradientUnits="userSpaceOnUse" x1="76.657" x2="195.895" xlink:href="#lg2" y1="170.042" y2="289.281"/><linearGradient id="SVGID_00000070100108115506641460000001385307649174118538_" gradientUnits="userSpaceOnUse" x1="207.037" x2="364.225" xlink:href="#lg2" y1="146.465" y2="281.198"/><linearGradient id="SVGID_00000016780284905887302960000006621669985607956407_" gradientUnits="userSpaceOnUse" x1="425.752" x2="451.772" xlink:href="#lg2" y1="368.946" y2="379.283"/><linearGradient id="SVGID_00000057148467016774257660000005889625139845928617_" gradientUnits="userSpaceOnUse" x1="367.6" x2="386.847" xlink:href="#lg2" y1="401.209" y2="421.882"/><linearGradient id="SVGID_00000025403167875776918170000002124862015517671071_" gradientUnits="userSpaceOnUse" x1="346.731" x2="268.315" xlink:href="#lg2" y1="508.085" y2="382.975"/><linearGradient id="SVGID_00000126287784719111310220000007998816678860636042_" gradientUnits="userSpaceOnUse" x1="442.841" x2="364.424" y1="447.846" y2="322.736"><stop offset="0" stop-color="#883f2e" stop-opacity="0"/><stop offset=".2979" stop-color="#8b402e" stop-opacity=".298"/><stop offset=".536" stop-color="#954430" stop-opacity=".536"/><stop offset=".7533" stop-color="#a64b34" stop-opacity=".753"/><stop offset=".9572" stop-color="#be5539" stop-opacity=".957"/><stop offset="1" stop-color="#c4573a"/></linearGradient><linearGradient id="SVGID_00000116937047236387804310000012389767027338111405_" gradientUnits="userSpaceOnUse" x1="75.63" x2="58.164" xlink:href="#lg2" y1="370.505" y2="372.644"/><linearGradient id="SVGID_00000170258712041859864220000008862722639738902969_" gradientUnits="userSpaceOnUse" x1="134.686" x2="122.21" xlink:href="#lg2" y1="411.28" y2="426.964"/><linearGradient id="SVGID_00000067210735922112808330000015425805257883018173_" gradientUnits="userSpaceOnUse" x1="256.191" x2="271.04" y1="440.239" y2="465.368"><stop offset="0" stop-color="#fdb4ba"/><stop offset="1" stop-color="#fd8087"/></linearGradient><linearGradient id="SVGID_00000098184428767902548970000001884146562799246004_" gradientUnits="userSpaceOnUse" x1="256" x2="256" xlink:href="#lg4" y1="455.085" y2="425.933"/><linearGradient id="SVGID_00000061429662278749791960000005984435938372847541_" gradientUnits="userSpaceOnUse" x1="286.551" x2="259.137" xlink:href="#lg4" y1="459.96" y2="430.832"/><linearGradient id="SVGID_00000078041648183413385360000011893694479459843722_" gradientUnits="userSpaceOnUse" x1="227.25" x2="282.854" xlink:href="#lg5" y1="332.595" y2="435.248"/><linearGradient id="lg6"><stop offset="0" stop-color="#f89580" stop-opacity="0"/><stop offset=".2599" stop-color="#f2917c" stop-opacity=".261"/><stop offset=".5954" stop-color="#e2856f" stop-opacity=".597"/><stop offset=".9709" stop-color="#c8725b" stop-opacity=".974"/><stop offset=".9972" stop-color="#c5715a"/></linearGradient><linearGradient id="SVGID_00000132070178439332942630000000504439480114222774_" gradientUnits="userSpaceOnUse" x1="256.002" x2="256.002" xlink:href="#lg6" y1="394.081" y2="454.675"/><linearGradient id="SVGID_00000007398927760367736260000003539322182566793093_" gradientUnits="userSpaceOnUse" x1="301.819" x2="368.829" xlink:href="#lg6" y1="371.428" y2="391.388"/><linearGradient id="SVGID_00000163778282587280322180000003988219754360246943_" gradientUnits="userSpaceOnUse" x1="299.015" x2="251.49" xlink:href="#lg6" y1="393.095" y2="317.056"/><linearGradient id="SVGID_00000100340820513307695070000001600011314693936798_" gradientUnits="userSpaceOnUse" x1="249.475" x2="263.185" xlink:href="#lg1" y1="335.284" y2="362.703"/><linearGradient id="SVGID_00000088822588921955526880000014555382519047862698_" gradientTransform="matrix(.956 .294 -.294 .956 38.534 -29.845)" gradientUnits="userSpaceOnUse" x1="46.227" x2="118.94" xlink:href="#lg1" y1="49.117" y2="109.712"/><linearGradient id="SVGID_00000047750277585512180780000018225644083754450566_" gradientTransform="matrix(.956 .294 -.294 .956 38.534 -29.845)" gradientUnits="userSpaceOnUse" x1="78.876" x2="122.361" xlink:href="#lg2" y1="77.156" y2="109.948"/><linearGradient id="SVGID_00000110447339164646113150000009133045191152565910_" gradientTransform="matrix(-.956 .294 .294 .956 206.221 -29.845)" gradientUnits="userSpaceOnUse" x1="-209.247" x2="-136.534" xlink:href="#lg1" y1="127.561" y2="188.155"/><linearGradient id="SVGID_00000093161148347119516860000011701104813864214713_" gradientTransform="matrix(-.956 .294 .294 .956 206.221 -29.845)" gradientUnits="userSpaceOnUse" x1="-176.598" x2="-133.113" xlink:href="#lg2" y1="155.6" y2="188.392"/><g><g><path d="m210.008 135.001c2.216 21.058.442 42.303-5.739 62.436-1.121 3.652-2.386 7.259-3.797 10.833-4.353 10.976-10.776 20.856-18.804 29.113l-90.799-171.267 92.636-49.112.01.003 3.322.288c.082.004.162.018.254.026 15.178 1.365 28.603 10.414 35.744 23.884l21.919 41.345c-15.034 2.528-28.108 13.253-32.887 28.816-2.139 6.969-2.738 15.289-1.859 23.635z" fill="url(#SVGID_1_)"/><path d="m210.008 135.001c2.216 21.058.442 42.303-5.739 62.436-1.121 3.652-2.386 7.259-3.797 10.833-4.353 10.976-10.776 20.856-18.804 29.113l-90.799-171.267 92.636-49.112.01.003 3.322.288c.082.004.162.018.254.026 15.178 1.365 28.603 10.414 35.744 23.884l21.919 41.345c-15.034 2.528-28.108 13.253-32.887 28.816-2.139 6.969-2.738 15.289-1.859 23.635z" fill="url(#SVGID_00000171709364672933313870000005916276682930577813_)"/><path d="m210.008 135.001c2.216 21.058.442 42.303-5.739 62.436-1.121 3.652-2.386 7.259-3.797 10.833-4.353 10.976-10.776 20.856-18.804 29.113l-90.799-171.267 92.636-49.112.01.003 3.322.288c.082.004.162.018.254.026 15.178 1.365 28.603 10.414 35.744 23.884l21.919 41.345c-15.034 2.528-28.108 13.253-32.887 28.816-2.139 6.969-2.738 15.289-1.859 23.635z" fill="url(#SVGID_00000110449565694691285390000005893927985321303987_)"/><path d="m201.087 66.052c-9.006-16.987-25.937-28.399-45.078-30.121-.116-.009-.216-.027-.32-.032l-4.189-.363-.012-.004-60.6 32.128 90.487 170.678c.855-.88 1.683-1.788 2.501-2.704 2.533-16.902 2.84-34.144 1.035-51.291-1.109-10.525-.354-21.019 2.345-29.808 3.834-12.487 11.907-22.499 22.153-28.956.215-4.7.922-9.211 2.165-13.259 1.533-4.992 3.927-9.478 6.958-13.364z" fill="url(#SVGID_00000052070921803173306200000007269497464821757353_)"/><path d="m201.087 66.052c-9.006-16.987-25.937-28.399-45.078-30.121-.116-.009-.216-.027-.32-.032l-4.189-.363-.012-.004-60.6 32.128 90.487 170.678c.855-.88 1.683-1.788 2.501-2.704 2.533-16.902 2.84-34.144 1.035-51.291-1.109-10.525-.354-21.019 2.345-29.808 3.834-12.487 11.907-22.499 22.153-28.956.215-4.7.922-9.211 2.165-13.259 1.533-4.992 3.927-9.478 6.958-13.364z" fill="url(#SVGID_00000118365177279606218940000002160568231382657434_)"/><path d="m201.087 66.052c-9.006-16.987-25.937-28.399-45.078-30.121-.116-.009-.216-.027-.32-.032l-4.189-.363-.012-.004-60.6 32.128 90.487 170.678c.855-.88 1.683-1.788 2.501-2.704 2.533-16.902 2.84-34.144 1.035-51.291-1.109-10.525-.354-21.019 2.345-29.808 3.834-12.487 11.907-22.499 22.153-28.956.215-4.7.922-9.211 2.165-13.259 1.533-4.992 3.927-9.478 6.958-13.364z" fill="url(#SVGID_00000098915104530325673270000003759378528244816023_)"/></g><g><path d="m301.992 135.001c-2.216 21.058-.442 42.303 5.739 62.436 1.121 3.652 2.386 7.259 3.797 10.833 4.353 10.976 10.776 20.856 18.804 29.113l90.799-171.266-92.636-49.112-.01.003-3.322.288c-.082.004-.162.018-.254.026-15.178 1.365-28.603 10.414-35.744 23.884l-21.919 41.345c15.034 2.528 28.108 13.253 32.887 28.816 2.139 6.968 2.738 15.288 1.859 23.634z" fill="url(#SVGID_00000176016155527668188400000005565132945756527786_)"/><path d="m301.992 135.001c-2.216 21.058-.442 42.303 5.739 62.436 1.121 3.652 2.386 7.259 3.797 10.833 4.353 10.976 10.776 20.856 18.804 29.113l90.799-171.266-92.636-49.112-.01.003-3.322.288c-.082.004-.162.018-.254.026-15.178 1.365-28.603 10.414-35.744 23.884l-21.919 41.345c15.034 2.528 28.108 13.253 32.887 28.816 2.139 6.968 2.738 15.288 1.859 23.634z" fill="url(#SVGID_00000150806104032333787530000018182068263782795957_)"/><path d="m301.992 135.001c-2.216 21.058-.442 42.303 5.739 62.436 1.121 3.652 2.386 7.259 3.797 10.833 4.353 10.976 10.776 20.856 18.804 29.113l90.799-171.266-92.636-49.112-.01.003-3.322.288c-.082.004-.162.018-.254.026-15.178 1.365-28.603 10.414-35.744 23.884l-21.919 41.345c15.034 2.528 28.108 13.253 32.887 28.816 2.139 6.968 2.738 15.288 1.859 23.634z" fill="url(#SVGID_00000168806102894678435490000008366068552579419284_)"/><path d="m310.913 66.052c9.006-16.987 25.937-28.399 45.078-30.121.116-.009.216-.027.32-.032l4.189-.363.012-.004 60.6 32.128-90.487 170.678c-.855-.88-1.683-1.788-2.501-2.704-2.533-16.902-2.84-34.144-1.035-51.291 1.109-10.525.354-21.019-2.345-29.808-3.834-12.487-11.907-22.499-22.153-28.956-.215-4.7-.922-9.211-2.165-13.259-1.533-4.992-3.927-9.478-6.958-13.364z" fill="url(#SVGID_00000060003414526522304670000002145422904979618988_)"/><path d="m310.913 66.052c9.006-16.987 25.937-28.399 45.078-30.121.116-.009.216-.027.32-.032l4.189-.363.012-.004 60.6 32.128-90.487 170.678c-.855-.88-1.683-1.788-2.501-2.704-2.533-16.902-2.84-34.144-1.035-51.291 1.109-10.525.354-21.019-2.345-29.808-3.834-12.487-11.907-22.499-22.153-28.956-.215-4.7-.922-9.211-2.165-13.259-1.533-4.992-3.927-9.478-6.958-13.364z" fill="url(#SVGID_00000065075193289540652870000000105651857514779818_)"/><path d="m310.913 66.052c9.006-16.987 25.937-28.399 45.078-30.121.116-.009.216-.027.32-.032l4.189-.363.012-.004 60.6 32.128-90.487 170.678c-.855-.88-1.683-1.788-2.501-2.704-2.533-16.902-2.84-34.144-1.035-51.291 1.109-10.525.354-21.019-2.345-29.808-3.834-12.487-11.907-22.499-22.153-28.956-.215-4.7-.922-9.211-2.165-13.259-1.533-4.992-3.927-9.478-6.958-13.364z" fill="url(#SVGID_00000071528396143917655090000003797041022862726021_)"/></g><path d="m290.657 478.559 25.301-43.123v-341.106h-119.916v341.106l25.309 43.131c6.819 6.047 13.479 12.649 19.979 20.063 7.76 8.85 21.58 8.85 29.34 0 6.503-7.418 13.165-14.022 19.987-20.071z" fill="url(#SVGID_00000133496686365067567100000001097885656131202976_)"/><path d="m454.441 396.069c-.18 5.21 6.95 6.97 9.16 2.25 6.28-13.43 10.27-27.76 11.68-42.39 1-10.41 3.98-20.51 8.32-30.02 11.54-25.31 15.06-54.23 7.89-83.64l-4.56-18.69c-14.978-61.403-56.675-111.902-112.118-141.853-33.527-18.112-74.008-17.77-107.401.588l-11.412 6.274-11.416-6.276c-33.322-18.319-73.726-18.739-107.199-.696-10.207 5.502-19.949 11.7-29.146 18.532-40.84 30.35-70.93 73.25-83.17 123.431l-4.56 18.69c-7.17 29.41-3.65 58.33 7.89 83.64 4.34 9.51 7.32 19.61 8.32 30.02 1.41 14.63 5.4 28.96 11.68 42.39 2.21 4.72 9.34 2.96 9.16-2.25-.18-5.13-.07-10.29.33-15.48 8.45 13.59 19.47 25.46 32.38 35.13 4.17 3.12 9.64-1.78 7.02-6.29-3.54-6.1-6.65-12.53-9.27-19.25 10.78 6.69 21.5 13.45 31.99 20.53.06.05.13.09.2.14 11.45 7.72 21.13 17.7 28.74 29.23 8.18 12.39 18.54 23.28 30.53 32.25 4.18 3.13 9.66-1.74 7.04-6.25-3.63-6.25-6.8-12.86-9.46-19.75 15.488 9.703 30.233 19.771 44.292 32.237l10.555-239.753c1.986-25.008-2.593-49.982-12.428-73.06-3.3-7.744-5.178-15.909-5.178-23.214 0-23.03 18.67-41.71 41.7-41.71s41.7 18.68 41.7 41.71c0 7.303-1.877 15.467-5.176 23.209-9.834 23.081-14.415 48.058-12.427 73.068l10.561 239.743c14.056-12.462 28.799-22.528 44.283-32.229-2.66 6.89-5.83 13.5-9.46 19.75-2.62 4.51 2.86 9.38 7.04 6.25 11.99-8.97 22.35-19.86 30.54-32.26 7.6-11.52 17.28-21.5 28.73-29.22.07-.05.13-.09.2-.14 10.49-7.07 21.21-13.84 31.99-20.53-2.62 6.72-5.73 13.15-9.27 19.25-2.62 4.51 2.85 9.41 7.02 6.29 12.91-9.67 23.93-21.54 32.38-35.13.39 5.189.51 10.349.33 15.479z" fill="url(#SVGID_00000181788850364435753090000005423703579063552186_)"/><path d="m486.931 223.578c-14.978-61.403-56.675-111.902-112.118-141.853-33.527-18.112-74.008-17.77-107.401.588l-11.412 6.275-.006-.003v12.245h.006c23.03 0 41.7 18.68 41.7 41.71 0 7.303-1.877 15.467-5.176 23.209-9.834 23.081-14.415 48.058-12.427 73.068l10.561 239.743c14.056-12.462 28.799-22.528 44.283-32.229-2.66 6.89-5.83 13.5-9.46 19.75-2.62 4.51 2.86 9.38 7.04 6.25 11.99-8.97 22.35-19.86 30.54-32.26 7.6-11.52 17.28-21.5 28.73-29.22.07-.05.13-.09.2-.14 10.49-7.07 21.21-13.84 31.99-20.53-2.62 6.72-5.73 13.15-9.27 19.25-2.62 4.51 2.85 9.41 7.02 6.29 12.91-9.67 23.93-21.54 32.38-35.13.39 5.19.51 10.35.33 15.48-.18 5.21 6.95 6.97 9.16 2.25 6.28-13.43 10.27-27.76 11.68-42.39 1-10.41 3.98-20.51 8.32-30.02 11.54-25.31 15.06-54.23 7.89-83.64z" fill="url(#SVGID_00000134970422801199974640000005874833583234367383_)"/><g><path d="m169.334 300.411c-16.569 0-30-13.431-30-30v-15.385c0-16.569 13.431-30 30-30 16.568 0 30 13.431 30 30v15.385c0 16.569-13.432 30-30 30z" fill="url(#SVGID_00000010306313589603292030000016688182764245427072_)"/><path d="m342.666 300.411c-16.569 0-30-13.431-30-30v-15.385c0-16.569 13.431-30 30-30 16.569 0 30 13.431 30 30v15.385c0 16.569-13.431 30-30 30z" fill="url(#SVGID_00000070100108115506641460000001385307649174118538_)"/></g><path d="m454.118 380.584c-8.446 13.591-19.478 25.47-32.384 35.133-4.175 3.129-9.663-1.74-7.038-6.249 11.07-19.078 17.928-41.333 18.869-65.424l.713-18.356c.048-1.275.086-2.539.114-3.804l2.416.609 3.424 7.047c8.074 16.624 12.573 33.943 13.886 51.044z" fill="url(#SVGID_00000016780284905887302960000006621669985607956407_)"/><path d="m344.554 355.932-.209 44.729c-.637 16.187-3.947 31.547-9.406 45.67-2.663 6.895-5.83 13.496-9.463 19.744-2.615 4.518 2.863 9.387 7.038 6.258 11.993-8.978 22.36-19.858 30.539-32.26 7.609-11.518 17.29-21.504 28.741-29.227.067-.038.133-.086.2-.133 10.48-7.076 21.199-13.847 31.983-20.533 4.205-10.753 7.163-22.229 8.627-34.249h-88.05z" fill="url(#SVGID_00000057148467016774257660000005889625139845928617_)"/><g><path d="m391.991 410.709c6.862-4.625 13.828-9.114 20.84-13.544l-71.466-71.466-179.095 104.464 18.528 18.528c21.581 13.725 41.715 28.473 60.532 49.938 7.76 8.85 21.58 8.85 29.34 0 19.9-22.7 41.27-37.89 64.27-52.3-2.66 6.89-5.83 13.5-9.46 19.75-2.62 4.51 2.86 9.38 7.04 6.25 11.99-8.97 22.35-19.86 30.54-32.26 7.6-11.52 17.28-21.5 28.73-29.22.071-.05.131-.09.201-.14z" fill="url(#SVGID_00000025403167875776918170000002124862015517671071_)"/><path d="m418.351 402.685c-1.162 2.285-2.363 4.543-3.64 6.744-2.62 4.51 2.85 9.41 7.02 6.29 1.837-1.376 3.631-2.801 5.389-4.265z" fill="url(#SVGID_00000126287784719111310220000007998816678860636042_)"/></g><g><path d="m57.881 380.584c8.446 13.591 19.478 25.47 32.384 35.133 4.175 3.129 9.663-1.74 7.038-6.249-11.07-19.078-17.928-41.333-18.869-65.424l-.713-18.356c-.048-1.275-.086-2.539-.114-3.804l-2.416.609-3.424 7.047c-8.075 16.624-12.573 33.943-13.886 51.044z" fill="url(#SVGID_00000116937047236387804310000012389767027338111405_)"/><path d="m167.445 355.932.209 44.729c.637 16.187 3.947 31.547 9.406 45.67 2.663 6.895 5.83 13.496 9.463 19.744 2.615 4.518-2.863 9.387-7.038 6.258-11.993-8.978-22.36-19.858-30.539-32.26-7.609-11.518-17.29-21.504-28.741-29.227-.067-.038-.133-.086-.2-.133-10.48-7.076-21.199-13.847-31.983-20.533-4.205-10.753-7.163-22.229-8.627-34.249h88.05z" fill="url(#SVGID_00000170258712041859864220000008862722639738902969_)"/></g><g><path d="m266.738 492.794h-21.476c-17.05 0-30.297-14.852-28.355-31.791l7.618-66.442h62.95l7.618 66.442c1.942 16.939-11.305 31.791-28.355 31.791z" fill="url(#SVGID_00000067210735922112808330000015425805257883018173_)"/><path d="m266.738 492.794h-21.476c-17.05 0-30.297-14.852-28.355-31.791l7.618-66.442h62.95l7.618 66.442c1.942 16.939-11.305 31.791-28.355 31.791z" fill="url(#SVGID_00000098184428767902548970000001884146562799246004_)"/><path d="m287.475 394.561h-32.496v98.233h11.759c17.05 0 30.297-14.852 28.354-31.791z" fill="url(#SVGID_00000061429662278749791960000005984435938372847541_)"/></g><g><path d="m367.582 371.859c-14.293-49.047-59.246-82.771-110.333-82.771h-2.495c-51.087 0-96.04 33.724-110.333 82.77-8.2 28.139 7.088 55.63 33.741 69.237 15.976 8.156 35.177 6.713 49.941-3.474 16.794-11.588 39.002-11.588 55.796 0h.001c14.764 10.187 33.965 11.63 49.941 3.474 26.653-13.606 41.941-41.097 33.741-69.236z" fill="url(#SVGID_00000078041648183413385360000011893694479459843722_)"/><path d="m144.422 371.859c-8.2 28.139 7.088 55.63 33.741 69.237 15.976 8.156 35.177 6.713 49.941-3.474 16.793-11.588 39.002-11.588 55.796 0h.001c14.764 10.187 33.965 11.63 49.941 3.474 26.653-13.606 41.941-41.098 33.741-69.237-3.047-10.458-7.5-20.21-13.097-29.096h-196.967c-5.597 8.885-10.049 18.638-13.097 29.096z" fill="url(#SVGID_00000132070178439332942630000000504439480114222774_)"/><path d="m367.582 371.858c-14.292-49.046-59.246-82.77-110.332-82.77h-2.495c-1.941 0-3.87.065-5.792.161v140.191c12.006-1.736 24.514.989 34.937 8.181h.001c14.764 10.187 33.965 11.63 49.941 3.474 26.652-13.606 41.94-41.097 33.74-69.237z" fill="url(#SVGID_00000007398927760367736260000003539322182566793093_)"/><path d="m363.288 412.851-77.632-77.632-56.279 29.535 81.579 81.579c7.816.149 15.679-1.558 22.886-5.238 12.983-6.628 23.258-16.556 29.446-28.244z" fill="url(#SVGID_00000163778282587280322180000003988219754360246943_)"/><path d="m273.515 370.351 5.067-2.749c7-3.798 11.36-11.124 11.36-19.088v-.338c0-11.994-9.723-21.717-21.717-21.717h-24.447c-11.994 0-21.717 9.723-21.717 21.717v.338c0 7.964 4.36 15.29 11.36 19.088l5.067 2.749c10.924 5.926 24.104 5.926 35.027 0z" fill="url(#SVGID_00000100340820513307695070000001600011314693936798_)"/></g><g><path d="m183.506 17.003-117.404 136.04c-8.831 10.233-24.154 11.699-34.765 3.325-22.477-17.737-34.127-45.877-30.767-74.311l1.78-15.055c4.342-36.797 37.237-63.393 74.129-59.973z" fill="url(#SVGID_00000088822588921955526880000014555382519047862698_)"/><path d="m183.506 17.003-117.404 136.04c-8.831 10.233-24.154 11.699-34.765 3.325-22.477-17.737-34.127-45.877-30.767-74.311l1.78-15.055c4.342-36.797 37.237-63.393 74.129-59.973z" fill="url(#SVGID_00000047750277585512180780000018225644083754450566_)"/></g><g><path d="m328.494 17.003 117.404 136.04c8.831 10.233 24.154 11.699 34.765 3.325 22.477-17.737 34.127-45.877 30.766-74.311l-1.779-15.055c-4.342-36.796-37.238-63.392-74.129-59.973z" fill="url(#SVGID_00000110447339164646113150000009133045191152565910_)"/><path d="m328.494 17.003 117.404 136.04c8.831 10.233 24.154 11.699 34.765 3.325 22.477-17.737 34.127-45.877 30.766-74.311l-1.779-15.055c-4.342-36.796-37.238-63.392-74.129-59.973z" fill="url(#SVGID_00000093161148347119516860000011701104813864214713_)"/></g></g></svg>