<svg id="Capa_1" enable-background="new 0 0 512 512" height="512" viewBox="0 0 512 512" width="512" xmlns="http://www.w3.org/2000/svg" xmlns:xlink="http://www.w3.org/1999/xlink"><linearGradient id="lg1"><stop offset="0" stop-color="#fffaf8"/><stop offset="1" stop-color="#ffdfcf"/></linearGradient><linearGradient id="SVGID_1_" gradientUnits="userSpaceOnUse" x1="21.267" x2="89.703" xlink:href="#lg1" y1="284.832" y2="307.169"/><linearGradient id="lg2"><stop offset="0" stop-color="#f89580" stop-opacity="0"/><stop offset=".2599" stop-color="#f2917c" stop-opacity=".261"/><stop offset=".5954" stop-color="#e2856f" stop-opacity=".597"/><stop offset=".9709" stop-color="#c8725b" stop-opacity=".974"/><stop offset=".9972" stop-color="#c5715a"/></linearGradient><linearGradient id="SVGID_00000113345059801782358070000002522121133533682338_" gradientUnits="userSpaceOnUse" x1="12.85" x2="81.286" xlink:href="#lg2" y1="302.588" y2="296.885"/><linearGradient id="SVGID_00000096048132895150401540000006700988782971123638_" gradientUnits="userSpaceOnUse" x1="432.715" x2="506.853" xlink:href="#lg1" y1="294.348" y2="311.456"/><linearGradient id="SVGID_00000012469729015447948000000018261526733054602920_" gradientUnits="userSpaceOnUse" x1="479.082" x2="508.547" xlink:href="#lg2" y1="296.532" y2="294.156"/><linearGradient id="SVGID_00000134241060377657773270000003741749059947855761_" gradientUnits="userSpaceOnUse" x1="476.737" x2="499.074" xlink:href="#lg2" y1="352.803" y2="388.922"/><linearGradient id="SVGID_00000106127750150360352680000008905148221073278375_" gradientUnits="userSpaceOnUse" x1="112.06" x2="371.119" xlink:href="#lg1" y1="112.06" y2="371.119"/><linearGradient id="SVGID_00000110457163290443923010000012473531677268791960_" gradientUnits="userSpaceOnUse" x1="376.311" x2="499.281" xlink:href="#lg2" y1="294.701" y2="334.265"/><linearGradient id="SVGID_00000091718390886329476110000010011311330305314983_" gradientUnits="userSpaceOnUse" x1="256" x2="256" xlink:href="#lg2" y1="380.161" y2="504.367"/><linearGradient id="SVGID_00000134219274009704314170000017170921944972583352_" gradientUnits="userSpaceOnUse" x1="302.769" x2="273.778" xlink:href="#lg2" y1="427.425" y2="353.286"/><linearGradient id="SVGID_00000013154966872677231860000014672297476544584834_" gradientUnits="userSpaceOnUse" x1="323.387" x2="250.199" xlink:href="#lg2" y1="454.515" y2="379.901"/><linearGradient id="lg3"><stop offset="0" stop-color="#5a5a5a"/><stop offset="1" stop-color="#444"/></linearGradient><linearGradient id="SVGID_00000123406483889621977540000006235444888871713190_" gradientUnits="userSpaceOnUse" x1="169.142" x2="206.038" xlink:href="#lg3" y1="296.841" y2="324.001"/><linearGradient id="SVGID_00000159437286781136829880000013378102947891488932_" gradientUnits="userSpaceOnUse" x1="306.395" x2="339.192" xlink:href="#lg3" y1="295.25" y2="319.848"/><linearGradient id="SVGID_00000158027648800336096260000004295080386352903072_" gradientUnits="userSpaceOnUse" x1="256.164" x2="268.894" y1="420.731" y2="442.274"><stop offset="0" stop-color="#fdb4ba"/><stop offset="1" stop-color="#fd8087"/></linearGradient><linearGradient id="lg4"><stop offset="0" stop-color="#fd4755" stop-opacity="0"/><stop offset=".2593" stop-color="#f74452" stop-opacity=".259"/><stop offset=".6276" stop-color="#e43b4c" stop-opacity=".628"/><stop offset="1" stop-color="#ca2e43"/></linearGradient><linearGradient id="SVGID_00000095314114609294931990000008629434870568285831_" gradientUnits="userSpaceOnUse" x1="256" x2="256" xlink:href="#lg4" y1="421.908" y2="400.517"/><linearGradient id="SVGID_00000177480909839257017900000017195957919201020086_" gradientUnits="userSpaceOnUse" x1="282.191" x2="258.69" xlink:href="#lg4" y1="437.637" y2="412.667"/><linearGradient id="SVGID_00000094584287764380377710000013008999114585335976_" gradientUnits="userSpaceOnUse" x1="245.248" x2="265.916" xlink:href="#lg1" y1="340.854" y2="414.258"/><linearGradient id="SVGID_00000108307445804507651630000008236342858620197550_" gradientUnits="userSpaceOnUse" x1="256" x2="256" xlink:href="#lg2" y1="386.491" y2="418.845"/><linearGradient id="SVGID_00000149342979963158090000000008800774875271775421_" gradientUnits="userSpaceOnUse" x1="288.041" x2="252.408" xlink:href="#lg2" y1="374.359" y2="318.296"/><linearGradient id="SVGID_00000153705253108225336880000008238169474601559434_" gradientUnits="userSpaceOnUse" x1="295.629" x2="336.964" xlink:href="#lg2" y1="369.733" y2="372.584"/><linearGradient id="SVGID_00000026865871076950944730000008477647065669570463_" gradientUnits="userSpaceOnUse" x1="250.04" x2="262.558" xlink:href="#lg3" y1="329.04" y2="354.076"/><g><g><g><path d="m56.726 397.877c13.302 0 23.216-12.262 20.423-25.267-4.177-19.446-6.463-40.583-6.463-62.683 0-36.217 6.142-69.849 16.67-97.694 2.068-5.469-1.301-11.487-7.064-12.473-3.129-.535-6.34-.813-9.606-.813-13.89 0-26.77 5.04-36.73 13.5s-17 20.36-19.24 34.07l-13.96 85.5c-5.64 34.51 21 65.86 55.97 65.86z" fill="url(#SVGID_1_)"/></g><g><path d="m56.726 397.877c13.302 0 23.216-12.262 20.423-25.267-4.177-19.446-6.463-40.583-6.463-62.683 0-36.217 6.142-69.849 16.67-97.694 2.068-5.469-1.301-11.487-7.064-12.473-3.129-.535-6.34-.813-9.606-.813-13.89 0-26.77 5.04-36.73 13.5s-17 20.36-19.24 34.07l-13.96 85.5c-5.64 34.51 21 65.86 55.97 65.86z" fill="url(#SVGID_00000113345059801782358070000002522121133533682338_)"/></g><g><g><path d="m455.274 397.877c-13.302 0-23.216-12.262-20.423-25.267 4.177-19.446 6.463-40.583 6.463-62.683 0-36.217-6.142-69.849-16.67-97.694-2.068-5.469 1.301-11.487 7.064-12.473 3.129-.535 6.34-.813 9.606-.813 13.89 0 26.77 5.04 36.73 13.5s17 20.36 19.24 34.07l13.96 85.5c5.64 34.51-21 65.86-55.97 65.86z" fill="url(#SVGID_00000096048132895150401540000006700988782971123638_)"/></g><path d="m497.284 246.517c-2.24-13.71-9.28-25.61-19.24-34.07-8.25-7.008-18.506-11.658-29.678-13.052v197.315c2.151.752 4.472 1.166 6.908 1.166 34.97 0 61.61-31.35 55.97-65.86z" fill="url(#SVGID_00000012469729015447948000000018261526733054602920_)"/><path d="m441.314 309.927c0 22.1-2.286 43.237-6.463 62.683-2.793 13.005 7.121 25.267 20.423 25.267 34.97 0 61.61-31.35 55.97-65.86l-4.887-29.929h-65.149c.064 2.6.106 5.21.106 7.839z" fill="url(#SVGID_00000134241060377657773270000003741749059947855761_)"/></g></g><g><path d="m487.149 288.621-.092.156c-6.731 11.461-9.751 24.723-8.648 37.969l.006.075c1.944 23.334-8.927 45.886-28.393 58.9l-.019.013c-11.08 7.407-19.589 18.069-24.355 30.516l-.033.086c-8.36 21.832-27.892 37.42-51.033 40.732l-.145.021c-13.156 1.883-25.408 7.788-35.076 16.907l-.058.054c-17.033 16.066-41.442 21.625-63.752 14.519-12.719-4.051-26.382-4.051-39.101 0-22.31 7.106-46.719 1.547-63.752-14.518l-.059-.055c-9.668-9.119-21.92-15.025-35.076-16.907l-.146-.021c-23.142-3.312-42.673-18.901-51.033-40.732l-.033-.086c-4.766-12.446-13.276-23.108-24.355-30.516l-.019-.013c-19.466-13.014-30.337-35.566-28.393-58.9l.006-.074c1.103-13.245-1.917-26.508-8.648-37.969l-.092-.156c-11.827-20.14-11.827-45.103 0-65.243l.092-.156c6.731-11.461 9.751-24.723 8.648-37.969l-.006-.075c-1.944-23.334 8.927-45.886 28.393-58.9l.019-.013c11.08-7.407 19.589-18.069 24.355-30.516l.033-.086c8.36-21.832 27.892-37.42 51.033-40.732l.145-.021c13.156-1.883 25.408-7.788 35.076-16.907l.058-.054c17.033-16.066 41.442-21.625 63.752-14.519 12.719 4.051 26.382 4.051 39.101 0 22.31-7.106 46.719-1.547 63.752 14.518l.059.055c9.668 9.119 21.92 15.025 35.075 16.907l.146.021c23.142 3.312 42.673 18.901 51.033 40.732l.033.086c4.766 12.446 13.276 23.108 24.355 30.516l.019.013c19.466 13.014 30.337 35.566 28.393 58.9l-.006.074c-1.103 13.245 1.917 26.508 8.648 37.969l.092.156c11.828 20.14 11.828 45.104.001 65.243z" fill="url(#SVGID_00000106127750150360352680000008905148221073278375_)"/><path d="m487.058 223.223c-6.731-11.461-9.751-24.724-8.648-37.969l.006-.074c1.944-23.334-8.927-45.886-28.393-58.9l-.019-.013c-11.08-7.407-19.589-18.069-24.355-30.516l-.033-.086c-8.36-21.832-27.891-37.421-51.033-40.732l-.146-.021c-13.156-1.883-25.408-7.788-35.075-16.907l-.059-.055c-17.033-16.066-41.442-21.625-63.752-14.519-12.719 4.051-26.382 4.051-39.101 0-16.945-5.397-35.093-3.472-50.308 4.798v455.541c15.215 8.269 33.363 10.195 50.308 4.798 12.719-4.051 26.382-4.051 39.101 0 22.31 7.106 46.719 1.547 63.752-14.519l.058-.055c9.668-9.119 21.92-15.025 35.076-16.907l.145-.021c23.142-3.312 42.673-18.901 51.033-40.732l.033-.086c4.766-12.446 13.275-23.108 24.355-30.515l.019-.013c19.465-13.014 30.337-35.566 28.393-58.9l-.006-.075c-1.103-13.245 1.917-26.508 8.648-37.969l.092-.156c11.827-20.139 11.827-45.103 0-65.243z" fill="url(#SVGID_00000110457163290443923010000012473531677268791960_)"/><path d="m24.851 288.621.092.156c6.731 11.461 9.751 24.724 8.648 37.969l-.006.074c-1.944 23.335 8.927 45.886 28.393 58.9l.019.013c11.08 7.408 19.589 18.069 24.355 30.516l.033.086c8.36 21.832 27.891 37.421 51.033 40.732l.146.021c13.156 1.883 25.408 7.788 35.075 16.907l.059.055c17.033 16.066 41.442 21.625 63.752 14.519 12.719-4.051 26.382-4.051 39.101 0 22.31 7.106 46.719 1.547 63.752-14.519l.058-.055c9.668-9.119 21.92-15.025 35.076-16.907l.145-.021c23.142-3.312 42.673-18.901 51.033-40.732l.033-.086c4.766-12.446 13.275-23.108 24.355-30.515l.019-.013c19.465-13.014 30.337-35.566 28.393-58.9l-.006-.075c-1.103-13.245 1.917-26.508 8.648-37.969l.092-.156c8.582-14.613 10.904-31.76 7.032-47.767h-476.362c-3.872 16.007-1.55 33.154 7.032 47.767z" fill="url(#SVGID_00000091718390886329476110000010011311330305314983_)"/></g><g><path d="m313.277 346.344-121.508 53.18 90.856 90.855c20.272 4.006 41.43-1.948 56.678-16.33l.058-.054c9.668-9.119 21.92-15.025 35.076-16.907l.145-.021c12.768-1.827 24.432-7.398 33.732-15.686z" fill="url(#SVGID_00000134219274009704314170000017170921944972583352_)"/><path d="m313.28 346.347-57.28 25.07v114.113c6.596 0 13.191 1.013 19.551 3.038 22.31 7.106 46.719 1.547 63.752-14.519l.058-.054c9.668-9.119 21.92-15.025 35.076-16.907l.145-.021c12.768-1.827 24.432-7.397 33.732-15.686z" fill="url(#SVGID_00000013154966872677231860000014672297476544584834_)"/><g><path d="m186.474 342.987c-14.677 0-26.574-11.898-26.574-26.574v-13.628c0-14.677 11.898-26.574 26.574-26.574 14.676 0 26.574 11.898 26.574 26.574v13.628c0 14.677-11.898 26.574-26.574 26.574z" fill="url(#SVGID_00000123406483889621977540000006235444888871713190_)"/><path d="m325.526 342.987c-14.677 0-26.574-11.898-26.574-26.574v-13.628c0-14.677 11.898-26.574 26.574-26.574 14.677 0 26.574 11.898 26.574 26.574v13.628c.001 14.677-11.897 26.574-26.574 26.574z" fill="url(#SVGID_00000159437286781136829880000013378102947891488932_)"/></g><g><g><g><path d="m265.206 465.786h-18.411c-14.617 0-25.973-12.732-24.308-27.254l6.531-56.96h53.966l6.531 56.96c1.664 14.522-9.692 27.254-24.309 27.254z" fill="url(#SVGID_00000158027648800336096260000004295080386352903072_)"/><path d="m265.206 465.786h-18.411c-14.617 0-25.973-12.732-24.308-27.254l6.531-56.96h53.966l6.531 56.96c1.664 14.522-9.692 27.254-24.309 27.254z" fill="url(#SVGID_00000095314114609294931990000008629434870568285831_)"/><path d="m282.983 381.572h-27.859v84.215h10.081c14.617 0 25.973-12.732 24.308-27.254z" fill="url(#SVGID_00000177480909839257017900000017195957919201020086_)"/></g><g><path d="m328.543 370.778c-9.393-26.797-34.69-44.735-63.085-44.735h-18.916c-28.395 0-53.692 17.938-63.085 44.735-5.466 15.594 5.123 30.821 23.27 37.966 10.18 4.008 21.656 3.014 31.146-2.43 11.226-6.44 25.026-6.44 36.252 0 9.49 5.444 20.966 6.438 31.146 2.43 18.149-7.145 28.738-22.371 23.272-37.966z" fill="url(#SVGID_00000094584287764380377710000013008999114585335976_)"/><path d="m183.457 370.778c-5.466 15.595 5.123 30.821 23.27 37.966 10.18 4.008 21.656 3.014 31.146-2.43 11.226-6.44 25.026-6.44 36.252 0 9.49 5.444 20.966 6.438 31.146 2.429 18.148-7.145 28.737-22.371 23.27-37.966-1.922-5.484-4.52-10.589-7.665-15.253h-129.754c-3.144 4.665-5.742 9.77-7.665 15.254z" fill="url(#SVGID_00000108307445804507651630000008236342858620197550_)"/><path d="m328.543 370.778c-9.393-26.797-34.69-44.735-63.085-44.735h-4.757l-29.482 29.482 55.156 55.156c6.297 1.05 12.826.453 18.897-1.938 18.148-7.144 28.737-22.37 23.271-37.965z" fill="url(#SVGID_00000149342979963158090000000008800774875271775421_)"/><path d="m328.543 370.778c-9.393-26.796-34.69-44.734-63.085-44.734h-14.556v75.81c7.9-1.116 16.082.364 23.224 4.46 9.49 5.444 20.966 6.438 31.146 2.429 18.148-7.144 28.737-22.37 23.271-37.965z" fill="url(#SVGID_00000153705253108225336880000008238169474601559434_)"/></g></g><path d="m271.991 361.059 4.627-2.51c6.392-3.468 10.373-10.157 10.373-17.43v-.309c0-10.952-8.878-19.83-19.83-19.83h-22.322c-10.952 0-19.83 8.878-19.83 19.83v.309c0 7.272 3.981 13.961 10.373 17.43l4.627 2.51c9.974 5.412 22.008 5.412 31.982 0z" fill="url(#SVGID_00000026865871076950944730000008477647065669570463_)"/></g></g></g></svg>