<svg id="Capa_1" enable-background="new 0 0 512 512" height="512" viewBox="0 0 512 512" width="512" xmlns="http://www.w3.org/2000/svg" xmlns:xlink="http://www.w3.org/1999/xlink"><linearGradient id="lg1"><stop offset="0" stop-color="#5a5a5a"/><stop offset="1" stop-color="#444"/></linearGradient><linearGradient id="SVGID_1_" gradientUnits="userSpaceOnUse" x1="67.484" x2="137.392" xlink:href="#lg1" y1="50.066" y2="146.002"/><linearGradient id="lg2"><stop offset="0" stop-color="#433f43" stop-opacity="0"/><stop offset=".2995" stop-color="#3e3b3e" stop-opacity=".3"/><stop offset=".6425" stop-color="#302e30" stop-opacity=".643"/><stop offset="1" stop-color="#1a1a1a"/></linearGradient><linearGradient id="SVGID_00000085957336920013192230000017984424076127647361_" gradientUnits="userSpaceOnUse" x1="100.535" x2="147.39" xlink:href="#lg2" y1="90.273" y2="158.696"/><linearGradient id="SVGID_00000039844370375269184950000001265364246267430277_" gradientUnits="userSpaceOnUse" x1="161.741" x2="248.757" xlink:href="#lg2" y1="105.027" y2="75.278"/><linearGradient id="lg3"><stop offset="0" stop-color="#ffdfcf"/><stop offset="1" stop-color="#fd8087"/></linearGradient><linearGradient id="SVGID_00000158023261101360953340000008635787605337862297_" gradientUnits="userSpaceOnUse" x1="96.502" x2="139.636" xlink:href="#lg3" y1="76.128" y2="128.93"/><linearGradient id="lg4"><stop offset="0" stop-color="#fd4755" stop-opacity="0"/><stop offset=".2593" stop-color="#f74452" stop-opacity=".259"/><stop offset=".6276" stop-color="#e43b4c" stop-opacity=".628"/><stop offset="1" stop-color="#ca2e43"/></linearGradient><linearGradient id="SVGID_00000014627743346843956210000014436514358904802705_" gradientUnits="userSpaceOnUse" x1="114.41" x2="89.125" xlink:href="#lg4" y1="115.563" y2="106.638"/><linearGradient id="SVGID_00000122684753632110089540000007468879084779720066_" gradientUnits="userSpaceOnUse" x1="308.077" x2="394.345" xlink:href="#lg1" y1="78.891" y2="177.802"/><linearGradient id="SVGID_00000051345088935714691490000017814399001706112908_" gradientUnits="userSpaceOnUse" x1="394.404" x2="370.604" xlink:href="#lg2" y1="99.815" y2="142.208"/><linearGradient id="SVGID_00000141417475897064296670000014687109537190486932_" gradientUnits="userSpaceOnUse" x1="413.002" x2="450.187" xlink:href="#lg2" y1="126.605" y2="124.374"/><linearGradient id="SVGID_00000078025365537884935220000008744952130310146480_" gradientUnits="userSpaceOnUse" x1="330.354" x2="364.564" xlink:href="#lg3" y1="69.451" y2="139.358"/><linearGradient id="SVGID_00000137835348023296926470000000702624870747013512_" gradientUnits="userSpaceOnUse" x1="373.703" x2="363.291" xlink:href="#lg4" y1="74.589" y2="116.236"/><linearGradient id="SVGID_00000075145195379161609010000006972848700798928827_" gradientUnits="userSpaceOnUse" x1="350.998" x2="326.456" xlink:href="#lg4" y1="107.766" y2="85.456"/><linearGradient id="SVGID_00000154402879950713421660000014920612754212216964_" gradientUnits="userSpaceOnUse" x1="144.918" x2="469.947" y1="173.263" y2="498.292"><stop offset="0" stop-color="#ffbf51"/><stop offset="1" stop-color="#c5715a"/></linearGradient><linearGradient id="lg5"><stop offset="0" stop-color="#883f2e" stop-opacity="0"/><stop offset=".2979" stop-color="#8b402e" stop-opacity=".298"/><stop offset=".536" stop-color="#954430" stop-opacity=".536"/><stop offset=".7533" stop-color="#a64b34" stop-opacity=".753"/><stop offset=".9572" stop-color="#be5539" stop-opacity=".957"/><stop offset="1" stop-color="#c4573a"/></linearGradient><linearGradient id="SVGID_00000082340214167793129170000000214555522137000876_" gradientUnits="userSpaceOnUse" x1="430.008" x2="507.299" xlink:href="#lg5" y1="278.354" y2="287.846"/><linearGradient id="SVGID_00000051348576685690417450000014427254674493414290_" gradientUnits="userSpaceOnUse" x1="181.95" x2="389.328" xlink:href="#lg1" y1="215.8" y2="215.8"/><linearGradient id="SVGID_00000090256550681044578300000007323183222547309499_" gradientUnits="userSpaceOnUse" x1="420.303" x2="483.036" xlink:href="#lg2" y1="212.031" y2="202.763"/><linearGradient id="SVGID_00000053535463605613925820000001383033693556202901_" gradientUnits="userSpaceOnUse" x1="149.767" x2="191.42" xlink:href="#lg1" y1="219.518" y2="250.179"/><linearGradient id="SVGID_00000135680756659646657560000002997715217376405162_" gradientUnits="userSpaceOnUse" x1="321.068" x2="358.093" xlink:href="#lg1" y1="217.723" y2="245.491"/><linearGradient id="lg6"><stop offset="0" stop-color="#fffaf8"/><stop offset="1" stop-color="#ffdfcf"/></linearGradient><linearGradient id="SVGID_00000137096339778537038460000005739685979379950483_" gradientUnits="userSpaceOnUse" x1="247.891" x2="278.753" xlink:href="#lg6" y1="287.256" y2="287.256"/><linearGradient id="SVGID_00000061468825019002907950000013455163701573887418_" gradientUnits="userSpaceOnUse" x1="425.752" x2="451.772" xlink:href="#lg5" y1="375.679" y2="386.016"/><linearGradient id="SVGID_00000052080448518034314740000011573442998241889175_" gradientUnits="userSpaceOnUse" x1="367.6" x2="386.847" xlink:href="#lg5" y1="407.942" y2="428.615"/><linearGradient id="SVGID_00000137107127033642640240000012999855840000181692_" gradientUnits="userSpaceOnUse" x1="346.731" x2="268.315" xlink:href="#lg5" y1="514.818" y2="389.708"/><linearGradient id="SVGID_00000108271558989435727570000003885791265799838084_" gradientUnits="userSpaceOnUse" x1="442.841" x2="364.424" xlink:href="#lg5" y1="454.578" y2="329.469"/><linearGradient id="SVGID_00000052811581888605998670000001223989902475570568_" gradientUnits="userSpaceOnUse" x1="75.63" x2="58.164" xlink:href="#lg5" y1="377.238" y2="379.377"/><linearGradient id="SVGID_00000027566409698879903630000003863193069572562826_" gradientUnits="userSpaceOnUse" x1="134.686" x2="122.21" xlink:href="#lg5" y1="418.013" y2="433.696"/><linearGradient id="SVGID_00000127019524336053033790000001570534249362653080_" gradientUnits="userSpaceOnUse" x1="256.164" x2="268.894" y1="445.483" y2="467.027"><stop offset="0" stop-color="#fdb4ba"/><stop offset="1" stop-color="#fd8087"/></linearGradient><linearGradient id="SVGID_00000148639772475395465210000010560630077637463476_" gradientUnits="userSpaceOnUse" x1="256" x2="256" xlink:href="#lg4" y1="458.21" y2="433.219"/><linearGradient id="SVGID_00000062898217818559896500000012798151263337532859_" gradientUnits="userSpaceOnUse" x1="282.191" x2="258.69" xlink:href="#lg4" y1="462.39" y2="437.419"/><linearGradient id="SVGID_00000080179334639613580810000000101079379630134956_" gradientUnits="userSpaceOnUse" x1="227.25" x2="282.854" xlink:href="#lg6" y1="339.328" y2="441.981"/><linearGradient id="lg7"><stop offset="0" stop-color="#f89580" stop-opacity="0"/><stop offset=".2599" stop-color="#f2917c" stop-opacity=".261"/><stop offset=".5954" stop-color="#e2856f" stop-opacity=".597"/><stop offset=".9709" stop-color="#c8725b" stop-opacity=".974"/><stop offset=".9972" stop-color="#c5715a"/></linearGradient><linearGradient id="SVGID_00000063602392572858011080000000540476593137611953_" gradientUnits="userSpaceOnUse" x1="256.002" x2="256.002" xlink:href="#lg7" y1="400.814" y2="461.408"/><linearGradient id="SVGID_00000044153910461772704660000015355471563709307575_" gradientUnits="userSpaceOnUse" x1="301.819" x2="368.829" xlink:href="#lg7" y1="378.161" y2="398.121"/><linearGradient id="SVGID_00000088812329947867396510000006249802216093733550_" gradientUnits="userSpaceOnUse" x1="299.015" x2="251.49" xlink:href="#lg7" y1="399.828" y2="323.789"/><linearGradient id="SVGID_00000069380219899041784710000006117002745162653357_" gradientUnits="userSpaceOnUse" x1="249.475" x2="263.185" xlink:href="#lg1" y1="342.017" y2="369.436"/><g><g><g><path d="m91.79 13.961c6.707-12.31 21.891-17.373 34.643-11.551 69.189 31.586 135.736 112.139 151.837 185.187-74.138-34.415-158.157-6.392-196.801 65.618-30.953-68.087-26.069-172.462 10.321-239.254z" fill="url(#SVGID_1_)"/><path d="m91.79 13.961c6.707-12.31 21.891-17.373 34.643-11.551 69.189 31.586 135.736 112.139 151.837 185.187-74.138-34.415-158.157-6.392-196.801 65.618-30.953-68.087-26.069-172.462 10.321-239.254z" fill="url(#SVGID_00000085957336920013192230000017984424076127647361_)"/><path d="m91.79 13.961c6.707-12.31 21.891-17.373 34.643-11.551 69.189 31.586 135.736 112.139 151.837 185.187-74.138-34.415-158.157-6.392-196.801 65.618-30.953-68.087-26.069-172.462 10.321-239.254z" fill="url(#SVGID_00000039844370375269184950000001265364246267430277_)"/><path d="m138.991 54.75c-9.48-4.965-21.232-1.047-25.836 8.614-16.713 35.073-18.315 86.407-2.839 120.448 20.27-37.772 64.341-52.471 103.23-34.419-8.05-36.521-40.139-76.618-74.555-94.643z" fill="url(#SVGID_00000158023261101360953340000008635787605337862297_)"/><path d="m138.991 54.75c-9.48-4.965-21.232-1.047-25.836 8.614-16.713 35.073-18.315 86.407-2.839 120.448 20.27-37.772 64.341-52.471 103.23-34.419-8.05-36.521-40.139-76.618-74.555-94.643z" fill="url(#SVGID_00000014627743346843956210000014436514358904802705_)"/></g><g><path d="m419.986 13.961c-6.707-12.31-21.891-17.373-34.643-11.551-69.189 31.586-135.736 112.139-151.837 185.187 74.138-34.415 158.157-6.392 196.801 65.618 30.953-68.087 26.069-172.462-10.321-239.254z" fill="url(#SVGID_00000122684753632110089540000007468879084779720066_)"/><path d="m419.986 13.961c-6.707-12.31-21.891-17.373-34.643-11.551-69.189 31.586-135.736 112.139-151.837 185.187 74.138-34.415 158.157-6.392 196.801 65.618 30.953-68.087 26.069-172.462-10.321-239.254z" fill="url(#SVGID_00000051345088935714691490000017814399001706112908_)"/><path d="m419.986 13.961c-6.707-12.31-21.891-17.373-34.643-11.551-69.189 31.586-135.736 112.139-151.837 185.187 74.138-34.415 158.157-6.392 196.801 65.618 30.953-68.087 26.069-172.462-10.321-239.254z" fill="url(#SVGID_00000141417475897064296670000014687109537190486932_)"/><path d="m372.784 54.75c9.48-4.965 21.232-1.047 25.836 8.614 16.713 35.073 18.315 86.407 2.839 120.448-20.27-37.772-64.341-52.471-103.23-34.419 8.051-36.521 40.14-76.618 74.555-94.643z" fill="url(#SVGID_00000078025365537884935220000008744952130310146480_)"/><path d="m372.784 54.75c9.48-4.965 21.232-1.047 25.836 8.614 16.713 35.073 18.315 86.407 2.839 120.448-20.27-37.772-64.341-52.471-103.23-34.419 8.051-36.521 40.14-76.618 74.555-94.643z" fill="url(#SVGID_00000137835348023296926470000000702624870747013512_)"/><path d="m372.784 54.75c9.48-4.965 21.232-1.047 25.836 8.614 16.713 35.073 18.315 86.407 2.839 120.448-20.27-37.772-64.341-52.471-103.23-34.419 8.051-36.521 40.14-76.618 74.555-94.643z" fill="url(#SVGID_00000075145195379161609010000006972848700798928827_)"/></g></g><g><path d="m483.601 332.642c-4.34 9.51-7.32 19.61-8.32 30.02-1.41 14.63-5.4 28.96-11.68 42.39-2.21 4.72-9.34 2.96-9.16-2.25.18-5.13.06-10.29-.33-15.48-8.45 13.59-19.47 25.46-32.38 35.13-4.17 3.12-9.64-1.78-7.02-6.29 3.54-6.1 6.65-12.53 9.27-19.25-10.78 6.69-21.5 13.46-31.99 20.53-.07.05-.13.09-.2.14-11.45 7.72-21.13 17.7-28.73 29.22-8.19 12.4-18.55 23.29-30.54 32.26-4.18 3.13-9.66-1.74-7.04-6.25 3.63-6.25 6.8-12.86 9.46-19.75-23 14.41-44.37 29.6-64.27 52.3-7.76 8.85-21.58 8.85-29.34 0-19.9-22.7-41.27-37.89-64.27-52.3 2.66 6.89 5.83 13.5 9.46 19.75 2.62 4.51-2.86 9.38-7.04 6.25-11.99-8.97-22.35-19.86-30.53-32.25-7.61-11.53-17.29-21.51-28.74-29.23-.07-.05-.14-.09-.2-.14-10.49-7.08-21.21-13.84-31.99-20.53 2.62 6.72 5.73 13.15 9.27 19.25 2.62 4.51-2.85 9.41-7.02 6.29-12.91-9.67-23.93-21.54-32.38-35.13-.4 5.19-.51 10.35-.33 15.48.18 5.21-6.95 6.97-9.16 2.25-6.28-13.43-10.27-27.76-11.68-42.39-1-10.41-3.98-20.51-8.32-30.02-11.54-25.31-15.06-54.23-7.89-83.64l4.56-18.69c12.24-50.18 42.33-93.081 83.17-123.431 9.197-6.832 18.939-13.03 29.146-18.532 33.472-18.043 73.877-17.623 107.199.696l11.414 6.276 11.412-6.274c33.393-18.358 73.873-18.7 107.401-.588 55.443 29.951 97.141 80.45 112.118 141.853l4.56 18.69c7.17 29.409 3.65 58.329-7.89 83.64z" fill="url(#SVGID_00000154402879950713421660000014920612754212216964_)"/><path d="m486.933 230.314c-16.858-69.119-67.578-124.419-133.646-152.152v381.54c3.524-4.088 6.794-8.388 9.769-12.895 7.604-11.522 17.289-21.505 28.734-29.225.067-.045.134-.09.201-.135 10.485-7.079 21.206-13.848 31.989-20.53-2.622 6.711-5.726 13.144-9.269 19.247-2.618 4.51 2.847 9.41 7.022 6.286 12.911-9.662 23.926-21.537 32.374-35.128.398 5.186.515 10.354.338 15.477-.181 5.214 6.946 6.978 9.156 2.252 6.278-13.432 10.267-27.758 11.677-42.39 1.003-10.409 3.988-20.504 8.325-30.019 11.536-25.312 15.061-54.232 7.889-83.638z" fill="url(#SVGID_00000082340214167793129170000000214555522137000876_)"/><path d="m484.601 332.642c-.43.94-.84 1.88-1.24 2.83-3 7.08-6.22 14.48-7.42 22.07-41.21-22.71-70.07-62.86-78.38-109.341-3.2-17.84-9.54-34.82-18.59-50.19-9.06-15.37-20.83-29.14-34.9-40.57-7.64-6.21-16.77-9.2-25.82-9.2-13.34 0-26.51 6.49-34.41 18.65-.06.08-.11.16-.16.24-1.24 1.94-2.307 3.978-3.2 6.084-1.165 2.747-2.309 5.504-3.597 8.196l-13.546 28.309c-2.949 6.163-11.724 6.163-14.673 0l-13.546-28.309c-1.288-2.692-2.432-5.448-3.597-8.196-.893-2.106-1.96-4.144-3.2-6.084-.05-.08-.1-.16-.16-.24-7.9-12.16-21.07-18.65-34.41-18.65-9.05 0-18.18 2.99-25.82 9.2-14.07 11.43-25.84 25.2-34.9 40.57-9.05 15.37-15.39 32.35-18.59 50.19-8.31 46.48-37.17 86.63-78.38 109.341-1.2-7.59-4.42-14.99-7.42-22.07-.4-.95-.81-1.89-1.24-2.83-11.54-25.31-15.06-54.23-7.89-83.64l4.56-18.69c9.46-38.78 29.58-74.21 57.09-101.861 8.08-8.13 17.8-15.67 27.08-22.57 9.2-6.83 18.94-13.03 29.15-18.53 33.47-18.04 73.87-17.63 107.191.69l11.42 6.28 11.41-6.27c33.4-18.36 73.88-18.7 107.401-.59 20.43 11.04 39.99 24.86 56.03 40.99 27.51 27.64 47.63 63.08 57.09 101.861l4.56 18.69c7.167 29.409 3.647 58.329-7.893 83.64z" fill="url(#SVGID_00000051348576685690417450000014427254674493414290_)"/><path d="m263.336 209.72 13.546-28.309c1.288-2.692 2.432-5.448 3.597-8.196.893-2.106 1.96-4.144 3.2-6.084.05-.08.1-.16.16-.24 7.9-12.16 21.07-18.65 34.41-18.65 9.05 0 18.18 2.99 25.82 9.2 14.07 11.43 25.84 25.2 34.9 40.57 9.05 15.37 15.39 32.35 18.59 50.19 8.31 46.48 37.17 86.63 78.38 109.341 1.2-7.59 4.42-14.99 7.42-22.07.4-.95.81-1.89 1.24-2.83 11.54-25.31 15.06-54.23 7.89-83.64l-4.56-18.69c-9.46-38.78-29.58-74.22-57.09-101.861-16.04-16.13-35.6-29.95-56.03-40.99-33.52-18.11-74-17.77-107.401.59l-11.408 6.27v120.021c2.931 0 5.862-1.541 7.336-4.622z" fill="url(#SVGID_00000090256550681044578300000007323183222547309499_)"/></g><g><path d="m169.334 271.613c-16.569 0-30-13.431-30-30v-15.385c0-16.569 13.431-30 30-30 16.568 0 30 13.431 30 30v15.385c0 16.569-13.432 30-30 30z" fill="url(#SVGID_00000053535463605613925820000001383033693556202901_)"/><path d="m342.666 271.613c-16.569 0-30-13.431-30-30v-15.385c0-16.569 13.431-30 30-30 16.569 0 30 13.431 30 30v15.385c0 16.569-13.431 30-30 30z" fill="url(#SVGID_00000135680756659646657560000002997715217376405162_)"/></g><path d="m274.932 321.483h-37.865v-49.523c0-10.456 8.476-18.932 18.932-18.932 10.456 0 18.932 8.476 18.932 18.932v49.523z" fill="url(#SVGID_00000137096339778537038460000005739685979379950483_)"/><path d="m454.118 387.316c-8.446 13.591-19.478 25.47-32.384 35.132-4.175 3.129-9.663-1.74-7.038-6.249 11.07-19.078 17.928-41.333 18.869-65.424l.713-18.356c.048-1.275.086-2.539.114-3.804l2.416.609 3.424 7.047c8.074 16.626 12.573 33.945 13.886 51.045z" fill="url(#SVGID_00000061468825019002907950000013455163701573887418_)"/><path d="m344.554 362.665-.209 44.729c-.637 16.187-3.947 31.547-9.406 45.67-2.663 6.895-5.83 13.496-9.463 19.744-2.615 4.518 2.863 9.387 7.038 6.258 11.993-8.978 22.36-19.858 30.539-32.26 7.609-11.518 17.29-21.504 28.741-29.227.067-.038.133-.086.2-.133 10.48-7.076 21.199-13.847 31.983-20.533 4.205-10.753 7.163-22.229 8.627-34.249h-88.05z" fill="url(#SVGID_00000052080448518034314740000011573442998241889175_)"/><g><path d="m391.991 417.442c6.862-4.625 13.828-9.114 20.84-13.544l-71.466-71.466-179.095 104.464 18.528 18.528c21.581 13.725 41.715 28.473 60.532 49.938 7.76 8.85 21.58 8.85 29.34 0 19.9-22.7 41.27-37.89 64.27-52.3-2.66 6.89-5.83 13.5-9.46 19.75-2.62 4.51 2.86 9.38 7.04 6.25 11.99-8.97 22.35-19.86 30.54-32.26 7.6-11.52 17.28-21.5 28.73-29.22.071-.05.131-.09.201-.14z" fill="url(#SVGID_00000137107127033642640240000012999855840000181692_)"/><path d="m418.351 409.418c-1.162 2.285-2.363 4.543-3.64 6.744-2.62 4.51 2.85 9.41 7.02 6.29 1.837-1.376 3.631-2.801 5.389-4.265z" fill="url(#SVGID_00000108271558989435727570000003885791265799838084_)"/></g><g><path d="m57.881 387.316c8.446 13.591 19.478 25.47 32.384 35.132 4.175 3.129 9.663-1.74 7.038-6.249-11.07-19.078-17.928-41.333-18.869-65.424l-.713-18.356c-.048-1.275-.086-2.539-.114-3.804l-2.416.609-3.424 7.047c-8.075 16.626-12.573 33.945-13.886 51.045z" fill="url(#SVGID_00000052811581888605998670000001223989902475570568_)"/><path d="m167.445 362.665.209 44.729c.637 16.187 3.947 31.547 9.406 45.67 2.663 6.895 5.83 13.496 9.463 19.744 2.615 4.518-2.863 9.387-7.038 6.258-11.993-8.978-22.36-19.858-30.539-32.26-7.609-11.518-17.29-21.504-28.741-29.227-.067-.038-.133-.086-.2-.133-10.48-7.076-21.199-13.847-31.983-20.533-4.205-10.753-7.163-22.229-8.627-34.249h88.05z" fill="url(#SVGID_00000027566409698879903630000003863193069572562826_)"/></g><g><path d="m265.206 490.539h-18.412c-14.617 0-25.973-12.732-24.308-27.254l6.531-56.96h53.967l6.531 56.96c1.664 14.521-9.692 27.254-24.309 27.254z" fill="url(#SVGID_00000127019524336053033790000001570534249362653080_)"/><path d="m265.206 490.539h-18.412c-14.617 0-25.973-12.732-24.308-27.254l6.531-56.96h53.967l6.531 56.96c1.664 14.521-9.692 27.254-24.309 27.254z" fill="url(#SVGID_00000148639772475395465210000010560630077637463476_)"/><path d="m282.983 406.324h-27.859v84.215h10.081c14.617 0 25.973-12.732 24.308-27.254z" fill="url(#SVGID_00000062898217818559896500000012798151263337532859_)"/></g><g><path d="m367.582 378.591c-14.293-49.047-59.246-82.771-110.333-82.771h-2.495c-51.087 0-96.04 33.724-110.333 82.77-8.2 28.139 7.088 55.63 33.741 69.237 15.976 8.156 35.177 6.713 49.941-3.474 16.794-11.588 39.002-11.588 55.796 0h.001c14.764 10.187 33.965 11.63 49.941 3.474 26.653-13.605 41.941-41.096 33.741-69.236z" fill="url(#SVGID_00000080179334639613580810000000101079379630134956_)"/><path d="m144.422 378.591c-8.2 28.139 7.088 55.63 33.741 69.237 15.976 8.156 35.177 6.713 49.941-3.474 16.793-11.588 39.002-11.588 55.796 0h.001c14.764 10.187 33.965 11.63 49.941 3.474 26.653-13.606 41.941-41.098 33.741-69.237-3.047-10.458-7.5-20.211-13.097-29.096h-196.967c-5.597 8.886-10.049 18.639-13.097 29.096z" fill="url(#SVGID_00000063602392572858011080000000540476593137611953_)"/><path d="m367.582 378.591c-14.292-49.046-59.246-82.77-110.332-82.77h-2.495c-1.941 0-3.87.065-5.792.161v140.191c12.006-1.736 24.514.989 34.937 8.181h.001c14.764 10.187 33.965 11.63 49.941 3.474 26.652-13.606 41.94-41.097 33.74-69.237z" fill="url(#SVGID_00000044153910461772704660000015355471563709307575_)"/><path d="m363.288 419.584-77.632-77.632-56.279 29.535 81.579 81.579c7.816.149 15.679-1.558 22.886-5.238 12.983-6.628 23.258-16.556 29.446-28.244z" fill="url(#SVGID_00000088812329947867396510000006249802216093733550_)"/><path d="m273.515 377.083 5.067-2.749c7-3.798 11.36-11.124 11.36-19.088v-.338c0-11.994-9.723-21.717-21.717-21.717h-24.447c-11.994 0-21.717 9.723-21.717 21.717v.338c0 7.964 4.36 15.29 11.36 19.088l5.067 2.749c10.924 5.927 24.104 5.927 35.027 0z" fill="url(#SVGID_00000069380219899041784710000006117002745162653357_)"/></g></g></svg>