<svg id="Capa_1" enable-background="new 0 0 512 512" height="512" viewBox="0 0 512 512" width="512" xmlns="http://www.w3.org/2000/svg" xmlns:xlink="http://www.w3.org/1999/xlink"><linearGradient id="lg1"><stop offset="0" stop-color="#5a5a5a"/><stop offset="1" stop-color="#444"/></linearGradient><linearGradient id="SVGID_1_" gradientUnits="userSpaceOnUse" x1="124.3" x2="375.431" xlink:href="#lg1" y1="141.743" y2="361.947"/><linearGradient id="lg2"><stop offset="0" stop-color="#433f43" stop-opacity="0"/><stop offset=".2995" stop-color="#3e3b3e" stop-opacity=".3"/><stop offset=".6425" stop-color="#302e30" stop-opacity=".643"/><stop offset="1" stop-color="#1a1a1a"/></linearGradient><linearGradient id="SVGID_00000075866743039155144100000015414676071813958038_" gradientUnits="userSpaceOnUse" x1="326.953" x2="469.838" xlink:href="#lg2" y1="240.344" y2="294.158"/><linearGradient id="SVGID_00000173883691372631794050000015380877110315386024_" gradientUnits="userSpaceOnUse" x1="271.969" x2="444.483" xlink:href="#lg2" y1="232.07" y2="239.198"/><linearGradient id="SVGID_00000067208504313791950110000000780941897869308330_" gradientUnits="userSpaceOnUse" x1="256" x2="256" xlink:href="#lg2" y1="339.086" y2="442.491"/><linearGradient id="SVGID_00000029026127426713762620000000413818342947031433_" gradientUnits="userSpaceOnUse" x1="311.313" x2="275.43" xlink:href="#lg2" y1="88.018" y2="46.884"/><linearGradient id="SVGID_00000172428705205632863330000000602361930924733059_" gradientUnits="userSpaceOnUse" x1="193.87" x2="235.296" xlink:href="#lg2" y1="94.406" y2="42.479"/><linearGradient id="SVGID_00000000220214888845466980000008216689369564384686_" gradientUnits="userSpaceOnUse" x1="328.02" x2="289.512" xlink:href="#lg2" y1="135.261" y2="45.992"/><linearGradient id="SVGID_00000169535574795883039420000010213378641913312425_" gradientUnits="userSpaceOnUse" x1="188.937" x2="222.778" xlink:href="#lg2" y1="123.705" y2="47.272"/><linearGradient id="SVGID_00000091006099881192449760000005911641984528187566_" gradientUnits="userSpaceOnUse" x1="324.701" x2="292.028" xlink:href="#lg2" y1="171.727" y2="84.792"/><linearGradient id="SVGID_00000023965075907361624940000009520436863696222639_" gradientUnits="userSpaceOnUse" x1="191.351" x2="216.439" xlink:href="#lg2" y1="159.692" y2="85.592"/><linearGradient id="SVGID_00000048493972164307500990000016958164493726528387_" gradientUnits="userSpaceOnUse" x1="117.069" x2="204.039" xlink:href="#lg2" y1="137.108" y2="246.178"/><linearGradient id="SVGID_00000110443517419148714580000017184830259786122633_" gradientUnits="userSpaceOnUse" x1="285.049" x2="342.079" xlink:href="#lg2" y1="155.501" y2="232.491"/><linearGradient id="SVGID_00000129186849126494333660000000864230302614406034_" gradientUnits="userSpaceOnUse" x1="256.136" x2="266.709" y1="414.332" y2="432.224"><stop offset="0" stop-color="#fdb4ba"/><stop offset="1" stop-color="#fd8087"/></linearGradient><linearGradient id="lg3"><stop offset="0" stop-color="#fd4755" stop-opacity="0"/><stop offset=".2593" stop-color="#f74452" stop-opacity=".259"/><stop offset=".6276" stop-color="#e43b4c" stop-opacity=".628"/><stop offset="1" stop-color="#ca2e43"/></linearGradient><linearGradient id="SVGID_00000142876188263487500540000010134587315439555471_" gradientUnits="userSpaceOnUse" x1="268.148" x2="245.323" xlink:href="#lg3" y1="419.847" y2="409.739"/><linearGradient id="SVGID_00000025439134805723333410000008908083446407297979_" gradientUnits="userSpaceOnUse" x1="277.752" x2="258.234" xlink:href="#lg3" y1="428.373" y2="407.634"/><linearGradient id="SVGID_00000069356933243251526330000014448453502568933013_" gradientTransform="matrix(.966 .259 -.259 .966 33.545 128.787)" gradientUnits="userSpaceOnUse" x1="14.687" x2="151.512" xlink:href="#lg1" y1="-30.681" y2="99.72"/><linearGradient id="SVGID_00000080199532045713072420000008061541180424249476_" gradientTransform="matrix(.966 .259 -.259 .966 33.545 128.787)" gradientUnits="userSpaceOnUse" x1="74.483" x2="123.303" xlink:href="#lg2" y1="14.857" y2="25.777"/><linearGradient id="SVGID_00000031886750393681505710000005327619658720295583_" gradientTransform="matrix(.966 .259 -.259 .966 33.545 128.787)" gradientUnits="userSpaceOnUse" x1="42.053" x2="42.053" xlink:href="#lg2" y1="93.941" y2="139.797"/><linearGradient id="SVGID_00000127044211317717709650000018139781602809856412_" gradientTransform="matrix(.966 .259 -.259 .966 33.545 128.787)" gradientUnits="userSpaceOnUse" x1="-3.656" x2="-21.642" xlink:href="#lg2" y1="40.548" y2="35.409"/><linearGradient id="SVGID_00000078041767313296717150000015372600953567303332_" gradientTransform="matrix(.966 .259 -.259 .966 33.545 128.787)" gradientUnits="userSpaceOnUse" x1="10.797" x2="-6.547" xlink:href="#lg2" y1="76.805" y2="78.733"/><linearGradient id="SVGID_00000170990020071260566160000016690625630741845669_" gradientUnits="userSpaceOnUse" x1="271.831" x2="405.138" xlink:href="#lg1" y1="77.379" y2="150.092"/><linearGradient id="SVGID_00000155831055525338870820000012787726584266221717_" gradientTransform="matrix(.966 -.259 .259 .966 -54.079 -27.187)" gradientUnits="userSpaceOnUse" x1="446.964" x2="492.572" xlink:href="#lg2" y1="314.748" y2="326.953"/><linearGradient id="SVGID_00000156556712022740898420000008612701424375148443_" gradientTransform="matrix(-.966 .259 .259 .966 -1981.646 489.303)" gradientUnits="userSpaceOnUse" x1="-2427.531" x2="-2427.531" xlink:href="#lg2" y1="382.43" y2="428.286"/><linearGradient id="SVGID_00000153702765446580172660000018319472778064761475_" gradientTransform="matrix(-.966 .259 .259 .966 -1981.646 489.303)" gradientUnits="userSpaceOnUse" x1="-2473.24" x2="-2491.226" xlink:href="#lg2" y1="329.037" y2="323.898"/><linearGradient id="SVGID_00000057833983367155323370000005330356631280921748_" gradientTransform="matrix(-.966 .259 .259 .966 -1981.646 489.303)" gradientUnits="userSpaceOnUse" x1="-2458.787" x2="-2476.13" xlink:href="#lg2" y1="365.295" y2="367.222"/><linearGradient id="SVGID_00000032633431284907754390000002871779834095578762_" gradientUnits="userSpaceOnUse" x1="165.377" x2="279.436" xlink:href="#lg1" y1="281.527" y2="384.893"/><linearGradient id="SVGID_00000102523163421303707410000000372684840477981838_" gradientUnits="userSpaceOnUse" x1="281.505" x2="363.469" xlink:href="#lg2" y1="353.165" y2="373.656"/><linearGradient id="SVGID_00000036942333159936613280000012964002155770611384_" gradientUnits="userSpaceOnUse" x1="256" x2="256" xlink:href="#lg2" y1="428.003" y2="493.825"/><linearGradient id="SVGID_00000122706107997952932040000008637728537887427200_" gradientUnits="userSpaceOnUse" x1="211.432" x2="275.115" xlink:href="#lg2" y1="187.604" y2="294.534"/><linearGradient id="SVGID_00000155114373222437507920000004524036243282835337_" gradientUnits="userSpaceOnUse" x1="322.751" x2="267.729" xlink:href="#lg2" y1="340.459" y2="255.316"/><linearGradient id="SVGID_00000124878971536123309820000000339199137554149050_" gradientUnits="userSpaceOnUse" x1="297.2" x2="242.58" xlink:href="#lg2" y1="364.957" y2="338.852"/><g><g><path d="m478.076 291.364c-1.305-9.641-3.597-19.088-6.856-28.169-2.337-6.512-6.158-12.279-11.054-16.906l-3.878-19.723c2.721 2.511 5.346 5.101 7.847 7.784 3.734 4.018 10.31-.015 8.437-5.172-3.317-9.146-7.556-17.894-12.664-26.08-.355-.569-.732-1.119-1.111-1.668 1.45 1.092 2.884 2.2 4.286 3.341 4.25 3.468 10.21-1.431 7.647-6.282-4.541-8.604-9.941-16.687-16.125-24.094-3.261-3.906-7.139-7.154-11.422-9.66-11.01-35.911-33.207-66.383-62.228-87.827.671.19 1.346.371 2.013.57 5.252 1.581 8.889-5.222 4.668-8.726-7.483-6.217-15.562-11.624-24.105-16.108-2.538-1.332-5.18-2.381-7.88-3.18 1.052-.109 2.104-.22 3.155-.307 5.468-.441 6.375-8.102 1.167-9.827-9.234-3.063-18.728-5.155-28.317-6.217-3.491-.387-6.977-.341-10.389.103.229-.106.455-.22.684-.325 4.994-2.269 3.25-9.784-2.234-9.641-9.726.25-19.366 1.5-28.748 3.753-9.966 2.393-18.661 8.201-24.661 16.246h-20.614c-6.001-8.045-14.695-13.853-24.661-16.246-9.382-2.253-19.022-3.503-28.748-3.753-5.484-.143-7.228 7.371-2.234 9.641.229.105.456.219.684.325-3.412-.443-6.898-.489-10.389-.103-9.59 1.062-19.083 3.154-28.317 6.217-5.208 1.725-4.3 9.386 1.167 9.827 1.051.086 2.103.197 3.155.307-2.7.798-5.342 1.848-7.88 3.18-8.544 4.483-16.622 9.891-24.105 16.108-4.222 3.504-.585 10.307 4.668 8.726.667-.2 1.342-.38 2.013-.57-29.021 21.445-51.219 51.916-62.229 87.827-4.284 2.507-8.162 5.754-11.422 9.66-6.183 7.407-11.584 15.49-16.125 24.094-2.563 4.851 3.397 9.749 7.647 6.282 1.402-1.14 2.836-2.248 4.286-3.341-.379.549-.756 1.1-1.111 1.668-5.108 8.186-9.347 16.934-12.664 26.08-1.873 5.157 4.703 9.191 8.437 5.172 2.5-2.683 5.126-5.273 7.847-7.784l-3.878 19.723c-4.896 4.628-8.717 10.394-11.054 16.906-3.259 9.081-5.551 18.529-6.856 28.169-.739 5.436 6.542 7.987 9.341 3.269.296-.497.609-.986.911-1.48-1.424 33.708 10.347 65.35 30.911 89.576-.166 8.202 1.988 16.4 6.385 23.576 5.041 8.227 10.973 15.928 17.674 22.981 3.777 3.98 10.323-.101 8.397-5.237-.088-.236-.167-.477-.254-.713 2.1 2.726 4.532 5.224 7.274 7.419 7.532 6.03 15.724 11.264 24.42 15.627 4.902 2.463 9.677-3.596 6.123-7.774-.682-.805-1.348-1.627-2.014-2.448 2.473 1.344 5.084 2.471 7.82 3.323 9.211 2.871 18.747 4.76 28.435 5.655 5.463.508 7.702-6.875 2.87-9.471-3.967-2.139-7.855-4.479-11.652-7.006 1.288.037 2.581.057 3.879.057h163.113c1.298 0 2.591-.02 3.879-.057-3.797 2.527-7.685 4.867-11.652 7.006-4.832 2.596-2.593 9.978 2.87 9.471 9.688-.895 19.224-2.784 28.435-5.655 2.736-.853 5.347-1.979 7.82-3.323-.666.821-1.332 1.643-2.014 2.448-3.554 4.178 1.221 10.237 6.123 7.774 8.695-4.363 16.888-9.597 24.42-15.627 2.742-2.195 5.174-4.692 7.273-7.419-.087.237-.166.477-.254.713-1.927 5.136 4.62 9.217 8.397 5.237 6.701-7.053 12.633-14.755 17.674-22.981 4.397-7.176 6.551-15.374 6.385-23.576 20.563-24.226 32.335-55.868 30.911-89.576.302.494.615.983.911 1.48 2.798 4.718 10.078 2.167 9.34-3.269z" fill="url(#SVGID_1_)"/><path d="m471.22 263.195c-2.337-6.512-6.158-12.279-11.054-16.906l-3.878-19.723c2.721 2.511 5.346 5.101 7.847 7.784 3.734 4.018 10.31-.015 8.437-5.172-3.317-9.146-7.556-17.894-12.664-26.08-.355-.569-.732-1.119-1.111-1.668 1.45 1.092 2.884 2.2 4.286 3.341 4.25 3.468 10.21-1.431 7.647-6.282-4.541-8.604-9.941-16.687-16.125-24.094-3.261-3.906-7.139-7.154-11.422-9.66-11.01-35.911-33.207-66.383-62.228-87.827.671.19 1.346.371 2.013.57 5.252 1.581 8.889-5.222 4.668-8.726-7.483-6.217-15.562-11.624-24.105-16.108-2.538-1.332-5.18-2.381-7.88-3.18 1.052-.109 2.104-.22 3.155-.307 5.468-.441 6.375-8.102 1.167-9.827-9.234-3.063-18.728-5.155-28.317-6.217-3.491-.387-6.977-.341-10.389.103.229-.106.455-.22.684-.325 4.994-2.269 3.25-9.784-2.234-9.641-9.726.25-19.366 1.5-28.748 3.753-9.966 2.393-18.661 8.201-24.661 16.246h-9.513v385.469h80.762c1.298 0 2.591-.02 3.879-.057-3.797 2.527-7.685 4.867-11.652 7.006-4.832 2.596-2.593 9.978 2.87 9.471 9.688-.895 19.224-2.784 28.435-5.655 2.736-.853 5.347-1.979 7.82-3.323-.666.821-1.332 1.643-2.014 2.448-3.554 4.178 1.221 10.237 6.123 7.774 8.695-4.363 16.888-9.597 24.42-15.627 2.742-2.195 5.174-4.692 7.273-7.419-.087.237-.166.477-.254.713-1.927 5.136 4.62 9.217 8.397 5.237 6.701-7.053 12.633-14.755 17.674-22.981 4.397-7.176 6.551-15.374 6.385-23.576 20.563-24.226 32.335-55.868 30.911-89.576.302.494.615.983.911 1.48 2.799 4.718 10.079 2.167 9.341-3.269-1.306-9.641-3.597-19.088-6.856-28.169z" fill="url(#SVGID_00000075866743039155144100000015414676071813958038_)"/><path d="m471.22 263.195c-2.337-6.512-6.158-12.279-11.054-16.906l-3.878-19.723c2.721 2.511 5.346 5.101 7.847 7.784 3.734 4.018 10.31-.015 8.437-5.172-3.317-9.146-7.556-17.894-12.664-26.08-.355-.569-.732-1.119-1.111-1.668 1.45 1.092 2.884 2.2 4.286 3.341 4.25 3.468 10.21-1.431 7.647-6.282-4.541-8.604-9.941-16.687-16.125-24.094-3.261-3.906-7.139-7.154-11.422-9.66-11.01-35.911-33.207-66.383-62.228-87.827.671.19 1.346.371 2.013.57 5.252 1.581 8.889-5.222 4.668-8.726-7.483-6.217-15.562-11.624-24.105-16.108-2.538-1.332-5.18-2.381-7.88-3.18 1.052-.109 2.104-.22 3.155-.307 5.468-.441 6.375-8.102 1.167-9.827-9.234-3.063-18.728-5.155-28.317-6.217-3.491-.387-6.977-.341-10.389.103.229-.106.455-.22.684-.325 4.994-2.269 3.25-9.784-2.234-9.641-9.726.25-19.366 1.5-28.748 3.753-9.966 2.393-18.661 8.201-24.661 16.246h-9.513v385.469h80.762c1.298 0 2.591-.02 3.879-.057-3.797 2.527-7.685 4.867-11.652 7.006-4.832 2.596-2.593 9.978 2.87 9.471 9.688-.895 19.224-2.784 28.435-5.655 2.736-.853 5.347-1.979 7.82-3.323-.666.821-1.332 1.643-2.014 2.448-3.554 4.178 1.221 10.237 6.123 7.774 8.695-4.363 16.888-9.597 24.42-15.627 2.742-2.195 5.174-4.692 7.273-7.419-.087.237-.166.477-.254.713-1.927 5.136 4.62 9.217 8.397 5.237 6.701-7.053 12.633-14.755 17.674-22.981 4.397-7.176 6.551-15.374 6.385-23.576 20.563-24.226 32.335-55.868 30.911-89.576.302.494.615.983.911 1.48 2.799 4.718 10.079 2.167 9.341-3.269-1.306-9.641-3.597-19.088-6.856-28.169z" fill="url(#SVGID_00000173883691372631794050000015380877110315386024_)"/><path d="m51.835 246.289c-4.896 4.628-8.717 10.394-11.054 16.906-3.259 9.081-5.551 18.529-6.856 28.169-.739 5.436 6.542 7.987 9.341 3.269.296-.497.609-.986.911-1.48-1.424 33.708 10.347 65.35 30.911 89.576-.166 8.202 1.988 16.4 6.385 23.576 5.041 8.227 10.973 15.928 17.674 22.981 3.777 3.98 10.323-.101 8.397-5.237-.088-.236-.167-.477-.254-.713 2.1 2.726 4.532 5.224 7.274 7.419 7.532 6.03 15.724 11.264 24.42 15.627 4.902 2.463 9.677-3.596 6.123-7.774-.682-.805-1.348-1.627-2.014-2.448 2.473 1.344 5.084 2.471 7.82 3.323 9.211 2.871 18.747 4.76 28.435 5.655 5.463.508 7.702-6.875 2.87-9.471-3.967-2.139-7.855-4.479-11.652-7.006 1.288.037 2.581.057 3.879.057h163.113c1.298 0 2.591-.02 3.879-.057-3.797 2.527-7.685 4.867-11.652 7.006-4.832 2.596-2.593 9.978 2.87 9.471 9.688-.895 19.224-2.784 28.435-5.655 2.736-.853 5.347-1.979 7.82-3.323-.666.821-1.332 1.643-2.014 2.448-3.554 4.178 1.221 10.237 6.123 7.774 8.695-4.363 16.888-9.597 24.42-15.627 2.742-2.195 5.174-4.692 7.273-7.419-.087.237-.166.477-.254.713-1.927 5.136 4.62 9.217 8.397 5.237 6.701-7.053 12.633-14.755 17.674-22.981 4.397-7.176 6.551-15.374 6.385-23.576 20.563-24.226 32.335-55.868 30.911-89.576.302.494.615.983.911 1.48 2.799 4.718 10.079 2.167 9.341-3.269-1.305-9.641-3.597-19.088-6.856-28.169-2.337-6.512-6.158-12.279-11.054-16.906l-.763-3.883h-406.806z" fill="url(#SVGID_00000067208504313791950110000000780941897869308330_)"/></g><g><g><ellipse cx="329.653" cy="109.042" fill="url(#SVGID_00000029026127426713762620000000413818342947031433_)" rx="72.941" ry="59.22"/><ellipse cx="182.195" cy="109.042" fill="url(#SVGID_00000172428705205632863330000000602361930924733059_)" rx="72.941" ry="59.22"/></g><g><ellipse cx="327.759" cy="134.656" fill="url(#SVGID_00000000220214888845466980000008216689369564384686_)" rx="71.068" ry="57.698"/><ellipse cx="184.089" cy="134.656" fill="url(#SVGID_00000169535574795883039420000010213378641913312425_)" rx="71.068" ry="57.698"/></g><g><ellipse cx="323.399" cy="168.261" fill="url(#SVGID_00000091006099881192449760000005911641984528187566_)" rx="66.754" ry="54.196"/><ellipse cx="188.449" cy="168.261" fill="url(#SVGID_00000023965075907361624940000009520436863696222639_)" rx="66.754" ry="54.196"/></g></g><g><path d="m181.096 249.981c-14.32 0-25.928-11.608-25.928-25.928v-13.297c0-14.32 11.608-25.928 25.928-25.928 14.32 0 25.928 11.608 25.928 25.928v13.297c.001 14.32-11.608 25.928-25.928 25.928z" fill="url(#SVGID_00000048493972164307500990000016958164493726528387_)"/><path d="m330.904 249.981c-14.32 0-25.928-11.608-25.928-25.928v-13.297c0-14.32 11.608-25.928 25.928-25.928 14.32 0 25.928 11.608 25.928 25.928v13.297c0 14.32-11.609 25.928-25.928 25.928z" fill="url(#SVGID_00000110443517419148714580000017184830259786122633_)"/></g><g><path d="m263.646 451.751h-15.291c-12.14 0-21.571-10.575-20.188-22.635l5.424-47.307h44.82l5.424 47.307c1.382 12.061-8.05 22.635-20.189 22.635z" fill="url(#SVGID_00000129186849126494333660000000864230302614406034_)"/><path d="m263.646 451.751h-15.291c-12.14 0-21.571-10.575-20.188-22.635l5.424-47.307h44.82l5.424 47.307c1.382 12.061-8.05 22.635-20.189 22.635z" fill="url(#SVGID_00000142876188263487500540000010134587315439555471_)"/><path d="m278.41 381.809h-23.137v69.942h8.373c12.14 0 21.571-10.574 20.188-22.635z" fill="url(#SVGID_00000025439134805723333410000008908083446407297979_)"/></g><g><g><path d="m110.749 204.341c-.349-27.133 4.467-54.043 14.146-79.306 3.886-10.144 7.345-20.447 10.117-30.95l10.521-39.854-8.453 2.897c-4.902 1.68-10.31 1.285-14.846-1.222-.106-.058-.212-.117-.318-.175-15.422-8.464-34.27-7.757-49.182 1.576-5.015 3.139-9.818 6.641-14.37 10.483-3.783 3.184-.456 9.291 4.264 7.831 11.896-3.66 24.518-5.687 37.519-5.836l-46.246 15.85c-30.201 10.36-47.22 41.936-39.862 72.527-5.361 5.951-9.257 13.238-11.149 21.305-1.392 5.933-2.353 11.982-2.87 18.097-.423 4.926 6.247 6.892 8.553 2.523 3.084-5.825 6.635-11.471 10.64-16.876-8.383 12.666-10.394 28.693-5.126 43.186 2.082 5.728 4.587 11.317 7.501 16.718 2.342 4.355 9 2.35 8.539-2.569-.88-9.535-.722-19.293.538-29.095l13.023 41.309c2.874 9.119 9.686 16.458 18.568 20.004 1.205.481 2.422.882 3.641 1.209 16.729 4.483 34.359-5.365 38.963-22.547 4.111-15.351 6.094-31.195 5.889-47.085z" fill="url(#SVGID_00000069356933243251526330000014448453502568933013_)"/><path d="m110.749 204.341c-.349-27.133 4.467-54.043 14.146-79.306 3.886-10.144 7.345-20.447 10.117-30.95l10.521-39.854-8.453 2.897c-4.902 1.68-10.31 1.285-14.846-1.222-.106-.058-.212-.117-.318-.175-15.422-8.464-34.27-7.757-49.182 1.576-3.287 2.058-6.473 4.287-9.568 6.65l-3.136 11.712c.783.225 1.662.243 2.6-.047 11.896-3.66 24.518-5.687 37.519-5.836l-42.44 14.546-40.279 150.324c1.278 2.864 2.662 5.686 4.156 8.457 2.342 4.355 9 2.35 8.539-2.569-.88-9.535-.722-19.293.538-29.095l13.023 41.309c2.874 9.119 9.686 16.458 18.568 20.004 1.205.481 2.422.882 3.641 1.209 16.729 4.483 34.359-5.365 38.963-22.547 4.113-15.349 6.096-31.193 5.891-47.083z" fill="url(#SVGID_00000080199532045713072420000008061541180424249476_)"/><path d="m2.889 179.467c-1.392 5.933-2.353 11.982-2.87 18.097-.423 4.926 6.247 6.892 8.553 2.523 3.084-5.825 6.635-11.471 10.64-16.876-8.383 12.666-10.394 28.693-5.126 43.186 2.082 5.728 4.587 11.317 7.501 16.718 2.342 4.355 9 2.35 8.539-2.569-.88-9.535-.722-19.293.538-29.095l13.023 41.309c2.874 9.119 9.686 16.458 18.568 20.004 1.205.481 2.422.882 3.641 1.209 16.729 4.483 34.359-5.365 38.963-22.547 4.113-15.35 6.095-31.194 5.891-47.084-.078-6.07.117-12.127.552-18.159l-98.614-26.423c-4.658 5.64-8.071 12.341-9.799 19.707z" fill="url(#SVGID_00000031886750393681505710000005327619658720295583_)"/><path d="m51.091 140.712 4.884 8.459-4.309 2.935c-18.882 12.837-33.319 29.517-43.095 47.98-2.305 4.369-8.976 2.404-8.553-2.523.517-6.115 1.478-12.164 2.87-18.097 3.979-16.969 16.813-30.496 33.541-35.368 4.766-1.387 9.656-2.524 14.662-3.386z" fill="url(#SVGID_00000127044211317717709650000018139781602809856412_)"/><path d="m33.224 167.581 8.717 4.408-2 4.815c-8.78 21.077-11.736 42.938-9.815 63.741.461 4.919-6.197 6.923-8.539 2.569-2.913-5.401-5.419-10.99-7.501-16.718-5.955-16.38-2.615-34.725 8.72-47.956 3.228-3.77 6.699-7.398 10.418-10.859z" fill="url(#SVGID_00000078041767313296717150000015372600953567303332_)"/></g><g><path d="m401.251 204.341c.349-27.133-4.467-54.043-14.146-79.306-3.886-10.144-7.345-20.447-10.117-30.95l-10.521-39.854 8.453 2.897c4.902 1.68 10.31 1.285 14.846-1.222.106-.058.212-.117.318-.175 15.422-8.464 34.27-7.757 49.182 1.576 5.015 3.139 9.818 6.641 14.37 10.483 3.783 3.184.456 9.291-4.264 7.831-11.896-3.66-24.518-5.687-37.519-5.836l46.246 15.85c30.203 10.359 47.222 41.934 39.864 72.525 5.361 5.951 9.257 13.238 11.149 21.305 1.392 5.933 2.353 11.982 2.87 18.097.423 4.926-6.247 6.892-8.553 2.523-3.084-5.825-6.635-11.471-10.64-16.876 8.383 12.666 10.394 28.693 5.126 43.186-2.082 5.728-4.587 11.317-7.501 16.718-2.342 4.355-9 2.35-8.539-2.569.88-9.535.722-19.293-.538-29.095l-13.023 41.309c-2.874 9.119-9.686 16.458-18.568 20.004-1.205.481-2.422.882-3.641 1.209-16.729 4.483-34.359-5.365-38.963-22.547-4.113-15.349-6.096-31.193-5.891-47.083z" fill="url(#SVGID_00000170990020071260566160000016690625630741845669_)"/><path d="m458.097 85.637-46.246-15.85c13.001.149 25.622 2.176 37.519 5.836 4.72 1.459 8.046-4.647 4.264-7.831-4.552-3.842-9.355-7.344-14.37-10.483-14.301-8.951-32.22-9.962-47.267-2.565l58.349 217.76c8.586-3.634 15.16-10.834 17.968-19.745l13.024-41.309c1.26 9.802 1.418 19.56.537 29.095-.461 4.918 6.197 6.923 8.539 2.569 2.913-5.401 5.419-10.99 7.5-16.718 5.268-14.492 3.257-30.52-5.126-43.186 4.005 5.405 7.556 11.051 10.64 16.876 2.305 4.369 8.976 2.404 8.553-2.523-.517-6.115-1.478-12.164-2.87-18.097-1.892-8.067-5.788-15.353-11.149-21.305 7.357-30.59-9.662-62.166-39.865-72.524z" fill="url(#SVGID_00000155831055525338870820000012787726584266221717_)"/><path d="m509.111 179.467c1.392 5.933 2.353 11.982 2.87 18.097.423 4.926-6.247 6.892-8.553 2.523-3.084-5.825-6.635-11.471-10.64-16.876 8.383 12.666 10.394 28.693 5.126 43.186-2.082 5.728-4.587 11.317-7.501 16.718-2.342 4.355-9 2.35-8.539-2.569.88-9.535.722-19.293-.538-29.095l-13.023 41.309c-2.874 9.119-9.686 16.458-18.568 20.004-1.205.481-2.422.882-3.641 1.209-16.729 4.483-34.359-5.365-38.963-22.547-4.113-15.35-6.095-31.194-5.891-47.084.078-6.07-.117-12.127-.552-18.159l98.614-26.423c4.658 5.64 8.071 12.341 9.799 19.707z" fill="url(#SVGID_00000156556712022740898420000008612701424375148443_)"/><path d="m460.909 140.712-4.884 8.459 4.309 2.935c18.882 12.837 33.319 29.517 43.095 47.98 2.305 4.369 8.976 2.404 8.553-2.523-.517-6.115-1.478-12.164-2.87-18.097-3.979-16.969-16.813-30.496-33.541-35.368-4.766-1.387-9.656-2.524-14.662-3.386z" fill="url(#SVGID_00000153702765446580172660000018319472778064761475_)"/><path d="m478.776 167.581-8.717 4.408 2 4.815c8.78 21.077 11.736 42.938 9.815 63.741-.461 4.919 6.197 6.923 8.539 2.569 2.913-5.401 5.419-10.99 7.501-16.718 5.955-16.38 2.615-34.725-8.72-47.956-3.228-3.77-6.699-7.398-10.418-10.859z" fill="url(#SVGID_00000057833983367155323370000005330356631280921748_)"/></g></g><g><g><g><path d="m316.984 231.657c50.548 27.48 76.473 85.374 63.312 141.383l-5.814 24.742c-4.14 17.607-12.885 44.44-24.793 69.131-15.566 32.27-62.936 27.766-72.294-6.836l-21.395-79.012-21.396 79.013c-9.357 34.602-56.727 39.106-72.294 6.836-11.908-24.691-20.653-51.524-24.793-69.131l-5.814-24.742c-13.161-56.01 12.764-113.903 63.312-141.383 38.028-20.675 83.941-20.675 121.969-.001z" fill="url(#SVGID_00000032633431284907754390000002871779834095578762_)"/><path d="m316.984 231.657c-27.663-15.039-59.495-19.126-89.433-12.285v254.87c3.12-3.948 5.567-8.674 7.052-14.164l21.397-79.013 21.396 79.013c9.357 34.602 56.727 39.105 72.293 6.836 11.908-24.691 20.653-51.524 24.793-69.131l5.814-24.742c13.161-56.01-12.764-113.903-63.312-141.384z" fill="url(#SVGID_00000102523163421303707410000000372684840477981838_)"/><path d="m128.609 352.452c.466 6.852 1.483 13.734 3.094 20.589l5.814 24.742c4.14 17.607 12.885 44.44 24.793 69.131 15.566 32.27 62.936 27.766 72.293-6.836l21.397-79.013 21.396 79.013c9.357 34.602 56.727 39.105 72.293 6.836 11.908-24.691 20.653-51.524 24.793-69.131l5.814-24.742c1.611-6.855 2.628-13.737 3.094-20.589z" fill="url(#SVGID_00000036942333159936613280000012964002155770611384_)"/></g><path d="m278.868 291.177 6.617-3.59c9.141-4.96 14.833-14.525 14.833-24.925v-.442c0-15.661-12.696-28.357-28.357-28.357h-31.921c-15.661 0-28.357 12.696-28.357 28.357v.442c0 10.4 5.693 19.965 14.833 24.925l6.617 3.59c14.262 7.739 31.471 7.739 45.735 0z" fill="url(#SVGID_00000122706107997952932040000008637728537887427200_)"/><path d="m380.292 373.039-5.814 24.743c-1.977 8.434-5.02 18.989-8.958 30.406l-144.422-144.413c1.631 1.462 3.439 2.746 5.417 3.811l6.617 3.592c14.265 7.741 31.47 7.741 45.735 0l6.617-3.592c9.144-4.961 14.831-14.527 14.831-24.921v-.448c0-7.225-2.704-13.817-7.149-18.82l90.11 90.101c1.056 13.006.126 26.325-2.984 39.541z" fill="url(#SVGID_00000155114373222437507920000004524036243282835337_)"/><path d="m380.292 373.039-5.814 24.743c-4.132 17.611-12.879 44.442-24.786 69.126-15.566 32.273-62.941 27.769-72.296-6.828l-21.396-79.012v-84.084c7.868 0 15.735-1.935 22.868-5.806l6.617-3.592c9.144-4.961 14.831-14.527 14.831-24.921v-.448c0-7.225-2.704-13.817-7.149-18.82l90.11 90.11c1.055 12.997.125 26.316-2.985 39.532z" fill="url(#SVGID_00000124878971536123309820000000339199137554149050_)"/></g></g></g></svg>