<svg id="Capa_1" enable-background="new 0 0 512 512" height="512" viewBox="0 0 512 512" width="512" xmlns="http://www.w3.org/2000/svg" xmlns:xlink="http://www.w3.org/1999/xlink"><linearGradient id="SVGID_1_" gradientUnits="userSpaceOnUse" x1="257.041" x2="269.771" y1="408.498" y2="430.041"><stop offset="0" stop-color="#fdb4ba"/><stop offset="1" stop-color="#fd8087"/></linearGradient><linearGradient id="lg1"><stop offset="0" stop-color="#fd4755" stop-opacity="0"/><stop offset=".2593" stop-color="#f74452" stop-opacity=".259"/><stop offset=".6276" stop-color="#e43b4c" stop-opacity=".628"/><stop offset="1" stop-color="#ca2e43"/></linearGradient><linearGradient id="SVGID_00000128453378721986935760000012558270979891349944_" gradientUnits="userSpaceOnUse" x1="251.107" x2="257.635" xlink:href="#lg1" y1="430.262" y2="409.372"/><linearGradient id="SVGID_00000072238130473367343610000002142314607390748825_" gradientUnits="userSpaceOnUse" x1="283.068" x2="259.566" xlink:href="#lg1" y1="425.404" y2="400.433"/><linearGradient id="lg2"><stop offset="0" stop-color="#fffaf8"/><stop offset="1" stop-color="#ffdfcf"/></linearGradient><linearGradient id="SVGID_00000108288080490762750320000018297202197969924278_" gradientUnits="userSpaceOnUse" x1="241.833" x2="276.523" xlink:href="#lg2" y1="229.346" y2="229.346"/><linearGradient id="lg3"><stop offset="0" stop-color="#f89580" stop-opacity="0"/><stop offset=".2599" stop-color="#f2917c" stop-opacity=".261"/><stop offset=".5954" stop-color="#e2856f" stop-opacity=".597"/><stop offset=".9709" stop-color="#c8725b" stop-opacity=".974"/><stop offset=".9972" stop-color="#c5715a"/></linearGradient><linearGradient id="SVGID_00000180341476753061640900000008217951865643914657_" gradientUnits="userSpaceOnUse" x1="256.001" x2="256.001" xlink:href="#lg3" y1="236.109" y2="283.164"/><linearGradient id="SVGID_00000106845400516272356110000004850277097284405682_" gradientUnits="userSpaceOnUse" x1="171.972" x2="392.185" y1="230.441" y2="230.441"><stop offset="0" stop-color="#f89580"/><stop offset="1" stop-color="#c4573a"/></linearGradient><linearGradient id="lg4"><stop offset="0" stop-color="#c4573a" stop-opacity="0"/><stop offset=".2529" stop-color="#ba5338" stop-opacity=".253"/><stop offset=".6769" stop-color="#a04933" stop-opacity=".677"/><stop offset="1" stop-color="#883f2e"/></linearGradient><linearGradient id="SVGID_00000028287785879776374000000004006835259240433324_" gradientUnits="userSpaceOnUse" x1="341.722" x2="397.326" xlink:href="#lg4" y1="234.619" y2="238.896"/><linearGradient id="SVGID_00000168809127548198469120000011224141826937393281_" gradientUnits="userSpaceOnUse" x1="366.854" x2="366.854" xlink:href="#lg4" y1="314.524" y2="401.031"/><linearGradient id="SVGID_00000095329441700093309530000009895064418108462513_" gradientUnits="userSpaceOnUse" x1="145.149" x2="145.149" xlink:href="#lg4" y1="314.524" y2="401.031"/><linearGradient id="lg5"><stop offset="0" stop-color="#5a5a5a"/><stop offset="1" stop-color="#444"/></linearGradient><linearGradient id="SVGID_00000127043241274250538090000004585319198671741569_" gradientUnits="userSpaceOnUse" x1="151.223" x2="187.222" xlink:href="#lg5" y1="254.879" y2="281.379"/><linearGradient id="SVGID_00000155841799086883528600000013673133785735812509_" gradientUnits="userSpaceOnUse" x1="325.203" x2="357.202" xlink:href="#lg5" y1="253.328" y2="277.327"/><linearGradient id="SVGID_00000097488359846246539660000018427954594057415558_" gradientUnits="userSpaceOnUse" x1="227.25" x2="282.853" xlink:href="#lg2" y1="312.919" y2="415.572"/><linearGradient id="SVGID_00000065035894163900324380000003626148837897138090_" gradientUnits="userSpaceOnUse" x1="301.819" x2="368.828" xlink:href="#lg3" y1="351.752" y2="371.712"/><linearGradient id="SVGID_00000021103558508431845760000017635549869042022820_" gradientUnits="userSpaceOnUse" x1="299.014" x2="251.49" xlink:href="#lg3" y1="373.419" y2="297.38"/><linearGradient id="SVGID_00000050656031889584219800000007034455801290516667_" gradientUnits="userSpaceOnUse" x1="249.474" x2="263.184" xlink:href="#lg5" y1="315.608" y2="343.027"/><linearGradient id="SVGID_00000100369329890992413510000000310402523230441119_" gradientUnits="userSpaceOnUse" x1="42.129" x2="142.643" xlink:href="#lg5" y1="229.884" y2="311.151"/><linearGradient id="SVGID_00000028316948172987114630000005448422481945316797_" gradientUnits="userSpaceOnUse" x1="403.559" x2="477.34" xlink:href="#lg5" y1="246.967" y2="335.719"/><linearGradient id="SVGID_00000139978915664436964010000003829711877647554197_" gradientUnits="userSpaceOnUse" x1="256.001" x2="256.001" xlink:href="#lg3" y1="374.405" y2="434.999"/><linearGradient id="lg6"><stop offset="0" stop-color="#433f43" stop-opacity="0"/><stop offset=".2995" stop-color="#3e3b3e" stop-opacity=".3"/><stop offset=".6425" stop-color="#302e30" stop-opacity=".643"/><stop offset="1" stop-color="#1a1a1a"/></linearGradient><linearGradient id="SVGID_00000000906269494382299970000008505980671159414180_" gradientUnits="userSpaceOnUse" x1="439.971" x2="439.971" xlink:href="#lg6" y1="341.138" y2="392.423"/><linearGradient id="SVGID_00000042737062203174327340000006082996432585269655_" gradientUnits="userSpaceOnUse" x1="460.153" x2="498.172" xlink:href="#lg6" y1="262.188" y2="260.762"/><g><g><path d="m266.082 453.553h-18.411c-14.617 0-25.973-12.732-24.308-27.254l6.531-56.96h53.966l6.531 56.96c1.665 14.521-9.691 27.254-24.309 27.254z" fill="url(#SVGID_1_)"/><path d="m266.082 453.553h-18.411c-14.617 0-25.973-12.732-24.308-27.254l6.531-56.96h53.966l6.531 56.96c1.665 14.521-9.691 27.254-24.309 27.254z" fill="url(#SVGID_00000128453378721986935760000012558270979891349944_)"/><path d="m283.86 369.338h-27.859v84.215h10.081c14.617 0 25.973-12.732 24.308-27.254z" fill="url(#SVGID_00000072238130473367343610000002142314607390748825_)"/></g><path d="m209.309 153.021h93.386v152.651h-93.386z" fill="url(#SVGID_00000108288080490762750320000018297202197969924278_)"/><path d="m209.309 195.989h93.386v109.683h-93.386z" fill="url(#SVGID_00000180341476753061640900000008217951865643914657_)"/><path d="m451.235 305.959-24.305-123.625c-14.152-71.98-77.257-123.886-150.615-123.886h-40.627c-73.358 0-136.463 51.906-150.615 123.886l-24.305 123.625c-9.825 49.971 28.427 96.476 79.355 96.476h79.325l16.554-208.456c.828-10.432 9.535-18.475 20-18.475 10.465 0 19.172 8.043 20 18.475l16.554 208.456h79.325c50.927 0 89.179-46.505 79.354-96.476z" fill="url(#SVGID_00000106845400516272356110000004850277097284405682_)"/><path d="m426.93 182.334c-14.152-71.98-77.257-123.886-150.615-123.886h-27.353v118.344c2.196-.824 4.566-1.287 7.04-1.287 10.464 0 19.172 8.043 20 18.475l16.554 208.456h79.325c50.928 0 89.18-46.505 79.355-96.476z" fill="url(#SVGID_00000028287785879776374000000004006835259240433324_)"/><g><path d="m451.235 305.959-9.822-49.959h-160.486l11.629 146.435h79.325c50.927 0 89.179-46.505 79.354-96.476z" fill="url(#SVGID_00000168809127548198469120000011224141826937393281_)"/><path d="m60.768 305.959c-9.825 49.971 28.427 96.476 79.355 96.476h79.325l11.628-146.435h-160.486z" fill="url(#SVGID_00000095329441700093309530000009895064418108462513_)"/></g><g><path d="m168.133 299.904c-14.32 0-25.928-11.608-25.928-25.928v-13.297c0-14.32 11.608-25.928 25.928-25.928 14.32 0 25.928 11.608 25.928 25.928v13.297c.001 14.32-11.608 25.928-25.928 25.928z" fill="url(#SVGID_00000127043241274250538090000004585319198671741569_)"/><path d="m343.869 299.904c-14.32 0-25.928-11.608-25.928-25.928v-13.297c0-14.32 11.608-25.928 25.928-25.928 14.32 0 25.928 11.608 25.928 25.928v13.297c.001 14.32-11.608 25.928-25.928 25.928z" fill="url(#SVGID_00000155841799086883528600000013673133785735812509_)"/></g><path d="m367.581 352.183c-14.293-49.047-59.246-82.77-110.332-82.77h-2.495c-51.087 0-96.04 33.724-110.332 82.77-8.2 28.139 7.088 55.63 33.741 69.237 15.976 8.156 35.177 6.713 49.941-3.474 16.793-11.588 39.002-11.588 55.795 0h.001c14.764 10.187 33.965 11.63 49.941 3.474 26.652-13.607 41.94-41.098 33.74-69.237z" fill="url(#SVGID_00000097488359846246539660000018427954594057415558_)"/><path d="m367.581 352.182c-14.292-49.046-59.246-82.77-110.332-82.77h-2.495c-1.941 0-3.87.065-5.792.161v140.191c12.006-1.736 24.514.989 34.937 8.181h.001c14.764 10.187 33.965 11.63 49.941 3.474 26.652-13.606 41.94-41.097 33.74-69.237z" fill="url(#SVGID_00000065035894163900324380000003626148837897138090_)"/><path d="m363.287 393.175-77.632-77.632-56.279 29.535 81.579 81.579c7.816.149 15.679-1.558 22.886-5.238 12.983-6.628 23.258-16.556 29.446-28.244z" fill="url(#SVGID_00000021103558508431845760000017635549869042022820_)"/><path d="m273.514 350.674 5.067-2.749c7-3.798 11.36-11.124 11.36-19.088v-.338c0-11.994-9.723-21.717-21.717-21.717h-24.446c-11.994 0-21.717 9.723-21.717 21.717v.338c0 7.964 4.36 15.29 11.36 19.088l5.067 2.749c10.924 5.927 24.103 5.927 35.026 0z" fill="url(#SVGID_00000050656031889584219800000007034455801290516667_)"/><path d="m98.322 392.229h-52.59c-28.05 0-49.49-25.03-45.18-52.75l19.58-125.989c3.21-20.66 13.81-39.46 29.82-52.91l65.46-43.96v123.104c0 19.487 4.821 38.672 14.035 55.844 7.374 13.744 12.155 28.727 14.105 44.201 4.11 27.63-17.29 52.46-45.23 52.46z" fill="url(#SVGID_00000100369329890992413510000000310402523230441119_)"/><path d="m413.678 392.229h52.59c28.05 0 49.49-25.03 45.18-52.75l-19.58-125.989c-3.21-20.66-13.81-39.46-29.82-52.91l-65.46-43.96v123.104c0 19.487-4.821 38.672-14.035 55.844-7.374 13.744-12.155 28.727-14.105 44.201-4.11 27.63 17.29 52.46 45.23 52.46z" fill="url(#SVGID_00000028316948172987114630000005448422481945316797_)"/><path d="m144.422 352.183c-8.2 28.139 7.088 55.63 33.741 69.237 15.976 8.156 35.177 6.713 49.941-3.474 16.793-11.588 39.002-11.588 55.795 0h.001c14.764 10.187 33.965 11.63 49.941 3.474 26.653-13.606 41.941-41.097 33.741-69.237-3.047-10.458-7.5-20.21-13.097-29.096h-196.966c-5.598 8.885-10.05 18.638-13.097 29.096z" fill="url(#SVGID_00000139978915664436964010000003829711877647554197_)"/><path d="m396.588 239.724c0 19.487-4.821 38.672-14.035 55.844-7.374 13.744-12.155 28.727-14.105 44.201-4.11 27.63 17.29 52.46 45.23 52.46h52.59c28.05 0 49.49-25.03 45.18-52.75l-16.276-104.729h-98.584z" fill="url(#SVGID_00000000906269494382299970000008505980671159414180_)"/><path d="m491.867 213.49c-3.21-20.66-13.81-39.46-29.82-52.91l-40.572-27.246v258.895h44.792c28.05 0 49.49-25.03 45.18-52.75z" fill="url(#SVGID_00000042737062203174327340000006082996432585269655_)"/></g></svg>