<svg id="Capa_1" enable-background="new 0 0 512 512" height="512" viewBox="0 0 512 512" width="512" xmlns="http://www.w3.org/2000/svg" xmlns:xlink="http://www.w3.org/1999/xlink"><linearGradient id="SVGID_1_" gradientUnits="userSpaceOnUse" x1="202.458" x2="342.046" y1="173.525" y2="411.343"><stop offset="0" stop-color="#fffaf8"/><stop offset="1" stop-color="#ffdfcf"/></linearGradient><linearGradient id="lg1"><stop offset="0" stop-color="#433f43" stop-opacity="0"/><stop offset=".4051" stop-color="#403d40" stop-opacity=".405"/><stop offset=".6514" stop-color="#383538" stop-opacity=".651"/><stop offset=".8547" stop-color="#2a282a" stop-opacity=".855"/><stop offset="1" stop-color="#1a1a1a"/></linearGradient><linearGradient id="SVGID_00000165224581272605653080000013047487320422030000_" gradientUnits="userSpaceOnUse" x1="133.127" x2="58.275" xlink:href="#lg1" y1="224.173" y2="207.064"/><linearGradient id="SVGID_00000123418473859145573210000005566051451564011177_" gradientUnits="userSpaceOnUse" x1="354.904" x2="480.012" xlink:href="#lg1" y1="233.252" y2="226.836"/><linearGradient id="SVGID_00000166644474135184797780000010560450811199411879_" gradientUnits="userSpaceOnUse" x1="256" x2="256" xlink:href="#lg1" y1="262.253" y2="408.071"/><linearGradient id="SVGID_00000082351124635214818210000014967038532913781665_" gradientUnits="userSpaceOnUse" x1="325.648" x2="219.464" xlink:href="#lg1" y1="185.747" y2="93.808"/><linearGradient id="SVGID_00000012448231031783282490000008156039014927532216_" gradientUnits="userSpaceOnUse" x1="205.886" x2="287.153" xlink:href="#lg1" y1="181.447" y2="145.091"/><linearGradient id="SVGID_00000042705800945144289960000005891127079186220937_" gradientUnits="userSpaceOnUse" x1="172.261" x2="275.39" xlink:href="#lg1" y1="202.759" y2="158.086"/><linearGradient id="SVGID_00000162352671659924771210000003039430965934778023_" gradientUnits="userSpaceOnUse" x1="316.518" x2="227.171" xlink:href="#lg1" y1="199.244" y2="175.006"/><linearGradient id="SVGID_00000112599034291911925020000003382402566909323397_" gradientUnits="userSpaceOnUse" x1="28.968" x2="216.216" xlink:href="#lg1" y1="91.54" y2="301.124"/><linearGradient id="SVGID_00000114038436074780822000000017674691865709265584_" gradientTransform="matrix(-1 0 0 1 716.282 0)" gradientUnits="userSpaceOnUse" x1="233.251" x2="420.498" xlink:href="#lg1" y1="91.54" y2="301.124"/><linearGradient id="lg2"><stop offset="0" stop-color="#433f43" stop-opacity="0"/><stop offset=".2995" stop-color="#3e3b3e" stop-opacity=".3"/><stop offset=".6425" stop-color="#302e30" stop-opacity=".643"/><stop offset="1" stop-color="#1a1a1a"/></linearGradient><linearGradient id="SVGID_00000132803962547791232830000008847438738797670576_" gradientUnits="userSpaceOnUse" x1="89.326" x2="184.132" xlink:href="#lg2" y1="190.583" y2="285.389"/><linearGradient id="SVGID_00000031189317848805779850000007913047928067132081_" gradientUnits="userSpaceOnUse" x1="278.153" x2="377.708" xlink:href="#lg2" y1="177.955" y2="277.51"/><linearGradient id="lg3"><stop offset="0" stop-color="#5a5a5a"/><stop offset="1" stop-color="#444"/></linearGradient><linearGradient id="SVGID_00000167367382054442445510000005847524471233090977_" gradientUnits="userSpaceOnUse" x1="249.078" x2="272.366" xlink:href="#lg3" y1="374.246" y2="430.325"/><linearGradient id="SVGID_00000059275562087730617280000008649551637389123763_" gradientUnits="userSpaceOnUse" x1="252.687" x2="261.241" xlink:href="#lg2" y1="385.734" y2="433.734"/><linearGradient id="SVGID_00000088823363194722559380000015782990649849895083_" gradientUnits="userSpaceOnUse" x1="278.341" x2="249.351" xlink:href="#lg2" y1="402.679" y2="378.916"/><linearGradient id="SVGID_00000161604683767064967610000012858720514406038400_" gradientUnits="userSpaceOnUse" x1="225.016" x2="277.412" xlink:href="#lg3" y1="263.266" y2="424.731"/><linearGradient id="SVGID_00000029014169663091041660000009651115282157355199_" gradientUnits="userSpaceOnUse" x1="307.564" x2="267.168" xlink:href="#lg2" y1="300.59" y2="254.491"/><linearGradient id="SVGID_00000132768615312387523190000013314006066758947742_" gradientUnits="userSpaceOnUse" x1="256" x2="256" xlink:href="#lg2" y1="357.065" y2="417.303"/><linearGradient id="SVGID_00000182501876339852434320000007061037480218879109_" gradientUnits="userSpaceOnUse" x1="284.904" x2="235.003" xlink:href="#lg2" y1="319.551" y2="303.868"/><linearGradient id="SVGID_00000135683031301305028610000002381732217122644146_" gradientUnits="userSpaceOnUse" x1="334.574" x2="393.029" xlink:href="#lg2" y1="320.476" y2="306.694"/><linearGradient id="SVGID_00000080171822342718268230000011207689115984458390_" gradientUnits="userSpaceOnUse" x1="255.995" x2="255.995" xlink:href="#lg2" y1="466.134" y2="287.201"/><linearGradient id="SVGID_00000159455871337411206310000007871518482452785300_" gradientUnits="userSpaceOnUse" x1="248.221" x2="266.627" xlink:href="#lg3" y1="249.864" y2="284.333"/><linearGradient id="SVGID_00000065757570643286622310000002826531208922499488_" gradientUnits="userSpaceOnUse" x1="239.438" x2="269.735" xlink:href="#lg2" y1="228.576" y2="294.161"/><linearGradient id="lg4"><stop offset="0" stop-color="#b9acac"/><stop offset="1" stop-color="#766e6e"/></linearGradient><linearGradient id="SVGID_00000077301794488093945810000006155136846149490578_" gradientUnits="userSpaceOnUse" x1="45.023" x2="98.301" xlink:href="#lg4" y1="168.316" y2="211.392"/><linearGradient id="SVGID_00000142897548433195987900000004592717460903369896_" gradientUnits="userSpaceOnUse" x1="46.917" x2="102.521" xlink:href="#lg1" y1="177.206" y2="212.493"/><linearGradient id="SVGID_00000164484573320043903610000017261826269941131406_" gradientUnits="userSpaceOnUse" x1="412.014" x2="509.321" xlink:href="#lg4" y1="174.989" y2="262.672"/><linearGradient id="SVGID_00000163785998754428973340000004542676491259714214_" gradientUnits="userSpaceOnUse" x1="413.629" x2="497.035" xlink:href="#lg1" y1="181.689" y2="250.124"/><g><path d="m460.637 239.688c-22.927-90.93-107.475-154.95-204.637-154.95-97.162 0-181.71 64.019-204.637 154.949-19.011 75.398 40.294 148.041 120.86 148.041h167.555c80.565 0 139.87-72.642 120.859-148.04z" fill="url(#SVGID_1_)"/><path d="m125.84 128.118c28.18-21.33 61.99-35.76 98.54-41.09v300.7h-52.16c-70.31 0-124.43-55.33-124.43-119.53 0-9.36 1.15-18.91 3.57-28.51 11.46-45.46 38.34-84.2 74.48-111.57z" fill="url(#SVGID_00000165224581272605653080000013047487320422030000_)"/><path d="m460.637 239.687c-22.927-90.929-107.475-154.949-204.637-154.949-10.715 0-21.275.781-31.618 2.288v300.702h115.396c80.565 0 139.87-72.642 120.859-148.041z" fill="url(#SVGID_00000123418473859145573210000005566051451564011177_)"/><path d="m51.363 239.687c-19.011 75.399 40.294 148.041 120.86 148.041h167.555c80.566 0 139.871-72.642 120.86-148.041-4.177-16.567-10.408-32.235-18.38-46.791h-372.515c-7.972 14.556-14.203 30.224-18.38 46.791z" fill="url(#SVGID_00000166644474135184797780000010560450811199411879_)"/><g><path d="m335.315 99.665c-44.967 7.241-79.315 46.222-79.315 93.232 0 52.159 42.284 94.443 94.443 94.443 50.571 0 91.857-39.748 94.325-89.706-22.945-44.712-62.154-79.431-109.453-97.969z" fill="url(#SVGID_00000082351124635214818210000014967038532913781665_)"/><path d="m256 192.897c0-47.009-34.348-85.991-79.315-93.231-47.299 18.537-86.508 53.257-109.453 97.968 2.468 49.959 43.754 89.707 94.325 89.707 52.159-.001 94.443-42.285 94.443-94.444z" fill="url(#SVGID_00000012448231031783282490000008156039014927532216_)"/></g><g><path d="m96.337 236.724 9.61 72.27c2.162.074 4.333.125 6.521.125 74.214 0 134.375-43.153 134.375-96.385 0-44.184-41.449-81.42-97.978-92.802-7.229-1.456-14.753 1.388-19.077 7.362l-.072.1c-24.66 21.349-39.376 64.231-33.379 109.33z" fill="url(#SVGID_00000042705800945144289960000005891127079186220937_)"/><path d="m382.271 127.381c-.023-.032-.046-.064-.069-.095-4.324-5.969-11.845-8.809-19.071-7.354-56.529 11.382-97.978 48.619-97.978 92.802 0 53.232 60.162 96.385 134.375 96.385 2.188 0 4.359-.051 6.521-.125l9.61-72.27c6.006-45.108-8.714-87.998-33.388-109.343z" fill="url(#SVGID_00000162352671659924771210000003039430965934778023_)"/></g><g><path d="m241.413 249.299c0 40.992-34.479 73.922-76.007 71.393-35.945-2.189-64.907-31.299-66.946-67.253-.012-.219-.024-.438-.034-.657-.501-10.495 6.226-19.986 16.263-23.094 2.875-.89 5.762-1.853 8.654-2.89 23.781-8.531 44.047-20.676 58.489-33.973 8.105-7.463 20.251-8.356 29.254-2.004 18.346 12.947 30.327 34.311 30.327 58.478z" fill="url(#SVGID_00000112599034291911925020000003382402566909323397_)"/><path d="m270.587 249.299c0 40.992 34.479 73.922 76.007 71.393 35.945-2.189 64.907-31.299 66.946-67.253.012-.219.024-.438.034-.657.501-10.495-6.226-19.986-16.263-23.094-2.875-.89-5.762-1.853-8.654-2.89-23.781-8.531-44.047-20.676-58.489-33.973-8.105-7.463-20.251-8.356-29.254-2.004-18.346 12.947-30.327 34.311-30.327 58.478z" fill="url(#SVGID_00000114038436074780822000000017674691865709265584_)"/></g><g><path d="m155.272 287.886c-13.784 0-24.957-11.174-24.957-24.957v-12.799c0-13.784 11.174-24.957 24.957-24.957 13.783 0 24.957 11.174 24.957 24.957v12.799c.001 13.783-11.173 24.957-24.957 24.957z" fill="url(#SVGID_00000132803962547791232830000008847438738797670576_)"/><path d="m356.728 287.886c-13.784 0-24.957-11.174-24.957-24.957v-12.799c0-13.784 11.174-24.957 24.957-24.957 13.784 0 24.957 11.174 24.957 24.957v12.799c0 13.783-11.174 24.957-24.957 24.957z" fill="url(#SVGID_00000031189317848805779850000007913047928067132081_)"/></g><g><path d="m271.217 427.262h-30.434c-24.162 0-42.934-11.954-40.182-25.589l10.795-53.479h89.207l10.795 53.479c2.753 13.635-16.019 25.589-40.181 25.589z" fill="url(#SVGID_00000167367382054442445510000005847524471233090977_)"/><path d="m271.217 427.262h-30.434c-24.162 0-42.934-11.954-40.182-25.589l10.795-53.479h89.207l10.795 53.479c2.753 13.635-16.019 25.589-40.181 25.589z" fill="url(#SVGID_00000059275562087730617280000008649551637389123763_)"/><path d="m271.217 427.262h-30.434c-24.162 0-42.934-11.954-40.182-25.589l10.795-53.479h89.207l10.795 53.479c2.753 13.635-16.019 25.589-40.181 25.589z" fill="url(#SVGID_00000088823363194722559380000015782990649849895083_)"/><path d="m382.891 309.242c-32.792-63.445-126.891-63.314-126.891-63.314s-94.099-.131-126.891 63.315-11.406 81.267 25.663 98.376c33.491 15.457 64.073 12.876 92.271-28.247 4.302-6.274 13.612-6.274 17.914 0 28.198 41.123 58.78 43.704 92.271 28.247 37.069-17.109 58.455-34.931 25.663-98.377z" fill="url(#SVGID_00000161604683767064967610000012858720514406038400_)"/><path d="m382.891 309.242c-26.664-51.589-93.86-61.143-118.045-62.912l-40.578 40.578 124.305 124.305c2.864-1.057 5.747-2.252 8.655-3.594 37.069-17.109 58.455-34.931 25.663-98.377z" fill="url(#SVGID_00000029014169663091041660000009651115282157355199_)"/><path d="m154.772 407.618c33.491 15.457 64.073 12.876 92.271-28.247 4.302-6.274 13.612-6.274 17.914 0 28.198 41.123 58.78 43.704 92.271 28.247 36.375-16.789 57.643-34.269 27.443-94.865h-257.342c-30.199 60.597-8.932 78.077 27.443 94.865z" fill="url(#SVGID_00000132768615312387523190000013314006066758947742_)"/><path d="m357.23 407.618c-.1.04-.19.09-.29.13-.74.34-1.48.67-2.21.99.51-.22 1.02-.45 1.53-.69-10.73 4.53-23.23 1.66-31.02-7.1-2.77-3.11-5.35-6.42-7.74-9.94-10.3-15.18-18.93-31.2-26.15-47.11-6.93-15.26-21.15-22.89-35.36-22.89v-75.08h.01s94.1-.13 126.89 63.31c32.79 63.45 11.41 81.27-25.66 98.38z" fill="url(#SVGID_00000182501876339852434320000007061037480218879109_)"/><path d="m357.23 407.618c-.1.04-.19.09-.29.13-.74.34-1.48.67-2.21.99.51-.22 1.02-.45 1.53-.69-10.73 4.53-23.23 1.66-31.02-7.1-2.77-3.11-5.35-6.42-7.74-9.94-10.3-15.18-18.93-31.2-26.15-47.11-6.93-15.26-21.15-22.89-35.36-22.89v-75.08h.01s94.1-.13 126.89 63.31c32.79 63.45 11.41 81.27-25.66 98.38z" fill="url(#SVGID_00000135683031301305028610000002381732217122644146_)"/><path d="m325.24 400.951c-2.766-3.11-5.354-6.427-7.74-9.943-10.3-15.18-18.93-31.2-26.15-47.11-13.85-30.52-56.86-30.52-70.7 0-7.22 15.91-15.86 31.93-26.16 47.11-2.384 3.514-4.971 6.829-7.734 9.938-7.949 8.941-20.827 11.754-31.705 6.796 33.382 15.315 63.873 12.638 91.993-28.37 4.302-6.274 13.612-6.274 17.914 0 28.117 41.005 58.604 43.684 91.983 28.375-10.879 4.955-23.752 2.142-31.701-6.796z" fill="url(#SVGID_00000080171822342718268230000011207689115984458390_)"/><path d="m278.213 292.35 6.427-3.487c8.879-4.818 14.409-14.109 14.409-24.211v-.429c0-15.213-12.332-27.545-27.545-27.545h-31.007c-15.213 0-27.545 12.332-27.545 27.545v.429c0 10.102 5.53 19.393 14.409 24.211l6.427 3.487c13.854 7.517 30.57 7.517 44.425 0z" fill="url(#SVGID_00000159455871337411206310000007871518482452785300_)"/><path d="m278.213 292.35 6.427-3.487c8.879-4.818 14.409-14.109 14.409-24.211v-.429c0-15.213-12.332-27.545-27.545-27.545h-31.007c-15.213 0-27.545 12.332-27.545 27.545v.429c0 10.102 5.53 19.393 14.409 24.211l6.427 3.487c13.854 7.517 30.57 7.517 44.425 0z" fill="url(#SVGID_00000065757570643286622310000002826531208922499488_)"/></g><g><path d="m134.228 122.084s-112.591 46.07-130.641 64.604c-13.615 13.981 14.273 65.5 37.671 96.397 7.144 9.434 22.113 5.965 24.379-5.65 7.99-40.959 27.753-117.584 68.591-155.351z" fill="url(#SVGID_00000077301794488093945810000006155136846149490578_)"/><path d="m134.228 122.084s-112.591 46.07-130.641 64.604c-13.615 13.981 14.273 65.5 37.671 96.397 7.144 9.434 22.113 5.965 24.379-5.65 7.99-40.959 27.753-117.584 68.591-155.351z" fill="url(#SVGID_00000142897548433195987900000004592717460903369896_)"/><path d="m377.772 122.084s112.591 46.07 130.641 64.604c13.615 13.981-14.273 65.5-37.671 96.397-7.145 9.434-22.113 5.965-24.379-5.65-7.99-40.959-27.753-117.584-68.591-155.351z" fill="url(#SVGID_00000164484573320043903610000017261826269941131406_)"/><path d="m377.772 122.084s112.591 46.07 130.641 64.604c13.615 13.981-14.273 65.5-37.671 96.397-7.145 9.434-22.113 5.965-24.379-5.65-7.99-40.959-27.753-117.584-68.591-155.351z" fill="url(#SVGID_00000163785998754428973340000004542676491259714214_)"/></g></g></svg>