<svg id="Capa_1" enable-background="new 0 0 512 512" height="512" viewBox="0 0 512 512" width="512" xmlns="http://www.w3.org/2000/svg" xmlns:xlink="http://www.w3.org/1999/xlink"><linearGradient id="SVGID_1_" gradientUnits="userSpaceOnUse" x1="257.065" x2="270.116" y1="418.173" y2="440.259"><stop offset="0" stop-color="#fdb4ba"/><stop offset="1" stop-color="#fd8087"/></linearGradient><linearGradient id="lg1"><stop offset="0" stop-color="#fd4755" stop-opacity="0"/><stop offset=".2593" stop-color="#f74452" stop-opacity=".259"/><stop offset=".6276" stop-color="#e43b4c" stop-opacity=".628"/><stop offset="1" stop-color="#ca2e43"/></linearGradient><linearGradient id="SVGID_00000121963107002583718120000017331644191464071823_" gradientUnits="userSpaceOnUse" x1="256.897" x2="256.897" xlink:href="#lg1" y1="443.538" y2="408.426"/><linearGradient id="SVGID_00000116915332120087568760000007084512387366260100_" gradientUnits="userSpaceOnUse" x1="283.749" x2="259.655" xlink:href="#lg1" y1="435.505" y2="409.905"/><linearGradient id="lg2"><stop offset="0" stop-color="#ffbf51"/><stop offset="1" stop-color="#c5715a"/></linearGradient><linearGradient id="SVGID_00000158729005052553210730000004364622696113515664_" gradientUnits="userSpaceOnUse" x1="165.805" x2="368.261" xlink:href="#lg2" y1="128.375" y2="334.395"/><linearGradient id="lg3"><stop offset="0" stop-color="#c4573a" stop-opacity="0"/><stop offset=".2529" stop-color="#ba5338" stop-opacity=".253"/><stop offset=".6769" stop-color="#a04933" stop-opacity=".677"/><stop offset="1" stop-color="#883f2e"/></linearGradient><linearGradient id="SVGID_00000119834010306114428310000016402654057829042819_" gradientUnits="userSpaceOnUse" x1="340.377" x2="403.823" xlink:href="#lg3" y1="250.435" y2="268.97"/><linearGradient id="SVGID_00000056400749345291367250000008322869047109521060_" gradientUnits="userSpaceOnUse" x1="256.002" x2="256.002" xlink:href="#lg3" y1="374.617" y2="435.211"/><linearGradient id="SVGID_00000054253035242037371810000013884709679501995139_" gradientUnits="userSpaceOnUse" x1="256" x2="256" xlink:href="#lg3" y1="361.558" y2="446.266"/><linearGradient id="lg4"><stop offset="0" stop-color="#5a5a5a"/><stop offset="1" stop-color="#444"/></linearGradient><linearGradient id="SVGID_00000124153452031266188860000007561138533954665373_" gradientUnits="userSpaceOnUse" x1="151.224" x2="187.223" xlink:href="#lg4" y1="224.6" y2="251.099"/><linearGradient id="SVGID_00000169536229038053951100000004135928267488156863_" gradientUnits="userSpaceOnUse" x1="325.203" x2="357.203" xlink:href="#lg4" y1="223.048" y2="247.048"/><linearGradient id="SVGID_00000144340191683103911490000013568991423291168642_" gradientUnits="userSpaceOnUse" x1="299.015" x2="251.49" xlink:href="#lg3" y1="373.631" y2="297.592"/><linearGradient id="SVGID_00000071557436735388782470000004374387430691860640_" gradientUnits="userSpaceOnUse" x1="249.475" x2="263.185" xlink:href="#lg4" y1="315.82" y2="343.239"/><linearGradient id="SVGID_00000154418946591725954420000011752866668317772443_" gradientUnits="userSpaceOnUse" x1="37.037" x2="188.879" xlink:href="#lg2" y1="153.397" y2="298.11"/><linearGradient id="SVGID_00000086682889929543365110000009492260632605602478_" gradientUnits="userSpaceOnUse" x1="103.396" x2="157.575" xlink:href="#lg3" y1="203.933" y2="216.051"/><linearGradient id="SVGID_00000129884708175026224390000017038689814541423237_" gradientUnits="userSpaceOnUse" x1="67.407" x2="67.407" xlink:href="#lg3" y1="291.696" y2="342.585"/><linearGradient id="SVGID_00000067958691496937811080000012385798557956761733_" gradientUnits="userSpaceOnUse" x1="16.681" x2="-3.279" xlink:href="#lg3" y1="232.444" y2="226.741"/><linearGradient id="SVGID_00000128460752083201644240000018163653172419806388_" gradientUnits="userSpaceOnUse" x1="32.721" x2="13.473" xlink:href="#lg3" y1="272.681" y2="274.819"/><linearGradient id="SVGID_00000155853307302032296430000013246647171390334895_" gradientUnits="userSpaceOnUse" x1="356.905" x2="503.281" xlink:href="#lg2" y1="162.918" y2="259.393"/><linearGradient id="SVGID_00000022524266778106672470000000723730438494581124_" gradientUnits="userSpaceOnUse" x1="461.237" x2="511.851" xlink:href="#lg3" y1="216.587" y2="230.131"/><linearGradient id="SVGID_00000064355142450896424640000005556993752340782729_" gradientTransform="matrix(-1 0 0 1 132.436 0)" gradientUnits="userSpaceOnUse" x1="-312.157" x2="-312.157" xlink:href="#lg3" y1="291.696" y2="342.585"/><linearGradient id="SVGID_00000049926616123333849200000003146553272223846058_" gradientTransform="matrix(-1 0 0 1 132.436 0)" gradientUnits="userSpaceOnUse" x1="-362.883" x2="-382.843" xlink:href="#lg3" y1="232.444" y2="226.741"/><linearGradient id="SVGID_00000047780188206203785150000011558622113811958196_" gradientTransform="matrix(-1 0 0 1 132.436 0)" gradientUnits="userSpaceOnUse" x1="-346.844" x2="-366.091" xlink:href="#lg3" y1="272.681" y2="274.819"/><g><g><path d="m266.335 464.364h-18.875c-14.985 0-26.628-13.053-24.921-27.941l6.695-58.396h55.327l6.695 58.396c1.707 14.887-9.935 27.941-24.921 27.941z" fill="url(#SVGID_1_)"/><path d="m266.335 464.364h-18.875c-14.985 0-26.628-13.053-24.921-27.941l6.695-58.396h55.327l6.695 58.396c1.707 14.887-9.935 27.941-24.921 27.941z" fill="url(#SVGID_00000121963107002583718120000017331644191464071823_)"/><path d="m284.561 378.026h-28.561v86.337h10.335c14.985 0 26.628-13.053 24.921-27.941z" fill="url(#SVGID_00000116915332120087568760000007084512387366260100_)"/></g><path d="m391.581 74.685c-15.273-15.542-70.179-27.049-135.581-27.049-65.415 0-120.33 11.511-135.59 27.058-24.661 15.603-39.376 46.943-33.38 79.903l21.03 115.58c1.864 10.24 6.723 23.121 12.305 35.63 10.205 22.869 18.236 46.737 22.691 71.38 3.361 18.591 16.449 34.919 35.107 44.444 15.976 8.156 35.177 6.713 49.941-3.474 16.793-11.588 39.002-11.588 55.795 0l.075.05c15.121 10.081 34.621 11.452 50.703 2.99 17.848-9.391 30.448-25.058 34.06-42.918 4.948-24.467 12.058-48.432 22.321-71.187 5.821-12.908 10.953-26.324 12.881-36.915l21.03-115.58c6.005-32.967-8.715-64.312-33.388-79.912z" fill="url(#SVGID_00000158729005052553210730000004364622696113515664_)"/><path d="m391.581 74.685c-15.273-15.542-70.179-27.049-135.581-27.049-8.056 0-15.951.175-23.634.511v367.387c16.16-8.879 36.125-8.01 51.533 2.622l.075.05c15.121 10.081 34.621 11.452 50.703 2.99 17.848-9.391 30.448-25.058 34.06-42.918 4.948-24.467 12.059-48.432 22.321-71.187 5.821-12.907 10.953-26.324 12.881-36.915l21.03-115.58c6.005-32.966-8.715-64.311-33.388-79.911z" fill="url(#SVGID_00000119834010306114428310000016402654057829042819_)"/><path d="m144.423 352.394c-8.2 28.139 7.088 55.63 33.741 69.236 15.976 8.156 35.177 6.713 49.941-3.474 16.793-11.588 39.002-11.588 55.795 0h.001c14.764 10.187 33.965 11.63 49.941 3.474 26.653-13.606 41.941-41.097 33.741-69.236-3.047-10.458-7.5-20.21-13.097-29.096h-196.966c-5.598 8.886-10.05 18.639-13.097 29.096z" fill="url(#SVGID_00000056400749345291367250000008322869047109521060_)"/><path d="m331.57 422.712c-1.24.56-2.49 1.05-3.75 1.48-5.17 1.81-10.55 2.7-15.93 2.7-9.83 0-19.62-2.96-27.99-8.74-8.4-5.79-18.14-8.68-27.9-8.68-9.75 0-19.5 2.89-27.9 8.68-12.94 8.94-29.3 11.14-43.91 6.04-1.27-.43-2.52-.92-3.76-1.48 8.37-.11 16.67-2.12 23.32-5.84 1.27-.71 2.49-1.45 3.64-2.22 41.13-27.26 48.61-80.87 48.61-80.87s7.48 53.61 48.61 80.87c1.15.77 2.37 1.51 3.64 2.22 6.65 3.72 14.95 5.73 23.32 5.84z" fill="url(#SVGID_00000054253035242037371810000013884709679501995139_)"/><g><path d="m168.134 269.624c-14.32 0-25.928-11.608-25.928-25.928v-13.296c0-14.32 11.608-25.928 25.928-25.928 14.32 0 25.928 11.608 25.928 25.928v13.297c.001 14.319-11.608 25.927-25.928 25.927z" fill="url(#SVGID_00000124153452031266188860000007561138533954665373_)"/><path d="m343.87 269.624c-14.32 0-25.928-11.608-25.928-25.928v-13.296c0-14.32 11.608-25.928 25.928-25.928 14.32 0 25.928 11.608 25.928 25.928v13.297c0 14.319-11.608 25.927-25.928 25.927z" fill="url(#SVGID_00000169536229038053951100000004135928267488156863_)"/></g><g><path d="m363.287 393.386-77.632-77.632-56.279 29.535 81.578 81.578c7.816.149 15.679-1.558 22.886-5.238 12.985-6.626 23.259-16.555 29.447-28.243z" fill="url(#SVGID_00000144340191683103911490000013568991423291168642_)"/><path d="m273.515 350.886 5.067-2.749c7-3.798 11.36-11.124 11.36-19.088v-.338c0-11.994-9.723-21.717-21.717-21.717h-24.446c-11.994 0-21.717 9.723-21.717 21.717v.338c0 7.964 4.36 15.29 11.36 19.088l5.067 2.749c10.923 5.927 24.103 5.927 35.026 0z" fill="url(#SVGID_00000071557436735388782470000004374387430691860640_)"/></g><g><path d="m125.198 246.26c-8.167-28.985-10.735-59.214-7.616-89.074 1.252-11.99 2-24.027 1.956-36.082l-.169-45.743-8.229 5.533c-4.773 3.209-10.682 4.339-16.265 2.954-.13-.032-.26-.064-.391-.096-18.963-4.643-38.963 1.528-52.267 15.816-4.474 4.805-8.617 9.939-12.392 15.364-3.14 4.5 2.18 10.09 6.82 7.17 11.701-7.34 24.649-13.138 38.542-17.032l-45.02 30.273c-29.4 19.779-38.574 58.514-21.901 89.193-4.038 7.919-6.121 16.849-5.832 26.04.212 6.76.919 13.52 2.121 20.223.962 5.402 8.676 5.593 9.892.248 1.633-7.13 3.817-14.202 6.558-21.146-5.348 15.985-2.901 33.743 6.909 47.765 3.877 5.542 8.168 10.813 12.842 15.766 3.761 3.995 10.323-.066 8.415-5.206-3.682-9.968-6.316-20.473-7.781-31.343l25.825 40.541c5.7 8.95 15.11 14.86 25.65 16.11 1.43.17 2.85.25 4.25.25 19.22 0 35.29-15.62 35.29-35.36.001-17.637-2.424-35.189-7.207-52.164z" fill="url(#SVGID_00000154418946591725954420000011752866668317772443_)"/><path d="m125.198 246.259c-8.167-28.985-10.735-59.214-7.616-89.074 1.252-11.99 2-24.027 1.956-36.082l-.169-45.743-8.229 5.534c-4.773 3.209-10.682 4.339-16.265 2.954-.13-.032-.26-.064-.391-.096-18.963-4.643-38.963 1.528-52.267 15.816-2.933 3.15-5.708 6.454-8.346 9.876v13.454c.904.017 1.851-.216 2.773-.797 11.701-7.34 24.649-13.138 38.542-17.032l-41.315 27.782v172.709c2.192 2.703 4.486 5.33 6.885 7.872 3.761 3.995 10.323-.066 8.415-5.206-3.682-9.968-6.316-20.473-7.781-31.343l25.825 40.541c5.7 8.95 15.11 14.86 25.65 16.11 1.43.17 2.85.25 4.25.25 19.22 0 35.29-15.62 35.29-35.36.001-17.637-2.424-35.189-7.207-52.165z" fill="url(#SVGID_00000086682889929543365110000009492260632605602478_)"/><path d="m2.434 250.576c.212 6.76.919 13.52 2.121 20.223.962 5.402 8.676 5.593 9.892.248 1.633-7.13 3.817-14.202 6.558-21.146-5.348 15.985-2.901 33.743 6.909 47.765 3.877 5.542 8.168 10.813 12.842 15.766 3.761 3.995 10.323-.066 8.415-5.206-3.682-9.968-6.316-20.473-7.781-31.343l25.825 40.541c5.7 8.95 15.11 14.86 25.65 16.11 1.43.17 2.85.25 4.25.25 19.22 0 35.29-15.62 35.29-35.36 0-17.636-2.426-35.188-7.209-52.164-1.827-6.484-3.358-13.033-4.624-19.624h-113.296c-3.373 7.385-5.106 15.549-4.842 23.94z" fill="url(#SVGID_00000129884708175026224390000017038689814541423237_)"/><path d="m42.972 195.189 7.665 7.665-3.776 4.384c-16.553 19.184-27.238 41.21-32.414 63.809-1.216 5.346-8.931 5.155-9.892-.248-1.202-6.703-1.909-13.463-2.121-20.223-.608-19.332 9.263-37.519 25.795-47.546 4.709-2.856 9.624-5.48 14.743-7.841z" fill="url(#SVGID_00000067958691496937811080000012385798557956761733_)"/><path d="m31.537 229.123 10.61 2.221-.761 5.736c-3.358 25.115-.247 49.398 7.787 71.145 1.907 5.14-4.654 9.202-8.415 5.206-4.674-4.953-8.965-10.224-12.842-15.766-11.088-15.848-12.778-36.472-4.427-53.911 2.377-4.968 5.055-9.853 8.048-14.631z" fill="url(#SVGID_00000128460752083201644240000018163653172419806388_)"/></g><g><path d="m386.802 246.26c8.167-28.985 10.735-59.214 7.616-89.074-1.252-11.99-2-24.027-1.956-36.082l.169-45.743 8.229 5.533c4.773 3.209 10.682 4.339 16.265 2.954.13-.032.26-.064.391-.096 18.963-4.643 38.963 1.528 52.267 15.816 4.474 4.805 8.617 9.939 12.392 15.364 3.14 4.5-2.18 10.09-6.82 7.17-11.701-7.34-24.649-13.138-38.542-17.032l45.02 30.273c29.4 19.779 38.574 58.514 21.901 89.193 4.038 7.919 6.121 16.849 5.832 26.04-.212 6.76-.919 13.52-2.121 20.223-.962 5.402-8.676 5.593-9.892.248-1.633-7.13-3.817-14.202-6.558-21.146 5.348 15.985 2.901 33.743-6.909 47.765-3.877 5.542-8.168 10.813-12.842 15.766-3.761 3.995-10.323-.066-8.415-5.206 3.682-9.968 6.316-20.473 7.781-31.343l-25.826 40.541c-5.7 8.95-15.11 14.86-25.65 16.11-1.43.17-2.85.25-4.25.25-19.22 0-35.29-15.62-35.29-35.36 0-17.637 2.425-35.189 7.208-52.164z" fill="url(#SVGID_00000155853307302032296430000013246647171390334895_)"/><path d="m481.833 135.344-45.02-30.273c13.893 3.894 26.841 9.692 38.542 17.032 4.64 2.92 9.96-2.67 6.82-7.17-3.776-5.426-7.918-10.559-12.392-15.364-12.758-13.703-31.676-19.933-49.931-16.326v250.185c10.247-1.429 19.362-7.259 24.932-16.004l25.826-40.541c-1.465 10.869-4.098 21.375-7.781 31.343-1.907 5.14 4.654 9.201 8.416 5.206 4.674-4.953 8.965-10.224 12.842-15.766 9.81-14.022 12.257-31.78 6.909-47.765 2.741 6.945 4.925 14.017 6.558 21.146 1.216 5.346 8.931 5.155 9.892-.248 1.202-6.703 1.909-13.463 2.121-20.223.289-9.191-1.795-18.12-5.832-26.04 16.672-30.678 7.499-69.414-21.902-89.192z" fill="url(#SVGID_00000022524266778106672470000000723730438494581124_)"/><path d="m509.566 250.576c-.212 6.76-.919 13.52-2.121 20.223-.962 5.402-8.676 5.593-9.892.248-1.633-7.13-3.817-14.202-6.558-21.146 5.348 15.985 2.901 33.743-6.909 47.765-3.877 5.542-8.168 10.813-12.842 15.766-3.761 3.995-10.323-.066-8.415-5.206 3.682-9.968 6.316-20.473 7.781-31.343l-25.826 40.541c-5.7 8.95-15.11 14.86-25.65 16.11-1.43.17-2.85.25-4.25.25-19.22 0-35.29-15.62-35.29-35.36 0-17.636 2.426-35.188 7.209-52.164 1.827-6.484 3.358-13.033 4.624-19.624h113.297c3.373 7.385 5.106 15.549 4.842 23.94z" fill="url(#SVGID_00000064355142450896424640000005556993752340782729_)"/><path d="m469.028 195.189-7.665 7.665 3.776 4.384c16.553 19.184 27.238 41.21 32.414 63.809 1.216 5.346 8.931 5.155 9.892-.248 1.202-6.703 1.909-13.463 2.121-20.223.608-19.332-9.263-37.519-25.795-47.546-4.709-2.856-9.624-5.48-14.743-7.841z" fill="url(#SVGID_00000049926616123333849200000003146553272223846058_)"/><path d="m480.463 229.123-10.61 2.221.761 5.736c3.358 25.115.247 49.398-7.787 71.145-1.907 5.14 4.654 9.202 8.415 5.206 4.674-4.953 8.965-10.224 12.842-15.766 11.088-15.848 12.778-36.472 4.427-53.911-2.377-4.968-5.055-9.853-8.048-14.631z" fill="url(#SVGID_00000047780188206203785150000011558622113811958196_)"/></g></g></svg>