<svg id="Capa_1" enable-background="new 0 0 512 512" height="512" viewBox="0 0 512 512" width="512" xmlns="http://www.w3.org/2000/svg" xmlns:xlink="http://www.w3.org/1999/xlink"><linearGradient id="lg1"><stop offset="0" stop-color="#b9acac"/><stop offset="1" stop-color="#766e6e"/></linearGradient><linearGradient id="SVGID_1_" gradientUnits="userSpaceOnUse" x1="22.859" x2="209.988" xlink:href="#lg1" y1="209.953" y2="302.983"/><linearGradient id="lg2"><stop offset="0" stop-color="#433f43" stop-opacity="0"/><stop offset=".4051" stop-color="#403d40" stop-opacity=".405"/><stop offset=".6514" stop-color="#383538" stop-opacity=".651"/><stop offset=".8547" stop-color="#2a282a" stop-opacity=".855"/><stop offset="1" stop-color="#1a1a1a"/></linearGradient><linearGradient id="SVGID_00000031897976190419612190000017325210707246267283_" gradientUnits="userSpaceOnUse" x1="74.573" x2="159.048" xlink:href="#lg2" y1="261.023" y2="269.577"/><linearGradient id="SVGID_00000092453847930277033990000007224379780480503219_" gradientUnits="userSpaceOnUse" x1="377.475" x2="502.001" xlink:href="#lg1" y1="269.048" y2="302.91"/><linearGradient id="SVGID_00000079455405389310459500000009135033849075815341_" gradientUnits="userSpaceOnUse" x1="504.614" x2="344.218" xlink:href="#lg2" y1="295.836" y2="261.618"/><linearGradient id="SVGID_00000178166617277474317100000000991559200890904977_" gradientUnits="userSpaceOnUse" x1="401.851" x2="484.188" xlink:href="#lg2" y1="284.836" y2="331.886"/><linearGradient id="SVGID_00000014614855099575249410000006806761083139666570_" gradientUnits="userSpaceOnUse" x1="438.942" x2="518.07" xlink:href="#lg2" y1="260.419" y2="260.419"/><linearGradient id="SVGID_00000146471546202677086050000001514422032451580034_" gradientUnits="userSpaceOnUse" x1="200.628" x2="325.574" y1="274.588" y2="274.588"><stop offset="0" stop-color="#fffaf8"/><stop offset="1" stop-color="#ffdfcf"/></linearGradient><linearGradient id="lg3"><stop offset="0" stop-color="#f89580" stop-opacity="0"/><stop offset=".2599" stop-color="#f2917c" stop-opacity=".261"/><stop offset=".5954" stop-color="#e2856f" stop-opacity=".597"/><stop offset=".9709" stop-color="#c8725b" stop-opacity=".974"/><stop offset=".9972" stop-color="#c5715a"/></linearGradient><linearGradient id="SVGID_00000143584970225407846500000013320251219944488330_" gradientUnits="userSpaceOnUse" x1="314.657" x2="392.5" xlink:href="#lg3" y1="287.892" y2="302.862"/><linearGradient id="SVGID_00000003786382435740819370000003083438708225747108_" gradientUnits="userSpaceOnUse" x1="256" x2="256" xlink:href="#lg3" y1="412.076" y2="496.558"/><linearGradient id="SVGID_00000165211006205505130310000009340094672330533814_" gradientUnits="userSpaceOnUse" x1="298.442" x2="248.898" xlink:href="#lg3" y1="460.821" y2="374.563"/><linearGradient id="SVGID_00000136407964864745126530000006671808311084845996_" gradientUnits="userSpaceOnUse" x1="159.035" x2="357.926" xlink:href="#lg1" y1="143.763" y2="177.981"/><linearGradient id="lg4"><stop offset="0" stop-color="#5a5a5a"/><stop offset="1" stop-color="#444"/></linearGradient><linearGradient id="SVGID_00000052816751046154681680000004279730897326491546_" gradientUnits="userSpaceOnUse" x1="161.663" x2="198.57" xlink:href="#lg4" y1="235.965" y2="263.132"/><linearGradient id="SVGID_00000160870948657893054190000002701408303586612638_" gradientUnits="userSpaceOnUse" x1="313.863" x2="346.669" xlink:href="#lg4" y1="234.374" y2="258.978"/><linearGradient id="SVGID_00000137841877260854302850000007310767405361702793_" gradientUnits="userSpaceOnUse" x1="251.199" x2="261.892" xlink:href="#lg4" y1="391.727" y2="418.46"/><linearGradient id="SVGID_00000161592108553747460910000000477244372328864676_" gradientUnits="userSpaceOnUse" x1="297.018" x2="393.256" xlink:href="#lg2" y1="167.755" y2="192.349"/><g><g><g><path d="m140.732 48.035c-1.159 2.303 2.709 342.623 3.756 432.847.072 6.214-8.053 8.613-11.376 3.362l-110.018-173.881c-40.929-64.688-26.176-149.867 34.125-197.022z" fill="url(#SVGID_1_)"/></g><g><path d="m140.732 48.035c-1.159 2.303 2.709 342.623 3.756 432.847.072 6.214-8.053 8.613-11.376 3.362l-110.018-173.881c-40.929-64.688-26.176-149.867 34.125-197.022z" fill="url(#SVGID_00000031897976190419612190000017325210707246267283_)"/></g></g><g><path d="m371.268 48.035c1.159 2.303-2.709 342.623-3.756 432.847-.072 6.214 8.053 8.613 11.376 3.362l110.017-173.881c40.929-64.688 26.176-149.867-34.125-197.022z" fill="url(#SVGID_00000092453847930277033990000007224379780480503219_)"/><path d="m371.268 48.035c1.159 2.303-2.709 342.623-3.756 432.847-.072 6.214 8.053 8.613 11.376 3.362l110.017-173.881c40.929-64.688 26.176-149.867-34.125-197.022z" fill="url(#SVGID_00000079455405389310459500000009135033849075815341_)"/><path d="m371.268 48.035c1.159 2.303-2.709 342.623-3.756 432.847-.072 6.214 8.053 8.613 11.376 3.362l110.017-173.881c40.929-64.688 26.176-149.867-34.125-197.022z" fill="url(#SVGID_00000178166617277474317100000000991559200890904977_)"/><path d="m454.781 113.342-54.102-42.307v378.771l88.227-139.441c40.929-64.69 26.176-149.869-34.125-197.023z" fill="url(#SVGID_00000014614855099575249410000006806761083139666570_)"/></g><g><path d="m399.45 138.233-67.18 285.84c-6.68 28.42-32.04 48.51-61.24 48.51h-30.06c-29.2 0-54.56-20.09-61.24-48.51l-67.18-285.84 143.45-61.64z" fill="url(#SVGID_00000146471546202677086050000001514422032451580034_)"/><path d="m399.45 138.233-67.18 285.84c-6.68 28.42-32.04 48.51-61.24 48.51h-30.06c-13 0-25.22-3.98-35.39-10.91v-363.41l50.42-21.67z" fill="url(#SVGID_00000143584970225407846500000013320251219944488330_)"/><path d="m155.812 322.304 23.919 101.768c6.68 28.423 32.039 48.513 61.237 48.513h30.065c29.197 0 54.556-20.09 61.237-48.513l23.919-101.768z" fill="url(#SVGID_00000003786382435740819370000003083438708225747108_)"/><path d="m329.444 433.004-44.893-44.893-56.61 31.756 52.066 52.066c22.235-3.193 41.123-18.08 49.437-38.929z" fill="url(#SVGID_00000165211006205505130310000009340094672330533814_)"/><path d="m314.77 24.873h-58.77-58.77c-56.86 0-98.86 53.01-85.85 108.37l1.17 4.99c8.3-1.46 16.85-2.23 25.57-2.23 92.446 0 98.856 111.508 111.566 166.321 1.554 6.701 11.074 6.701 12.628 0 12.709-54.813 19.12-166.321 111.566-166.321 8.72 0 17.27.77 25.57 2.23l1.17-4.99c13.01-55.36-28.99-108.37-85.85-108.37z" fill="url(#SVGID_00000136407964864745126530000006671808311084845996_)"/><g><path d="m179 282.124c-14.681 0-26.582-11.901-26.582-26.582v-13.632c0-14.681 11.901-26.582 26.582-26.582 14.681 0 26.582 11.901 26.582 26.582v13.632c0 14.681-11.901 26.582-26.582 26.582z" fill="url(#SVGID_00000052816751046154681680000004279730897326491546_)"/><path d="m333 282.124c-14.681 0-26.582-11.901-26.582-26.582v-13.632c0-14.681 11.901-26.582 26.582-26.582 14.681 0 26.582 11.901 26.582 26.582v13.632c0 14.681-11.901 26.582-26.582 26.582z" fill="url(#SVGID_00000160870948657893054190000002701408303586612638_)"/></g><path d="m273.955 426.3 5.195-2.819c7.177-3.894 11.646-11.404 11.646-19.569v-.347c0-12.296-9.968-22.264-22.264-22.264h-25.063c-12.296 0-22.264 9.968-22.264 22.264v.347c0 8.165 4.47 15.675 11.646 19.569l5.195 2.819c11.198 6.076 24.71 6.076 35.909 0z" fill="url(#SVGID_00000137841877260854302850000007310767405361702793_)"/><path d="m314.77 24.873h-58.77-28.059v184.353c11.579 32.297 16.026 68.436 21.745 93.098 1.554 6.701 11.075 6.701 12.628 0 12.709-54.813 19.12-166.321 111.566-166.321 8.72 0 17.27.77 25.57 2.23l1.17-4.99c13.01-55.36-28.99-108.37-85.85-108.37z" fill="url(#SVGID_00000161592108553747460910000000477244372328864676_)"/></g></g></svg>