<svg id="Capa_1" enable-background="new 0 0 512 512" height="512" viewBox="0 0 512 512" width="512" xmlns="http://www.w3.org/2000/svg" xmlns:xlink="http://www.w3.org/1999/xlink"><linearGradient id="SVGID_1_" gradientUnits="userSpaceOnUse" x1="151.108" x2="307.227" y1="183.768" y2="223.332"><stop offset="0" stop-color="#ffbf51"/><stop offset="1" stop-color="#c5715a"/></linearGradient><linearGradient id="lg1"><stop offset="0" stop-color="#883f2e" stop-opacity="0"/><stop offset=".2979" stop-color="#8b402e" stop-opacity=".298"/><stop offset=".536" stop-color="#954430" stop-opacity=".536"/><stop offset=".7533" stop-color="#a64b34" stop-opacity=".753"/><stop offset=".9572" stop-color="#be5539" stop-opacity=".957"/><stop offset="1" stop-color="#c4573a"/></linearGradient><linearGradient id="SVGID_00000010286547495377869670000010564371980181869700_" gradientUnits="userSpaceOnUse" x1="256" x2="256" xlink:href="#lg1" y1="236.682" y2="338.271"/><linearGradient id="SVGID_00000052817212918875592980000003351166461208868276_" gradientUnits="userSpaceOnUse" x1="335.585" x2="401.882" xlink:href="#lg1" y1="214.304" y2="215.017"/><linearGradient id="SVGID_00000082351577816427188190000006257786540451654829_" gradientUnits="userSpaceOnUse" x1="167.156" x2="102.285" xlink:href="#lg1" y1="233.03" y2="259.05"/><linearGradient id="SVGID_00000029026737043821320460000002675982496527326884_" gradientUnits="userSpaceOnUse" x1="174.111" x2="299.718" xlink:href="#lg1" y1="127.431" y2="47.32"/><linearGradient id="SVGID_00000080207879966122554790000014061196319477173394_" gradientUnits="userSpaceOnUse" x1="145.207" x2="277.938" xlink:href="#lg1" y1="136.228" y2="51.573"/><linearGradient id="SVGID_00000137852277879987298950000004277608797990410139_" gradientUnits="userSpaceOnUse" x1="303.177" x2="244.722" xlink:href="#lg1" y1="107.314" y2="73.096"/><linearGradient id="SVGID_00000075126086946677485190000001948497753038769031_" gradientUnits="userSpaceOnUse" x1="336.963" x2="278.507" xlink:href="#lg1" y1="117.446" y2="81.803"/><linearGradient id="lg2"><stop offset="0" stop-color="#5a5a5a"/><stop offset="1" stop-color="#444"/></linearGradient><linearGradient id="SVGID_00000132085667322528362440000017883101032137581190_" gradientUnits="userSpaceOnUse" x1="184.213" x2="222.687" xlink:href="#lg2" y1="182.579" y2="288.072"/><linearGradient id="lg3"><stop offset="0" stop-color="#433f43" stop-opacity="0"/><stop offset=".2995" stop-color="#3e3b3e" stop-opacity=".3"/><stop offset=".6425" stop-color="#302e30" stop-opacity=".643"/><stop offset="1" stop-color="#1a1a1a"/></linearGradient><linearGradient id="SVGID_00000148626804609400478630000012399970714160992142_" gradientUnits="userSpaceOnUse" x1="196.939" x2="215.474" xlink:href="#lg3" y1="215.557" y2="251.913"/><linearGradient id="SVGID_00000143582256952018503320000000808899054691193272_" gradientUnits="userSpaceOnUse" x1="301.511" x2="339.985" xlink:href="#lg2" y1="131.843" y2="237.336"/><linearGradient id="SVGID_00000116209147904789659980000017668975053427621049_" gradientUnits="userSpaceOnUse" x1="320.479" x2="303.37" xlink:href="#lg3" y1="202.194" y2="262.788"/><linearGradient id="SVGID_00000097489603337839668500000015462823587329904294_" gradientUnits="userSpaceOnUse" x1="186.814" x2="166.441" xlink:href="#lg3" y1="180.368" y2="236.749"/><linearGradient id="SVGID_00000155864497757223816430000016324672864410058666_" gradientUnits="userSpaceOnUse" x1="324.925" x2="340.252" xlink:href="#lg3" y1="174.151" y2="227.26"/><linearGradient id="SVGID_00000098932065099326239990000003195401917321362352_" gradientUnits="userSpaceOnUse" x1="141.271" x2="199.014" xlink:href="#lg3" y1="114.785" y2="211.735"/><linearGradient id="SVGID_00000075867145128651499570000004665118034793331130_" gradientUnits="userSpaceOnUse" x1="290.996" x2="338.045" xlink:href="#lg3" y1="115.166" y2="199.998"/><linearGradient id="SVGID_00000110451355520485576510000000746859736448592286_" gradientUnits="userSpaceOnUse" x1="257.881" x2="287.822" xlink:href="#lg2" y1="396.815" y2="421.052"/><linearGradient id="SVGID_00000058550408307054444510000001982711240472488628_" gradientUnits="userSpaceOnUse" x1="276.687" x2="246.034" xlink:href="#lg3" y1="403.094" y2="393.827"/><linearGradient id="SVGID_00000168104929701296655160000011526799675010399159_" gradientUnits="userSpaceOnUse" x1="215.673" x2="267.712" xlink:href="#lg2" y1="347.094" y2="353.509"/><linearGradient id="SVGID_00000180328893837493776640000001041061046638222999_" gradientUnits="userSpaceOnUse" x1="278.183" x2="349.47" xlink:href="#lg3" y1="349.811" y2="367.632"/><linearGradient id="SVGID_00000152246645879592574720000004621084491521138362_" gradientUnits="userSpaceOnUse" x1="256" x2="256" xlink:href="#lg3" y1="414.9" y2="472.148"/><linearGradient id="SVGID_00000104706336575238528350000017235927370458279099_" gradientUnits="userSpaceOnUse" x1="210.764" x2="278.486" xlink:href="#lg3" y1="293.069" y2="385.029"/><linearGradient id="SVGID_00000116226768017248811530000001326655750057658531_" gradientUnits="userSpaceOnUse" x1="47.703" x2="141.802" xlink:href="#lg2" y1="157.973" y2="232.825"/><linearGradient id="SVGID_00000012445247710706441490000006317984770724154264_" gradientUnits="userSpaceOnUse" x1="76.986" x2="134.729" xlink:href="#lg3" y1="194.688" y2="207.52"/><linearGradient id="SVGID_00000062160519630710840280000006196841776278233783_" gradientUnits="userSpaceOnUse" x1="378.936" x2="467.332" xlink:href="#lg2" y1="172.65" y2="254.63"/><linearGradient id="SVGID_00000016060062383388960150000007313451593574811052_" gradientUnits="userSpaceOnUse" x1="435.494" x2="477.553" xlink:href="#lg3" y1="225.677" y2="253.479"/><linearGradient id="SVGID_00000086682368554603027820000009709548772917885875_" gradientUnits="userSpaceOnUse" x1="445.654" x2="445.654" xlink:href="#lg3" y1="275.175" y2="325.122"/><linearGradient id="SVGID_00000170272677787686712290000002173599277406745790_" gradientUnits="userSpaceOnUse" x1="275.598" x2="240.311" xlink:href="#lg3" y1="437.303" y2="378.135"/><linearGradient id="SVGID_00000077292009190232131300000012358975520006801854_" gradientUnits="userSpaceOnUse" x1="309.429" x2="274.142" xlink:href="#lg3" y1="417.127" y2="357.958"/><g><path d="m391.581 71.315c-15.273-15.543-70.179-27.049-135.581-27.049-65.415 0-120.33 11.511-135.59 27.058-24.661 15.603-39.376 46.943-33.38 79.903l21.03 115.58c12.25 67.3 66.87 115.82 130.36 115.82h6.7 21.76 6.7c63.49 0 118.11-48.52 130.36-115.82l21.03-115.58c6.004-32.967-8.716-64.313-33.389-79.912z" fill="url(#SVGID_1_)"/><path d="m90.257 168.959 17.804 97.848c12.25 67.3 66.87 115.82 130.36 115.82h6.7 21.76 6.7c63.49 0 118.109-48.52 130.359-115.82l17.804-97.848z" fill="url(#SVGID_00000010286547495377869670000010564371980181869700_)"/><path d="m391.581 71.315c-15.273-15.543-70.179-27.049-135.581-27.049-1.143 0-2.281.004-3.418.011v338.349h14.297 6.7c63.49 0 118.109-48.52 130.359-115.82l21.03-115.58c6.006-32.966-8.714-64.312-33.387-79.911z" fill="url(#SVGID_00000052817212918875592980000003351166461208868276_)"/><path d="m256 44.262c-1.14 0-2.28.01-3.42.02v338.34h-14.16c-63.49 0-118.11-48.52-130.36-115.82l-21.03-115.57c-6-32.97 8.72-64.31 33.38-79.91 15.26-15.54 70.18-27.06 135.59-27.06z" fill="url(#SVGID_00000082351577816427188190000006257786540451654829_)"/><g><g><path d="m167.959 52.261c-23.081 4.8-40.073 11.447-47.548 19.063-3.831 2.424-7.421 5.228-10.731 8.359-6.356 12.146-10.006 26.19-10.006 41.171 0 45.996 34.23 83.283 76.455 83.283s76.454-37.287 76.454-83.283c0-.818-.011-1.632-.032-2.444-1.151-43.454-42.034-74.999-84.592-66.149z" fill="url(#SVGID_00000029026737043821320460000002675982496527326884_)"/><path d="m87.031 151.227 9.61 52.818c2.162.054 4.333.092 6.521.092 74.214 0 134.375-31.538 134.375-70.442 0-34.117-46.269-62.566-107.706-69.051-3.961 2.12-7.138 4.355-9.421 6.681-24.661 15.602-39.376 46.942-33.379 79.902z" fill="url(#SVGID_00000080207879966122554790000014061196319477173394_)"/></g><g><path d="m412.327 120.854c0-14.987-3.652-29.036-10.013-41.185-3.311-3.129-6.902-5.932-10.733-8.355-7.48-7.612-24.469-14.256-47.542-19.054-42.558-8.85-83.438 22.696-84.589 66.149-.021.812-.032 1.627-.032 2.444 0 45.996 34.23 83.283 76.454 83.283 42.225.001 76.455-37.286 76.455-83.282z" fill="url(#SVGID_00000137852277879987298950000004277608797990410139_)"/><path d="m391.581 71.315c-2.282-2.323-5.456-4.554-9.411-6.672-61.437 6.485-107.707 34.934-107.707 69.051 0 38.904 60.162 70.442 134.375 70.442 2.188 0 4.359-.037 6.521-.092l9.61-52.818c6.005-32.966-8.715-64.312-33.388-79.911z" fill="url(#SVGID_00000075126086946677485190000001948497753038769031_)"/></g></g><g><path d="m188.099 127.613c-27.035 0-48.951 25.629-48.951 57.245s21.916 111.884 48.951 111.884 48.951-80.269 48.951-111.884-21.916-57.245-48.951-57.245z" fill="url(#SVGID_00000132085667322528362440000017883101032137581190_)"/><path d="m188.099 127.613c-27.035 0-48.951 25.629-48.951 57.245s21.916 111.884 48.951 111.884 48.951-80.269 48.951-111.884-21.916-57.245-48.951-57.245z" fill="url(#SVGID_00000148626804609400478630000012399970714160992142_)"/><path d="m323.901 127.613c-27.034 0-48.95 25.629-48.95 57.245s21.916 111.884 48.95 111.884c27.035 0 48.951-80.269 48.951-111.884s-21.916-57.245-48.951-57.245z" fill="url(#SVGID_00000143582256952018503320000000808899054691193272_)"/><path d="m323.901 127.613c-27.034 0-48.95 25.629-48.95 57.245s21.916 111.884 48.95 111.884c27.035 0 48.951-80.269 48.951-111.884s-21.916-57.245-48.951-57.245z" fill="url(#SVGID_00000116209147904789659980000017668975053427621049_)"/></g><g><path d="m205.944 178.284v16.452c0 18.207-11.321 33.597-25.754 34.096-12.25.423-22.688-9.639-26.081-23.587-1.294-5.32-.155-11.11 2.934-15.084l28.765-37.022c2.764-3.558 7.244-3.961 10.313-.825.719.734 1.406 1.515 2.058 2.337 4.804 6.059 7.765 14.406 7.765 23.633z" fill="url(#SVGID_00000097489603337839668500000015462823587329904294_)"/><path d="m357.892 205.244c-3.394 13.948-13.832 24.01-26.082 23.587-14.433-.499-25.754-15.889-25.754-34.096v-16.452c0-10.464 3.815-19.805 9.79-25.933 3.078-3.157 7.573-2.783 10.349.791l28.763 37.019c3.088 3.975 4.228 9.765 2.934 15.084z" fill="url(#SVGID_00000155864497757223816430000016324672864410058666_)"/></g><g><path d="m205.944 172.081v13.047c0 14.439-11.321 26.644-25.754 27.039-12.25.336-22.688-7.644-26.081-18.705-1.294-4.219-.155-8.811 2.934-11.963l28.765-29.36c2.764-2.822 7.244-3.141 10.313-.654.719.582 1.406 1.201 2.058 1.853 4.804 4.805 7.765 11.425 7.765 18.743z" fill="url(#SVGID_00000098932065099326239990000003195401917321362352_)"/><path d="m357.892 193.462c-3.394 11.062-13.832 19.041-26.082 18.705-14.433-.396-25.754-12.601-25.754-27.039v-13.047c0-8.299 3.815-15.706 9.79-20.566 3.078-2.504 7.573-2.207 10.349.627l28.763 29.358c3.088 3.151 4.228 7.743 2.934 11.962z" fill="url(#SVGID_00000075867145128651499570000004665118034793331130_)"/></g><path d="m265.177 440.947h-18.355c-14.572 0-25.893-12.693-24.234-27.171l6.511-56.785h53.801l6.511 56.785c1.66 14.477-9.661 27.171-24.234 27.171z" fill="url(#SVGID_00000110451355520485576510000000746859736448592286_)"/><path d="m265.177 440.947h-18.355c-14.572 0-25.893-12.693-24.234-27.171l6.511-56.785h53.801l6.511 56.785c1.66 14.477-9.661 27.171-24.234 27.171z" fill="url(#SVGID_00000058550408307054444510000001982711240472488628_)"/><path d="m309.041 244.13c43.964 23.901 66.512 74.253 55.065 122.967l-5.057 21.519c-3.6 15.313-11.206 38.651-21.563 60.126-13.539 28.066-54.738 24.149-62.877-5.945l-18.609-68.721-18.609 68.72c-8.139 30.095-49.338 34.012-62.877 5.945-10.357-21.474-17.963-44.812-21.563-60.126l-5.057-21.519c-11.447-48.714 11.101-99.066 55.065-122.967 33.075-17.98 73.007-17.98 106.082.001z" fill="url(#SVGID_00000168104929701296655160000011526799675010399159_)"/><path d="m309.041 244.13c-24.06-13.08-51.746-16.634-77.783-10.685v221.671c2.714-3.434 4.842-7.544 6.133-12.319l18.609-68.721 18.609 68.72c8.138 30.095 49.338 34.012 62.876 5.945 10.357-21.474 17.963-44.812 21.563-60.126l5.056-21.519c11.448-48.713-11.1-99.065-55.063-122.966z" fill="url(#SVGID_00000180328893837493776640000001041061046638222999_)"/><path d="m145.203 349.19c.406 5.959 1.29 11.945 2.691 17.907l5.057 21.519c3.6 15.313 11.206 38.651 21.563 60.126 13.539 28.066 54.738 24.149 62.876-5.945l18.61-68.721 18.609 68.72c8.138 30.095 49.338 34.012 62.876 5.945 10.357-21.474 17.963-44.812 21.563-60.126l5.056-21.519c1.401-5.962 2.285-11.948 2.691-17.907h-221.592z" fill="url(#SVGID_00000152246645879592574720000004621084491521138362_)"/><path d="m275.136 378.542 5.537-3.004c7.649-4.15 12.413-12.154 12.413-20.857v-.37c0-13.105-10.624-23.729-23.729-23.729h-26.712c-13.105 0-23.729 10.624-23.729 23.729v.37c0 8.702 4.764 16.707 12.413 20.857l5.537 3.004c11.934 6.476 26.334 6.476 38.27 0z" fill="url(#SVGID_00000104706336575238528350000017235927370458279099_)"/><g><g><path d="m125.212 242.886c4.783 16.975 7.209 34.528 7.209 52.164 0 19.74-16.07 35.36-35.29 35.36-1.4 0-2.82-.08-4.25-.25-10.54-1.25-19.95-7.16-25.65-16.11l-56.53-88.74c-19.91-31.25-11.26-72.66 19.48-93.34l89.202-59.983.169 45.743c.044 12.055-.703 24.092-1.956 36.082-3.119 29.86-.551 60.089 7.616 89.074z" fill="url(#SVGID_00000116226768017248811530000001326655750057658531_)"/><path d="m125.212 242.886c4.783 16.975 7.209 34.528 7.209 52.164 0 19.74-16.07 35.36-35.29 35.36-1.4 0-2.82-.08-4.25-.25-10.54-1.25-19.95-7.16-25.65-16.11l-56.53-88.74c-19.91-31.25-11.26-72.66 19.48-93.34l89.202-59.983.169 45.743c.044 12.055-.703 24.092-1.956 36.082-3.119 29.86-.551 60.089 7.616 89.074z" fill="url(#SVGID_00000012445247710706441490000006317984770724154264_)"/></g><g><path d="m386.788 242.886c-4.783 16.975-7.209 34.528-7.209 52.164 0 19.74 16.07 35.36 35.29 35.36 1.4 0 2.82-.08 4.25-.25 10.54-1.25 19.95-7.16 25.65-16.11l56.53-88.74c19.91-31.25 11.26-72.66-19.48-93.34l-89.202-59.983-.169 45.743c-.044 12.055.703 24.092 1.956 36.082 3.119 29.86.551 60.089-7.616 89.074z" fill="url(#SVGID_00000062160519630710840280000006196841776278233783_)"/><path d="m386.788 242.886c-4.783 16.975-7.209 34.528-7.209 52.164 0 19.74 16.07 35.36 35.29 35.36 1.4 0 2.82-.08 4.25-.25 10.54-1.25 19.95-7.16 25.65-16.11l56.53-88.74c19.91-31.25 11.26-72.66-19.48-93.34l-89.202-59.983-.169 45.743c-.044 12.055.703 24.092 1.956 36.082 3.119 29.86.551 60.089-7.616 89.074z" fill="url(#SVGID_00000016060062383388960150000007313451593574811052_)"/><path d="m395.126 194.621c-1.109 16.283-3.885 32.459-8.338 48.265-4.783 16.975-7.209 34.527-7.209 52.164 0 19.74 16.07 35.36 35.29 35.36 1.4 0 2.82-.08 4.25-.25 10.54-1.25 19.95-7.16 25.65-16.11l56.53-88.74c6.098-9.572 9.505-20.098 10.43-30.688h-116.603z" fill="url(#SVGID_00000086682368554603027820000009709548772917885875_)"/></g></g><g><path d="m231.33 375.542c-1.68-.91-3.21-2-4.59-3.25l23.4 23.41 3.35-12.38c-5.73-.36-11.42-1.95-16.63-4.78z" fill="url(#SVGID_00000170272677787686712290000002173599277406745790_)"/><path d="m286.93 338.352c3.82 4.21 6.16 9.82 6.16 15.96v.37c0 8.7-4.77 16.71-12.42 20.86l-5.53 3c-5.21 2.83-10.9 4.42-16.64 4.78l16.11 59.48c8.14 30.09 49.34 34.01 62.88 5.94 6.99-14.5 12.72-29.85 16.82-43.01z" fill="url(#SVGID_00000077292009190232131300000012358975520006801854_)"/></g></g></svg>