<svg id="Capa_1" enable-background="new 0 0 512 512" height="512" viewBox="0 0 512 512" width="512" xmlns="http://www.w3.org/2000/svg" xmlns:xlink="http://www.w3.org/1999/xlink"><linearGradient id="lg1"><stop offset="0" stop-color="#f89580"/><stop offset="1" stop-color="#c4573a"/></linearGradient><linearGradient id="SVGID_1_" gradientUnits="userSpaceOnUse" x1="343.259" x2="470.967" xlink:href="#lg1" y1="261.697" y2="350.478"/><linearGradient id="lg2"><stop offset="0" stop-color="#c4573a" stop-opacity="0"/><stop offset=".2529" stop-color="#ba5338" stop-opacity=".253"/><stop offset=".6769" stop-color="#a04933" stop-opacity=".677"/><stop offset="1" stop-color="#883f2e"/></linearGradient><linearGradient id="SVGID_00000121992979834134384600000002079248014635954818_" gradientUnits="userSpaceOnUse" x1="448.707" x2="366.371" xlink:href="#lg2" y1="311.558" y2="297.657"/><linearGradient id="SVGID_00000124122596798668352080000006440564534294739113_" gradientUnits="userSpaceOnUse" x1="387.961" x2="365.424" xlink:href="#lg2" y1="375.521" y2="420.595"/><linearGradient id="SVGID_00000116941175052377117650000011120753041575406515_" gradientTransform="matrix(0 1 -1 0 556.81 -88.204)" gradientUnits="userSpaceOnUse" x1="474.857" x2="500.896" xlink:href="#lg2" y1="101.885" y2="107.643"/><linearGradient id="SVGID_00000025421691920352725350000017036195562119228587_" gradientTransform="matrix(0 1 -1 0 556.81 -88.204)" gradientUnits="userSpaceOnUse" x1="417.504" x2="444.545" xlink:href="#lg2" y1="80.906" y2="47.606"/><linearGradient id="SVGID_00000119075379620013635830000003030572720814392486_" gradientTransform="matrix(0 1 -1 0 556.81 -88.204)" gradientUnits="userSpaceOnUse" x1="329.581" x2="282.978" xlink:href="#lg2" y1="98.085" y2="117.313"/><linearGradient id="SVGID_00000154401375841703630310000006502257651296276888_" gradientUnits="userSpaceOnUse" x1="50.677" x2="152.576" xlink:href="#lg1" y1="270.546" y2="346.214"/><linearGradient id="SVGID_00000176733798746140101010000017598024585055681968_" gradientTransform="matrix(-1 0 0 1 848.446 0)" gradientUnits="userSpaceOnUse" x1="724.406" x2="701.87" xlink:href="#lg2" y1="375.521" y2="420.595"/><linearGradient id="SVGID_00000097502654633726902230000003863844246988508033_" gradientTransform="matrix(0 1 1 0 291.636 -88.204)" gradientUnits="userSpaceOnUse" x1="474.857" x2="500.896" xlink:href="#lg2" y1="-234.561" y2="-228.802"/><linearGradient id="SVGID_00000060729467311971864900000004849460868503359652_" gradientTransform="matrix(0 1 1 0 291.636 -88.204)" gradientUnits="userSpaceOnUse" x1="417.504" x2="444.545" xlink:href="#lg2" y1="-255.54" y2="-288.84"/><linearGradient id="SVGID_00000151531275288356958610000012343644483903865744_" gradientTransform="matrix(0 1 1 0 291.636 -88.204)" gradientUnits="userSpaceOnUse" x1="329.581" x2="282.978" xlink:href="#lg2" y1="-238.36" y2="-219.132"/><linearGradient id="SVGID_00000169539972190121759380000006563917457868223652_" gradientUnits="userSpaceOnUse" x1="156.63" x2="335.474" xlink:href="#lg1" y1="148.578" y2="327.422"/><linearGradient id="SVGID_00000140006482909517933680000005599839121424211854_" gradientUnits="userSpaceOnUse" x1="278.35" x2="387.419" xlink:href="#lg2" y1="255.173" y2="290.46"/><linearGradient id="SVGID_00000012454179372472727300000011434827647451784639_" gradientUnits="userSpaceOnUse" x1="256" x2="256" xlink:href="#lg2" y1="317.69" y2="412.912"/><linearGradient id="SVGID_00000058557986640829894980000006163424316291595966_" gradientUnits="userSpaceOnUse" x1="320.044" x2="269.43" xlink:href="#lg2" y1="424.15" y2="324.348"/><linearGradient id="SVGID_00000173162998158038426870000006511028644693095586_" gradientUnits="userSpaceOnUse" x1="349.013" x2="296.736" xlink:href="#lg2" y1="378.964" y2="355.677"/><linearGradient id="lg3"><stop offset="0" stop-color="#5a5a5a"/><stop offset="1" stop-color="#444"/></linearGradient><linearGradient id="SVGID_00000091009747942936318220000007933849275370794381_" gradientUnits="userSpaceOnUse" x1="169.142" x2="206.038" xlink:href="#lg3" y1="244.662" y2="271.822"/><linearGradient id="SVGID_00000032640313273952546810000018016986651093846206_" gradientUnits="userSpaceOnUse" x1="306.395" x2="339.192" xlink:href="#lg3" y1="243.072" y2="267.669"/><linearGradient id="SVGID_00000051341308719989453080000008674070408015017652_" gradientUnits="userSpaceOnUse" x1="256.164" x2="268.894" y1="368.552" y2="390.095"><stop offset="0" stop-color="#fdb4ba"/><stop offset="1" stop-color="#fd8087"/></linearGradient><linearGradient id="lg4"><stop offset="0" stop-color="#fd4755" stop-opacity="0"/><stop offset=".2593" stop-color="#f74452" stop-opacity=".259"/><stop offset=".6276" stop-color="#e43b4c" stop-opacity=".628"/><stop offset="1" stop-color="#ca2e43"/></linearGradient><linearGradient id="SVGID_00000137103896062236016330000018299161102740807816_" gradientUnits="userSpaceOnUse" x1="256" x2="256" xlink:href="#lg4" y1="369.729" y2="348.338"/><linearGradient id="SVGID_00000145750903189063372250000014438874282639287726_" gradientUnits="userSpaceOnUse" x1="282.191" x2="258.69" xlink:href="#lg4" y1="385.459" y2="360.488"/><linearGradient id="SVGID_00000148640730249230562740000008571202968793510565_" gradientUnits="userSpaceOnUse" x1="245.248" x2="265.916" xlink:href="#lg1" y1="288.675" y2="362.079"/><linearGradient id="SVGID_00000039121238077476633060000009566798886839459470_" gradientUnits="userSpaceOnUse" x1="256" x2="256" xlink:href="#lg2" y1="334.312" y2="366.666"/><linearGradient id="SVGID_00000030479911322552641090000012633142061977738376_" gradientUnits="userSpaceOnUse" x1="288.041" x2="252.408" xlink:href="#lg2" y1="322.18" y2="266.117"/><linearGradient id="SVGID_00000159448674058092219010000001721248268773255601_" gradientUnits="userSpaceOnUse" x1="295.629" x2="336.964" xlink:href="#lg2" y1="317.554" y2="320.405"/><linearGradient id="SVGID_00000137107879990766314570000016680102274695126973_" gradientUnits="userSpaceOnUse" x1="250.04" x2="262.558" xlink:href="#lg3" y1="276.861" y2="301.898"/><g><g><g><path d="m444.079 408.459c3.923 1.836 8.303 2.858 12.924 2.847 16.57-.041 30.218-13.675 30.276-30.245.013-3.594-.599-7.043-1.734-10.245-1.486-4.195-.256-8.903 3.125-11.796 14.279-12.217 23.33-30.367 23.33-50.632 0-20.851-9.582-39.462-24.58-51.676-3.435-2.797-4.77-7.46-3.399-11.673.945-2.902 1.407-6.022 1.291-9.266-.495-13.804-11.658-25.102-25.456-25.754-1.638-.077-3.246-.007-4.811.199-4.576.602-9.092-1.569-11.231-5.658-7.931-15.16-24.106-25.324-42.577-24.529-23.179.997-42.134 19.515-43.636 42.667-.491 7.565.863 14.764 3.651 21.196 2.489 5.742-.154 12.48-6.008 14.691-17.29 6.531-29.586 23.232-29.586 42.808 0 18.425 10.893 34.302 26.589 41.551 5.797 2.677 8.056 9.752 4.879 15.291-3.984 6.947-6.198 15.038-6.025 23.661.492 24.423 20.439 44.343 44.862 44.803 14.032.264 26.649-5.794 35.211-15.513 3.238-3.675 8.47-4.804 12.905-2.727z" fill="url(#SVGID_1_)"/><path d="m444.079 408.459c3.923 1.836 8.303 2.858 12.924 2.847 16.57-.041 30.218-13.675 30.276-30.245.013-3.594-.599-7.043-1.734-10.245-1.486-4.195-.256-8.903 3.125-11.796 14.279-12.217 23.33-30.367 23.33-50.632 0-20.851-9.582-39.462-24.58-51.676-3.435-2.797-4.77-7.46-3.399-11.673.945-2.902 1.407-6.022 1.291-9.266-.495-13.804-11.658-25.102-25.456-25.754-1.638-.077-3.246-.007-4.811.199-4.576.602-9.092-1.569-11.231-5.658-7.931-15.16-24.106-25.324-42.577-24.529-23.179.997-42.134 19.515-43.636 42.667-.491 7.565.863 14.764 3.651 21.196 2.489 5.742-.154 12.48-6.008 14.691-17.29 6.531-29.586 23.232-29.586 42.808 0 18.425 10.893 34.302 26.589 41.551 5.797 2.677 8.056 9.752 4.879 15.291-3.984 6.947-6.198 15.038-6.025 23.661.492 24.423 20.439 44.343 44.862 44.803 14.032.264 26.649-5.794 35.211-15.513 3.238-3.675 8.47-4.804 12.905-2.727z" fill="url(#SVGID_00000121992979834134384600000002079248014635954818_)"/><path d="m352.247 342.943c5.797 2.678 8.056 9.752 4.879 15.291-3.984 6.947-6.198 15.038-6.025 23.661.492 24.423 20.439 44.343 44.862 44.803 14.032.264 26.649-5.794 35.211-15.513 3.237-3.675 8.469-4.803 12.904-2.727 3.923 1.836 8.303 2.858 12.924 2.847 9.462-.024 17.967-4.484 23.537-11.388l-135.739-135.739c-11.589 8.299-19.142 21.872-19.142 37.214 0 18.426 10.893 34.302 26.589 41.551z" fill="url(#SVGID_00000124122596798668352080000006440564534294739113_)"/><path d="m432.637 409.799c5.268-7.137 8.373-15.96 8.373-25.513 0-11.057-4.165-21.137-11.021-28.765 6.673-6.083 15.552-9.792 25.295-9.792 12.848 0 24.185 6.456 30.957 16.304-1.44 2.641-1.742 5.837-.695 8.781 1.131 3.203 1.742 6.652 1.735 10.249-.063 16.571-13.712 30.205-30.276 30.247-4.622.007-9.005-1.012-12.925-2.852-3.821-1.785-8.225-1.202-11.443 1.341z" fill="url(#SVGID_00000116941175052377117650000011120753041575406515_)"/><path d="m392.689 310.929c0 25.485 12.595 47.682 31.224 59.273 4.313-12.911 16.501-22.218 30.866-22.218 13.696 0 25.415 8.464 30.214 20.441-.399-3.5.928-7.052 3.677-9.404 14.279-12.217 23.33-30.367 23.33-50.632 0-20.851-9.582-39.462-24.58-51.676-1.449-1.18-2.52-2.695-3.176-4.366-9.016-5.892-19.511-9.273-30.715-9.273-33.599-.002-60.84 30.379-60.84 67.855z" fill="url(#SVGID_00000025421691920352725350000017036195562119228587_)"/><path d="m484.775 253.497c-1.366-2.547-1.683-5.605-.754-8.458.945-2.902 1.407-6.022 1.291-9.266-.495-13.804-11.658-25.102-25.456-25.754-1.638-.077-3.246-.007-4.811.199-4.28.563-8.506-1.3-10.785-4.889 3.324 6.645 5.202 14.14 5.202 22.078 0 13.022-5.04 24.865-13.289 33.69 5.664 5.294 13.111 8.51 21.278 8.51 11.548-.002 21.669-6.446 27.324-16.11z" fill="url(#SVGID_00000119075379620013635830000003030572720814392486_)"/></g><g><path d="m67.921 408.459c-3.923 1.836-8.303 2.858-12.924 2.847-16.57-.041-30.218-13.675-30.276-30.245-.013-3.594.599-7.043 1.734-10.245 1.486-4.195.256-8.903-3.125-11.796-14.279-12.218-23.33-30.367-23.33-50.633 0-20.851 9.582-39.462 24.58-51.676 3.435-2.797 4.77-7.46 3.399-11.673-.945-2.902-1.407-6.022-1.291-9.266.495-13.804 11.658-25.102 25.456-25.754 1.638-.077 3.246-.007 4.811.199 4.576.602 9.092-1.569 11.231-5.658 7.931-15.16 24.106-25.324 42.577-24.529 23.179.997 42.134 19.515 43.636 42.667.491 7.565-.863 14.764-3.651 21.196-2.489 5.742.154 12.48 6.008 14.691 17.29 6.531 29.586 23.232 29.586 42.808 0 18.425-10.893 34.302-26.589 41.551-5.797 2.677-8.056 9.752-4.879 15.291 3.984 6.947 6.198 15.038 6.025 23.661-.492 24.423-20.439 44.343-44.862 44.803-14.032.264-26.649-5.794-35.211-15.513-3.238-3.674-8.47-4.803-12.905-2.726z" fill="url(#SVGID_00000154401375841703630310000006502257651296276888_)"/><path d="m159.753 342.943c-5.797 2.678-8.056 9.752-4.879 15.291 3.984 6.947 6.198 15.038 6.025 23.661-.492 24.423-20.439 44.343-44.862 44.803-14.032.264-26.649-5.794-35.211-15.513-3.237-3.675-8.469-4.803-12.904-2.727-3.923 1.836-8.303 2.858-12.924 2.847-9.462-.024-17.967-4.484-23.537-11.388l135.739-135.739c11.589 8.299 19.142 21.872 19.142 37.214 0 18.426-10.893 34.302-26.589 41.551z" fill="url(#SVGID_00000176733798746140101010000017598024585055681968_)"/><path d="m79.363 409.799c-5.268-7.137-8.373-15.96-8.373-25.513 0-11.057 4.165-21.137 11.021-28.765-6.673-6.083-15.552-9.792-25.295-9.792-12.848 0-24.185 6.456-30.957 16.304 1.44 2.641 1.742 5.837.695 8.781-1.131 3.203-1.742 6.652-1.735 10.249.063 16.571 13.712 30.205 30.276 30.247 4.622.007 9.005-1.012 12.925-2.852 3.821-1.785 8.225-1.202 11.443 1.341z" fill="url(#SVGID_00000097502654633726902230000003863844246988508033_)"/><path d="m119.311 310.929c0 25.485-12.595 47.682-31.224 59.273-4.313-12.911-16.501-22.218-30.866-22.218-13.696 0-25.415 8.464-30.214 20.441.399-3.5-.928-7.052-3.677-9.404-14.279-12.219-23.33-30.368-23.33-50.634 0-20.851 9.582-39.462 24.58-51.676 1.449-1.18 2.52-2.695 3.176-4.366 9.016-5.892 19.511-9.273 30.715-9.273 33.599 0 60.84 30.381 60.84 67.857z" fill="url(#SVGID_00000060729467311971864900000004849460868503359652_)"/><path d="m27.225 253.497c1.366-2.547 1.683-5.605.754-8.458-.945-2.902-1.407-6.022-1.291-9.266.495-13.804 11.658-25.102 25.456-25.754 1.638-.077 3.246-.007 4.811.199 4.28.563 8.506-1.3 10.785-4.889-3.324 6.645-5.202 14.14-5.202 22.078 0 13.022 5.04 24.865 13.289 33.69-5.664 5.294-13.111 8.51-21.278 8.51-11.548-.002-21.669-6.446-27.324-16.11z" fill="url(#SVGID_00000151531275288356958610000012343644483903865744_)"/></g></g><g><path d="m415.576 270.468-.063.108c-4.647 7.912-6.732 17.068-5.97 26.212l.004.052c1.342 16.109-6.163 31.678-19.601 40.662l-.013.009c-7.649 5.114-13.523 12.474-16.814 21.067l-.023.059c-5.772 15.072-19.255 25.834-35.231 28.12l-.1.014c-9.082 1.3-17.541 5.377-24.215 11.672l-.04.038c-11.759 11.091-28.61 14.929-44.012 10.023-8.781-2.797-18.213-2.797-26.994 0-15.402 4.906-32.253 1.068-44.012-10.023l-.04-.038c-6.674-6.295-15.132-10.372-24.215-11.672l-.101-.014c-15.976-2.286-29.46-13.048-35.231-28.12l-.023-.059c-3.29-8.592-9.165-15.953-16.814-21.067l-.013-.009c-13.438-8.984-20.943-24.553-19.601-40.662l.004-.051c.762-9.144-1.324-18.3-5.97-26.212l-.063-.108c-8.165-13.904-8.165-31.137 0-45.041l.063-.108c4.646-7.912 6.732-17.068 5.97-26.212l-.004-.052c-1.342-16.109 6.163-31.678 19.601-40.662l.013-.009c7.649-5.114 13.523-12.474 16.814-21.067l.023-.059c5.772-15.072 19.255-25.834 35.231-28.12l.1-.014c9.082-1.3 17.541-5.377 24.215-11.672l.04-.038c11.759-11.091 28.61-14.929 44.012-10.023 8.781 2.797 18.213 2.797 26.994 0 15.402-4.906 32.253-1.068 44.012 10.023l.04.038c6.674 6.295 15.132 10.372 24.215 11.672l.101.014c15.976 2.286 29.46 13.048 35.231 28.12l.023.059c3.29 8.593 9.165 15.953 16.814 21.067l.013.009c13.438 8.984 20.943 24.553 19.601 40.662l-.004.051c-.762 9.144 1.324 18.3 5.97 26.212l.063.108c8.165 13.904 8.165 31.138 0 45.041z" fill="url(#SVGID_00000169539972190121759380000006563917457868223652_)"/><path d="m415.513 225.32c-4.647-7.912-6.732-17.068-5.97-26.212l.004-.051c1.342-16.109-6.163-31.678-19.601-40.662l-.013-.009c-7.649-5.114-13.523-12.474-16.814-21.067l-.023-.059c-5.771-15.072-19.255-25.834-35.231-28.12l-.101-.014c-9.082-1.3-17.54-5.377-24.215-11.672l-.04-.038c-11.759-11.091-28.61-14.929-44.012-10.023-8.781 2.797-18.213 2.797-26.994 0-11.698-3.726-24.227-2.397-34.731 3.312v314.487c10.504 5.709 23.033 7.038 34.731 3.312 8.781-2.797 18.213-2.797 26.994 0 15.402 4.906 32.253 1.068 44.012-10.023l.04-.038c6.674-6.295 15.133-10.372 24.215-11.672l.1-.014c15.976-2.286 29.46-13.048 35.231-28.12l.023-.059c3.29-8.592 9.165-15.953 16.814-21.067l.013-.009c13.438-8.984 20.943-24.553 19.601-40.662l-.004-.052c-.762-9.144 1.324-18.3 5.97-26.212l.063-.108c8.165-13.904 8.165-31.137 0-45.041z" fill="url(#SVGID_00000140006482909517933680000005599839121424211854_)"/><path d="m96.424 270.468.063.108c4.647 7.912 6.732 17.068 5.97 26.212l-.004.051c-1.342 16.109 6.163 31.678 19.601 40.662l.013.009c7.649 5.114 13.523 12.474 16.814 21.067l.023.059c5.771 15.072 19.255 25.834 35.231 28.12l.101.014c9.082 1.3 17.54 5.377 24.215 11.672l.04.038c11.759 11.091 28.61 14.929 44.012 10.023 8.781-2.797 18.213-2.797 26.994 0 15.402 4.906 32.253 1.068 44.012-10.023l.04-.038c6.674-6.295 15.133-10.372 24.215-11.672l.1-.014c15.976-2.286 29.46-13.048 35.231-28.12l.023-.059c3.29-8.592 9.165-15.953 16.814-21.067l.013-.009c13.438-8.984 20.943-24.553 19.601-40.662l-.004-.052c-.762-9.144 1.324-18.3 5.97-26.212l.063-.108c5.925-10.088 7.527-21.926 4.854-32.977h-328.859c-2.673 11.052-1.07 22.89 4.854 32.978z" fill="url(#SVGID_00000012454179372472727300000011434827647451784639_)"/><path d="m313.277 294.165-121.508 53.18 59.335 59.335c6.159-.682 12.426-.077 18.393 1.824 15.402 4.906 32.253 1.068 44.012-10.023l.04-.038c6.674-6.295 15.133-10.372 24.215-11.672l.1-.014c15.976-2.286 29.46-13.048 35.231-28.12l.023-.059c.416-1.087.875-2.154 1.372-3.199z" fill="url(#SVGID_00000058557986640829894980000006163424316291595966_)"/><path d="m374.49 355.378c-.5 1.04-.96 2.11-1.37 3.2l-.02.06c-5.78 15.07-19.26 25.83-35.24 28.12l-.1.01c-9.08 1.3-17.54 5.38-24.21 11.67l-.04.04c-11.76 11.09-28.61 14.93-44.01 10.03-4.39-1.41-8.95-2.1-13.5-2.1v-87.17l57.28-25.07z" fill="url(#SVGID_00000173162998158038426870000006511028644693095586_)"/><g><path d="m186.474 290.808c-14.677 0-26.574-11.898-26.574-26.574v-13.628c0-14.677 11.898-26.574 26.574-26.574 14.676 0 26.574 11.898 26.574 26.574v13.628c0 14.677-11.898 26.574-26.574 26.574z" fill="url(#SVGID_00000091009747942936318220000007933849275370794381_)"/><path d="m325.526 290.808c-14.677 0-26.574-11.898-26.574-26.574v-13.628c0-14.677 11.898-26.574 26.574-26.574 14.677 0 26.574 11.898 26.574 26.574v13.628c.001 14.677-11.897 26.574-26.574 26.574z" fill="url(#SVGID_00000032640313273952546810000018016986651093846206_)"/></g><g><g><g><path d="m265.206 413.607h-18.411c-14.617 0-25.973-12.732-24.308-27.254l6.531-56.96h53.966l6.531 56.96c1.664 14.522-9.692 27.254-24.309 27.254z" fill="url(#SVGID_00000051341308719989453080000008674070408015017652_)"/><path d="m265.206 413.607h-18.411c-14.617 0-25.973-12.732-24.308-27.254l6.531-56.96h53.966l6.531 56.96c1.664 14.522-9.692 27.254-24.309 27.254z" fill="url(#SVGID_00000137103896062236016330000018299161102740807816_)"/><path d="m282.983 329.393h-27.859v84.215h10.081c14.617 0 25.973-12.732 24.308-27.254z" fill="url(#SVGID_00000145750903189063372250000014438874282639287726_)"/></g><g><path d="m328.543 318.599c-9.393-26.797-34.69-44.735-63.085-44.735h-18.916c-28.395 0-53.692 17.938-63.085 44.735-5.466 15.594 5.123 30.821 23.27 37.966 10.18 4.008 21.656 3.014 31.146-2.43 11.226-6.44 25.026-6.44 36.252 0 9.49 5.444 20.966 6.438 31.146 2.43 18.149-7.145 28.738-22.371 23.272-37.966z" fill="url(#SVGID_00000148640730249230562740000008571202968793510565_)"/><path d="m183.457 318.599c-5.466 15.595 5.123 30.821 23.27 37.966 10.18 4.008 21.656 3.014 31.146-2.43 11.226-6.44 25.026-6.44 36.252 0 9.49 5.444 20.966 6.438 31.146 2.429 18.148-7.145 28.737-22.371 23.27-37.966-1.922-5.484-4.52-10.589-7.665-15.253h-129.754c-3.144 4.665-5.742 9.77-7.665 15.254z" fill="url(#SVGID_00000039121238077476633060000009566798886839459470_)"/><path d="m328.543 318.599c-9.393-26.797-34.69-44.735-63.085-44.735h-4.757l-29.482 29.482 55.156 55.156c6.297 1.05 12.826.453 18.897-1.938 18.148-7.144 28.737-22.37 23.271-37.965z" fill="url(#SVGID_00000030479911322552641090000012633142061977738376_)"/><path d="m328.543 318.599c-9.393-26.796-34.69-44.735-63.085-44.735h-14.556v75.81c7.9-1.116 16.082.364 23.223 4.46 9.49 5.444 20.966 6.438 31.146 2.429 18.149-7.143 28.738-22.369 23.272-37.964z" fill="url(#SVGID_00000159448674058092219010000001721248268773255601_)"/></g></g><path d="m271.991 308.88 4.627-2.51c6.392-3.468 10.373-10.157 10.373-17.43v-.309c0-10.952-8.878-19.83-19.83-19.83h-22.322c-10.952 0-19.83 8.878-19.83 19.83v.309c0 7.272 3.981 13.961 10.373 17.43l4.627 2.51c9.974 5.412 22.008 5.412 31.982 0z" fill="url(#SVGID_00000137107879990766314570000016680102274695126973_)"/></g></g></g></svg>