<svg id="Capa_1" enable-background="new 0 0 512 512" height="512" viewBox="0 0 512 512" width="512" xmlns="http://www.w3.org/2000/svg" xmlns:xlink="http://www.w3.org/1999/xlink"><linearGradient id="lg1"><stop offset="0" stop-color="#f89580"/><stop offset="1" stop-color="#c4573a"/></linearGradient><linearGradient id="SVGID_1_" gradientUnits="userSpaceOnUse" x1="99.813" x2="168.249" xlink:href="#lg1" y1="76.245" y2="147.532"/><linearGradient id="lg2"><stop offset="0" stop-color="#c4573a" stop-opacity="0"/><stop offset=".2529" stop-color="#ba5338" stop-opacity=".253"/><stop offset=".6769" stop-color="#a04933" stop-opacity=".677"/><stop offset="1" stop-color="#883f2e"/></linearGradient><linearGradient id="SVGID_00000085223481565608307220000017591398486040268163_" gradientUnits="userSpaceOnUse" x1="171.159" x2="201.575" xlink:href="#lg2" y1="118.485" y2="115.158"/><linearGradient id="lg3"><stop offset="0" stop-color="#ffdfcf"/><stop offset="1" stop-color="#fd8087"/></linearGradient><linearGradient id="SVGID_00000055674697834755757150000004915912996180785337_" gradientUnits="userSpaceOnUse" x1="115.332" x2="167.272" xlink:href="#lg3" y1="94.27" y2="146.21"/><linearGradient id="lg4"><stop offset="0" stop-color="#fd4755" stop-opacity="0"/><stop offset=".2593" stop-color="#f74452" stop-opacity=".259"/><stop offset=".6276" stop-color="#e43b4c" stop-opacity=".628"/><stop offset="1" stop-color="#ca2e43"/></linearGradient><linearGradient id="SVGID_00000165946271415809812720000009092408246705771956_" gradientUnits="userSpaceOnUse" x1="149.291" x2="101.291" xlink:href="#lg4" y1="123.443" y2="93.978"/><linearGradient id="SVGID_00000126323845246717941060000017715469748904615840_" gradientUnits="userSpaceOnUse" x1="301.802" x2="390.198" xlink:href="#lg1" y1="56.172" y2="189.479"/><linearGradient id="SVGID_00000128451879822497208290000010358830817367186879_" gradientUnits="userSpaceOnUse" x1="385.731" x2="377.177" xlink:href="#lg2" y1="81.889" y2="135.355"/><linearGradient id="SVGID_00000153691855434551811210000015516376650457002121_" gradientUnits="userSpaceOnUse" x1="371.097" x2="408.879" xlink:href="#lg2" y1="116.683" y2="91.733"/><linearGradient id="SVGID_00000151502185973553564360000013203292160013469320_" gradientUnits="userSpaceOnUse" x1="333.565" x2="371.347" xlink:href="#lg3" y1="73.668" y2="143.53"/><linearGradient id="SVGID_00000016782138219529478870000016113320056238978467_" gradientUnits="userSpaceOnUse" x1="352.041" x2="323.526" xlink:href="#lg4" y1="117.925" y2="110.796"/><linearGradient id="SVGID_00000152950995784234531500000006905512098270253696_" gradientUnits="userSpaceOnUse" x1="178.284" x2="355.791" xlink:href="#lg1" y1="216.89" y2="379.426"/><linearGradient id="SVGID_00000078041728315029212760000001196309182495908520_" gradientUnits="userSpaceOnUse" x1="371.402" x2="460.155" xlink:href="#lg2" y1="297.572" y2="300.78"/><linearGradient id="SVGID_00000011028746141961269140000011040813079369127301_" gradientUnits="userSpaceOnUse" x1="256" x2="256" xlink:href="#lg2" y1="403.791" y2="489.983"/><linearGradient id="SVGID_00000026848978308898194630000006493474413410624641_" gradientUnits="userSpaceOnUse" x1="485.453" x2="374.958" xlink:href="#lg2" y1="395.545" y2="408.02"/><linearGradient id="lg5"><stop offset="0" stop-color="#5a5a5a"/><stop offset="1" stop-color="#444"/></linearGradient><linearGradient id="SVGID_00000050626839506384229440000015973497556414307718_" gradientUnits="userSpaceOnUse" x1="331.037" x2="358.813" xlink:href="#lg5" y1="289.555" y2="310.388"/><linearGradient id="SVGID_00000083780219003895679540000013566716699538087840_" gradientUnits="userSpaceOnUse" x1="147.037" x2="174.813" xlink:href="#lg5" y1="289.555" y2="310.388"/><linearGradient id="SVGID_00000142156151347134516190000002610507505776357519_" gradientUnits="userSpaceOnUse" x1="194.332" x2="299.124" xlink:href="#lg1" y1="330.554" y2="490.237"/><linearGradient id="SVGID_00000090275867323894935130000014252766057093545641_" gradientUnits="userSpaceOnUse" x1="313.035" x2="398.58" xlink:href="#lg2" y1="407.362" y2="435.164"/><linearGradient id="SVGID_00000127723665230028878800000002635729727793536654_" gradientUnits="userSpaceOnUse" x1="256" x2="256" xlink:href="#lg2" y1="436.941" y2="511.792"/><linearGradient id="SVGID_00000162310658347015917550000001287934170941180089_" gradientUnits="userSpaceOnUse" x1="256.003" x2="256.003" xlink:href="#lg2" y1="343.317" y2="513.034"/><linearGradient id="SVGID_00000012454797191560401220000017693732793592487599_" gradientUnits="userSpaceOnUse" x1="318.461" x2="250.025" xlink:href="#lg2" y1="457.837" y2="357.678"/><linearGradient id="SVGID_00000166641815766952737800000006451744128544702339_" gradientUnits="userSpaceOnUse" x1="240.781" x2="269.652" xlink:href="#lg3" y1="364.763" y2="410.743"/><linearGradient id="SVGID_00000102521507317445511030000012003075363699230113_" gradientUnits="userSpaceOnUse" x1="363.183" x2="363.183" xlink:href="#lg2" y1="271.554" y2="305.067"/><linearGradient id="SVGID_00000084531819003058414570000005710361248113629354_" gradientUnits="userSpaceOnUse" x1="290.583" x2="257.791" xlink:href="#lg2" y1="194.972" y2="190.695"/><linearGradient id="SVGID_00000143608217284585196280000012491119393019044799_" gradientUnits="userSpaceOnUse" x1="291.146" x2="249.444" xlink:href="#lg2" y1="178.216" y2="151.484"/><linearGradient id="SVGID_00000169558061055794965870000003631025387936823965_" gradientTransform="matrix(-1 0 0 1 420.433 0)" gradientUnits="userSpaceOnUse" x1="199.579" x2="157.876" xlink:href="#lg2" y1="178.216" y2="151.484"/><linearGradient id="SVGID_00000079487033381556394350000017248543164999490239_" gradientTransform="matrix(-1 0 0 1 726.366 0)" gradientUnits="userSpaceOnUse" x1="577.549" x2="577.549" xlink:href="#lg2" y1="271.554" y2="305.067"/><linearGradient id="SVGID_00000080184854033140321800000001255914768217379248_" gradientUnits="userSpaceOnUse" x1="225.162" x2="260.092" xlink:href="#lg2" y1="198.76" y2="197.334"/><g><g><g><path d="m164.284 4.11-85.967 112.312c-38.676 50.528-2.648 123.474 60.982 123.474 49.291 0 85.82-45.776 74.882-93.838l-31.387-137.911c-1.967-8.644-13.121-11.077-18.51-4.037z" fill="url(#SVGID_1_)"/><path d="m164.284 4.11-85.967 112.312c-38.676 50.528-2.648 123.474 60.982 123.474 49.291 0 85.82-45.776 74.882-93.838l-31.387-137.911c-1.967-8.644-13.121-11.077-18.51-4.037z" fill="url(#SVGID_00000085223481565608307220000017591398486040268163_)"/><path d="m154.419 49.75-52.096 68.062c-23.438 30.62-1.605 74.826 36.956 74.826 29.871 0 52.007-27.74 45.378-56.866l-19.02-83.574c-1.193-5.24-7.953-6.714-11.218-2.448z" fill="url(#SVGID_00000055674697834755757150000004915912996180785337_)"/><path d="m154.419 49.75-52.096 68.062c-23.438 30.62-1.605 74.826 36.956 74.826 29.871 0 52.007-27.74 45.378-56.866l-19.02-83.574c-1.193-5.24-7.953-6.714-11.218-2.448z" fill="url(#SVGID_00000165946271415809812720000009092408246705771956_)"/></g><g><path d="m347.716 4.11 85.967 112.313c38.676 50.528 2.648 123.474-60.982 123.474-49.291 0-85.82-45.776-74.882-93.838l31.387-137.912c1.967-8.644 13.121-11.077 18.51-4.037z" fill="url(#SVGID_00000126323845246717941060000017715469748904615840_)"/><path d="m347.716 4.11 85.967 112.313c38.676 50.528 2.648 123.474-60.982 123.474-49.291 0-85.82-45.776-74.882-93.838l31.387-137.912c1.967-8.644 13.121-11.077 18.51-4.037z" fill="url(#SVGID_00000128451879822497208290000010358830817367186879_)"/><path d="m347.716 4.11 85.967 112.313c38.676 50.528 2.648 123.474-60.982 123.474-49.291 0-85.82-45.776-74.882-93.838l31.387-137.912c1.967-8.644 13.121-11.077 18.51-4.037z" fill="url(#SVGID_00000153691855434551811210000015516376650457002121_)"/><path d="m357.581 49.75 52.096 68.062c23.438 30.62 1.605 74.826-36.956 74.826-29.871 0-52.007-27.74-45.378-56.866l19.02-83.574c1.193-5.24 7.953-6.714 11.218-2.448z" fill="url(#SVGID_00000151502185973553564360000013203292160013469320_)"/><path d="m357.581 49.75 52.096 68.062c23.438 30.62 1.605 74.826-36.956 74.826-29.871 0-52.007-27.74-45.378-56.866l19.02-83.574c1.193-5.24 7.953-6.714 11.218-2.448z" fill="url(#SVGID_00000016782138219529478870000016113320056238978467_)"/></g></g><path d="m465.26 230.55-4.72 105.04c-.97 21.44-9.82 41.77-24.86 57.08-6.2 6.31-11.4 13.48-15.46 21.24-4.05 7.76-6.96 16.12-8.6 24.82-2.04 10.85-6.98 20.75-14.06 28.72s-16.3 14.02-26.88 17.2c-11.33 3.4-23.33 5.23-35.74 5.23h-57.52c.12-.68.18-1.37.18-2.07 0-8.91-9.67-16.14-21.6-16.14s-21.6 7.23-21.6 16.14c0 .7.06 1.39.18 2.07h-57.52c-12.41 0-24.41-1.83-35.74-5.23-21.16-6.36-36.86-24.21-40.94-45.92-1.64-8.7-4.55-17.06-8.6-24.82-4.06-7.76-9.26-14.93-15.46-21.24-7.52-7.65-13.49-16.57-17.71-26.24-4.21-9.68-6.67-20.12-7.15-30.84l-4.72-105.04c-3.17-70.66 53.26-129.69 123.99-129.69h.18c7.78 0 15.49 1.29 22.91 3.63 17.75 5.58 39.15 8.84 62.18 8.84s44.43-3.26 62.18-8.84c7.42-2.34 15.13-3.63 22.91-3.63h.18c70.73 0 127.16 59.03 123.99 129.69z" fill="url(#SVGID_00000152950995784234531500000006905512098270253696_)"/><path d="m465.26 230.55-4.72 105.04c-.97 21.44-9.82 41.77-24.86 57.08-6.2 6.31-11.4 13.48-15.46 21.24-4.05 7.76-6.96 16.12-8.6 24.82-2.04 10.85-6.98 20.75-14.06 28.72s-16.3 14.02-26.88 17.2c-11.33 3.4-23.33 5.23-35.74 5.23h-57.52c.12-.68.18-1.37.18-2.07 0-8.91-9.67-16.14-21.6-16.14-6.43 0-12.2 2.1-16.15 5.43v-364.32c5.27.36 10.66.55 16.15.55 23.03 0 44.43-3.26 62.18-8.84 7.42-2.34 15.13-3.63 22.91-3.63h.18c70.73 0 127.16 59.03 123.99 129.69z" fill="url(#SVGID_00000078041728315029212760000001196309182495908520_)"/><path d="m459.98 342.07c-2.29 19.03-10.79 36.84-24.3 50.6-6.2 6.31-11.4 13.48-15.46 21.24-4.05 7.76-6.96 16.12-8.6 24.82-2.04 10.85-6.98 20.75-14.06 28.72s-16.3 14.02-26.88 17.2c-11.33 3.4-23.33 5.23-35.74 5.23h-57.52c.12-.68.18-1.37.18-2.07 0-8.91-9.67-16.14-21.6-16.14s-21.6 7.23-21.6 16.14c0 .7.06 1.39.18 2.07h-57.52c-12.41 0-24.41-1.83-35.74-5.23-21.16-6.36-36.86-24.21-40.94-45.92-1.64-8.7-4.55-17.06-8.6-24.82-4.06-7.76-9.26-14.93-15.46-21.24-7.52-7.65-13.49-16.57-17.71-26.24-3.36-7.72-5.58-15.92-6.59-24.36z" fill="url(#SVGID_00000011028746141961269140000011040813079369127301_)"/><path d="m350.283 332.693v156.226c6.99-.864 13.809-2.292 20.397-4.269 10.58-3.18 19.8-9.23 26.88-17.2s12.02-17.87 14.06-28.72c1.64-8.7 4.55-17.06 8.6-24.82 1.274-2.435 2.673-4.803 4.167-7.114z" fill="url(#SVGID_00000026848978308898194630000006493474413410624641_)"/><g><path d="m321.9 295.369c-3.263 0-5.533 3.209-4.494 6.302 1.615 4.807 4.716 9.056 8.965 12.05 21.441 15.107 44.185 5.831 52.045-11.603 1.426-3.163-.843-6.749-4.312-6.749z" fill="url(#SVGID_00000050626839506384229440000015973497556414307718_)"/><path d="m137.9 295.369c-3.263 0-5.533 3.209-4.494 6.302 1.615 4.807 4.716 9.056 8.965 12.05 21.441 15.107 44.185 5.831 52.045-11.603 1.426-3.163-.843-6.749-4.312-6.749z" fill="url(#SVGID_00000083780219003895679540000013566716699538087840_)"/></g><g><path d="m391.147 407.655c-17.311-68.694-71.76-115.926-133.636-115.926h-3.022c-61.877 0-116.325 47.232-133.636 115.926-9.932 39.411 8.585 77.914 40.868 96.971 19.35 11.423 42.607 9.402 60.489-4.866 20.34-16.23 47.24-16.23 67.58 0l.001.001c17.882 14.268 41.139 16.288 60.489 4.865 32.282-19.056 50.799-57.56 40.867-96.971z" fill="url(#SVGID_00000142156151347134516190000002610507505776357519_)"/><path d="m391.147 407.655c-17.311-68.693-71.76-115.925-133.636-115.925h-3.022c-1.159 0-2.314.022-3.468.055v196.053c13.434-1.302 27.168 2.666 38.769 11.922l.001.001c17.882 14.268 41.139 16.288 60.489 4.865 32.282-19.056 50.799-57.56 40.867-96.971z" fill="url(#SVGID_00000090275867323894935130000014252766057093545641_)"/><path d="m120.853 407.655c-9.932 39.411 8.585 77.914 40.868 96.971 19.35 11.423 42.607 9.403 60.489-4.866 20.341-16.23 47.24-16.23 67.58 0l.001.001c17.882 14.268 41.139 16.288 60.489 4.865 32.282-19.057 50.799-57.56 40.868-96.971v-.001c-2.371-9.407-5.442-18.408-9.129-26.943h-252.037c-3.687 8.536-6.759 17.537-9.129 26.944z" fill="url(#SVGID_00000127723665230028878800000002635729727793536654_)"/><path d="m308.247 500.563c-1.269-1.093-2.483-2.227-3.637-3.403-41.13-41.9-48.61-95.32-48.61-95.32s-7.48 53.42-48.61 95.32c-1.154 1.175-2.368 2.31-3.637 3.403-11.324 9.751-27.441 11.862-40.543 4.905 19.045 10.464 41.573 8.197 58.999-5.708 20.341-16.23 47.24-16.23 67.58 0l.001.001c17.427 13.905 39.958 16.172 59.004 5.705-13.102 6.96-29.222 4.849-40.547-4.903z" fill="url(#SVGID_00000162310658347015917550000001287934170941180089_)"/><path d="m288.147 372.273-62.977 34.803 104.56 104.559c7.057-.841 14.026-3.157 20.551-7.009 14.634-8.639 26.425-21.282 34.034-36.186z" fill="url(#SVGID_00000012454797191560401220000017693732793592487599_)"/><path d="m275.877 413.981 5.751-3.12c7.945-4.311 12.893-12.625 12.893-21.664v-.384c0-13.613-11.035-24.648-24.648-24.648h-27.746c-13.613 0-24.648 11.035-24.648 24.648v.384c0 9.039 4.948 17.353 12.893 21.664l5.751 3.12c12.398 6.727 27.356 6.727 39.754 0z" fill="url(#SVGID_00000166641815766952737800000006451744128544702339_)"/></g><path d="m381.22 107.434-82.093 82.093c-15.711 15.712-26.977 35.307-32.649 56.791l-4.721 17.881c-3.751 14.207 6.492 28.274 21.164 29.066l38.978 2.104h59.066c18.218 0 36.097-4.926 51.744-14.257l31.111-18.552 1.438-32.01c2.545-56.679-33.264-105.867-84.038-123.116z" fill="url(#SVGID_00000102521507317445511030000012003075363699230113_)"/><path d="m381.22 107.434-82.093 82.093c-15.711 15.712-26.977 35.307-32.649 56.791l-4.721 17.881c-3.751 14.207 6.492 28.274 21.164 29.066l38.978 2.104h59.066c18.218 0 36.097-4.926 51.744-14.257l31.111-18.552 1.438-32.01c2.545-56.679-33.264-105.867-84.038-123.116z" fill="url(#SVGID_00000084531819003058414570000005710361248113629354_)"/><g><ellipse cx="349.042" cy="215.329" fill="url(#SVGID_00000143608217284585196280000012491119393019044799_)" rx="92.048" ry="95.525"/><ellipse cx="162.958" cy="215.329" fill="url(#SVGID_00000169558061055794965870000003631025387936823965_)" rx="92.048" ry="95.525"/></g><path d="m130.78 107.434 82.093 82.093c15.712 15.712 26.977 35.307 32.649 56.791l4.721 17.881c3.751 14.207-6.492 28.274-21.164 29.066l-38.978 2.104h-59.066c-18.218 0-36.097-4.926-51.744-14.257l-31.113-18.552-1.438-32.01c-2.543-56.679 33.266-105.867 84.04-123.116z" fill="url(#SVGID_00000079487033381556394350000017248543164999490239_)"/><path d="m130.78 107.434 82.093 82.093c15.712 15.712 26.977 35.307 32.649 56.791l4.721 17.881c3.751 14.207-6.492 28.274-21.164 29.066l-38.978 2.104h-59.066c-18.218 0-36.097-4.926-51.744-14.257l-31.113-18.552-1.438-32.01c-2.543-56.679 33.266-105.867 84.04-123.116z" fill="url(#SVGID_00000080184854033140321800000001255914768217379248_)"/></g></svg>