<svg id="Capa_1" enable-background="new 0 0 512 512" height="512" viewBox="0 0 512 512" width="512" xmlns="http://www.w3.org/2000/svg" xmlns:xlink="http://www.w3.org/1999/xlink"><linearGradient id="lg1"><stop offset="0" stop-color="#ffbf51"/><stop offset="1" stop-color="#c5715a"/></linearGradient><linearGradient id="SVGID_1_" gradientUnits="userSpaceOnUse" x1="257.575" x2="269.622" xlink:href="#lg1" y1="478.4" y2="518.559"/><linearGradient id="lg2"><stop offset="0" stop-color="#883f2e" stop-opacity="0"/><stop offset=".2979" stop-color="#8b402e" stop-opacity=".298"/><stop offset=".536" stop-color="#954430" stop-opacity=".536"/><stop offset=".7533" stop-color="#a64b34" stop-opacity=".753"/><stop offset=".9572" stop-color="#be5539" stop-opacity=".957"/><stop offset="1" stop-color="#c4573a"/></linearGradient><linearGradient id="SVGID_00000155128836852973410190000014736380413025097654_" gradientUnits="userSpaceOnUse" x1="256.709" x2="261.394" xlink:href="#lg2" y1="485.052" y2="513.163"/><linearGradient id="SVGID_00000070821912314719434860000008501448385539145621_" gradientUnits="userSpaceOnUse" x1="277.86" x2="261.127" xlink:href="#lg2" y1="496.485" y2="475.402"/><linearGradient id="SVGID_00000019653719646267655860000004676327493815008187_" gradientUnits="userSpaceOnUse" x1="228.27" x2="316.874" xlink:href="#lg1" y1="412.476" y2="412.476"/><linearGradient id="SVGID_00000121237448144537473450000003705941146589218947_" gradientUnits="userSpaceOnUse" x1="299.392" x2="340.22" xlink:href="#lg2" y1="417.022" y2="428.4"/><linearGradient id="SVGID_00000085223505179118093210000017802142190838532276_" gradientUnits="userSpaceOnUse" x1="256" x2="256" xlink:href="#lg2" y1="461.905" y2="500.242"/><linearGradient id="SVGID_00000170274834535139895700000017859569465040656559_" gradientUnits="userSpaceOnUse" x1="290.033" x2="262.588" xlink:href="#lg2" y1="503.095" y2="435.729"/><linearGradient id="SVGID_00000169535128201542694030000011412812842927883450_" gradientUnits="userSpaceOnUse" x1="148.144" x2="192.353" xlink:href="#lg1" y1="105.159" y2="122.191"/><linearGradient id="lg3"><stop offset="0" stop-color="#c4573a" stop-opacity="0"/><stop offset=".2529" stop-color="#ba5338" stop-opacity=".253"/><stop offset=".6769" stop-color="#a04933" stop-opacity=".677"/><stop offset="1" stop-color="#883f2e"/></linearGradient><linearGradient id="SVGID_00000111181499529139556820000008995904582464638866_" gradientUnits="userSpaceOnUse" x1="159.732" x2="197.056" xlink:href="#lg3" y1="110.758" y2="120.18"/><linearGradient id="SVGID_00000092451294255183141060000000434939341158943161_" gradientUnits="userSpaceOnUse" x1="143.254" x2="180.578" xlink:href="#lg3" y1="123.896" y2="161.22"/><linearGradient id="lg4"><stop offset="0" stop-color="#5a5a5a"/><stop offset="1" stop-color="#444"/></linearGradient><linearGradient id="SVGID_00000070808432890239335010000002181882052323271307_" gradientUnits="userSpaceOnUse" x1="193.387" x2="214.042" xlink:href="#lg4" y1="116.01" y2="117.46"/><linearGradient id="lg5"><stop offset="0" stop-color="#433f43" stop-opacity="0"/><stop offset=".2995" stop-color="#3e3b3e" stop-opacity=".3"/><stop offset=".6425" stop-color="#302e30" stop-opacity=".643"/><stop offset="1" stop-color="#1a1a1a"/></linearGradient><linearGradient id="SVGID_00000060726484379234911890000001449216856484251781_" gradientUnits="userSpaceOnUse" x1="192.765" x2="213.783" xlink:href="#lg5" y1="114.757" y2="115.119"/><linearGradient id="SVGID_00000160889917832241652680000001230937330846594229_" gradientUnits="userSpaceOnUse" x1="167.811" x2="173.971" xlink:href="#lg5" y1="107.311" y2="135.939"/><linearGradient id="SVGID_00000082340261255036411080000004614375622845843626_" gradientUnits="userSpaceOnUse" x1="334.362" x2="392.342" xlink:href="#lg1" y1="115.255" y2="100.76"/><linearGradient id="SVGID_00000124857323158435854280000009452497181649212308_" gradientTransform="matrix(-1 0 0 1 700.026 0)" gradientUnits="userSpaceOnUse" x1="347.757" x2="385.081" xlink:href="#lg3" y1="110.758" y2="120.18"/><linearGradient id="SVGID_00000002374251481419015790000006874430905832737953_" gradientTransform="matrix(-1 0 0 1 700.026 0)" gradientUnits="userSpaceOnUse" x1="331.28" x2="368.604" xlink:href="#lg3" y1="123.896" y2="161.22"/><linearGradient id="SVGID_00000123407872775975486230000002830036772043187896_" gradientTransform="matrix(-1 0 0 1 700.026 0)" gradientUnits="userSpaceOnUse" x1="381.412" x2="402.067" xlink:href="#lg4" y1="116.01" y2="117.46"/><linearGradient id="SVGID_00000044166661832945377230000006278229635576399795_" gradientTransform="matrix(-1 0 0 1 700.026 0)" gradientUnits="userSpaceOnUse" x1="380.791" x2="401.808" xlink:href="#lg5" y1="114.757" y2="115.119"/><linearGradient id="SVGID_00000086667262600999713160000014733431699329283247_" gradientTransform="matrix(-1 0 0 1 700.026 0)" gradientUnits="userSpaceOnUse" x1="355.836" x2="361.996" xlink:href="#lg5" y1="107.311" y2="135.939"/><linearGradient id="SVGID_00000103985617249223483650000017731744883551141025_" gradientUnits="userSpaceOnUse" x1="171.562" x2="314.793" xlink:href="#lg4" y1="268.689" y2="293.453"/><linearGradient id="SVGID_00000065759494774120450140000009300035637255007679_" gradientUnits="userSpaceOnUse" x1="307.918" x2="381.207" xlink:href="#lg5" y1="288.846" y2="297.882"/><linearGradient id="SVGID_00000040542325602615737230000013654525219609138095_" gradientTransform="matrix(.966 -.259 .259 .966 166.094 -398.415)" gradientUnits="userSpaceOnUse" x1="-26.892" x2="-26.892" xlink:href="#lg1" y1="635.268" y2="654.674"/><linearGradient id="SVGID_00000183939480783176902760000001210503421477459616_" gradientTransform="matrix(-.966 -.259 -.259 .966 -2743.835 -398.415)" gradientUnits="userSpaceOnUse" x1="-3011.353" x2="-3011.353" xlink:href="#lg1" y1="-164.416" y2="-145.01"/><linearGradient id="SVGID_00000104696055977510640860000000306987349992308630_" gradientUnits="userSpaceOnUse" x1="121.156" x2="215.962" xlink:href="#lg5" y1="235.211" y2="330.018"/><linearGradient id="SVGID_00000162332159403814470330000007428483104723280557_" gradientUnits="userSpaceOnUse" x1="246.323" x2="345.877" xlink:href="#lg5" y1="222.584" y2="322.139"/><linearGradient id="SVGID_00000116219798137340113580000000802524693241727419_" gradientUnits="userSpaceOnUse" x1="256" x2="256" xlink:href="#lg5" y1="385.827" y2="422.549"/><linearGradient id="SVGID_00000013909805946141477790000016011712576487828403_" gradientUnits="userSpaceOnUse" x1="256.309" x2="310.523" xlink:href="#lg5" y1="332.632" y2="343.341"/><linearGradient id="SVGID_00000181801687724402138380000009341932554802145926_" gradientUnits="userSpaceOnUse" x1="248.221" x2="266.627" xlink:href="#lg4" y1="428.625" y2="463.094"/><g><path d="m264.643 512h-17.286c-13.724 0-24.386-11.954-22.822-25.589l6.131-53.479h50.668l6.131 53.479c1.564 13.635-9.098 25.589-22.822 25.589z" fill="url(#SVGID_1_)"/><path d="m264.643 512h-17.286c-13.724 0-24.386-11.954-22.822-25.589l6.131-53.479h50.668l6.131 53.479c1.564 13.635-9.098 25.589-22.822 25.589z" fill="url(#SVGID_00000155128836852973410190000014736380413025097654_)"/><path d="m264.643 512h-17.286c-13.724 0-24.386-11.954-22.822-25.589l6.131-53.479h50.668l6.131 53.479c1.564 13.635-9.098 25.589-22.822 25.589z" fill="url(#SVGID_00000070821912314719434860000008501448385539145621_)"/><path d="m358.141 356.23-4.807 6.985c-.009.019-.028.038-.037.056-2.479 3.596-4.206 7.642-5.201 11.886l-20.487 87.175c-2.112 8.976-6.206 17.069-11.755 23.857-12.957 15.848-36.851 16.891-51.329 2.413l-8.525-8.524-8.525 8.525c-14.478 14.478-38.372 13.435-51.329-2.413-5.549-6.788-9.642-14.881-11.755-23.857l-20.486-87.175c-.995-4.244-2.723-8.29-5.201-11.886-.009-.019-.028-.038-.037-.056l-4.807-6.985c62.186-40.112 142.094-40.112 204.281-.001z" fill="url(#SVGID_00000019653719646267655860000004676327493815008187_)"/><path d="m264.525 488.603c14.478 14.478 38.372 13.435 51.329-2.413 5.549-6.788 9.642-14.881 11.755-23.857l20.487-87.175c.995-4.244 2.723-8.29 5.201-11.886.009-.019.028-.038.037-.056l4.807-6.985c-31.094-20.056-66.617-30.083-102.141-30.083v153.931z" fill="url(#SVGID_00000121237448144537473450000003705941146589218947_)"/><path d="m173.371 415.438 11.02 46.895c2.112 8.976 6.206 17.069 11.755 23.857 12.957 15.848 36.851 16.891 51.329 2.413l8.525-8.525 8.525 8.525c14.478 14.478 38.372 13.435 51.329-2.413 5.549-6.788 9.642-14.881 11.755-23.857l11.02-46.895z" fill="url(#SVGID_00000085223505179118093210000017802142190838532276_)"/><path d="m315.854 486.19c4.953-6.059 8.735-13.163 10.995-21l-28.541-28.54-76.671 26.836 25.468 25.468c.122-.119.249-.229.37-.35l8.525-8.525 8.525 8.525c14.478 14.477 38.372 13.434 51.329-2.414z" fill="url(#SVGID_00000170274834535139895700000017859569465040656559_)"/><g><g><path d="m139.447 225.567s-68.511-44.934-23.94-103.638c36.921-48.627 65.632-80.844 74.401-117.658 1.364-5.728 9.548-5.678 10.88.058 5.334 22.961 11.336 66.246 11.336 144.779z" fill="url(#SVGID_00000169535128201542694030000011412812842927883450_)"/><path d="m139.447 225.567s-68.511-44.934-23.94-103.638c36.921-48.627 65.632-80.844 74.401-117.658 1.364-5.728 9.548-5.678 10.88.058 5.334 22.961 11.336 66.246 11.336 144.779z" fill="url(#SVGID_00000111181499529139556820000008995904582464638866_)"/><path d="m115.507 121.929c-44.572 58.704 23.94 103.638 23.94 103.638l72.678-76.46c0-25.484-.635-47.236-1.671-65.807h-65.222c-9.032 11.842-19.031 24.544-29.725 38.629z" fill="url(#SVGID_00000092451294255183141060000000434939341158943161_)"/><path d="m215.176 149.102-75.73 76.462s-1.169-.773-3.111-2.237c21.767-25.376 41.54-64.293 53.801-110.042 10.817-40.341 13.908-79.014 10.248-110.124.173.356.264.765.407 1.169 9.294 26.281 14.385 66.246 14.385 144.772z" fill="url(#SVGID_00000070808432890239335010000002181882052323271307_)"/><path d="m215.176 149.102-75.73 76.462s-1.169-.773-3.111-2.237c21.767-25.376 41.54-64.293 53.801-110.042 10.817-40.341 13.908-79.014 10.248-110.124.173.356.264.765.407 1.169 9.294 26.281 14.385 66.246 14.385 144.772z" fill="url(#SVGID_00000060726484379234911890000001449216856484251781_)"/><path d="m215.176 149.102-75.73 76.462s-1.169-.773-3.111-2.237c21.767-25.376 41.54-64.293 53.801-110.042 10.817-40.341 13.908-79.014 10.248-110.124.173.356.264.765.407 1.169 9.294 26.281 14.385 66.246 14.385 144.772z" fill="url(#SVGID_00000160889917832241652680000001230937330846594229_)"/></g><g><path d="m372.553 225.567s68.511-44.934 23.94-103.638c-36.92-48.627-65.632-80.844-74.401-117.659-1.365-5.728-9.548-5.678-10.88.058-5.334 22.961-11.336 66.246-11.336 144.779z" fill="url(#SVGID_00000082340261255036411080000004614375622845843626_)"/><path d="m372.553 225.567s68.511-44.934 23.94-103.638c-36.92-48.627-65.632-80.844-74.401-117.659-1.365-5.728-9.548-5.678-10.88.058-5.334 22.961-11.336 66.246-11.336 144.779z" fill="url(#SVGID_00000124857323158435854280000009452497181649212308_)"/><path d="m396.493 121.929c44.572 58.704-23.94 103.638-23.94 103.638l-72.678-76.46c0-25.484.635-47.236 1.671-65.807h65.222c9.032 11.842 19.031 24.544 29.725 38.629z" fill="url(#SVGID_00000002374251481419015790000006874430905832737953_)"/><path d="m296.824 149.102 75.73 76.462s1.169-.773 3.111-2.237c-21.767-25.376-41.54-64.293-53.801-110.042-10.817-40.341-13.908-79.014-10.248-110.124-.173.356-.264.765-.407 1.169-9.294 26.281-14.385 66.246-14.385 144.772z" fill="url(#SVGID_00000123407872775975486230000002830036772043187896_)"/><path d="m296.824 149.102 75.73 76.462s1.169-.773 3.111-2.237c-21.767-25.376-41.54-64.293-53.801-110.042-10.817-40.341-13.908-79.014-10.248-110.124-.173.356-.264.765-.407 1.169-9.294 26.281-14.385 66.246-14.385 144.772z" fill="url(#SVGID_00000044166661832945377230000006278229635576399795_)"/><path d="m296.824 149.102 75.73 76.462s1.169-.773 3.111-2.237c-21.767-25.376-41.54-64.293-53.801-110.042-10.817-40.341-13.908-79.014-10.248-110.124-.173.356-.264.765-.407 1.169-9.294 26.281-14.385 66.246-14.385 144.772z" fill="url(#SVGID_00000086667262600999713160000014733431699329283247_)"/></g></g><g><path d="m308.53 125.987h-.113c-4.788 0-9.539 1.221-14.111 3.427-10.938 5.277-24.12 8.356-38.306 8.356-14.187 0-27.368-3.08-38.306-8.356-4.572-2.206-9.323-3.427-14.111-3.427h-.113c-43.574 0-78.34 55.77-76.388 122.534l.836 28.373c.826 28.411 9.839 55.986 25.941 79.336 3.137 4.559 7.576 8.064 12.737 10.06 5.294 2.047 11.289 4.361 11.289 4.361 24.852 9.558 39.94 34.889 36.504 61.29l-1.436 11.041h86.096l-1.436-11.041c-3.436-26.401 11.651-51.732 36.504-61.29l11.229-4.32c5.177-1.992 9.632-5.504 12.777-10.072.013-.019.02-.029.02-.029 16.102-23.35 25.115-50.925 25.941-79.336l.836-28.373c1.951-66.764-32.816-122.534-76.39-122.534z" fill="url(#SVGID_00000103985617249223483650000017731744883551141025_)"/></g><path d="m308.53 125.987h-.113c-4.788 0-9.539 1.221-14.111 3.427-10.938 5.277-24.12 8.356-38.306 8.356-7.904 0-15.495-.958-22.562-2.718v307.93h65.61l-1.436-11.041c-3.436-26.401 11.651-51.732 36.504-61.29l11.229-4.32c5.177-1.992 9.632-5.504 12.777-10.072.013-.019.02-.029.02-.029 16.102-23.35 25.115-50.925 25.941-79.336l.836-28.373c1.952-66.764-32.815-122.534-76.389-122.534z" fill="url(#SVGID_00000065759494774120450140000009300035637255007679_)"/><g><path d="m325.498 244.165-28.114 7.533c-9.266 2.483-18.79-3.016-21.273-12.282-2.483-9.266 3.016-18.79 12.282-21.273l28.114-7.533c9.266-2.483 18.79 3.016 21.273 12.282 2.483 9.266-3.016 18.791-12.282 21.273z" fill="url(#SVGID_00000040542325602615737230000013654525219609138095_)"/><path d="m186.502 244.165 28.114 7.533c9.266 2.483 18.79-3.016 21.273-12.282 2.483-9.266-3.016-18.79-12.282-21.273l-28.114-7.533c-9.266-2.483-18.79 3.016-21.273 12.282-2.483 9.266 3.016 18.791 12.282 21.273z" fill="url(#SVGID_00000183939480783176902760000001210503421477459616_)"/></g><g><path d="m187.103 332.515c-13.784 0-24.957-11.174-24.957-24.957v-12.799c0-13.784 11.174-24.957 24.957-24.957 13.783 0 24.957 11.174 24.957 24.957v12.799c0 13.783-11.174 24.957-24.957 24.957z" fill="url(#SVGID_00000104696055977510640860000000306987349992308630_)"/><path d="m324.897 332.515c-13.784 0-24.957-11.174-24.957-24.957v-12.799c0-13.784 11.174-24.957 24.957-24.957 13.784 0 24.957 11.174 24.957 24.957v12.799c0 13.783-11.173 24.957-24.957 24.957z" fill="url(#SVGID_00000162332159403814470330000007428483104723280557_)"/></g><path d="m137.936 326.147c4.115 10.564 9.432 20.671 15.923 30.083 3.137 4.559 7.576 8.064 12.737 10.06 5.294 2.047 11.289 4.361 11.289 4.361 24.852 9.558 39.94 34.889 36.504 61.29l-1.436 11.041h86.096l-1.436-11.041c-3.436-26.401 11.651-51.732 36.504-61.29l11.229-4.32c5.177-1.992 9.632-5.504 12.777-10.072.013-.019.02-.029.02-.029 6.491-9.413 11.808-19.52 15.923-30.083z" fill="url(#SVGID_00000116219798137340113580000000802524693241727419_)"/><path d="m272.629 216.94h-33.258l-26.42 226.044h86.098z" fill="url(#SVGID_00000013909805946141477790000016011712576487828403_)"/><path d="m278.213 471.111 6.427-3.487c8.879-4.818 14.409-14.109 14.409-24.211v-.429c0-15.213-12.332-27.545-27.545-27.545h-31.007c-15.213 0-27.545 12.332-27.545 27.545v.429c0 10.102 5.53 19.393 14.409 24.211l6.427 3.487c13.854 7.517 30.57 7.517 44.425 0z" fill="url(#SVGID_00000181801687724402138380000009341932554802145926_)"/></g></svg>