<svg id="Capa_1" enable-background="new 0 0 512 512" height="512" viewBox="0 0 512 512" width="512" xmlns="http://www.w3.org/2000/svg" xmlns:xlink="http://www.w3.org/1999/xlink"><linearGradient id="lg1"><stop offset="0" stop-color="#fffaf8"/><stop offset="1" stop-color="#ffdfcf"/></linearGradient><linearGradient id="SVGID_1_" gradientUnits="userSpaceOnUse" x1="124.707" x2="293.174" xlink:href="#lg1" y1="113.256" y2="331.153"/><linearGradient id="lg2"><stop offset="0" stop-color="#f89580" stop-opacity="0"/><stop offset=".2599" stop-color="#f2917c" stop-opacity=".261"/><stop offset=".5954" stop-color="#e2856f" stop-opacity=".597"/><stop offset=".9709" stop-color="#c8725b" stop-opacity=".974"/><stop offset=".9972" stop-color="#c5715a"/></linearGradient><linearGradient id="SVGID_00000096038875821071884880000016084908201069566380_" gradientUnits="userSpaceOnUse" x1="258.999" x2="108.227" xlink:href="#lg2" y1="237.231" y2="166.657"/><linearGradient id="SVGID_00000150070393662274183130000006255499154736738439_" gradientUnits="userSpaceOnUse" x1="394.347" x2="507.713" xlink:href="#lg2" y1="256" y2="256"/><linearGradient id="SVGID_00000164505137701224496350000009232240040474058932_" gradientUnits="userSpaceOnUse" x1="256" x2="256" xlink:href="#lg2" y1="340.03" y2="197.224"/><linearGradient id="SVGID_00000154413508270404660840000013609366614840277695_" gradientUnits="userSpaceOnUse" x1="256" x2="256" xlink:href="#lg2" y1="464.069" y2="538.13"/><linearGradient id="SVGID_00000040542882402914968250000009995793907036945038_" gradientUnits="userSpaceOnUse" x1="308.332" x2="267.936" xlink:href="#lg2" y1="47.041" y2="-6.187"/><linearGradient id="SVGID_00000068664621839327462490000006203782402779623589_" gradientUnits="userSpaceOnUse" x1="208.43" x2="233.618" xlink:href="#lg2" y1="39.382" y2="4.689"/><linearGradient id="SVGID_00000085231077986033297700000003199045999560720540_" gradientUnits="userSpaceOnUse" x1="306.717" x2="274.876" xlink:href="#lg2" y1="59.171" y2="10.22"/><linearGradient id="SVGID_00000033363616257677803330000003632568600787604145_" gradientUnits="userSpaceOnUse" x1="222.55" x2="256.293" xlink:href="#lg2" y1="53.873" y2="24.883"/><linearGradient id="SVGID_00000063631638239584524580000017442992361647719042_" gradientUnits="userSpaceOnUse" x1="307.847" x2="271.728" xlink:href="#lg2" y1="87.087" y2="28.156"/><linearGradient id="SVGID_00000008862515711296352490000011416672173273887389_" gradientUnits="userSpaceOnUse" x1="208.419" x2="254.518" xlink:href="#lg2" y1="87.897" y2="39.897"/><linearGradient id="SVGID_00000173845771145120348970000014538445456764991109_" gradientUnits="userSpaceOnUse" x1="201.152" x2="287.765" xlink:href="#lg1" y1="121.466" y2="265.822"/><linearGradient id="SVGID_00000177453458466504131410000013368494525488820140_" gradientUnits="userSpaceOnUse" x1="377.507" x2="433.824" xlink:href="#lg2" y1="158.028" y2="143.058"/><linearGradient id="SVGID_00000126285988356870559290000011802918561220873617_" gradientUnits="userSpaceOnUse" x1="184.46" x2="82.135" xlink:href="#lg2" y1="208.937" y2="253.705"/><linearGradient id="SVGID_00000127046263328952384570000004465760235272295599_" gradientUnits="userSpaceOnUse" x1="334.378" x2="397.824" xlink:href="#lg2" y1="197.796" y2="217.757"/><linearGradient id="SVGID_00000167366784217452844980000013352984492828508309_" gradientUnits="userSpaceOnUse" x1="258.504" x2="262.782" xlink:href="#lg2" y1="152.227" y2="32.94"/><linearGradient id="SVGID_00000171683735501262521250000012235628821653863581_" gradientUnits="userSpaceOnUse" x1="282.541" x2="325.788" xlink:href="#lg2" y1="199.35" y2="244.498"/><linearGradient id="SVGID_00000147184115711916664310000016014658365612119736_" gradientUnits="userSpaceOnUse" x1="231.385" x2="147.266" xlink:href="#lg2" y1="181.862" y2="240.317"/><linearGradient id="SVGID_00000170275895786403882410000016026926993179437499_" gradientUnits="userSpaceOnUse" x1="237.885" x2="184.419" xlink:href="#lg2" y1="148.017" y2="113.799"/><linearGradient id="SVGID_00000034800872456462419410000015113297497615294614_" gradientUnits="userSpaceOnUse" x1="270.761" x2="326.365" xlink:href="#lg2" y1="150.945" y2="121.004"/><linearGradient id="SVGID_00000173868459995508673220000001299624447353243525_" gradientUnits="userSpaceOnUse" x1="256" x2="256" xlink:href="#lg2" y1="225.057" y2="299.473"/><linearGradient id="SVGID_00000130639404435273686370000012452313988794886550_" gradientUnits="userSpaceOnUse" x1="186.073" x2="390.68" xlink:href="#lg1" y1="312.066" y2="516.673"/><linearGradient id="SVGID_00000146460913866578532350000016716492461624235705_" gradientUnits="userSpaceOnUse" x1="256" x2="256" xlink:href="#lg2" y1="419.753" y2="357.749"/><linearGradient id="SVGID_00000088105516385502162200000014416094421147964302_" gradientUnits="userSpaceOnUse" x1="395.959" x2="408.344" xlink:href="#lg2" y1="414.641" y2="422.21"/><linearGradient id="SVGID_00000101089226910459419280000004809426761501034122_" gradientUnits="userSpaceOnUse" x1="289.935" x2="314.189" xlink:href="#lg2" y1="460.876" y2="489.775"/><linearGradient id="SVGID_00000030465640065795608920000000056925278375990945_" gradientTransform="matrix(-1 0 0 1 -494.29 0)" gradientUnits="userSpaceOnUse" x1="-716.354" x2="-692.1" xlink:href="#lg2" y1="460.876" y2="489.775"/><linearGradient id="SVGID_00000062872440041299130370000003877311847022448816_" gradientUnits="userSpaceOnUse" x1="346.668" x2="362.149" xlink:href="#lg2" y1="438.471" y2="457.393"/><linearGradient id="SVGID_00000052820541028052501520000011833271263533346691_" gradientUnits="userSpaceOnUse" x1="121.479" x2="102.558" xlink:href="#lg2" y1="414.84" y2="439.782"/><linearGradient id="SVGID_00000167387332928486604160000015056876937577856940_" gradientTransform="matrix(-1 0 0 1 -271.355 0)" gradientUnits="userSpaceOnUse" x1="-436.687" x2="-421.205" xlink:href="#lg2" y1="438.471" y2="457.393"/><linearGradient id="SVGID_00000050654294399237005050000008198592248250871209_" gradientUnits="userSpaceOnUse" x1="256.198" x2="271.608" y1="383.132" y2="409.21"><stop offset="0" stop-color="#fdb4ba"/><stop offset="1" stop-color="#fd8087"/></linearGradient><linearGradient id="lg3"><stop offset="0" stop-color="#fd4755" stop-opacity="0"/><stop offset=".2593" stop-color="#f74452" stop-opacity=".259"/><stop offset=".6276" stop-color="#e43b4c" stop-opacity=".628"/><stop offset="1" stop-color="#ca2e43"/></linearGradient><linearGradient id="SVGID_00000129925305943642640920000010009411812630045851_" gradientUnits="userSpaceOnUse" x1="256" x2="256" xlink:href="#lg3" y1="393.495" y2="368.05"/><linearGradient id="SVGID_00000085952693082936076210000008587191497815997107_" gradientUnits="userSpaceOnUse" x1="287.705" x2="259.256" xlink:href="#lg3" y1="403.597" y2="373.37"/><linearGradient id="SVGID_00000111182029746138833860000005447865564675484334_" gradientUnits="userSpaceOnUse" x1="234.11" x2="269.673" xlink:href="#lg1" y1="261.665" y2="450.089"/><linearGradient id="SVGID_00000165947281245813570060000004197714977149477516_" gradientUnits="userSpaceOnUse" x1="255.999" x2="255.999" xlink:href="#lg2" y1="390.75" y2="489.078"/><linearGradient id="SVGID_00000039108192340856568380000002494031941707572150_" gradientUnits="userSpaceOnUse" x1="119.912" x2="53.15" xlink:href="#lg2" y1="390.014" y2="395.736"/><linearGradient id="SVGID_00000052089590291808445380000001727773710199307162_" gradientUnits="userSpaceOnUse" x1="387.306" x2="442.623" xlink:href="#lg2" y1="396.58" y2="411.84"/><linearGradient id="SVGID_00000148628009653191611000000008209795205572552854_" gradientUnits="userSpaceOnUse" x1="350.323" x2="375.121" xlink:href="#lg2" y1="410.315" y2="414.13"/><linearGradient id="SVGID_00000080891325060807561510000006147318662545648794_" gradientUnits="userSpaceOnUse" x1="157.279" x2="133.753" xlink:href="#lg2" y1="413.711" y2="417.844"/><linearGradient id="SVGID_00000013903384579865169610000009347428438796000187_" gradientUnits="userSpaceOnUse" x1="131.119" x2="107.593" xlink:href="#lg2" y1="417.807" y2="425.755"/><linearGradient id="SVGID_00000089536461701722257540000005070098922351056040_" gradientUnits="userSpaceOnUse" x1="379.634" x2="398.073" xlink:href="#lg2" y1="418.452" y2="425.764"/><linearGradient id="SVGID_00000052090504483322682910000001470000344101290154_" gradientUnits="userSpaceOnUse" x1="259.802" x2="219.671" xlink:href="#lg2" y1="379.254" y2="301.5"/><linearGradient id="SVGID_00000134943623583685066960000010887815050390740885_" gradientUnits="userSpaceOnUse" x1="310.529" x2="271.559" xlink:href="#lg2" y1="329.33" y2="268.499"/><linearGradient id="SVGID_00000178169650627626570970000005992614303803163019_" gradientUnits="userSpaceOnUse" x1="247.116" x2="266.884" y1="272.902" y2="302.264"><stop offset="0" stop-color="#5a5a5a"/><stop offset="1" stop-color="#444"/></linearGradient><g><path d="m478.86 190.77v139.316c0 60.365-15.739 119.687-45.665 172.112-3.46 6.061-9.903 9.802-16.882 9.802h-320.626c-6.979 0-13.422-3.741-16.882-9.802-29.926-52.425-45.665-111.747-45.665-172.112v-139.316c0-82.46 50.08-153.22 121.49-183.52 6.52-2.77 13.25-4.73 20.03-5.9 29.25-5.08 59.74 4.33 81.34 25.93 17.76-17.76 41.54-27.28 65.69-27.28 5.22 0 10.45.44 15.65 1.35 6.78 1.17 13.51 3.13 20.03 5.9 71.41 30.3 121.49 101.06 121.49 183.52z" fill="url(#SVGID_1_)"/><path d="m416.313 512c6.979 0 13.422-3.741 16.882-9.802 29.925-52.425 45.665-111.747 45.665-172.112v-139.316c0-82.46-50.08-153.22-121.49-183.52-6.52-2.77-13.25-4.73-20.03-5.9-5.2-.91-10.43-1.35-15.65-1.35-24.15 0-47.93 9.52-65.69 27.28v484.72z" fill="url(#SVGID_00000096038875821071884880000016084908201069566380_)"/><path d="m416.313 512c6.979 0 13.422-3.741 16.882-9.802 29.925-52.425 45.665-111.747 45.665-172.112v-139.316c0-82.46-50.08-153.22-121.49-183.52-6.52-2.77-13.25-4.73-20.03-5.9-5.2-.91-10.43-1.35-15.65-1.35-24.15 0-47.93 9.52-65.69 27.28v484.72z" fill="url(#SVGID_00000150070393662274183130000006255499154736738439_)"/><path d="m128.989 202.446h254.022v99.604h-254.022z" fill="url(#SVGID_00000164505137701224496350000009232240040474058932_)"/><path d="m33.14 302.05v28.037c0 60.365 15.739 119.687 45.665 172.112 3.46 6.061 9.903 9.802 16.882 9.802h320.627c6.979 0 13.422-3.741 16.882-9.802 29.925-52.425 45.665-111.747 45.665-172.112v-28.037z" fill="url(#SVGID_00000154413508270404660840000013609366614840277695_)"/><g><g><ellipse cx="322.72" cy="66" fill="url(#SVGID_00000040542882402914968250000009995793907036945038_)" rx="66.094" ry="53.661"/><ellipse cx="189.104" cy="66" fill="url(#SVGID_00000068664621839327462490000006203782402779623589_)" rx="66.094" ry="53.661"/></g><g><ellipse cx="321.004" cy="81.134" fill="url(#SVGID_00000085231077986033297700000003199045999560720540_)" rx="64.397" ry="52.282"/><ellipse cx="190.82" cy="81.134" fill="url(#SVGID_00000033363616257677803330000003632568600787604145_)" rx="64.397" ry="52.282"/></g><g><ellipse cx="317.053" cy="102.107" fill="url(#SVGID_00000063631638239584524580000017442992361647719042_)" rx="60.488" ry="49.109"/><ellipse cx="194.771" cy="102.107" fill="url(#SVGID_00000008862515711296352490000011416672173273887389_)" rx="60.488" ry="49.109"/></g></g><g><path d="m87.909 208.358v41.194c0 13.943 10.932 25.73 24.87 26.112 14.461.396 26.308-11.208 26.308-25.579v-.532c0-2.521 2.065-4.531 4.586-4.505.173.002.346.003.519.003 15.618 0 29.74-6.37 39.935-16.644 1.53-1.542 3.893-1.804 5.726-.639 8.713 5.537 19.047 8.749 30.135 8.749 12.464 0 23.979-4.055 33.305-10.914 1.617-1.19 3.796-1.19 5.413 0 9.326 6.859 20.841 10.914 33.305 10.914 11.088 0 21.422-3.212 30.135-8.749 1.833-1.165 4.196-.902 5.726.639 10.195 10.274 24.317 16.644 39.935 16.644.173 0 .346-.001.519-.003 2.521-.026 4.586 1.983 4.586 4.505 0 13.498 10.241 25.09 23.705 26.054 14.985 1.073 27.474-10.766 27.474-25.522v-41.726c0-78.623-63.735-142.359-142.357-142.359h-51.468c-78.622 0-142.357 63.736-142.357 142.358z" fill="url(#SVGID_00000173845771145120348970000014538445456764991109_)"/><path d="m281.734 66h-24.961v158.78c.682.118 1.346.389 1.934.821 9.326 6.859 20.841 10.914 33.305 10.914 11.088 0 21.422-3.212 30.135-8.749 1.833-1.165 4.196-.902 5.726.639 10.195 10.274 24.317 16.644 39.935 16.644.173 0 .346-.001.519-.003 2.521-.026 4.586 1.983 4.586 4.505 0 13.498 10.241 25.09 23.705 26.054 14.984 1.073 27.474-10.766 27.474-25.522v-41.726c-.001-78.621-63.736-142.357-142.358-142.357z" fill="url(#SVGID_00000177453458466504131410000013368494525488820140_)"/><path d="m138.849 208.358v41.194c0 .999.044 1.986.12 2.96.075-.799.119-1.608.119-2.428v-.532c0-2.521 2.065-4.531 4.586-4.505.173.002.346.003.519.003 15.618 0 29.74-6.37 39.935-16.644 1.53-1.542 3.893-1.804 5.726-.639 8.713 5.537 19.047 8.749 30.135 8.749 12.464 0 23.979-4.055 33.305-10.914 1.617-1.19 3.796-1.19 5.413 0 9.326 6.859 20.841 10.914 33.305 10.914 11.088 0 21.422-3.212 30.135-8.749 1.833-1.165 4.196-.902 5.726.639 10.195 10.274 24.317 16.644 39.935 16.644.173 0 .346-.001.519-.003 2.521-.026 4.586 1.983 4.586 4.505 0 .965.058 1.919.16 2.862.048-.768.078-1.543.078-2.329v-41.726c0-78.623-44.42-142.359-99.216-142.359h-35.87c-54.796 0-99.216 63.736-99.216 142.358z" fill="url(#SVGID_00000126285988356870559290000011802918561220873617_)"/><path d="m138.849 208.358v41.194c0 .999.044 1.986.12 2.96.075-.799.119-1.608.119-2.428v-.532c0-2.521 2.065-4.531 4.586-4.505.173.002.346.003.519.003 15.618 0 29.74-6.37 39.935-16.644 1.53-1.542 3.893-1.804 5.726-.639 8.713 5.537 19.047 8.749 30.135 8.749 12.464 0 23.979-4.055 33.305-10.914 1.617-1.19 3.796-1.19 5.413 0 9.326 6.859 20.841 10.914 33.305 10.914 11.088 0 21.422-3.212 30.135-8.749 1.833-1.165 4.196-.902 5.726.639 10.195 10.274 24.317 16.644 39.935 16.644.173 0 .346-.001.519-.003 2.521-.026 4.586 1.983 4.586 4.505 0 .965.058 1.919.16 2.862.048-.768.078-1.543.078-2.329v-41.726c0-78.623-44.42-142.359-99.216-142.359h-35.87c-54.796 0-99.216 63.736-99.216 142.358z" fill="url(#SVGID_00000127046263328952384570000004465760235272295599_)"/><path d="m166.066 208.358v32.273c6.807-2.879 12.932-7.056 18.061-12.225 1.53-1.542 3.893-1.804 5.726-.639 8.713 5.537 19.047 8.749 30.135 8.749 12.464 0 23.979-4.055 33.305-10.914 1.617-1.19 3.796-1.19 5.413 0 9.326 6.859 20.841 10.914 33.305 10.914 11.088 0 21.422-3.212 30.135-8.749 1.833-1.165 4.196-.902 5.726.639 5.129 5.169 11.254 9.347 18.061 12.225v-32.273c0-78.622-34.1-142.358-76.166-142.358h-27.537c-42.063 0-76.164 63.736-76.164 142.358z" fill="url(#SVGID_00000167366784217452844980000013352984492828508309_)"/><path d="m184.962 208.358v19.397c1.475-.925 3.364-.959 4.891.011 8.713 5.537 19.047 8.749 30.135 8.749 12.464 0 23.979-4.055 33.305-10.914 1.617-1.19 3.796-1.19 5.413 0 9.326 6.859 20.841 10.914 33.305 10.914 11.088 0 21.422-3.212 30.135-8.749 1.527-.971 3.416-.937 4.891-.011v-19.398c.001-78.621-26.935-142.357-60.162-142.357h-21.751c-33.226 0-60.162 63.736-60.162 142.358z" fill="url(#SVGID_00000171683735501262521250000012235628821653863581_)"/><path d="m184.962 208.358v19.397c1.475-.925 3.364-.959 4.891.011 8.713 5.537 19.047 8.749 30.135 8.749 12.464 0 23.979-4.055 33.305-10.914 1.617-1.19 3.796-1.19 5.413 0 9.326 6.859 20.841 10.914 33.305 10.914 11.088 0 21.422-3.212 30.135-8.749 1.527-.971 3.416-.937 4.891-.011v-19.398c.001-78.621-26.935-142.357-60.162-142.357h-21.751c-33.226 0-60.162 63.736-60.162 142.358z" fill="url(#SVGID_00000147184115711916664310000016014658365612119736_)"/><path d="m222.921 208.358v28.074c11.335-.583 21.783-4.513 30.373-10.83 1.617-1.19 3.796-1.19 5.413 0 8.589 6.317 19.038 10.247 30.373 10.83v-28.074c-.001-78.622-12.544-142.358-28.016-142.358h-10.128c-15.472 0-28.015 63.736-28.015 142.358z" fill="url(#SVGID_00000170275895786403882410000016026926993179437499_)"/><path d="m223.921 208.358v28.074c11.335-.583 21.783-4.513 30.373-10.83 1.617-1.19 3.796-1.19 5.413 0 8.589 6.317 19.038 10.247 30.373 10.83v-28.074c-.001-78.622-12.544-142.358-28.016-142.358h-10.128c-15.472 0-28.015 63.736-28.015 142.358z" fill="url(#SVGID_00000034800872456462419410000015113297497615294614_)"/><path d="m87.909 208.358v41.194c0 13.943 10.932 25.73 24.87 26.112 14.461.396 26.308-11.208 26.308-25.579v-.532c0-2.521 2.065-4.531 4.586-4.505.173.002.346.003.519.003 15.618 0 29.74-6.37 39.935-16.644 1.53-1.542 3.893-1.804 5.726-.639 8.713 5.537 19.047 8.749 30.135 8.749 12.464 0 23.979-4.055 33.305-10.914 1.617-1.19 3.796-1.19 5.413 0 9.326 6.859 20.841 10.914 33.305 10.914 11.088 0 21.422-3.212 30.135-8.749 1.833-1.165 4.196-.902 5.726.639 10.195 10.274 24.317 16.644 39.935 16.644.173 0 .346-.001.519-.003 2.521-.026 4.586 1.983 4.586 4.505 0 13.498 10.241 25.09 23.705 26.054 14.984 1.073 27.474-10.766 27.474-25.522v-41.726c0-20.27-4.246-39.545-11.881-56.998h-312.42c-7.636 17.452-11.881 36.727-11.881 56.997z" fill="url(#SVGID_00000173868459995508673220000001299624447353243525_)"/></g><g><g><path d="m435.98 355.025c-1.49 7.07-3.76 13.92-6.74 20.45-3.3 7.25-5.58 14.93-6.34 22.85-1.07 11.14-4.11 22.04-8.89 32.27-1.68 3.59-7.1 2.25-6.97-1.72.14-3.9.05-7.83-.25-11.78-6.43 10.35-14.82 19.39-24.64 26.74-3.18 2.38-7.34-1.35-5.35-4.78 2.7-4.65 5.06-9.55 7.06-14.65-8.21 5.08-16.37 10.24-24.35 15.62-.05.04-.1.07-.15.11-8.72 5.87-16.09 13.47-21.88 22.24-6.22 9.44-14.11 17.72-23.24 24.55-3.18 2.38-7.35-1.32-5.36-4.76 2.77-4.76 5.18-9.78 7.21-15.03-17.51 10.97-33.78 22.53-48.92 39.81-5.91 6.74-16.43 6.74-22.34 0-15.14-17.28-31.41-28.84-48.92-39.81 2.03 5.25 4.44 10.27 7.21 15.03 1.99 3.44-2.18 7.14-5.36 4.76-9.13-6.83-17.02-15.11-23.24-24.55-5.79-8.77-13.16-16.37-21.88-22.24-.05-.04-.1-.07-.15-.11-7.98-5.39-16.14-10.54-24.35-15.62 2 5.1 4.36 10 7.06 14.65 1.99 3.43-2.17 7.16-5.35 4.78-9.82-7.35-18.21-16.39-24.64-26.74-.3 3.95-.39 7.88-.25 11.78.13 3.97-5.29 5.32-6.97 1.72-4.78-10.23-7.82-21.13-8.89-32.27-.76-7.92-3.04-15.6-6.34-22.85-2.98-6.53-5.25-13.38-6.74-20.45z" fill="url(#SVGID_00000130639404435273686370000012452313988794886550_)"/><path d="m435.98 355.025c-1.49 7.07-3.76 13.92-6.74 20.45-3.3 7.25-5.58 14.93-6.34 22.85-1.07 11.14-4.11 22.04-8.89 32.27-1.68 3.59-7.1 2.25-6.97-1.72.14-3.9.05-7.83-.25-11.78-6.43 10.35-14.82 19.39-24.64 26.74-3.18 2.38-7.34-1.35-5.35-4.78 2.7-4.65 5.06-9.55 7.06-14.65-8.21 5.08-16.37 10.24-24.35 15.62-.05.04-.1.07-.15.11-8.72 5.87-16.09 13.47-21.88 22.24-6.22 9.44-14.11 17.72-23.24 24.55-3.18 2.38-7.35-1.32-5.36-4.76 2.77-4.76 5.18-9.78 7.21-15.03-17.51 10.97-33.78 22.53-48.92 39.81-5.91 6.74-16.43 6.74-22.34 0-15.14-17.28-31.41-28.84-48.92-39.81 2.03 5.25 4.44 10.27 7.21 15.03 1.99 3.44-2.18 7.14-5.36 4.76-9.13-6.83-17.02-15.11-23.24-24.55-5.79-8.77-13.16-16.37-21.88-22.24-.05-.04-.1-.07-.15-.11-7.98-5.39-16.14-10.54-24.35-15.62 2 5.1 4.36 10 7.06 14.65 1.99 3.43-2.17 7.16-5.35 4.78-9.82-7.35-18.21-16.39-24.64-26.74-.3 3.95-.39 7.88-.25 11.78.13 3.97-5.29 5.32-6.97 1.72-4.78-10.23-7.82-21.13-8.89-32.27-.76-7.92-3.04-15.6-6.34-22.85-2.98-6.53-5.25-13.38-6.74-20.45z" fill="url(#SVGID_00000146460913866578532350000016716492461624235705_)"/><path d="m406.795 417.095c-6.428 10.345-14.825 19.386-24.649 26.741-3.178 2.382-7.355-1.325-5.357-4.756 8.426-14.521 13.645-31.461 14.362-49.797l.543-13.971c.036-.97.065-1.933.087-2.896l1.839.463 2.606 5.364c6.146 12.654 9.57 25.836 10.569 38.852z" fill="url(#SVGID_00000088105516385502162200000014416094421147964302_)"/><g><path d="m230.374 492.331c4.93 4.421 9.748 9.241 14.458 14.615 5.905 6.737 16.43 6.737 22.335 0 15.147-17.282 31.41-28.839 48.917-39.807 4.156-10.75 6.677-22.438 7.158-34.762l.159-34.045h-93.028v93.999z" fill="url(#SVGID_00000101089226910459419280000004809426761501034122_)"/></g><g><path d="m281.625 492.331c-4.93 4.421-9.748 9.241-14.458 14.615-5.905 6.737-16.43 6.737-22.335 0-15.147-17.282-31.41-28.839-48.917-39.807-4.156-10.75-6.677-22.438-7.158-34.762l-.159-34.045h93.028v93.999z" fill="url(#SVGID_00000030465640065795608920000000056925278375990945_)"/></g><path d="m323.402 398.331-.159 34.045c-.485 12.321-3.004 24.012-7.159 34.762-2.027 5.248-4.438 10.272-7.203 15.028-1.991 3.439 2.179 7.145 5.357 4.763 9.128-6.834 17.019-15.115 23.244-24.555 5.791-8.766 13.16-16.367 21.876-22.245.051-.029.101-.065.152-.101 7.977-5.386 16.135-10.54 24.344-15.628 3.201-8.185 5.452-16.919 6.566-26.068h-67.018z" fill="url(#SVGID_00000062872440041299130370000003877311847022448816_)"/><g><path d="m105.204 417.095c6.428 10.345 14.825 19.386 24.649 26.741 3.178 2.382 7.355-1.325 5.357-4.756-8.426-14.521-13.645-31.461-14.362-49.797l-.543-13.971c-.036-.97-.065-1.933-.087-2.896l-1.839.463-2.606 5.364c-6.146 12.654-9.57 25.836-10.569 38.852z" fill="url(#SVGID_00000052820541028052501520000011833271263533346691_)"/><path d="m188.597 398.331.159 34.045c.485 12.321 3.004 24.012 7.159 34.762 2.027 5.248 4.438 10.272 7.203 15.028 1.991 3.439-2.179 7.145-5.357 4.763-9.128-6.834-17.019-15.115-23.244-24.555-5.791-8.766-13.16-16.367-21.876-22.245-.051-.029-.101-.065-.152-.101-7.977-5.386-16.135-10.54-24.344-15.628-3.201-8.185-5.452-16.919-6.567-26.068h67.019z" fill="url(#SVGID_00000167387332928486604160000015056876937577856940_)"/></g></g><g><path d="m267.144 437.671h-22.287c-17.694 0-31.44-15.413-29.425-32.991l7.905-68.95h65.326l7.905 68.95c2.016 17.579-11.731 32.991-29.424 32.991z" fill="url(#SVGID_00000050654294399237005050000008198592248250871209_)"/><path d="m267.144 437.671h-22.287c-17.694 0-31.44-15.413-29.425-32.991l7.905-68.95h65.326l7.905 68.95c2.016 17.579-11.731 32.991-29.424 32.991z" fill="url(#SVGID_00000129925305943642640920000010009411812630045851_)"/><path d="m288.663 335.73h-33.723v101.942h12.203c17.694 0 31.44-15.413 29.425-32.991z" fill="url(#SVGID_00000085952693082936076210000008587191497815997107_)"/></g><g><path d="m429.59 440.062c-6.02 11.27-13.11 21.88-21.12 31.71-2.68 3.29-7.6 3.57-10.62.59l-.05-.06c-5.81-5.82-9.41-13.86-9.41-22.73 0-1.58-.07-3.15-.18-4.71-3.63 7.69-7.9 15.1-12.74 22.17-3.58 5.21-11.77 1.76-10.51-4.43 1.95-9.7 3.07-19.66 3.29-29.79-1.06 3.18-2.2 6.33-3.46 9.45-2.35 5.87-11.1 4.28-11.22-2.04-.21-10.26-1.35-20.61-3.49-30.91-2.97-14.34-13.61-25.88-27.58-30.25-.01-.01-.01-.01-.01-.01-43.37-13.5-89.81-13.5-133.17 0h-.01c-13.97 4.38-24.61 15.92-27.58 30.26-2.14 10.3-3.29 20.65-3.49 30.91-.12 6.32-8.87 7.91-11.23 2.04-1.25-3.12-2.4-6.27-3.45-9.45.22 10.13 1.34 20.09 3.29 29.79 1.26 6.19-6.94 9.64-10.51 4.43-4.85-7.07-9.12-14.49-12.75-22.18-.11 1.56-.18 3.13-.18 4.72 0 8.87-3.59 16.91-9.41 22.73l-.05.06c-3.01 2.98-7.93 2.7-10.61-.59-7.46-9.13-14.1-18.95-19.84-29.34-28.91-52.38-20.01-117.71 23.29-158.99.785-.748 1.579-1.489 2.38-2.22 36.784-33.607 90.601-40.852 135.549-19.355l11.281 5.395 11.114-5.316c45.643-21.832 100.258-13.891 137.119 20.768.923.868 1.836 1.748 2.738 2.638 41.159 40.64 49.869 103.69 22.619 154.71z" fill="url(#SVGID_00000111182029746138833860000005447865564675484334_)"/><path d="m83.501 442.43c5.735 10.392 12.383 20.209 19.837 29.344 2.681 3.286 7.6 3.57 10.61.583l.056-.055c5.812-5.822 9.411-13.858 9.411-22.733 0-1.585.066-3.157.175-4.719 3.636 7.694 7.903 15.112 12.751 22.18 3.574 5.216 11.767 1.763 10.509-4.432-1.953-9.692-3.069-19.66-3.288-29.789 1.053 3.18 2.2 6.334 3.453 9.453 2.354 5.868 11.102 4.279 11.221-2.041.208-10.256 1.357-20.605 3.494-30.91 2.973-14.337 13.608-25.881 27.582-30.254.004-.001.006-.002.006-.002 43.363-13.507 89.807-13.507 133.169 0 0 0 .004.001.012.004 13.974 4.373 24.608 15.916 27.582 30.254 2.137 10.304 3.285 20.652 3.493 30.908.119 6.321 8.867 7.909 11.221 2.041 1.253-3.119 2.4-6.273 3.453-9.453-.219 10.13-1.335 20.097-3.288 29.789-1.258 6.195 6.935 9.648 10.509 4.432 4.845-7.065 9.111-14.479 12.746-22.169.108 1.559.174 3.128.174 4.709 0 8.876 3.598 16.911 9.411 22.733l.056.055c3.012 2.986 7.931 2.7 10.612-.586 8.016-9.824 15.101-20.439 21.12-31.708 18.969-35.515 20.51-76.858 5.816-112.415h-358.853c-14.942 36.32-12.998 78.636 6.95 114.781z" fill="url(#SVGID_00000165947281245813570060000004197714977149477516_)"/><g><path d="m309.741 375.498c-14.017-42.504-57.002-73.448-107.864-73.448-62.238 0-112.691 46.331-112.691 103.482 0 25 9.654 47.93 25.726 65.817 5.275-5.731 8.503-13.377 8.503-21.779 0-1.585.066-3.157.175-4.719 3.636 7.694 7.903 15.112 12.751 22.18 3.574 5.216 11.767 1.763 10.509-4.432-1.953-9.692-3.069-19.66-3.288-29.789 1.053 3.18 2.2 6.334 3.453 9.453 2.354 5.868 11.102 4.279 11.221-2.041.208-10.256 1.357-20.605 3.494-30.91 2.973-14.337 13.608-25.881 27.582-30.254.004-.001.006-.002.006-.002 39.14-12.194 80.792-13.377 120.423-3.558z" fill="url(#SVGID_00000039108192340856568380000002494031941707572150_)"/></g><path d="m422.622 405.532c0-57.152-50.454-103.482-112.691-103.482-50.861 0-93.846 30.944-107.864 73.447 39.629-9.817 81.278-8.634 120.418 3.558 0 0 .004.001.012.004 13.974 4.373 24.608 15.916 27.582 30.254 2.137 10.304 3.285 20.652 3.493 30.908.119 6.321 8.867 7.909 11.221 2.041 1.253-3.119 2.4-6.273 3.453-9.453-.219 10.13-1.335 20.097-3.288 29.789-1.258 6.195 6.935 9.648 10.509 4.432 4.845-7.065 9.111-14.479 12.746-22.169.108 1.559.174 3.128.174 4.709 0 8.404 3.229 16.051 8.506 21.782 16.074-17.888 25.729-40.818 25.729-65.82z" fill="url(#SVGID_00000052089590291808445380000001727773710199307162_)"/><path d="m366.738 437.148c.521-1.44 1.027-2.884 1.508-4.335.051-.154.102-.308.152-.462 8.92-27.197.304-57.126-21.473-75.699-.245-.209-.49-.418-.735-.626-15.068-12.806-34.222-19.792-53.997-19.792h-72.579c-19.775 0-38.929 6.986-53.997 19.792-.245.208-.49.417-.735.626-21.777 18.573-30.393 48.502-21.473 75.698.05.153.101.306.151.459.482 1.454.989 2.901 1.511 4.344.087.238.172.477.259.715.54 1.471 1.098 2.938 1.683 4.395 2.354 5.868 11.102 4.279 11.221-2.041.209-10.269 1.36-20.632 3.502-30.949 2.975-14.328 13.604-25.857 27.573-30.214l.006-.002c43.285-13.502 89.653-13.525 132.952-.068l.23.071c13.963 4.34 24.588 15.855 27.564 30.171 2.148 10.331 3.302 20.708 3.511 30.991.119 6.321 8.867 7.909 11.221 2.041.585-1.456 1.142-2.922 1.682-4.392.09-.242.176-.482.263-.723z" fill="url(#SVGID_00000148628009653191611000000008209795205572552854_)"/><path d="m366.738 437.148c.521-1.44 1.027-2.884 1.508-4.335.051-.154.102-.308.152-.462 8.92-27.197.304-57.126-21.473-75.699-.245-.209-.49-.418-.735-.626-15.068-12.806-34.222-19.792-53.997-19.792h-72.579c-19.775 0-38.929 6.986-53.997 19.792-.245.208-.49.417-.735.626-21.777 18.573-30.393 48.502-21.473 75.698.05.153.101.306.151.459.482 1.454.989 2.901 1.511 4.344.087.238.172.477.259.715.54 1.471 1.098 2.938 1.683 4.395 2.354 5.868 11.102 4.279 11.221-2.041.209-10.269 1.36-20.632 3.502-30.949 2.975-14.328 13.604-25.857 27.573-30.214l.006-.002c43.285-13.502 89.653-13.525 132.952-.068l.23.071c13.963 4.34 24.588 15.855 27.564 30.171 2.148 10.331 3.302 20.708 3.511 30.991.119 6.321 8.867 7.909 11.221 2.041.585-1.456 1.142-2.922 1.682-4.392.09-.242.176-.482.263-.723z" fill="url(#SVGID_00000080891325060807561510000006147318662545648794_)"/><path d="m123.83 392.726c-8.23 13.567-9.472 30.264-3.421 44.933 4.24 10.28 9.589 20.124 15.931 29.37 3.574 5.216 11.767 1.763 10.509-4.432-5.28-26.203-4.488-54.413 3.808-82.426l6.325-21.343c.441-1.481.89-2.948 1.35-4.41l-3.009-.242-6.672 6.755c-9.733 9.856-17.999 20.549-24.821 31.795z" fill="url(#SVGID_00000013903384579865169610000009347428438796000187_)"/><path d="m387.978 392.726c8.23 13.567 9.472 30.264 3.421 44.933-4.24 10.28-9.589 20.124-15.931 29.37-3.574 5.216-11.767 1.763-10.509-4.432 5.28-26.203 4.488-54.413-3.808-82.426l-6.325-21.343c-.441-1.481-.89-2.948-1.349-4.41l3.009-.242 6.672 6.755c9.732 9.856 17.998 20.549 24.82 31.795z" fill="url(#SVGID_00000089536461701722257540000005070098922351056040_)"/></g><path d="m256 288.978s-6.775 51.867-42.253 83.954c27.931-5.353 56.632-5.335 84.562.05-35.527-32.084-42.309-84.004-42.309-84.004z" fill="url(#SVGID_00000052090504483322682910000001470000344101290154_)"/><path d="m439.684 415.581-147.535-147.535-70.316 38.19 64.82 64.82c12.089 1.675 24.076 4.335 35.836 7.995 0 0 0 0 .01.01 13.97 4.37 24.61 15.91 27.58 30.25 2.14 10.3 3.28 20.65 3.49 30.91.12 6.32 8.87 7.91 11.22 2.04 1.26-3.12 2.4-6.27 3.46-9.45-.22 10.13-1.34 20.09-3.29 29.79-1.26 6.19 6.93 9.64 10.51 4.43 4.84-7.07 9.11-14.48 12.74-22.17.11 1.56.18 3.13.18 4.71 0 8.87 3.6 16.91 9.41 22.73l.05.06c3.02 2.98 7.94 2.7 10.62-.59 8.01-9.83 15.1-20.44 21.12-31.71 4.228-7.913 7.586-16.116 10.095-24.48z" fill="url(#SVGID_00000134943623583685066960000010887815050390740885_)"/><path d="m278.071 313.835 6.386-3.465c8.822-4.787 14.316-14.019 14.316-24.056v-.427c0-15.115-12.254-27.369-27.369-27.369h-30.809c-15.115 0-27.369 12.254-27.369 27.369v.427c0 10.037 5.494 19.269 14.316 24.056l6.386 3.465c13.767 7.469 30.377 7.469 44.143 0z" fill="url(#SVGID_00000178169650627626570970000005992614303803163019_)"/></g></g></svg>