<svg id="Capa_1" enable-background="new 0 0 512 512" height="512" viewBox="0 0 512 512" width="512" xmlns="http://www.w3.org/2000/svg" xmlns:xlink="http://www.w3.org/1999/xlink"><linearGradient id="lg1"><stop offset="0" stop-color="#ffbf51"/><stop offset="1" stop-color="#c5715a"/></linearGradient><linearGradient id="SVGID_1_" gradientUnits="userSpaceOnUse" x1="203.767" x2="339.239" xlink:href="#lg1" y1="175.094" y2="405.898"/><linearGradient id="lg2"><stop offset="0" stop-color="#883f2e" stop-opacity="0"/><stop offset=".2979" stop-color="#8b402e" stop-opacity=".298"/><stop offset=".536" stop-color="#954430" stop-opacity=".536"/><stop offset=".7533" stop-color="#a64b34" stop-opacity=".753"/><stop offset=".9572" stop-color="#be5539" stop-opacity=".957"/><stop offset="1" stop-color="#c4573a"/></linearGradient><linearGradient id="SVGID_00000160877990746248719450000007682049848593166983_" gradientUnits="userSpaceOnUse" x1="256" x2="256" xlink:href="#lg2" y1="274.287" y2="379.167"/><linearGradient id="SVGID_00000049189187953120424660000007546762051368355723_" gradientUnits="userSpaceOnUse" x1="278.057" x2="440.592" xlink:href="#lg2" y1="239.775" y2="326.389"/><linearGradient id="lg3"><stop offset="0" stop-color="#5a5a5a"/><stop offset="1" stop-color="#444"/></linearGradient><linearGradient id="SVGID_00000067216066414551085590000001889949331062819201_" gradientUnits="userSpaceOnUse" x1="89.326" x2="184.132" xlink:href="#lg3" y1="190.583" y2="285.389"/><linearGradient id="SVGID_00000075851276200973699630000011454054864620871828_" gradientUnits="userSpaceOnUse" x1="278.153" x2="377.708" xlink:href="#lg3" y1="177.955" y2="277.51"/><linearGradient id="SVGID_00000069371953804526312490000010433951061987040659_" gradientUnits="userSpaceOnUse" x1="249.078" x2="272.366" xlink:href="#lg3" y1="374.246" y2="430.325"/><linearGradient id="lg4"><stop offset="0" stop-color="#433f43" stop-opacity="0"/><stop offset=".2995" stop-color="#3e3b3e" stop-opacity=".3"/><stop offset=".6425" stop-color="#302e30" stop-opacity=".643"/><stop offset="1" stop-color="#1a1a1a"/></linearGradient><linearGradient id="SVGID_00000117676060522538829200000010774033243794798731_" gradientUnits="userSpaceOnUse" x1="252.687" x2="261.241" xlink:href="#lg4" y1="385.734" y2="433.734"/><linearGradient id="SVGID_00000127733584059998506230000004459090097753888159_" gradientUnits="userSpaceOnUse" x1="278.341" x2="249.351" xlink:href="#lg4" y1="402.679" y2="378.917"/><linearGradient id="SVGID_00000139974230651068636550000007875227032983427714_" gradientUnits="userSpaceOnUse" x1="225.016" x2="277.412" xlink:href="#lg3" y1="263.266" y2="424.731"/><linearGradient id="SVGID_00000127729256236602500190000010506201512439766177_" gradientUnits="userSpaceOnUse" x1="307.564" x2="267.168" xlink:href="#lg4" y1="300.59" y2="254.491"/><linearGradient id="SVGID_00000136397763120885355960000014742347792065329803_" gradientUnits="userSpaceOnUse" x1="256" x2="256" xlink:href="#lg4" y1="357.065" y2="417.303"/><linearGradient id="SVGID_00000059278125087745609940000005926241717921359511_" gradientUnits="userSpaceOnUse" x1="284.904" x2="235.003" xlink:href="#lg4" y1="319.551" y2="303.868"/><linearGradient id="SVGID_00000110446520380156050420000016439753365952110222_" gradientUnits="userSpaceOnUse" x1="334.574" x2="393.029" xlink:href="#lg4" y1="320.476" y2="306.694"/><linearGradient id="SVGID_00000165915767263385899500000016630493892990589086_" gradientUnits="userSpaceOnUse" x1="255.995" x2="255.995" xlink:href="#lg4" y1="466.134" y2="287.201"/><linearGradient id="SVGID_00000124158304193848038210000017227507021011563187_" gradientUnits="userSpaceOnUse" x1="248.221" x2="266.627" xlink:href="#lg3" y1="249.864" y2="284.333"/><linearGradient id="SVGID_00000037686051893048414450000002415640724885038229_" gradientUnits="userSpaceOnUse" x1="239.438" x2="269.735" xlink:href="#lg4" y1="228.576" y2="294.161"/><linearGradient id="SVGID_00000081614748021909578840000003809317872346785152_" gradientTransform="matrix(.966 .259 -.259 .966 87.927 -284.288)" gradientUnits="userSpaceOnUse" x1="86.357" x2="223.182" xlink:href="#lg1" y1="446.912" y2="577.313"/><linearGradient id="SVGID_00000115496214474321585120000012903112429179153810_" gradientTransform="matrix(.966 .259 -.259 .966 87.927 -284.288)" gradientUnits="userSpaceOnUse" x1="146.153" x2="194.973" xlink:href="#lg2" y1="492.45" y2="503.371"/><linearGradient id="SVGID_00000080193571925984373080000010359029096688530821_" gradientTransform="matrix(.966 .259 -.259 .966 87.927 -284.288)" gradientUnits="userSpaceOnUse" x1="113.723" x2="113.723" xlink:href="#lg2" y1="571.534" y2="617.391"/><linearGradient id="SVGID_00000144295988148185139190000010254853835163746688_" gradientTransform="matrix(.966 .259 -.259 .966 87.927 -284.288)" gradientUnits="userSpaceOnUse" x1="68.014" x2="50.028" xlink:href="#lg2" y1="518.142" y2="513.003"/><linearGradient id="SVGID_00000069360495002736404550000010953008128125061049_" gradientTransform="matrix(.966 .259 -.259 .966 87.927 -284.288)" gradientUnits="userSpaceOnUse" x1="82.468" x2="65.124" xlink:href="#lg2" y1="554.399" y2="556.326"/><linearGradient id="SVGID_00000161628176951524086400000013707267978923503777_" gradientUnits="userSpaceOnUse" x1="340.38" x2="460.618" xlink:href="#lg1" y1="147.623" y2="257.405"/><linearGradient id="SVGID_00000008108694039376758010000010080273005885411726_" gradientTransform="matrix(.966 -.259 .259 .966 .303 385.888)" gradientUnits="userSpaceOnUse" x1="484.059" x2="529.667" xlink:href="#lg2" y1="-33.809" y2="-21.604"/><linearGradient id="SVGID_00000094615549168774602720000007303974769594314892_" gradientTransform="matrix(-.966 .259 .259 .966 1155.971 76.228)" gradientUnits="userSpaceOnUse" x1="727.375" x2="727.375" xlink:href="#lg2" y1="33.873" y2="79.729"/><linearGradient id="SVGID_00000132065023135598333930000005562942187789148860_" gradientTransform="matrix(-.966 .259 .259 .966 1155.971 76.228)" gradientUnits="userSpaceOnUse" x1="681.666" x2="663.679" xlink:href="#lg2" y1="-19.519" y2="-24.658"/><linearGradient id="SVGID_00000106838408505181898650000016406275455907353481_" gradientTransform="matrix(-.966 .259 .259 .966 1155.971 76.228)" gradientUnits="userSpaceOnUse" x1="696.119" x2="678.775" xlink:href="#lg2" y1="16.738" y2="18.665"/><g><g><path d="m444.055 239.688c-21.069-90.93-98.766-154.95-188.055-154.95-89.288 0-166.986 64.019-188.055 154.949-17.47 75.398 37.029 148.041 111.066 148.041h153.978c74.037 0 128.537-72.642 111.066-148.04z" fill="url(#SVGID_1_)"/><path d="m67.945 239.687c-17.47 75.399 37.029 148.041 111.066 148.041h153.978c74.037 0 128.537-72.642 111.066-148.041-4.293-18.528-10.938-35.937-19.552-51.916h-337.006c-8.614 15.979-15.259 33.389-19.552 51.916z" fill="url(#SVGID_00000160877990746248719450000007682049848593166983_)"/><path d="m444.055 239.687c-21.069-90.929-98.766-154.949-188.055-154.949-5.236 0-10.43.229-15.578.661v302.329h92.567c74.037 0 128.537-72.642 111.066-148.041z" fill="url(#SVGID_00000049189187953120424660000007546762051368355723_)"/><g><path d="m155.272 287.886c-13.784 0-24.957-11.174-24.957-24.957v-12.799c0-13.784 11.174-24.957 24.957-24.957 13.783 0 24.957 11.174 24.957 24.957v12.799c.001 13.783-11.173 24.957-24.957 24.957z" fill="url(#SVGID_00000067216066414551085590000001889949331062819201_)"/><path d="m356.728 287.886c-13.784 0-24.957-11.174-24.957-24.957v-12.799c0-13.784 11.174-24.957 24.957-24.957 13.784 0 24.957 11.174 24.957 24.957v12.799c0 13.783-11.174 24.957-24.957 24.957z" fill="url(#SVGID_00000075851276200973699630000011454054864620871828_)"/></g><g><path d="m271.217 427.262h-30.434c-24.162 0-42.934-11.954-40.182-25.589l10.795-53.479h89.207l10.795 53.479c2.753 13.635-16.019 25.589-40.181 25.589z" fill="url(#SVGID_00000069371953804526312490000010433951061987040659_)"/><path d="m271.217 427.262h-30.434c-24.162 0-42.934-11.954-40.182-25.589l10.795-53.479h89.207l10.795 53.479c2.753 13.635-16.019 25.589-40.181 25.589z" fill="url(#SVGID_00000117676060522538829200000010774033243794798731_)"/><path d="m271.217 427.262h-30.434c-24.162 0-42.934-11.954-40.182-25.589l10.795-53.479h89.207l10.795 53.479c2.753 13.635-16.019 25.589-40.181 25.589z" fill="url(#SVGID_00000127733584059998506230000004459090097753888159_)"/><path d="m382.891 309.242c-32.792-63.445-126.891-63.314-126.891-63.314s-94.099-.131-126.891 63.315-11.406 81.267 25.663 98.376c33.491 15.457 64.073 12.876 92.271-28.247 4.302-6.274 13.612-6.274 17.914 0 28.198 41.123 58.78 43.704 92.271 28.247 37.069-17.109 58.455-34.931 25.663-98.377z" fill="url(#SVGID_00000139974230651068636550000007875227032983427714_)"/><path d="m382.891 309.242c-26.664-51.589-93.86-61.143-118.045-62.912l-40.578 40.578 124.305 124.305c2.864-1.057 5.747-2.252 8.655-3.594 37.069-17.109 58.455-34.931 25.663-98.377z" fill="url(#SVGID_00000127729256236602500190000010506201512439766177_)"/><path d="m154.772 407.618c33.491 15.457 64.073 12.876 92.271-28.247 4.302-6.274 13.612-6.274 17.914 0 28.198 41.123 58.78 43.704 92.271 28.247 36.375-16.789 57.643-34.269 27.443-94.865h-257.342c-30.199 60.597-8.932 78.077 27.443 94.865z" fill="url(#SVGID_00000136397763120885355960000014742347792065329803_)"/><path d="m357.23 407.618c-.1.04-.19.09-.29.13-.74.34-1.48.67-2.21.99.51-.22 1.02-.45 1.53-.69-10.73 4.53-23.23 1.66-31.02-7.1-2.77-3.11-5.35-6.42-7.74-9.94-10.3-15.18-18.93-31.2-26.15-47.11-6.93-15.26-21.15-22.89-35.36-22.89v-75.08h.01s94.1-.13 126.89 63.31c32.79 63.45 11.41 81.27-25.66 98.38z" fill="url(#SVGID_00000059278125087745609940000005926241717921359511_)"/><path d="m357.23 407.618c-.1.04-.19.09-.29.13-.74.34-1.48.67-2.21.99.51-.22 1.02-.45 1.53-.69-10.73 4.53-23.23 1.66-31.02-7.1-2.77-3.11-5.35-6.42-7.74-9.94-10.3-15.18-18.93-31.2-26.15-47.11-6.93-15.26-21.15-22.89-35.36-22.89v-75.08h.01s94.1-.13 126.89 63.31c32.79 63.45 11.41 81.27-25.66 98.38z" fill="url(#SVGID_00000110446520380156050420000016439753365952110222_)"/><path d="m325.24 400.951c-2.766-3.11-5.354-6.427-7.74-9.943-10.3-15.18-18.93-31.2-26.15-47.11-13.85-30.52-56.86-30.52-70.7 0-7.22 15.91-15.86 31.93-26.16 47.11-2.384 3.514-4.971 6.829-7.734 9.938-7.949 8.941-20.827 11.754-31.705 6.796 33.382 15.315 63.873 12.638 91.993-28.37 4.302-6.274 13.612-6.274 17.914 0 28.117 41.005 58.604 43.684 91.983 28.375-10.879 4.955-23.752 2.142-31.701-6.796z" fill="url(#SVGID_00000165915767263385899500000016630493892990589086_)"/><path d="m278.213 292.35 6.427-3.487c8.879-4.818 14.409-14.109 14.409-24.211v-.429c0-15.213-12.332-27.545-27.545-27.545h-31.007c-15.213 0-27.545 12.332-27.545 27.545v.429c0 10.102 5.53 19.393 14.409 24.211l6.427 3.487c13.854 7.517 30.57 7.517 44.425 0z" fill="url(#SVGID_00000124158304193848038210000017227507021011563187_)"/><path d="m278.213 292.35 6.427-3.487c8.879-4.818 14.409-14.109 14.409-24.211v-.429c0-15.213-12.332-27.545-27.545-27.545h-31.007c-15.213 0-27.545 12.332-27.545 27.545v.429c0 10.102 5.53 19.393 14.409 24.211l6.427 3.487c13.854 7.517 30.57 7.517 44.425 0z" fill="url(#SVGID_00000037686051893048414450000002415640724885038229_)"/></g></g><g><g><path d="m110.749 271.135c-.349-27.133 4.467-54.043 14.146-79.306 3.886-10.144 7.345-20.447 10.117-30.95l10.521-39.854-8.453 2.897c-4.902 1.68-10.31 1.285-14.846-1.222-.106-.058-.212-.117-.318-.175-15.422-8.464-34.27-7.757-49.182 1.576-5.015 3.139-9.818 6.641-14.37 10.483-3.783 3.184-.456 9.291 4.264 7.831 11.896-3.66 24.518-5.687 37.519-5.836l-46.246 15.85c-30.201 10.361-47.22 41.936-39.862 72.527-5.361 5.951-9.257 13.238-11.149 21.305-1.392 5.933-2.353 11.982-2.87 18.097-.423 4.926 6.247 6.892 8.553 2.523 3.084-5.825 6.635-11.471 10.64-16.876-8.383 12.666-10.394 28.693-5.126 43.186 2.082 5.728 4.587 11.317 7.501 16.718 2.342 4.355 9 2.35 8.539-2.569-.88-9.535-.722-19.293.538-29.095l13.023 41.309c2.874 9.119 9.686 16.458 18.568 20.004 1.205.481 2.422.882 3.641 1.209 16.729 4.483 34.359-5.365 38.963-22.547 4.111-15.351 6.094-31.194 5.889-47.085z" fill="url(#SVGID_00000081614748021909578840000003809317872346785152_)"/><path d="m110.749 271.135c-.349-27.133 4.467-54.043 14.146-79.306 3.886-10.144 7.345-20.447 10.117-30.95l10.521-39.854-8.453 2.897c-4.902 1.68-10.31 1.285-14.846-1.222-.106-.058-.212-.117-.318-.175-15.422-8.464-34.27-7.757-49.182 1.576-3.287 2.058-6.473 4.287-9.568 6.65l-3.138 11.711c.783.225 1.662.243 2.6-.047 11.896-3.66 24.518-5.687 37.519-5.836l-42.44 14.546-40.277 150.326c1.278 2.864 2.662 5.686 4.156 8.457 2.342 4.355 9 2.35 8.539-2.569-.88-9.535-.722-19.293.538-29.095l13.023 41.309c2.874 9.119 9.686 16.458 18.568 20.004 1.205.481 2.422.882 3.641 1.209 16.729 4.483 34.359-5.365 38.963-22.547 4.113-15.35 6.096-31.193 5.891-47.084z" fill="url(#SVGID_00000115496214474321585120000012903112429179153810_)"/><path d="m2.889 246.261c-1.392 5.933-2.353 11.982-2.87 18.097-.423 4.926 6.247 6.892 8.553 2.523 3.084-5.825 6.635-11.471 10.64-16.876-8.383 12.666-10.394 28.693-5.126 43.186 2.082 5.728 4.587 11.317 7.501 16.718 2.342 4.355 9 2.35 8.539-2.569-.88-9.535-.722-19.293.538-29.095l13.023 41.309c2.874 9.119 9.686 16.458 18.568 20.004 1.205.481 2.422.882 3.641 1.209 16.729 4.483 34.359-5.365 38.963-22.547 4.113-15.35 6.095-31.194 5.891-47.084-.078-6.07.117-12.127.552-18.159l-98.614-26.423c-4.658 5.64-8.071 12.342-9.799 19.707z" fill="url(#SVGID_00000080193571925984373080000010359029096688530821_)"/><path d="m51.091 207.506 4.884 8.459-4.309 2.935c-18.882 12.837-33.319 29.517-43.095 47.98-2.305 4.369-8.976 2.404-8.553-2.523.517-6.115 1.478-12.164 2.87-18.097 3.979-16.969 16.813-30.496 33.541-35.368 4.766-1.387 9.656-2.524 14.662-3.386z" fill="url(#SVGID_00000144295988148185139190000010254853835163746688_)"/><path d="m33.224 234.376 8.717 4.408-2 4.815c-8.78 21.077-11.736 42.938-9.815 63.741.461 4.919-6.197 6.923-8.539 2.569-2.913-5.401-5.419-10.99-7.501-16.718-5.955-16.38-2.615-34.725 8.72-47.956 3.228-3.771 6.699-7.398 10.418-10.859z" fill="url(#SVGID_00000069360495002736404550000010953008128125061049_)"/></g><g><path d="m401.251 271.135c.349-27.133-4.467-54.043-14.146-79.306-3.886-10.144-7.345-20.447-10.117-30.95l-10.521-39.854 8.453 2.897c4.902 1.68 10.31 1.285 14.846-1.222.106-.058.212-.117.318-.175 15.422-8.464 34.27-7.757 49.182 1.576 5.015 3.139 9.818 6.641 14.37 10.483 3.783 3.184.456 9.291-4.264 7.831-11.896-3.66-24.518-5.687-37.519-5.836l46.246 15.85c30.203 10.359 47.222 41.934 39.864 72.525 5.361 5.951 9.257 13.238 11.149 21.305 1.392 5.933 2.353 11.982 2.87 18.097.423 4.926-6.247 6.892-8.553 2.523-3.084-5.825-6.635-11.471-10.64-16.876 8.383 12.666 10.394 28.693 5.126 43.186-2.082 5.728-4.587 11.317-7.501 16.718-2.342 4.355-9 2.35-8.539-2.569.88-9.535.722-19.293-.538-29.095l-13.023 41.309c-2.874 9.119-9.686 16.458-18.568 20.004-1.205.481-2.422.882-3.641 1.209-16.729 4.483-34.359-5.365-38.963-22.547-4.113-15.349-6.096-31.192-5.891-47.083z" fill="url(#SVGID_00000161628176951524086400000013707267978923503777_)"/><path d="m458.097 152.431-46.246-15.85c13.001.149 25.622 2.176 37.519 5.836 4.72 1.459 8.046-4.647 4.264-7.831-4.552-3.842-9.355-7.344-14.37-10.483-14.301-8.951-32.22-9.962-47.267-2.565l58.349 217.76c8.586-3.634 15.16-10.834 17.968-19.745l13.024-41.309c1.26 9.802 1.418 19.56.537 29.095-.461 4.918 6.197 6.923 8.539 2.569 2.913-5.401 5.419-10.99 7.5-16.718 5.268-14.492 3.257-30.52-5.126-43.186 4.005 5.405 7.556 11.051 10.64 16.876 2.305 4.369 8.976 2.404 8.553-2.523-.517-6.115-1.478-12.164-2.87-18.097-1.892-8.067-5.788-15.353-11.149-21.305 7.357-30.59-9.662-62.165-39.865-72.524z" fill="url(#SVGID_00000008108694039376758010000010080273005885411726_)"/><path d="m509.111 246.261c1.392 5.933 2.353 11.982 2.87 18.097.423 4.926-6.247 6.892-8.553 2.523-3.084-5.825-6.635-11.471-10.64-16.876 8.383 12.666 10.394 28.693 5.126 43.186-2.082 5.728-4.587 11.317-7.501 16.718-2.342 4.355-9 2.35-8.539-2.569.88-9.535.722-19.293-.538-29.095l-13.023 41.309c-2.874 9.119-9.686 16.458-18.568 20.004-1.205.481-2.422.882-3.641 1.209-16.729 4.483-34.359-5.365-38.963-22.547-4.113-15.35-6.095-31.194-5.891-47.084.078-6.07-.117-12.127-.552-18.159l98.614-26.423c4.658 5.64 8.071 12.342 9.799 19.707z" fill="url(#SVGID_00000094615549168774602720000007303974769594314892_)"/><path d="m460.909 207.506-4.884 8.459 4.309 2.935c18.882 12.837 33.319 29.517 43.095 47.98 2.305 4.369 8.976 2.404 8.553-2.523-.517-6.115-1.478-12.164-2.87-18.097-3.979-16.969-16.813-30.496-33.541-35.368-4.766-1.387-9.656-2.524-14.662-3.386z" fill="url(#SVGID_00000132065023135598333930000005562942187789148860_)"/><path d="m478.776 234.376-8.717 4.408 2 4.815c8.78 21.077 11.736 42.938 9.815 63.741-.461 4.919 6.197 6.923 8.539 2.569 2.913-5.401 5.419-10.99 7.501-16.718 5.955-16.38 2.615-34.725-8.72-47.956-3.228-3.771-6.699-7.398-10.418-10.859z" fill="url(#SVGID_00000106838408505181898650000016406275455907353481_)"/></g></g></g></svg>