<svg id="Capa_1" enable-background="new 0 0 510 510" height="512" viewBox="0 0 510 510" width="512" xmlns="http://www.w3.org/2000/svg" xmlns:xlink="http://www.w3.org/1999/xlink"><linearGradient id="lg1"><stop offset="0" stop-color="#fee45a"/><stop offset="1" stop-color="#fea613"/></linearGradient><linearGradient id="SVGID_1_" gradientUnits="userSpaceOnUse" x1="108.561" x2="187.807" xlink:href="#lg1" y1="28.999" y2="108.245"/><linearGradient id="lg2"><stop offset="0" stop-color="#fea613" stop-opacity="0"/><stop offset="1" stop-color="#e94444"/></linearGradient><linearGradient id="SVGID_00000060013779733479542820000012960724680240909468_" gradientUnits="userSpaceOnUse" x1="98.43" x2="181.43" xlink:href="#lg2" y1="35.845" y2="127.845"/><linearGradient id="lg3"><stop offset="0" stop-color="#5a5a5a"/><stop offset="1" stop-color="#444"/></linearGradient><linearGradient id="SVGID_00000057106552377136981380000002620449694764889787_" gradientUnits="userSpaceOnUse" x1="136.06" x2="151.06" xlink:href="#lg3" y1="117.979" y2="117.979"/><linearGradient id="SVGID_00000143586668597139021840000005643704996685883052_" gradientUnits="userSpaceOnUse" x1="120.56" x2="169.595" xlink:href="#lg1" y1="175.844" y2="175.844"/><linearGradient id="lg4"><stop offset="0" stop-color="#b3dafe"/><stop offset="1" stop-color="#26a6fe"/></linearGradient><linearGradient id="SVGID_00000013166209637257482930000016642321369431558813_" gradientUnits="userSpaceOnUse" x1="120.56" x2="169.062" xlink:href="#lg4" y1="149.315" y2="149.315"/><linearGradient id="SVGID_00000075154711933367782550000017855992490120674228_" gradientUnits="userSpaceOnUse" x1="120.56" x2="169.062" xlink:href="#lg4" y1="197.22" y2="197.22"/><linearGradient id="SVGID_00000075150348560733879230000015694706017027166094_" gradientUnits="userSpaceOnUse" x1="220.001" x2="299.248" xlink:href="#lg1" y1="28.999" y2="108.245"/><linearGradient id="SVGID_00000134962208892026606040000008556043514136666301_" gradientUnits="userSpaceOnUse" x1="209.871" x2="292.871" xlink:href="#lg2" y1="35.845" y2="127.845"/><linearGradient id="SVGID_00000145054179352562104890000013823119525233061290_" gradientUnits="userSpaceOnUse" x1="247.5" x2="262.5" xlink:href="#lg3" y1="117.979" y2="117.979"/><linearGradient id="lg5"><stop offset="0" stop-color="#feaee1"/><stop offset="1" stop-color="#fe5694"/></linearGradient><linearGradient id="SVGID_00000021116527633748306040000012489264196145787045_" gradientUnits="userSpaceOnUse" x1="232" x2="281.035" xlink:href="#lg5" y1="175.844" y2="175.844"/><linearGradient id="lg6"><stop offset="0" stop-color="#d9b1ee"/><stop offset="1" stop-color="#814aa0"/></linearGradient><linearGradient id="SVGID_00000170267720741026810690000003616428593908226222_" gradientUnits="userSpaceOnUse" x1="232" x2="280.503" xlink:href="#lg6" y1="149.315" y2="149.315"/><linearGradient id="SVGID_00000072250216828402811060000002072774948974309511_" gradientUnits="userSpaceOnUse" x1="232" x2="280.503" xlink:href="#lg6" y1="197.22" y2="197.22"/><linearGradient id="SVGID_00000175289165226669164590000017211559754015289485_" gradientUnits="userSpaceOnUse" x1="331.442" x2="410.688" xlink:href="#lg1" y1="28.999" y2="108.245"/><linearGradient id="SVGID_00000095319171848144905750000016339269748963400626_" gradientUnits="userSpaceOnUse" x1="321.311" x2="404.311" xlink:href="#lg2" y1="35.845" y2="127.845"/><linearGradient id="SVGID_00000102515898384869423600000017986236588771896747_" gradientUnits="userSpaceOnUse" x1="358.941" x2="373.941" xlink:href="#lg3" y1="117.979" y2="117.979"/><linearGradient id="SVGID_00000135657482000208154710000008340706726479908008_" gradientUnits="userSpaceOnUse" x1="343.441" x2="392.476" y1="175.844" y2="175.844"><stop offset="0" stop-color="#bbec6c"/><stop offset="1" stop-color="#78a91f"/></linearGradient><linearGradient id="SVGID_00000122694482757658417090000011291007157022653345_" gradientUnits="userSpaceOnUse" x1="343.441" x2="391.943" xlink:href="#lg5" y1="149.315" y2="149.315"/><linearGradient id="SVGID_00000183215045557327343730000000180093029824109480_" gradientUnits="userSpaceOnUse" x1="343.441" x2="391.943" xlink:href="#lg5" y1="197.22" y2="197.22"/><linearGradient id="SVGID_00000111184551693010646890000014725009779781003187_" gradientUnits="userSpaceOnUse" x1="209.049" x2="354.773" y1="292.465" y2="543.713"><stop offset="0" stop-color="#f89580"/><stop offset="1" stop-color="#c4573a"/></linearGradient><linearGradient id="lg7"><stop offset="0" stop-color="#c4573a" stop-opacity="0"/><stop offset="1" stop-color="#883f2e"/></linearGradient><linearGradient id="SVGID_00000106848010881802131260000014885702239969779372_" gradientUnits="userSpaceOnUse" x1="218.711" x2="270.926" xlink:href="#lg7" y1="228.089" y2="464.875"/><linearGradient id="SVGID_00000065034413954527028450000009701639627898633109_" gradientUnits="userSpaceOnUse" x1="127.19" x2="202.882" xlink:href="#lg7" y1="364.615" y2="440.307"/><linearGradient id="SVGID_00000097459870724277125570000018318249114738798510_" gradientUnits="userSpaceOnUse" x1="371.687" x2="447.379" xlink:href="#lg7" y1="421.732" y2="497.424"/><linearGradient id="SVGID_00000114063321508672198550000003177178566467470003_" gradientUnits="userSpaceOnUse" x1="252.388" x2="303.755" xlink:href="#lg7" y1="333.7" y2="385.068"/><linearGradient id="SVGID_00000152248515408682054510000010852940717156482988_" gradientUnits="userSpaceOnUse" x1="315.576" x2="366.943" xlink:href="#lg7" y1="417.321" y2="468.689"/><linearGradient id="SVGID_00000143608340167407115350000014959023627854551957_" gradientUnits="userSpaceOnUse" x1="83.304" x2="134.671" xlink:href="#lg7" y1="430.82" y2="482.187"/><linearGradient id="SVGID_00000057148846839717706920000017808321035827419273_" gradientUnits="userSpaceOnUse" x1="207.038" x2="279.172" xlink:href="#lg7" y1="399.448" y2="471.583"/><linearGradient id="SVGID_00000075139460902754795660000003947856136857933470_" gradientUnits="userSpaceOnUse" x1="360.237" x2="432.372" xlink:href="#lg7" y1="346.925" y2="419.06"/><linearGradient id="SVGID_00000114765354144856671250000006639536031500355498_" gradientUnits="userSpaceOnUse" x1="255" x2="255" xlink:href="#lg7" y1="470.852" y2="195.028"/><linearGradient id="SVGID_00000136381724636247099430000012327221005357680257_" gradientUnits="userSpaceOnUse" x1="255" x2="255" xlink:href="#lg7" y1="435.969" y2="482.128"/><linearGradient id="SVGID_00000118378106687995496340000008501589188807381687_" gradientUnits="userSpaceOnUse" x1="203.221" x2="341.767" y1="164.065" y2="400.749"><stop offset="0" stop-color="#f9f5f3"/><stop offset="1" stop-color="#efe2dd"/></linearGradient><linearGradient id="SVGID_00000103946733897856458150000003126442487761470885_" gradientUnits="userSpaceOnUse" x1="255" x2="255" y1="273.751" y2="328.235"><stop offset="0" stop-color="#9e9797" stop-opacity="0"/><stop offset=".3107" stop-color="#979090" stop-opacity=".311"/><stop offset=".7858" stop-color="#817a7a" stop-opacity=".786"/><stop offset="1" stop-color="#766e6e"/></linearGradient><linearGradient id="SVGID_00000162333509046557546780000010251267914557575814_" gradientUnits="userSpaceOnUse" x1="255" x2="255" xlink:href="#lg4" y1="473.612" y2="510.222"/><g><g><g><path d="m188.926 68.886c0 25.055-20.311 45.366-45.366 45.366s-45.366-20.311-45.366-45.366c0-17.695 22.628-48.077 35.922-64.4 4.872-5.982 14.016-5.982 18.888 0 13.293 16.323 35.922 46.705 35.922 64.4z" fill="url(#SVGID_1_)"/><path d="m169.866 87.946c0 14.529-11.778 26.307-26.307 26.307s-26.307-11.778-26.307-26.307c0-10.261 13.122-27.879 20.831-37.344 2.825-3.469 8.127-3.469 10.953 0 7.709 9.465 20.83 27.083 20.83 37.344z" fill="url(#SVGID_00000060013779733479542820000012960724680240909468_)"/><path d="m143.56 144.958c-4.142 0-7.5-3.358-7.5-7.5v-38.958c0-4.142 3.358-7.5 7.5-7.5s7.5 3.358 7.5 7.5v38.958c0 4.142-3.358 7.5-7.5 7.5z" fill="url(#SVGID_00000057106552377136981380000002620449694764889787_)"/><g><path d="m172.38 133.912v88.026c0 2.964-2.521 5.299-5.476 5.064-7.65-.609-15.439-.921-23.344-.921-7.906 0-15.694.312-23.344.921-2.954.235-5.476-2.1-5.476-5.064v-88.026c0-5.104 4.138-9.242 9.242-9.242h39.157c5.103 0 9.241 4.138 9.241 9.242z" fill="url(#SVGID_00000143586668597139021840000005643704996685883052_)"/><g><path d="m172.38 133.91v7.29l-57.64 32.76v-27.96l37.53-21.33h10.87c5.1 0 9.24 4.14 9.24 9.24z" fill="url(#SVGID_00000013166209637257482930000016642321369431558813_)"/><path d="m172.38 167.78v27.95l-54.42 30.93c-1.88-.73-3.22-2.56-3.22-4.72v-21.4z" fill="url(#SVGID_00000075154711933367782550000017855992490120674228_)"/></g></g></g><g><path d="m300.366 68.886c0 25.055-20.311 45.366-45.366 45.366s-45.366-20.311-45.366-45.366c0-17.695 22.628-48.077 35.922-64.4 4.872-5.982 14.016-5.982 18.888 0 13.294 16.323 35.922 46.705 35.922 64.4z" fill="url(#SVGID_00000075150348560733879230000015694706017027166094_)"/><path d="m281.307 87.946c0 14.529-11.778 26.307-26.307 26.307s-26.307-11.778-26.307-26.307c0-10.261 13.122-27.879 20.831-37.344 2.825-3.469 8.127-3.469 10.953 0 7.708 9.465 20.83 27.083 20.83 37.344z" fill="url(#SVGID_00000134962208892026606040000008556043514136666301_)"/><path d="m255 144.958c-4.142 0-7.5-3.358-7.5-7.5v-38.958c0-4.142 3.358-7.5 7.5-7.5s7.5 3.358 7.5 7.5v38.958c0 4.142-3.358 7.5-7.5 7.5z" fill="url(#SVGID_00000145054179352562104890000013823119525233061290_)"/><g><path d="m283.82 133.912v88.026c0 2.964-2.521 5.299-5.476 5.064-7.65-.609-15.439-.921-23.344-.921s-15.694.312-23.344.921c-2.954.235-5.476-2.1-5.476-5.064v-88.026c0-5.104 4.138-9.242 9.242-9.242h39.157c5.103 0 9.241 4.138 9.241 9.242z" fill="url(#SVGID_00000021116527633748306040000012489264196145787045_)"/><g><path d="m283.82 133.91v7.29l-57.64 32.76v-27.96l37.53-21.33h10.87c5.1 0 9.24 4.14 9.24 9.24z" fill="url(#SVGID_00000170267720741026810690000003616428593908226222_)"/><path d="m283.82 167.78v27.95l-54.42 30.93c-1.88-.73-3.22-2.56-3.22-4.72v-21.4z" fill="url(#SVGID_00000072250216828402811060000002072774948974309511_)"/></g></g></g><g><path d="m411.807 68.886c0 25.055-20.311 45.366-45.366 45.366s-45.366-20.311-45.366-45.366c0-17.695 22.628-48.077 35.922-64.4 4.872-5.982 14.016-5.982 18.888 0 13.293 16.323 35.922 46.705 35.922 64.4z" fill="url(#SVGID_00000175289165226669164590000017211559754015289485_)"/><path d="m392.747 87.946c0 14.529-11.778 26.307-26.307 26.307s-26.307-11.778-26.307-26.307c0-10.261 13.122-27.879 20.831-37.344 2.825-3.469 8.127-3.469 10.953 0 7.709 9.465 20.83 27.083 20.83 37.344z" fill="url(#SVGID_00000095319171848144905750000016339269748963400626_)"/><path d="m366.44 144.958c-4.142 0-7.5-3.358-7.5-7.5v-38.958c0-4.142 3.358-7.5 7.5-7.5s7.5 3.358 7.5 7.5v38.958c0 4.142-3.357 7.5-7.5 7.5z" fill="url(#SVGID_00000102515898384869423600000017986236588771896747_)"/><g><path d="m395.26 133.912v88.026c0 2.964-2.521 5.299-5.476 5.064-7.65-.609-15.439-.921-23.344-.921-7.906 0-15.694.312-23.344.921-2.954.235-5.476-2.1-5.476-5.064v-88.026c0-5.104 4.138-9.242 9.242-9.242h39.157c5.104 0 9.241 4.138 9.241 9.242z" fill="url(#SVGID_00000135657482000208154710000008340706726479908008_)"/><g><path d="m395.26 133.91v7.29l-57.64 32.76v-27.96l37.53-21.33h10.87c5.1 0 9.24 4.14 9.24 9.24z" fill="url(#SVGID_00000122694482757658417090000011291007157022653345_)"/><path d="m395.26 167.78v27.95l-54.42 30.93c-1.88-.73-3.22-2.56-3.22-4.72v-21.4z" fill="url(#SVGID_00000183215045557327343730000000180093029824109480_)"/></g></g></g></g><g><g><path d="m47.368 252.203h415.265v238.975h-415.265z" fill="url(#SVGID_00000111184551693010646890000014725009779781003187_)"/><path d="m47.368 361.069h415.265v63.17h-415.265z" fill="url(#SVGID_00000106848010881802131260000014885702239969779372_)"/><g><circle cx="152.489" cy="389.914" fill="url(#SVGID_00000065034413954527028450000009701639627898633109_)" r="26.997"/><circle cx="396.986" cy="447.031" fill="url(#SVGID_00000097459870724277125570000018318249114738798510_)" r="26.997"/><circle cx="268.599" cy="349.911" fill="url(#SVGID_00000114063321508672198550000003177178566467470003_)" r="13.499"/><circle cx="331.787" cy="433.533" fill="url(#SVGID_00000152248515408682054510000010852940717156482988_)" r="13.499"/><circle cx="99.515" cy="447.031" fill="url(#SVGID_00000143608340167407115350000014959023627854551957_)" r="13.499"/><circle cx="227.876" cy="420.286" fill="url(#SVGID_00000057148846839717706920000017808321035827419273_)" r="22.151"/><circle cx="381.076" cy="367.764" fill="url(#SVGID_00000075139460902754795660000003947856136857933470_)" r="22.151"/></g><path d="m47.368 299.164 192.015 192.015h223.249v-238.976h-415.264z" fill="url(#SVGID_00000114765354144856671250000006639536031500355498_)"/><path d="m47.368 398.136h415.265v93.043h-415.265z" fill="url(#SVGID_00000136381724636247099430000012327221005357680257_)"/><g><path d="m433.353 194.965c-12.664-.989-344.039-.989-356.703 0-28.235 2.204-50.983 25.179-52.928 53.433-2.321 33.714 24.34 61.785 57.558 61.785 10.958 0 21.197-3.059 29.919-8.366 8.289-5.043 18.733-5.043 27.022 0 8.722 5.307 18.962 8.366 29.919 8.366 10.958 0 21.197-3.059 29.919-8.366 8.289-5.043 18.733-5.043 27.022 0 8.722 5.307 18.962 8.366 29.919 8.366s21.197-3.059 29.919-8.366c8.289-5.043 18.733-5.043 27.022 0 8.722 5.307 18.962 8.366 29.919 8.366s21.197-3.059 29.919-8.366c8.289-5.043 18.733-5.043 27.022 0 8.722 5.307 18.962 8.366 29.919 8.366 33.217 0 59.878-28.07 57.558-61.783-1.943-28.254-24.691-51.229-52.925-53.435z" fill="url(#SVGID_00000118378106687995496340000008501589188807381687_)"/><path d="m23.598 252.484c.002 31.865 25.817 57.699 57.682 57.699 10.958 0 21.197-3.059 29.919-8.366 8.289-5.043 18.733-5.043 27.022 0 8.722 5.307 18.962 8.366 29.919 8.366 10.958 0 21.197-3.059 29.919-8.366 8.289-5.043 18.733-5.043 27.022 0 8.722 5.307 18.962 8.366 29.919 8.366s21.197-3.059 29.919-8.366c8.289-5.043 18.733-5.043 27.022 0 8.723 5.307 18.962 8.366 29.919 8.366s21.197-3.059 29.919-8.366c8.289-5.043 18.733-5.043 27.022 0 8.723 5.307 18.962 8.366 29.919 8.366 31.865 0 57.68-25.835 57.682-57.699z" fill="url(#SVGID_00000103946733897856458150000003126442487761470885_)"/></g></g><path d="m491.179 510h-472.358c-10.394 0-18.821-8.427-18.821-18.821 0-10.395 8.427-18.821 18.821-18.821h472.357c10.395 0 18.821 8.427 18.821 18.821.001 10.394-8.426 18.821-18.82 18.821z" fill="url(#SVGID_00000162333509046557546780000010251267914557575814_)"/></g></g></svg>