<svg id="Capa_1" enable-background="new 0 0 512 512" height="512" viewBox="0 0 512 512" width="512" xmlns="http://www.w3.org/2000/svg" xmlns:xlink="http://www.w3.org/1999/xlink"><linearGradient id="lg1"><stop offset="0" stop-color="#ffbf51"/><stop offset="1" stop-color="#c5715a"/></linearGradient><linearGradient id="SVGID_1_" gradientUnits="userSpaceOnUse" x1="414.776" x2="419.053" xlink:href="#lg1" y1="23.158" y2="78.762"/><linearGradient id="SVGID_00000142136236930414013980000015692989626987048342_" gradientUnits="userSpaceOnUse" x1="89.131" x2="96.617" xlink:href="#lg1" y1="29.562" y2="94.789"/><linearGradient id="lg2"><stop offset="0" stop-color="#fffaf8"/><stop offset="1" stop-color="#ffdfcf"/></linearGradient><linearGradient id="SVGID_00000000219281371801152100000004572005268686219197_" gradientUnits="userSpaceOnUse" x1="237.673" x2="287.209" xlink:href="#lg2" y1="237.993" y2="237.993"/><linearGradient id="lg3"><stop offset="0" stop-color="#f89580" stop-opacity="0"/><stop offset=".2599" stop-color="#f2917c" stop-opacity=".261"/><stop offset=".5954" stop-color="#e2856f" stop-opacity=".597"/><stop offset=".9709" stop-color="#c8725b" stop-opacity=".974"/><stop offset=".9972" stop-color="#c5715a"/></linearGradient><linearGradient id="SVGID_00000148645106740700651160000016060083002575403916_" gradientUnits="userSpaceOnUse" x1="256" x2="256" xlink:href="#lg3" y1="200.532" y2="266.419"/><linearGradient id="SVGID_00000178891629585509848640000011906250238019823746_" gradientUnits="userSpaceOnUse" x1="38.051" x2="256.188" xlink:href="#lg1" y1="111.735" y2="330.942"/><linearGradient id="lg4"><stop offset="0" stop-color="#883f2e" stop-opacity="0"/><stop offset=".2979" stop-color="#8b402e" stop-opacity=".298"/><stop offset=".536" stop-color="#954430" stop-opacity=".536"/><stop offset=".7533" stop-color="#a64b34" stop-opacity=".753"/><stop offset=".9572" stop-color="#be5539" stop-opacity=".957"/><stop offset="1" stop-color="#c4573a"/></linearGradient><linearGradient id="SVGID_00000088841111231419973480000010914212540058997902_" gradientUnits="userSpaceOnUse" x1="92.81" x2="218.987" xlink:href="#lg4" y1="214.037" y2="251.462"/><linearGradient id="SVGID_00000144308219252298615900000014157646837596699291_" gradientUnits="userSpaceOnUse" x1="267.41" x2="460.953" xlink:href="#lg1" y1="205.953" y2="265.834"/><linearGradient id="SVGID_00000181053019243992324700000005777165147703771028_" gradientUnits="userSpaceOnUse" x1="405.781" x2="516.988" xlink:href="#lg4" y1="245.033" y2="264.28"/><linearGradient id="SVGID_00000083087676148103881350000000981844557760233109_" gradientUnits="userSpaceOnUse" x1="107.872" x2="107.872" xlink:href="#lg4" y1="253.354" y2="414.907"/><linearGradient id="SVGID_00000141441186872422951260000006231190580024465083_" gradientUnits="userSpaceOnUse" x1="404.128" x2="404.128" xlink:href="#lg4" y1="275.809" y2="399.821"/><linearGradient id="lg5"><stop offset="0" stop-color="#5a5a5a"/><stop offset="1" stop-color="#444"/></linearGradient><linearGradient id="SVGID_00000152950408429037769850000002683091973820900543_" gradientUnits="userSpaceOnUse" x1="120.375" x2="161.141" xlink:href="#lg5" y1="234.373" y2="264.381"/><linearGradient id="SVGID_00000036949526228644280370000012479823256267587457_" gradientUnits="userSpaceOnUse" x1="351.337" x2="387.573" xlink:href="#lg5" y1="232.615" y2="259.793"/><linearGradient id="SVGID_00000094579693278635946610000003151483901618811792_" gradientUnits="userSpaceOnUse" x1="215.514" x2="236.15" xlink:href="#lg2" y1="250.174" y2="310.536"/><linearGradient id="SVGID_00000010295889755364326260000004329256598594234013_" gradientUnits="userSpaceOnUse" x1="218.862" x2="304.406" xlink:href="#lg3" y1="314.057" y2="418.849"/><linearGradient id="SVGID_00000081616902768860315300000004607161614535043486_" gradientUnits="userSpaceOnUse" x1="184.91" x2="264.439" xlink:href="#lg2" y1="222.892" y2="422.231"/><linearGradient id="SVGID_00000168089110925146139240000002348669174390337682_" gradientUnits="userSpaceOnUse" x1="236.775" x2="380.061" xlink:href="#lg3" y1="372.126" y2="496.165"/><linearGradient id="SVGID_00000117645065415790807660000017550281567540625571_" gradientUnits="userSpaceOnUse" x1="230.62" x2="264.813" xlink:href="#lg2" y1="337.74" y2="476.871"/><linearGradient id="SVGID_00000082347575384534341700000003092634994564801683_" gradientUnits="userSpaceOnUse" x1="306.926" x2="427.192" xlink:href="#lg3" y1="416.16" y2="481.009"/><linearGradient id="SVGID_00000150088743817657385320000000661809396461090733_" gradientUnits="userSpaceOnUse" x1="254.144" x2="254.144" xlink:href="#lg3" y1="440.71" y2="517.929"/><linearGradient id="lg6"><stop offset="0" stop-color="#433f43" stop-opacity="0"/><stop offset=".2995" stop-color="#3e3b3e" stop-opacity=".3"/><stop offset=".6425" stop-color="#302e30" stop-opacity=".643"/><stop offset="1" stop-color="#1a1a1a"/></linearGradient><linearGradient id="SVGID_00000033330802179717971300000006907256926127458198_" gradientUnits="userSpaceOnUse" x1="256" x2="256" xlink:href="#lg6" y1="433.709" y2="346.956"/><linearGradient id="SVGID_00000183938940244936306170000007197514592196524985_" gradientUnits="userSpaceOnUse" x1="176.145" x2="208.937" xlink:href="#lg5" y1="339.741" y2="500.849"/><linearGradient id="SVGID_00000132072859524524234300000013009924473998308532_" gradientUnits="userSpaceOnUse" x1="300.208" x2="333" xlink:href="#lg5" y1="314.489" y2="475.597"/><linearGradient id="SVGID_00000173149797985142276280000009866723182479791756_" gradientUnits="userSpaceOnUse" x1="220.805" x2="220.805" xlink:href="#lg6" y1="403.413" y2="348.48"/><linearGradient id="SVGID_00000080203666411540314930000009139541045026477236_" gradientUnits="userSpaceOnUse" x1="291.195" x2="291.195" xlink:href="#lg6" y1="403.413" y2="348.48"/><linearGradient id="SVGID_00000176740485355488761540000002032465985425909894_" gradientUnits="userSpaceOnUse" x1="248.134" x2="265.056" xlink:href="#lg5" y1="303.344" y2="337.187"/><linearGradient id="SVGID_00000046322468461350025080000016229240872955740580_" gradientUnits="userSpaceOnUse" x1="255.06" x2="263.97" xlink:href="#lg6" y1="315.606" y2="345.903"/><g><g><path d="m329.112 77.226 63.806-54.399c25.809-22.004 64.08-20.921 88.604 2.507l17.928 17.127c17.212 16.443 4.561 45.416-19.199 43.969z" fill="url(#SVGID_1_)"/><path d="m182.888 77.226-63.806-54.399c-25.809-22.004-64.08-20.921-88.604 2.507l-17.928 17.128c-17.211 16.443-4.56 45.416 19.2 43.969z" fill="url(#SVGID_00000142136236930414013980000015692989626987048342_)"/></g><path d="m295.86 25.804h-79.72l-85.109 424.378h249.938z" fill="url(#SVGID_00000000219281371801152100000004572005268686219197_)"/><path d="m130.427 435.056h251.146l-64.876-291.684h-121.393z" fill="url(#SVGID_00000148645106740700651160000016060083002575403916_)"/><path d="m216.14 25.804v118.879c0 67.16-13.33 133.639-39.21 195.609l-45.9 109.889c-.26-.07-.52-.15-.78-.23-54.97-23.63-97.13-72.73-110.289-134.189l-15.94-74.42c-6.31-29.44-4.98-58.44 2.49-85.149 8.36-29.92 24.44-56.98 46.15-78.59 31.92-31.79 76.01-51.8 125.619-51.8h37.86z" fill="url(#SVGID_00000178891629585509848640000011906250238019823746_)"/><path d="m55.892 74.47v318.192c19.548 24.979 45.144 44.732 74.359 57.291.26.08.52.16.78.23l45.9-109.889c25.88-61.97 39.21-128.449 39.21-195.609v-118.881h-37.86c-47.958 0-90.755 18.702-122.389 48.666z" fill="url(#SVGID_00000088841111231419973480000010914212540058997902_)"/><path d="m507.979 241.343-15.94 74.42c-13.16 61.46-55.32 110.559-110.289 134.189-.26.08-.52.16-.78.23l-45.9-109.889c-25.88-61.97-39.21-128.449-39.21-195.609v-118.88h37.86c49.61 0 93.699 20.01 125.62 51.8 21.71 21.61 37.79 48.67 46.15 78.59 7.469 26.709 8.799 55.709 2.489 85.149z" fill="url(#SVGID_00000144308219252298615900000014157646837596699291_)"/><path d="m459.339 77.604c-27.511-27.398-64.065-46.033-105.398-50.662v358.531l27.028 64.709c.26-.07.52-.15.78-.23 54.97-23.63 97.129-72.73 110.289-134.189l15.94-74.42c6.31-29.44 4.98-58.44-2.49-85.149-8.359-29.92-24.439-56.98-46.149-78.59z" fill="url(#SVGID_00000181053019243992324700000005777165147703771028_)"/><path d="m215.74 164.604c-2.36 60.36-15.49 119.85-38.81 175.689l-45.9 109.889c-.26-.07-.52-.15-.78-.23-54.97-23.63-97.13-72.73-110.289-134.189l-15.94-74.42c-5.65-26.38-5.17-52.4.36-76.74h211.359z" fill="url(#SVGID_00000083087676148103881350000000981844557760233109_)"/><path d="m507.979 241.343-15.94 74.42c-13.16 61.46-55.32 110.559-110.289 134.189-.26.08-.52.16-.78.23l-45.9-109.889c-23.32-55.84-36.45-115.329-38.81-175.689h211.359c5.53 24.339 6.01 50.359.36 76.739z" fill="url(#SVGID_00000141441186872422951260000006231190580024465083_)"/><g><path d="m139.525 285.359c-16.216 0-29.361-13.146-29.361-29.362v-15.057c0-16.216 13.145-29.362 29.361-29.362 16.216 0 29.362 13.146 29.362 29.362v15.057c0 16.217-13.146 29.362-29.362 29.362z" fill="url(#SVGID_00000152950408429037769850000002683091973820900543_)"/><path d="m372.475 285.359c-16.216 0-29.362-13.146-29.362-29.362v-15.057c0-16.216 13.145-29.362 29.362-29.362 16.216 0 29.361 13.146 29.361 29.362v15.057c0 16.217-13.145 29.362-29.361 29.362z" fill="url(#SVGID_00000036949526228644280370000012479823256267587457_)"/></g><g><path d="m402.137 380.207.778-8.053c6.619-68.502-53.498-133.592-148.771-133.592-95.273 0-155.391 65.091-148.771 133.593l.778 8.052c-.199 24.685 27.816 45.724 62.486 54.773 18.776 4.901 38.24 3.768 53.857-2.922 19.279-8.258 44.021-8.258 63.3 0h.001c15.617 6.689 35.082 7.822 53.857 2.921 34.669-9.048 62.684-30.088 62.485-54.772z" fill="url(#SVGID_00000094579693278635946610000003151483901618811792_)"/></g><g><path d="m402.137 380.207.778-8.053c6.619-68.502-53.498-133.592-148.771-133.592-95.273 0-155.391 65.091-148.771 133.593l.778 8.052c-.199 24.685 27.816 45.724 62.486 54.773 18.776 4.901 38.24 3.768 53.857-2.922 19.279-8.258 44.021-8.258 63.3 0h.001c15.617 6.689 35.082 7.822 53.857 2.921 34.669-9.048 62.684-30.088 62.485-54.772z" fill="url(#SVGID_00000010295889755364326260000004329256598594234013_)"/></g><g><path d="m414.607 415.649.844-8.731c7.177-74.273-58.006-144.848-161.306-144.848-103.301 0-168.484 70.575-161.306 144.849l.844 8.731c-.215 26.764 30.16 49.577 67.751 59.388 20.357 5.313 41.462 4.085 58.395-3.168 20.903-8.954 47.73-8.954 68.634 0h.001c16.933 7.253 38.037 8.481 58.395 3.168 37.587-9.812 67.963-32.625 67.748-59.389z" fill="url(#SVGID_00000081616902768860315300000004607161614535043486_)"/></g><g><path d="m414.607 415.649.844-8.731c7.177-74.273-58.006-144.848-161.306-144.848-103.301 0-168.484 70.575-161.306 144.849l.844 8.731c-.215 26.764 30.16 49.577 67.751 59.388 20.357 5.313 41.462 4.085 58.395-3.168 20.903-8.954 47.73-8.954 68.634 0h.001c16.933 7.253 38.037 8.481 58.395 3.168 37.587-9.812 67.963-32.625 67.748-59.389z" fill="url(#SVGID_00000168089110925146139240000002348669174390337682_)"/></g><g><g><path d="m415.601 415.059-2.705-10.282c-18.973-72.122-84.177-122.392-158.753-122.392-74.576 0-139.78 50.27-158.753 122.392l-2.705 10.282c-12.129 34.6 11.255 68.386 51.415 84.35 22.76 9.048 48.452 6.93 69.697-5.257 24.987-14.333 55.703-14.333 80.69 0h.001c21.245 12.187 46.937 14.305 69.697 5.257 40.162-15.965 63.545-49.75 51.416-84.35z" fill="url(#SVGID_00000117645065415790807660000017550281567540625571_)"/><path d="m412.896 404.776c-18.972-72.122-84.177-122.392-158.753-122.392-13.674 0-27.03 1.697-39.846 4.901v206.591c24.897-14.05 55.369-13.963 80.191.275h.001c21.246 12.187 46.937 14.305 69.697 5.257 40.16-15.965 63.543-49.75 51.415-84.35z" fill="url(#SVGID_00000082347575384534341700000003092634994564801683_)"/><path d="m95.391 404.777-2.705 10.282c-12.129 34.6 11.255 68.385 51.415 84.35 22.76 9.048 48.452 6.93 69.697-5.257 24.987-14.333 55.703-14.333 80.69 0h.001c21.246 12.187 46.937 14.305 69.697 5.257 40.16-15.965 63.543-49.75 51.415-84.35l-2.705-10.283c-2.549-9.691-5.941-18.983-10.07-27.816h-297.365c-4.13 8.834-7.521 18.126-10.07 27.817z" fill="url(#SVGID_00000150088743817657385320000000661809396461090733_)"/><path d="m327.04 448.202h-142.08l22.84-27.53c19.58-23.61 30.36-55.03 30.36-88.48 0-4.14-3.36-7.5-7.5-7.5h50.68c-4.14 0-7.5 3.36-7.5 7.5 0 33.45 10.78 64.87 30.36 88.48z" fill="url(#SVGID_00000033330802179717971300000006907256926127458198_)"/></g><g><path d="m235.659 324.695c-4.143 0-7.5 3.358-7.5 7.5 0 29.525-9.808 58.281-26.907 78.896l-61.374 73.987c-2.645 3.188-2.204 7.916.984 10.561 1.399 1.162 3.097 1.728 4.784 1.728 2.154 0 4.293-.924 5.776-2.711l61.374-73.988c19.579-23.603 30.362-55.024 30.362-88.472.001-4.143-3.356-7.501-7.499-7.501z" fill="url(#SVGID_00000183938940244936306170000007197514592196524985_)"/><path d="m372.121 485.078-61.374-73.987c-17.1-20.615-26.907-49.371-26.907-78.896 0-4.142-3.357-7.5-7.5-7.5s-7.5 3.358-7.5 7.5c0 33.449 10.783 64.869 30.362 88.473l61.374 73.987c1.483 1.788 3.622 2.711 5.776 2.711 1.688 0 3.385-.566 4.784-1.728 3.19-2.643 3.63-7.371.985-10.56z" fill="url(#SVGID_00000132072859524524234300000013009924473998308532_)"/></g><g><path d="m243.16 332.193c0 30.6-9.02 59.49-25.55 82.27h-19.16l2.8-3.37c17.1-20.62 26.91-49.37 26.91-78.9 0-4.14 3.36-7.5 7.5-7.5s7.5 3.36 7.5 7.5z" fill="url(#SVGID_00000173149797985142276280000009866723182479791756_)"/><path d="m313.55 414.462h-19.16c-16.53-22.78-25.55-51.67-25.55-82.27 0-4.14 3.36-7.5 7.5-7.5s7.5 3.36 7.5 7.5c0 29.53 9.81 58.28 26.91 78.9z" fill="url(#SVGID_00000080203666411540314930000009139541045026477236_)"/></g><path d="m277.807 346.626 6.255-3.394c8.641-4.688 14.022-13.73 14.022-23.561v-.418c0-14.804-12.001-26.806-26.806-26.806h-30.175c-14.804 0-26.806 12.001-26.806 26.806v.418c0 9.831 5.381 18.873 14.022 23.561l6.255 3.394c13.483 7.316 29.751 7.316 43.233 0z" fill="url(#SVGID_00000176740485355488761540000002032465985425909894_)"/><path d="m277.807 346.626 6.255-3.394c8.641-4.688 14.022-13.73 14.022-23.561v-.418c0-14.804-12.001-26.806-26.806-26.806h-30.175c-14.804 0-26.806 12.001-26.806 26.806v.418c0 9.831 5.381 18.873 14.022 23.561l6.255 3.394c13.483 7.316 29.751 7.316 43.233 0z" fill="url(#SVGID_00000046322468461350025080000016229240872955740580_)"/></g></g></svg>