<svg id="Capa_1" enable-background="new 0 0 510 510" height="512" viewBox="0 0 510 510" width="512" xmlns="http://www.w3.org/2000/svg" xmlns:xlink="http://www.w3.org/1999/xlink"><linearGradient id="lg1"><stop offset="0" stop-color="#f89580"/><stop offset="1" stop-color="#c4573a"/></linearGradient><linearGradient id="SVGID_1_" gradientUnits="userSpaceOnUse" x1="206.744" x2="268.333" xlink:href="#lg1" y1="380.275" y2="505.377"/><linearGradient id="lg2"><stop offset="0" stop-color="#c4573a" stop-opacity="0"/><stop offset="1" stop-color="#883f2e"/></linearGradient><linearGradient id="SVGID_2_" gradientUnits="userSpaceOnUse" x1="255" x2="255" xlink:href="#lg2" y1="465.333" y2="519.436"/><linearGradient id="SVGID_3_" gradientUnits="userSpaceOnUse" x1="407.396" x2="310.063" xlink:href="#lg2" y1="569.573" y2="411.573"/><linearGradient id="SVGID_4_" gradientUnits="userSpaceOnUse" x1="241.45" x2="277.175" y1="422.685" y2="458.409"><stop offset="0" stop-color="#feaee1"/><stop offset="1" stop-color="#fe5694"/></linearGradient><linearGradient id="lg3"><stop offset="0" stop-color="#5a5a5a"/><stop offset="1" stop-color="#444"/></linearGradient><linearGradient id="SVGID_5_" gradientUnits="userSpaceOnUse" x1="82.298" x2="123.631" xlink:href="#lg3" y1="217.707" y2="253.707"/><linearGradient id="SVGID_6_" gradientUnits="userSpaceOnUse" x1="341.178" x2="418.695" xlink:href="#lg3" y1="210.156" y2="287.673"/><linearGradient id="lg4"><stop offset="0" stop-color="#433f43" stop-opacity="0"/><stop offset="1" stop-color="#1a1a1a"/></linearGradient><linearGradient id="SVGID_7_" gradientUnits="userSpaceOnUse" x1="416.667" x2="363.296" xlink:href="#lg4" y1="258.168" y2="258.168"/><linearGradient id="SVGID_8_" gradientUnits="userSpaceOnUse" x1="392.295" x2="357.295" xlink:href="#lg4" y1="245.385" y2="181.885"/><linearGradient id="lg5"><stop offset="0" stop-color="#ffdfcf"/><stop offset="1" stop-color="#ffa78f"/></linearGradient><linearGradient id="SVGID_9_" gradientUnits="userSpaceOnUse" x1="255.98" x2="255.98" xlink:href="#lg5" y1="240.569" y2="455.469"/><linearGradient id="SVGID_10_" gradientUnits="userSpaceOnUse" x1="255.98" x2="255.98" xlink:href="#lg1" y1="240.569" y2="455.469"/><linearGradient id="SVGID_11_" gradientUnits="userSpaceOnUse" x1="257.675" x2="284.389" xlink:href="#lg2" y1="268.863" y2="437.311"/><linearGradient id="SVGID_12_" gradientUnits="userSpaceOnUse" x1="214.088" x2="265.59" xlink:href="#lg5" y1="256.013" y2="307.515"/><linearGradient id="SVGID_13_" gradientUnits="userSpaceOnUse" x1="255.98" x2="255.98" xlink:href="#lg5" y1="363.138" y2="500.246"/><linearGradient id="SVGID_14_" gradientUnits="userSpaceOnUse" x1="314.313" x2="372.193" y1="366.339" y2="558.533"><stop offset="0" stop-color="#f89580" stop-opacity="0"/><stop offset=".9972" stop-color="#c5715a"/></linearGradient><linearGradient id="SVGID_15_" gradientUnits="userSpaceOnUse" x1="324.445" x2="184.177" xlink:href="#lg2" y1="378.988" y2="238.72"/><linearGradient id="SVGID_16_" gradientUnits="userSpaceOnUse" x1="241.471" x2="265.69" xlink:href="#lg3" y1="295.949" y2="320.168"/><linearGradient id="SVGID_17_" gradientUnits="userSpaceOnUse" x1="175.198" x2="210.519" xlink:href="#lg3" y1="228.924" y2="254.924"/><linearGradient id="SVGID_18_" gradientUnits="userSpaceOnUse" x1="299.895" x2="331.291" xlink:href="#lg3" y1="227.402" y2="250.949"/><linearGradient id="SVGID_19_" gradientTransform="matrix(-1 0 0 1 -509.325 0)" gradientUnits="userSpaceOnUse" x1="-799.299" x2="-700.338" y1="41.615" y2="210.675"><stop offset="0" stop-color="#8bc727"/><stop offset="1" stop-color="#017b4e"/></linearGradient><linearGradient id="lg6"><stop offset="0" stop-color="#026841" stop-opacity="0"/><stop offset="1" stop-color="#3e5959"/></linearGradient><linearGradient id="SVGID_20_" gradientTransform="matrix(-1 0 0 1 -509.325 0)" gradientUnits="userSpaceOnUse" x1="-765.684" x2="-765.684" xlink:href="#lg6" y1="83.065" y2="140.073"/><linearGradient id="SVGID_21_" gradientTransform="matrix(-1 0 0 1 -509.325 0)" gradientUnits="userSpaceOnUse" x1="-686.386" x2="-647.658" xlink:href="#lg6" y1="46.224" y2="138.88"/><linearGradient id="SVGID_22_" gradientUnits="userSpaceOnUse" x1="83.714" x2="107.366" y1="74.921" y2="98.574"><stop offset="0" stop-color="#fee45a"/><stop offset="1" stop-color="#fea613"/></linearGradient><linearGradient id="SVGID_23_" gradientUnits="userSpaceOnUse" x1="223.237" x2="311.861" y1="97.053" y2="248.453"><stop offset="0" stop-color="#f9f5f3"/><stop offset="1" stop-color="#efe2dd"/></linearGradient><linearGradient id="SVGID_24_" gradientUnits="userSpaceOnUse" x1="256.359" x2="256.359" y1="167.216" y2="202.068"><stop offset="0" stop-color="#9e9797" stop-opacity="0"/><stop offset=".3107" stop-color="#979090" stop-opacity=".311"/><stop offset=".7858" stop-color="#817a7a" stop-opacity=".786"/><stop offset="1" stop-color="#766e6e"/></linearGradient><linearGradient id="SVGID_25_" gradientUnits="userSpaceOnUse" x1="164.343" x2="213.489" xlink:href="#lg2" y1="314.687" y2="363.834"/><linearGradient id="SVGID_26_" gradientUnits="userSpaceOnUse" x1="127.637" x2="176.783" xlink:href="#lg2" y1="352.347" y2="401.493"/><linearGradient id="SVGID_27_" gradientUnits="userSpaceOnUse" x1="164.343" x2="213.489" xlink:href="#lg2" y1="385.957" y2="435.103"/><linearGradient id="SVGID_28_" gradientTransform="matrix(-1 0 0 1 650.5 0)" gradientUnits="userSpaceOnUse" x1="304.843" x2="353.989" xlink:href="#lg2" y1="314.687" y2="363.834"/><linearGradient id="SVGID_29_" gradientTransform="matrix(-1 0 0 1 650.5 0)" gradientUnits="userSpaceOnUse" x1="268.137" x2="317.283" xlink:href="#lg2" y1="352.347" y2="401.493"/><linearGradient id="SVGID_30_" gradientTransform="matrix(-1 0 0 1 650.5 0)" gradientUnits="userSpaceOnUse" x1="304.843" x2="353.989" xlink:href="#lg2" y1="385.957" y2="435.103"/><g><g><path d="m438.011 510h-366.023c-8.71 0-15.771-7.061-15.771-15.771 0-84.142 68.211-152.353 152.353-152.353h92.859c84.142 0 152.353 68.211 152.353 152.353.001 8.71-7.06 15.771-15.771 15.771z" fill="url(#SVGID_1_)"/><path d="m56.217 494.229c0 8.71 7.061 15.771 15.771 15.771h366.023c8.71 0 15.771-7.061 15.771-15.771 0-22.427-4.848-43.722-13.55-62.895h-370.465c-8.702 19.173-13.55 40.467-13.55 62.895z" fill="url(#SVGID_2_)"/></g><path d="m453.783 494.229c0-84.143-68.211-152.354-152.353-152.354h-64.365v145.046l23.079 23.079h177.868c8.71 0 15.771-7.061 15.771-15.771z" fill="url(#SVGID_3_)"/><path d="m255 492.5c-17.472 0-31.635-14.163-31.635-31.635v-62.365h63.27v62.365c0 17.472-14.163 31.635-31.635 31.635z" fill="url(#SVGID_4_)"/><g><path d="m197.404 171.888-38.556-24.715c-23.131-14.827-53.412-11.854-73.217 7.189-11.646 11.198-18.227 26.656-18.227 42.812v130.454c0 28.126 22.8 50.926 50.926 50.926 24.725 0 45.879-17.76 50.158-42.112z" fill="url(#SVGID_5_)"/><path d="m312.596 171.888 38.556-24.715c23.131-14.827 53.412-11.854 73.217 7.189 11.646 11.198 18.227 26.656 18.227 42.812v130.454c0 28.126-22.8 50.926-50.926 50.926-24.725 0-45.879-17.76-50.158-42.112z" fill="url(#SVGID_6_)"/><path d="m312.596 171.888 38.556-24.715c23.131-14.827 53.412-11.854 73.217 7.189 11.646 11.198 18.227 26.656 18.227 42.812v130.454c0 28.126-22.8 50.926-50.926 50.926-24.725 0-45.879-17.76-50.158-42.112z" fill="url(#SVGID_7_)"/><path d="m424.369 154.362c-19.805-19.043-50.087-22.017-73.217-7.189l-38.556 24.715 21.581 122.812h108.419v-97.526c0-16.156-6.581-31.614-18.227-42.812z" fill="url(#SVGID_8_)"/></g><g><circle cx="255.98" cy="258.167" fill="url(#SVGID_9_)" r="124.865"/><circle cx="255.98" cy="258.167" fill="url(#SVGID_10_)" r="124.865"/><path d="m131.115 258.167c0 68.961 55.904 124.865 124.865 124.865s124.865-55.904 124.865-124.865c0-12.013-1.701-23.628-4.867-34.622h-239.995c-3.167 10.995-4.868 22.61-4.868 34.622z" fill="url(#SVGID_11_)"/><path d="m316.42 352.43c-16.29 14.6-37.82 23.48-61.42 23.48s-45.13-8.88-61.42-23.48c25.79-24.88 42.9-68.52 42.9-118.2 0-9.015-.565-17.831-1.643-26.372-1.02-8.085 5.025-15.295 13.152-15.905 2.314-.174 4.652-.262 7.011-.262s4.697.088 7.011.262c8.127.611 14.172 7.82 13.152 15.905-1.078 8.541-1.643 17.357-1.643 26.372 0 49.68 17.11 93.32 42.9 118.2z" fill="url(#SVGID_12_)"/><g><path d="m316.73 294.7c-24.351 0-97.147 0-121.499 0-43.998 0-79.665 35.667-79.665 79.665s35.667 79.665 79.665 79.665c24.351 0 46.136-10.938 60.749-28.155 14.613 17.216 36.398 28.155 60.749 28.155 43.998 0 79.665-35.667 79.665-79.665.001-43.997-35.666-79.665-79.664-79.665z" fill="url(#SVGID_13_)"/><circle cx="316.73" cy="374.366" fill="url(#SVGID_14_)" r="79.665"/></g><path d="m394.921 389.61-94.91-94.91c-24.496 0-61.842 0-86.776 0-3.463 8.518-3.083 18.656 2.745 27.487l14.222 21.548c1.596 2.418 3.463 4.495 5.517 6.256l101.397 101.397c29.303-7.737 51.983-31.745 57.805-61.778z" fill="url(#SVGID_15_)"/><path d="m230.202 343.735-14.222-21.548c-13.038-19.754 1.129-46.079 24.798-46.079h28.444c23.669 0 37.836 26.325 24.798 46.079l-14.222 21.548c-11.744 17.794-37.852 17.794-49.596 0z" fill="url(#SVGID_16_)"/><g><g><g><path d="m191.79 273.1c-14.05 0-25.439-11.39-25.439-25.44v-13.046c0-14.05 11.39-25.44 25.439-25.44 14.05 0 25.44 11.39 25.44 25.44v13.046c0 14.051-11.39 25.44-25.44 25.44z" fill="url(#SVGID_17_)"/><path d="m318.21 273.1c-14.05 0-25.44-11.39-25.44-25.44v-13.046c0-14.05 11.39-25.44 25.44-25.44 14.05 0 25.439 11.39 25.439 25.44v13.046c0 14.051-11.389 25.44-25.439 25.44z" fill="url(#SVGID_18_)"/></g></g></g></g><g><g><path d="m95.126 98.755c28.253-63.553 77.082-98.755 146.031-98.755h15.201c53.016 0 109.929 54.674 133.909 148.757h-267.817c4.072-15.978 9.095-30.818 14.887-44.448 6.69-15.742-11.794-30.124-25.534-19.938-5.867 4.35-11.452 9.151-16.677 14.384z" fill="url(#SVGID_19_)"/><path d="m360.335 74.378c12.326 20.876 22.65 45.806 29.932 74.378h-267.817c4.072-15.978 9.095-30.819 14.887-44.448 1.669-3.927 1.77-7.769.77-11.166.995 3.371.908 7.179-.722 11.074 4.554-10.711 9.589-20.661 15.007-29.838z" fill="url(#SVGID_20_)"/><path d="m95.126 98.755c5.223-5.234 10.815-10.033 16.678-14.387 13.703-10.163 32.151 4.148 25.582 19.849 28.307-66.572 74.975-104.217 118.973-104.217h-15.201c-68.95 0-117.779 35.202-146.032 98.755z" fill="url(#SVGID_21_)"/><circle cx="97.83" cy="89.037" fill="url(#SVGID_22_)" r="23.888"/></g><g><path d="m370.446 116.819c-8.101-.633-15.701 1.355-22.049 5.204-5.326 3.229-12.016 3.269-17.337.032-5.579-3.395-12.129-5.352-19.139-5.352-7.009 0-13.559 1.957-19.139 5.351-5.302 3.226-11.983 3.226-17.285 0-5.579-3.395-12.129-5.351-19.138-5.351s-13.559 1.957-19.139 5.351c-5.302 3.226-11.983 3.226-17.285 0-5.579-3.395-12.129-5.351-19.139-5.351-7.009 0-13.559 1.957-19.139 5.352-5.321 3.238-12.011 3.197-17.337-.032-6.348-3.848-13.947-5.836-22.048-5.204-18.061 1.41-32.612 16.106-33.857 34.179-1.485 21.566 15.57 39.522 36.818 39.522 7.009 0 13.559-1.957 19.139-5.351 5.302-3.226 11.983-3.226 17.285 0 5.579 3.395 12.129 5.351 19.138 5.351s13.559-1.957 19.139-5.351c5.302-3.226 11.983-3.226 17.285 0 5.579 3.395 12.129 5.351 19.139 5.351 7.009 0 13.559-1.957 19.138-5.351 5.302-3.226 11.983-3.226 17.285 0 5.579 3.395 12.129 5.351 19.139 5.351s13.559-1.957 19.139-5.351c5.302-3.226 11.983-3.226 17.285 0 5.579 3.395 12.129 5.351 19.138 5.351 21.248 0 38.303-17.955 36.818-39.521-1.242-18.073-15.793-32.769-33.854-34.18z" fill="url(#SVGID_23_)"/><path d="m108.337 153.612c.001 20.383 16.514 36.909 36.897 36.909 7.009 0 13.559-1.957 19.139-5.351 5.302-3.226 11.983-3.226 17.285 0 5.58 3.395 12.129 5.351 19.139 5.351 7.009 0 13.559-1.957 19.139-5.351 5.302-3.226 11.983-3.226 17.285 0 5.58 3.395 12.129 5.351 19.139 5.351 7.009 0 13.559-1.957 19.139-5.351 5.302-3.226 11.983-3.226 17.285 0 5.58 3.395 12.13 5.351 19.139 5.351s13.559-1.957 19.139-5.351c5.302-3.226 11.983-3.226 17.285 0 5.58 3.395 12.13 5.351 19.139 5.351 20.383 0 36.896-16.526 36.897-36.909z" fill="url(#SVGID_24_)"/></g></g><g><g><circle cx="183.687" cy="334.032" fill="url(#SVGID_25_)" r="14.578"/><circle cx="146.981" cy="371.691" fill="url(#SVGID_26_)" r="14.578"/><circle cx="183.687" cy="405.302" fill="url(#SVGID_27_)" r="14.578"/></g><g><circle cx="326.313" cy="334.032" fill="url(#SVGID_28_)" r="14.578"/><circle cx="363.019" cy="371.691" fill="url(#SVGID_29_)" r="14.578"/><circle cx="326.313" cy="405.302" fill="url(#SVGID_30_)" r="14.578"/></g></g></g></svg>