<svg id="Capa_1" enable-background="new 0 0 512 512" height="512" viewBox="0 0 512 512" width="512" xmlns="http://www.w3.org/2000/svg" xmlns:xlink="http://www.w3.org/1999/xlink"><linearGradient id="lg1"><stop offset="0" stop-color="#fffaf8"/><stop offset="1" stop-color="#ffdfcf"/></linearGradient><linearGradient id="SVGID_1_" gradientUnits="userSpaceOnUse" x1="57.169" x2="406.476" xlink:href="#lg1" y1="147.315" y2="369.73"/><linearGradient id="lg2"><stop offset="0" stop-color="#f89580" stop-opacity="0"/><stop offset=".2599" stop-color="#f2917c" stop-opacity=".261"/><stop offset=".5954" stop-color="#e2856f" stop-opacity=".597"/><stop offset=".9709" stop-color="#c8725b" stop-opacity=".974"/><stop offset=".9972" stop-color="#c5715a"/></linearGradient><linearGradient id="SVGID_00000154394451480886085630000007788529083976590987_" gradientUnits="userSpaceOnUse" x1="404.058" x2="486.395" xlink:href="#lg2" y1="261.359" y2="268.844"/><linearGradient id="SVGID_00000000935445792136070560000016942526503146624395_" gradientUnits="userSpaceOnUse" x1="373.264" x2="373.264" xlink:href="#lg2" y1="443.792" y2="537.318"/><linearGradient id="SVGID_00000054250756147359580840000018332293760708745117_" gradientUnits="userSpaceOnUse" x1="138.736" x2="138.736" xlink:href="#lg2" y1="443.792" y2="537.318"/><linearGradient id="SVGID_00000119818920876053909900000016305569595419023253_" gradientUnits="userSpaceOnUse" x1="307.233" x2="269.733" xlink:href="#lg2" y1="54.87" y2="11.881"/><linearGradient id="SVGID_00000011005184963333405060000015679381669171762569_" gradientUnits="userSpaceOnUse" x1="197.682" x2="241.314" xlink:href="#lg2" y1="61.427" y2="6.733"/><linearGradient id="SVGID_00000060022715389897047830000013987901703549945256_" gradientUnits="userSpaceOnUse" x1="331.955" x2="288.786" xlink:href="#lg2" y1="117.451" y2="17.377"/><linearGradient id="SVGID_00000070814715767273748950000001991365481294587271_" gradientUnits="userSpaceOnUse" x1="185.554" x2="223.465" xlink:href="#lg2" y1="104.504" y2="18.877"/><linearGradient id="SVGID_00000100369211181392785280000015516011994224172178_" gradientUnits="userSpaceOnUse" x1="336.978" x2="299.526" xlink:href="#lg2" y1="154.827" y2="55.177"/><linearGradient id="SVGID_00000056419576444816791950000004141065564542759841_" gradientUnits="userSpaceOnUse" x1="179.622" x2="208.351" xlink:href="#lg2" y1="141.041" y2="56.19"/><linearGradient id="SVGID_00000009565701674853480700000004178176460897608870_" gradientUnits="userSpaceOnUse" x1="118.031" x2="37.714" xlink:href="#lg2" y1="295.901" y2="265.961"/><linearGradient id="SVGID_00000114752614663663821260000014606561370030749060_" gradientUnits="userSpaceOnUse" x1="133.241" x2="176.489" xlink:href="#lg2" y1="328.17" y2="314.863"/><linearGradient id="SVGID_00000103968177527487295140000013966745942143109286_" gradientUnits="userSpaceOnUse" x1="394.649" x2="475.917" xlink:href="#lg2" y1="293.29" y2="260.498"/><linearGradient id="SVGID_00000049220531688109781810000014054394893263292073_" gradientUnits="userSpaceOnUse" x1="384.4" x2="344.479" xlink:href="#lg2" y1="329.934" y2="317.578"/><linearGradient id="SVGID_00000169539436792713224960000004181271267871343802_" gradientUnits="userSpaceOnUse" x1="113.049" x2="113.76" xlink:href="#lg1" y1="145.479" y2="146.19"/><linearGradient id="SVGID_00000121279286118881822370000013821218978850606006_" gradientUnits="userSpaceOnUse" x1="196.937" x2="353.84" y1="297.055" y2="297.055"><stop offset="0" stop-color="#ffbf51"/><stop offset="1" stop-color="#c5715a"/></linearGradient><linearGradient id="lg3"><stop offset="0" stop-color="#c4573a" stop-opacity="0"/><stop offset=".2529" stop-color="#ba5338" stop-opacity=".253"/><stop offset=".6769" stop-color="#a04933" stop-opacity=".677"/><stop offset="1" stop-color="#883f2e"/></linearGradient><linearGradient id="SVGID_00000009568516314764138060000009698884976168840078_" gradientUnits="userSpaceOnUse" x1="295.246" x2="372.835" xlink:href="#lg3" y1="298.28" y2="313.94"/><linearGradient id="SVGID_00000111890095750747931620000015319345843311497345_" gradientUnits="userSpaceOnUse" x1="256" x2="256" xlink:href="#lg3" y1="178.604" y2="96.512"/><linearGradient id="SVGID_00000172404606165416856980000007442634278018267833_" gradientUnits="userSpaceOnUse" x1="256" x2="256" xlink:href="#lg3" y1="412.076" y2="496.558"/><linearGradient id="SVGID_00000099657989079819557770000011964876788239036343_" gradientUnits="userSpaceOnUse" x1="298.442" x2="248.898" xlink:href="#lg3" y1="460.821" y2="374.563"/><linearGradient id="lg4"><stop offset="0" stop-color="#5a5a5a"/><stop offset="1" stop-color="#444"/></linearGradient><linearGradient id="SVGID_00000071561961514808494320000014832096645121559728_" gradientUnits="userSpaceOnUse" x1="251.199" x2="261.892" xlink:href="#lg4" y1="391.727" y2="418.46"/><linearGradient id="SVGID_00000177463979579160962690000014672293951399195839_" gradientUnits="userSpaceOnUse" x1="169.192" x2="206.099" xlink:href="#lg4" y1="189.367" y2="216.534"/><linearGradient id="SVGID_00000085947868014852797230000006367760341198171295_" gradientUnits="userSpaceOnUse" x1="306.334" x2="339.14" xlink:href="#lg4" y1="187.776" y2="212.381"/><g><path d="m458.994 322.848c0-14.758-3.733-28.64-10.303-40.761-7.902-14.577-7.902-32.154 0-46.731 6.57-12.121 10.303-26.004 10.303-40.761 0-28.647-14.053-54.008-35.64-69.574-12.737-9.185-20.594-23.688-20.623-39.392-.001-.451-.005-.903-.012-1.356-.775-46.008-38.407-83.581-84.416-84.264-17.693-.263-34.173 4.843-47.931 13.787-8.756 5.692-19.989 5.692-28.745 0-13.757-8.943-30.237-14.049-47.93-13.786-46.009.683-83.641 38.256-84.416 84.264-.008.453-.012.905-.012 1.356-.029 15.703-7.885 30.207-20.623 39.392-21.587 15.566-35.64 40.927-35.64 69.574 0 14.758 3.733 28.64 10.303 40.761 7.902 14.577 7.902 32.154 0 46.731-6.57 12.121-10.303 26.003-10.303 40.761 0 11.599 2.306 22.657 6.483 32.746 5.006 12.091 5.114 25.661.079 37.74-4.343 10.419-6.69 21.878-6.557 33.903.507 45.92 37.776 83.674 83.687 84.739 48.279 1.12 87.769-37.682 87.769-85.707 0-19.425-6.469-37.335-17.359-51.711 10.89-14.376 17.359-32.285 17.359-51.71 0-25.52-11.163-48.422-28.858-64.127 17.695-15.705 28.858-38.607 28.858-64.127 0-9.396-1.533-18.428-4.326-26.888 4.564-1.398 8.966-3.168 13.169-5.274 14.237-7.133 31.143-7.133 45.38 0 4.204 2.106 8.605 3.876 13.169 5.274-2.793 8.46-4.326 17.492-4.326 26.888 0 25.52 11.163 48.422 28.858 64.127-17.695 15.705-28.858 38.607-28.858 64.127 0 19.425 6.469 37.335 17.359 51.71-10.89 14.376-17.359 32.285-17.359 51.711 0 48.025 39.489 86.827 87.769 85.707 45.911-1.065 83.18-38.819 83.687-84.739.133-12.024-2.214-23.484-6.557-33.903-5.035-12.079-4.927-25.649.079-37.74 4.177-10.089 6.483-21.148 6.483-32.747z" fill="url(#SVGID_1_)"/><path d="m458.995 194.595c0-28.647-14.053-54.008-35.64-69.574-12.738-9.184-20.594-23.688-20.623-39.392-.001-.451-.005-.903-.012-1.356-.775-46.008-38.407-83.581-84.416-84.264-17.694-.263-34.173 4.843-47.931 13.787-4.161 2.705-8.882 4.109-13.63 4.243v139.065c7.537.11 15.055 1.875 21.948 5.328 4.204 2.106 8.605 3.876 13.169 5.274-2.793 8.46-4.326 17.492-4.326 26.888 0 25.52 11.163 48.422 28.858 64.127-17.695 15.705-28.858 38.607-28.858 64.127 0 19.425 6.469 37.335 17.359 51.71-10.89 14.376-17.359 32.285-17.359 51.711 0 48.025 39.49 86.827 87.769 85.707 45.91-1.065 83.18-38.819 83.687-84.739.133-12.024-2.214-23.484-6.557-33.903-5.035-12.078-4.927-25.649.079-37.74 4.177-10.088 6.483-21.147 6.483-32.746 0-14.758-3.733-28.64-10.304-40.761-7.901-14.577-7.901-32.154 0-46.731 6.57-12.121 10.304-26.003 10.304-40.761z" fill="url(#SVGID_00000154394451480886085630000007788529083976590987_)"/><g><path d="m287.533 322.848c0 19.425 6.469 37.335 17.359 51.71-10.89 14.376-17.359 32.285-17.359 51.711 0 48.025 39.49 86.827 87.769 85.707 45.91-1.065 83.18-38.819 83.687-84.739.133-12.024-2.214-23.484-6.557-33.903-5.035-12.078-4.927-25.649.079-37.74 4.177-10.088 6.483-21.147 6.483-32.746 0-.88-.015-1.757-.042-2.631h-171.376c-.026.875-.043 1.751-.043 2.631z" fill="url(#SVGID_00000000935445792136070560000016942526503146624395_)"/><path d="m59.568 393.334c-4.343 10.419-6.69 21.878-6.557 33.903.507 45.92 37.777 83.674 83.687 84.739 48.279 1.12 87.769-37.682 87.769-85.707 0-19.425-6.469-37.335-17.359-51.711 10.89-14.376 17.359-32.285 17.359-51.71 0-.88-.016-1.757-.043-2.631h-171.377c-.026.874-.042 1.75-.042 2.631 0 11.599 2.307 22.657 6.483 32.746 5.007 12.091 5.115 25.662.08 37.74z" fill="url(#SVGID_00000054250756147359580840000018332293760708745117_)"/></g><g><g opacity=".55"><ellipse cx="326.4" cy="76.841" fill="url(#SVGID_00000119818920876053909900000016305569595419023253_)" rx="69.754" ry="67.452"/><ellipse cx="185.385" cy="76.841" fill="url(#SVGID_00000011005184963333405060000015679381669171762569_)" rx="69.754" ry="67.452"/></g><g opacity=".55"><ellipse cx="331.663" cy="116.772" fill="url(#SVGID_00000060022715389897047830000013987901703549945256_)" rx="74.961" ry="65.719"/><ellipse cx="180.122" cy="116.772" fill="url(#SVGID_00000070814715767273748950000001991365481294587271_)" rx="74.961" ry="65.719"/></g><g opacity=".55"><ellipse cx="335.485" cy="150.854" fill="url(#SVGID_00000100369211181392785280000015516011994224172178_)" rx="78.743" ry="61.73"/><ellipse cx="176.3" cy="150.854" fill="url(#SVGID_00000056419576444816791950000004141065564542759841_)" rx="78.743" ry="61.73"/></g></g><g><path d="m229.42 164.26c-3 1.32-6.1 2.48-9.28 3.45 2.79 8.46 4.33 17.49 4.33 26.88 0 25.52-11.17 48.43-28.86 64.13 17.69 15.71 28.86 38.61 28.86 64.13 0 19.42-6.47 37.33-17.36 51.71 10.89 14.37 17.36 32.28 17.36 51.71 0 38.48-25.36 71.03-60.27 81.88-34.62-10.78-60.03-43.06-60.45-80.91-.13-12.03 2.22-23.49 6.56-33.91 5.03-12.07 4.93-25.65-.08-37.74-4.18-10.08-6.48-21.14-6.48-32.74 0-14.76 3.73-28.64 10.3-40.76 7.9-14.58 7.9-32.16 0-46.73-6.57-12.13-10.3-26.01-10.3-40.77 0-19.71 6.65-37.86 17.84-52.34h107.83z" fill="url(#SVGID_00000009565701674853480700000004178176460897608870_)"/><path d="m229.42 164.26c-3 1.32-6.1 2.48-9.28 3.45 2.79 8.46 4.33 17.49 4.33 26.88 0 25.52-11.17 48.43-28.86 64.13 17.69 15.71 28.86 38.61 28.86 64.13 0 19.42-6.47 37.33-17.36 51.71 10.89 14.37 17.36 32.28 17.36 51.71 0 38.48-25.36 71.03-60.27 81.88-34.62-10.78-60.03-43.06-60.45-80.91-.13-12.03 2.22-23.49 6.56-33.91 5.03-12.07 4.93-25.65-.08-37.74-4.18-10.08-6.48-21.14-6.48-32.74 0-14.76 3.73-28.64 10.3-40.76 7.9-14.58 7.9-32.16 0-46.73-6.57-12.13-10.3-26.01-10.3-40.77 0-19.71 6.65-37.86 17.84-52.34h107.83z" fill="url(#SVGID_00000114752614663663821260000014606561370030749060_)"/><path d="m401.77 355.59c-5.01 12.09-5.11 25.67-.08 37.74 4.34 10.42 6.69 21.88 6.56 33.91-.42 37.85-25.83 70.13-60.45 80.91-34.91-10.85-60.27-43.4-60.27-81.88 0-19.43 6.47-37.34 17.36-51.71-10.89-14.38-17.36-32.29-17.36-51.71 0-25.52 11.17-48.42 28.86-64.13-17.69-15.7-28.86-38.61-28.86-64.13 0-9.39 1.54-18.42 4.33-26.88-3.18-.97-6.28-2.13-9.28-3.45v-22.01h107.83c11.19 14.48 17.84 32.63 17.84 52.34 0 14.76-3.73 28.64-10.3 40.77-7.9 14.57-7.9 32.15 0 46.73 6.57 12.12 10.3 26 10.3 40.76 0 11.6-2.3 22.66-6.48 32.74z" fill="url(#SVGID_00000103968177527487295140000013966745942143109286_)"/><path d="m401.77 355.59c-5.01 12.09-5.11 25.67-.08 37.74 4.34 10.42 6.69 21.88 6.56 33.91-.42 37.85-25.83 70.13-60.45 80.91-34.91-10.85-60.27-43.4-60.27-81.88 0-19.43 6.47-37.34 17.36-51.71-10.89-14.38-17.36-32.29-17.36-51.71 0-25.52 11.17-48.42 28.86-64.13-17.69-15.7-28.86-38.61-28.86-64.13 0-9.39 1.54-18.42 4.33-26.88-3.18-.97-6.28-2.13-9.28-3.45v-22.01h107.83c11.19 14.48 17.84 32.63 17.84 52.34 0 14.76-3.73 28.64-10.3 40.77-7.9 14.57-7.9 32.15 0 46.73 6.57 12.12 10.3 26 10.3 40.76 0 11.6-2.3 22.66-6.48 32.74z" fill="url(#SVGID_00000049220531688109781810000014054394893263292073_)"/></g><path d="m113.42 144.87c0 .66.01 1.31.03 1.97l-.01.01c-.01-.66-.02-1.32-.02-1.98z" fill="url(#SVGID_00000169539436792713224960000004181271267871343802_)"/><g><g><path d="m383.119 135.181c8.979 5.518 13.213 16.338 10.801 26.597l-57.91 246.392-3.74 15.9c-6.68 28.42-32.04 48.51-61.24 48.51h-30.06c-29.2 0-54.56-20.09-61.24-48.51l-3.74-15.9-57.918-246.423c-2.307-9.817 1.415-20.258 9.774-25.899.403-.272.815-.535 1.234-.788 14.24-8.59 30.93-13.53 48.77-13.53 24.25 0 46.36 9.12 63.1 24.12 8.54 7.64 21.56 7.64 30.1 0 16.74-15 38.85-24.12 63.1-24.12 17.84 0 34.53 4.94 48.77 13.53.067.04.133.081.199.121z" fill="url(#SVGID_00000121279286118881822370000013821218978850606006_)"/><path d="m382.92 135.06c-14.24-8.59-30.93-13.53-48.77-13.53-24.25 0-46.36 9.12-63.1 24.12-8.54 7.64-21.56 7.64-30.1 0-9.846-8.823-21.559-15.589-34.463-19.684v336.314c9.983 6.547 21.873 10.3 34.483 10.3h30.06c29.2 0 54.56-20.09 61.24-48.51l3.74-15.9 57.918-246.423c2.307-9.817-1.415-20.258-9.774-25.899-.403-.272-.815-.535-1.234-.788z" fill="url(#SVGID_00000009568516314764138060000009698884976168840078_)"/><path d="m382.92 135.06c-14.24-8.59-30.93-13.53-48.77-13.53-24.25 0-46.36 9.12-63.1 24.12-8.54 7.64-21.56 7.64-30.1 0-16.74-15-38.85-24.12-63.1-24.12-17.84 0-34.53 4.94-48.77 13.53-.42.253-.831.516-1.234.788-8.359 5.641-12.081 16.082-9.774 25.899l24.181 102.885h227.493l24.181-102.885c2.307-9.817-1.415-20.258-9.774-25.899-.402-.272-.814-.535-1.233-.788z" fill="url(#SVGID_00000111890095750747931620000015319345843311497345_)"/><path d="m155.812 322.304 23.919 101.768c6.68 28.423 32.039 48.513 61.237 48.513h30.065c29.197 0 54.556-20.09 61.237-48.513l23.919-101.768z" fill="url(#SVGID_00000172404606165416856980000007442634278018267833_)"/><path d="m329.444 433.004-44.893-44.893-56.61 31.756 52.066 52.066c22.235-3.193 41.123-18.08 49.437-38.929z" fill="url(#SVGID_00000099657989079819557770000011964876788239036343_)"/><path d="m273.955 426.3 5.195-2.819c7.177-3.894 11.646-11.404 11.646-19.569v-.347c0-12.296-9.968-22.264-22.264-22.264h-25.063c-12.296 0-22.264 9.968-22.264 22.264v.347c0 8.165 4.469 15.675 11.646 19.569l5.195 2.819c11.198 6.076 24.71 6.076 35.909 0z" fill="url(#SVGID_00000071561961514808494320000014832096645121559728_)"/></g></g><g><path d="m186.529 235.526c-14.681 0-26.582-11.901-26.582-26.582v-13.632c0-14.681 11.901-26.582 26.582-26.582 14.681 0 26.582 11.901 26.582 26.582v13.632c0 14.681-11.901 26.582-26.582 26.582z" fill="url(#SVGID_00000177463979579160962690000014672293951399195839_)"/><path d="m325.471 235.526c-14.681 0-26.582-11.901-26.582-26.582v-13.632c0-14.681 11.901-26.582 26.582-26.582 14.681 0 26.582 11.901 26.582 26.582v13.632c0 14.681-11.901 26.582-26.582 26.582z" fill="url(#SVGID_00000085947868014852797230000006367760341198171295_)"/></g></g></svg>