<svg id="Capa_1" enable-background="new 0 0 512 512" height="512" viewBox="0 0 512 512" width="512" xmlns="http://www.w3.org/2000/svg" xmlns:xlink="http://www.w3.org/1999/xlink"><linearGradient id="lg1"><stop offset="0" stop-color="#f89580"/><stop offset="1" stop-color="#c4573a"/></linearGradient><linearGradient id="SVGID_1_" gradientUnits="userSpaceOnUse" x1="85.632" x2="185.434" xlink:href="#lg1" y1="111.518" y2="145.736"/><linearGradient id="lg2"><stop offset="0" stop-color="#c4573a" stop-opacity="0"/><stop offset=".2529" stop-color="#ba5338" stop-opacity=".253"/><stop offset=".6769" stop-color="#a04933" stop-opacity=".677"/><stop offset="1" stop-color="#883f2e"/></linearGradient><linearGradient id="SVGID_00000104704436353940170520000016947676420713320111_" gradientUnits="userSpaceOnUse" x1="115.13" x2="170.734" xlink:href="#lg2" y1="133.018" y2="112.344"/><linearGradient id="SVGID_00000051362288401273004700000002884156887722920086_" gradientUnits="userSpaceOnUse" x1="117.172" x2="164.935" xlink:href="#lg2" y1="138.722" y2="185.771"/><linearGradient id="lg3"><stop offset="0" stop-color="#5a5a5a"/><stop offset="1" stop-color="#444"/></linearGradient><linearGradient id="SVGID_00000073685199661469303690000000805256517167996827_" gradientUnits="userSpaceOnUse" x1="143.308" x2="186.794" xlink:href="#lg3" y1="124.587" y2="119.597"/><linearGradient id="SVGID_00000147914761727435933390000010280727573140405386_" gradientTransform="matrix(-1 0 0 1 806.198 0)" gradientUnits="userSpaceOnUse" x1="379.83" x2="479.632" xlink:href="#lg1" y1="111.518" y2="145.736"/><linearGradient id="SVGID_00000091719439549802999450000008156259700153654437_" gradientTransform="matrix(-1 0 0 1 806.198 0)" gradientUnits="userSpaceOnUse" x1="409.327" x2="464.931" xlink:href="#lg2" y1="133.018" y2="112.344"/><linearGradient id="SVGID_00000090276165502233236350000014552102689981610387_" gradientUnits="userSpaceOnUse" x1="410.184" x2="460.085" xlink:href="#lg2" y1="129.332" y2="135.035"/><linearGradient id="SVGID_00000042017189658687341070000018268002741067924394_" gradientTransform="matrix(-1 0 0 1 806.198 0)" gradientUnits="userSpaceOnUse" x1="411.37" x2="459.132" xlink:href="#lg2" y1="138.722" y2="185.771"/><linearGradient id="SVGID_00000090294890703673120270000013541141549506511755_" gradientTransform="matrix(-1 0 0 1 806.198 0)" gradientUnits="userSpaceOnUse" x1="437.506" x2="480.991" xlink:href="#lg3" y1="124.587" y2="119.597"/><linearGradient id="SVGID_00000019651050856120823120000003387506371760067720_" gradientUnits="userSpaceOnUse" x1="259.625" x2="274.595" xlink:href="#lg3" y1="475.508" y2="500.102"/><linearGradient id="lg4"><stop offset="0" stop-color="#433f43" stop-opacity="0"/><stop offset=".2995" stop-color="#3e3b3e" stop-opacity=".3"/><stop offset=".6425" stop-color="#302e30" stop-opacity=".643"/><stop offset="1" stop-color="#1a1a1a"/></linearGradient><linearGradient id="SVGID_00000033355143022951439090000005834441294610180239_" gradientUnits="userSpaceOnUse" x1="256" x2="256" xlink:href="#lg4" y1="491.48" y2="516.282"/><linearGradient id="SVGID_00000041282383429132091720000013270844008540892853_" gradientUnits="userSpaceOnUse" x1="278.509" x2="261.4" xlink:href="#lg4" y1="503.58" y2="477.56"/><linearGradient id="SVGID_00000052786543399700365900000007069012328171551908_" gradientUnits="userSpaceOnUse" x1="175.9" x2="321.021" xlink:href="#lg3" y1="309.612" y2="309.612"/><linearGradient id="SVGID_00000036230982673616102690000008958768458912768182_" gradientUnits="userSpaceOnUse" x1="246.986" x2="331.462" xlink:href="#lg4" y1="389.407" y2="398.674"/><linearGradient id="SVGID_00000005246089488771091470000017637523075536117654_" gradientUnits="userSpaceOnUse" x1="300.283" x2="372.283" xlink:href="#lg4" y1="324.173" y2="344.133"/><linearGradient id="lg5"><stop offset="0" stop-color="#433f43" stop-opacity="0"/><stop offset=".4672" stop-color="#413d41" stop-opacity=".467"/><stop offset=".6879" stop-color="#393639" stop-opacity=".688"/><stop offset=".8563" stop-color="#2c2b2c" stop-opacity=".856"/><stop offset=".9982" stop-color="#1a1a1a" stop-opacity=".998"/><stop offset="1" stop-color="#1a1a1a"/></linearGradient><linearGradient id="SVGID_00000142142423975555796460000016350102754671361184_" gradientUnits="userSpaceOnUse" x1="384.119" x2="272.255" xlink:href="#lg5" y1="279.034" y2="186.379"/><linearGradient id="SVGID_00000061430449908546340690000005627226230618868402_" gradientUnits="userSpaceOnUse" x1="256" x2="256" xlink:href="#lg4" y1="443.511" y2="509.747"/><linearGradient id="SVGID_00000072270600433001160000000014963348798719900849_" gradientUnits="userSpaceOnUse" x1="295.55" x2="257.531" xlink:href="#lg4" y1="511.909" y2="444.424"/><linearGradient id="SVGID_00000165207597412722541140000018235128419763260041_" gradientUnits="userSpaceOnUse" x1="249.475" x2="263.185" xlink:href="#lg3" y1="444.152" y2="471.571"/><linearGradient id="SVGID_00000028295778331064969580000015287283408664311468_" gradientUnits="userSpaceOnUse" x1="208.969" x2="270.989" xlink:href="#lg4" y1="376.117" y2="483.047"/><linearGradient id="SVGID_00000105426962353333229170000011323941249197733558_" gradientUnits="userSpaceOnUse" x1="117.069" x2="204.039" xlink:href="#lg4" y1="183.163" y2="292.233"/><linearGradient id="SVGID_00000003097787009970961930000007126983725770705061_" gradientUnits="userSpaceOnUse" x1="285.049" x2="342.079" xlink:href="#lg4" y1="201.556" y2="278.546"/><linearGradient id="SVGID_00000088817019850384687870000001866452736366231472_" gradientUnits="userSpaceOnUse" x1="238.573" x2="208.632" xlink:href="#lg5" y1="199.288" y2="183.605"/><linearGradient id="SVGID_00000165926669846418927810000017621020250111991208_" gradientUnits="userSpaceOnUse" x1="251.601" x2="226.651" xlink:href="#lg5" y1="226.153" y2="213.084"/><linearGradient id="SVGID_00000163067316022574848010000005425902018548887721_" gradientUnits="userSpaceOnUse" x1="238.782" x2="282.286" y1="155.315" y2="155.315"><stop offset="0" stop-color="#b9acac"/><stop offset="1" stop-color="#766e6e"/></linearGradient><linearGradient id="SVGID_00000098913602817997602570000003238178006318935998_" gradientUnits="userSpaceOnUse" x1="282.032" x2="324.091" xlink:href="#lg5" y1="149.463" y2="140.552"/><linearGradient id="SVGID_00000085943003488989330460000018173204364658126508_" gradientUnits="userSpaceOnUse" x1="256" x2="256" xlink:href="#lg5" y1="181.455" y2="245.258"/><linearGradient id="SVGID_00000040545663397439842010000010763470327172563632_" gradientUnits="userSpaceOnUse" x1="282.744" x2="272.942" xlink:href="#lg5" y1="145.944" y2="155.389"/><linearGradient id="SVGID_00000031904286010356042050000001144025554131303595_" gradientUnits="userSpaceOnUse" x1="291.895" x2="277.4" xlink:href="#lg5" y1="191.877" y2="199.481"/><g><g><g><path d="m213.942 190.74s-57.173-181.688-108.583-190.451-29.794 184.609-24.536 203.303 54.915 55.5 91.72 46.736c36.805-8.762 41.399-59.588 41.399-59.588z" fill="url(#SVGID_1_)"/><path d="m213.942 190.74s-57.173-181.688-108.583-190.451-29.794 184.609-24.536 203.303 54.915 55.5 91.72 46.736c36.805-8.762 41.399-59.588 41.399-59.588z" fill="url(#SVGID_00000104704436353940170520000016947676420713320111_)"/><path d="m80.823 203.592c5.258 18.695 54.915 55.5 91.72 46.736s41.4-59.589 41.4-59.589-16.264-51.68-39.241-101.245h-102.841c-.581 50.192 6.295 104.616 8.962 114.098z" fill="url(#SVGID_00000051362288401273004700000002884156887722920086_)"/><path d="m105.359.289c-4.162-.709-7.843-.087-11.096 1.654 50.053 20.215 105.887 188.797 105.887 188.797s-7.595 50.826-44.4 59.589c-1.208.288-2.43.523-3.664.715 7.01.954 13.935.838 20.456-.715 36.805-8.763 44.4-59.589 44.4-59.589s-60.173-181.688-111.583-190.451z" fill="url(#SVGID_00000073685199661469303690000000805256517167996827_)"/></g><g><path d="m298.058 190.74s57.173-181.688 108.583-190.451 29.794 184.609 24.537 203.304-54.915 55.5-91.72 46.736c-36.806-8.763-41.4-59.589-41.4-59.589z" fill="url(#SVGID_00000147914761727435933390000010280727573140405386_)"/><path d="m298.058 190.74s57.173-181.688 108.583-190.451 29.794 184.609 24.537 203.304-54.915 55.5-91.72 46.736c-36.806-8.763-41.4-59.589-41.4-59.589z" fill="url(#SVGID_00000091719439549802999450000008156259700153654437_)"/><path d="m298.058 190.74s57.173-181.688 108.583-190.451 29.794 184.609 24.537 203.304-54.915 55.5-91.72 46.736c-36.806-8.763-41.4-59.589-41.4-59.589z" fill="url(#SVGID_00000090276165502233236350000014552102689981610387_)"/><path d="m431.177 203.592c-5.258 18.695-54.915 55.5-91.72 46.736s-41.4-59.589-41.4-59.589 16.264-51.68 39.241-101.245h102.84c.582 50.192-6.294 104.616-8.961 114.098z" fill="url(#SVGID_00000042017189658687341070000018268002741067924394_)"/><path d="m406.641.289c4.162-.709 7.843-.087 11.096 1.654-50.053 20.215-105.887 188.797-105.887 188.797s7.595 50.826 44.4 59.589c1.208.288 2.43.523 3.664.715-7.01.954-13.935.838-20.456-.715-36.805-8.763-44.4-59.589-44.4-59.589s60.173-181.688 111.583-190.451z" fill="url(#SVGID_00000090294890703673120270000013541141549506511755_)"/></g></g><g><g><path d="m265.279 512h-18.557c-14.733 0-26.178-11.954-24.5-25.589l6.582-53.479h54.393l6.582 53.479c1.678 13.635-9.768 25.589-24.5 25.589z" fill="url(#SVGID_00000019651050856120823120000003387506371760067720_)"/><path d="m265.279 512h-18.557c-14.733 0-26.178-11.954-24.5-25.589l6.582-53.479h54.393l6.582 53.479c1.678 13.635-9.768 25.589-24.5 25.589z" fill="url(#SVGID_00000033355143022951439090000005834441294610180239_)"/><path d="m265.279 512h-18.557c-14.733 0-26.178-11.954-24.5-25.589l6.582-53.479h54.393l6.582 53.479c1.678 13.635-9.768 25.589-24.5 25.589z" fill="url(#SVGID_00000041282383429132091720000013270844008540892853_)"/></g><g><path d="m307.794 129.416c-32.605-14.725-70.983-14.725-103.588 0-58.474 22.695-90.48 80.023-75.919 135.984l46.423 178.422c2.487 9.558 7.404 23.511 14.078 37.108 12.238 24.934 50.614 26.893 66.022 3.436l1.19-1.812 1.19 1.812c15.408 23.457 53.785 21.498 66.022-3.436 6.673-13.597 11.591-27.55 14.078-37.108l46.423-178.422c14.562-55.96-17.445-113.289-75.919-135.984z" fill="url(#SVGID_00000052786543399700365900000007069012328171551908_)"/><path d="m256.839 276.267h-1.673c-33.466 0-63.003 76.615-73.291 189.003 2.017 5.091 4.332 10.4 6.913 15.659 12.238 24.934 50.614 26.893 66.022 3.436l1.19-1.812 1.19 1.812c15.408 23.457 53.784 21.498 66.022-3.436 2.583-5.262 4.899-10.575 6.916-15.669-10.287-112.382-39.824-188.993-73.289-188.993z" fill="url(#SVGID_00000036230982673616102690000008958768458912768182_)"/><path d="m307.794 129.416c-26.815-12.11-57.531-14.251-85.732-6.443v377.854c12.587.217 25.329-5.167 32.748-16.461l1.19-1.812 1.19 1.812c15.408 23.457 53.785 21.498 66.022-3.436 6.673-13.597 11.591-27.55 14.078-37.108l46.423-178.422c14.562-55.96-17.445-113.289-75.919-135.984z" fill="url(#SVGID_00000005246089488771091470000017637523075536117654_)"/><path d="m383.713 265.4c14.561-55.961-17.445-113.289-75.919-135.984-20.141-9.096-42.483-12.567-64.308-10.423v118.9l116.954 116.955z" fill="url(#SVGID_00000142142423975555796460000016350102754671361184_)"/><path d="m151.258 353.689 23.452 90.133c2.487 9.558 7.405 23.511 14.078 37.108 12.238 24.934 50.614 26.893 66.022 3.436l1.19-1.812 1.19 1.812c15.408 23.457 53.785 21.498 66.022-3.436 6.673-13.597 11.591-27.55 14.078-37.108l23.452-90.133z" fill="url(#SVGID_00000061430449908546340690000005627226230618868402_)"/><path d="m322.963 481.394-37.307-37.307-56.279 29.535 18.495 18.495c2.619-2.173 4.968-4.751 6.938-7.75l1.19-1.812 1.19 1.812c15.31 23.306 53.284 21.51 65.773-2.973z" fill="url(#SVGID_00000072270600433001160000000014963348798719900849_)"/><path d="m273.515 479.218 5.067-2.749c7-3.798 11.36-11.124 11.36-19.088v-.338c0-11.994-9.723-21.717-21.717-21.717h-24.446c-11.994 0-21.717 9.723-21.717 21.717v.338c0 7.964 4.36 15.29 11.36 19.088l5.067 2.749c10.923 5.927 24.103 5.927 35.026 0z" fill="url(#SVGID_00000165207597412722541140000018235128419763260041_)"/><path d="m273.515 479.218 5.067-2.749c7-3.798 11.36-11.124 11.36-19.088v-.338c0-11.994-9.723-21.717-21.717-21.717h-24.446c-11.994 0-21.717 9.723-21.717 21.717v.338c0 7.964 4.36 15.29 11.36 19.088l5.067 2.749c10.923 5.927 24.103 5.927 35.026 0z" fill="url(#SVGID_00000028295778331064969580000015287283408664311468_)"/><g><path d="m181.096 296.036c-14.32 0-25.928-11.608-25.928-25.928v-13.297c0-14.32 11.608-25.928 25.928-25.928 14.32 0 25.928 11.608 25.928 25.928v13.297c.001 14.32-11.608 25.928-25.928 25.928z" fill="url(#SVGID_00000105426962353333229170000011323941249197733558_)"/><path d="m330.904 296.036c-14.32 0-25.928-11.608-25.928-25.928v-13.297c0-14.32 11.608-25.928 25.928-25.928 14.32 0 25.928 11.608 25.928 25.928v13.297c0 14.32-11.609 25.928-25.928 25.928z" fill="url(#SVGID_00000003097787009970961930000007126983725770705061_)"/></g></g></g><path d="m201.573 192.97 20.511 20.51v-45.658h-20.511z" fill="url(#SVGID_00000088817019850384687870000001866452736366231472_)"/><path d="m252.817 204.356v44.867l-31.233-31.233v-13.634z" fill="url(#SVGID_00000165926669846418927810000017621020250111991208_)"/><g><path d="m318.25 153.061c0-47.25-27.87-85.55-62.25-85.55s-62.25 38.3-62.25 85.55c0 14.002 2.447 27.22 6.79 38.886.54 1.452 2.561 1.514 3.223.113 4.157-8.796 9.46-16.475 15.617-22.639-1.574 6.597-2.437 13.732-2.437 21.183 0 9.534 1.408 18.557 3.92 26.589.414 1.322 2.248 1.384 2.801.114 1.121-2.571 2.365-5.002 3.718-7.271 6.58 20.104 16.948 33.082 28.618 33.082s22.038-12.979 28.618-33.082c1.354 2.269 2.598 4.7 3.718 7.271.554 1.27 2.388 1.208 2.801-.114 2.512-8.032 3.92-17.055 3.92-26.589 0-7.451-.864-14.586-2.437-21.183 6.157 6.165 11.459 13.844 15.617 22.639.662 1.4 2.682 1.338 3.223-.113 4.343-11.666 6.79-24.884 6.79-38.886z" fill="url(#SVGID_00000163067316022574848010000005425902018548887721_)"/><path d="m318.25 153.061c0-47.25-27.87-85.55-62.25-85.55s-62.25 38.3-62.25 85.55c0 14.002 2.447 27.22 6.79 38.886.54 1.452 2.561 1.514 3.223.113 4.157-8.796 9.46-16.475 15.617-22.639-1.574 6.597-2.437 13.732-2.437 21.183 0 9.534 1.408 18.557 3.92 26.589.414 1.322 2.248 1.384 2.801.114 1.121-2.571 2.365-5.002 3.718-7.271 6.58 20.104 16.948 33.082 28.618 33.082s22.038-12.979 28.618-33.082c1.354 2.269 2.598 4.7 3.718 7.271.554 1.27 2.388 1.208 2.801-.114 2.512-8.032 3.92-17.055 3.92-26.589 0-7.451-.864-14.586-2.437-21.183 6.157 6.165 11.459 13.844 15.617 22.639.662 1.4 2.682 1.338 3.223-.113 4.343-11.666 6.79-24.884 6.79-38.886z" fill="url(#SVGID_00000098913602817997602570000003238178006318935998_)"/><path d="m194.027 161.139c.75 11.008 3.016 21.412 6.513 30.808.54 1.452 2.561 1.514 3.223.113 4.157-8.796 9.46-16.475 15.617-22.639-1.574 6.597-2.437 13.732-2.437 21.183 0 9.534 1.408 18.557 3.92 26.589.414 1.322 2.248 1.384 2.801.114 1.121-2.571 2.365-5.001 3.718-7.271 6.58 20.104 16.948 33.082 28.618 33.082s22.038-12.979 28.618-33.082c1.354 2.269 2.598 4.7 3.718 7.271.554 1.27 2.388 1.208 2.801-.114 2.512-8.032 3.92-17.055 3.92-26.589 0-7.451-.864-14.586-2.437-21.183 6.157 6.165 11.459 13.844 15.617 22.639.662 1.4 2.682 1.338 3.223-.113 3.498-9.396 5.763-19.8 6.513-30.808z" fill="url(#SVGID_00000085943003488989330460000018173204364658126508_)"/></g><path d="m318.25 153.06c0 14-2.45 27.22-6.79 38.89-.54 1.45-2.56 1.51-3.22.11-4.15-8.77-9.43-16.43-15.56-22.58l-.05-.05c-2.49-10.44-6.76-19.52-12.26-26.35v-68.77c22.27 13.04 37.88 43.39 37.88 78.75z" fill="url(#SVGID_00000040545663397439842010000010763470327172563632_)"/><path d="m291.87 166.48c-.62 16.3-3.22 31.27-7.25 43.56 1.353 2.268 2.596 4.698 3.716 7.268.554 1.27 2.388 1.208 2.801-.114 2.512-8.032 3.92-17.055 3.92-26.589 0-7.451-.864-14.586-2.437-21.183.065.065.126.135.19.2-.368-1.177-.689-2.237-.94-3.142z" fill="url(#SVGID_00000031904286010356042050000001144025554131303595_)"/></g></svg>