<svg id="Capa_1" enable-background="new 0 0 512 512" height="512" viewBox="0 0 512 512" width="512" xmlns="http://www.w3.org/2000/svg" xmlns:xlink="http://www.w3.org/1999/xlink"><linearGradient id="lg1"><stop offset="0" stop-color="#5a5a5a"/><stop offset="1" stop-color="#444"/></linearGradient><linearGradient id="SVGID_1_" gradientUnits="userSpaceOnUse" x1="268.67" x2="477.541" xlink:href="#lg1" y1="196.525" y2="307.733"/><linearGradient id="lg2"><stop offset="0" stop-color="#433f43" stop-opacity="0"/><stop offset=".3443" stop-color="#393639" stop-opacity=".344"/><stop offset=".9319" stop-color="#1e1d1e" stop-opacity=".932"/><stop offset="1" stop-color="#1a1a1a"/></linearGradient><linearGradient id="SVGID_00000068650933671895888720000002509114524686701726_" gradientUnits="userSpaceOnUse" x1="420.962" x2="501.516" xlink:href="#lg2" y1="255.239" y2="253.1"/><linearGradient id="SVGID_00000086686908310139548670000014022016549085695930_" gradientUnits="userSpaceOnUse" x1="416.117" x2="496.672" xlink:href="#lg2" y1="72.779" y2="70.64"/><linearGradient id="SVGID_00000163060084547193791030000013104263147005252737_" gradientUnits="userSpaceOnUse" x1="412.268" x2="412.268" xlink:href="#lg2" y1="328.438" y2="428.332"/><linearGradient id="SVGID_00000160907469981954613120000015615542647436031616_" gradientUnits="userSpaceOnUse" x1="65.34" x2="200.072" xlink:href="#lg1" y1="217.254" y2="304.224"/><linearGradient id="SVGID_00000060724984876019072880000010290512495227111819_" gradientUnits="userSpaceOnUse" x1="98.282" x2="202.361" xlink:href="#lg2" y1="254.139" y2="262.693"/><linearGradient id="SVGID_00000067957041079690566280000015869705346579784633_" gradientUnits="userSpaceOnUse" x1="137.292" x2="145.119" xlink:href="#lg2" y1="73.629" y2="74.273"/><linearGradient id="SVGID_00000037672759001103821060000012000821166583361952_" gradientUnits="userSpaceOnUse" x1="118.361" x2="166.123" xlink:href="#lg2" y1="317.157" y2="390.582"/><linearGradient id="lg3"><stop offset="0" stop-color="#fffaf8"/><stop offset="1" stop-color="#ffdfcf"/></linearGradient><linearGradient id="SVGID_00000022537929997574158750000011518571827761256625_" gradientUnits="userSpaceOnUse" x1="200.982" x2="290.983" xlink:href="#lg3" y1="206.288" y2="206.288"/><linearGradient id="SVGID_00000085972021849846316320000003800249562139598521_" gradientUnits="userSpaceOnUse" x1="278.35" x2="365.267" xlink:href="#lg1" y1="186.972" y2="226.205"/><linearGradient id="SVGID_00000050626033547194326680000012690994295805415079_" gradientUnits="userSpaceOnUse" x1="350.744" x2="413.517" xlink:href="#lg2" y1="220.788" y2="229.842"/><linearGradient id="SVGID_00000036930979074782738140000015644981218374944945_" gradientUnits="userSpaceOnUse" x1="136.368" x2="192.822" xlink:href="#lg1" y1="174.948" y2="249.324"/><linearGradient id="SVGID_00000006700118509404186620000012020366236681803151_" gradientUnits="userSpaceOnUse" x1="341.637" x2="341.637" xlink:href="#lg2" y1="243.469" y2="310.179"/><linearGradient id="SVGID_00000040557792714349876640000003170174544513303181_" gradientUnits="userSpaceOnUse" x1="170.363" x2="170.363" xlink:href="#lg2" y1="243.469" y2="310.179"/><linearGradient id="SVGID_00000173147387463040166090000004541582614617992848_" gradientUnits="userSpaceOnUse" x1="97.521" x2="183.778" xlink:href="#lg2" y1="152.277" y2="231.405"/><linearGradient id="SVGID_00000084489622938714697590000014455026294316016301_" gradientUnits="userSpaceOnUse" x1="274.794" x2="358.2" xlink:href="#lg2" y1="148.138" y2="230.475"/><linearGradient id="SVGID_00000154416193837343854340000011635020814528049549_" gradientUnits="userSpaceOnUse" x1="251.039" x2="267.73" xlink:href="#lg3" y1="330.243" y2="370.439"/><linearGradient id="lg4"><stop offset="0" stop-color="#f89580" stop-opacity="0"/><stop offset=".2599" stop-color="#f2917c" stop-opacity=".261"/><stop offset=".5954" stop-color="#e2856f" stop-opacity=".597"/><stop offset=".9709" stop-color="#c8725b" stop-opacity=".974"/><stop offset=".9972" stop-color="#c5715a"/></linearGradient><linearGradient id="SVGID_00000054984154527435339040000002771842476468362413_" gradientUnits="userSpaceOnUse" x1="253.625" x2="259.757" xlink:href="#lg4" y1="338.477" y2="372.882"/><linearGradient id="SVGID_00000025422473381024215320000006508970216371002513_" gradientUnits="userSpaceOnUse" x1="272.014" x2="251.234" xlink:href="#lg4" y1="350.623" y2="333.591"/><linearGradient id="SVGID_00000181061354091745201850000000974979863332165045_" gradientUnits="userSpaceOnUse" x1="233.792" x2="271.347" xlink:href="#lg3" y1="250.697" y2="366.429"/><linearGradient id="SVGID_00000120538247194590471530000018263445841967208619_" gradientUnits="userSpaceOnUse" x1="292.959" x2="264.005" xlink:href="#lg4" y1="277.449" y2="244.407"/><linearGradient id="SVGID_00000044163701169931467510000018196295205037206192_" gradientUnits="userSpaceOnUse" x1="256" x2="256" xlink:href="#lg4" y1="317.928" y2="361.105"/><linearGradient id="SVGID_00000168813079018953108520000008344266697979417738_" gradientUnits="userSpaceOnUse" x1="276.718" x2="240.95" xlink:href="#lg4" y1="291.04" y2="279.799"/><linearGradient id="SVGID_00000057125561481520243280000011411111503584607126_" gradientUnits="userSpaceOnUse" x1="312.319" x2="354.218" xlink:href="#lg4" y1="291.703" y2="281.824"/><linearGradient id="SVGID_00000097495732103757963440000017014261608871375270_" gradientUnits="userSpaceOnUse" x1="249.414" x2="264.998" xlink:href="#lg1" y1="234.187" y2="263.372"/><linearGradient id="SVGID_00000049193023426434200150000017892527924860528794_" gradientUnits="userSpaceOnUse" x1="255.996" x2="255.996" xlink:href="#lg4" y1="327.519" y2="281.131"/><g><path d="m503.096 308.748c-.738.141.375-.071-.363.069 1.147 30.196-9.447 58.515-27.882 80.227.149 7.389-1.787 14.778-5.751 21.245-4.541 7.417-9.892 14.35-15.922 20.706-3.494 3.685-9.613-.279-7.425-5.079-.28-.18.19.122-.09-.058-1.85 2.37-3.987 4.546-6.379 6.468-6.793 5.435-14.173 10.143-22.009 14.08-4.42 2.215-8.72-3.238-5.518-7.007.614-.726 1.21-1.461 1.815-2.205-2.233 1.21-4.578 2.224-7.045 2.997-8.301 2.587-16.9 4.29-25.629 5.1-4.067.372-6.151-4.104-4.29-6.989.381-.614.949-1.145 1.703-1.554 2.513-1.35 4.988-2.792 7.426-4.327 1.033-.642 2.057-1.303 3.071-1.982 0 0-76.272-22.567-76.272-109.681v-199.6c0-13.162 2.928-26.158 8.571-38.049 5.407-7.249 13.242-12.489 22.223-14.648 8.459-2.029 17.142-3.155 25.908-3.378 5.1-.134 6.612 7.087 1.556 8.864.07.33-.05-.237.02.093 3.022-.379 6.098-.408 9.182-.07 8.645.959 17.198 2.838 25.517 5.602 4.699 1.554 3.881 8.459-1.052 8.859-.94.075-1.889.177-2.838.27 2.429.726 4.811 1.666 7.1 2.866 7.696 4.039 14.983 8.915 21.72 14.517 3.806 3.164.53 9.287-4.206 7.864-.596-.177-1.21-.344-1.815-.512 26.159 19.329 46.158 46.791 56.087 79.148 3.853 2.262 7.352 5.184 10.292 8.711 5.565 6.672 10.432 13.959 14.527 21.711 2.308 4.374-3.062 8.785-6.887 5.658-1.265-1.024-2.559-2.019-3.862-3.006.335.493.679.986.996 1.498 4.607 7.38 8.422 15.262 11.419 23.507 1.684 4.643-4.243 8.282-7.603 4.662-2.261-2.419-4.625-4.755-7.073-7.017l.179.911c1.751 8.921 5.282 17.35 9.97 25.14 1.316 2.186 2.427 4.515 3.307 6.957 2.931 8.189 4.997 16.695 6.179 25.387.704 5.223-6.778 7.48-8.857 2.045z" fill="url(#SVGID_1_)"/><g><path d="m505.774 281.318c-.88-2.443-1.991-4.771-3.307-6.957-4.688-7.789-8.219-16.219-9.97-25.14l-.179-.912c2.448 2.261 4.811 4.597 7.073 7.017 3.36 3.62 9.287-.019 7.603-4.662-2.997-8.245-6.812-16.127-11.418-23.507-.316-.511-.661-1.005-.996-1.498 1.303.987 2.596 1.982 3.862 3.006 3.825 3.127 9.194-1.284 6.887-5.658-4.095-7.752-8.962-15.038-14.527-21.711-2.941-3.527-6.44-6.449-10.292-8.71-9.929-32.357-29.928-59.819-56.087-79.148.605.167 1.219.335 1.815.512 4.737 1.424 8.012-4.699 4.206-7.864-6.738-5.602-14.024-10.479-21.72-14.517-2.289-1.2-4.672-2.14-7.1-2.866.949-.093 1.898-.195 2.838-.27 4.932-.4 5.751-7.305 1.052-8.859-8.32-2.764-16.872-4.644-25.517-5.602-3.084-.338-6.159-.308-9.182.07-.003-.012-.003-.015-.005-.025.001.006.003.013.004.018-.004-.017-.009-.043-.018-.086-.003-.013-.002-.012 0 0 5.056-1.777 3.544-8.999-1.556-8.864-1.699.043-3.394.131-5.086.242v353.038c13.649 8.812 24.656 12.074 24.656 12.074-1.014.679-2.038 1.34-3.071 1.982-2.438 1.536-4.914 2.978-7.426 4.327-.754.41-1.321.94-1.703 1.554-1.861 2.885.223 7.361 4.29 6.989 8.729-.81 17.328-2.513 25.629-5.1 2.466-.772 4.812-1.787 7.045-2.997-.605.744-1.201 1.479-1.815 2.205-3.201 3.769 1.098 9.222 5.518 7.008 7.836-3.937 15.215-8.645 22.009-14.08 2.391-1.922 4.529-4.098 6.379-6.468.047.03.067.043.079.051.005.003.005.004.01.007-2.188 4.801 3.931 8.765 7.425 5.079 6.03-6.356 11.381-13.289 15.922-20.706 3.964-6.468 5.9-13.856 5.751-21.246 18.435-21.711 29.029-50.031 27.882-80.227.322-.061.289-.055.214-.041.04-.008.08-.015.15-.028 2.079 5.435 9.561 3.177 8.858-2.044-1.184-8.691-3.25-17.197-6.182-25.386zm-60.062 144.572c-.043-.027-.083-.053 0 0zm57.166-117.1c-.044.008-.061.012 0 0z" fill="url(#SVGID_00000068650933671895888720000002509114524686701726_)"/><path d="m370.808 74.016c-.005-.025-.011-.052-.015-.069.002.011.007.033.015.069z" fill="url(#SVGID_00000086686908310139548670000014022016549085695930_)"/></g><path d="m312.535 320.756c0 87.114 76.272 109.681 76.272 109.681-1.014.679-2.038 1.34-3.071 1.982-2.438 1.536-4.914 2.978-7.426 4.327-.754.41-1.321.94-1.703 1.554-1.861 2.885.223 7.361 4.29 6.989 8.729-.81 17.328-2.513 25.629-5.1 2.466-.772 4.812-1.787 7.045-2.997-.605.744-1.201 1.479-1.815 2.205-3.201 3.769 1.098 9.222 5.518 7.008 7.836-3.937 15.215-8.645 22.009-14.08 2.391-1.922 4.529-4.098 6.379-6.468.047.03.067.043.079.051.005.003.005.004.01.007-2.188 4.801 3.931 8.765 7.425 5.079 6.03-6.356 11.381-13.289 15.922-20.706 3.964-6.468 5.9-13.856 5.751-21.246 18.435-21.711 29.029-50.031 27.882-80.227.322-.061.289-.055.214-.041.04-.008.08-.015.15-.028 2.079 5.435 9.561 3.177 8.858-2.044-1.182-8.692-3.248-17.198-6.179-25.387-.88-2.443-1.991-4.771-3.307-6.957-2.49-4.136-4.639-8.457-6.383-12.932h-183.549zm190.343-11.966c-.044.008-.061.012 0 0zm-57.166 117.1c-.043-.027-.083-.053 0 0z" fill="url(#SVGID_00000163060084547193791030000013104263147005252737_)"/><path d="m8.904 308.748c.738.141-.375-.071.363.069-1.147 30.196 9.447 58.515 27.882 80.227-.149 7.389 1.787 14.778 5.751 21.245 4.541 7.417 9.892 14.35 15.922 20.706 3.494 3.685 9.613-.279 7.425-5.079.28-.18-.19.122.09-.058 1.85 2.37 3.987 4.546 6.379 6.468 6.793 5.435 14.173 10.143 22.009 14.08 4.42 2.215 8.72-3.238 5.518-7.007-.614-.726-1.21-1.461-1.815-2.205 2.233 1.21 4.578 2.224 7.045 2.997 8.301 2.587 16.9 4.29 25.629 5.1 4.067.372 6.151-4.104 4.29-6.989-.381-.614-.949-1.145-1.703-1.554-2.513-1.35-4.988-2.792-7.426-4.327-1.033-.642-2.057-1.303-3.071-1.982 0 0 76.272-22.567 76.272-109.681v-199.6c0-13.162-2.928-26.158-8.571-38.049-5.407-7.249-13.242-12.489-22.223-14.648-8.459-2.029-17.142-3.155-25.908-3.378-5.1-.134-6.612 7.087-1.556 8.864-.07.33.05-.237-.02.093-3.022-.379-6.098-.408-9.182-.07-8.645.959-17.198 2.838-25.517 5.602-4.699 1.554-3.881 8.459 1.052 8.859.94.075 1.889.177 2.838.27-2.429.726-4.811 1.666-7.1 2.866-7.696 4.039-14.983 8.915-21.72 14.517-3.806 3.164-.53 9.287 4.206 7.864.596-.177 1.21-.344 1.815-.512-26.159 19.329-46.158 46.791-56.087 79.148-3.853 2.262-7.352 5.184-10.292 8.711-5.565 6.672-10.432 13.959-14.527 21.711-2.308 4.374 3.062 8.785 6.887 5.658 1.265-1.024 2.559-2.019 3.862-3.006-.335.493-.679.986-.996 1.498-4.607 7.38-8.422 15.262-11.418 23.507-1.684 4.643 4.243 8.282 7.603 4.662 2.261-2.419 4.625-4.755 7.073-7.017l-.179.911c-1.751 8.921-5.282 17.35-9.97 25.14-1.316 2.186-2.427 4.515-3.307 6.957-2.931 8.189-4.997 16.695-6.179 25.387-.705 5.223 6.777 7.48 8.856 2.045z" fill="url(#SVGID_00000160907469981954613120000015615542647436031616_)"/><g><path d="m190.894 83.109c-5.407-7.249-13.242-12.489-22.223-14.647-8.459-2.029-17.142-3.155-25.908-3.378-5.1-.135-6.612 7.087-1.556 8.864.003-.012.003-.013 0 0-.003.015-.004.02-.007.032.002-.009.004-.018.005-.024-.004.017-.009.043-.018.086-3.022-.378-6.098-.408-9.182-.07-8.645.958-17.198 2.838-25.517 5.602-4.699 1.554-3.881 8.459 1.052 8.859.94.074 1.889.177 2.838.27-2.429.726-4.811 1.666-7.101 2.866-7.696 4.039-14.983 8.915-21.72 14.517-3.806 3.164-.53 9.287 4.206 7.864.596-.177 1.21-.344 1.815-.512-9.092 6.718-17.437 14.42-24.876 22.966v295.982c2.723-.393 5.019-3.236 3.546-6.469.005-.003.006-.004.011-.007.012-.008.033-.021.079-.051 1.85 2.37 3.987 4.546 6.379 6.468 6.793 5.435 14.173 10.143 22.009 14.08 4.42 2.215 8.72-3.239 5.518-7.008-.614-.726-1.21-1.461-1.815-2.205 2.233 1.209 4.578 2.224 7.045 2.997 8.301 2.587 16.9 4.29 25.629 5.1 4.067.372 6.151-4.104 4.29-6.989-.381-.614-.949-1.145-1.703-1.554-2.513-1.349-4.988-2.792-7.426-4.327-1.033-.642-2.057-1.303-3.071-1.982 0 0 76.272-22.567 76.272-109.681v-199.6c0-13.162-2.928-26.158-8.571-38.049zm-124.606 342.781c.083-.053.043-.027 0 0z" fill="url(#SVGID_00000060724984876019072880000010290512495227111819_)"/><path d="m141.207 73.947c-.001.003-.001.004-.002.007.001-.005.001-.003.002-.007z" fill="url(#SVGID_00000067957041079690566280000015869705346579784633_)"/></g><path d="m13.213 232.618c-3.196 5.767-5.937 11.802-8.207 18.046-1.684 4.643 4.243 8.282 7.603 4.662 2.261-2.419 4.625-4.755 7.073-7.017l-.179.912c-1.752 8.921-5.282 17.35-9.97 25.14-1.316 2.186-2.427 4.515-3.307 6.957-2.931 8.189-4.997 16.695-6.179 25.387-.703 5.221 6.779 7.479 8.857 2.044.07.013.11.021.15.028-.075-.014-.108-.021.214.041-1.147 30.196 9.447 58.515 27.882 80.227-.149 7.389 1.787 14.778 5.751 21.246 4.541 7.417 9.892 14.35 15.922 20.706 3.494 3.685 9.613-.279 7.425-5.079.005-.003.006-.004.011-.007.012-.008.033-.021.079-.051 1.85 2.37 3.987 4.546 6.379 6.468 6.793 5.435 14.173 10.143 22.009 14.08 4.42 2.215 8.72-3.239 5.518-7.008-.614-.726-1.21-1.461-1.815-2.205 2.233 1.209 4.578 2.224 7.045 2.997 8.301 2.587 16.9 4.29 25.629 5.1 4.067.372 6.151-4.104 4.29-6.989-.381-.614-.949-1.145-1.703-1.554-2.513-1.349-4.988-2.792-7.426-4.327-1.033-.642-2.057-1.303-3.071-1.982 0 0 76.272-22.567 76.272-109.681v-88.139h-186.252zm-4.091 76.172c.061.012.044.008 0 0zm57.166 117.1c.083-.053.043-.027 0 0z" fill="url(#SVGID_00000037672759001103821060000012000821166583361952_)"/><g><path d="m373.352 129.895v188.72c-14.919 10.042-32.75 15.943-52.165 15.943h-130.374c-19.415 0-37.246-5.901-52.165-15.943v-188.72c5.038-5.419 10.414-10.482 16.079-15.147 28.127-23.183 63.477-36.73 101.273-36.73 45.417-.001 87.286 19.558 117.352 51.877z" fill="url(#SVGID_00000022537929997574158750000011518571827761256625_)"/><path d="m415.226 209.211c-7.123-30.74-21.89-57.846-41.873-79.32-18.497-19.877-49.494-21.164-69.795-3.133-19.732 17.526-38.287 39.527-38.287 60.294 0 30.286 56.639 99.294 92.557 140.013 42.632-18.262 69.106-67.323 57.398-117.854z" fill="url(#SVGID_00000085972021849846316320000003800249562139598521_)"/><path d="m415.226 209.211c-7.123-30.74-21.89-57.846-41.873-79.32-18.497-19.877-49.494-21.164-69.795-3.133-19.732 17.526-38.287 39.527-38.287 60.294 0 30.286 56.639 99.294 92.557 140.013 42.632-18.262 69.106-67.323 57.398-117.854z" fill="url(#SVGID_00000050626033547194326680000012690994295805415079_)"/><path d="m96.774 209.211c7.123-30.74 21.89-57.846 41.873-79.32 18.497-19.877 49.494-21.164 69.795-3.133 19.732 17.526 38.287 39.527 38.287 60.294 0 30.286-56.639 99.294-92.557 140.013-42.633-18.262-69.107-67.323-57.398-117.854z" fill="url(#SVGID_00000036930979074782738140000015644981218374944945_)"/><path d="m415.226 209.211c-7.123-30.74-21.89-57.846-41.873-79.32-18.497-19.877-49.494-21.164-69.795-3.133-19.732 17.526-38.287 39.527-38.287 60.294 0 30.286 56.639 99.294 92.557 140.013 42.632-18.262 69.106-67.323 57.398-117.854z" fill="url(#SVGID_00000006700118509404186620000012020366236681803151_)"/><path d="m96.774 209.211c7.123-30.74 21.89-57.846 41.873-79.32 18.497-19.877 49.494-21.164 69.795-3.133 19.732 17.526 38.287 39.527 38.287 60.294 0 30.286-56.639 99.294-92.557 140.013-42.633-18.262-69.107-67.323-57.398-117.854z" fill="url(#SVGID_00000040557792714349876640000003170174544513303181_)"/><g><g><path d="m167.751 248.059c-13.784 0-24.957-11.174-24.957-24.957v-12.799c0-13.784 11.174-24.957 24.957-24.957 13.783 0 24.957 11.174 24.957 24.957v12.799c0 13.784-11.173 24.957-24.957 24.957z" fill="url(#SVGID_00000173147387463040166090000004541582614617992848_)"/><path d="m344.249 248.059c-13.784 0-24.957-11.174-24.957-24.957v-12.799c0-13.784 11.174-24.957 24.957-24.957 13.784 0 24.957 11.174 24.957 24.957v12.799c0 13.784-11.174 24.957-24.957 24.957z" fill="url(#SVGID_00000084489622938714697590000014455026294316016301_)"/></g></g></g><path d="m266.907 368.243h-21.814c-17.319 0-30.774-8.568-28.801-18.341l7.738-38.332h63.941l7.738 38.332c1.972 9.773-11.483 18.341-28.802 18.341z" fill="url(#SVGID_00000154416193837343854340000011635020814528049549_)"/><path d="m266.907 368.243h-21.814c-17.319 0-30.774-8.568-28.801-18.341l7.738-38.332h63.941l7.738 38.332c1.972 9.773-11.483 18.341-28.802 18.341z" fill="url(#SVGID_00000054984154527435339040000002771842476468362413_)"/><path d="m266.907 368.243h-21.814c-17.319 0-30.774-8.568-28.801-18.341l7.738-38.332h63.941l7.738 38.332c1.972 9.773-11.483 18.341-28.802 18.341z" fill="url(#SVGID_00000025422473381024215320000006508970216371002513_)"/><path d="m346.951 283.651c-23.504-45.476-90.951-45.382-90.951-45.382s-67.447-.094-90.951 45.382-8.175 58.25 18.395 70.513c24.005 11.079 45.925 9.229 66.136-20.246 3.084-4.497 9.757-4.497 12.84 0 20.211 29.475 42.131 31.325 66.136 20.246 26.57-12.264 41.899-25.038 18.395-70.513z" fill="url(#SVGID_00000181061354091745201850000000974979863332165045_)"/><path d="m346.951 283.651c-19.112-36.977-67.275-43.825-84.61-45.093l-29.085 29.085 89.097 89.097c2.052-.757 4.119-1.614 6.203-2.576 26.57-12.264 41.899-25.038 18.395-70.513z" fill="url(#SVGID_00000120538247194590471530000018263445841967208619_)"/><path d="m183.444 354.163c24.005 11.079 45.925 9.229 66.136-20.246 3.084-4.497 9.756-4.497 12.84 0 20.211 29.475 42.131 31.326 66.136 20.246 26.072-12.033 41.316-24.563 19.67-67.996h-184.453c-21.646 43.434-6.402 55.963 19.671 67.996z" fill="url(#SVGID_00000044163701169931467510000018196295205037206192_)"/><path d="m328.558 354.163c-.072.029-.136.065-.208.093-.53.244-1.061.48-1.584.71.366-.158.731-.323 1.097-.495-7.691 3.247-16.65 1.19-22.234-5.089-1.985-2.229-3.835-4.602-5.548-7.125-7.383-10.88-13.568-22.363-18.743-33.767-4.967-10.938-15.16-16.407-25.345-16.407v-53.813h.007s67.448-.093 90.95 45.378c23.503 45.479 8.179 58.251-18.392 70.515z" fill="url(#SVGID_00000168813079018953108520000008344266697979417738_)"/><path d="m328.558 354.163c-.072.029-.136.065-.208.093-.53.244-1.061.48-1.584.71.366-.158.731-.323 1.097-.495-7.691 3.247-16.65 1.19-22.234-5.089-1.985-2.229-3.835-4.602-5.548-7.125-7.383-10.88-13.568-22.363-18.743-33.767-4.967-10.938-15.16-16.407-25.345-16.407v-53.813h.007s67.448-.093 90.95 45.378c23.503 45.479 8.179 58.251-18.392 70.515z" fill="url(#SVGID_00000057125561481520243280000011411111503584607126_)"/><g><path d="m274.808 270.16 5.442-2.953c7.518-4.079 12.2-11.946 12.2-20.499v-.363c0-12.881-10.442-23.322-23.322-23.322h-26.254c-12.881 0-23.322 10.442-23.322 23.322v.363c0 8.553 4.682 16.42 12.2 20.499l5.442 2.953c11.729 6.365 25.883 6.365 37.614 0z" fill="url(#SVGID_00000097495732103757963440000017014261608871375270_)"/></g><path d="m305.628 349.385c-1.983-2.229-3.837-4.607-5.547-7.127-7.383-10.88-13.568-22.363-18.743-33.767-9.927-21.876-40.755-21.876-50.675 0-5.175 11.404-11.368 22.886-18.751 33.767-1.709 2.519-3.563 4.895-5.544 7.123-5.698 6.409-14.928 8.425-22.725 4.871 23.927 10.977 45.782 9.059 65.937-20.335 3.084-4.497 9.756-4.497 12.84 0 20.153 29.391 42.006 31.311 65.93 20.338-7.796 3.552-17.024 1.536-22.722-4.87z" fill="url(#SVGID_00000049193023426434200150000017892527924860528794_)"/></g></svg>