<svg id="Capa_1" enable-background="new 0 0 510 510" height="512" viewBox="0 0 510 510" width="512" xmlns="http://www.w3.org/2000/svg" xmlns:xlink="http://www.w3.org/1999/xlink"><linearGradient id="lg1"><stop offset="0" stop-color="#9b62cd"/><stop offset=".3003" stop-color="#985dcb"/><stop offset=".6716" stop-color="#8f4ec7"/><stop offset="1" stop-color="#833ac1"/></linearGradient><linearGradient id="SVGID_1_" gradientUnits="userSpaceOnUse" x1="198.97" x2="123.316" xlink:href="#lg1" y1="404.885" y2="326.155"/><linearGradient id="SVGID_2_" gradientTransform="matrix(-1 0 0 1 2744.44 0)" gradientUnits="userSpaceOnUse" x1="2465.754" x2="2390.1" xlink:href="#lg1" y1="469.469" y2="390.739"/><linearGradient id="lg2"><stop offset="0" stop-color="#ffd945"/><stop offset=".3043" stop-color="#ffcd3e"/><stop offset=".8558" stop-color="#ffad2b"/><stop offset="1" stop-color="#ffa325"/></linearGradient><linearGradient id="SVGID_3_" gradientUnits="userSpaceOnUse" x1="351.098" x2="365.046" xlink:href="#lg2" y1="291.784" y2="319.376"/><linearGradient id="SVGID_4_" gradientUnits="userSpaceOnUse" x1="275.696" x2="466.887" y1="59.805" y2="250.996"><stop offset="0" stop-color="#92f37f"/><stop offset="1" stop-color="#4ab272"/></linearGradient><linearGradient id="lg3"><stop offset="0" stop-color="#fff" stop-opacity="0"/><stop offset="1" stop-color="#fff"/></linearGradient><linearGradient id="SVGID_5_" gradientUnits="userSpaceOnUse" x1="358.745" x2="358.745" xlink:href="#lg3" y1="104.607" y2="-102.916"/><linearGradient id="SVGID_6_" gradientUnits="userSpaceOnUse" x1="340.826" x2="223.484" y1="211.949" y2="165.558"><stop offset="0" stop-color="#4ab272" stop-opacity="0"/><stop offset="1" stop-color="#009245"/></linearGradient><linearGradient id="SVGID_7_" gradientUnits="userSpaceOnUse" x1="143.608" x2="157.555" xlink:href="#lg2" y1="338.175" y2="365.767"/><linearGradient id="SVGID_8_" gradientUnits="userSpaceOnUse" x1="68.206" x2="259.397" xlink:href="#lg2" y1="106.196" y2="297.387"/><linearGradient id="SVGID_9_" gradientUnits="userSpaceOnUse" x1="151.255" x2="151.255" xlink:href="#lg3" y1="150.998" y2="-56.525"/><linearGradient id="lg4"><stop offset="0" stop-color="#ff819c"/><stop offset=".2594" stop-color="#ff7e9a"/><stop offset=".4757" stop-color="#fe7396"/><stop offset=".6765" stop-color="#fc628e"/><stop offset=".8668" stop-color="#fa4a83"/><stop offset="1" stop-color="#f83479"/></linearGradient><linearGradient id="SVGID_10_" gradientUnits="userSpaceOnUse" x1="307.092" x2="321.04" xlink:href="#lg4" y1="420.871" y2="448.463"/><linearGradient id="SVGID_11_" gradientUnits="userSpaceOnUse" x1="289.787" x2="397.123" xlink:href="#lg4" y1="237.753" y2="371.771"/><linearGradient id="SVGID_12_" gradientUnits="userSpaceOnUse" x1="310.508" x2="-25.145" xlink:href="#lg3" y1="266.452" y2="-82.845"/><g><path d="m154.771 445.416c-.908 0-1.827-.247-2.654-.765-2.341-1.468-3.048-4.556-1.579-6.897l4.769-7.603c9.475-15.105 8.647-34.833-2.06-49.091-11.212-14.929-13.793-34.942-6.736-52.227l16.368-40.096c1.044-2.559 3.965-3.786 6.523-2.741s3.786 3.965 2.741 6.523l-16.368 40.096c-5.734 14.046-3.637 30.306 5.473 42.437 13.178 17.547 14.197 41.827 2.536 60.417l-4.769 7.603c-.951 1.514-2.579 2.344-4.244 2.344z" fill="url(#SVGID_1_)"/><path d="m322.886 510c.908 0 1.827-.247 2.654-.765 2.341-1.468 3.048-4.556 1.579-6.897l-4.769-7.603c-9.475-15.105-8.647-34.833 2.06-49.091 11.212-14.929 13.793-34.942 6.736-52.227l-16.368-40.096c-1.044-2.559-3.965-3.786-6.523-2.741s-3.786 3.965-2.741 6.523l16.368 40.096c5.734 14.045 3.637 30.306-5.473 42.437-13.178 17.547-14.197 41.827-2.536 60.417l4.769 7.603c.951 1.513 2.578 2.344 4.244 2.344z" fill="url(#SVGID_2_)"/><g><path d="m342.11 318.971c-7.158-4.046-9.236-13.4-4.466-20.097l21.101-29.624 21.101 29.624c4.77 6.697 2.692 16.051-4.466 20.097-10.322 5.836-22.947 5.836-33.27 0z" fill="url(#SVGID_3_)"/><path d="m487.003 128.258c0 70.835-57.423 175.558-128.258 175.558s-128.257-104.724-128.257-175.558 57.423-128.258 128.257-128.258 128.258 57.423 128.258 128.258z" fill="url(#SVGID_4_)"/><ellipse cx="358.745" cy="77.723" fill="url(#SVGID_5_)" rx="97.221" ry="66.807"/></g><path d="m239.316 81.408c-5.698 14.513-8.828 30.316-8.828 46.85 0 70.835 57.423 175.558 128.257 175.558 25.395 0 49.065-13.462 68.984-33.995z" fill="url(#SVGID_6_)"/><g><path d="m134.62 365.362c-7.158-4.046-9.236-13.4-4.466-20.097l21.101-29.624 21.101 29.624c4.77 6.697 2.692 16.051-4.466 20.097-10.323 5.836-22.948 5.836-33.27 0z" fill="url(#SVGID_7_)"/><path d="m279.512 174.649c0 70.835-57.423 175.558-128.258 175.558s-128.257-104.724-128.257-175.558 57.423-128.258 128.258-128.258 128.257 57.423 128.257 128.258z" fill="url(#SVGID_8_)"/><ellipse cx="151.255" cy="124.114" fill="url(#SVGID_9_)" rx="97.221" ry="66.807"/></g><g><path d="m298.104 448.058c-7.158-4.046-9.236-13.4-4.466-20.097l21.101-29.624 21.101 29.624c4.77 6.697 2.692 16.051-4.466 20.097-10.322 5.836-22.947 5.836-33.27 0z" fill="url(#SVGID_10_)"/><path d="m396.761 181.926c-44.337-2.16-81.062 32.664-82.003 76.301-.002.095-.035.095-.037 0-.941-43.637-37.666-78.461-82.003-76.301-48.695 2.373-81.013 50-72.463 97.997 14.381 80.723 113.729 136.302 145.049 151.976 5.944 2.975 12.926 2.975 18.871 0 31.319-15.674 130.668-71.253 145.049-151.976 8.55-47.997-23.769-95.624-72.463-97.997z" fill="url(#SVGID_11_)"/><path d="m314.739 420.486c-1.147 0-2.298-.273-3.329-.788-28.947-14.487-124.429-67.552-137.722-142.168-3.73-20.938 1.532-42.233 14.437-58.425 11.413-14.32 27.486-22.684 45.257-23.549 1.078-.053 2.17-.08 3.245-.08 16.973 0 32.997 6.542 45.118 18.419 12.104 11.861 18.971 27.709 19.336 44.627l.001.055c.16 7.4 6.184 13.327 13.585 13.367h.073c7.44 0 13.512-5.954 13.659-13.392l.001-.071c.364-16.877 7.231-32.726 19.333-44.586 12.121-11.877 28.144-18.418 45.119-18.418 1.075 0 2.166.027 3.244.08 17.771.866 33.845 9.229 45.258 23.549 12.905 16.192 18.167 37.487 14.437 58.425-13.293 74.615-108.774 127.681-137.722 142.168-1.031.514-2.182.787-3.33.787z" fill="url(#SVGID_12_)"/></g></g></svg>