<svg id="Capa_1" enable-background="new 0 0 512 512" height="512" viewBox="0 0 512 512" width="512" xmlns="http://www.w3.org/2000/svg" xmlns:xlink="http://www.w3.org/1999/xlink"><linearGradient id="SVGID_1_" gradientUnits="userSpaceOnUse" x1="257.065" x2="270.116" y1="447.338" y2="469.424"><stop offset="0" stop-color="#fdb4ba"/><stop offset="1" stop-color="#fd8087"/></linearGradient><linearGradient id="lg1"><stop offset="0" stop-color="#fd4755" stop-opacity="0"/><stop offset=".2593" stop-color="#f74452" stop-opacity=".259"/><stop offset=".6276" stop-color="#e43b4c" stop-opacity=".628"/><stop offset="1" stop-color="#ca2e43"/></linearGradient><linearGradient id="SVGID_00000165954408067173060210000009015669413553845143_" gradientUnits="userSpaceOnUse" x1="250.982" x2="257.675" xlink:href="#lg1" y1="469.651" y2="448.234"/><linearGradient id="SVGID_00000121265420432657675580000002857739372643248043_" gradientUnits="userSpaceOnUse" x1="283.749" x2="259.655" xlink:href="#lg1" y1="464.67" y2="439.07"/><linearGradient id="SVGID_00000142893993682939354240000017663818900345106561_" gradientUnits="userSpaceOnUse" x1="375.95" x2="436.185" y1="61.203" y2="210.787"><stop offset="0" stop-color="#f89580"/><stop offset="1" stop-color="#c4573a"/></linearGradient><linearGradient id="lg2"><stop offset="0" stop-color="#ffbf51"/><stop offset="1" stop-color="#c5715a"/></linearGradient><linearGradient id="SVGID_00000041261188255247913700000008650787804090622635_" gradientUnits="userSpaceOnUse" x1="370.493" x2="466.731" xlink:href="#lg2" y1="57.138" y2="220.386"/><linearGradient id="lg3"><stop offset="0" stop-color="#883f2e" stop-opacity="0"/><stop offset=".2979" stop-color="#8b402e" stop-opacity=".298"/><stop offset=".536" stop-color="#954430" stop-opacity=".536"/><stop offset=".7533" stop-color="#a64b34" stop-opacity=".753"/><stop offset=".9572" stop-color="#be5539" stop-opacity=".957"/><stop offset="1" stop-color="#c4573a"/></linearGradient><linearGradient id="SVGID_00000088120927694046575070000012310301465327708323_" gradientUnits="userSpaceOnUse" x1="451.769" x2="492.402" xlink:href="#lg3" y1="149.065" y2="165.461"/><linearGradient id="SVGID_00000080917271087935152720000000579806106219462032_" gradientUnits="userSpaceOnUse" x1="412.553" x2="355.523" xlink:href="#lg3" y1="117.919" y2="174.949"/><linearGradient id="lg4"><stop offset="0" stop-color="#fffaf8"/><stop offset="1" stop-color="#ffdfcf"/></linearGradient><linearGradient id="SVGID_00000165218332896288784990000010734555224036693134_" gradientUnits="userSpaceOnUse" x1="404.293" x2="440.657" xlink:href="#lg4" y1="97.064" y2="133.428"/><linearGradient id="lg5"><stop offset="0" stop-color="#ffdfcf"/><stop offset="1" stop-color="#fd8087"/></linearGradient><linearGradient id="SVGID_00000163771035317379783840000008190279890890139013_" gradientUnits="userSpaceOnUse" x1="395.535" x2="468.319" xlink:href="#lg5" y1="88.306" y2="161.09"/><linearGradient id="SVGID_00000179630510031134884190000001575581016436172943_" gradientUnits="userSpaceOnUse" x1="404.415" x2="372.099" xlink:href="#lg1" y1="114.76" y2="165.611"/><linearGradient id="SVGID_00000046321254150326921880000003757556436883928464_" gradientUnits="userSpaceOnUse" x1="402.122" x2="385.964" xlink:href="#lg1" y1="96.92" y2="66.979"/><linearGradient id="SVGID_00000125570508099189020640000009321256829030986662_" gradientUnits="userSpaceOnUse" x1="85.009" x2="172.692" xlink:href="#lg2" y1="40.074" y2="205.46"/><linearGradient id="SVGID_00000014592459240207208620000015782126400846237061_" gradientUnits="userSpaceOnUse" x1="113.221" x2="150.29" xlink:href="#lg3" y1="130.71" y2="168.493"/><linearGradient id="SVGID_00000017484330791331505310000017180164379877921960_" gradientUnits="userSpaceOnUse" x1="48.577" x2="17.924" xlink:href="#lg3" y1="155.236" y2="175.909"/><linearGradient id="SVGID_00000168829785380535588840000015176217403119847098_" gradientUnits="userSpaceOnUse" x1="109.877" x2="113.442" xlink:href="#lg5" y1="84.327" y2="186.267"/><linearGradient id="SVGID_00000064354580065799179930000006163560003737456279_" gradientUnits="userSpaceOnUse" x1="101.741" x2="143.087" xlink:href="#lg1" y1="114.535" y2="164.436"/><linearGradient id="SVGID_00000010306952951656436690000000055995203178867372_" gradientUnits="userSpaceOnUse" x1="108.597" x2="125.706" xlink:href="#lg1" y1="101.041" y2="58.268"/><linearGradient id="SVGID_00000045586189448607885790000017735072911688600984_" gradientUnits="userSpaceOnUse" x1="253.612" x2="264.305" xlink:href="#lg4" y1="342.122" y2="455.468"/><linearGradient id="lg6"><stop offset="0" stop-color="#f89580" stop-opacity="0"/><stop offset=".2599" stop-color="#f2917c" stop-opacity=".261"/><stop offset=".5954" stop-color="#e2856f" stop-opacity=".597"/><stop offset=".9709" stop-color="#c8725b" stop-opacity=".974"/><stop offset=".9972" stop-color="#c5715a"/></linearGradient><linearGradient id="SVGID_00000145050006163517890110000010148127642777691301_" gradientUnits="userSpaceOnUse" x1="256" x2="256" xlink:href="#lg6" y1="408.624" y2="457.761"/><linearGradient id="SVGID_00000023250618836759858300000001439861930689372061_" gradientUnits="userSpaceOnUse" x1="353.072" x2="407.25" xlink:href="#lg6" y1="400.41" y2="459.579"/><linearGradient id="SVGID_00000075137897629204182190000000474545274946461073_" gradientUnits="userSpaceOnUse" x1="394.255" x2="314.414" xlink:href="#lg6" y1="373.505" y2="390.613"/><linearGradient id="SVGID_00000133503214317686577510000000709104081238395307_" gradientUnits="userSpaceOnUse" x1="174.906" x2="317.481" xlink:href="#lg2" y1="168.379" y2="407.191"/><linearGradient id="SVGID_00000120545281344679096350000000015223014592324014_" gradientUnits="userSpaceOnUse" x1="229.964" x2="284.498" xlink:href="#lg4" y1="343.712" y2="457.059"/><linearGradient id="SVGID_00000019677439805326591120000005166711489165488024_" gradientUnits="userSpaceOnUse" x1="293.337" x2="384.109" xlink:href="#lg6" y1="386.411" y2="429.659"/><linearGradient id="SVGID_00000062892037394519881350000001223423211407820190_" gradientUnits="userSpaceOnUse" x1="342.692" x2="437.504" xlink:href="#lg3" y1="229.835" y2="217.004"/><linearGradient id="lg7"><stop offset="0" stop-color="#5a5a5a"/><stop offset="1" stop-color="#444"/></linearGradient><linearGradient id="SVGID_00000016033257095896492640000012895886433485257899_" gradientUnits="userSpaceOnUse" x1="148.58" x2="185.487" xlink:href="#lg7" y1="281.321" y2="308.488"/><linearGradient id="SVGID_00000178200516958288920040000006343819953479555229_" gradientUnits="userSpaceOnUse" x1="326.946" x2="359.752" xlink:href="#lg7" y1="279.73" y2="304.335"/><linearGradient id="SVGID_00000146465295694013239310000018088754412517244579_" gradientUnits="userSpaceOnUse" x1="256" x2="256" xlink:href="#lg6" y1="409.574" y2="475.22"/><linearGradient id="SVGID_00000107572330499434672990000001729614209439219867_" gradientUnits="userSpaceOnUse" x1="296.635" x2="254.1" xlink:href="#lg6" y1="409.051" y2="338.001"/><linearGradient id="SVGID_00000082337605035947274590000015753870003454183584_" gradientUnits="userSpaceOnUse" x1="250.097" x2="264.354" xlink:href="#lg7" y1="354.668" y2="380.807"/><g><g><path d="m266.335 493.529h-18.875c-14.985 0-26.628-13.053-24.921-27.941l6.695-58.396h55.327l6.695 58.396c1.707 14.887-9.935 27.941-24.921 27.941z" fill="url(#SVGID_1_)"/><path d="m266.335 493.529h-18.875c-14.985 0-26.628-13.053-24.921-27.941l6.695-58.396h55.327l6.695 58.396c1.707 14.887-9.935 27.941-24.921 27.941z" fill="url(#SVGID_00000165954408067173060210000009015669413553845143_)"/><path d="m284.561 407.191h-28.561v86.337h10.335c14.985 0 26.628-13.053 24.921-27.941z" fill="url(#SVGID_00000121265420432657675580000002857739372643248043_)"/></g><g><g><path d="m511.873 45.628c-.518-14.665-12.365-26.512-27.03-27.03-79.565-2.81-179.576 41.464-228.843 102.322 85.524 2.478 151.074 68.042 153.552 153.552 60.85-49.261 105.131-149.274 102.321-228.844z" fill="url(#SVGID_00000142893993682939354240000017663818900345106561_)"/><path d="m511.873 45.628c-.518-14.665-12.365-26.512-27.03-27.03-79.565-2.81-179.576 41.464-228.843 102.322 85.524 2.478 151.074 68.042 153.552 153.552 60.85-49.261 105.131-149.274 102.321-228.844z" fill="url(#SVGID_00000041261188255247913700000008650787804090622635_)"/><path d="m409.552 274.471c60.851-49.261 105.131-149.274 102.322-228.843-.238-6.741-2.875-12.883-7.074-17.606l-139.723 139.723c26.703 27.29 43.253 64.582 44.475 106.726z" fill="url(#SVGID_00000088120927694046575070000012310301465327708323_)"/><path d="m388.538 34.344c-52.353 17.752-102.118 49-132.538 86.575 85.524 2.478 151.074 68.042 153.552 153.552 37.573-30.416 68.821-80.183 86.575-132.538z" fill="url(#SVGID_00000080917271087935152720000000579806106219462032_)"/><path d="m448.587 61.726c-40.66.768-89.473 23.291-114.104 53.718 44.861 1.3 79.244 35.691 80.544 80.544 30.423-24.628 52.95-73.442 53.718-114.104.211-11.2-8.958-20.369-20.158-20.158z" fill="url(#SVGID_00000165218332896288784990000010734555224036693134_)"/><path d="m448.587 61.726c-40.66.768-89.473 23.291-114.104 53.718 44.861 1.3 79.244 35.691 80.544 80.544 30.423-24.628 52.95-73.442 53.718-114.104.211-11.2-8.958-20.369-20.158-20.158z" fill="url(#SVGID_00000163771035317379783840000008190279890890139013_)"/><path d="m448.587 61.726c-40.66.768-89.473 23.291-114.104 53.718 44.861 1.3 79.244 35.691 80.544 80.544 30.423-24.628 52.95-73.442 53.718-114.104.211-11.2-8.958-20.369-20.158-20.158z" fill="url(#SVGID_00000179630510031134884190000001575581016436172943_)"/><path d="m448.587 61.726c-40.66.768-89.473 23.291-114.104 53.718 44.861 1.3 79.244 35.691 80.544 80.544 30.423-24.628 52.95-73.442 53.718-114.104.211-11.2-8.958-20.369-20.158-20.158z" fill="url(#SVGID_00000046321254150326921880000003757556436883928464_)"/></g><g><path d="m.127 45.628c.518-14.665 12.365-26.512 27.03-27.03 79.565-2.81 179.576 41.464 228.843 102.322-85.524 2.478-151.074 68.042-153.552 153.552-60.85-49.261-105.131-149.274-102.321-228.844z" fill="url(#SVGID_00000125570508099189020640000009321256829030986662_)"/><path d="m114.902 31.569-101.804 101.804c17.148 55.447 49.735 109.028 89.35 141.098 2.478-85.51 68.028-151.073 153.552-153.552-32.073-39.619-85.654-72.203-141.098-89.35z" fill="url(#SVGID_00000014592459240207208620000015782126400846237061_)"/><path d="m148.085 166.556-139.748-139.748c-4.86 4.86-7.951 11.488-8.21 18.82-2.81 79.57 41.471 179.582 102.322 228.843 1.238-42.756 18.246-80.525 45.636-107.915z" fill="url(#SVGID_00000017484330791331505310000017180164379877921960_)"/><path d="m63.413 61.726c-11.2-.212-20.369 8.958-20.158 20.158.768 40.662 23.295 89.475 53.718 114.104 1.3-44.853 35.683-79.244 80.544-80.544-24.631-30.426-73.444-52.95-114.104-53.718z" fill="url(#SVGID_00000168829785380535588840000015176217403119847098_)"/><path d="m63.413 61.726c-11.2-.212-20.369 8.958-20.158 20.158.768 40.662 23.295 89.475 53.718 114.104 1.3-44.853 35.683-79.244 80.544-80.544-24.631-30.426-73.444-52.95-114.104-53.718z" fill="url(#SVGID_00000064354580065799179930000006163560003737456279_)"/><path d="m63.413 61.726c-11.2-.212-20.369 8.958-20.158 20.158.768 40.662 23.295 89.475 53.718 114.104 1.3-44.853 35.683-79.244 80.544-80.544-24.631-30.426-73.444-52.95-114.104-53.718z" fill="url(#SVGID_00000010306952951656436690000000055995203178867372_)"/></g></g><path d="m457.23 367.44c-4.5 40.63-38.97 73.68-82.43 73.68h-237.6c-43.46 0-77.93-33.05-82.43-73.68l73.48-75.16c70.08-71.68 185.42-71.68 255.5 0z" fill="url(#SVGID_00000045586189448607885790000017735072911688600984_)"/><path d="m54.77 367.44c4.5 40.63 38.97 73.68 82.43 73.68h237.6c43.46 0 77.93-33.05 82.43-73.68l-23.837-24.382h-354.786z" fill="url(#SVGID_00000145050006163517890110000010148127642777691301_)"/><path d="m374.8 441.12c43.46 0 77.93-33.05 82.43-73.68l-73.48-75.16c-35.04-35.84-81.395-53.76-127.75-53.76v202.6z" fill="url(#SVGID_00000023250618836759858300000001439861930689372061_)"/><path d="m374.8 441.12c43.46 0 77.93-33.05 82.43-73.68l-44.298-45.311h-83.932l-16.45 16.45v102.541z" fill="url(#SVGID_00000075137897629204182190000000474545274946461073_)"/><path d="m431.237 215.473c-14.508-73.795-79.204-127.009-154.411-127.009h-41.651c-75.207 0-139.903 53.215-154.411 127.009l-24.919 126.742c-1.686 8.577-1.985 17.052-1.078 25.223 4.177.254 8.384.399 12.625.399 74.87 0 140.356-40.172 176.084-100.136 5.654-9.489 19.394-9.489 25.048 0 35.728 59.964 101.214 100.136 176.084 100.136 4.241 0 8.448-.144 12.625-.399.906-8.171.608-16.646-1.078-25.223z" fill="url(#SVGID_00000133503214317686577510000000709104081238395307_)"/><path d="m359.359 386.508-3.194-10.959c-11.347-38.939-47.037-65.713-87.595-65.713h-25.14c-40.559 0-76.248 26.774-87.595 65.713l-3.193 10.959c-9.611 32.982 15.612 65.002 52.92 71.222 5.04.84 10.21-.378 14.415-3.28 21.685-14.963 50.362-14.963 72.047 0 4.206 2.902 9.375 4.12 14.415 3.28 37.308-6.22 62.531-38.24 52.92-71.222z" fill="url(#SVGID_00000120545281344679096350000000015223014592324014_)"/><path d="m356.165 375.549c-11.347-38.939-47.037-65.713-87.595-65.713h-12.57v133.392c12.59 0 25.181 3.741 36.023 11.222 4.206 2.902 9.375 4.12 14.415 3.28 37.308-6.22 62.531-38.24 52.92-71.222z" fill="url(#SVGID_00000019677439805326591120000005166711489165488024_)"/><path d="m431.237 215.473c-14.508-73.794-79.204-127.009-154.411-127.009h-20.826v172.12c4.849 0 9.697 2.372 12.524 7.117 35.728 59.964 101.214 100.136 176.084 100.136 4.241 0 8.448-.145 12.625-.398.906-8.171.608-16.646-1.078-25.223z" fill="url(#SVGID_00000062892037394519881350000001223423211407820190_)"/><g><path d="m165.917 327.48c-14.681 0-26.582-11.901-26.582-26.582v-13.632c0-14.681 11.901-26.582 26.582-26.582 14.681 0 26.582 11.901 26.582 26.582v13.632c0 14.681-11.901 26.582-26.582 26.582z" fill="url(#SVGID_00000016033257095896492640000012895886433485257899_)"/><path d="m346.083 327.48c-14.681 0-26.582-11.901-26.582-26.582v-13.632c0-14.681 11.901-26.582 26.582-26.582 14.681 0 26.582 11.901 26.582 26.582v13.632c0 14.681-11.901 26.582-26.582 26.582z" fill="url(#SVGID_00000178200516958288920040000006343819953479555229_)"/></g><path d="m155.835 375.55-3.193 10.959c-9.611 32.981 15.612 65.002 52.92 71.222 5.04.84 10.21-.378 14.415-3.28 21.685-14.963 50.362-14.963 72.047 0 4.206 2.902 9.375 4.12 14.415 3.28 37.308-6.22 62.531-38.24 52.92-71.222l-3.193-10.959c-.393-1.348-.821-2.677-1.271-3.995h-197.789c-.45 1.317-.879 2.647-1.271 3.995z" fill="url(#SVGID_00000146465295694013239310000018088754412517244579_)"/><path d="m356.641 421.966-71.934-71.934-56.766 31.592 76.33 76.33c.723-.037 1.447-.104 2.168-.224 23.287-3.882 41.864-17.818 50.202-35.764z" fill="url(#SVGID_00000107572330499434672990000001729614209439219867_)"/><path d="m273.955 388.057 5.195-2.819c7.177-3.894 11.646-11.404 11.646-19.569v-.347c0-12.296-9.968-22.264-22.264-22.264h-25.063c-12.296 0-22.264 9.968-22.264 22.264v.347c0 8.165 4.47 15.675 11.646 19.569l5.195 2.819c11.198 6.076 24.71 6.076 35.909 0z" fill="url(#SVGID_00000082337605035947274590000015753870003454183584_)"/></g></svg>