<svg id="Capa_1" enable-background="new 0 0 512 512" height="512" viewBox="0 0 512 512" width="512" xmlns="http://www.w3.org/2000/svg" xmlns:xlink="http://www.w3.org/1999/xlink"><linearGradient id="lg1"><stop offset="0" stop-color="#b9acac"/><stop offset="1" stop-color="#766e6e"/></linearGradient><linearGradient id="SVGID_1_" gradientTransform="matrix(.966 -.259 .259 .966 -26.987 48.226)" gradientUnits="userSpaceOnUse" x1="53.835" x2="123.742" xlink:href="#lg1" y1="28.332" y2="124.268"/><linearGradient id="lg2"><stop offset="0" stop-color="#433f43" stop-opacity="0"/><stop offset=".2995" stop-color="#3e3b3e" stop-opacity=".3"/><stop offset=".6425" stop-color="#302e30" stop-opacity=".643"/><stop offset="1" stop-color="#1a1a1a"/></linearGradient><linearGradient id="SVGID_00000059290571441242975110000017403412924167265180_" gradientTransform="matrix(.966 -.259 .259 .966 -26.987 48.226)" gradientUnits="userSpaceOnUse" x1="86.885" x2="133.74" xlink:href="#lg2" y1="68.539" y2="136.962"/><linearGradient id="SVGID_00000039107111673556232190000012846418106958818181_" gradientTransform="matrix(.966 -.259 .259 .966 -26.987 48.226)" gradientUnits="userSpaceOnUse" x1="148.091" x2="235.107" xlink:href="#lg2" y1="83.293" y2="53.544"/><linearGradient id="lg3"><stop offset="0" stop-color="#ffdfcf"/><stop offset="1" stop-color="#fd8087"/></linearGradient><linearGradient id="SVGID_00000150101210475222980870000004317629584889620660_" gradientTransform="matrix(.966 -.259 .259 .966 -26.987 48.226)" gradientUnits="userSpaceOnUse" x1="82.852" x2="125.986" xlink:href="#lg3" y1="54.394" y2="107.196"/><linearGradient id="lg4"><stop offset="0" stop-color="#fd4755" stop-opacity="0"/><stop offset=".2593" stop-color="#f74452" stop-opacity=".259"/><stop offset=".6276" stop-color="#e43b4c" stop-opacity=".628"/><stop offset="1" stop-color="#ca2e43"/></linearGradient><linearGradient id="SVGID_00000002349573994519647370000012803066279545030793_" gradientTransform="matrix(.966 -.259 .259 .966 -26.987 48.226)" gradientUnits="userSpaceOnUse" x1="100.76" x2="75.475" xlink:href="#lg4" y1="93.829" y2="84.904"/><linearGradient id="SVGID_00000181774154126353944230000010124796218854265785_" gradientTransform="matrix(.966 .259 -.259 .966 44.425 -84.231)" gradientUnits="userSpaceOnUse" x1="321.944" x2="408.212" xlink:href="#lg1" y1="57.099" y2="156.01"/><linearGradient id="SVGID_00000138558831720950333780000002190626664939526537_" gradientTransform="matrix(.966 .259 -.259 .966 44.425 -84.231)" gradientUnits="userSpaceOnUse" x1="408.271" x2="384.471" xlink:href="#lg2" y1="78.023" y2="120.415"/><linearGradient id="SVGID_00000145056897472642694420000000298928836646789769_" gradientTransform="matrix(.966 .259 -.259 .966 44.425 -84.231)" gradientUnits="userSpaceOnUse" x1="426.869" x2="464.053" xlink:href="#lg2" y1="104.812" y2="102.581"/><linearGradient id="SVGID_00000008128205783764527510000005866709639114465962_" gradientTransform="matrix(.966 .259 -.259 .966 44.425 -84.231)" gradientUnits="userSpaceOnUse" x1="344.221" x2="378.431" xlink:href="#lg3" y1="47.659" y2="117.566"/><linearGradient id="SVGID_00000088133515282053416920000006493028761542875273_" gradientTransform="matrix(.966 .259 -.259 .966 44.425 -84.231)" gradientUnits="userSpaceOnUse" x1="387.57" x2="377.158" xlink:href="#lg4" y1="52.797" y2="94.444"/><linearGradient id="SVGID_00000024685701230847170530000000670949660893543827_" gradientTransform="matrix(.966 .259 -.259 .966 44.425 -84.231)" gradientUnits="userSpaceOnUse" x1="364.865" x2="340.323" xlink:href="#lg4" y1="85.974" y2="63.664"/><linearGradient id="lg5"><stop offset="0" stop-color="#fffaf8"/><stop offset="1" stop-color="#ffdfcf"/></linearGradient><linearGradient id="SVGID_00000133499088439839174660000001902836879212193214_" gradientUnits="userSpaceOnUse" x1="171.431" x2="360.342" xlink:href="#lg5" y1="206.393" y2="432.373"/><linearGradient id="lg6"><stop offset="0" stop-color="#f89580" stop-opacity="0"/><stop offset=".2599" stop-color="#f2917c" stop-opacity=".261"/><stop offset=".5954" stop-color="#e2856f" stop-opacity=".597"/><stop offset=".9709" stop-color="#c8725b" stop-opacity=".974"/><stop offset=".9972" stop-color="#c5715a"/></linearGradient><linearGradient id="SVGID_00000176044746209364585430000007024669082273865907_" gradientUnits="userSpaceOnUse" x1="393.582" x2="476.988" xlink:href="#lg6" y1="346.898" y2="396.086"/><linearGradient id="lg7"><stop offset="0" stop-color="#5a5a5a"/><stop offset="1" stop-color="#444"/></linearGradient><linearGradient id="SVGID_00000156550585459636619770000007371571123347179166_" gradientUnits="userSpaceOnUse" x1="151.592" x2="193.244" xlink:href="#lg7" y1="222.211" y2="252.872"/><linearGradient id="SVGID_00000132064335136749113640000007057643955508972694_" gradientUnits="userSpaceOnUse" x1="319.245" x2="356.269" xlink:href="#lg7" y1="220.415" y2="248.184"/><linearGradient id="SVGID_00000099650749396564052720000009211048739471585686_" gradientUnits="userSpaceOnUse" x1="256" x2="256" xlink:href="#lg6" y1="353.257" y2="463.596"/><linearGradient id="SVGID_00000100346459068275012970000018377044990149186699_" gradientUnits="userSpaceOnUse" x1="494.134" x2="375.441" xlink:href="#lg6" y1="385.2" y2="373.081"/><linearGradient id="SVGID_00000122680308076664655850000018442311190241443504_" gradientUnits="userSpaceOnUse" x1="141.398" x2="384.575" xlink:href="#lg1" y1="124.469" y2="377.04"/><linearGradient id="SVGID_00000035496282594220559100000007171516532077042065_" gradientUnits="userSpaceOnUse" x1="389.114" x2="483.213" xlink:href="#lg2" y1="174.488" y2="164.865"/><linearGradient id="SVGID_00000031913778787145687050000009836434247183210665_" gradientUnits="userSpaceOnUse" x1="256.203" x2="272.01" y1="456.057" y2="482.806"><stop offset="0" stop-color="#fdb4ba"/><stop offset="1" stop-color="#fd8087"/></linearGradient><linearGradient id="SVGID_00000018949091978267251420000005192383476241694399_" gradientUnits="userSpaceOnUse" x1="256" x2="256" xlink:href="#lg4" y1="485.495" y2="445.7"/><linearGradient id="SVGID_00000039120655829706587700000011758475745490329247_" gradientUnits="userSpaceOnUse" x1="288.52" x2="259.339" xlink:href="#lg4" y1="477.049" y2="446.045"/><linearGradient id="SVGID_00000145046986669869966110000018071095426868184721_" gradientUnits="userSpaceOnUse" x1="216.578" x2="299.151" xlink:href="#lg5" y1="301.523" y2="473.145"/><linearGradient id="SVGID_00000075162357808154497070000004526394294449245337_" gradientUnits="userSpaceOnUse" x1="312.534" x2="449.975" xlink:href="#lg6" y1="366.175" y2="431.658"/><linearGradient id="SVGID_00000125601435854828882650000013058016649391479692_" gradientUnits="userSpaceOnUse" x1="256" x2="256" xlink:href="#lg6" y1="401.247" y2="500.644"/><linearGradient id="SVGID_00000044882590179331495210000008629622516425435065_" gradientUnits="userSpaceOnUse" x1="317.527" x2="253.123" xlink:href="#lg6" y1="400.455" y2="292.876"/><linearGradient id="SVGID_00000003813178380790859000000006603139915770305970_" gradientUnits="userSpaceOnUse" x1="247.062" x2="268.649" xlink:href="#lg7" y1="318.112" y2="357.689"/><g><g><g><path d="m46.479 20.494c3.292-13.625 16.649-22.446 30.473-20.123 75.006 12.603 160.133 73.187 194.593 139.578-80.519-14.054-154.421 34.76-173.111 114.317-47.522-57.755-69.818-159.838-51.955-233.772z" fill="url(#SVGID_1_)"/><path d="m46.479 20.494c3.292-13.625 16.649-22.446 30.473-20.123 75.006 12.603 160.133 73.187 194.593 139.578-80.519-14.054-154.421 34.76-173.111 114.317-47.522-57.755-69.818-159.838-51.955-233.772z" fill="url(#SVGID_00000059290571441242975110000017403412924167265180_)"/><path d="m46.479 20.494c3.292-13.625 16.649-22.446 30.473-20.123 75.006 12.603 160.133 73.187 194.593 139.578-80.519-14.054-154.421 34.76-173.111 114.317-47.522-57.755-69.818-159.838-51.955-233.772z" fill="url(#SVGID_00000039107111673556232190000012846418106958818181_)"/><path d="m102.628 47.677c-10.442-2.342-20.779 4.484-22.726 15.007-7.066 38.203 4.673 88.203 28.431 117.078 9.804-41.731 48.568-67.335 90.804-59.964-17.227-33.192-58.601-63.618-96.509-72.121z" fill="url(#SVGID_00000150101210475222980870000004317629584889620660_)"/><path d="m102.628 47.677c-10.442-2.342-20.779 4.484-22.726 15.007-7.066 38.203 4.673 88.203 28.431 117.078 9.804-41.731 48.568-67.335 90.804-59.964-17.227-33.192-58.601-63.618-96.509-72.121z" fill="url(#SVGID_00000002349573994519647370000012803066279545030793_)"/></g><g><path d="m465.522 20.494c-3.292-13.626-16.649-22.447-30.473-20.124-75.006 12.603-160.133 73.187-194.593 139.578 80.519-14.054 154.421 34.76 173.111 114.317 47.521-57.754 69.817-159.837 51.955-233.771z" fill="url(#SVGID_00000181774154126353944230000010124796218854265785_)"/><path d="m465.522 20.494c-3.292-13.626-16.649-22.447-30.473-20.124-75.006 12.603-160.133 73.187-194.593 139.578 80.519-14.054 154.421 34.76 173.111 114.317 47.521-57.754 69.817-159.837 51.955-233.771z" fill="url(#SVGID_00000138558831720950333780000002190626664939526537_)"/><path d="m465.522 20.494c-3.292-13.626-16.649-22.447-30.473-20.124-75.006 12.603-160.133 73.187-194.593 139.578 80.519-14.054 154.421 34.76 173.111 114.317 47.521-57.754 69.817-159.837 51.955-233.771z" fill="url(#SVGID_00000145056897472642694420000000298928836646789769_)"/><path d="m409.372 47.677c10.442-2.342 20.779 4.484 22.726 15.007 7.066 38.203-4.673 88.203-28.431 117.078-9.804-41.731-48.568-67.335-90.804-59.964 17.227-33.192 58.601-63.618 96.509-72.121z" fill="url(#SVGID_00000008128205783764527510000005866709639114465962_)"/><path d="m409.372 47.677c10.442-2.342 20.779 4.484 22.726 15.007 7.066 38.203-4.673 88.203-28.431 117.078-9.804-41.731-48.568-67.335-90.804-59.964 17.227-33.192 58.601-63.618 96.509-72.121z" fill="url(#SVGID_00000088133515282053416920000006493028761542875273_)"/><path d="m409.372 47.677c10.442-2.342 20.779 4.484 22.726 15.007 7.066 38.203-4.673 88.203-28.431 117.078-9.804-41.731-48.568-67.335-90.804-59.964 17.227-33.192 58.601-63.618 96.509-72.121z" fill="url(#SVGID_00000024685701230847170530000000670949660893543827_)"/></g></g><path d="m487.97 320.22c-2.95 74.44-64.3 136.83-142.66 136.83h-178.62c-78.36 0-139.71-62.39-142.66-136.83l49.05-49.06v-39.969c0-62.308 50.51-112.818 112.818-112.818h140.203c62.308 0 112.818 50.51 112.818 112.818v39.969z" fill="url(#SVGID_00000133499088439839174660000001902836879212193214_)"/><path d="m438.92 231.191c0-62.308-50.51-112.818-112.818-112.818h-96.583v338.677h115.791c78.36 0 139.71-62.39 142.66-136.83l-49.05-49.06z" fill="url(#SVGID_00000176044746209364585430000007024669082273865907_)"/><g><path d="m171.158 274.306c-16.568 0-30-13.431-30-30v-15.384c0-16.568 13.431-30 30-30 16.568 0 30 13.431 30 30v15.384c0 16.568-13.432 30-30 30z" fill="url(#SVGID_00000156550585459636619770000007371571123347179166_)"/><path d="m340.842 274.306c-16.569 0-30-13.431-30-30v-15.384c0-16.568 13.431-30 30-30 16.568 0 30 13.431 30 30v15.384c0 16.568-13.431 30-30 30z" fill="url(#SVGID_00000132064335136749113640000007057643955508972694_)"/></g><path d="m73.08 260.584v10.576l-49.05 49.06c2.95 74.44 64.3 136.83 142.66 136.83h178.62c78.36 0 139.71-62.39 142.66-136.83l-49.05-49.06v-10.576z" fill="url(#SVGID_00000099650749396564052720000009211048739471585686_)"/><path d="m468.471 386.454-94.972-94.972v162.802c40.861-8.142 74.881-33.633 94.972-67.83z" fill="url(#SVGID_00000100346459068275012970000018377044990149186699_)"/><path d="m465.739 186.969c-17.365-88.323-94.799-152.015-184.813-152.015h-49.852c-90.015 0-167.448 63.692-184.813 152.016l-19.622 99.805c-2.222 11.302-3.042 22.502-2.608 33.443l50.055-10.207c20.464-4.173 34.359-23.275 32.029-44.03-11.242-43.732 2.145-90.119 34.958-121.137 26.398-24.953 67.513-25.515 94.583-1.291l6.101 5.459c8.109 7.257 20.378 7.257 28.487 0l6.101-5.459c27.069-24.223 68.185-23.662 94.583 1.291 32.814 31.018 46.2 77.405 34.958 121.137-2.33 20.755 11.565 39.857 32.029 44.03l50.055 10.207c.433-10.941-.386-22.141-2.608-33.443z" fill="url(#SVGID_00000122680308076664655850000018442311190241443504_)"/><path d="m465.739 186.969c-17.365-88.323-94.799-152.015-184.813-152.015h-49.852c-.52 0-1.037.013-1.556.017v103.697c2.11 1.502 4.165 3.119 6.137 4.884l6.101 5.459c8.109 7.257 20.378 7.257 28.487 0l6.101-5.459c27.069-24.223 68.185-23.662 94.583 1.291 32.814 31.018 46.2 77.405 34.958 121.137-2.33 20.755 11.565 39.857 32.029 44.03l50.055 10.207c.433-10.941-.386-22.141-2.608-33.443z" fill="url(#SVGID_00000035496282594220559100000007171516532077042065_)"/><g><path d="m267.43 512h-22.86c-18.149 0-32.249-15.809-30.182-33.84l8.109-70.724h67.007l8.109 70.724c2.067 18.031-12.034 33.84-30.183 33.84z" fill="url(#SVGID_00000031913778787145687050000009836434247183210665_)"/><path d="m267.43 512h-22.86c-18.149 0-32.249-15.809-30.182-33.84l8.109-70.724h67.007l8.109 70.724c2.067 18.031-12.034 33.84-30.183 33.84z" fill="url(#SVGID_00000018949091978267251420000005192383476241694399_)"/><path d="m289.504 407.436h-34.59v104.564h12.517c18.149 0 32.249-15.809 30.182-33.84z" fill="url(#SVGID_00000039120655829706587700000011758475745490329247_)"/></g><g><path d="m412.5 366.322-4.835-16.593c-17.181-58.959-71.22-99.499-132.631-99.499h-38.065c-61.412 0-115.451 40.54-132.632 99.499l-4.835 16.593c-14.552 49.939 23.638 98.422 80.128 107.84 7.631 1.272 15.459-.572 21.827-4.966 32.834-22.656 76.255-22.656 109.089 0h.001c6.368 4.394 14.195 6.238 21.827 4.966 56.487-9.418 94.678-57.901 80.126-107.84z" fill="url(#SVGID_00000145046986669869966110000018071095426868184721_)"/><path d="m407.664 349.729c-17.181-58.959-71.22-99.499-132.631-99.499h-19.033v201.974c19.064 0 38.128 5.664 54.544 16.992h.001c6.368 4.394 14.195 6.238 21.827 4.966 56.49-9.418 94.68-57.901 80.128-107.84z" fill="url(#SVGID_00000075162357808154497070000004526394294449245337_)"/><path d="m104.336 349.729-4.835 16.593c-14.552 49.939 23.638 98.422 80.128 107.84 7.631 1.272 15.459-.572 21.827-4.966 32.834-22.656 76.255-22.657 109.089 0h.001c6.368 4.394 14.195 6.238 21.827 4.966 56.49-9.418 94.68-57.901 80.128-107.84l-4.835-16.593c-.595-2.041-1.243-4.053-1.925-6.049h-299.48c-.682 1.995-1.331 4.008-1.925 6.049z" fill="url(#SVGID_00000125601435854828882650000013058016649391479692_)"/><path d="m408.385 420.01-108.918-108.918-85.952 47.835 115.574 115.574c1.095-.056 2.191-.157 3.283-.339 35.26-5.879 63.388-26.979 76.013-54.152z" fill="url(#SVGID_00000044882590179331495210000008629622516425435065_)"/><path d="m283.186 368.667 7.866-4.268c10.867-5.896 17.634-17.268 17.634-29.631v-.525c0-18.618-15.093-33.712-33.711-33.712h-37.948c-18.618 0-33.712 15.093-33.712 33.712v.525c0 12.363 6.767 23.735 17.634 29.631l7.866 4.268c16.956 9.2 37.415 9.2 54.371 0z" fill="url(#SVGID_00000003813178380790859000000006603139915770305970_)"/></g></g></svg>