<svg id="Capa_1" enable-background="new 0 0 512 512" height="512" viewBox="0 0 512 512" width="512" xmlns="http://www.w3.org/2000/svg" xmlns:xlink="http://www.w3.org/1999/xlink"><linearGradient id="lg1"><stop offset="0" stop-color="#5a5a5a"/><stop offset="1" stop-color="#444"/></linearGradient><linearGradient id="SVGID_1_" gradientUnits="userSpaceOnUse" x1="75.306" x2="142.313" xlink:href="#lg1" y1="47.988" y2="139.944"/><linearGradient id="lg2"><stop offset="0" stop-color="#433f43" stop-opacity="0"/><stop offset=".2995" stop-color="#3e3b3e" stop-opacity=".3"/><stop offset=".6425" stop-color="#302e30" stop-opacity=".643"/><stop offset="1" stop-color="#1a1a1a"/></linearGradient><linearGradient id="SVGID_00000039105893119998559830000013845161539786370495_" gradientUnits="userSpaceOnUse" x1="129.755" x2="151.14" xlink:href="#lg2" y1="81.226" y2="131.838"/><linearGradient id="SVGID_00000178198994260114668350000003103971864317541535_" gradientUnits="userSpaceOnUse" x1="191.93" x2="219.017" xlink:href="#lg2" y1="92.185" y2="75.077"/><linearGradient id="lg3"><stop offset="0" stop-color="#ffdfcf"/><stop offset="1" stop-color="#fd8087"/></linearGradient><linearGradient id="SVGID_00000030472108996323754610000017333111072586427065_" gradientUnits="userSpaceOnUse" x1="103.12" x2="144.464" xlink:href="#lg3" y1="72.969" y2="123.58"/><linearGradient id="lg4"><stop offset="0" stop-color="#fd4755" stop-opacity="0"/><stop offset=".2593" stop-color="#f74452" stop-opacity=".259"/><stop offset=".6276" stop-color="#e43b4c" stop-opacity=".628"/><stop offset="1" stop-color="#ca2e43"/></linearGradient><linearGradient id="SVGID_00000178181261023874244450000018167554434641765016_" gradientUnits="userSpaceOnUse" x1="120.285" x2="96.049" xlink:href="#lg4" y1="110.768" y2="102.214"/><linearGradient id="SVGID_00000067942725191082978950000009401915698940578190_" gradientUnits="userSpaceOnUse" x1="305.916" x2="388.605" xlink:href="#lg1" y1="75.618" y2="170.425"/><linearGradient id="SVGID_00000181081337645243030860000002136793207698016402_" gradientUnits="userSpaceOnUse" x1="365.05" x2="351.506" xlink:href="#lg2" y1="77.055" y2="129.092"/><linearGradient id="SVGID_00000154426666038404958380000015986174764343085203_" gradientUnits="userSpaceOnUse" x1="406.488" x2="442.129" xlink:href="#lg2" y1="121.351" y2="119.213"/><linearGradient id="SVGID_00000163761965472905676880000013374392433512809353_" gradientUnits="userSpaceOnUse" x1="327.269" x2="360.059" xlink:href="#lg3" y1="66.569" y2="133.576"/><linearGradient id="SVGID_00000023979924802988614510000007027971351182361009_" gradientUnits="userSpaceOnUse" x1="368.819" x2="358.839" xlink:href="#lg4" y1="71.494" y2="111.413"/><linearGradient id="SVGID_00000050636976734396079830000002945990272042470333_" gradientUnits="userSpaceOnUse" x1="347.056" x2="323.532" xlink:href="#lg4" y1="103.295" y2="81.91"/><linearGradient id="lg5"><stop offset="0" stop-color="#ffbf51"/><stop offset="1" stop-color="#c5715a"/></linearGradient><linearGradient id="SVGID_00000165202245694345010070000016270594104409396365_" gradientUnits="userSpaceOnUse" x1="209.572" x2="276.935" xlink:href="#lg5" y1="87.501" y2="281.035"/><linearGradient id="lg6"><stop offset="0" stop-color="#c4573a" stop-opacity="0"/><stop offset=".2529" stop-color="#ba5338" stop-opacity=".253"/><stop offset=".6769" stop-color="#a04933" stop-opacity=".677"/><stop offset="1" stop-color="#883f2e"/></linearGradient><linearGradient id="SVGID_00000111873090348768360270000015896848398307784065_" gradientUnits="userSpaceOnUse" x1="349.77" x2="435.311" xlink:href="#lg6" y1="263.1" y2="279.495"/><linearGradient id="SVGID_00000017478797731486276600000009305816057270148269_" gradientUnits="userSpaceOnUse" x1="255.96" x2="255.96" xlink:href="#lg6" y1="386.842" y2="420.468"/><linearGradient id="SVGID_00000138533668671988128720000009757253482503527829_" gradientUnits="userSpaceOnUse" x1="290.179" x2="255.493" xlink:href="#lg6" y1="127.532" y2="105.298"/><linearGradient id="SVGID_00000158721409218509820960000017527671585934101176_" gradientTransform="matrix(-1 0 0 1 420.433 0)" gradientUnits="userSpaceOnUse" x1="198.827" x2="164.141" xlink:href="#lg6" y1="127.532" y2="105.298"/><linearGradient id="SVGID_00000155106381438000329840000002824391937922039184_" gradientUnits="userSpaceOnUse" x1="290.179" x2="255.493" xlink:href="#lg6" y1="144.275" y2="122.04"/><linearGradient id="SVGID_00000032644464281916088730000009839659293070910636_" gradientTransform="matrix(-1 0 0 1 420.433 0)" gradientUnits="userSpaceOnUse" x1="198.827" x2="164.141" xlink:href="#lg6" y1="144.275" y2="122.04"/><linearGradient id="SVGID_00000107588091942132118530000000964656526509097359_" gradientUnits="userSpaceOnUse" x1="290.179" x2="255.493" xlink:href="#lg6" y1="168.516" y2="146.282"/><linearGradient id="SVGID_00000165196830107438082820000006204436844469697969_" gradientTransform="matrix(-1 0 0 1 420.433 0)" gradientUnits="userSpaceOnUse" x1="198.827" x2="164.141" xlink:href="#lg6" y1="168.516" y2="146.282"/><linearGradient id="SVGID_00000094583379691214429310000002285145361956647349_" gradientUnits="userSpaceOnUse" x1="255.892" x2="255.892" xlink:href="#lg6" y1="218.236" y2="317.74"/><linearGradient id="SVGID_00000047761840155477523200000004333270203832044962_" gradientUnits="userSpaceOnUse" x1="135.646" x2="130.656" xlink:href="#lg6" y1="256.776" y2="221.134"/><linearGradient id="SVGID_00000011736884193917915890000013323977346175356068_" gradientUnits="userSpaceOnUse" x1="381.669" x2="390.223" xlink:href="#lg6" y1="257.3" y2="224.153"/><linearGradient id="SVGID_00000069379728602150826210000003557207794369337006_" gradientUnits="userSpaceOnUse" x1="375.681" x2="421.303" xlink:href="#lg6" y1="265.345" y2="280.314"/><linearGradient id="SVGID_00000103246624305398289140000014888830785522618514_" gradientUnits="userSpaceOnUse" x1="223.082" x2="178.886" xlink:href="#lg6" y1="255.091" y2="236.558"/><linearGradient id="SVGID_00000054223610834449620030000017960636890237209252_" gradientUnits="userSpaceOnUse" x1="153.158" x2="188.455" xlink:href="#lg1" y1="223.332" y2="249.315"/><linearGradient id="SVGID_00000096039177110699159800000003540207586114616726_" gradientUnits="userSpaceOnUse" x1="323.743" x2="355.119" xlink:href="#lg1" y1="221.811" y2="245.342"/><linearGradient id="SVGID_00000157267513033490626040000010279784360802966919_" gradientUnits="userSpaceOnUse" x1="256.911" x2="269.393" y1="389.331" y2="410.454"><stop offset="0" stop-color="#fdb4ba"/><stop offset="1" stop-color="#fd8087"/></linearGradient><linearGradient id="SVGID_00000120553995579537649100000008380481069050854325_" gradientUnits="userSpaceOnUse" x1="256.751" x2="256.751" xlink:href="#lg4" y1="443.761" y2="383.539"/><linearGradient id="SVGID_00000012437825414831981830000017879059612266973074_" gradientUnits="userSpaceOnUse" x1="282.431" x2="259.388" xlink:href="#lg4" y1="405.907" y2="381.424"/><linearGradient id="SVGID_00000159440756042457422330000001313367977699912616_" gradientUnits="userSpaceOnUse" x1="230.505" x2="271.137" xlink:href="#lg5" y1="268.407" y2="483.683"/><linearGradient id="SVGID_00000055695086789324588800000013509783373570901692_" gradientUnits="userSpaceOnUse" x1="420.152" x2="473.852" xlink:href="#lg6" y1="395.661" y2="409.918"/><linearGradient id="SVGID_00000031188337278350140050000014375302687943123596_" gradientUnits="userSpaceOnUse" x1="330.367" x2="317.061" xlink:href="#lg6" y1="287.769" y2="231.218"/><linearGradient id="SVGID_00000100354941850640100700000009122054772118811551_" gradientUnits="userSpaceOnUse" x1="342.104" x2="338.54" xlink:href="#lg6" y1="291.146" y2="254.792"/><linearGradient id="SVGID_00000039126453996529674390000004299405714456756408_" gradientTransform="matrix(-1 0 0 1 703.53 0)" gradientUnits="userSpaceOnUse" x1="522.112" x2="508.806" xlink:href="#lg6" y1="287.769" y2="231.218"/><linearGradient id="SVGID_00000069364059831671770270000018367583522829163183_" gradientTransform="matrix(-1 0 0 1 703.53 0)" gradientUnits="userSpaceOnUse" x1="533.849" x2="530.285" xlink:href="#lg6" y1="291.146" y2="254.792"/><linearGradient id="SVGID_00000054970825688136358240000003541933976055413940_" gradientUnits="userSpaceOnUse" x1="255.999" x2="255.999" xlink:href="#lg6" y1="418.187" y2="528.423"/><linearGradient id="SVGID_00000056388508347930541950000007422635391061254560_" gradientUnits="userSpaceOnUse" x1="248.938" x2="263.63" xlink:href="#lg1" y1="256.958" y2="286.342"/><linearGradient id="SVGID_00000046297214224745922070000014182352271886244999_" gradientUnits="userSpaceOnUse" x1="366.749" x2="379.943" xlink:href="#lg5" y1="149.223" y2="235.251"/><linearGradient id="SVGID_00000119807550951394538820000011546949634296438921_" gradientUnits="userSpaceOnUse" x1="377.492" x2="374.721" xlink:href="#lg6" y1="210.769" y2="230.561"/><linearGradient id="SVGID_00000045609082022121604330000011529942802457412744_" gradientUnits="userSpaceOnUse" x1="385.058" x2="393.766" xlink:href="#lg6" y1="187.945" y2="160.633"/><linearGradient id="SVGID_00000162354660164544340960000000105388971546328975_" gradientUnits="userSpaceOnUse" x1="380.268" x2="391.748" xlink:href="#lg6" y1="200.823" y2="151.344"/><linearGradient id="SVGID_00000031905374511526358140000015904795493889327513_" gradientUnits="userSpaceOnUse" x1="382.314" x2="382.314" xlink:href="#lg6" y1="201.719" y2="222.702"/><linearGradient id="SVGID_00000021111048781933179510000017169162517448801931_" gradientUnits="userSpaceOnUse" x1="391.317" x2="393.296" xlink:href="#lg6" y1="172.43" y2="187.868"/><linearGradient id="SVGID_00000060727180165875787530000017762302439366478261_" gradientUnits="userSpaceOnUse" x1="388.042" x2="405.063" xlink:href="#lg6" y1="214.845" y2="190.304"/><linearGradient id="SVGID_00000147916843724332034910000012460027207104551839_" gradientUnits="userSpaceOnUse" x1="122.58" x2="136.837" xlink:href="#lg5" y1="157.664" y2="223.245"/><linearGradient id="SVGID_00000024693247884437211700000009889479292277512627_" gradientTransform="matrix(-1 0 0 1 753.441 0)" gradientUnits="userSpaceOnUse" x1="619.148" x2="616.377" xlink:href="#lg6" y1="210.769" y2="230.561"/><linearGradient id="SVGID_00000113327460973552576000000011719553889227740571_" gradientTransform="matrix(-1 0 0 1 753.441 0)" gradientUnits="userSpaceOnUse" x1="626.714" x2="635.422" xlink:href="#lg6" y1="187.945" y2="160.633"/><linearGradient id="SVGID_00000135665349794989656170000013457749302760513671_" gradientTransform="matrix(-1 0 0 1 753.441 0)" gradientUnits="userSpaceOnUse" x1="621.925" x2="633.404" xlink:href="#lg6" y1="200.823" y2="151.344"/><linearGradient id="SVGID_00000132801694227205371960000003159812898605345419_" gradientTransform="matrix(-1 0 0 1 753.441 0)" gradientUnits="userSpaceOnUse" x1="623.97" x2="623.97" xlink:href="#lg6" y1="201.719" y2="222.702"/><linearGradient id="SVGID_00000103240906683051518960000012542865796516153764_" gradientTransform="matrix(-1 0 0 1 753.441 0)" gradientUnits="userSpaceOnUse" x1="632.973" x2="634.952" xlink:href="#lg6" y1="172.43" y2="187.868"/><linearGradient id="SVGID_00000030471461914921567180000000969939820772492675_" gradientTransform="matrix(-1 0 0 1 753.441 0)" gradientUnits="userSpaceOnUse" x1="629.698" x2="646.719" xlink:href="#lg6" y1="214.845" y2="190.304"/><linearGradient id="SVGID_00000060009397476222370450000007910662926057314707_" gradientUnits="userSpaceOnUse" x1="361.747" x2="389.547" xlink:href="#lg6" y1="440.121" y2="444.398"/><linearGradient id="SVGID_00000165922886879789605300000010568244957465724300_" gradientUnits="userSpaceOnUse" x1="145.323" x2="118.948" xlink:href="#lg6" y1="443.929" y2="448.562"/><linearGradient id="SVGID_00000170964536819232922690000006271488289804189096_" gradientUnits="userSpaceOnUse" x1="115.994" x2="89.619" xlink:href="#lg6" y1="448.521" y2="457.431"/><linearGradient id="SVGID_00000012441597267631946930000018341535443496274564_" gradientUnits="userSpaceOnUse" x1="394.607" x2="415.279" xlink:href="#lg6" y1="449.244" y2="457.441"/><linearGradient id="SVGID_00000096055802354118707540000007890862080954303149_" gradientUnits="userSpaceOnUse" x1="403.209" x2="465.225" xlink:href="#lg6" y1="424.722" y2="441.83"/><linearGradient id="SVGID_00000138562807976682068440000003866922712044165265_" gradientUnits="userSpaceOnUse" x1="103.431" x2="28.583" xlink:href="#lg6" y1="417.361" y2="423.777"/><g><g><g><path d="m98.603 13.382c6.428-11.799 20.983-16.652 33.206-11.072 66.318 30.276 130.104 107.486 145.537 177.503-71.062-32.987-151.594-6.126-188.635 62.895-29.669-65.261-24.988-165.306 9.892-229.326z" fill="url(#SVGID_1_)"/><path d="m98.603 13.382c6.428-11.799 20.983-16.652 33.206-11.072 66.318 30.276 130.104 107.486 145.537 177.503-71.062-32.987-151.594-6.126-188.635 62.895-29.669-65.261-24.988-165.306 9.892-229.326z" fill="url(#SVGID_00000039105893119998559830000013845161539786370495_)"/><path d="m98.603 13.382c6.428-11.799 20.983-16.652 33.206-11.072 66.318 30.276 130.104 107.486 145.537 177.503-71.062-32.987-151.594-6.126-188.635 62.895-29.669-65.261-24.988-165.306 9.892-229.326z" fill="url(#SVGID_00000178198994260114668350000003103971864317541535_)"/><path d="m143.846 52.479c-9.087-4.759-20.351-1.003-24.764 8.257-16.019 33.618-17.555 82.822-2.721 115.45 19.429-36.204 61.672-50.294 98.947-32.991-7.717-35.006-38.474-73.44-71.462-90.716z" fill="url(#SVGID_00000030472108996323754610000017333111072586427065_)"/><path d="m143.846 52.479c-9.087-4.759-20.351-1.003-24.764 8.257-16.019 33.618-17.555 82.822-2.721 115.45 19.429-36.204 61.672-50.294 98.947-32.991-7.717-35.006-38.474-73.44-71.462-90.716z" fill="url(#SVGID_00000178181261023874244450000018167554434641765016_)"/></g><g><path d="m413.182 13.382c-6.429-11.799-20.983-16.652-33.206-11.072-66.318 30.276-130.104 107.486-145.537 177.503 71.062-32.987 151.594-6.126 188.635 62.895 29.669-65.261 24.988-165.306-9.892-229.326z" fill="url(#SVGID_00000067942725191082978950000009401915698940578190_)"/><path d="m413.182 13.382c-6.429-11.799-20.983-16.652-33.206-11.072-66.318 30.276-130.104 107.486-145.537 177.503 71.062-32.987 151.594-6.126 188.635 62.895 29.669-65.261 24.988-165.306-9.892-229.326z" fill="url(#SVGID_00000181081337645243030860000002136793207698016402_)"/><path d="m413.182 13.382c-6.429-11.799-20.983-16.652-33.206-11.072-66.318 30.276-130.104 107.486-145.537 177.503 71.062-32.987 151.594-6.126 188.635 62.895 29.669-65.261 24.988-165.306-9.892-229.326z" fill="url(#SVGID_00000154426666038404958380000015986174764343085203_)"/><path d="m367.939 52.479c9.087-4.759 20.351-1.003 24.764 8.257 16.019 33.618 17.555 82.822 2.721 115.45-19.429-36.204-61.672-50.294-98.947-32.991 7.716-35.006 38.474-73.44 71.462-90.716z" fill="url(#SVGID_00000163761965472905676880000013374392433512809353_)"/><path d="m367.939 52.479c9.087-4.759 20.351-1.003 24.764 8.257 16.019 33.618 17.555 82.822 2.721 115.45-19.429-36.204-61.672-50.294-98.947-32.991 7.716-35.006 38.474-73.44 71.462-90.716z" fill="url(#SVGID_00000023979924802988614510000007027971351182361009_)"/><path d="m367.939 52.479c9.087-4.759 20.351-1.003 24.764 8.257 16.019 33.618 17.555 82.822 2.721 115.45-19.429-36.204-61.672-50.294-98.947-32.991 7.716-35.006 38.474-73.44 71.462-90.716z" fill="url(#SVGID_00000050636976734396079830000002945990272042470333_)"/></g></g><g><path d="m437.603 227.868-14.119 71.786c-13.869 70.576-75.746 121.464-147.672 121.464h-39.838c-71.926 0-133.803-50.887-147.672-121.464l-14.119-71.786c-14.661-74.596 42.436-144.022 118.463-144.022 15.588 0 30.984 3.432 45.096 10.053 11.499 5.395 24.802 5.395 36.301 0 14.112-6.621 29.508-10.053 45.096-10.053 76.026 0 133.123 69.426 118.464 144.022z" fill="url(#SVGID_00000165202245694345010070000016270594104409396365_)"/><path d="m319.139 83.846c-15.588 0-30.984 3.432-45.096 10.053-11.499 5.395-24.802 5.395-36.301 0-1.093-.513-2.196-.999-3.304-1.474v324.189h77.968c55.496-13.895 99.633-58.721 111.077-116.96l14.119-71.786c14.66-74.596-42.437-144.022-118.463-144.022z" fill="url(#SVGID_00000111873090348768360270000015896848398307784065_)"/><path d="m155.336 397.694c23.464 14.901 51.208 23.424 80.638 23.424h39.838c29.486 0 57.28-8.557 80.773-23.512-17.4-19.394-55.892-32.876-100.585-32.876-44.761 0-83.303 13.522-100.664 32.964z" fill="url(#SVGID_00000017478797731486276600000009305816057270148269_)"/><g><ellipse cx="338.333" cy="158.401" fill="url(#SVGID_00000138533668671988128720000009757253482503527829_)" rx="81.56" ry="66.217"/><ellipse cx="173.451" cy="158.401" fill="url(#SVGID_00000158721409218509820960000017527671585934101176_)" rx="81.56" ry="66.217"/></g><g><ellipse cx="338.333" cy="175.143" fill="url(#SVGID_00000155106381438000329840000002824391937922039184_)" rx="81.56" ry="66.217"/><ellipse cx="173.451" cy="175.143" fill="url(#SVGID_00000032644464281916088730000009839659293070910636_)" rx="81.56" ry="66.217"/></g><g><ellipse cx="338.333" cy="199.385" fill="url(#SVGID_00000107588091942132118530000000964656526509097359_)" rx="81.56" ry="66.217"/><ellipse cx="173.451" cy="199.385" fill="url(#SVGID_00000165196830107438082820000006204436844469697969_)" rx="81.56" ry="66.217"/></g><path d="m74.186 227.867 14.114 71.786c7.416 37.719 28.545 69.812 57.588 91.523h220.009c29.043-21.711 50.172-53.803 57.588-91.523l14.114-71.786c5.456-27.752.974-54.785-10.715-77.797h-341.983c-11.689 23.012-16.171 50.045-10.715 77.797z" fill="url(#SVGID_00000094583379691214429310000002285145361956647349_)"/><path d="m126.586 210.292c-20.423 0-38.75 8.938-51.313 23.104l13.027 66.257c3.108 15.811 8.634 30.627 16.135 44.111 6.952 2.372 14.397 3.678 22.152 3.678 37.873 0 68.575-30.702 68.575-68.575-.001-37.873-30.703-68.575-68.576-68.575z" fill="url(#SVGID_00000047761840155477523200000004333270203832044962_)"/><path d="m391.77 210.292c-35.727 0-64.69 27.011-64.69 60.332 0 33.32 28.963 60.332 64.69 60.332 8.367 0 16.354-1.498 23.694-4.195 3.467-8.636 6.172-17.696 8.022-27.107l14.084-71.635c-11.712-10.951-27.907-17.727-45.8-17.727z" fill="url(#SVGID_00000011736884193917915890000013323977346175356068_)"/><path d="m391.77 210.292c-35.727 0-64.69 27.011-64.69 60.332 0 33.32 28.963 60.332 64.69 60.332 8.367 0 16.354-1.498 23.694-4.195 3.467-8.636 6.172-17.696 8.022-27.107l14.084-71.635c-11.712-10.951-27.907-17.727-45.8-17.727z" fill="url(#SVGID_00000069379728602150826210000003557207794369337006_)"/></g><path d="m360.197 318.744h-176.411v-148.593h27.829z" fill="url(#SVGID_00000103246624305398289140000014888830785522618514_)"/><g><path d="m169.739 267.478c-14.04 0-25.422-11.382-25.422-25.422v-13.037c0-14.04 11.382-25.422 25.422-25.422 14.04 0 25.422 11.382 25.422 25.422v13.037c0 14.04-11.382 25.422-25.422 25.422z" fill="url(#SVGID_00000054223610834449620030000017960636890237209252_)"/><path d="m342.046 267.478c-14.041 0-25.422-11.382-25.422-25.422v-13.037c0-14.04 11.382-25.422 25.422-25.422 14.04 0 25.422 11.382 25.422 25.422v13.037c0 14.04-11.382 25.422-25.422 25.422z" fill="url(#SVGID_00000096039177110699159800000003540207586114616726_)"/></g><g><path d="m265.777 433.507h-18.052c-14.332 0-25.466-12.484-23.834-26.723l6.403-55.849h52.913l6.403 55.849c1.633 14.239-9.501 26.723-23.833 26.723z" fill="url(#SVGID_00000157267513033490626040000010279784360802966919_)"/><path d="m265.777 433.507h-18.052c-14.332 0-25.466-12.484-23.834-26.723l6.403-55.849h52.913l6.403 55.849c1.633 14.239-9.501 26.723-23.833 26.723z" fill="url(#SVGID_00000120553995579537649100000008380481069050854325_)"/><path d="m283.207 350.936h-27.315v82.571h9.884c14.332 0 25.466-12.484 23.834-26.723z" fill="url(#SVGID_00000012437825414831981830000017879059612266973074_)"/></g><path d="m425.259 300.022c-31.107-30.715-73.85-49.676-121.024-49.676h-96.691c-46.07 0-87.914 18.083-118.821 47.539-48.551 46.271-58.52 119.521-26.113 178.241 6.43 11.65 13.883 22.657 22.239 32.897 3.006 3.684 8.52 4.003 11.895.654l.062-.062c6.516-6.527 10.55-15.536 10.55-25.486 0-1.776.074-3.539.196-5.291 4.076 8.626 8.86 16.942 14.295 24.866 4.007 5.848 13.192 1.977 11.782-4.969-2.189-10.866-3.441-22.041-3.687-33.397 1.181 3.565 2.467 7.101 3.872 10.598 2.639 6.579 12.447 4.798 12.58-2.289.234-11.498 1.521-23.101 3.917-34.653 3.334-16.074 15.256-29.015 30.922-33.918.004-.001.007-.002.007-.002 48.614-15.143 100.683-15.143 149.297 0 0 0 .005.001.014.004 15.667 4.903 27.588 17.844 30.922 33.918 2.396 11.552 3.683 23.154 3.917 34.651.134 7.086 9.941 8.867 12.58 2.289 1.405-3.497 2.691-7.033 3.872-10.598-.246 11.356-1.497 22.531-3.687 33.397-1.41 6.946 7.775 10.816 11.782 4.969 5.432-7.921 10.215-16.233 14.289-24.854.121 1.748.195 3.507.195 5.279 0 9.95 4.034 18.96 10.55 25.486l.062.062c3.377 3.347 8.892 3.027 11.898-.657 8.987-11.014 16.93-22.914 23.678-35.548 30.551-57.2 20.793-127.887-25.35-173.45z" fill="url(#SVGID_00000159440756042457422330000001313367977699912616_)"/><path d="m304.235 250.347h-48.362v143.371c25.176-.002 50.353 3.784 74.665 11.357 0 0 .005.001.014.004 15.667 4.903 27.588 17.844 30.922 33.918 2.395 11.552 3.683 23.154 3.917 34.651.134 7.086 9.941 8.867 12.58 2.289 1.405-3.497 2.691-7.033 3.872-10.598-.246 11.356-1.497 22.531-3.687 33.397-1.41 6.946 7.775 10.816 11.782 4.969 5.432-7.921 10.215-16.233 14.289-24.854.121 1.748.195 3.507.195 5.279 0 9.95 4.034 18.96 10.55 25.486l.062.062c3.377 3.347 8.892 3.027 11.898-.657 8.987-11.014 16.93-22.914 23.678-35.548 30.551-57.2 20.793-127.887-25.35-173.45-31.108-30.716-73.851-49.676-121.025-49.676z" fill="url(#SVGID_00000055695086789324588800000013509783373570901692_)"/><g><g><path d="m451.059 372.611c0-60.397-66.577-109.344-148.702-109.344-17.549 0-34.388 2.24-50.017 6.35v124.135c26.368-.378 52.78 3.391 78.245 11.323 0 0 .005.001.014.004 15.667 4.903 27.588 17.844 30.922 33.918 2.258 10.89 3.52 21.824 3.854 32.674 50.619-17.443 85.684-55.239 85.684-99.06z" fill="url(#SVGID_00000031188337278350140050000014375302687943123596_)"/><path d="m330.585 405.074s.005.001.014.004c15.667 4.903 27.588 17.844 30.922 33.918 2.258 10.89 3.52 21.824 3.854 32.674 47.589-16.398 81.423-50.787 85.305-91.258-5.439-56.755-69.762-101.546-148.322-101.546-17.549 0-34.388 2.24-50.017 6.35v108.534c26.366-.377 52.779 3.392 78.244 11.324z" fill="url(#SVGID_00000100354941850640100700000009122054772118811551_)"/></g><g><path d="m60.725 372.611c0-60.397 66.577-109.344 148.702-109.344 17.549 0 34.388 2.24 50.017 6.35v124.135c-26.368-.378-52.78 3.391-78.245 11.323 0 0-.005.001-.014.004-15.667 4.903-27.588 17.844-30.922 33.918-2.258 10.89-3.52 21.824-3.854 32.674-50.618-17.443-85.684-55.239-85.684-99.06z" fill="url(#SVGID_00000039126453996529674390000004299405714456756408_)"/><path d="m181.2 405.074s-.005.001-.014.004c-15.667 4.903-27.588 17.844-30.922 33.918-2.258 10.89-3.52 21.824-3.854 32.674-47.589-16.398-81.423-50.787-85.305-91.258 5.439-56.755 69.762-101.546 148.322-101.546 17.549 0 34.388 2.24 50.017 6.35v108.534c-26.367-.377-52.779 3.392-78.244 11.324z" fill="url(#SVGID_00000069364059831671770270000018367583522829163183_)"/></g></g><path d="m62.61 476.126c6.43 11.65 13.883 22.657 22.239 32.897 3.006 3.684 8.52 4.003 11.895.654l.062-.062c6.516-6.527 10.55-15.536 10.55-25.486 0-1.776.074-3.539.196-5.291 4.076 8.626 8.86 16.942 14.295 24.866 4.007 5.848 13.192 1.977 11.782-4.969-2.189-10.866-3.441-22.041-3.687-33.397 1.181 3.565 2.467 7.101 3.872 10.598 2.639 6.579 12.447 4.798 12.58-2.289.234-11.498 1.521-23.101 3.917-34.653 3.333-16.074 15.256-29.015 30.922-33.918.004-.001.007-.002.007-.002 48.614-15.143 100.683-15.143 149.297 0 0 0 .005.001.014.004 15.667 4.903 27.588 17.844 30.922 33.918 2.395 11.552 3.683 23.154 3.917 34.651.134 7.086 9.941 8.867 12.58 2.289 1.405-3.497 2.691-7.033 3.872-10.598-.246 11.356-1.497 22.531-3.687 33.397-1.41 6.946 7.775 10.816 11.782 4.969 5.432-7.921 10.215-16.233 14.289-24.854.121 1.748.195 3.507.195 5.279 0 9.95 4.034 18.96 10.55 25.486l.062.062c3.377 3.347 8.892 3.027 11.898-.657 8.987-11.014 16.93-22.914 23.678-35.548 21.267-39.817 22.994-86.166 6.521-126.03h-402.312c-16.751 40.721-14.572 88.161 7.792 128.684z" fill="url(#SVGID_00000054970825688136358240000003541933976055413940_)"/><path d="m273.806 294.931 5.183-3.006c7.161-4.153 11.62-12.162 11.62-20.869v-.37c0-13.113-9.946-23.743-22.214-23.743h-25.006c-12.268 0-22.214 10.63-22.214 23.743v.37c0 8.708 4.459 16.716 11.62 20.869l5.183 3.006c11.174 6.48 24.655 6.48 35.828 0z" fill="url(#SVGID_00000056388508347930541950000007422635391061254560_)"/><g><g><path d="m458.963 238.903c-7.34-9.355-16.196-18.25-26.309-26.604 4.027 1.479 7.995 3.071 11.894 4.779 7.205 3.169 13.572-5.886 8.171-11.614-.167-.177-.334-.354-.501-.53-11.67-12.298-25.894-21.04-41.205-26.078 5.665.32 11.286.865 16.843 1.653 7.422 1.063 10.947-8.876 4.525-12.748-.198-.12-.397-.239-.596-.358-25.366-15.189-55.526-17.29-82.012-7.602-5.213 1.907-10.924 1.865-16.187.101-.029-.01-.059-.02-.088-.03-11.053-3.701-21.981-.637-29.537 6.179-7.708 6.953-11.908 17.811-9.156 29.377 1.455 6.117 4.713 11.429 9.116 15.415 5.772 5.227 13.513 8.175 21.742 7.673 42.231-2.577 88.127 8.593 127.162 27.879 4.738 2.342 9.402-3.332 6.138-7.492z" fill="url(#SVGID_00000046297214224745922070000014182352271886244999_)"/><path d="m458.963 238.903c-7.34-9.355-16.196-18.25-26.309-26.604 4.027 1.479 7.995 3.071 11.894 4.779 7.205 3.169 13.572-5.886 8.171-11.614-.167-.177-.334-.354-.501-.53-11.67-12.298-25.894-21.04-41.205-26.078 5.665.32 11.286.865 16.843 1.653 7.422 1.063 10.947-8.876 4.525-12.748-.198-.12-.397-.239-.596-.358-25.366-15.189-55.526-17.29-82.012-7.602-5.213 1.907-10.924 1.865-16.187.101-.029-.01-.059-.02-.088-.03-11.053-3.701-21.981-.637-29.537 6.179-7.708 6.953-11.908 17.811-9.156 29.377 1.455 6.117 4.713 11.429 9.116 15.415 5.772 5.227 13.513 8.175 21.742 7.673 42.231-2.577 88.127 8.593 127.162 27.879 4.738 2.342 9.402-3.332 6.138-7.492z" fill="url(#SVGID_00000119807550951394538820000011546949634296438921_)"/><path d="m458.962 238.903c-7.339-9.355-16.196-18.25-26.309-26.604 4.027 1.479 7.995 3.071 11.894 4.779 5.449 2.396 10.414-2.198 10.177-7.058-20.727-23.762-60.835-39.869-106.919-39.869-18.505 0-36.042 2.602-51.752 7.248-2.159 5.431-2.776 11.619-1.251 18.029 1.455 6.117 4.713 11.429 9.116 15.415 5.772 5.227 13.513 8.175 21.742 7.673 42.231-2.577 88.127 8.593 127.162 27.879 4.741 2.342 9.405-3.332 6.14-7.492z" fill="url(#SVGID_00000045609082022121604330000011529942802457412744_)"/><path d="m458.962 238.903c-7.339-9.355-16.196-18.25-26.309-26.604 4.027 1.479 7.995 3.071 11.894 4.779 3.663 1.611 7.107.06 8.9-2.605-21.581-21.584-59.744-35.929-103.232-35.929-20.282 0-39.404 3.123-56.229 8.642-.101 2.676.15 5.437.817 8.242 1.455 6.117 4.713 11.429 9.116 15.415 5.772 5.227 13.513 8.175 21.742 7.673 42.231-2.577 88.127 8.593 127.162 27.879 4.74 2.342 9.404-3.332 6.139-7.492z" fill="url(#SVGID_00000162354660164544340960000000105388971546328975_)"/><path d="m329.152 187.102c40.25-22.948 91.174-15.778 123.066 17.831.167.176.335.353.501.53 5.401 5.728-.966 14.783-8.171 11.614-30.485-13.353-65.016-19.85-101.294-17.165l-27.641 2.052c-1.919.145-3.822.303-5.723.476l.502-3.725 9.984-6.331c2.901-1.841 5.827-3.601 8.776-5.282z" fill="url(#SVGID_00000031905374511526358140000015904795493889327513_)"/><path d="m427.856 180.503c-5.542-.788-11.15-1.344-16.802-1.655-20.289-6.685-42.5-6.83-63.245-.033v-18.291c26.953-10.528 57.981-8.684 83.979 6.874.2.122.4.244.589.367 6.429 3.865 2.897 13.804-4.521 12.738z" fill="url(#SVGID_00000021111048781933179510000017169162517448801931_)"/><path d="m457.871 246.026c-19.616-25.862-61.526-43.73-110.065-43.73-16.482 0-32.197 2.065-46.538 5.799.831.969 1.708 1.895 2.65 2.748 5.772 5.227 13.513 8.175 21.742 7.673 42.231-2.577 88.127 8.593 127.162 27.879 1.854.916 3.689.597 5.049-.369z" fill="url(#SVGID_00000060727180165875787530000017762302439366478261_)"/></g><g><path d="m52.822 238.903c7.34-9.355 16.196-18.25 26.309-26.604-4.027 1.479-7.995 3.071-11.894 4.779-7.205 3.169-13.572-5.886-8.171-11.614.167-.177.334-.354.501-.53 11.67-12.298 25.894-21.04 41.205-26.078-5.665.32-11.286.865-16.843 1.653-7.422 1.063-10.947-8.876-4.525-12.748.198-.12.397-.239.596-.358 25.366-15.189 55.526-17.29 82.012-7.602 5.213 1.907 10.924 1.865 16.187.101.029-.01.059-.02.088-.03 11.053-3.701 21.981-.637 29.537 6.179 7.708 6.953 11.908 17.811 9.156 29.377-1.455 6.117-4.713 11.429-9.116 15.415-5.772 5.227-13.513 8.175-21.742 7.673-42.231-2.577-88.127 8.593-127.162 27.879-4.739 2.342-9.402-3.332-6.138-7.492z" fill="url(#SVGID_00000147916843724332034910000012460027207104551839_)"/><path d="m52.822 238.903c7.34-9.355 16.196-18.25 26.309-26.604-4.027 1.479-7.995 3.071-11.894 4.779-7.205 3.169-13.572-5.886-8.171-11.614.167-.177.334-.354.501-.53 11.67-12.298 25.894-21.04 41.205-26.078-5.665.32-11.286.865-16.843 1.653-7.422 1.063-10.947-8.876-4.525-12.748.198-.12.397-.239.596-.358 25.366-15.189 55.526-17.29 82.012-7.602 5.213 1.907 10.924 1.865 16.187.101.029-.01.059-.02.088-.03 11.053-3.701 21.981-.637 29.537 6.179 7.708 6.953 11.908 17.811 9.156 29.377-1.455 6.117-4.713 11.429-9.116 15.415-5.772 5.227-13.513 8.175-21.742 7.673-42.231-2.577-88.127 8.593-127.162 27.879-4.739 2.342-9.402-3.332-6.138-7.492z" fill="url(#SVGID_00000024693247884437211700000009889479292277512627_)"/><path d="m52.822 238.903c7.339-9.355 16.196-18.25 26.309-26.604-4.027 1.479-7.995 3.071-11.894 4.779-5.449 2.396-10.414-2.198-10.177-7.058 20.727-23.762 60.835-39.869 106.919-39.869 18.505 0 36.042 2.602 51.752 7.248 2.159 5.431 2.776 11.619 1.251 18.029-1.455 6.117-4.713 11.429-9.116 15.415-5.772 5.227-13.513 8.175-21.742 7.673-42.231-2.577-88.127 8.593-127.162 27.879-4.741 2.342-9.404-3.332-6.14-7.492z" fill="url(#SVGID_00000113327460973552576000000011719553889227740571_)"/><path d="m52.822 238.903c7.339-9.355 16.196-18.25 26.309-26.604-4.027 1.479-7.995 3.071-11.894 4.779-3.663 1.611-7.107.06-8.9-2.605 21.581-21.584 59.744-35.929 103.232-35.929 20.282 0 39.404 3.123 56.229 8.642.101 2.676-.15 5.437-.817 8.242-1.455 6.117-4.713 11.429-9.116 15.415-5.772 5.227-13.513 8.175-21.742 7.673-42.231-2.577-88.127 8.593-127.162 27.879-4.74 2.342-9.403-3.332-6.139-7.492z" fill="url(#SVGID_00000135665349794989656170000013457749302760513671_)"/><path d="m182.633 187.102c-40.25-22.948-91.174-15.778-123.066 17.831-.167.176-.335.353-.501.53-5.401 5.728.966 14.783 8.171 11.614 30.485-13.353 65.016-19.85 101.294-17.165l27.64 2.052c1.919.145 3.822.303 5.723.476l-.502-3.725-9.984-6.331c-2.9-1.841-5.826-3.601-8.775-5.282z" fill="url(#SVGID_00000132801694227205371960000003159812898605345419_)"/><path d="m83.929 180.503c5.542-.788 11.15-1.344 16.802-1.655 20.289-6.685 42.5-6.83 63.245-.033v-18.291c-26.953-10.528-57.981-8.684-83.979 6.874-.2.122-.4.244-.589.367-6.429 3.865-2.897 13.804 4.521 12.738z" fill="url(#SVGID_00000103240906683051518960000012542865796516153764_)"/><path d="m53.913 246.026c19.616-25.862 61.526-43.73 110.065-43.73 16.482 0 32.197 2.065 46.538 5.799-.831.969-1.708 1.895-2.65 2.748-5.772 5.227-13.513 8.175-21.742 7.673-42.231-2.577-88.127 8.593-127.162 27.879-1.853.916-3.688.597-5.049-.369z" fill="url(#SVGID_00000030471461914921567180000000969939820772492675_)"/></g></g><path d="m380.149 470.204c.584-1.614 1.151-3.233 1.69-4.861.057-.173.114-.346.171-.518 10-30.49.341-64.045-24.074-84.867-.275-.235-.55-.469-.824-.702-16.893-14.357-38.367-22.188-60.536-22.188h-81.369c-22.169 0-43.643 7.832-60.536 22.189-.274.233-.549.467-.824.702-24.414 20.822-34.074 54.376-24.074 84.865.056.172.113.343.17.515.54 1.63 1.109 3.253 1.694 4.87.097.267.193.535.291.801.606 1.65 1.231 3.293 1.887 4.927 2.639 6.579 12.447 4.798 12.58-2.289.234-11.513 1.525-23.131 3.926-34.698 3.335-16.063 15.251-28.988 30.913-33.874l.007-.002c48.528-15.137 100.51-15.164 149.053-.076l.257.08c15.654 4.865 27.566 17.776 30.903 33.825 2.408 11.582 3.702 23.216 3.936 34.744.134 7.086 9.941 8.867 12.58 2.289.656-1.633 1.281-3.275 1.886-4.924.099-.269.196-.539.293-.808z" fill="url(#SVGID_00000060009397476222370450000007910662926057314707_)"/><path d="m380.149 470.204c.584-1.614 1.151-3.233 1.69-4.861.057-.173.114-.346.171-.518 10-30.49.341-64.045-24.074-84.867-.275-.235-.55-.469-.824-.702-16.893-14.357-38.367-22.188-60.536-22.188h-81.369c-22.169 0-43.643 7.832-60.536 22.189-.274.233-.549.467-.824.702-24.414 20.822-34.074 54.376-24.074 84.865.056.172.113.343.17.515.54 1.63 1.109 3.253 1.694 4.87.097.267.193.535.291.801.606 1.65 1.231 3.293 1.887 4.927 2.639 6.579 12.447 4.798 12.58-2.289.234-11.513 1.525-23.131 3.926-34.698 3.335-16.063 15.251-28.988 30.913-33.874l.007-.002c48.528-15.137 100.51-15.164 149.053-.076l.257.08c15.654 4.865 27.566 17.776 30.903 33.825 2.408 11.582 3.702 23.216 3.936 34.744.134 7.086 9.941 8.867 12.58 2.289.656-1.633 1.281-3.275 1.886-4.924.099-.269.196-.539.293-.808z" fill="url(#SVGID_00000165922886879789605300000010568244957465724300_)"/><path d="m107.823 420.402c-9.226 15.211-10.619 33.929-3.836 50.375 4.753 11.525 10.751 22.561 17.861 32.927 4.007 5.848 13.192 1.977 11.782-4.969-5.919-29.377-5.031-61.003 4.269-92.409l7.091-23.928c.495-1.661.998-3.305 1.513-4.944l-3.374-.271-7.48 7.573c-10.911 11.05-20.178 23.038-27.826 35.646z" fill="url(#SVGID_00000170964536819232922690000006271488289804189096_)"/><path d="m403.961 420.402c9.226 15.211 10.619 33.929 3.836 50.375-4.753 11.525-10.751 22.561-17.861 32.927-4.007 5.848-13.192 1.977-11.782-4.969 5.919-29.377 5.031-61.003-4.269-92.409l-7.091-23.928c-.495-1.661-.998-3.305-1.513-4.944l3.374-.271 7.48 7.573c10.912 11.05 20.179 23.038 27.826 35.646z" fill="url(#SVGID_00000012441597267631946930000018341535443496274564_)"/><g><path d="m442.802 434.759c0-64.073-56.564-116.015-126.339-116.015-57.021 0-105.212 34.692-120.927 82.342 44.428-11.006 91.122-9.68 135.002 3.989 0 0 .005.001.014.004 15.667 4.903 27.588 17.844 30.922 33.918 2.395 11.552 3.683 23.154 3.917 34.651.134 7.086 9.941 8.867 12.58 2.289 1.405-3.497 2.691-7.033 3.872-10.598-.246 11.356-1.497 22.531-3.687 33.397-1.41 6.946 7.775 10.816 11.782 4.969 5.432-7.921 10.215-16.233 14.289-24.854.121 1.748.195 3.507.195 5.279 0 9.421 3.62 17.995 9.536 24.42 18.019-20.054 28.844-45.762 28.844-73.791z" fill="url(#SVGID_00000096055802354118707540000007890862080954303149_)"/><path d="m316.249 401.087c-15.714-47.651-63.905-82.344-120.927-82.344-69.775 0-126.339 51.942-126.339 116.015 0 28.028 10.824 53.735 28.842 73.788 5.914-6.425 9.532-14.997 9.532-24.417 0-1.776.074-3.539.196-5.291 4.076 8.626 8.86 16.942 14.295 24.866 4.007 5.848 13.192 1.977 11.782-4.969-2.189-10.866-3.441-22.041-3.687-33.397 1.181 3.565 2.467 7.101 3.872 10.598 2.639 6.579 12.447 4.798 12.58-2.289.234-11.498 1.521-23.101 3.917-34.653 3.333-16.074 15.256-29.015 30.922-33.918.004-.001.007-.002.007-.002 43.882-13.669 90.578-14.995 135.008-3.987z" fill="url(#SVGID_00000138562807976682068440000003866922712044165265_)"/></g></g></svg>