<svg id="Capa_1" enable-background="new 0 0 512 512" height="512" viewBox="0 0 512 512" width="512" xmlns="http://www.w3.org/2000/svg" xmlns:xlink="http://www.w3.org/1999/xlink"><linearGradient id="lg1"><stop offset="0" stop-color="#5a5a5a"/><stop offset="1" stop-color="#444"/></linearGradient><linearGradient id="SVGID_1_" gradientUnits="userSpaceOnUse" x1="367.678" x2="490.292" xlink:href="#lg1" y1="252.029" y2="330.445"/><linearGradient id="lg2"><stop offset="0" stop-color="#433f43" stop-opacity="0"/><stop offset=".2995" stop-color="#3e3b3e" stop-opacity=".3"/><stop offset=".6425" stop-color="#302e30" stop-opacity=".643"/><stop offset="1" stop-color="#1a1a1a"/></linearGradient><linearGradient id="SVGID_00000075152927580861600650000012261256341614125974_" gradientUnits="userSpaceOnUse" x1="462.534" x2="387.683" xlink:href="#lg2" y1="288.477" y2="271.368"/><linearGradient id="SVGID_00000119796625780894329250000001661108832625086089_" gradientUnits="userSpaceOnUse" x1="445.1" x2="499.635" xlink:href="#lg2" y1="276.73" y2="275.661"/><linearGradient id="SVGID_00000069398640543727262900000007750506130076636289_" gradientUnits="userSpaceOnUse" x1="435.906" x2="435.906" xlink:href="#lg2" y1="389.376" y2="458.889"/><linearGradient id="SVGID_00000070099164188343432620000014868869390599055002_" gradientUnits="userSpaceOnUse" x1="33.689" x2="163.431" xlink:href="#lg1" y1="238.506" y2="342.586"/><linearGradient id="SVGID_00000092426018194314003450000014257621423885882246_" gradientUnits="userSpaceOnUse" x1="71.1" x2="176.961" xlink:href="#lg2" y1="272.49" y2="299.223"/><linearGradient id="SVGID_00000055671322961797649100000007522412456687923377_" gradientUnits="userSpaceOnUse" x1="76.094" x2="76.094" xlink:href="#lg2" y1="412.901" y2="455.687"/><linearGradient id="lg3"><stop offset="0" stop-color="#ffbf51"/><stop offset="1" stop-color="#c5715a"/></linearGradient><linearGradient id="SVGID_00000142169291944345075090000017761658920122768512_" gradientUnits="userSpaceOnUse" x1="204.297" x2="328.561" xlink:href="#lg3" y1="328.297" y2="452.561"/><linearGradient id="lg4"><stop offset="0" stop-color="#883f2e" stop-opacity="0"/><stop offset=".2979" stop-color="#8b402e" stop-opacity=".298"/><stop offset=".536" stop-color="#954430" stop-opacity=".536"/><stop offset=".7533" stop-color="#a64b34" stop-opacity=".753"/><stop offset=".9572" stop-color="#be5539" stop-opacity=".957"/><stop offset="1" stop-color="#c4573a"/></linearGradient><linearGradient id="SVGID_00000142870091003698776090000015919693684361081499_" gradientUnits="userSpaceOnUse" x1="256" x2="256" xlink:href="#lg4" y1="374.406" y2="431.44"/><linearGradient id="SVGID_00000131360048605157228300000011114064914398265245_" gradientUnits="userSpaceOnUse" x1="170.828" x2="294.868" xlink:href="#lg1" y1="170.417" y2="236.001"/><linearGradient id="SVGID_00000157268663265837793040000009879232508853049244_" gradientUnits="userSpaceOnUse" x1="333.027" x2="401.463" xlink:href="#lg2" y1="201.362" y2="214.194"/><linearGradient id="SVGID_00000013885511649052839530000005921737400093340855_" gradientUnits="userSpaceOnUse" x1="257.065" x2="270.116" y1="428.983" y2="451.069"><stop offset="0" stop-color="#fdb4ba"/><stop offset="1" stop-color="#fd8087"/></linearGradient><linearGradient id="lg5"><stop offset="0" stop-color="#fd4755" stop-opacity="0"/><stop offset=".2593" stop-color="#f74452" stop-opacity=".259"/><stop offset=".6276" stop-color="#e43b4c" stop-opacity=".628"/><stop offset="1" stop-color="#ca2e43"/></linearGradient><linearGradient id="SVGID_00000051356233505908331700000008866609227288724886_" gradientUnits="userSpaceOnUse" x1="250.982" x2="257.675" xlink:href="#lg5" y1="451.296" y2="429.879"/><linearGradient id="SVGID_00000155831761718717399160000009848771472577705378_" gradientUnits="userSpaceOnUse" x1="283.749" x2="259.655" xlink:href="#lg5" y1="446.315" y2="420.715"/><linearGradient id="SVGID_00000000216323699742553290000014500601634696501168_" gradientUnits="userSpaceOnUse" x1="233.694" x2="276.467" xlink:href="#lg3" y1="349.913" y2="438.309"/><linearGradient id="SVGID_00000182494281341054385630000010924779940119895172_" gradientUnits="userSpaceOnUse" x1="292.418" x2="342.319" xlink:href="#lg4" y1="383.068" y2="385.444"/><linearGradient id="SVGID_00000131368347627842716490000004856992770688822934_" gradientUnits="userSpaceOnUse" x1="292.749" x2="263.759" xlink:href="#lg4" y1="378.18" y2="343.012"/><linearGradient id="SVGID_00000019649007849629815790000016802249916497471384_" gradientUnits="userSpaceOnUse" x1="256" x2="256" xlink:href="#lg4" y1="405.772" y2="441.021"/><linearGradient id="SVGID_00000039119852695569113460000006760527120151313538_" gradientUnits="userSpaceOnUse" x1="249.751" x2="264.009" xlink:href="#lg1" y1="331.184" y2="358.748"/><linearGradient id="SVGID_00000109723812652054316260000007763795368004482985_" gradientUnits="userSpaceOnUse" x1="167.75" x2="167.75" xlink:href="#lg3" y1="164.109" y2="219.877"/><linearGradient id="SVGID_00000062887452768429094020000000136758487634354853_" gradientUnits="userSpaceOnUse" x1="344.25" x2="344.25" xlink:href="#lg3" y1="164.109" y2="219.877"/><linearGradient id="SVGID_00000044141295203119252310000003639177033637990814_" gradientUnits="userSpaceOnUse" x1="95.677" x2="196.655" xlink:href="#lg2" y1="217.194" y2="318.172"/><linearGradient id="SVGID_00000053528032693731000010000003334230028724553357_" gradientUnits="userSpaceOnUse" x1="262.394" x2="368.429" xlink:href="#lg2" y1="203.745" y2="309.779"/><g><path d="m435.906 464.228c-45.567 0-80.915-39.781-75.556-85.031l33.688-284.489c.595-3.993 5.335-5.79 8.427-3.194 53.73 45.115 88.183 109.062 96.304 178.75l12.71 109.073c5.267 45.204-30.063 84.891-75.573 84.891z" fill="url(#SVGID_1_)"/><path d="m435.906 464.228c-45.567 0-80.915-39.781-75.556-85.031l33.688-284.489c.595-3.993 5.335-5.79 8.427-3.194 53.73 45.115 88.183 109.062 96.304 178.75l12.71 109.073c5.267 45.204-30.063 84.891-75.573 84.891z" fill="url(#SVGID_00000075152927580861600650000012261256341614125974_)"/><path d="m435.906 464.228c-45.567 0-80.915-39.781-75.556-85.031l33.688-284.489c.595-3.993 5.335-5.79 8.427-3.194 53.73 45.115 88.183 109.062 96.304 178.75l12.71 109.073c5.267 45.204-30.063 84.891-75.573 84.891z" fill="url(#SVGID_00000119796625780894329250000001661108832625086089_)"/><path d="m360.35 379.197c-5.358 45.25 29.99 85.031 75.556 85.031 45.51 0 80.84-39.687 75.573-84.891l-6.438-55.244h-138.166z" fill="url(#SVGID_00000069398640543727262900000007750506130076636289_)"/><path d="m76.094 464.228c45.567 0 80.915-39.781 75.556-85.031l-33.688-284.489c-.595-3.993-5.335-5.79-8.427-3.194-53.73 45.115-88.183 109.062-96.304 178.75l-12.71 109.073c-5.267 45.204 30.063 84.891 75.573 84.891z" fill="url(#SVGID_00000070099164188343432620000014868869390599055002_)"/><path d="m76.094 464.228c45.567 0 80.915-39.781 75.556-85.031l-33.688-284.489c-.595-3.993-5.335-5.79-8.427-3.194-53.73 45.115-88.183 109.062-96.304 178.75l-12.71 109.073c-5.267 45.204 30.063 84.891 75.573 84.891z" fill="url(#SVGID_00000092426018194314003450000014257621423885882246_)"/><path d="m.521 379.337c-5.268 45.204 30.063 84.891 75.573 84.891 45.566 0 80.914-39.781 75.556-85.031l-9.937-83.92h-131.396z" fill="url(#SVGID_00000055671322961797649100000007522412456687923377_)"/><path d="m376.9 370.39-1.21 5.05c-7.97 33.18-37.64 56.57-71.75 56.57h-95.88c-34.11 0-63.78-23.39-71.75-56.57l-1.21-5.05 120.9-86.47z" fill="url(#SVGID_00000142169291944345075090000017761658920122768512_)"/><path d="m376.9 370.39-1.21 5.05c-7.97 33.18-37.64 56.57-71.75 56.57h-95.88c-34.11 0-63.78-23.39-71.75-56.57l-1.21-5.05 120.9-86.47z" fill="url(#SVGID_00000142870091003698776090000015919693684361081499_)"/><path d="m420.712 187.989c18.508-77.065-39.901-151.163-119.157-151.163h-91.11c-79.256 0-137.666 74.099-119.157 151.163l43.806 182.399c30.255-5.321 57.533-16.344 79.658-31.453 24.809-16.942 57.687-16.942 82.496 0 22.125 15.109 49.403 26.131 79.658 31.453z" fill="url(#SVGID_00000131360048605157228300000011114064914398265245_)"/><path d="m301.555 36.826h-67.605v292.797c21.05-6.628 44.491-3.531 63.297 9.313 22.125 15.109 49.403 26.132 79.658 31.453l43.806-182.399c18.509-77.065-39.9-151.164-119.156-151.164z" fill="url(#SVGID_00000157268663265837793040000009879232508853049244_)"/><g><path d="m266.335 475.174h-18.875c-14.985 0-26.628-13.053-24.921-27.941l6.695-58.396h55.327l6.695 58.396c1.707 14.887-9.935 27.941-24.921 27.941z" fill="url(#SVGID_00000013885511649052839530000005921737400093340855_)"/><path d="m266.335 475.174h-18.875c-14.985 0-26.628-13.053-24.921-27.941l6.695-58.396h55.327l6.695 58.396c1.707 14.887-9.935 27.941-24.921 27.941z" fill="url(#SVGID_00000051356233505908331700000008866609227288724886_)"/><path d="m284.561 388.837h-28.561v86.337h10.335c14.985 0 26.628-13.053 24.921-27.941z" fill="url(#SVGID_00000155831761718717399160000009848771472577705378_)"/></g><path d="m338.691 385.434c-10.592-36.348-43.907-61.34-81.766-61.34h-1.849c-37.86 0-71.174 24.992-81.766 61.34-6.077 20.854 5.253 41.227 25.005 51.311 11.84 6.044 26.07 4.975 37.011-2.575 12.445-8.588 28.904-8.588 41.35 0 10.941 7.55 25.171 8.619 37.011 2.574 19.751-10.083 31.081-30.456 25.004-51.31z" fill="url(#SVGID_00000000216323699742553290000014500601634696501168_)"/><path d="m338.691 385.434c-10.592-36.348-43.907-61.34-81.766-61.34h-1.849c-4.79 0-9.507.403-14.115 1.176v105.735c11.495-5.221 25.069-4.18 35.714 3.166 10.941 7.55 25.171 8.619 37.011 2.574 19.752-10.084 31.082-30.457 25.005-51.311z" fill="url(#SVGID_00000182494281341054385630000010924779940119895172_)"/><path d="m338.691 385.434c-9.779-33.559-38.933-57.421-73.146-60.888l-36.143 36.143 78.403 78.403c2.005-.607 3.976-1.375 5.881-2.347 19.752-10.084 31.082-30.457 25.005-51.311z" fill="url(#SVGID_00000131368347627842716490000004856992770688822934_)"/><path d="m173.309 385.434c-6.077 20.854 5.253 41.227 25.005 51.311 11.84 6.044 26.069 4.975 37.011-2.575 12.446-8.588 28.904-8.588 41.35 0 10.941 7.55 25.171 8.619 37.011 2.574 19.752-10.083 31.082-30.457 25.005-51.311-2.115-7.257-5.149-14.052-8.93-20.295h-147.521c-3.782 6.244-6.816 13.039-8.931 20.296z" fill="url(#SVGID_00000019649007849629815790000016802249916497471384_)"/><path d="m273.955 365.831 5.195-2.819c7.177-3.894 11.646-11.404 11.646-19.569v-.347c0-12.296-9.968-22.264-22.264-22.264h-25.063c-12.296 0-22.264 9.968-22.264 22.264v.347c0 8.165 4.47 15.675 11.646 19.569l5.195 2.819c11.198 6.076 24.71 6.076 35.909 0z" fill="url(#SVGID_00000039119852695569113460000006760527120151313538_)"/><g><path d="m187.51 199.596-29.944 8.023c-9.869 2.644-20.013-3.212-22.658-13.081-2.644-9.869 3.212-20.013 13.081-22.658l29.944-8.023c9.869-2.644 20.013 3.212 22.658 13.081 2.645 9.869-3.212 20.013-13.081 22.658z" fill="url(#SVGID_00000109723812652054316260000007763795368004482985_)"/><path d="m324.49 199.596 29.944 8.023c9.869 2.644 20.013-3.212 22.658-13.081 2.644-9.869-3.212-20.013-13.081-22.658l-29.944-8.023c-9.869-2.644-20.013 3.212-22.658 13.081-2.645 9.869 3.212 20.013 13.081 22.658z" fill="url(#SVGID_00000062887452768429094020000000136758487634354853_)"/></g><g><path d="m165.917 320.831c-14.681 0-26.582-11.901-26.582-26.582v-13.632c0-14.681 11.901-26.582 26.582-26.582 14.681 0 26.582 11.901 26.582 26.582v13.632c0 14.681-11.901 26.582-26.582 26.582z" fill="url(#SVGID_00000044141295203119252310000003639177033637990814_)"/><path d="m346.083 320.831c-14.681 0-26.582-11.901-26.582-26.582v-13.632c0-14.681 11.901-26.582 26.582-26.582 14.681 0 26.582 11.901 26.582 26.582v13.632c0 14.681-11.901 26.582-26.582 26.582z" fill="url(#SVGID_00000053528032693731000010000003334230028724553357_)"/></g></g></svg>