<svg id="Capa_1" enable-background="new 0 0 512 512" height="512" viewBox="0 0 512 512" width="512" xmlns="http://www.w3.org/2000/svg" xmlns:xlink="http://www.w3.org/1999/xlink"><linearGradient id="lg1"><stop offset="0" stop-color="#5a5a5a"/><stop offset="1" stop-color="#444"/></linearGradient><linearGradient id="SVGID_1_" gradientUnits="userSpaceOnUse" x1="104.217" x2="393.643" xlink:href="#lg1" y1="143.66" y2="397.442"/><linearGradient id="lg2"><stop offset="0" stop-color="#433f43" stop-opacity="0"/><stop offset=".2995" stop-color="#3e3b3e" stop-opacity=".3"/><stop offset=".6425" stop-color="#302e30" stop-opacity=".643"/><stop offset="1" stop-color="#1a1a1a"/></linearGradient><linearGradient id="SVGID_00000171705353744799943260000008398369319106827676_" gradientUnits="userSpaceOnUse" x1="337.772" x2="502.445" xlink:href="#lg2" y1="257.296" y2="319.316"/><linearGradient id="SVGID_00000137852041239613484610000004728361786636634784_" gradientUnits="userSpaceOnUse" x1="364.262" x2="485.094" xlink:href="#lg2" y1="249.705" y2="230.458"/><linearGradient id="SVGID_00000178894732369549321630000008362635057688517287_" gradientUnits="userSpaceOnUse" x1="306.102" x2="273.588" xlink:href="#lg2" y1="59.782" y2="22.509"/><linearGradient id="SVGID_00000152944982311384820110000016397854611518871980_" gradientUnits="userSpaceOnUse" x1="199.684" x2="237.221" xlink:href="#lg2" y1="65.571" y2="18.517"/><linearGradient id="SVGID_00000076573764441991384230000002766445267418067604_" gradientUnits="userSpaceOnUse" x1="321.241" x2="286.347" xlink:href="#lg2" y1="94.514" y2="13.624"/><linearGradient id="SVGID_00000163067245348808384330000005837516261356268970_" gradientUnits="userSpaceOnUse" x1="195.214" x2="225.878" xlink:href="#lg2" y1="84.043" y2="14.784"/><linearGradient id="SVGID_00000099656063134510166320000012740498914118004353_" gradientUnits="userSpaceOnUse" x1="318.234" x2="288.627" xlink:href="#lg2" y1="125.579" y2="46.804"/><linearGradient id="SVGID_00000026122568256748895540000002585705289731863962_" gradientUnits="userSpaceOnUse" x1="197.401" x2="220.134" xlink:href="#lg2" y1="114.673" y2="47.529"/><linearGradient id="SVGID_00000048477319896508603830000003976153544603905933_" gradientUnits="userSpaceOnUse" x1="256" x2="256" xlink:href="#lg2" y1="371.095" y2="490.269"/><linearGradient id="SVGID_00000079445539221320520450000013586265269082020797_" gradientUnits="userSpaceOnUse" x1="217.927" x2="287.075" xlink:href="#lg2" y1="-7.557" y2="336.047"/><linearGradient id="SVGID_00000108992128444119288390000000478403600923152319_" gradientUnits="userSpaceOnUse" x1="186.295" x2="168.329" xlink:href="#lg2" y1="219.579" y2="269.298"/><linearGradient id="SVGID_00000066516347197618336480000010967986583731149731_" gradientUnits="userSpaceOnUse" x1="325.474" x2="338.99" xlink:href="#lg2" y1="214.096" y2="260.93"/><linearGradient id="SVGID_00000119106895931910054830000012923971505282067646_" gradientUnits="userSpaceOnUse" x1="141.556" x2="188.914" xlink:href="#lg2" y1="147.197" y2="235.208"/><linearGradient id="SVGID_00000003787420214140335310000008309963245867669908_" gradientUnits="userSpaceOnUse" x1="285.071" x2="338.715" xlink:href="#lg2" y1="146.082" y2="239.541"/><linearGradient id="SVGID_00000120551862198661231730000003994781065324549013_" gradientUnits="userSpaceOnUse" x1="258.162" x2="292.587" xlink:href="#lg1" y1="423.362" y2="451.229"/><linearGradient id="SVGID_00000150102597116980416570000017315516081323930290_" gradientUnits="userSpaceOnUse" x1="279.785" x2="244.541" xlink:href="#lg2" y1="430.581" y2="419.926"/><linearGradient id="SVGID_00000093861142747661517160000000613842693862704265_" gradientUnits="userSpaceOnUse" x1="145.392" x2="336.5" y1="281.211" y2="451.574"><stop offset="0" stop-color="#f89580"/><stop offset="1" stop-color="#c4573a"/></linearGradient><linearGradient id="lg3"><stop offset="0" stop-color="#c4573a" stop-opacity="0"/><stop offset=".2529" stop-color="#ba5338" stop-opacity=".253"/><stop offset=".6769" stop-color="#a04933" stop-opacity=".677"/><stop offset="1" stop-color="#883f2e"/></linearGradient><linearGradient id="SVGID_00000091004840736237459400000012533275951086621594_" gradientUnits="userSpaceOnUse" x1="281.505" x2="363.469" xlink:href="#lg3" y1="369.318" y2="389.809"/><linearGradient id="SVGID_00000095327232049680750410000016402914722195714219_" gradientUnits="userSpaceOnUse" x1="256" x2="256" xlink:href="#lg3" y1="444.156" y2="509.977"/><linearGradient id="SVGID_00000056393003269819499070000005502694351024567478_" gradientUnits="userSpaceOnUse" x1="245.662" x2="267.664" xlink:href="#lg1" y1="260.867" y2="298.586"/><linearGradient id="SVGID_00000087399193754034362700000015812649521642408114_" gradientUnits="userSpaceOnUse" x1="322.751" x2="267.729" xlink:href="#lg3" y1="356.611" y2="271.469"/><linearGradient id="SVGID_00000087374706089526101310000000393777437008322204_" gradientUnits="userSpaceOnUse" x1="297.2" x2="242.58" xlink:href="#lg3" y1="381.11" y2="355.005"/><g><path d="m511.94 316.096c-1.504-11.111-4.146-21.999-7.902-32.465-2.693-7.505-7.097-14.151-12.74-19.484l-4.469-22.731c3.136 2.894 6.162 5.879 9.043 8.971 4.303 4.631 11.882-.018 9.724-5.961-3.822-10.541-8.708-20.623-14.595-30.057-.409-.656-.844-1.29-1.28-1.923 1.671 1.259 3.324 2.536 4.94 3.85 4.898 3.996 11.767-1.649 8.813-7.24-5.233-9.916-11.457-19.232-18.583-27.768-3.758-4.501-8.227-8.244-13.164-11.133-12.689-41.387-38.271-76.505-71.718-101.22.773.219 1.552.427 2.32.657 6.053 1.822 10.245-6.019 5.379-10.057-8.624-7.165-17.935-13.397-27.781-18.564-2.925-1.535-5.97-2.745-9.081-3.665 1.212-.126 2.425-.254 3.636-.354 6.301-.509 7.347-9.338 1.345-11.326-10.642-3.53-21.583-5.941-32.635-7.165-4.023-.446-8.041-.393-11.973.118.264-.122.524-.254.789-.374 5.755-2.615 3.746-11.276-2.575-11.111-11.209.288-22.319 1.729-33.132 4.325-11.486 2.758-21.506 9.452-28.422 18.724h-23.757c-6.916-9.272-16.936-15.966-28.422-18.724-10.812-2.596-21.923-4.038-33.132-4.325-6.321-.165-8.33 8.495-2.575 11.111.264.121.525.252.789.374-3.933-.511-7.95-.564-11.973-.118-11.052 1.224-21.993 3.635-32.635 7.165-6.002 1.988-4.956 10.817 1.345 11.326 1.211.1 2.424.227 3.636.354-3.111.92-6.157 2.13-9.081 3.665-9.846 5.167-19.157 11.399-27.781 18.564-4.865 4.038-.674 11.879 5.379 10.057.769-.23 1.547-.438 2.32-.657-33.446 24.715-59.029 59.833-71.718 101.22-4.937 2.889-9.406 6.632-13.164 11.133-7.126 8.536-13.35 17.852-18.583 27.768-2.954 5.59 3.915 11.236 8.813 7.24 1.616-1.314 3.269-2.591 4.94-3.85-.437.633-.871 1.267-1.28 1.923-5.886 9.434-10.772 19.516-14.595 30.057-2.158 5.943 5.42 10.592 9.724 5.961 2.882-3.092 5.907-6.077 9.043-8.971l-4.469 22.731c-5.643 5.333-10.047 11.979-12.74 19.484-3.756 10.466-6.397 21.354-7.902 32.465-.851 6.265 7.539 9.204 10.765 3.767.341-.573.702-1.136 1.05-1.706-1.641 38.848 11.925 75.315 35.624 103.235-.191 9.453 2.291 18.901 7.359 27.171 5.81 9.481 12.647 18.357 20.369 26.486 4.353 4.586 11.898-.117 9.677-6.036-.102-.272-.193-.549-.293-.822 2.42 3.142 5.223 6.02 8.383 8.55 8.68 6.949 18.122 12.981 28.143 18.01 5.65 2.839 11.153-4.144 7.057-8.959-.786-.927-1.553-1.875-2.321-2.821 2.851 1.549 5.859 2.847 9.013 3.83 10.616 3.309 21.606 5.486 32.771 6.518 6.296.585 8.876-7.923 3.307-10.915-4.572-2.465-9.052-5.162-13.429-8.074 1.484.043 2.974.065 4.47.065h187.986c1.496 0 2.986-.022 4.47-.065-4.376 2.913-8.857 5.609-13.429 8.074-5.569 2.992-2.988 11.5 3.307 10.915 11.165-1.032 22.155-3.208 32.771-6.518 3.153-.983 6.162-2.281 9.013-3.83-.768.947-1.535 1.894-2.321 2.821-4.096 4.815 1.407 11.798 7.057 8.959 10.021-5.029 19.463-11.061 28.143-18.01 3.16-2.53 5.963-5.408 8.383-8.55-.1.273-.192.55-.293.822-2.22 5.919 5.325 10.622 9.677 6.036 7.722-8.129 14.559-17.005 20.369-26.486 5.068-8.27 7.55-17.719 7.359-27.172 23.699-27.92 37.266-64.387 35.624-103.235.348.569.709 1.133 1.05 1.706 3.228 5.439 11.619 2.5 10.768-3.766z" fill="url(#SVGID_1_)"/><path d="m504.038 283.631c-2.693-7.505-7.097-14.151-12.74-19.484l-4.469-22.731c3.136 2.894 6.162 5.879 9.043 8.971 4.303 4.631 11.882-.018 9.724-5.961-3.822-10.541-8.708-20.623-14.595-30.057-.409-.656-.844-1.29-1.28-1.923 1.671 1.259 3.324 2.536 4.94 3.85 4.898 3.996 11.767-1.649 8.813-7.24-5.233-9.916-11.457-19.232-18.583-27.768-3.758-4.501-8.227-8.244-13.164-11.133-12.689-41.387-38.271-76.505-71.718-101.22.773.219 1.552.427 2.32.657 6.053 1.822 10.245-6.019 5.379-10.057-8.624-7.165-17.935-13.397-27.781-18.564-2.925-1.535-5.97-2.745-9.081-3.665 1.212-.126 2.425-.254 3.636-.354 6.301-.509 7.347-9.338 1.345-11.326-10.642-3.53-21.583-5.941-32.635-7.165-4.023-.446-8.041-.393-11.973.118.264-.122.524-.254.789-.374 5.755-2.615 3.746-11.276-2.575-11.111-11.209.288-22.319 1.729-33.132 4.325-11.486 2.758-21.506 9.452-28.422 18.724h-10.963v444.249h93.078c1.496 0 2.986-.022 4.47-.065-4.376 2.913-8.857 5.609-13.429 8.074-5.569 2.992-2.988 11.5 3.307 10.915 11.165-1.032 22.155-3.208 32.771-6.518 3.153-.983 6.162-2.281 9.013-3.83-.768.947-1.535 1.894-2.321 2.821-4.096 4.815 1.407 11.798 7.057 8.959 10.021-5.029 19.463-11.061 28.143-18.01 3.16-2.53 5.963-5.408 8.383-8.55-.1.273-.192.55-.293.822-2.22 5.919 5.325 10.622 9.677 6.036 7.722-8.129 14.559-17.005 20.369-26.486 5.068-8.27 7.55-17.719 7.359-27.172 23.699-27.92 37.266-64.387 35.624-103.235.348.569.709 1.133 1.05 1.706 3.225 5.437 11.616 2.498 10.765-3.767-1.504-11.107-4.145-21.995-7.901-32.461z" fill="url(#SVGID_00000171705353744799943260000008398369319106827676_)"/><path d="m504.038 283.631c-2.693-7.505-7.097-14.151-12.74-19.484l-4.469-22.731c3.136 2.894 6.162 5.879 9.043 8.971 4.303 4.631 11.882-.018 9.724-5.961-3.822-10.541-8.708-20.623-14.595-30.057-.409-.656-.844-1.29-1.28-1.923 1.671 1.259 3.324 2.536 4.94 3.85 4.898 3.996 11.767-1.649 8.813-7.24-5.233-9.916-11.457-19.232-18.583-27.768-3.758-4.501-8.227-8.244-13.164-11.133-12.689-41.387-38.271-76.505-71.718-101.22.773.219 1.552.427 2.32.657 6.053 1.822 10.245-6.019 5.379-10.057-8.624-7.165-17.935-13.397-27.781-18.564-2.925-1.535-5.97-2.745-9.081-3.665 1.212-.126 2.425-.254 3.636-.354 6.301-.509 7.347-9.338 1.345-11.326-10.642-3.53-21.583-5.941-32.635-7.165-4.023-.446-8.041-.393-11.973.118.264-.122.524-.254.789-.374 5.755-2.615 3.746-11.276-2.575-11.111-11.209.288-22.319 1.729-33.132 4.325-11.486 2.758-21.506 9.452-28.422 18.724h-10.963v444.249h93.078c1.496 0 2.986-.022 4.47-.065-4.376 2.913-8.857 5.609-13.429 8.074-5.569 2.992-2.988 11.5 3.307 10.915 11.165-1.032 22.155-3.208 32.771-6.518 3.153-.983 6.162-2.281 9.013-3.83-.768.947-1.535 1.894-2.321 2.821-4.096 4.815 1.407 11.798 7.057 8.959 10.021-5.029 19.463-11.061 28.143-18.01 3.16-2.53 5.963-5.408 8.383-8.55-.1.273-.192.55-.293.822-2.22 5.919 5.325 10.622 9.677 6.036 7.722-8.129 14.559-17.005 20.369-26.486 5.068-8.27 7.55-17.719 7.359-27.172 23.699-27.92 37.266-64.387 35.624-103.235.348.569.709 1.133 1.05 1.706 3.225 5.437 11.616 2.498 10.765-3.767-1.504-11.107-4.145-21.995-7.901-32.461z" fill="url(#SVGID_00000137852041239613484610000004728361786636634784_)"/><g><g><ellipse cx="322.72" cy="78.832" fill="url(#SVGID_00000178894732369549321630000008362635057688517287_)" rx="66.094" ry="53.661"/><ellipse cx="189.104" cy="78.832" fill="url(#SVGID_00000152944982311384820110000016397854611518871980_)" rx="66.094" ry="53.661"/></g><g><ellipse cx="321.004" cy="93.965" fill="url(#SVGID_00000076573764441991384230000002766445267418067604_)" rx="64.397" ry="52.282"/><ellipse cx="190.82" cy="93.965" fill="url(#SVGID_00000163067245348808384330000005837516261356268970_)" rx="64.397" ry="52.282"/></g><g><ellipse cx="317.053" cy="122.438" fill="url(#SVGID_00000099656063134510166320000012740498914118004353_)" rx="60.488" ry="49.109"/><ellipse cx="194.771" cy="122.438" fill="url(#SVGID_00000026122568256748895540000002585705289731863962_)" rx="60.488" ry="49.109"/></g></g><path d="m20.702 264.147c-5.643 5.333-10.047 11.979-12.74 19.484-3.756 10.466-6.397 21.354-7.902 32.465-.851 6.265 7.539 9.204 10.765 3.767.341-.573.702-1.136 1.05-1.706-1.641 38.848 11.925 75.315 35.624 103.235-.191 9.453 2.291 18.901 7.359 27.171 5.81 9.481 12.647 18.357 20.369 26.486 4.353 4.586 11.898-.117 9.677-6.036-.102-.272-.193-.549-.293-.822 2.42 3.142 5.223 6.02 8.383 8.55 8.68 6.949 18.122 12.981 28.143 18.01 5.65 2.839 11.153-4.144 7.057-8.959-.786-.927-1.553-1.875-2.321-2.821 2.851 1.549 5.859 2.847 9.013 3.83 10.616 3.309 21.606 5.486 32.771 6.518 6.296.585 8.876-7.923 3.307-10.915-4.572-2.465-9.052-5.162-13.429-8.074 1.484.043 2.974.065 4.47.065h187.986c1.496 0 2.986-.022 4.47-.065-4.376 2.913-8.857 5.609-13.429 8.074-5.569 2.992-2.988 11.5 3.307 10.915 11.165-1.032 22.155-3.208 32.771-6.518 3.153-.983 6.162-2.281 9.013-3.83-.768.947-1.535 1.894-2.321 2.821-4.096 4.815 1.407 11.798 7.057 8.959 10.021-5.029 19.463-11.061 28.143-18.01 3.16-2.53 5.963-5.408 8.383-8.55-.1.273-.192.55-.293.822-2.22 5.919 5.325 10.622 9.677 6.036 7.722-8.129 14.559-17.005 20.369-26.486 5.068-8.27 7.55-17.719 7.359-27.172 23.699-27.92 37.266-64.387 35.624-103.235.348.569.709 1.133 1.05 1.706 3.225 5.437 11.616 2.498 10.765-3.767-1.504-11.111-4.146-21.999-7.902-32.465-2.693-7.505-7.097-14.151-12.74-19.484l-.88-4.475h-468.832z" fill="url(#SVGID_00000048477319896508603830000003976153544603905933_)"/><g><path d="m380.06 155.43c-.045.023-.089.049-.133.072-2.925 1.535-5.97 2.744-9.081 3.665 1.212.126 2.425.254 3.636.354 6.301.509 7.347 9.338 1.345 11.326-10.642 3.53-21.583 5.941-32.635 7.165-3.949.437-7.892.394-11.755-.091-.001.005-.002.012-.006.026-.006.03-.014.065-.017.082 6.477 2.274 4.548 11.519-1.981 11.349-11.209-.288-22.319-1.729-33.132-4.325-8.289-1.99-15.814-6.03-21.96-11.609-5.026-4.562-11.553-7.115-18.341-7.115s-13.315 2.553-18.341 7.115c-6.146 5.579-13.671 9.619-21.96 11.609-10.812 2.596-21.923 4.038-33.132 4.325-6.529.171-8.458-9.075-1.981-11.349-.004-.017-.011-.052-.017-.082-.003-.015-.005-.021-.006-.026-3.863.485-7.806.528-11.755.091-11.052-1.224-21.993-3.635-32.635-7.165-6.002-1.988-4.956-10.817 1.345-11.326 1.211-.1 2.424-.227 3.636-.354-3.111-.92-6.157-2.13-9.081-3.665-.045-.023-.089-.049-.133-.072-2.818 2.937-5.331 5.639-7.489 8.01-5.655 6.213-8.026 15.23-6.266 23.854l5.318 26.061c12.908 63.274 63.462 135.757 121.782 135.757h21.431c58.32 0 108.874-72.484 121.782-135.757l5.318-26.061c1.76-8.623-.61-17.641-6.266-23.854-2.158-2.371-4.672-5.073-7.49-8.01z" fill="url(#SVGID_00000079445539221320520450000013586265269082020797_)"/></g><g><g><g><path d="m203.165 217.741v14.508c0 16.056-9.983 29.627-22.711 30.067-10.802.373-20.007-8.5-23-20.8-1.141-4.691-.136-9.797 2.587-13.302l25.367-32.648c2.438-3.138 6.388-3.493 9.094-.727.634.648 1.24 1.336 1.815 2.061 4.237 5.343 6.848 12.704 6.848 20.841z" fill="url(#SVGID_00000108992128444119288390000000478403600923152319_)"/><path d="m354.546 241.516c-2.993 12.3-12.198 21.173-23 20.8-12.728-.44-22.711-14.012-22.711-30.067v-14.508c0-9.228 3.365-17.465 8.633-22.869 2.714-2.784 6.678-2.454 9.126.697l25.365 32.645c2.724 3.505 3.729 8.611 2.587 13.302z" fill="url(#SVGID_00000066516347197618336480000010967986583731149731_)"/></g><g><path d="m203.165 212.27v11.505c0 12.733-9.983 23.496-22.711 23.845-10.802.296-20.007-6.741-23-16.495-1.141-3.72-.136-7.77 2.587-10.549l25.367-25.891c2.438-2.488 6.388-2.77 9.094-.577.634.514 1.24 1.059 1.815 1.634 4.237 4.238 6.848 10.075 6.848 16.528z" fill="url(#SVGID_00000119106895931910054830000012923971505282067646_)"/><path d="m354.546 231.125c-2.993 9.755-12.198 16.791-23 16.495-12.728-.349-22.711-11.112-22.711-23.845v-11.505c0-7.318 3.365-13.851 8.633-18.136 2.714-2.208 6.678-1.946 9.126.553l25.365 25.889c2.724 2.78 3.729 6.829 2.587 10.549z" fill="url(#SVGID_00000003787420214140335310000008309963245867669908_)"/></g></g><g><g><path d="m266.552 474.103h-21.104c-16.755 0-29.771-14.594-27.863-31.24l7.486-65.29h61.859l7.486 65.29c1.907 16.646-11.11 31.24-27.864 31.24z" fill="url(#SVGID_00000120551862198661231730000003994781065324549013_)"/><path d="m266.552 474.103h-21.104c-16.755 0-29.771-14.594-27.863-31.24l7.486-65.29h61.859l7.486 65.29c1.907 16.646-11.11 31.24-27.864 31.24z" fill="url(#SVGID_00000150102597116980416570000017315516081323930290_)"/><path d="m316.984 247.81c50.548 27.48 76.473 85.374 63.312 141.383l-5.814 24.742c-4.139 17.607-12.885 44.44-24.793 69.131-15.566 32.27-62.936 27.766-72.294-6.836l-21.395-79.012-21.396 79.013c-9.357 34.602-56.727 39.106-72.294 6.836-11.908-24.691-20.653-51.524-24.793-69.131l-5.814-24.742c-13.161-56.01 12.764-113.903 63.312-141.383 38.028-20.675 83.941-20.675 121.969-.001z" fill="url(#SVGID_00000093861142747661517160000000613842693862704265_)"/><path d="m316.984 247.81c-27.663-15.039-59.495-19.126-89.433-12.285v254.87c3.12-3.948 5.567-8.674 7.052-14.164l21.397-79.013 21.396 79.013c9.357 34.602 56.727 39.105 72.293 6.836 11.908-24.691 20.653-51.524 24.793-69.131l5.814-24.742c13.161-56.01-12.764-113.904-63.312-141.384z" fill="url(#SVGID_00000091004840736237459400000012533275951086621594_)"/><path d="m128.609 368.605c.466 6.852 1.483 13.734 3.094 20.589l5.814 24.742c4.14 17.607 12.885 44.44 24.793 69.131 15.566 32.27 62.936 27.766 72.293-6.836l21.397-79.013 21.396 79.013c9.357 34.602 56.727 39.105 72.293 6.836 11.908-24.691 20.653-51.524 24.793-69.131l5.814-24.742c1.611-6.855 2.628-13.737 3.094-20.589z" fill="url(#SVGID_00000095327232049680750410000016402914722195714219_)"/></g><path d="m278.868 307.329 6.617-3.59c9.141-4.96 14.833-14.525 14.833-24.925v-.442c0-15.661-12.696-28.357-28.357-28.357h-31.921c-15.661 0-28.357 12.696-28.357 28.357v.442c0 10.4 5.693 19.965 14.833 24.925l6.617 3.59c14.262 7.739 31.471 7.739 45.735 0z" fill="url(#SVGID_00000056393003269819499070000005502694351024567478_)"/><path d="m380.292 389.192-5.814 24.743c-1.977 8.434-5.02 18.989-8.958 30.406l-144.422-144.414c1.631 1.462 3.439 2.746 5.417 3.811l6.617 3.592c14.265 7.741 31.47 7.741 45.735 0l6.617-3.592c9.144-4.961 14.831-14.527 14.831-24.921v-.448c0-7.225-2.704-13.817-7.149-18.82l90.11 90.101c1.056 13.007.126 26.325-2.984 39.542z" fill="url(#SVGID_00000087399193754034362700000015812649521642408114_)"/><path d="m380.292 389.192-5.814 24.743c-4.132 17.611-12.879 44.442-24.786 69.126-15.566 32.273-62.941 27.769-72.295-6.828l-21.397-79.013v-84.084c7.868 0 15.735-1.935 22.868-5.806l6.617-3.592c9.144-4.961 14.831-14.527 14.831-24.921v-.448c0-7.225-2.704-13.817-7.149-18.82l90.11 90.11c1.055 12.998.125 26.316-2.985 39.533z" fill="url(#SVGID_00000087374706089526101310000000393777437008322204_)"/></g></g></g></svg>