<svg id="Capa_1" enable-background="new 0 0 512 512" height="512" viewBox="0 0 512 512" width="512" xmlns="http://www.w3.org/2000/svg" xmlns:xlink="http://www.w3.org/1999/xlink"><linearGradient id="lg1"><stop offset="0" stop-color="#fffaf8"/><stop offset="1" stop-color="#ffdfcf"/></linearGradient><linearGradient id="SVGID_1_" gradientUnits="userSpaceOnUse" x1="122.264" x2="160.273" xlink:href="#lg1" y1="17.494" y2="93.987"/><linearGradient id="lg2"><stop offset="0" stop-color="#f89580" stop-opacity="0"/><stop offset=".2599" stop-color="#f2917c" stop-opacity=".261"/><stop offset=".5954" stop-color="#e2856f" stop-opacity=".597"/><stop offset=".9709" stop-color="#c8725b" stop-opacity=".974"/><stop offset=".9972" stop-color="#c5715a"/></linearGradient><linearGradient id="SVGID_00000062894482353666383040000012341105912757880221_" gradientUnits="userSpaceOnUse" x1="175.929" x2="204.436" xlink:href="#lg2" y1="45.357" y2="30.629"/><linearGradient id="lg3"><stop offset="0" stop-color="#ffdfcf"/><stop offset="1" stop-color="#fd8087"/></linearGradient><linearGradient id="SVGID_00000179611926260804312860000016356836092734023567_" gradientUnits="userSpaceOnUse" x1="130.715" x2="160.648" xlink:href="#lg3" y1="45.677" y2="71.808"/><linearGradient id="lg4"><stop offset="0" stop-color="#fd4755" stop-opacity="0"/><stop offset=".2593" stop-color="#f74452" stop-opacity=".259"/><stop offset=".6276" stop-color="#e43b4c" stop-opacity=".628"/><stop offset="1" stop-color="#ca2e43"/></linearGradient><linearGradient id="SVGID_00000066503350822273518630000006964502989589115834_" gradientUnits="userSpaceOnUse" x1="137.128" x2="156.607" xlink:href="#lg4" y1="44.801" y2="72.832"/><linearGradient id="SVGID_00000095340428713573383660000009926822930914582664_" gradientUnits="userSpaceOnUse" x1="142.007" x2="107.324" xlink:href="#lg4" y1="57.701" y2="47.724"/><linearGradient id="SVGID_00000154417271923965311510000014806072239709685172_" gradientUnits="userSpaceOnUse" x1="355.062" x2="358.625" xlink:href="#lg1" y1="4.911" y2="89.362"/><linearGradient id="SVGID_00000128471396276315867990000003742064207257131172_" gradientUnits="userSpaceOnUse" x1="364.079" x2="356.952" xlink:href="#lg2" y1="46.509" y2="88.556"/><linearGradient id="SVGID_00000099651956824927722770000009873100656125536142_" gradientUnits="userSpaceOnUse" x1="397.127" x2="420.289" xlink:href="#lg2" y1="56.885" y2="51.184"/><linearGradient id="SVGID_00000076599333611370851810000000246916073473546687_" gradientUnits="userSpaceOnUse" x1="359.104" x2="365.28" xlink:href="#lg3" y1="30.334" y2="73.094"/><linearGradient id="SVGID_00000075858751006094757950000010354368468347569559_" gradientUnits="userSpaceOnUse" x1="366.657" x2="362.143" xlink:href="#lg4" y1="48.998" y2="66.577"/><linearGradient id="SVGID_00000033350288879843827230000011972548587697367997_" gradientUnits="userSpaceOnUse" x1="356.729" x2="340.1" xlink:href="#lg4" y1="50.225" y2="27.42"/><linearGradient id="SVGID_00000095296259435422699600000016995345927364083859_" gradientUnits="userSpaceOnUse" x1="139.237" x2="480.89" xlink:href="#lg1" y1="155.936" y2="497.588"/><linearGradient id="SVGID_00000156576646230450206360000002421128104387822009_" gradientUnits="userSpaceOnUse" x1="438.907" x2="520.151" xlink:href="#lg2" y1="266.401" y2="276.378"/><linearGradient id="SVGID_00000078026581384032193730000011482231162329308300_" gradientUnits="userSpaceOnUse" x1="449.286" x2="466.39" xlink:href="#lg2" y1="377.548" y2="388"/><linearGradient id="SVGID_00000064328418806082022620000017588736654825893554_" gradientUnits="userSpaceOnUse" x1="302.864" x2="336.36" xlink:href="#lg2" y1="441.399" y2="481.308"/><linearGradient id="SVGID_00000106836799575407691400000013433581134722536348_" gradientUnits="userSpaceOnUse" x1="307.824" x2="270.765" xlink:href="#lg2" y1="393.794" y2="301.623"/><linearGradient id="SVGID_00000066494038491547846980000009127383677067694240_" gradientTransform="matrix(-1 0 0 1 569.71 0)" gradientUnits="userSpaceOnUse" x1="360.576" x2="394.071" xlink:href="#lg2" y1="441.399" y2="481.308"/><linearGradient id="SVGID_00000011013728127430808780000013587992344576391584_" gradientUnits="userSpaceOnUse" x1="259.379" x2="266.98" xlink:href="#lg1" y1="352.789" y2="375.119"/><linearGradient id="SVGID_00000169539625389577652460000016811518193492652198_" gradientUnits="userSpaceOnUse" x1="261.98" x2="270.532" xlink:href="#lg2" y1="360.191" y2="384.897"/><linearGradient id="SVGID_00000122687250141871833130000001325388600171161762_" gradientUnits="userSpaceOnUse" x1="263.459" x2="258.708" xlink:href="#lg2" y1="374.658" y2="353.753"/><linearGradient id="SVGID_00000026881796444689458550000002928236518256489393_" gradientUnits="userSpaceOnUse" x1="245.248" x2="265.916" xlink:href="#lg1" y1="298.735" y2="372.14"/><linearGradient id="SVGID_00000018950350479766988460000005765729825342687409_" gradientUnits="userSpaceOnUse" x1="256" x2="256" xlink:href="#lg2" y1="344.373" y2="376.726"/><linearGradient id="SVGID_00000147932880728173839970000004312920783312775074_" gradientUnits="userSpaceOnUse" x1="288.041" x2="252.408" xlink:href="#lg2" y1="332.241" y2="276.177"/><linearGradient id="SVGID_00000035511769145847590220000003450299685158077881_" gradientUnits="userSpaceOnUse" x1="295.629" x2="336.964" xlink:href="#lg2" y1="327.615" y2="330.465"/><linearGradient id="lg5"><stop offset="0" stop-color="#5a5a5a"/><stop offset="1" stop-color="#444"/></linearGradient><linearGradient id="SVGID_00000116920246522526727450000001771624913902099861_" gradientUnits="userSpaceOnUse" x1="250.04" x2="262.558" xlink:href="#lg5" y1="286.922" y2="311.958"/><linearGradient id="SVGID_00000165200652284062213310000004610472830302816931_" gradientUnits="userSpaceOnUse" x1="148.611" x2="185.507" xlink:href="#lg5" y1="259.444" y2="286.604"/><linearGradient id="SVGID_00000165924373039609269900000009194321756918801836_" gradientUnits="userSpaceOnUse" x1="326.925" x2="359.722" xlink:href="#lg5" y1="257.853" y2="282.451"/><linearGradient id="SVGID_00000175301117811993526280000013072242485012365960_" gradientUnits="userSpaceOnUse" x1="381.213" x2="402.593" xlink:href="#lg2" y1="410.458" y2="436.589"/><linearGradient id="SVGID_00000055681563323219120180000002959957290889614980_" gradientUnits="userSpaceOnUse" x1="70.225" x2="44.094" xlink:href="#lg2" y1="377.823" y2="412.268"/><linearGradient id="SVGID_00000105387140272839567470000011577215090339054730_" gradientTransform="matrix(-1 0 0 1 792.645 0)" gradientUnits="userSpaceOnUse" x1="661.859" x2="683.239" xlink:href="#lg2" y1="410.458" y2="436.589"/><g><g><g><path d="m160.364 5.252c-17.462-10.671-40.367-4.534-50.155 13.439-11.518 21.151-19.565 43.822-23.003 67.239-3.666 24.969 22.51 43.456 44.796 31.616 18.236-9.689 38.28-15.06 58.917-15.787 25.221-.889 38.646-29.988 22.986-49.778-14.686-18.56-32.991-34.171-53.541-46.729z" fill="url(#SVGID_1_)"/><path d="m160.364 5.252c-17.462-10.671-40.367-4.534-50.155 13.439-11.518 21.151-19.565 43.822-23.003 67.239-3.666 24.969 22.51 43.456 44.796 31.616 18.236-9.689 38.28-15.06 58.917-15.787 25.221-.889 38.646-29.988 22.986-49.778-14.686-18.56-32.991-34.171-53.541-46.729z" fill="url(#SVGID_00000062894482353666383040000012341105912757880221_)"/><path d="m156.295 28.576c-10.793-6.596-24.85-2.829-30.899 8.279-2.323 4.267-4.418 8.634-6.258 13.084-9.743 23.562 12.164 47.789 36.748 41.027.328-.09.656-.178.984-.264 24.7-6.469 31.634-38.367 11.387-53.923-3.819-2.934-7.816-5.669-11.962-8.203z" fill="url(#SVGID_00000179611926260804312860000016356836092734023567_)"/><path d="m156.295 28.576c-10.793-6.596-24.85-2.829-30.899 8.279-2.323 4.267-4.418 8.634-6.258 13.084-9.743 23.562 12.164 47.789 36.748 41.027.328-.09.656-.178.984-.264 24.7-6.469 31.634-38.367 11.387-53.923-3.819-2.934-7.816-5.669-11.962-8.203z" fill="url(#SVGID_00000066503350822273518630000006964502989589115834_)"/><path d="m156.295 28.576c-10.793-6.596-24.85-2.829-30.899 8.279-2.323 4.267-4.418 8.634-6.258 13.084-9.743 23.562 12.164 47.789 36.748 41.027.328-.09.656-.178.984-.264 24.7-6.469 31.634-38.367 11.387-53.923-3.819-2.934-7.816-5.669-11.962-8.203z" fill="url(#SVGID_00000095340428713573383660000009926822930914582664_)"/></g><g><path d="m351.636 5.252c17.462-10.671 40.367-4.534 50.155 13.439 11.518 21.151 19.565 43.822 23.004 67.239 3.666 24.969-22.51 43.456-44.796 31.616-18.236-9.689-38.28-15.06-58.917-15.787-25.221-.889-38.646-29.988-22.986-49.778 14.685-18.56 32.989-34.171 53.54-46.729z" fill="url(#SVGID_00000154417271923965311510000014806072239709685172_)"/><path d="m351.636 5.252c17.462-10.671 40.367-4.534 50.155 13.439 11.518 21.151 19.565 43.822 23.004 67.239 3.666 24.969-22.51 43.456-44.796 31.616-18.236-9.689-38.28-15.06-58.917-15.787-25.221-.889-38.646-29.988-22.986-49.778 14.685-18.56 32.989-34.171 53.54-46.729z" fill="url(#SVGID_00000128471396276315867990000003742064207257131172_)"/><path d="m351.636 5.252c17.462-10.671 40.367-4.534 50.155 13.439 11.518 21.151 19.565 43.822 23.004 67.239 3.666 24.969-22.51 43.456-44.796 31.616-18.236-9.689-38.28-15.06-58.917-15.787-25.221-.889-38.646-29.988-22.986-49.778 14.685-18.56 32.989-34.171 53.54-46.729z" fill="url(#SVGID_00000099651956824927722770000009873100656125536142_)"/><path d="m355.705 28.576c10.793-6.596 24.85-2.829 30.899 8.279 2.323 4.267 4.418 8.634 6.258 13.084 9.743 23.562-12.164 47.789-36.748 41.027-.328-.09-.656-.178-.984-.264-24.7-6.469-31.634-38.367-11.387-53.923 3.819-2.934 7.816-5.669 11.962-8.203z" fill="url(#SVGID_00000076599333611370851810000000246916073473546687_)"/><path d="m355.705 28.576c10.793-6.596 24.85-2.829 30.899 8.279 2.323 4.267 4.418 8.634 6.258 13.084 9.743 23.562-12.164 47.789-36.748 41.027-.328-.09-.656-.178-.984-.264-24.7-6.469-31.634-38.367-11.387-53.923 3.819-2.934 7.816-5.669 11.962-8.203z" fill="url(#SVGID_00000075858751006094757950000010354368468347569559_)"/><path d="m355.705 28.576c10.793-6.596 24.85-2.829 30.899 8.279 2.323 4.267 4.418 8.634 6.258 13.084 9.743 23.562-12.164 47.789-36.748 41.027-.328-.09-.656-.178-.984-.264-24.7-6.469-31.634-38.367-11.387-53.923 3.819-2.934 7.816-5.669 11.962-8.203z" fill="url(#SVGID_00000033350288879843827230000011972548587697367997_)"/></g></g><path d="m503.536 235.548-4.791-19.644c-25.731-105.494-126.498-180.369-242.745-180.369-116.246 0-217.014 74.874-242.744 180.368l-4.791 19.645c-7.539 30.91-3.834 61.309 8.292 87.916 4.558 10.002 7.696 20.613 8.75 31.554 1.482 15.381 5.675 30.439 12.274 44.559 2.322 4.968 9.814 3.114 9.624-2.367-.187-5.385-.064-10.817.355-16.269 8.88 14.286 20.459 26.768 34.03 36.924 4.388 3.284 10.133-1.867 7.381-6.607-3.724-6.415-6.987-13.177-9.743-20.232 11.333 7.023 22.602 14.139 33.622 21.579.071.048.142.096.213.144 12.031 8.114 22.211 18.609 30.205 30.72 8.601 13.032 19.493 24.473 32.102 33.908 4.39 3.285 10.152-1.834 7.398-6.575-3.818-6.573-7.148-13.513-9.948-20.757 24.178 15.147 46.638 31.108 67.556 54.975 8.155 9.304 22.69 9.304 30.845 0 20.918-23.867 43.378-39.828 67.557-54.975-2.8 7.244-6.13 14.184-9.948 20.757-2.754 4.741 3.009 9.86 7.398 6.575 12.609-9.435 23.501-20.877 32.102-33.909 7.993-12.111 18.173-22.605 30.204-30.719.07-.047.141-.095.211-.142 11.021-7.441 22.291-14.557 33.625-21.581-2.756 7.055-6.019 13.817-9.743 20.231-2.752 4.74 2.993 9.891 7.382 6.607 13.571-10.156 25.15-22.639 34.03-36.924.418 5.451.542 10.884.355 16.269-.19 5.481 7.302 7.335 9.624 2.367 6.599-14.119 10.792-29.177 12.274-44.559 1.054-10.941 4.192-21.552 8.75-31.554 12.127-26.606 15.833-57.005 8.294-87.915z" fill="url(#SVGID_00000095296259435422699600000016995345927364083859_)"/><path d="m498.744 215.904c-17.72-72.654-71.034-130.782-140.481-159.934v401.054c3.704-4.297 7.142-8.817 10.268-13.554 7.993-12.111 18.174-22.605 30.204-30.719.07-.047.141-.095.211-.142 11.021-7.441 22.291-14.557 33.625-21.581-2.756 7.055-6.019 13.817-9.743 20.231-2.752 4.74 2.993 9.891 7.382 6.607 13.571-10.156 25.15-22.639 34.03-36.924.418 5.452.541 10.884.355 16.269-.19 5.481 7.302 7.335 9.624 2.367 6.599-14.119 10.792-29.177 12.274-44.559 1.054-10.941 4.192-21.552 8.75-31.554 12.126-26.607 15.831-57.006 8.292-87.916z" fill="url(#SVGID_00000156576646230450206360000002421128104387822009_)"/><path d="m464.25 380.937c-8.878 14.286-20.474 26.772-34.04 36.929-4.389 3.289-10.157-1.829-7.398-6.568 11.637-20.054 18.845-43.448 19.834-68.77l.75-19.294c.05-1.34.09-2.669.12-3.999l2.539.64 3.599 7.408c8.488 17.474 13.217 35.679 14.596 53.654z" fill="url(#SVGID_00000078026581384032193730000011482231162329308300_)"/><g><path d="m220.61 484.839c6.808 6.106 13.463 12.761 19.967 20.183 8.155 9.304 22.69 9.304 30.845 0 20.918-23.867 43.377-39.827 67.555-54.974 5.74-14.845 9.22-30.987 9.886-48.007l.22-47.017h-128.473z" fill="url(#SVGID_00000064328418806082022620000017588736654825893554_)"/></g><path d="m314.727 305.59-122.21 52.493 114.123 114.124c10.428-8.018 21.198-15.181 32.339-22.16-2.8 7.244-6.13 14.184-9.948 20.757-2.754 4.741 3.009 9.86 7.398 6.575 12.609-9.436 23.501-20.877 32.102-33.909 7.993-12.111 18.174-22.605 30.204-30.719.07-.047.141-.095.211-.142 4.544-3.068 9.138-6.071 13.754-9.044z" fill="url(#SVGID_00000106836799575407691400000013433581134722536348_)"/><g><path d="m291.388 484.839c-6.808 6.106-13.462 12.761-19.967 20.183-8.155 9.304-22.69 9.304-30.845 0-20.918-23.867-43.377-39.827-67.555-54.974-5.74-14.845-9.221-30.987-9.886-48.007l-.22-47.017h128.473z" fill="url(#SVGID_00000066494038491547846980000009127383677067694240_)"/></g><g><path d="m256 381.56c-21.274 0-38.52-17.246-38.52-38.52v-6.762h77.04v6.762c0 21.274-17.246 38.52-38.52 38.52z" fill="url(#SVGID_00000011013728127430808780000013587992344576391584_)"/><path d="m256 381.56c-21.274 0-38.52-17.246-38.52-38.52v-6.762h77.04v6.762c0 21.274-17.246 38.52-38.52 38.52z" fill="url(#SVGID_00000169539625389577652460000016811518193492652198_)"/><path d="m256 381.56c-21.274 0-38.52-17.246-38.52-38.52v-6.762h77.04v6.762c0 21.274-17.246 38.52-38.52 38.52z" fill="url(#SVGID_00000122687250141871833130000001325388600171161762_)"/><g><path d="m328.543 328.659c-9.393-26.797-34.69-44.735-63.085-44.735h-18.916c-28.395 0-53.692 17.938-63.085 44.735-5.466 15.594 5.123 30.821 23.27 37.966 10.18 4.008 21.656 3.014 31.146-2.43 11.226-6.44 25.026-6.44 36.252 0 9.49 5.444 20.966 6.438 31.146 2.43 18.149-7.145 28.738-22.371 23.272-37.966z" fill="url(#SVGID_00000026881796444689458550000002928236518256489393_)"/><path d="m183.457 328.659c-5.466 15.595 5.123 30.821 23.27 37.966 10.18 4.008 21.656 3.014 31.146-2.43 11.226-6.44 25.026-6.44 36.252 0 9.49 5.444 20.966 6.438 31.146 2.429 18.148-7.145 28.737-22.371 23.27-37.966-1.922-5.484-4.52-10.589-7.665-15.253h-129.754c-3.144 4.665-5.742 9.77-7.665 15.254z" fill="url(#SVGID_00000018950350479766988460000005765729825342687409_)"/><path d="m328.543 328.659c-9.393-26.797-34.69-44.735-63.085-44.735h-4.757l-29.482 29.482 55.156 55.156c6.297 1.05 12.826.453 18.897-1.938 18.148-7.144 28.737-22.37 23.271-37.965z" fill="url(#SVGID_00000147932880728173839970000004312920783312775074_)"/><path d="m328.543 328.659c-9.393-26.796-34.69-44.735-63.085-44.735h-14.556v75.81c7.9-1.116 16.082.364 23.223 4.46 9.49 5.444 20.966 6.438 31.146 2.429 18.149-7.143 28.738-22.369 23.272-37.964z" fill="url(#SVGID_00000035511769145847590220000003450299685158077881_)"/></g></g><path d="m271.991 318.941 4.627-2.51c6.392-3.468 10.373-10.157 10.373-17.43v-.309c0-10.952-8.878-19.83-19.83-19.83h-22.322c-10.952 0-19.83 8.878-19.83 19.83v.309c0 7.272 3.981 13.961 10.373 17.43l4.627 2.51c9.974 5.411 22.008 5.411 31.982 0z" fill="url(#SVGID_00000116920246522526727450000001771624913902099861_)"/><g><path d="m165.943 305.59c-14.677 0-26.574-11.898-26.574-26.574v-13.628c0-14.677 11.898-26.574 26.574-26.574 14.676 0 26.574 11.898 26.574 26.574v13.628c0 14.676-11.898 26.574-26.574 26.574z" fill="url(#SVGID_00000165200652284062213310000004610472830302816931_)"/><path d="m346.057 305.59c-14.677 0-26.574-11.898-26.574-26.574v-13.628c0-14.677 11.898-26.574 26.574-26.574 14.677 0 26.574 11.898 26.574 26.574v13.628c0 14.676-11.897 26.574-26.574 26.574z" fill="url(#SVGID_00000165924373039609269900000009194321756918801836_)"/></g><path d="m349.083 355.024-.22 47.017c-.67 17.015-4.149 33.161-9.887 48.006-2.799 7.248-6.128 14.186-9.947 20.754-2.749 4.749 3.009 9.867 7.398 6.578 12.606-9.437 23.503-20.874 32.101-33.91 7.998-12.107 18.175-22.604 30.211-30.721.07-.04.14-.09.21-.14 11.017-7.438 22.283-14.555 33.619-21.583 4.42-11.303 7.529-23.366 9.068-36h-92.553z" fill="url(#SVGID_00000175301117811993526280000013072242485012365960_)"/><g><path d="m47.748 380.937c8.878 14.286 20.474 26.772 34.04 36.929 4.389 3.289 10.157-1.829 7.398-6.568-11.637-20.054-18.845-43.448-19.834-68.77l-.75-19.294c-.05-1.34-.09-2.669-.12-3.999l-2.539.64-3.599 7.408c-8.487 17.474-13.216 35.679-14.596 53.654z" fill="url(#SVGID_00000055681563323219120180000002959957290889614980_)"/><path d="m162.915 355.024.22 47.017c.67 17.015 4.149 33.161 9.887 48.006 2.799 7.248 6.128 14.186 9.947 20.754 2.749 4.749-3.009 9.867-7.398 6.578-12.607-9.437-23.503-20.874-32.101-33.91-7.998-12.107-18.175-22.604-30.211-30.721-.07-.04-.14-.09-.21-.14-11.016-7.438-22.283-14.555-33.619-21.583-4.42-11.303-7.529-23.366-9.068-36h92.553z" fill="url(#SVGID_00000105387140272839567470000011577215090339054730_)"/></g></g></svg>