<svg id="Capa_1" enable-background="new 0 0 512 512" height="512" viewBox="0 0 512 512" width="512" xmlns="http://www.w3.org/2000/svg" xmlns:xlink="http://www.w3.org/1999/xlink"><linearGradient id="lg1"><stop offset="0" stop-color="#ffbf51"/><stop offset="1" stop-color="#c5715a"/></linearGradient><linearGradient id="SVGID_1_" gradientUnits="userSpaceOnUse" x1="328.449" x2="461.043" xlink:href="#lg1" y1="287.149" y2="311.387"/><linearGradient id="lg2"><stop offset="0" stop-color="#c4573a" stop-opacity="0"/><stop offset=".2529" stop-color="#ba5338" stop-opacity=".253"/><stop offset=".6769" stop-color="#a04933" stop-opacity=".677"/><stop offset="1" stop-color="#883f2e"/></linearGradient><linearGradient id="SVGID_00000164488457013482932450000016184802040397299378_" gradientUnits="userSpaceOnUse" x1="392.96" x2="464.247" xlink:href="#lg2" y1="293.68" y2="293.68"/><linearGradient id="SVGID_00000029040597764819147050000006025701713849421440_" gradientUnits="userSpaceOnUse" x1="424.702" x2="315.633" xlink:href="#lg2" y1="302.292" y2="286.609"/><linearGradient id="SVGID_00000106861511857511674080000002963943188655259580_" gradientUnits="userSpaceOnUse" x1="368.506" x2="475.436" xlink:href="#lg2" y1="297.611" y2="274.799"/><linearGradient id="SVGID_00000027570331148725553980000017377458400088452264_" gradientUnits="userSpaceOnUse" x1="376.543" x2="298.127" xlink:href="#lg2" y1="299.798" y2="319.758"/><linearGradient id="SVGID_00000003789753565781528340000005230657078124294534_" gradientUnits="userSpaceOnUse" x1="382.806" x2="382.806" xlink:href="#lg2" y1="412.109" y2="533.507"/><linearGradient id="SVGID_00000165198068018336837720000017335506873058396061_" gradientUnits="userSpaceOnUse" x1="60.526" x2="203.1" xlink:href="#lg1" y1="272.478" y2="310.26"/><linearGradient id="SVGID_00000165201125917507691430000017245582701526444443_" gradientUnits="userSpaceOnUse" x1="134.212" x2="194.806" xlink:href="#lg2" y1="294.511" y2="290.234"/><linearGradient id="SVGID_00000145017110597136800340000010986150204197737904_" gradientTransform="matrix(-1 0 0 1 765.613 0)" gradientUnits="userSpaceOnUse" x1="622.118" x2="729.049" xlink:href="#lg2" y1="297.611" y2="274.799"/><linearGradient id="SVGID_00000071535709946281780870000014628948173512039348_" gradientTransform="matrix(-1 0 0 1 765.613 0)" gradientUnits="userSpaceOnUse" x1="630.156" x2="551.74" xlink:href="#lg2" y1="299.798" y2="319.758"/><linearGradient id="SVGID_00000173853462255626800650000015025448535797267639_" gradientTransform="matrix(-1 0 0 1 765.613 0)" gradientUnits="userSpaceOnUse" x1="636.419" x2="636.419" xlink:href="#lg2" y1="412.109" y2="533.507"/><linearGradient id="SVGID_00000013878281427036505140000017211385053979119499_" gradientUnits="userSpaceOnUse" x1="256.164" x2="268.894" y1="384.337" y2="405.881"><stop offset="0" stop-color="#fdb4ba"/><stop offset="1" stop-color="#fd8087"/></linearGradient><linearGradient id="lg3"><stop offset="0" stop-color="#fd4755" stop-opacity="0"/><stop offset=".2593" stop-color="#f74452" stop-opacity=".259"/><stop offset=".6276" stop-color="#e43b4c" stop-opacity=".628"/><stop offset="1" stop-color="#ca2e43"/></linearGradient><linearGradient id="SVGID_00000148646236887262471240000004120624109777281425_" gradientUnits="userSpaceOnUse" x1="256" x2="256" xlink:href="#lg3" y1="398.8" y2="374.488"/><linearGradient id="SVGID_00000108287505255343898990000012594714764857352331_" gradientUnits="userSpaceOnUse" x1="282.191" x2="258.69" xlink:href="#lg3" y1="401.244" y2="376.273"/><linearGradient id="SVGID_00000087411022503114211810000005715197887949566856_" gradientUnits="userSpaceOnUse" x1="175.9" x2="321.021" xlink:href="#lg1" y1="191.239" y2="191.239"/><linearGradient id="SVGID_00000101080621545101284120000010595775994099147688_" gradientUnits="userSpaceOnUse" x1="300.283" x2="372.283" xlink:href="#lg2" y1="205.8" y2="225.76"/><linearGradient id="SVGID_00000060712768572263683700000005871003056256338111_" gradientUnits="userSpaceOnUse" x1="319.674" x2="281.296" xlink:href="#lg2" y1="137.238" y2="35.125"/><linearGradient id="SVGID_00000084488102274610751880000000274888064080363454_" gradientUnits="userSpaceOnUse" x1="197.071" x2="226.733" xlink:href="#lg2" y1="123.036" y2="35.43"/><linearGradient id="SVGID_00000183959839821673233290000015780604468976156062_" gradientUnits="userSpaceOnUse" x1="340.744" x2="301.073" xlink:href="#lg2" y1="164.171" y2="192.508"/><linearGradient id="SVGID_00000026122689667623212670000001644917973857698443_" gradientUnits="userSpaceOnUse" x1="165.194" x2="239.683" xlink:href="#lg2" y1="159.898" y2="195.539"/><linearGradient id="SVGID_00000117658996752753319380000017662661624523493010_" gradientUnits="userSpaceOnUse" x1="256" x2="256" xlink:href="#lg2" y1="325.139" y2="391.374"/><linearGradient id="SVGID_00000035512968727133116640000004556516729979839118_" gradientUnits="userSpaceOnUse" x1="295.55" x2="257.531" xlink:href="#lg2" y1="393.536" y2="326.051"/><linearGradient id="lg4"><stop offset="0" stop-color="#5a5a5a"/><stop offset="1" stop-color="#444"/></linearGradient><linearGradient id="SVGID_00000147930254289868400510000004111141647671718274_" gradientUnits="userSpaceOnUse" x1="249.475" x2="263.185" xlink:href="#lg4" y1="325.78" y2="353.198"/><linearGradient id="SVGID_00000152984539080115512900000005027090321276767420_" gradientUnits="userSpaceOnUse" x1="164.186" x2="200.185" xlink:href="#lg4" y1="132.639" y2="159.139"/><linearGradient id="SVGID_00000160191455848547394600000015156226206254374040_" gradientUnits="userSpaceOnUse" x1="312.237" x2="344.237" xlink:href="#lg4" y1="131.088" y2="155.087"/><g><g><path d="m463.412 425.289-10.281-23.132c-1.445-3.252-1.764-6.893-.906-10.347l1.676-6.745c4.72-19.001-1.633-39.042-16.437-51.854-5.178-4.482-6.927-11.764-4.348-18.108l5.759-14.169c7.038-17.315 4.658-37.034-6.297-52.177-3.972-5.49-4.051-12.888-.197-18.462l3.704-5.358c10.318-14.923 8.869-35.014-3.484-48.302-3.225-3.469-4.746-8.189-4.152-12.888 1.982-15.697-4.589-31.253-17.224-40.775l-26.249-19.782-27.723-27.828-56.436 213.841v134.063c0 49.008 34.173 88.736 76.327 88.736 9.323 0 18.47-2.003 27.035-5.776.001.002.005.015.005.015l.412-.194c.663-.297 1.319-.611 1.974-.93l21.283-10.025c10.97-5.168 16.883-17.258 14.227-29.09-1.852-8.249 3.039-16.514 11.162-18.86 9.314-2.693 14.108-12.992 10.17-21.853z" fill="url(#SVGID_1_)"/><path d="m463.412 425.289-10.281-23.132c-1.445-3.252-1.764-6.893-.906-10.347l1.676-6.745c4.72-19.001-1.633-39.042-16.437-51.854-5.178-4.482-6.927-11.764-4.348-18.108l5.759-14.169c7.038-17.315 4.658-37.034-6.297-52.177-3.972-5.49-4.051-12.888-.197-18.462l3.704-5.358c10.318-14.923 8.869-35.014-3.484-48.302-3.225-3.469-4.746-8.189-4.152-12.888 1.982-15.697-4.589-31.253-17.224-40.775l-26.249-19.782-27.723-27.828-56.436 213.841v134.063c0 49.008 34.173 88.736 76.327 88.736 9.323 0 18.47-2.003 27.035-5.776.001.002.005.015.005.015l.412-.194c.663-.297 1.319-.611 1.974-.93l21.283-10.025c10.97-5.168 16.883-17.258 14.227-29.09-1.852-8.249 3.039-16.514 11.162-18.86 9.314-2.693 14.108-12.992 10.17-21.853z" fill="url(#SVGID_00000164488457013482932450000016184802040397299378_)"/><path d="m463.412 425.289-10.281-23.132c-1.445-3.252-1.764-6.893-.906-10.347l1.676-6.745c4.72-19.001-1.633-39.042-16.437-51.854-5.178-4.482-6.927-11.764-4.348-18.108l5.759-14.169c7.038-17.315 4.658-37.034-6.297-52.177-3.972-5.49-4.051-12.888-.197-18.462l3.704-5.358c10.318-14.923 8.869-35.014-3.484-48.302-3.225-3.469-4.746-8.189-4.152-12.888 1.982-15.697-4.589-31.253-17.224-40.775l-26.249-19.782-27.723-27.828-56.436 213.841v134.063c0 49.008 34.173 88.736 76.327 88.736 9.323 0 18.47-2.003 27.035-5.776.001.002.005.015.005.015l.412-.194c.663-.297 1.319-.611 1.974-.93l21.283-10.025c10.97-5.168 16.883-17.258 14.227-29.09-1.852-8.249 3.039-16.514 11.162-18.86 9.314-2.693 14.108-12.992 10.17-21.853z" fill="url(#SVGID_00000029040597764819147050000006025701713849421440_)"/><path d="m355.88 508.506c7.916 2.664 16.662 1.935 23.913-2.21.042-.024.083-.048.125-.072.001.002.004.015.004.015l.315-.194c.507-.297 1.009-.611 1.51-.93l16.288-10.025c8.396-5.168 12.921-17.258 10.888-29.09-1.417-8.249 2.326-16.514 8.542-18.86 7.13-2.691 10.799-12.99 7.784-21.852l-7.868-23.132c-1.106-3.252-1.35-6.893-.694-10.347l1.282-6.745c3.612-19.001-1.249-39.042-12.579-51.854-3.963-4.482-5.301-11.764-3.328-18.108l4.408-14.169c5.386-17.315 3.565-37.034-4.819-52.177-3.04-5.49-3.1-12.888-.151-18.462l2.835-5.358c7.897-14.923 6.787-35.014-2.667-48.302-2.468-3.469-3.632-8.189-3.178-12.888 1.517-15.697-3.512-31.253-13.182-40.775l-20.088-19.782-11.377-14.922-53.03 200.935v134.063c.003 40.427 23.259 74.537 55.067 85.241z" fill="url(#SVGID_00000106861511857511674080000002963943188655259580_)"/><path d="m417.381 402.156c-1.106-3.252-1.35-6.893-.694-10.347l1.282-6.745c3.612-19.001-1.249-39.042-12.579-51.854-3.963-4.482-5.301-11.764-3.328-18.108l4.408-14.169c5.386-17.315 3.565-37.034-4.819-52.177-3.04-5.49-3.1-12.888-.151-18.462l2.835-5.358c7.897-14.923 6.787-35.014-2.667-48.302-2.468-3.469-3.632-8.189-3.178-12.888 1.517-15.697-3.512-31.253-13.182-40.775l-20.088-19.782-5.678-7.447-1.257 1.639c-10.675 13.928-14.326 34.753-9.569 54.582 1.424 5.936.78 12.19-1.758 17.075-9.724 18.712-7.542 44.64 5.247 62.335l4.591 6.353c4.777 6.609 6.026 16.094 3.118 23.67-8.021 20.896-6.816 46.476 3.186 67.684l8.186 17.355c3.665 7.771 3.257 17.337-1.014 23.787-12.211 18.439-14.843 44.977-6.81 68.662l2.852 8.408c1.46 4.305 1.801 9.012.967 13.375l-5.927 31.035c-1.248 6.535.171 13.26 3.296 18.355 5.253.138 10.502-1.109 15.14-3.76.042-.024.083-.048.125-.072.001.002.004.015.004.015l.315-.194c.507-.297 1.009-.611 1.51-.93l16.288-10.025c8.396-5.168 12.921-17.258 10.888-29.09-1.417-8.249 2.326-16.514 8.542-18.86 7.13-2.691 10.799-12.99 7.784-21.852z" fill="url(#SVGID_00000027570331148725553980000017377458400088452264_)"/><path d="m300.816 423.264c0 49.008 34.173 88.736 76.327 88.736 9.323 0 18.47-2.003 27.035-5.776.001.002.005.015.005.015l.412-.194c.663-.297 1.319-.611 1.974-.93l21.283-10.025c10.97-5.168 16.883-17.258 14.227-29.09-1.852-8.249 3.039-16.514 11.162-18.86 9.316-2.691 14.11-12.99 10.172-21.852l-10.281-23.132c-1.445-3.252-1.764-6.893-.906-10.347l1.676-6.745c3.429-13.804 1.009-28.155-6.245-39.886h-146.841z" fill="url(#SVGID_00000003789753565781528340000005230657078124294534_)"/></g><g><path d="m48.588 425.289 10.281-23.132c1.445-3.252 1.764-6.893.906-10.347l-1.676-6.745c-4.72-19.001 1.633-39.042 16.437-51.854 5.178-4.482 6.927-11.764 4.348-18.108l-5.759-14.169c-7.038-17.315-4.658-37.034 6.297-52.177 3.972-5.49 4.051-12.888.197-18.462l-3.704-5.358c-10.318-14.923-8.869-35.014 3.484-48.302 3.225-3.469 4.746-8.189 4.152-12.888-1.982-15.697 4.589-31.253 17.224-40.775l26.249-19.782 27.723-27.828 56.436 213.841v134.063c0 49.008-34.173 88.736-76.327 88.736-9.323 0-18.47-2.003-27.035-5.776-.001.002-.005.015-.005.015l-.412-.194c-.663-.297-1.319-.611-1.974-.93l-21.281-10.027c-10.97-5.168-16.883-17.258-14.227-29.09 1.852-8.249-3.039-16.514-11.162-18.86-9.316-2.691-14.11-12.99-10.172-21.851z" fill="url(#SVGID_00000165198068018336837720000017335506873058396061_)"/><path d="m48.588 425.289 10.281-23.132c1.445-3.252 1.764-6.893.906-10.347l-1.676-6.745c-4.72-19.001 1.633-39.042 16.437-51.854 5.178-4.482 6.927-11.764 4.348-18.108l-5.759-14.169c-7.038-17.315-4.658-37.034 6.297-52.177 3.972-5.49 4.051-12.888.197-18.462l-3.704-5.358c-10.318-14.923-8.869-35.014 3.484-48.302 3.225-3.469 4.746-8.189 4.152-12.888-1.982-15.697 4.589-31.253 17.224-40.775l26.249-19.782 27.723-27.828 56.436 213.841v134.063c0 49.008-34.173 88.736-76.327 88.736-9.323 0-18.47-2.003-27.035-5.776-.001.002-.005.015-.005.015l-.412-.194c-.663-.297-1.319-.611-1.974-.93l-21.281-10.027c-10.97-5.168-16.883-17.258-14.227-29.09 1.852-8.249-3.039-16.514-11.162-18.86-9.316-2.691-14.11-12.99-10.172-21.851z" fill="url(#SVGID_00000165201125917507691430000017245582701526444443_)"/><path d="m156.12 508.506c-7.916 2.664-16.662 1.935-23.913-2.21-.042-.024-.083-.048-.125-.072-.001.002-.004.015-.004.015l-.315-.194c-.507-.297-1.009-.611-1.51-.93l-16.288-10.025c-8.396-5.168-12.921-17.258-10.888-29.09 1.417-8.249-2.326-16.514-8.542-18.86-7.13-2.691-10.799-12.99-7.784-21.852l7.868-23.132c1.106-3.252 1.35-6.893.694-10.347l-1.282-6.745c-3.612-19.001 1.249-39.042 12.579-51.854 3.963-4.482 5.301-11.764 3.328-18.108l-4.408-14.169c-5.386-17.315-3.565-37.034 4.819-52.177 3.04-5.49 3.1-12.888.151-18.462l-2.835-5.358c-7.897-14.923-6.787-35.014 2.667-48.302 2.468-3.469 3.632-8.189 3.178-12.888-1.517-15.697 3.512-31.253 13.182-40.775l20.088-19.782 11.377-14.922 53.03 200.935v134.063c-.003 40.427-23.259 74.537-55.067 85.241z" fill="url(#SVGID_00000145017110597136800340000010986150204197737904_)"/><path d="m94.619 402.156c1.106-3.252 1.35-6.893.694-10.347l-1.282-6.745c-3.612-19.001 1.249-39.042 12.579-51.854 3.963-4.482 5.301-11.764 3.328-18.108l-4.408-14.169c-5.386-17.315-3.565-37.034 4.819-52.177 3.04-5.49 3.1-12.888.151-18.462l-2.835-5.358c-7.897-14.923-6.787-35.014 2.667-48.302 2.468-3.469 3.632-8.189 3.178-12.888-1.517-15.697 3.512-31.253 13.182-40.775l20.088-19.782 5.678-7.447 1.257 1.639c10.675 13.928 14.326 34.753 9.569 54.582-1.424 5.936-.78 12.19 1.758 17.075 9.724 18.712 7.542 44.64-5.247 62.335l-4.591 6.353c-4.777 6.609-6.026 16.094-3.118 23.67 8.021 20.896 6.816 46.476-3.186 67.684l-8.186 17.355c-3.665 7.771-3.257 17.337 1.014 23.787 12.211 18.439 14.843 44.977 6.81 68.662l-2.852 8.408c-1.46 4.305-1.801 9.012-.967 13.375l5.927 31.035c1.248 6.535-.171 13.26-3.296 18.355-5.253.138-10.502-1.109-15.14-3.76-.042-.024-.083-.048-.125-.072-.001.002-.004.015-.004.015l-.315-.194c-.507-.297-1.009-.611-1.51-.93l-16.288-10.025c-8.396-5.168-12.921-17.258-10.888-29.09 1.417-8.249-2.326-16.514-8.542-18.86-7.13-2.691-10.799-12.99-7.784-21.852z" fill="url(#SVGID_00000071535709946281780870000014628948173512039348_)"/><path d="m211.184 423.264c0 49.008-34.173 88.736-76.327 88.736-9.323 0-18.47-2.003-27.035-5.776-.001.002-.005.015-.005.015l-.412-.194c-.663-.297-1.319-.611-1.974-.93l-21.282-10.025c-10.97-5.168-16.883-17.258-14.227-29.09 1.852-8.249-3.039-16.514-11.162-18.86-9.316-2.691-14.11-12.99-10.172-21.852l10.281-23.132c1.445-3.252 1.764-6.893.906-10.347l-1.676-6.745c-3.429-13.804-1.009-28.155 6.245-39.886h146.839v78.086z" fill="url(#SVGID_00000173853462255626800650000015025448535797267639_)"/></g><g><path d="m265.206 429.393h-18.411c-14.617 0-25.973-12.732-24.308-27.254l6.531-56.96h53.966l6.531 56.96c1.664 14.521-9.692 27.254-24.309 27.254z" fill="url(#SVGID_00000013878281427036505140000017211385053979119499_)"/><path d="m265.206 429.393h-18.411c-14.617 0-25.973-12.732-24.308-27.254l6.531-56.96h53.966l6.531 56.96c1.664 14.521-9.692 27.254-24.309 27.254z" fill="url(#SVGID_00000148646236887262471240000004120624109777281425_)"/><path d="m282.983 345.178h-27.859v84.215h10.081c14.617 0 25.973-12.732 24.308-27.254z" fill="url(#SVGID_00000108287505255343898990000012594714764857352331_)"/></g><path d="m307.794 11.044c-32.605-14.725-70.983-14.725-103.588 0-58.474 22.695-90.48 80.023-75.919 135.984l46.423 178.422c2.487 9.558 7.404 23.511 14.078 37.108 12.238 24.934 50.614 26.893 66.022 3.436l1.19-1.812 1.19 1.812c15.408 23.457 53.785 21.498 66.022-3.436 6.673-13.597 11.591-27.55 14.078-37.108l46.423-178.422c14.562-55.961-17.445-113.289-75.919-135.984z" fill="url(#SVGID_00000087411022503114211810000005715197887949566856_)"/><path d="m307.794 11.044c-26.815-12.11-57.531-14.251-85.732-6.443v377.854c12.587.217 25.329-5.167 32.748-16.461l1.19-1.812 1.19 1.812c15.408 23.457 53.785 21.498 66.022-3.436 6.673-13.597 11.591-27.55 14.078-37.108l46.423-178.422c14.562-55.961-17.445-113.289-75.919-135.984z" fill="url(#SVGID_00000101080621545101284120000010595775994099147688_)"/><g opacity=".55"><ellipse cx="318.144" cy="133.167" fill="url(#SVGID_00000060712768572263683700000005871003056256338111_)" rx="61.587" ry="66.217"/><ellipse cx="193.641" cy="133.167" fill="url(#SVGID_00000084488102274610751880000000274888064080363454_)" rx="61.587" ry="66.217"/></g><g><path d="m384.61 143.283c-5.79-17.978-20.631-30.772-38.034-30.772-22.441 0-40.634 21.267-40.634 47.502s18.192 47.502 40.634 47.502c8.86 0 17.052-3.325 23.729-8.953l13.409-51.535c.324-1.247.617-2.495.896-3.744z" fill="url(#SVGID_00000183959839821673233290000015780604468976156062_)"/><path d="m206.058 160.013c0-26.235-18.192-47.502-40.634-47.502-17.403 0-32.245 12.794-38.034 30.772.279 1.249.572 2.497.896 3.744l13.409 51.535c6.677 5.627 14.869 8.953 23.729 8.953 22.442 0 40.634-21.268 40.634-47.502z" fill="url(#SVGID_00000026122689667623212670000001644917973857698443_)"/></g><path d="m151.258 235.317 23.452 90.133c2.487 9.558 7.405 23.511 14.078 37.108 12.238 24.934 50.614 26.893 66.022 3.436l1.19-1.812 1.19 1.812c15.408 23.457 53.785 21.498 66.022-3.436 6.673-13.597 11.591-27.55 14.078-37.108l23.452-90.133z" fill="url(#SVGID_00000117658996752753319380000017662661624523493010_)"/><path d="m322.963 363.021-37.307-37.307-56.279 29.535 18.495 18.495c2.619-2.173 4.968-4.751 6.938-7.75l1.19-1.812 1.19 1.812c15.31 23.307 53.284 21.511 65.773-2.973z" fill="url(#SVGID_00000035512968727133116640000004556516729979839118_)"/><path d="m273.515 360.846 5.067-2.749c7-3.798 11.36-11.124 11.36-19.088v-.338c0-11.994-9.723-21.717-21.717-21.717h-24.446c-11.994 0-21.717 9.723-21.717 21.717v.338c0 7.964 4.36 15.29 11.36 19.088l5.067 2.749c10.923 5.927 24.103 5.927 35.026 0z" fill="url(#SVGID_00000147930254289868400510000004111141647671718274_)"/><g><path d="m181.096 177.664c-14.32 0-25.928-11.608-25.928-25.928v-13.297c0-14.32 11.608-25.928 25.928-25.928 14.32 0 25.928 11.608 25.928 25.928v13.297c.001 14.319-11.608 25.928-25.928 25.928z" fill="url(#SVGID_00000152984539080115512900000005027090321276767420_)"/><path d="m330.904 177.664c-14.32 0-25.928-11.608-25.928-25.928v-13.297c0-14.32 11.608-25.928 25.928-25.928 14.32 0 25.928 11.608 25.928 25.928v13.297c0 14.319-11.609 25.928-25.928 25.928z" fill="url(#SVGID_00000160191455848547394600000015156226206254374040_)"/></g></g></svg>