<svg id="Capa_1" enable-background="new 0 0 512 512" height="512" viewBox="0 0 512 512" width="512" xmlns="http://www.w3.org/2000/svg" xmlns:xlink="http://www.w3.org/1999/xlink"><linearGradient id="lg1"><stop offset="0" stop-color="#ffdfcf"/><stop offset="1" stop-color="#fd8087"/></linearGradient><linearGradient id="SVGID_1_" gradientUnits="userSpaceOnUse" x1="85.632" x2="185.434" xlink:href="#lg1" y1="111.518" y2="145.736"/><linearGradient id="lg2"><stop offset="0" stop-color="#fd4755" stop-opacity="0"/><stop offset=".2593" stop-color="#f74452" stop-opacity=".259"/><stop offset=".6276" stop-color="#e43b4c" stop-opacity=".628"/><stop offset="1" stop-color="#ca2e43"/></linearGradient><linearGradient id="SVGID_00000013176022668301879280000008795831472238333585_" gradientUnits="userSpaceOnUse" x1="115.13" x2="170.734" xlink:href="#lg2" y1="133.018" y2="112.344"/><linearGradient id="SVGID_00000102511981524689125980000016065340131488357772_" gradientUnits="userSpaceOnUse" x1="117.172" x2="164.935" xlink:href="#lg2" y1="138.722" y2="185.771"/><linearGradient id="lg3"><stop offset="0" stop-color="#ffbf51"/><stop offset="1" stop-color="#c5715a"/></linearGradient><linearGradient id="SVGID_00000036220280607444705770000012368880097698151321_" gradientUnits="userSpaceOnUse" x1="143.308" x2="186.794" xlink:href="#lg3" y1="124.587" y2="119.597"/><linearGradient id="SVGID_00000158017682413897278510000005648943966830965379_" gradientTransform="matrix(-1 0 0 1 2934.198 0)" gradientUnits="userSpaceOnUse" x1="2507.83" x2="2607.632" xlink:href="#lg1" y1="111.518" y2="145.736"/><linearGradient id="SVGID_00000049189336263882239480000011103280455457455759_" gradientTransform="matrix(-1 0 0 1 2934.198 0)" gradientUnits="userSpaceOnUse" x1="2537.327" x2="2592.931" xlink:href="#lg2" y1="133.018" y2="112.344"/><linearGradient id="SVGID_00000132789119198869708360000018156960565740673923_" gradientUnits="userSpaceOnUse" x1="410.184" x2="460.085" xlink:href="#lg2" y1="129.332" y2="135.035"/><linearGradient id="SVGID_00000076574999227664426640000000881575534017857922_" gradientTransform="matrix(-1 0 0 1 2934.198 0)" gradientUnits="userSpaceOnUse" x1="2539.37" x2="2587.132" xlink:href="#lg2" y1="138.722" y2="185.771"/><linearGradient id="SVGID_00000142171845870667003950000005893458540653700488_" gradientTransform="matrix(-1 0 0 1 2934.198 0)" gradientUnits="userSpaceOnUse" x1="2565.506" x2="2608.991" xlink:href="#lg3" y1="124.587" y2="119.597"/><linearGradient id="SVGID_00000132056354238768731180000014139050445800110745_" gradientUnits="userSpaceOnUse" x1="259.625" x2="274.595" xlink:href="#lg3" y1="475.508" y2="500.102"/><linearGradient id="lg4"><stop offset="0" stop-color="#883f2e" stop-opacity="0"/><stop offset=".2979" stop-color="#8b402e" stop-opacity=".298"/><stop offset=".536" stop-color="#954430" stop-opacity=".536"/><stop offset=".7533" stop-color="#a64b34" stop-opacity=".753"/><stop offset=".9572" stop-color="#be5539" stop-opacity=".957"/><stop offset="1" stop-color="#c4573a"/></linearGradient><linearGradient id="SVGID_00000138560901147050960790000000011123438206983064_" gradientUnits="userSpaceOnUse" x1="256" x2="256" xlink:href="#lg4" y1="491.48" y2="516.282"/><linearGradient id="SVGID_00000112615767551905010260000002658176426773989251_" gradientUnits="userSpaceOnUse" x1="278.509" x2="261.4" xlink:href="#lg4" y1="503.58" y2="477.56"/><linearGradient id="SVGID_00000156558977278526429740000017538706380409949370_" gradientUnits="userSpaceOnUse" x1="175.899" x2="321.018" xlink:href="#lg3" y1="309.611" y2="309.611"/><linearGradient id="SVGID_00000144329199590674857910000015369010950039075246_" gradientUnits="userSpaceOnUse" x1="297.541" x2="370.967" xlink:href="#lg4" y1="321.367" y2="339.902"/><linearGradient id="SVGID_00000125581271403977968830000016282416247579708064_" gradientUnits="userSpaceOnUse" x1="256" x2="256" xlink:href="#lg4" y1="444.109" y2="500.875"/><linearGradient id="SVGID_00000136384632449246378600000015457500833318990264_" gradientUnits="userSpaceOnUse" x1="249.475" x2="263.185" xlink:href="#lg3" y1="444.152" y2="471.571"/><linearGradient id="SVGID_00000004517093935312754450000008529881229387711416_" gradientUnits="userSpaceOnUse" x1="294.995" x2="267.015" xlink:href="#lg4" y1="510.345" y2="462.405"/><linearGradient id="SVGID_00000179647297502629837880000013028910432703714236_" gradientUnits="userSpaceOnUse" x1="246.786" x2="268.172" xlink:href="#lg1" y1="440.464" y2="479.316"/><linearGradient id="lg5"><stop offset="0" stop-color="#5a5a5a"/><stop offset="1" stop-color="#444"/></linearGradient><linearGradient id="SVGID_00000050649484083535025920000003848285760166910887_" gradientUnits="userSpaceOnUse" x1="117.069" x2="204.039" xlink:href="#lg5" y1="183.163" y2="292.233"/><linearGradient id="SVGID_00000129899599087281284940000014659352112867610528_" gradientUnits="userSpaceOnUse" x1="285.049" x2="342.079" xlink:href="#lg5" y1="201.556" y2="278.546"/><linearGradient id="SVGID_00000042736092084962581290000013996360106150148789_" gradientUnits="userSpaceOnUse" x1="326.604" x2="274.487" xlink:href="#lg4" y1="246.18" y2="191.246"/><linearGradient id="SVGID_00000012444312916723067630000015052754987762567079_" gradientUnits="userSpaceOnUse" x1="189.311" x2="234.791" xlink:href="#lg4" y1="238.76" y2="179.068"/><g><g><g><g><path d="m213.942 190.74s-57.173-181.688-108.583-190.451-29.794 184.609-24.536 203.303 54.915 55.5 91.72 46.736c36.805-8.762 41.399-59.588 41.399-59.588z" fill="url(#SVGID_1_)"/><path d="m213.942 190.74s-57.173-181.688-108.583-190.451-29.794 184.609-24.536 203.303 54.915 55.5 91.72 46.736c36.805-8.762 41.399-59.588 41.399-59.588z" fill="url(#SVGID_00000013176022668301879280000008795831472238333585_)"/><path d="m80.823 203.592c5.258 18.695 54.915 55.5 91.72 46.736s41.4-59.589 41.4-59.589-16.264-51.68-39.241-101.245h-102.841c-.581 50.192 6.295 104.616 8.962 114.098z" fill="url(#SVGID_00000102511981524689125980000016065340131488357772_)"/><path d="m105.359.289c-4.162-.709-7.843-.087-11.096 1.654 50.053 20.215 105.887 188.797 105.887 188.797s-7.595 50.826-44.4 59.589c-1.208.288-2.43.523-3.664.715 7.01.954 13.935.838 20.456-.715 36.805-8.763 44.4-59.589 44.4-59.589s-60.173-181.688-111.583-190.451z" fill="url(#SVGID_00000036220280607444705770000012368880097698151321_)"/></g><g><path d="m298.058 190.74s57.173-181.688 108.583-190.451 29.794 184.609 24.537 203.304-54.915 55.5-91.72 46.736c-36.806-8.763-41.4-59.589-41.4-59.589z" fill="url(#SVGID_00000158017682413897278510000005648943966830965379_)"/><path d="m298.058 190.74s57.173-181.688 108.583-190.451 29.794 184.609 24.537 203.304-54.915 55.5-91.72 46.736c-36.806-8.763-41.4-59.589-41.4-59.589z" fill="url(#SVGID_00000049189336263882239480000011103280455457455759_)"/><path d="m298.058 190.74s57.173-181.688 108.583-190.451 29.794 184.609 24.537 203.304-54.915 55.5-91.72 46.736c-36.806-8.763-41.4-59.589-41.4-59.589z" fill="url(#SVGID_00000132789119198869708360000018156960565740673923_)"/><path d="m431.177 203.592c-5.258 18.695-54.915 55.5-91.72 46.736s-41.4-59.589-41.4-59.589 16.264-51.68 39.241-101.245h102.84c.582 50.192-6.294 104.616-8.961 114.098z" fill="url(#SVGID_00000076574999227664426640000000881575534017857922_)"/><path d="m406.641.289c4.162-.709 7.843-.087 11.096 1.654-50.053 20.215-105.887 188.797-105.887 188.797s7.595 50.826 44.4 59.589c1.208.288 2.43.523 3.664.715-7.01.954-13.935.838-20.456-.715-36.805-8.763-44.4-59.589-44.4-59.589s60.173-181.688 111.583-190.451z" fill="url(#SVGID_00000142171845870667003950000005893458540653700488_)"/></g></g><g><g><path d="m265.279 512h-18.557c-14.733 0-26.178-11.954-24.5-25.589l6.582-53.479h54.393l6.582 53.479c1.678 13.635-9.768 25.589-24.5 25.589z" fill="url(#SVGID_00000132056354238768731180000014139050445800110745_)"/><path d="m265.279 512h-18.557c-14.733 0-26.178-11.954-24.5-25.589l6.582-53.479h54.393l6.582 53.479c1.678 13.635-9.768 25.589-24.5 25.589z" fill="url(#SVGID_00000138560901147050960790000000011123438206983064_)"/><path d="m265.279 512h-18.557c-14.733 0-26.178-11.954-24.5-25.589l6.582-53.479h54.393l6.582 53.479c1.678 13.635-9.768 25.589-24.5 25.589z" fill="url(#SVGID_00000112615767551905010260000002658176426773989251_)"/></g><g><path d="m383.71 265.4-3.326 12.784c-5.821 22.376-15.069 43.717-27.416 63.265-14.417 22.826-22.068 49.27-22.068 76.268v29.794c0 11.511-2.535 22.905-7.602 33.24-.029.06-.058.119-.088.179-12.24 24.93-50.61 26.89-66.02 3.44l-1.19-1.82-1.19 1.82c-15.41 23.45-53.78 21.49-66.02-3.44-.029-.059-.058-.119-.087-.178-5.068-10.336-7.603-21.729-7.603-33.241v-29.794c0-26.997-7.652-53.442-22.069-76.268-12.347-19.548-21.595-40.889-27.416-63.265l-3.325-12.784c-2.36-9.07-3.5-18.17-3.5-27.15 0-46.48 30.41-89.82 79.42-108.83 32.6-14.73 70.98-14.73 103.58 0 58.48 22.69 90.48 80.02 75.92 135.98z" fill="url(#SVGID_00000156558977278526429740000017538706380409949370_)"/><path d="m307.79 129.42c-24.788-11.2-52.915-13.875-79.305-8.042v379.073c10.352-1.415 20.17-6.715 26.325-16.081l1.19-1.82 1.19 1.82c15.41 23.45 53.78 21.49 66.02-3.44.029-.06.059-.119.088-.179 5.068-10.335 7.602-21.729 7.602-33.24v-29.794c0-26.997 7.652-53.442 22.068-76.268 12.346-19.548 21.594-40.889 27.416-63.265l3.326-12.784c14.56-55.96-17.44-113.29-75.92-135.98z" fill="url(#SVGID_00000144329199590674857910000015369010950039075246_)"/><path d="m173.853 372.822c4.773 14.413 7.247 29.564 7.247 44.895v29.794c0 11.511 2.535 22.905 7.603 33.24.029.059.058.119.087.178 12.24 24.93 50.61 26.89 66.02 3.44l1.19-1.82 1.19 1.82c15.41 23.45 53.78 21.49 66.02-3.44.029-.06.059-.119.088-.179 5.068-10.335 7.602-21.729 7.602-33.24v-29.794c0-15.331 2.474-30.482 7.247-44.895h-164.294z" fill="url(#SVGID_00000125581271403977968830000016282416247579708064_)"/><path d="m273.515 479.218 5.067-2.749c7-3.798 11.36-11.124 11.36-19.088v-.338c0-11.994-9.723-21.717-21.717-21.717h-24.446c-11.994 0-21.717 9.723-21.717 21.717v.338c0 7.964 4.36 15.29 11.36 19.088l5.067 2.749c10.923 5.927 24.103 5.927 35.026 0z" fill="url(#SVGID_00000136384632449246378600000015457500833318990264_)"/><path d="m322.889 481.525-36.728-36.728-57.988 27.669 19.672 19.672c2.629-2.177 4.988-4.76 6.965-7.769l1.19-1.82 1.19 1.82c15.284 23.259 53.138 21.508 65.699-2.844z" fill="url(#SVGID_00000004517093935312754450000008529881229387711416_)"/><path d="m273.515 479.218 5.067-2.749c7-3.798 11.36-11.124 11.36-19.088v-.338c0-11.994-9.723-21.717-21.717-21.717h-24.446c-11.994 0-21.717 9.723-21.717 21.717v.338c0 7.964 4.36 15.29 11.36 19.088l5.067 2.749c10.923 5.927 24.103 5.927 35.026 0z" fill="url(#SVGID_00000179647297502629837880000013028910432703714236_)"/><g><path d="m181.096 296.036c-14.32 0-25.928-11.608-25.928-25.928v-13.297c0-14.32 11.608-25.928 25.928-25.928 14.32 0 25.928 11.608 25.928 25.928v13.297c.001 14.32-11.608 25.928-25.928 25.928z" fill="url(#SVGID_00000050649484083535025920000003848285760166910887_)"/><path d="m330.904 296.036c-14.32 0-25.928-11.608-25.928-25.928v-13.297c0-14.32 11.608-25.928 25.928-25.928 14.32 0 25.928 11.608 25.928 25.928v13.297c0 14.32-11.609 25.928-25.928 25.928z" fill="url(#SVGID_00000129899599087281284940000014659352112867610528_)"/></g></g></g></g><g><path d="m384.324 213.601c-11.795-13.451-29.095-21.955-48.391-21.955-35.542 0-64.355 28.812-64.355 64.354s28.813 64.354 64.355 64.354c12.079 0 23.376-3.334 33.033-9.123 4.653-10.687 8.475-21.734 11.419-33.048l3.326-12.784c4.552-17.499 4.552-35.132.613-51.798z" fill="url(#SVGID_00000042736092084962581290000013996360106150148789_)"/><path d="m240.422 256c0-35.542-28.813-64.354-64.355-64.354-19.287 0-36.58 8.496-48.375 21.937-1.902 8.04-2.902 16.301-2.902 24.668 0 8.98 1.14 18.08 3.5 27.15l3.326 12.784c2.943 11.314 6.766 22.362 11.419 33.048 9.657 5.788 20.954 9.123 33.033 9.123 35.542-.002 64.354-28.814 64.354-64.356z" fill="url(#SVGID_00000012444312916723067630000015052754987762567079_)"/></g></g></svg>