<svg id="Capa_1" enable-background="new 0 0 512 512" height="512" viewBox="0 0 512 512" width="512" xmlns="http://www.w3.org/2000/svg" xmlns:xlink="http://www.w3.org/1999/xlink"><linearGradient id="lg1"><stop offset="0" stop-color="#f89580"/><stop offset="1" stop-color="#c4573a"/></linearGradient><linearGradient id="SVGID_1_" gradientUnits="userSpaceOnUse" x1="256.674" x2="278.702" xlink:href="#lg1" y1="452.087" y2="518.961"/><linearGradient id="lg2"><stop offset="0" stop-color="#c4573a" stop-opacity="0"/><stop offset=".235" stop-color="#be5539" stop-opacity=".235"/><stop offset=".539" stop-color="#ae4e35" stop-opacity=".539"/><stop offset=".8794" stop-color="#934330" stop-opacity=".879"/><stop offset="1" stop-color="#883f2e"/></linearGradient><linearGradient id="SVGID_00000083078365019584102280000005693802387786936244_" gradientUnits="userSpaceOnUse" x1="256" x2="256" xlink:href="#lg2" y1="476.334" y2="514.626"/><linearGradient id="SVGID_00000003092369581446048620000003743605039718656176_" gradientUnits="userSpaceOnUse" x1="255.244" x2="257.126" xlink:href="#lg2" y1="484.612" y2="423.003"/><linearGradient id="SVGID_00000103237744134573171900000015736215924032425601_" gradientUnits="userSpaceOnUse" x1="346.559" x2="395.337" xlink:href="#lg2" y1="458.923" y2="466.266"/><linearGradient id="lg3"><stop offset="0" stop-color="#bec6ed"/><stop offset="1" stop-color="#2740b0"/></linearGradient><linearGradient id="SVGID_00000176743710371312396670000003351432440110015396_" gradientUnits="userSpaceOnUse" x1="157.555" x2="353.238" xlink:href="#lg3" y1="430.455" y2="430.455"/><linearGradient id="lg4"><stop offset="0" stop-color="#2740b0" stop-opacity="0"/><stop offset=".3204" stop-color="#263fad" stop-opacity=".32"/><stop offset=".5714" stop-color="#233aa3" stop-opacity=".571"/><stop offset=".7979" stop-color="#1f3393" stop-opacity=".798"/><stop offset="1" stop-color="#192a7d"/></linearGradient><linearGradient id="SVGID_00000122687771075757334310000011780738901493048238_" gradientUnits="userSpaceOnUse" x1="256" x2="256" xlink:href="#lg4" y1="436.426" y2="475.66"/><linearGradient id="SVGID_00000098920947258880952950000012957856423560046990_" gradientUnits="userSpaceOnUse" x1="314.743" x2="386.799" xlink:href="#lg4" y1="430.455" y2="430.455"/><linearGradient id="SVGID_00000103962214905510774460000013097216041554840725_" gradientUnits="userSpaceOnUse" x1="309.471" x2="372.679" xlink:href="#lg1" y1="72.577" y2="139.587"/><linearGradient id="SVGID_00000058588690751051972320000012515242340435249854_" gradientUnits="userSpaceOnUse" x1="401.723" x2="436.416" xlink:href="#lg2" y1="109.849" y2="103.196"/><linearGradient id="SVGID_00000075128293201787462430000014503629701041791412_" gradientUnits="userSpaceOnUse" x1="385.019" x2="365.533" xlink:href="#lg2" y1="107.262" y2="137.203"/><linearGradient id="lg5"><stop offset="0" stop-color="#eaebff"/><stop offset="1" stop-color="#adb9eb"/></linearGradient><linearGradient id="SVGID_00000017511684683578742160000000794778664033052340_" gradientUnits="userSpaceOnUse" x1="334.439" x2="349.647" xlink:href="#lg5" y1="76.451" y2="100.689"/><linearGradient id="lg6"><stop offset="0" stop-color="#adb9eb" stop-opacity="0"/><stop offset=".2592" stop-color="#aab5e7" stop-opacity=".259"/><stop offset=".5415" stop-color="#a0a7da" stop-opacity=".542"/><stop offset=".8338" stop-color="#8f92c6" stop-opacity=".834"/><stop offset="1" stop-color="#8382b7"/></linearGradient><linearGradient id="SVGID_00000007386323923057619750000010025475113634542015_" gradientUnits="userSpaceOnUse" x1="380.882" x2="375.179" xlink:href="#lg6" y1="55.225" y2="72.334"/><linearGradient id="SVGID_00000147212427532611591610000006365484365588802953_" gradientUnits="userSpaceOnUse" x1="75.784" x2="155.626" xlink:href="#lg1" y1="95.585" y2="128.377"/><linearGradient id="SVGID_00000026861638302416444320000002980593911357294990_" gradientUnits="userSpaceOnUse" x1="117.417" x2="154.962" xlink:href="#lg2" y1="60.794" y2="144.913"/><linearGradient id="SVGID_00000036948690387709056670000007295808083897390512_" gradientUnits="userSpaceOnUse" x1="135.109" x2="156.02" xlink:href="#lg2" y1="48.094" y2="64.252"/><linearGradient id="SVGID_00000038380730403581833800000000999579326915546501_" gradientUnits="userSpaceOnUse" x1="107.23" x2="126.24" xlink:href="#lg5" y1="84.648" y2="99.856"/><linearGradient id="SVGID_00000183949533825131348350000001028744813743178371_" gradientUnits="userSpaceOnUse" x1="118.538" x2="124.954" xlink:href="#lg6" y1="63.198" y2="74.96"/><linearGradient id="SVGID_00000103968991925956986080000013254903840469122967_" gradientUnits="userSpaceOnUse" x1="133.303" x2="428.431" xlink:href="#lg1" y1="212.88" y2="381.83"/><linearGradient id="SVGID_00000173120229047264675820000016307769782077439893_" gradientUnits="userSpaceOnUse" x1="378.598" x2="437.054" xlink:href="#lg2" y1="251.982" y2="243.427"/><linearGradient id="SVGID_00000163059598707876463860000011087488839136779942_" gradientUnits="userSpaceOnUse" x1="256" x2="256" xlink:href="#lg2" y1="334.485" y2="422.168"/><linearGradient id="SVGID_00000109751630067821878090000016193280604020582793_" gradientUnits="userSpaceOnUse" x1="257.443" x2="263.313" xlink:href="#lg2" y1="231.943" y2="165.698"/><linearGradient id="lg7"><stop offset="0" stop-color="#b9acac"/><stop offset="1" stop-color="#766e6e"/></linearGradient><linearGradient id="SVGID_00000057121867903304449730000004752737241116556726_" gradientUnits="userSpaceOnUse" x1="141.437" x2="257.635" xlink:href="#lg7" y1="281.334" y2="384.7"/><linearGradient id="lg8"><stop offset="0" stop-color="#433f43" stop-opacity="0"/><stop offset=".3125" stop-color="#3f3b3f" stop-opacity=".313"/><stop offset=".6215" stop-color="#343134" stop-opacity=".622"/><stop offset=".9283" stop-color="#201f20" stop-opacity=".928"/><stop offset="1" stop-color="#1a1a1a"/></linearGradient><linearGradient id="SVGID_00000051366842519536444320000006302249192405916082_" gradientUnits="userSpaceOnUse" x1="180.578" x2="191.509" xlink:href="#lg8" y1="227.049" y2="181.901"/><linearGradient id="SVGID_00000134960455251359307540000017246900015089679546_" gradientUnits="userSpaceOnUse" x1="169.15" x2="169.15" xlink:href="#lg8" y1="390.089" y2="439.318"/><linearGradient id="SVGID_00000040533993103168186820000007800500424937539464_" gradientUnits="userSpaceOnUse" x1="252.036" x2="379.985" xlink:href="#lg7" y1="236.959" y2="391.881"/><linearGradient id="SVGID_00000100351594452128622040000002227802580311052961_" gradientUnits="userSpaceOnUse" x1="330.24" x2="319.784" xlink:href="#lg8" y1="218.4" y2="168.974"/><linearGradient id="SVGID_00000029748741623194886540000009891210776143563967_" gradientUnits="userSpaceOnUse" x1="372.485" x2="437.038" xlink:href="#lg8" y1="306.366" y2="306.366"/><linearGradient id="SVGID_00000125560367786449379860000015440684444393155760_" gradientUnits="userSpaceOnUse" x1="342.85" x2="342.85" xlink:href="#lg8" y1="390.089" y2="439.318"/><linearGradient id="lg9"><stop offset="0" stop-color="#444"/><stop offset="1" stop-color="#0b1b4c"/></linearGradient><linearGradient id="SVGID_00000038413145057387508880000004800595829858552235_" gradientUnits="userSpaceOnUse" x1="149" x2="185.763" xlink:href="#lg9" y1="285.772" y2="312.833"/><linearGradient id="SVGID_00000038408309615593845500000011235150206511473557_" gradientUnits="userSpaceOnUse" x1="326.669" x2="359.347" xlink:href="#lg9" y1="284.187" y2="308.695"/><linearGradient id="SVGID_00000130620950802248805680000017840188845501783962_" gradientUnits="userSpaceOnUse" x1="229.198" x2="288.198" xlink:href="#lg7" y1="359.86" y2="419.86"/><linearGradient id="SVGID_00000054975384322553024000000017513077858676492216_" gradientUnits="userSpaceOnUse" x1="297.682" x2="357.088" xlink:href="#lg8" y1="377.476" y2="373.674"/><linearGradient id="SVGID_00000054235821960832352800000008691948009128062607_" gradientUnits="userSpaceOnUse" x1="256" x2="256" xlink:href="#lg8" y1="402.955" y2="454.543"/><linearGradient id="SVGID_00000119104375235757796660000018315714359453279666_" gradientUnits="userSpaceOnUse" x1="294.624" x2="263.733" xlink:href="#lg8" y1="408.202" y2="342.618"/><linearGradient id="SVGID_00000072985631104275686610000004092510486525748381_" gradientUnits="userSpaceOnUse" x1="249.335" x2="263.335" xlink:href="#lg9" y1="347.788" y2="375.788"/><linearGradient id="lg10"><stop offset="0" stop-color="#fff5c6"/><stop offset="1" stop-color="#fac600"/></linearGradient><linearGradient id="SVGID_00000072260823186303869540000012238509960484984213_" gradientUnits="userSpaceOnUse" x1="242.149" x2="275.624" xlink:href="#lg10" y1="91.453" y2="124.928"/><linearGradient id="SVGID_00000039093870438176668200000005021054292831081364_" gradientUnits="userSpaceOnUse" x1="240.69" x2="258.253" xlink:href="#lg3" y1="18.186" y2="121.056"/><linearGradient id="SVGID_00000140724611066592510410000006184308703755453603_" gradientUnits="userSpaceOnUse" x1="330.924" x2="356.516" xlink:href="#lg4" y1="72.997" y2="49.914"/><linearGradient id="SVGID_00000044871759721567480170000002489036047455530401_" gradientUnits="userSpaceOnUse" x1="256" x2="256" xlink:href="#lg10" y1="94.482" y2="121.158"/><linearGradient id="lg11"><stop offset="0" stop-color="#fea613" stop-opacity="0"/><stop offset=".1766" stop-color="#fda116" stop-opacity=".177"/><stop offset=".3939" stop-color="#fa921d" stop-opacity=".394"/><stop offset=".6325" stop-color="#f4792a" stop-opacity=".633"/><stop offset=".8846" stop-color="#ed573b" stop-opacity=".885"/><stop offset="1" stop-color="#e94444"/></linearGradient><linearGradient id="SVGID_00000119079244015935465140000002340694501094501267_" gradientUnits="userSpaceOnUse" x1="331.654" x2="385.096" xlink:href="#lg11" y1="133.606" y2="165.972"/><linearGradient id="SVGID_00000137096567966818221490000006411328086355177126_" gradientUnits="userSpaceOnUse" x1="368.984" x2="313.785" xlink:href="#lg11" y1="127.934" y2="127.432"/><linearGradient id="SVGID_00000075130093783024414370000006945302431292068267_" gradientUnits="userSpaceOnUse" x1="244.609" x2="270.201" xlink:href="#lg3" y1="97.827" y2="201.701"/><linearGradient id="SVGID_00000136387807991164167490000010533494957537550994_" gradientUnits="userSpaceOnUse" x1="256" x2="256" xlink:href="#lg4" y1="160.72" y2="197.626"/><linearGradient id="SVGID_00000091720286360438990430000006569023448637938096_" gradientUnits="userSpaceOnUse" x1="345.07" x2="300.66" xlink:href="#lg4" y1="178.554" y2="125.488"/><linearGradient id="SVGID_00000023278540821652612860000004305250655995270549_" gradientUnits="userSpaceOnUse" x1="221.645" x2="302.185" xlink:href="#lg10" y1="66.999" y2="142.27"/><linearGradient id="SVGID_00000114760498124305289770000016081727215325136559_" gradientUnits="userSpaceOnUse" x1="301.49" x2="196.111" xlink:href="#lg10" y1="118.41" y2="88.302"/><linearGradient id="SVGID_00000144315987807091169980000008432585603262320514_" gradientUnits="userSpaceOnUse" x1="277.08" x2="293.263" xlink:href="#lg11" y1="134.74" y2="158.074"/><linearGradient id="SVGID_00000173155723048077642750000017298455734786205862_" gradientUnits="userSpaceOnUse" x1="232.51" x2="223.478" xlink:href="#lg11" y1="149.315" y2="167.38"/><linearGradient id="SVGID_00000098190073181111384490000005723396724240214411_" gradientUnits="userSpaceOnUse" x1="299.96" x2="319.534" xlink:href="#lg11" y1="105.303" y2="105.303"/><linearGradient id="SVGID_00000101798742573285751390000001210966489467760568_" gradientUnits="userSpaceOnUse" x1="306.069" x2="223.272" xlink:href="#lg11" y1="151.88" y2="80.373"/><linearGradient id="SVGID_00000155866586060707456510000013313517291833532812_" gradientUnits="userSpaceOnUse" x1="242.268" x2="273.752" xlink:href="#lg10" y1="91.571" y2="123.055"/><linearGradient id="SVGID_00000146491801249057499060000000525315645315827889_" gradientUnits="userSpaceOnUse" x1="249.543" x2="264.87" xlink:href="#lg11" y1="113.404" y2="94.513"/><linearGradient id="SVGID_00000137122130944862666320000009447478123727599518_" gradientUnits="userSpaceOnUse" x1="261.857" x2="247.076" xlink:href="#lg11" y1="119.345" y2="81.146"/><linearGradient id="SVGID_00000124858252998553574840000016627228575963722126_" gradientUnits="userSpaceOnUse" x1="274.671" x2="227.978" xlink:href="#lg11" y1="100.758" y2="112.164"/><g><g><path d="m402.311 447.429-18.399-75.875h-255.824l-18.399 75.875c-7.976 32.891 16.94 64.571 50.784 64.571h191.054c33.844 0 58.76-31.68 50.784-64.571z" fill="url(#SVGID_1_)"/><path d="m109.689 447.429c-7.976 32.891 16.94 64.571 50.784 64.571h191.054c33.844 0 58.76-31.68 50.784-64.571l-10.86-44.787h-270.902z" fill="url(#SVGID_00000083078365019584102280000005693802387786936244_)"/><path d="m109.689 447.429c-7.976 32.891 16.94 64.571 50.784 64.571h191.054c33.844 0 58.76-31.68 50.784-64.571l-10.86-44.787h-270.902z" fill="url(#SVGID_00000003092369581446048620000003743605039718656176_)"/><path d="m391.451 402.642h-111.062v109.358h71.138c33.844 0 58.76-31.68 50.784-64.571z" fill="url(#SVGID_00000103237744134573171900000015736215924032425601_)"/></g><path d="m99.788 383.739v33.793c0 24.875 17.98 46.125 42.518 50.207 75.607 12.577 151.779 12.578 227.388 0 24.538-4.082 42.518-25.332 42.518-50.207v-33.793c-104.141 0-208.283 0-312.424 0z" fill="url(#SVGID_00000176743710371312396670000003351432440110015396_)"/><path d="m99.788 383.739v33.793c0 24.875 17.98 46.125 42.518 50.207 75.607 12.577 151.779 12.578 227.388 0 24.538-4.082 42.518-25.332 42.518-50.207v-33.793c-104.141 0-208.283 0-312.424 0z" fill="url(#SVGID_00000122687771075757334310000011780738901493048238_)"/><path d="m256 477.172c37.945 0 75.889-3.144 113.694-9.433 24.538-4.082 42.518-25.332 42.518-50.207v-33.793c-52.07 0-104.141 0-156.212 0z" fill="url(#SVGID_00000098920947258880952950000012957856423560046990_)"/><g><g><path d="m403.791 10.978c-6.491-10.38-19.994-13.998-30.806-8.255-58.662 31.162-112.456 104.873-122.666 169.398 62.829-33.887 137.543-13.859 175.005 46.893 23.418-60.978 13.691-151.715-21.533-208.036z" fill="url(#SVGID_00000103962214905510774460000013097216041554840725_)"/><path d="m403.791 10.978c-6.491-10.38-19.994-13.998-30.806-8.255-58.662 31.162-112.456 104.873-122.666 169.398 62.829-33.887 137.543-13.859 175.005 46.893 23.418-60.978 13.691-151.715-21.533-208.036z" fill="url(#SVGID_00000058588690751051972320000012515242340435249854_)"/><path d="m323.238 40.178c-36.91 36.485-65.728 86.492-72.92 131.943 62.829-33.887 137.543-13.859 175.005 46.893 16.496-42.953 16.544-100.671 2.821-150.726z" fill="url(#SVGID_00000075128293201787462430000014503629701041791412_)"/><path d="m364.779 49.01c-29.059 17.516-54.932 54.154-60.037 86.414 32.957-17.775 72.147-7.269 91.797 24.597 11.708-30.487 7.621-75.155-8.786-104.855-4.519-8.18-14.969-10.981-22.974-6.156z" fill="url(#SVGID_00000017511684683578742160000000794778664033052340_)"/><path d="m364.779 49.01c-29.059 17.516-54.932 54.154-60.037 86.414 32.957-17.775 72.147-7.269 91.797 24.597 11.708-30.487 7.621-75.155-8.786-104.855-4.519-8.18-14.969-10.981-22.974-6.156z" fill="url(#SVGID_00000007386323923057619750000010025475113634542015_)"/></g><g><path d="m108.209 10.978c6.492-10.38 19.995-13.998 30.807-8.255 58.662 31.162 112.456 104.873 122.666 169.398-62.829-33.887-137.543-13.859-175.005 46.893-23.419-60.978-13.692-151.715 21.532-208.036z" fill="url(#SVGID_00000147212427532611591610000006365484365588802953_)"/><path d="m261.681 172.121c-8.387-53.003-46.184-112.199-91.929-148.924l-77.925 20.88c-21.255 54.68-24.388 124.846-5.152 174.936 37.463-60.751 112.177-80.779 175.006-46.892z" fill="url(#SVGID_00000026861638302416444320000002980593911357294990_)"/><path d="m214.19 69.104c-21.349-27.909-47.729-51.802-75.174-66.382-6.747-3.584-14.54-3.521-21.025-.446v84.311h96.2v-17.483z" fill="url(#SVGID_00000036948690387709056670000007295808083897390512_)"/><path d="m147.221 49.01c-8.005-4.825-18.455-2.025-22.974 6.156-16.408 29.7-20.494 74.369-8.786 104.855 19.65-31.867 58.841-42.372 91.797-24.597-5.105-32.259-30.979-68.897-60.037-86.414z" fill="url(#SVGID_00000038380730403581833800000000999579326915546501_)"/><path d="m147.221 49.01c-8.005-4.825-18.455-2.025-22.974 6.156-16.408 29.7-20.494 74.369-8.786 104.855 19.65-31.867 58.841-42.372 91.797-24.597-5.105-32.259-30.979-68.897-60.037-86.414z" fill="url(#SVGID_00000183949533825131348350000001028744813743178371_)"/></g></g><path d="m455.373 337.934-24.821-126.246c-14.452-73.507-78.894-126.513-153.808-126.513h-41.488c-74.913 0-139.356 53.007-153.808 126.513l-24.821 126.246c-10.033 51.031 29.03 98.521 81.038 98.521h236.671c52.007 0 91.07-47.491 81.037-98.521z" fill="url(#SVGID_00000103968991925956986080000013254903840469122967_)"/><path d="m430.552 211.688c-14.452-73.507-78.894-126.513-153.808-126.513h-20.744v351.281h118.335c52.007 0 91.07-47.491 81.038-98.521z" fill="url(#SVGID_00000173120229047264675820000016307769782077439893_)"/><path d="m56.627 337.934c-10.033 51.031 29.03 98.521 81.038 98.521h236.671c52.007 0 91.07-47.491 81.038-98.521l-8.807-44.795h-381.133z" fill="url(#SVGID_00000163059598707876463860000011087488839136779942_)"/><path d="m235.256 85.175c-74.913 0-139.356 53.007-153.808 126.513l-7.184 36.54h363.472l-7.184-36.54c-14.452-73.507-78.894-126.513-153.808-126.513z" fill="url(#SVGID_00000109751630067821878090000016193280604020582793_)"/><g><path d="m92.339 390.961c0 24.861 19.955 45.344 44.815 45.492.17.001.34.002.51.002h108.295v-215.837c0-32.259-33.063-53.949-62.653-41.101l-13.081 5.68c-47.29 20.533-77.886 67.172-77.886 118.728z" fill="url(#SVGID_00000057121867903304449730000004752737241116556726_)"/><path d="m245.96 220.62v27.61h-141.02c13.18-27.66 36.04-50.33 65.28-63.03l13.09-5.68c29.59-12.85 62.65 8.84 62.65 41.1z" fill="url(#SVGID_00000051366842519536444320000006302249192405916082_)"/><path d="m245.96 293.14v143.32h-108.3c-.169 0-.338 0-.506-.001-24.86-.148-44.814-20.632-44.814-45.492v-87.047c0-3.62.15-7.22.45-10.78z" fill="url(#SVGID_00000134960455251359307540000017246900015089679546_)"/><path d="m266.041 436.455h108.295c.17 0 .34-.001.51-.002 24.861-.149 44.815-20.631 44.815-45.492v-87.037c0-51.555-30.596-98.195-77.886-118.728l-13.081-5.68c-29.591-12.848-62.653 8.841-62.653 41.101z" fill="url(#SVGID_00000040533993103168186820000007800500424937539464_)"/><path d="m407.06 248.23h-141.02v-27.61c0-32.26 33.06-53.95 62.65-41.1l13.09 5.68c29.24 12.7 52.1 35.37 65.28 63.03z" fill="url(#SVGID_00000100351594452128622040000002227802580311052961_)"/><path d="m341.775 185.197-13.081-5.68c-3.69-1.602-7.434-2.667-11.162-3.241v260.179h56.803c.17 0 .34 0 .51-.002 24.861-.149 44.815-20.631 44.815-45.492v-87.037c.001-51.555-30.595-98.194-77.885-118.727z" fill="url(#SVGID_00000029748741623194886540000009891210776143563967_)"/><g><path d="m419.66 303.92v87.046c0 24.861-19.954 45.344-44.814 45.492-.169.001-.337.001-.506.001h-108.3v-143.319h153.17c.3 3.56.45 7.16.45 10.78z" fill="url(#SVGID_00000125560367786449379860000015440684444393155760_)"/></g></g><g><path d="m166.269 331.751c-14.623 0-26.478-11.855-26.478-26.478v-13.578c0-14.623 11.854-26.478 26.478-26.478 14.623 0 26.478 11.855 26.478 26.478v13.578c0 14.623-11.855 26.478-26.478 26.478z" fill="url(#SVGID_00000038413145057387508880000004800595829858552235_)"/><path d="m345.731 331.751c-14.624 0-26.478-11.855-26.478-26.478v-13.578c0-14.623 11.854-26.478 26.478-26.478 14.623 0 26.478 11.855 26.478 26.478v13.578c0 14.623-11.855 26.478-26.478 26.478z" fill="url(#SVGID_00000038408309615593845500000011235150206511473557_)"/></g><path d="m343.983 382.538-5.213-20.931c-8.112-32.577-37.369-55.441-70.94-55.441h-23.66c-33.571 0-62.828 22.865-70.94 55.441l-5.212 20.931c-3.839 15.416-1.149 30.621 6.07 43.059 12.264 21.131 37.508 31.037 61.154 24.891l6.868-1.785c9.109-2.368 18.673-2.368 27.782 0l6.868 1.785c23.647 6.146 48.89-3.759 61.154-24.891 7.218-12.437 9.908-27.642 6.069-43.059z" fill="url(#SVGID_00000130620950802248805680000017840188845501783962_)"/><path d="m338.771 361.607c-8.112-32.577-37.369-55.441-70.94-55.441h-19.831v141.367c7.284-1.067 14.727-.692 21.891 1.17l6.868 1.785c23.647 6.146 48.89-3.759 61.154-24.891 7.218-12.438 9.909-27.643 6.07-43.059z" fill="url(#SVGID_00000054975384322553024000000017513077858676492216_)"/><path d="m168.017 382.538c-3.839 15.416-1.149 30.621 6.07 43.059 12.264 21.131 37.508 31.037 61.154 24.891l6.868-1.785c9.109-2.368 18.673-2.368 27.782 0l6.868 1.785c23.647 6.146 48.89-3.759 61.154-24.891 7.218-12.438 9.909-27.643 6.07-43.059l-5.001-20.083h-165.964z" fill="url(#SVGID_00000054235821960832352800000008691948009128062607_)"/><path d="m284 345.455-55 32 73.575 73.575c14.525-3.129 27.551-12.012 35.339-25.432 3.416-5.886 5.802-12.396 6.978-19.251z" fill="url(#SVGID_00000119104375235757796660000018315714359453279666_)"/><path d="m273.884 383.598 5.175-2.808c7.149-3.879 11.601-11.36 11.601-19.493v-.346c0-12.248-9.929-22.177-22.177-22.177h-24.965c-12.248 0-22.178 9.929-22.178 22.177v.346c0 8.133 4.452 15.614 11.601 19.493l5.175 2.808c11.154 6.052 24.614 6.052 35.768 0z" fill="url(#SVGID_00000072985631104275686610000004092510486525748381_)"/><g><path d="m247.528 81.272 5.118-11.098c1.569-3.403 6.434-3.321 7.888.133l4.742 11.264c1.219 2.895 4.172 4.667 7.301 4.38l12.17-1.117c3.732-.342 6.093 3.911 3.829 6.897l-7.384 9.738c-1.898 2.503-1.956 5.947-.143 8.513l7.052 9.981c2.162 3.061-.341 7.232-4.059 6.764l-12.125-1.525c-3.117-.392-6.128 1.28-7.444 4.132l-5.118 11.098c-1.569 3.403-6.434 3.321-7.888-.133l-4.742-11.264c-1.219-2.895-4.172-4.667-7.301-4.38l-12.17 1.117c-3.732.342-6.093-3.911-3.829-6.897l7.384-9.738c1.898-2.503 1.956-5.947.143-8.513l-7.052-9.981c-2.162-3.061.341-7.232 4.059-6.764l12.125 1.525c3.117.393 6.129-1.279 7.444-4.132z" fill="url(#SVGID_00000072260823186303869540000012238509960484984213_)"/><path d="m394.148 136.118-138.148 56.552-138.148-56.553c-22.759-9.317-25.671-40.369-5.04-53.754l62.486-40.54c49.088-31.848 112.316-31.848 161.404 0l62.486 40.54c20.631 13.386 17.719 44.438-5.04 53.755z" fill="url(#SVGID_00000039093870438176668200000005021054292831081364_)"/><path d="m399.188 82.364-62.486-40.54c-24.544-15.925-52.623-23.887-80.702-23.887v174.733l138.148-56.553c22.759-9.316 25.671-40.368 5.04-53.753z" fill="url(#SVGID_00000140724611066592510410000006184308703755453603_)"/><path d="m415.794 105.621c-.309-4.185-3.414-7.727-7.532-8.537-.026-.005-.053-.01-.079-.015-100.949-19.436-203.417-19.443-304.368-.019-.025.005-.05.01-.075.015-4.116.809-7.22 4.347-7.533 8.53-.923 12.36 5.706 25.11 19.168 30.524l66.667 26.81c24.375 5.635 49.315 8.432 73.908 8.432 24.563 0 49.527-2.765 73.91-8.392l66.765-26.85c13.452-5.411 20.08-18.147 19.169-30.498z" fill="url(#SVGID_00000044871759721567480170000002489036047455530401_)"/><path d="m408.262 97.084c-.026-.005-.053-.01-.079-.015-50.474-9.719-101.329-14.58-152.183-14.583v88.873c24.547-.004 49.494-2.769 73.86-8.392l66.765-26.85c13.452-5.41 20.08-18.145 19.169-30.497-.309-4.185-3.414-7.726-7.532-8.536z" fill="url(#SVGID_00000119079244015935465140000002340694501094501267_)"/><path d="m415.794 105.621c-.309-4.185-3.414-7.727-7.532-8.537-.026-.005-.053-.01-.079-.015-50.474-9.719-101.329-14.58-152.183-14.583v88.873c24.547-.004 49.494-2.769 73.86-8.392l66.765-26.85c13.452-5.409 20.08-18.145 19.169-30.496z" fill="url(#SVGID_00000137096567966818221490000006411328086355177126_)"/><path d="m405.503 126.785c-99.171-19.436-199.834-19.443-299.007-.019-14.894 2.917-19.264 22.102-7.15 31.243 11.731 8.852 26.36 15.121 38.032 19.929 37.742 15.549 78.629 23.138 118.573 23.138 39.903 0 80.894-7.506 118.573-23.138 11.562-4.797 26.299-11.045 38.089-19.881 12.163-9.115 7.805-28.348-7.11-31.272z" fill="url(#SVGID_00000075130093783024414370000006945302431292068267_)"/><path d="m99.346 158.009c11.731 8.851 26.36 15.12 38.032 19.929 37.742 15.549 78.629 23.138 118.573 23.138 39.903 0 80.894-7.506 118.573-23.138 11.562-4.797 26.299-11.045 38.089-19.881 7.535-5.648 8.724-15.175 4.995-22.305h-323.227c-3.708 7.113-2.527 16.604 4.965 22.257z" fill="url(#SVGID_00000136387807991164167490000010533494957537550994_)"/><path d="m405.503 126.785c-61.226-12-123.021-16.583-184.683-13.771v47.189l40.806 40.806c38.103-.678 77.003-8.179 112.898-23.071 11.562-4.797 26.299-11.045 38.089-19.881 12.163-9.115 7.805-28.348-7.11-31.272z" fill="url(#SVGID_00000091720286360438990430000006569023448637938096_)"/><g><path d="m317.503 116.121c.741-16.289 1.328-31.994.487-48.174-.313-6.021-4.779-11.035-10.736-11.964-15.485-2.415-35.147-13.269-45.119-21.93-3.522-3.06-8.746-3.06-12.268 0-9.972 8.662-29.634 19.516-45.119 21.93-5.957.929-10.423 5.943-10.736 11.964-.845 16.245-.25 32.011.495 48.37.301 6.612 2.218 13.046 5.576 18.75 9.651 16.395 28.026 35.812 51.291 43.098 3.046.954 6.325.906 9.357-.095 22.175-7.323 41.015-26.492 50.938-42.766 3.533-5.798 5.525-12.401 5.834-19.183z" fill="url(#SVGID_00000023278540821652612860000004305250655995270549_)"/><path d="m306.595 114.202c.61-13.4 1.092-26.32.4-39.63-.258-4.953-3.931-9.078-8.832-9.842-12.739-1.987-28.914-10.916-37.117-18.041-2.898-2.517-7.195-2.517-10.093 0-8.203 7.125-24.378 16.054-37.117 18.041-4.901.764-8.574 4.889-8.832 9.842-.695 13.364-.206 26.334.408 39.791.248 5.439 1.825 10.732 4.587 15.424 7.94 13.487 23.055 29.461 42.194 35.455 2.506.785 5.204.745 7.697-.078 18.242-6.024 33.741-21.794 41.904-35.181 2.909-4.769 4.547-10.202 4.801-15.781z" fill="url(#SVGID_00000114760498124305289770000016081727215325136559_)"/><path d="m194.506 116.316c.301 6.611 2.218 13.046 5.576 18.75 9.651 16.395 28.026 35.812 51.291 43.098 3.046.954 6.325.906 9.357-.095 22.175-7.323 41.015-26.492 50.938-42.766 3.534-5.796 5.526-12.4 5.835-19.182.518-11.375.948-22.468.881-33.634h-124.768c-.067 11.23.369 22.385.89 33.829z" fill="url(#SVGID_00000144315987807091169980000008432585603262320514_)"/><path d="m194.506 116.316c.301 6.611 2.218 13.046 5.576 18.75 9.651 16.395 28.026 35.812 51.291 43.098 3.046.954 6.325.906 9.357-.095 22.175-7.323 41.015-26.492 50.938-42.766 3.534-5.796 5.526-12.4 5.835-19.182.518-11.375.948-22.468.881-33.634h-124.768c-.067 11.23.369 22.385.89 33.829z" fill="url(#SVGID_00000173155723048077642750000017298455734786205862_)"/><path d="m260.73 178.069c22.175-7.323 41.015-26.492 50.938-42.766 3.534-5.796 5.526-12.4 5.835-19.182.741-16.289 1.328-31.994.486-48.174-.313-6.021-4.779-11.035-10.736-11.964-15.485-2.415-35.147-13.269-45.119-21.93-1.761-1.53-3.948-2.295-6.134-2.295v147.09c1.599-.012 3.196-.273 4.73-.779z" fill="url(#SVGID_00000098190073181111384490000005723396724240214411_)"/><path d="m317.503 116.121c.01-.227.02-.451.03-.678l-29.144-29.144-9.51 1.907-19.067-19.067v38.003l-35.992 17.399 48.51 48.51c17.057-9.109 31.199-24.401 39.338-37.749 3.534-5.796 5.526-12.399 5.835-19.181z" fill="url(#SVGID_00000101798742573285751390000001210966489467760568_)"/><path d="m247.528 81.272 5.118-11.098c1.569-3.403 6.434-3.321 7.888.133l4.742 11.264c1.219 2.895 4.172 4.667 7.301 4.38l12.17-1.117c3.732-.342 6.093 3.911 3.829 6.897l-7.384 9.738c-1.898 2.503-1.956 5.947-.143 8.513l7.052 9.981c2.162 3.061-.341 7.232-4.059 6.764l-12.125-1.525c-3.117-.392-6.128 1.28-7.444 4.132l-5.118 11.098c-1.569 3.403-6.434 3.321-7.888-.133l-4.742-11.264c-1.219-2.895-4.172-4.667-7.301-4.38l-12.17 1.117c-3.732.342-6.093-3.911-3.829-6.897l7.384-9.738c1.898-2.503 1.956-5.947.143-8.513l-7.052-9.981c-2.162-3.061.341-7.232 4.059-6.764l12.125 1.525c3.117.393 6.129-1.279 7.444-4.132z" fill="url(#SVGID_00000155866586060707456510000013313517291833532812_)"/><path d="m271.916 125.203 12.125 1.525c1.574.198 2.924-.44 3.801-1.468l-64.408-38.738c-.528 1.273-.467 2.8.466 4.121l7.052 9.981c1.813 2.566 1.755 6.01-.143 8.513l-7.384 9.738c-2.264 2.986.097 7.24 3.829 6.897l12.17-1.117c3.128-.287 6.082 1.485 7.301 4.38l4.742 11.264c1.454 3.454 6.318 3.536 7.888.133l5.118-11.098c1.314-2.851 4.326-4.523 7.443-4.131z" fill="url(#SVGID_00000146491801249057499060000000525315645315827889_)"/><path d="m288.1 119.964-7.052-9.981c-1.813-2.566-1.755-6.01.143-8.513l7.384-9.738c1.278-1.685 1.081-3.773-.002-5.212-.002.001-.004.002-.007.002l-64.092 38.547c.766.515 1.714.801 2.779.703l12.17-1.117c3.128-.287 6.082 1.485 7.301 4.38l4.742 11.264c1.454 3.454 6.318 3.536 7.888.133l5.118-11.098c1.315-2.853 4.327-4.524 7.444-4.132l12.125 1.525c3.718.469 6.221-3.702 4.059-6.763z" fill="url(#SVGID_00000137122130944862666320000009447478123727599518_)"/><path d="m288.575 91.732c2.264-2.986-.097-7.24-3.829-6.897l-12.17 1.116c-3.128.287-6.082-1.485-7.301-4.38l-4.742-11.264c-.823-1.956-2.74-2.828-4.534-2.601v75.194c1.373-.174 2.673-.992 3.353-2.468l5.118-11.098c1.315-2.853 4.327-4.524 7.444-4.132l12.125 1.525c3.718.468 6.221-3.704 4.059-6.764l-7.052-9.981c-1.813-2.566-1.755-6.01.143-8.513z" fill="url(#SVGID_00000124858252998553574840000016627228575963722126_)"/></g></g></g></svg>