<svg id="Capa_1" enable-background="new 0 0 512 512" height="512" viewBox="0 0 512 512" width="512" xmlns="http://www.w3.org/2000/svg" xmlns:xlink="http://www.w3.org/1999/xlink"><linearGradient id="lg1"><stop offset="0" stop-color="#f89580"/><stop offset="1" stop-color="#c4573a"/></linearGradient><linearGradient id="SVGID_1_" gradientUnits="userSpaceOnUse" x1="88.364" x2="221.617" xlink:href="#lg1" y1="270.466" y2="310.975"/><linearGradient id="lg2"><stop offset="0" stop-color="#c4573a" stop-opacity="0"/><stop offset=".2529" stop-color="#ba5338" stop-opacity=".253"/><stop offset=".6769" stop-color="#a04933" stop-opacity=".677"/><stop offset="1" stop-color="#883f2e"/></linearGradient><linearGradient id="SVGID_00000036229406195012067990000008471466347996015261_" gradientUnits="userSpaceOnUse" x1="120.834" x2="195.456" xlink:href="#lg2" y1="286.787" y2="279.325"/><linearGradient id="SVGID_00000057126915851573627570000015891750072011602849_" gradientUnits="userSpaceOnUse" x1="127.166" x2="127.166" xlink:href="#lg2" y1="445.146" y2="515.536"/><linearGradient id="SVGID_00000111879728177387442690000009873909351540158593_" gradientUnits="userSpaceOnUse" x1="311.039" x2="448.557" xlink:href="#lg1" y1="254.492" y2="335.51"/><linearGradient id="SVGID_00000065796623120510249740000014329018777051981713_" gradientUnits="userSpaceOnUse" x1="375.871" x2="451.559" xlink:href="#lg2" y1="284.452" y2="278.056"/><linearGradient id="SVGID_00000146481036894919598330000009810664758901417643_" gradientUnits="userSpaceOnUse" x1="410.227" x2="346.266" xlink:href="#lg2" y1="290.83" y2="281.236"/><linearGradient id="SVGID_00000079476796545812313280000014040955139313419392_" gradientUnits="userSpaceOnUse" x1="384.834" x2="384.834" xlink:href="#lg2" y1="409.967" y2="506.2"/><linearGradient id="lg3"><stop offset="0" stop-color="#fffaf8"/><stop offset="1" stop-color="#ffdfcf"/></linearGradient><linearGradient id="SVGID_00000113333781214591012270000014200711101874174602_" gradientUnits="userSpaceOnUse" x1="257.203" x2="255.071" xlink:href="#lg3" y1="369.174" y2="402.22"/><linearGradient id="lg4"><stop offset="0" stop-color="#f89580" stop-opacity="0"/><stop offset=".2599" stop-color="#f2917c" stop-opacity=".261"/><stop offset=".5954" stop-color="#e2856f" stop-opacity=".597"/><stop offset=".9709" stop-color="#c8725b" stop-opacity=".974"/><stop offset=".9972" stop-color="#c5715a"/></linearGradient><linearGradient id="SVGID_00000126287457005446892140000017291107082297811892_" gradientUnits="userSpaceOnUse" x1="257.672" x2="270.465" xlink:href="#lg4" y1="376.494" y2="419.135"/><linearGradient id="SVGID_00000083797963644569824010000014022872514383054747_" gradientUnits="userSpaceOnUse" x1="273.095" x2="247.984" xlink:href="#lg4" y1="373.679" y2="365.151"/><linearGradient id="SVGID_00000014607217744240637600000005851110237444684720_" gradientUnits="userSpaceOnUse" x1="214.277" x2="294.484" xlink:href="#lg3" y1="223.755" y2="223.755"/><linearGradient id="SVGID_00000156564877927799427650000017178303981571455393_" gradientUnits="userSpaceOnUse" x1="323.547" x2="367.61" xlink:href="#lg4" y1="232.631" y2="241.633"/><linearGradient id="SVGID_00000023982648168122195320000015616056183377497766_" gradientUnits="userSpaceOnUse" x1="256" x2="256" xlink:href="#lg4" y1="389.594" y2="427.527"/><linearGradient id="SVGID_00000023259135436484884190000003658023144115315858_" gradientUnits="userSpaceOnUse" x1="175.9" x2="321.021" xlink:href="#lg1" y1="134.152" y2="134.152"/><linearGradient id="SVGID_00000011713324577867222590000012610556654738650041_" gradientUnits="userSpaceOnUse" x1="314.596" x2="380.69" xlink:href="#lg2" y1="133.517" y2="154.838"/><linearGradient id="SVGID_00000060738493831926831620000017723204415952446389_" gradientUnits="userSpaceOnUse" x1="186.814" x2="166.441" xlink:href="#lg2" y1="183.82" y2="240.201"/><linearGradient id="SVGID_00000146477187832550244220000003781428699224840588_" gradientUnits="userSpaceOnUse" x1="319.798" x2="339.697" xlink:href="#lg2" y1="168.902" y2="223.98"/><linearGradient id="lg5"><stop offset="0" stop-color="#5a5a5a"/><stop offset="1" stop-color="#444"/></linearGradient><linearGradient id="SVGID_00000163766090760977714360000002850168789082655397_" gradientUnits="userSpaceOnUse" x1="171.683" x2="199.993" xlink:href="#lg5" y1="174.479" y2="195.319"/><linearGradient id="SVGID_00000176728570329537683950000016243602320477458609_" gradientUnits="userSpaceOnUse" x1="302.919" x2="337.387" xlink:href="#lg5" y1="155.281" y2="197.922"/><linearGradient id="SVGID_00000142178590869525175470000010928774049607937937_" gradientUnits="userSpaceOnUse" x1="290.689" x2="260.485" xlink:href="#lg4" y1="363.694" y2="307.195"/><linearGradient id="SVGID_00000140695291769665045580000003700260055412183173_" gradientUnits="userSpaceOnUse" x1="250.59" x2="264.33" xlink:href="#lg5" y1="310.822" y2="338.776"/><g><g><path d="m150.572 57.351-35.259 35.391c-36.322 36.459-52.654 93.042-42.6 147.592 6.641 36.034 1.851 73.644-13.487 105.894l-2.167 4.556c-21.359 44.913-13.809 100.947 18.342 136.114 14.742 16.124 34.219 25.102 54.459 25.102 43.893 0 79.475-41.367 79.475-92.396v-139.592z" fill="url(#SVGID_1_)"/><path d="m150.572 57.351-35.259 35.391c-36.322 36.459-52.654 93.042-42.6 147.592 6.641 36.034 1.851 73.644-13.487 105.894l-2.167 4.556c-21.359 44.913-13.809 100.947 18.342 136.114 14.742 16.124 34.219 25.102 54.459 25.102 43.893 0 79.475-41.367 79.475-92.396v-139.592z" fill="url(#SVGID_00000036229406195012067990000008471466347996015261_)"/><path d="m66.513 328.215c-2.081 6.152-4.508 12.172-7.286 18.013l-2.167 4.556c-21.36 44.913-13.81 100.947 18.341 136.114 14.742 16.124 34.219 25.102 54.459 25.102 43.893 0 79.475-41.367 79.475-92.396v-91.389z" fill="url(#SVGID_00000057126915851573627570000015891750072011602849_)"/><path d="m361.428 57.351 35.259 35.391c36.322 36.459 52.654 93.042 42.6 147.592-6.641 36.034-1.851 73.644 13.487 105.894l2.167 4.556c21.36 44.913 13.81 100.947-18.341 136.113-14.743 16.125-34.22 25.103-54.46 25.103-43.893 0-79.475-41.367-79.475-92.396v-139.592z" fill="url(#SVGID_00000111879728177387442690000009873909351540158593_)"/><path d="m361.428 57.351 35.259 35.391c36.322 36.459 52.654 93.042 42.6 147.592-6.641 36.034-1.851 73.644 13.487 105.894l2.167 4.556c21.36 44.913 13.81 100.947-18.341 136.113-14.743 16.125-34.22 25.103-54.46 25.103-43.893 0-79.475-41.367-79.475-92.396v-139.592z" fill="url(#SVGID_00000065796623120510249740000014329018777051981713_)"/><path d="m361.428 57.351 35.259 35.391c36.322 36.459 52.654 93.042 42.6 147.592-6.641 36.034-1.851 73.644 13.487 105.894l2.167 4.556c21.36 44.913 13.81 100.947-18.341 136.113-14.743 16.125-34.22 25.103-54.46 25.103-43.893 0-79.475-41.367-79.475-92.396v-139.592z" fill="url(#SVGID_00000146481036894919598330000009810664758901417643_)"/><path d="m302.665 419.604c0 51.029 35.582 92.396 79.475 92.396 20.24 0 39.718-8.978 54.459-25.102 32.151-35.167 39.702-91.201 18.342-136.113l-2.167-4.556c-5.377-11.306-9.452-23.272-12.199-35.597h-137.91z" fill="url(#SVGID_00000079476796545812313280000014040955139313419392_)"/></g><g><path d="m265.177 412.171h-18.355c-14.572 0-25.893-12.693-24.234-27.171l6.511-56.785h53.801l6.511 56.785c1.66 14.478-9.661 27.171-24.234 27.171z" fill="url(#SVGID_00000113333781214591012270000014200711101874174602_)"/><path d="m265.177 412.171h-18.355c-14.572 0-25.893-12.693-24.234-27.171l6.511-56.785h53.801l6.511 56.785c1.66 14.478-9.661 27.171-24.234 27.171z" fill="url(#SVGID_00000126287457005446892140000017291107082297811892_)"/><path d="m265.177 412.171h-18.355c-14.572 0-25.893-12.693-24.234-27.171l6.511-56.785h53.801l6.511 56.785c1.66 14.478-9.661 27.171-24.234 27.171z" fill="url(#SVGID_00000083797963644569824010000014022872514383054747_)"/></g><path d="m358.913 127.692v140.608l-21.623 92.017c-2.839 12.077-8.843 30.494-17.011 47.428-10.681 22.144-43.176 19.05-49.601-4.681l-14.678-54.216-14.679 54.215c-6.425 23.731-38.92 26.825-49.601 4.681-8.167-16.934-14.172-35.35-17.011-47.428l-21.622-92.016v-140.608c0-28.423 11.515-54.153 30.147-72.776 18.622-18.623 44.353-30.137 72.766-30.137 56.835 0 102.913 46.068 102.913 102.913z" fill="url(#SVGID_00000014607217744240637600000005851110237444684720_)"/><path d="m256 24.779c-5.739 0-11.366.477-16.849 1.381v382.459c.886-1.707 1.628-3.551 2.17-5.555l14.679-54.216 14.679 54.215c6.425 23.731 38.92 26.825 49.601 4.681 8.167-16.934 14.172-35.35 17.011-47.428l21.623-92.017v-140.607c-.001-56.845-46.079-102.913-102.914-102.913z" fill="url(#SVGID_00000156564877927799427650000017178303981571455393_)"/><path d="m168.007 331.792 6.703 28.525c2.839 12.077 8.843 30.494 17.011 47.428 10.681 22.144 43.176 19.05 49.601-4.681l14.678-54.216 14.679 54.215c6.425 23.731 38.92 26.825 49.601 4.681 8.167-16.934 14.172-35.35 17.011-47.428l6.703-28.525h-175.987z" fill="url(#SVGID_00000023982648168122195320000015616056183377497766_)"/><path d="m307.794 12.227c-32.605-16.303-70.983-16.303-103.588 0-58.474 25.126-90.48 88.597-75.919 150.552l24.801 105.524c9.941-13.637 22.594-25.223 37.183-33.98 24.125-14.48 39.484-40.01 41.713-68.058v-.001c1.974-24.923-2.592-49.827-12.392-72.836-3.29-7.716-5.164-15.851-5.164-23.139 0-22.959 18.613-41.582 41.572-41.582s41.572 18.623 41.572 41.582c0 7.278-1.874 15.423-5.164 23.139-9.8 23.009-14.366 47.913-12.382 72.846 2.23 28.046 17.586 53.573 41.708 68.054 14.587 8.757 27.238 20.341 37.178 33.977l24.801-105.525c14.562-61.956-17.445-125.427-75.919-150.553z" fill="url(#SVGID_00000023259135436484884190000003658023144115315858_)"/><path d="m307.794 12.227c-19.944-9.972-42.047-13.833-63.668-11.605v29.816c3.764-1.121 7.747-1.731 11.874-1.731 22.959 0 41.572 18.623 41.572 41.582 0 7.278-1.874 15.423-5.164 23.139-9.8 23.009-14.366 47.913-12.382 72.846 2.229 28.046 17.586 53.573 41.708 68.054 14.587 8.757 27.238 20.341 37.178 33.977l24.801-105.525c14.562-61.956-17.445-125.427-75.919-150.553z" fill="url(#SVGID_00000011713324577867222590000012610556654738650041_)"/><g><path d="m205.944 181.736v16.452c0 18.207-11.321 33.597-25.754 34.096-12.25.423-22.688-9.639-26.081-23.587-1.294-5.32-.155-11.11 2.934-15.084l28.765-37.022c2.764-3.558 7.244-3.961 10.313-.825.719.734 1.406 1.515 2.058 2.337 4.804 6.059 7.765 14.406 7.765 23.633z" fill="url(#SVGID_00000060738493831926831620000017723204415952446389_)"/><path d="m357.892 208.697c-3.394 13.948-13.832 24.01-26.082 23.587-14.433-.499-25.754-15.889-25.754-34.096v-16.452c0-10.464 3.815-19.805 9.79-25.933 3.078-3.157 7.573-2.783 10.349.791l28.763 37.019c3.088 3.974 4.228 9.764 2.934 15.084z" fill="url(#SVGID_00000146477187832550244220000003781428699224840588_)"/></g><g><path d="m205.944 173.382v13.047c0 14.439-11.321 26.644-25.754 27.039-12.25.336-22.688-7.644-26.081-18.705-1.294-4.219-.155-8.811 2.934-11.963l28.765-29.36c2.764-2.822 7.244-3.141 10.313-.654.719.582 1.406 1.201 2.058 1.853 4.804 4.805 7.765 11.425 7.765 18.743z" fill="url(#SVGID_00000163766090760977714360000002850168789082655397_)"/><path d="m357.892 194.763c-3.394 11.062-13.832 19.041-26.082 18.705-14.433-.396-25.754-12.601-25.754-27.039v-13.047c0-8.299 3.815-15.706 9.79-20.566 3.078-2.504 7.573-2.207 10.349.627l28.763 29.358c3.088 3.151 4.228 7.743 2.934 11.962z" fill="url(#SVGID_00000176728570329537683950000016243602320477458609_)"/></g><path d="m286.933 305.708-60.143 33.962 24.942 24.942 4.268-15.764 14.679 54.215c6.425 23.731 38.92 26.825 49.601 4.681 8.167-16.934 14.172-35.35 17.011-47.428l.809-3.442z" fill="url(#SVGID_00000142178590869525175470000010928774049607937937_)"/><path d="m275.136 345.88 5.537-3.004c7.649-4.15 12.413-12.155 12.413-20.857v-.37c0-13.105-10.624-23.729-23.729-23.729h-26.712c-13.105 0-23.729 10.624-23.729 23.729v.37c0 8.702 4.764 16.707 12.413 20.857l5.537 3.004c11.934 6.476 26.334 6.476 38.27 0z" fill="url(#SVGID_00000140695291769665045580000003700260055412183173_)"/></g></svg>