<svg id="Capa_1" enable-background="new 0 0 510 510" height="512" viewBox="0 0 510 510" width="512" xmlns="http://www.w3.org/2000/svg" xmlns:xlink="http://www.w3.org/1999/xlink"><linearGradient id="lg1"><stop offset="0" stop-color="#d9b1ee"/><stop offset="1" stop-color="#814aa0"/></linearGradient><linearGradient id="SVGID_1_" gradientUnits="userSpaceOnUse" x1="276.504" x2="276.504" xlink:href="#lg1" y1="15.253" y2="120.861"/><linearGradient id="lg2"><stop offset="0" stop-color="#fee45a"/><stop offset="1" stop-color="#fea613"/></linearGradient><linearGradient id="SVGID_00000110455961121982881110000010039796322155013539_" gradientUnits="userSpaceOnUse" x1="335.677" x2="335.677" xlink:href="#lg2" y1="424.379" y2="529.988"/><linearGradient id="SVGID_00000109014421635510251980000012546906737221244305_" gradientUnits="userSpaceOnUse" x1="342.234" x2="410.031" xlink:href="#lg2" y1="58" y2="125.797"/><linearGradient id="lg3"><stop offset="0" stop-color="#fea613" stop-opacity="0"/><stop offset="1" stop-color="#e94444"/></linearGradient><linearGradient id="SVGID_00000154410242018110872170000014847901037827201982_" gradientTransform="matrix(-.707 -.707 .707 -.707 1274.089 -2477.197)" gradientUnits="userSpaceOnUse" x1="-1148.743" x2="-1167.353" xlink:href="#lg3" y1="-2477.245" y2="-2475.012"/><linearGradient id="SVGID_00000171678128745725781340000015302756071735248044_" gradientTransform="matrix(-.707 -.707 .707 -.707 1274.089 -2477.197)" gradientUnits="userSpaceOnUse" x1="-1203.874" x2="-1185.636" xlink:href="#lg3" y1="-2455.594" y2="-2445.172"/><linearGradient id="lg4"><stop offset="0" stop-color="#b3dafe"/><stop offset="1" stop-color="#26a6fe"/></linearGradient><linearGradient id="SVGID_00000044168960335669602080000007784161813655183792_" gradientUnits="userSpaceOnUse" x1="97.024" x2="125.363" xlink:href="#lg4" y1="44.205" y2="72.987"/><linearGradient id="lg5"><stop offset="0" stop-color="#7bacdf" stop-opacity="0"/><stop offset="1" stop-color="#2740b0"/></linearGradient><linearGradient id="SVGID_00000075153455964770164930000000503128441894948023_" gradientUnits="userSpaceOnUse" x1="141.797" x2="123.187" xlink:href="#lg5" y1="36.863" y2="39.096"/><linearGradient id="SVGID_00000127034554130688965020000002580967406370015896_" gradientUnits="userSpaceOnUse" x1="86.666" x2="104.904" xlink:href="#lg5" y1="58.514" y2="68.936"/><linearGradient id="SVGID_00000031920139181001397190000010336253925395935894_" gradientUnits="userSpaceOnUse" x1="164.8" x2="188.269" xlink:href="#lg1" y1="90.13" y2="113.599"/><linearGradient id="SVGID_00000174597939876156764470000005919919137971525775_" gradientTransform="matrix(0 1 -1 0 650.868 229.157)" gradientUnits="userSpaceOnUse" x1="203.276" x2="226.746" xlink:href="#lg1" y1="432.433" y2="455.903"/><linearGradient id="lg6"><stop offset="0" stop-color="#feaee1"/><stop offset="1" stop-color="#fe5694"/></linearGradient><linearGradient id="SVGID_00000168108047385623222690000017696685315512456600_" gradientUnits="userSpaceOnUse" x1="464.299" x2="500.829" xlink:href="#lg6" y1="19.684" y2="56.215"/><linearGradient id="SVGID_00000049922414947367192110000017952650250606902684_" gradientUnits="userSpaceOnUse" x1="448.233" x2="448.233" xlink:href="#lg4" y1="381.664" y2="428.706"/><linearGradient id="lg7"><stop offset="0" stop-color="#bbec6c"/><stop offset="1" stop-color="#78a91f"/></linearGradient><linearGradient id="SVGID_00000119830426110860962450000009992815448221079223_" gradientUnits="userSpaceOnUse" x1="55.295" x2="94.306" xlink:href="#lg7" y1="405.99" y2="520.493"/><linearGradient id="lg8"><stop offset="0" stop-color="#81b823" stop-opacity="0"/><stop offset="1" stop-color="#006e66"/></linearGradient><linearGradient id="SVGID_00000147930863858263498900000001931750937042355586_" gradientUnits="userSpaceOnUse" x1="104.011" x2="69.816" xlink:href="#lg8" y1="440.114" y2="435.539"/><linearGradient id="SVGID_00000018200580455740366560000008251971062998619811_" gradientUnits="userSpaceOnUse" x1="33.973" x2="71.779" xlink:href="#lg8" y1="469.057" y2="460.388"/><linearGradient id="SVGID_00000054262031424680558430000009977592739930518189_" gradientUnits="userSpaceOnUse" x1="136.722" x2="136.722" xlink:href="#lg1" y1="217.581" y2="276.828"/><linearGradient id="SVGID_00000093161454932457783060000011811918771317214627_" gradientUnits="userSpaceOnUse" x1="199.246" x2="199.246" xlink:href="#lg2" y1="217.581" y2="276.828"/><linearGradient id="lg9"><stop offset="0" stop-color="#fd4755"/><stop offset="1" stop-color="#ca2e43"/></linearGradient><linearGradient id="SVGID_00000133523494033433524820000016030398914220824500_" gradientUnits="userSpaceOnUse" x1="266.001" x2="266.001" xlink:href="#lg9" y1="217.581" y2="276.828"/><linearGradient id="SVGID_00000056386643785797695670000011280020154993913740_" gradientUnits="userSpaceOnUse" x1="325.701" x2="325.701" xlink:href="#lg6" y1="217.581" y2="276.828"/><linearGradient id="SVGID_00000103979849375974984230000005955410442761160868_" gradientUnits="userSpaceOnUse" x1="378.858" x2="378.858" xlink:href="#lg7" y1="217.581" y2="276.828"/><linearGradient id="lg10"><stop offset="0" stop-color="#5b3374" stop-opacity="0"/><stop offset="1" stop-color="#5b3374"/></linearGradient><linearGradient id="SVGID_00000124137873378764766400000011797688606309236157_" gradientUnits="userSpaceOnUse" x1="137.525" x2="143.584" xlink:href="#lg10" y1="223.829" y2="195.888"/><linearGradient id="SVGID_00000018948688453314329480000007735779324686303104_" gradientUnits="userSpaceOnUse" x1="201.893" x2="204.586" xlink:href="#lg3" y1="236.731" y2="206.77"/><linearGradient id="lg11"><stop offset="0" stop-color="#a72b2b" stop-opacity="0"/><stop offset="1" stop-color="#42210b"/></linearGradient><linearGradient id="SVGID_00000119830780592613719300000018183266070638760616_" gradientUnits="userSpaceOnUse" x1="266.001" x2="266.001" xlink:href="#lg11" y1="230.036" y2="204.786"/><linearGradient id="lg12"><stop offset="0" stop-color="#fe0364" stop-opacity="0"/><stop offset=".4141" stop-color="#f60360" stop-opacity=".414"/><stop offset="1" stop-color="#e30256"/></linearGradient><linearGradient id="SVGID_00000172401446495025007370000017253932564387831697_" gradientUnits="userSpaceOnUse" x1="324.693" x2="320.653" xlink:href="#lg12" y1="225.616" y2="204.071"/><linearGradient id="SVGID_00000079471809911535035460000016299466912170759565_" gradientUnits="userSpaceOnUse" x1="384.941" x2="377.872" xlink:href="#lg8" y1="213.953" y2="188.369"/><linearGradient id="SVGID_00000029003213812341583140000016221305194649104016_" gradientUnits="userSpaceOnUse" x1="31.159" x2="96.532" xlink:href="#lg2" y1="327.915" y2="327.915"/><linearGradient id="SVGID_00000058562314873140960490000008346447392483009962_" gradientUnits="userSpaceOnUse" x1="93.354" x2="124.726" xlink:href="#lg9" y1="345.968" y2="345.968"/><linearGradient id="SVGID_00000157293268398429458520000006513009110138763665_" gradientUnits="userSpaceOnUse" x1="122.741" x2="184.847" xlink:href="#lg6" y1="357.939" y2="357.939"/><linearGradient id="SVGID_00000075160704719126756940000016101868919491555499_" gradientUnits="userSpaceOnUse" x1="189.243" x2="243.775" xlink:href="#lg7" y1="365.928" y2="365.928"/><linearGradient id="SVGID_00000081606174288788074000000004921622138719187383_" gradientUnits="userSpaceOnUse" x1="249.881" x2="308.326" xlink:href="#lg1" y1="366.346" y2="366.346"/><linearGradient id="SVGID_00000078038720091301871090000014977145394066130838_" gradientUnits="userSpaceOnUse" x1="314.045" x2="372.972" xlink:href="#lg2" y1="361.693" y2="361.693"/><linearGradient id="SVGID_00000018231724565874757220000010583881249281016752_" gradientUnits="userSpaceOnUse" x1="381.152" x2="445.019" xlink:href="#lg9" y1="346.73" y2="346.73"/><linearGradient id="SVGID_00000168815013362197078540000013919450425378071704_" gradientUnits="userSpaceOnUse" x1="421.447" x2="478.842" xlink:href="#lg6" y1="317.152" y2="317.152"/><linearGradient id="SVGID_00000091012734249097258460000011567103587061060240_" gradientUnits="userSpaceOnUse" x1="69.769" x2="79.868" xlink:href="#lg3" y1="325.846" y2="305.312"/><linearGradient id="SVGID_00000161604222610211315630000014829124009740918205_" gradientUnits="userSpaceOnUse" x1="111.591" x2="115.294" xlink:href="#lg11" y1="335.485" y2="320.673"/><linearGradient id="SVGID_00000030460784623012851610000004951883654686470556_" gradientUnits="userSpaceOnUse" x1="158.975" x2="163.688" xlink:href="#lg12" y1="350.078" y2="329.543"/><linearGradient id="SVGID_00000023244420459953744230000007515225197712043183_" gradientUnits="userSpaceOnUse" x1="215.262" x2="216.945" xlink:href="#lg8" y1="358.223" y2="336.679"/><linearGradient id="SVGID_00000015313477242148613760000005225303984832771499_" gradientUnits="userSpaceOnUse" x1="276.806" x2="275.796" xlink:href="#lg10" y1="356.25" y2="339.755"/><linearGradient id="SVGID_00000058567110709441793680000010972983439757238443_" gradientUnits="userSpaceOnUse" x1="342.255" x2="337.205" xlink:href="#lg3" y1="356.905" y2="332.33"/><linearGradient id="SVGID_00000141446269490886155760000001661397878774799775_" gradientUnits="userSpaceOnUse" x1="403.661" x2="394.572" xlink:href="#lg11" y1="342.228" y2="318.663"/><linearGradient id="SVGID_00000060738868831797181490000011700167187769423536_" gradientUnits="userSpaceOnUse" x1="458.453" x2="448.691" xlink:href="#lg12" y1="317.041" y2="296.507"/><linearGradient id="SVGID_00000129902073232454379710000003312444183945625773_" gradientUnits="userSpaceOnUse" x1="0" x2="510" xlink:href="#lg4" y1="286.437" y2="286.437"/><linearGradient id="SVGID_00000005981614012694581940000001133904601049106818_" gradientUnits="userSpaceOnUse" x1="0" x2="510" xlink:href="#lg4" y1="155.955" y2="155.955"/><g><path d="m273.977 94.912c-9.879-19.456-26.192-35.092-46.144-44.1-2.21-.998-2.21-4.161 0-5.159 19.952-9.007 36.264-24.644 46.144-44.1 1.052-2.071 4.002-2.071 5.054 0 9.879 19.456 26.192 35.092 46.144 44.1 2.211.998 2.211 4.161 0 5.159-19.952 9.007-36.264 24.644-46.144 44.1-1.052 2.071-4.002 2.071-5.054 0z" fill="url(#SVGID_1_)"/><path d="m333.15 504.038c-9.879-19.456-26.192-35.092-46.144-44.1-2.211-.998-2.211-4.161 0-5.159 19.952-9.007 36.264-24.644 46.144-44.1 1.052-2.071 4.002-2.071 5.054 0 9.879 19.456 26.192 35.092 46.144 44.1 2.21.998 2.21 4.161 0 5.159-19.952 9.007-36.264 24.644-46.144 44.1-1.052 2.071-4.002 2.071-5.054 0z" fill="url(#SVGID_00000110455961121982881110000010039796322155013539_)"/><g><path d="m434.577 65.364-4.763 18.321c-.653 2.511-3.13 4.074-5.685 3.622-9.502-1.679-19.134-.932-28.072 1.91.86.726 1.687 1.486 2.481 2.279 7.775 7.774 12.263 18.689 11.581 30.33l-.074 1.256c-.648 11.049-6.007 21.313-14.703 28.16s-19.931 9.648-30.824 7.685c-12.554-2.262-23.182-10.554-28.43-22.181-5.01-11.101-4.497-23.869 1.312-34.498l-24.47-4.613c-2.687-.507-4.455-3.095-3.948-5.782l3.497-18.553c.507-2.687 3.095-4.455 5.782-3.948l40.502 7.635c6.598-5.312 13.991-9.664 22.027-12.93 15.989-6.496 33.149-8.131 49.943-4.802 2.8.556 4.562 3.347 3.844 6.109zm-70.177 62.543c1.167 1.167 2.85 2.267 5.221 2.695 3.829.69 6.602-.94 7.915-1.973 1.312-1.033 3.548-3.347 3.776-7.231l.074-1.256c.317-5.413-3.461-10.252-8.791-11.257l-4.419-.833c-1.729 2.108-3.322 4.354-4.76 6.728l-.537.886c-2.446 4.038-1.204 7.808-.558 9.242.317.7.96 1.88 2.079 2.999z" fill="url(#SVGID_00000109014421635510251980000012546906737221244305_)"/><path d="m358.763 76.987-40.502-7.635c-2.687-.506-5.276 1.261-5.782 3.948l-3.497 18.553c-.506 2.687 1.261 5.276 3.948 5.782l24.47 4.613c-.001.001 9.74-14.79 21.363-25.261z" fill="url(#SVGID_00000154410242018110872170000014847901037827201982_)"/><path d="m368.176 108.05 4.419.833c5.33 1.005 9.108 5.844 8.791 11.257l-.062 1.057 21.8 21.8c4.062-5.815 6.497-12.697 6.921-19.916l.074-1.256c.683-11.641-3.806-22.556-11.581-30.33-.793-.793-1.621-1.554-2.481-2.279-9.555-.938-27.881 18.834-27.881 18.834z" fill="url(#SVGID_00000171678128745725781340000015302756071735248044_)"/></g><g><path d="m86.302 122.621-9.587-16.323c-1.314-2.237-.667-5.094 1.459-6.581 7.907-5.532 14.188-12.871 18.499-21.2-1.121.095-2.244.142-3.366.142-10.995.001-21.887-4.543-29.636-13.258l-.836-.941c-7.354-8.271-10.823-19.318-9.515-30.309s7.271-20.916 16.362-27.23c10.476-7.277 23.855-8.93 35.787-4.419 11.392 4.307 20.057 13.698 23.466 25.321l20.565-14.04c2.258-1.542 5.339-.961 6.881 1.297l10.646 15.592c1.542 2.258.961 5.339-1.297 6.881l-34.038 23.241c-.91 8.422-3.059 16.727-6.433 24.718-6.712 15.9-17.691 29.19-31.92 38.711-2.372 1.587-5.591.859-7.037-1.602zm5.398-93.847c-1.65 0-3.619.412-5.597 1.787-3.196 2.22-4.004 5.333-4.201 6.992s-.142 4.875 2.444 7.783l.836.941c3.603 4.052 9.697 4.802 14.176 1.744l3.714-2.536c-.268-2.713-.729-5.428-1.391-8.123l-.247-1.006c-1.126-4.585-4.67-6.373-6.141-6.929-.721-.273-2.01-.653-3.593-.653z" fill="url(#SVGID_00000044168960335669602080000007784161813655183792_)"/><path d="m131.692 60.794 34.038-23.241c2.258-1.542 2.839-4.622 1.297-6.881l-10.646-15.592c-1.542-2.258-4.622-2.839-6.881-1.297l-20.564 14.041s3.571 17.347 2.756 32.97z" fill="url(#SVGID_00000075153455964770164930000000503128441894948023_)"/><path d="m103.071 45.485-3.714 2.536c-4.479 3.058-10.573 2.308-14.176-1.744l-.704-.792h-30.83c1.239 6.984 4.384 13.573 9.189 18.976l.836.941c7.749 8.714 18.641 13.259 29.636 13.258 1.122 0 2.245-.047 3.366-.142 7.42-6.093 6.397-33.033 6.397-33.033z" fill="url(#SVGID_00000127034554130688965020000002580967406370015896_)"/></g><path d="m148.642 130.517h20.592c3.68 0 6.933-2.299 8.26-5.731 3.894-10.073 11.858-18.134 21.866-22.16 3.365-1.354 5.598-4.581 5.598-8.208v-20.674c0-5.783-5.485-10.05-11.066-8.534-26.249 7.131-46.913 27.964-53.802 54.311-1.456 5.566 2.798 10.996 8.552 10.996z" fill="url(#SVGID_00000031920139181001397190000010336253925395935894_)"/><path d="m178.048 416.275v20.592c0 3.68 2.299 6.933 5.731 8.26 10.073 3.894 18.134 11.858 22.16 21.866 1.354 3.365 4.581 5.598 8.208 5.598h20.674c5.783 0 10.05-5.484 8.534-11.066-7.131-26.249-27.964-46.913-54.311-53.802-5.566-1.456-10.996 2.798-10.996 8.552z" fill="url(#SVGID_00000174597939876156764470000005919919137971525775_)"/><path d="m501.16 0h-20.592c-3.68 0-6.933 2.299-8.26 5.731-3.894 10.073-11.858 18.134-21.866 22.16-3.365 1.354-5.598 4.581-5.598 8.208v20.674c0 5.783 5.485 10.05 11.066 8.534 26.249-7.131 46.913-27.964 53.802-54.311 1.456-5.566-2.798-10.996-8.552-10.996z" fill="url(#SVGID_00000168108047385623222690000017696685315512456600_)"/><path d="m408.249 415.115 14.561 14.561c2.602 2.602 6.528 3.277 9.893 1.788 9.877-4.369 21.207-4.438 31.131-.208 3.337 1.422 7.197.719 9.762-1.846l14.619-14.619c4.09-4.089 3.228-10.985-1.79-13.859-23.603-13.518-52.946-13.399-76.448.359-4.965 2.908-5.796 9.756-1.728 13.824z" fill="url(#SVGID_00000049922414947367192110000017952650250606902684_)"/><g><path d="m97.585 510c-5.311 0-10.646-.949-15.754-2.88-13.313-5.033-23.388-16.101-27.175-29.765l-25.65 17.513c-1.969 1.344-4.654.838-5.999-1.131l-13.463-19.717c-1.344-1.969-.838-4.654 1.131-5.999l41.021-28.009c1.595-14.982 6.502-29.576 14.513-42.582.907-1.472 2.858-1.898 4.301-.946l22.027 14.542c1.377.909 1.774 2.737.925 4.152-.898 1.496-1.735 3.022-2.512 4.574 14.237-1.518 28.898 3.687 38.955 14.998l.969 1.09c8.464 9.518 12.453 22.227 10.948 34.871-1.504 12.643-8.365 24.061-18.822 31.325-7.566 5.258-16.453 7.964-25.415 7.964zm-13.643-52.641c.315 3.284.868 6.556 1.662 9.792l.287 1.168c1.364 5.553 5.654 7.719 7.436 8.392 1.783.674 6.433 1.888 11.128-1.374 3.87-2.688 4.848-6.459 5.087-8.467.239-2.009.172-5.904-2.959-9.425l-.969-1.09c-4.351-4.894-11.71-5.8-17.115-2.109z" fill="url(#SVGID_00000119830426110860962450000009992815448221079223_)"/><path d="m130.876 435.841-.969-1.09c-10.057-11.311-24.718-16.516-38.955-14.998-10.023 14.389-7.009 37.606-7.009 37.606l4.557-3.112c5.405-3.691 12.764-2.786 17.115 2.109l.892 1.003h34.873c-1.464-7.916-5.048-15.381-10.504-21.518z" fill="url(#SVGID_00000147930863858263498900000001931750937042355586_)"/><path d="m10.675 468.022c-1.969 1.344-2.475 4.03-1.131 5.999l13.463 19.718c1.344 1.969 4.03 2.475 5.999 1.131l25.65-17.513c-5.14-19.395-2.96-37.343-2.96-37.343z" fill="url(#SVGID_00000018200580455740366560000008251971062998619811_)"/></g><g><g><path d="m164.431 192.561c-3.832-.859-7.959-.404-8.679 2.859-2.141 9.69-3.211 14.535-5.352 24.225-8.287-2.016-12.416-3.122-20.632-5.528 2.55-9.58 3.825-14.37 6.375-23.95.858-3.225-2.566-5.704-6.339-6.884-3.774-1.18-7.942-1.075-8.908 2.116-6.204 20.51-12.408 41.019-18.611 61.529-.936 3.095 2.944 6.09 7.312 7.456 4.366 1.365 9.167 1.085 9.999-2.043 2.82-10.597 4.231-15.896 7.051-26.492 8.416 2.465 12.645 3.597 21.133 5.662-2.368 10.718-3.552 16.077-5.92 26.795-.699 3.163 3.373 5.821 7.807 6.815 4.433.994 9.176.312 9.77-2.875 3.933-21.118 7.865-42.236 11.798-63.355.61-3.288-2.973-5.472-6.804-6.33z" fill="url(#SVGID_00000054262031424680558430000009977592739930518189_)"/><path d="m216.288 205.607c-.793-3.646-5.103-5.815-9.669-6.373s-9.24.512-10.807 3.87c-9.142 19.583-18.824 38.785-29.126 57.787-.182.377-.364.756-.415 1.055-.641 3.695 5.403 7.617 10.328 8.44 2.863.479 5.273.032 6.253-1.97 2.256-4.78 3.367-7.176 5.552-11.98 9.409 1.383 14.126 1.959 23.573 2.879 1.078 5.202 1.636 7.802 2.788 12.999.517 2.185 2.761 3.2 5.645 3.424 4.961.384 11.674-1.977 11.856-5.728.015-.304-.08-.716-.173-1.127-5.895-20.968-11.151-41.996-15.805-63.276zm-22.791 39.267c4.545-10.342 6.735-15.54 10.949-25.979 1.826 11.177 2.823 16.764 4.988 27.927-6.383-.671-9.572-1.061-15.937-1.948z" fill="url(#SVGID_00000093161454932457783060000011811918771317214627_)"/><path d="m292.968 225.089c-.316-14.14-11.564-23.025-25.173-22.155-8.268.171-12.404.157-20.673-.068-3.495-.095-5.871 2.034-5.963 4.57-.777 21.504-1.555 43.008-2.332 64.512-.117 3.245 4.329 5.052 8.836 5.154 4.506.102 9.019-1.502 9.029-4.749.027-8.77.041-13.156.069-21.926 4.352.02 6.528.005 10.88-.075 14.39.337 27.192-9.239 25.363-24.755-.015-.204-.022-.305-.036-.508zm-25.545 13.083c-4.249.078-6.374.093-10.625.073.027-8.567.04-12.851.067-21.418 4.071.019 6.106.005 10.176-.07 5.755-.106 9.367 2.979 9.621 9.878.016.446.025.669.041 1.116.255 6.898-3.271 10.311-9.28 10.421z" fill="url(#SVGID_00000133523494033433524820000016030398914220824500_)"/><path d="m352.125 216.67c-2.009-14.025-14.351-21.314-27.7-18.654-8.197 1.26-12.308 1.791-20.543 2.656-3.48.365-5.583 2.791-5.369 5.319 1.811 21.439 3.621 42.877 5.432 64.316.273 3.235 4.902 4.443 9.389 3.951 4.486-.492 8.776-2.677 8.396-5.901-1.026-8.706-1.539-13.059-2.565-21.764 4.325-.554 6.486-.855 10.801-1.508 14.333-1.576 25.918-12.69 22.256-27.916-.04-.2-.059-.3-.097-.499zm-23.838 16.358c-4.214.638-6.324.932-10.548 1.473-1.002-8.504-1.503-12.756-2.506-21.26 4.046-.518 6.066-.8 10.102-1.411 5.708-.864 9.67 1.719 10.751 8.531.07.441.105.661.175 1.101 1.083 6.812-2.015 10.664-7.974 11.566z" fill="url(#SVGID_00000056386643785797695670000011280020154993913740_)"/><path d="m407.526 184.696c.068-.453-.059-.838-.154-1.126-1.169-3.552-8.049-4.002-12.184-2.629-2.404.799-3.078 2.074-3.506 4.229-2.465 11.707-3.855 17.566-6.953 29.268-8.4-8.422-12.461-12.726-20.294-21.497-1.512-1.605-2.61-2.371-5.057-1.785-4.207 1.007-9.867 5.039-9.147 8.719.058.298.136.697.414 1.051 9.387 9.909 18.883 19.421 28.77 28.832.284.239.616.675.76 1.264 2.405 9.879 3.608 14.818 6.013 24.697.767 3.148 5.547 3.554 9.927 2.304s8.308-4.141 7.438-7.259c-2.732-9.785-4.099-14.678-6.831-24.464-.163-.584-.089-1.136.04-1.492 3.927-13.343 7.486-26.596 10.764-40.112z" fill="url(#SVGID_00000103979849375974984230000005955410442761160868_)"/></g><g><path d="m164.431 192.561c-3.832-.859-7.959-.404-8.679 2.859-2.141 9.69-3.211 14.535-5.352 24.225-8.287-2.016-12.416-3.122-20.632-5.528 2.55-9.58 3.825-14.37 6.375-23.95.858-3.225-2.566-5.704-6.339-6.884-3.774-1.18-7.942-1.075-8.908 2.116-6.204 20.51-12.408 41.019-18.611 61.529-.936 3.095 2.944 6.09 7.312 7.456 4.366 1.365 9.167 1.085 9.999-2.043 2.82-10.597 4.231-15.896 7.051-26.492 8.416 2.465 12.645 3.597 21.133 5.662-2.368 10.718-3.552 16.077-5.92 26.795-.699 3.163 3.373 5.821 7.807 6.815 4.433.994 9.176.312 9.77-2.875 3.933-21.118 7.865-42.236 11.798-63.355.61-3.288-2.973-5.472-6.804-6.33z" fill="url(#SVGID_00000124137873378764766400000011797688606309236157_)"/><path d="m216.288 205.607c-.793-3.646-5.103-5.815-9.669-6.373s-9.24.512-10.807 3.87c-9.142 19.583-18.824 38.785-29.126 57.787-.182.377-.364.756-.415 1.055-.641 3.695 5.403 7.617 10.328 8.44 2.863.479 5.273.032 6.253-1.97 2.256-4.78 3.367-7.176 5.552-11.98 9.409 1.383 14.126 1.959 23.573 2.879 1.078 5.202 1.636 7.802 2.788 12.999.517 2.185 2.761 3.2 5.645 3.424 4.961.384 11.674-1.977 11.856-5.728.015-.304-.08-.716-.173-1.127-5.895-20.968-11.151-41.996-15.805-63.276zm-22.791 39.267c4.545-10.342 6.735-15.54 10.949-25.979 1.826 11.177 2.823 16.764 4.988 27.927-6.383-.671-9.572-1.061-15.937-1.948z" fill="url(#SVGID_00000018948688453314329480000007735779324686303104_)"/><path d="m292.968 225.089c-.316-14.14-11.564-23.025-25.173-22.155-8.268.171-12.404.157-20.673-.068-3.495-.095-5.871 2.034-5.963 4.57-.777 21.504-1.555 43.008-2.332 64.512-.117 3.245 4.329 5.052 8.836 5.154 4.506.102 9.019-1.502 9.029-4.749.027-8.77.041-13.156.069-21.926 4.352.02 6.528.005 10.88-.075 14.39.337 27.192-9.239 25.363-24.755-.015-.204-.022-.305-.036-.508zm-25.545 13.083c-4.249.078-6.374.093-10.625.073.027-8.567.04-12.851.067-21.418 4.071.019 6.106.005 10.176-.07 5.755-.106 9.367 2.979 9.621 9.878.016.446.025.669.041 1.116.255 6.898-3.271 10.311-9.28 10.421z" fill="url(#SVGID_00000119830780592613719300000018183266070638760616_)"/><path d="m352.125 216.67c-2.009-14.025-14.351-21.314-27.7-18.654-8.197 1.26-12.308 1.791-20.543 2.656-3.48.365-5.583 2.791-5.369 5.319 1.811 21.439 3.621 42.877 5.432 64.316.273 3.235 4.902 4.443 9.389 3.951 4.486-.492 8.776-2.677 8.396-5.901-1.026-8.706-1.539-13.059-2.565-21.764 4.325-.554 6.486-.855 10.801-1.508 14.333-1.576 25.918-12.69 22.256-27.916-.04-.2-.059-.3-.097-.499zm-23.838 16.358c-4.214.638-6.324.932-10.548 1.473-1.002-8.504-1.503-12.756-2.506-21.26 4.046-.518 6.066-.8 10.102-1.411 5.708-.864 9.67 1.719 10.751 8.531.07.441.105.661.175 1.101 1.083 6.812-2.015 10.664-7.974 11.566z" fill="url(#SVGID_00000172401446495025007370000017253932564387831697_)"/><path d="m407.526 184.696c.068-.453-.059-.838-.154-1.126-1.169-3.552-8.049-4.002-12.184-2.629-2.404.799-3.078 2.074-3.506 4.229-2.465 11.707-3.855 17.566-6.953 29.268-8.4-8.422-12.461-12.726-20.294-21.497-1.512-1.605-2.61-2.371-5.057-1.785-4.207 1.007-9.867 5.039-9.147 8.719.058.298.136.697.414 1.051 9.387 9.909 18.883 19.421 28.77 28.832.284.239.616.675.76 1.264 2.405 9.879 3.608 14.818 6.013 24.697.767 3.148 5.547 3.554 9.927 2.304s8.308-4.141 7.438-7.259c-2.732-9.785-4.099-14.678-6.831-24.464-.163-.584-.089-1.136.04-1.492 3.927-13.343 7.486-26.596 10.764-40.112z" fill="url(#SVGID_00000079471809911535035460000016299466912170759565_)"/></g><g><path d="m95.748 324.856c3.632-10.775-6.032-18.305-14.9-21.648-7.966-3.369-11.923-5.154-19.773-8.925-3.255-1.564-7.036-1.987-8.123.405-7.202 15.848-14.403 31.696-21.605 47.544-.849 1.869 1.184 4.921 5.707 7.094 9.563 4.594 14.386 6.759 24.101 10.822 10.49 4.388 23.539 4.486 27.685-8.173.217-.657.325-.986.542-1.643 2.584-7.826-.879-12.304-6.556-16.56 6.118.362 10.795-2.606 12.922-8.916zm-22.72 18.474c-.182.494-.273.742-.455 1.236-1.821 4.944-5.846 5.82-11.191 3.533-4.276-1.829-6.407-2.771-10.652-4.705 2.515-6.077 3.772-9.116 6.286-15.193 4.114 1.875 6.179 2.787 10.322 4.559 5.179 2.216 7.625 5.317 5.69 10.57zm6.178-22.448c-.977 2.622-3.925 4.539-7.786 2.892-4.268-1.82-6.395-2.758-10.632-4.689 1.748-4.224 2.621-6.336 4.369-10.559 4.141 1.887 6.219 2.803 10.39 4.582 3.774 1.609 4.665 5.074 3.659 7.774z" fill="url(#SVGID_00000029003213812341583140000016221305194649104016_)"/><path d="m117.897 316.996c-3.874-1.25-8.073-1.471-8.881 1.127-5.188 16.693-10.375 33.386-15.563 50.079-.783 2.519 3.165 5.268 7.522 6.675 4.357 1.406 9.08 1.458 9.778-1.089 4.626-16.874 9.253-33.748 13.879-50.623.721-2.626-2.862-4.919-6.735-6.169z" fill="url(#SVGID_00000058562314873140960490000008346447392483009962_)"/><path d="m162.128 328.812c-8.376-1.783-12.55-2.776-20.862-4.968-2.911-.768-5.253.464-5.752 2.468-4.235 16.987-8.471 33.975-12.706 50.962-.639 2.564 3.436 5.057 7.846 6.187 4.409 1.13 9.109.885 9.662-1.701 1.668-7.791 2.501-11.686 4.169-19.477 2.862.679 4.295 1.006 7.164 1.64 4.236 9.942 6.487 14.894 11.253 24.743.962 1.949 3.029 3.003 5.317 3.405 5.263.925 11.698-1.602 12.136-4.8.056-.41.021-1.002-.363-1.562-4.513-8.094-6.672-12.167-10.793-20.352 7.976-.813 14.28-5.295 15.481-14.426 1.797-13.676-11.109-19.758-22.552-22.119zm5.903 20.508c-.982 5.706-4.947 6.91-10.923 5.638-4.226-.9-6.336-1.374-10.547-2.372 1.287-6.013 1.93-9.019 3.217-15.031 4.085.968 6.131 1.428 10.23 2.301 5.796 1.233 9.005 3.758 8.023 9.464z" fill="url(#SVGID_00000157293268398429458520000006513009110138763665_)"/><path d="m239.065 338.272c-14.833-.716-29.473-1.963-44.214-3.763-3.366-.457-5.182 2.277-5.539 4.985-.411 3.118 1.005 6.093 4.139 6.519 5.766.783 8.654 1.128 14.434 1.725-1.374 14.926-2.747 29.851-4.121 44.777-.243 2.638 4.123 4.421 8.614 4.804 4.492.382 9.065-.641 9.22-3.286.88-14.968 1.759-29.935 2.639-44.903 5.791.387 8.689.535 14.486.736 3.15.11 4.989-2.588 5.05-5.736.054-2.734-1.324-5.74-4.708-5.858z" fill="url(#SVGID_00000075160704719126756940000016101868919491555499_)"/><path d="m294.604 333.685c-3.986.363-7.897 1.811-7.71 4.538.557 8.101.836 15.183 1.393 23.284-8.551.623-12.833.836-21.401 1.064-.216-8.118-.324-15.208-.54-23.326-.073-2.733-4.102-3.787-8.102-3.753s-8.008 1.157-8.025 3.89c-.113 17.566-.225 38.164-.338 55.73-.017 2.651 4.474 4.02 8.974 3.982 4.499-.038 8.962-1.484 8.892-4.134-.239-8.979-.358-13.469-.597-22.449 8.735-.232 13.101-.449 21.819-1.085.616 8.961.925 13.441 1.541 22.402.182 2.645 4.762 3.641 9.246 3.232 4.483-.408 8.826-2.216 8.557-4.853-1.783-17.472-3.566-37.975-5.349-55.447-.277-2.718-4.375-3.438-8.36-3.075z" fill="url(#SVGID_00000081606174288788074000000004921622138719187383_)"/><path d="m367.631 343.995c-3.342-13.815-17.071-15.862-29.19-13.49-7.158 1.382-10.748 1.999-17.944 3.084-4.167.628-6.691 2.795-6.434 4.85 2.185 17.451 4.371 34.901 6.556 52.352.257 2.055 3.578 3.459 8.266 2.752 8.095-1.221 12.134-1.915 20.186-3.469 12.651-2.472 26.687-10.197 23.423-25.217-1.946-8.346-2.918-12.518-4.863-20.862zm-20.539 34.995c-3.965.766-5.951 1.128-9.927 1.811-1.989-12.511-3.978-25.021-5.967-37.532 3.693-.634 5.537-.97 9.22-1.682 5.794-1.119 9.811.701 10.906 6.221 1.667 8.409 2.501 12.614 4.168 21.023 1.095 5.521-2.162 8.954-8.4 10.159z" fill="url(#SVGID_00000078038720091301871090000014977145394066130838_)"/><path d="m444.34 354.94c-12.503-12.928-24.546-26.161-36.238-39.831-2.004-2.342-6.844-2.08-11.368-.547-4.525 1.533-8.576 4.283-8.876 7.406-1.709 18.215-3.929 36.293-6.667 54.384-.033.35-.065.702-.006.942.726 2.972 7.66 3.423 12.472 2.027 2.797-.812 4.855-2.126 5.056-3.999.402-4.438.588-6.656.93-11.088 9.183-2.863 13.751-4.41 22.824-7.735 2.777 3.375 4.179 5.055 7.01 8.397 1.22 1.392 3.635 1.189 6.372.124 4.708-1.832 10.118-6.472 9.031-9.322-.09-.231-.315-.495-.54-.758zm-44.015-1.315c.615-9.491.853-14.23 1.192-23.687 5.598 7.446 8.459 11.135 14.307 18.437-6.174 2.208-9.274 3.258-15.499 5.25z" fill="url(#SVGID_00000018231724565874757220000010583881249281016752_)"/><path d="m478.64 341.631c-3.462-7.498-5.192-11.246-8.654-18.744-.206-.448-.177-.923-.079-1.249 2.963-11.927 5.521-23.954 7.656-36.056.036-.397-.116-.689-.229-.908-1.401-2.696-8.266-1.375-12.286.778-2.338 1.252-2.918 2.479-3.187 4.381-1.6 10.364-2.53 15.562-4.654 25.97-8.993-5.053-13.389-7.687-21.972-13.147-1.649-.981-2.816-1.362-5.225-.328-4.142 1.779-9.481 6.345-8.429 9.208.085.232.199.542.509.772 10.145 6.193 20.533 11.986 31.13 17.368.3.134.665.42.856.874 3.207 7.62 4.811 11.43 8.018 19.05 1.022 2.428 5.726 1.716 9.893-.291 4.167-2.006 7.756-5.289 6.653-7.678z" fill="url(#SVGID_00000168815013362197078540000013919450425378071704_)"/></g><g><path d="m95.748 324.856c3.632-10.775-6.032-18.305-14.9-21.648-7.966-3.369-11.923-5.154-19.773-8.925-3.255-1.564-7.036-1.987-8.123.405-7.202 15.848-14.403 31.696-21.605 47.544-.849 1.869 1.184 4.921 5.707 7.094 9.563 4.594 14.386 6.759 24.101 10.822 10.49 4.388 23.539 4.486 27.685-8.173.217-.657.325-.986.542-1.643 2.584-7.826-.879-12.304-6.556-16.56 6.118.362 10.795-2.606 12.922-8.916zm-22.72 18.474c-.182.494-.273.742-.455 1.236-1.821 4.944-5.846 5.82-11.191 3.533-4.276-1.829-6.407-2.771-10.652-4.705 2.515-6.077 3.772-9.116 6.286-15.193 4.114 1.875 6.179 2.787 10.322 4.559 5.179 2.216 7.625 5.317 5.69 10.57zm6.178-22.448c-.977 2.622-3.925 4.539-7.786 2.892-4.268-1.82-6.395-2.758-10.632-4.689 1.748-4.224 2.621-6.336 4.369-10.559 4.141 1.887 6.219 2.803 10.39 4.582 3.774 1.609 4.665 5.074 3.659 7.774z" fill="url(#SVGID_00000091012734249097258460000011567103587061060240_)"/><path d="m117.897 316.996c-3.874-1.25-8.073-1.471-8.881 1.127-5.188 16.693-10.375 33.386-15.563 50.079-.783 2.519 3.165 5.268 7.522 6.675 4.357 1.406 9.08 1.458 9.778-1.089 4.626-16.874 9.253-33.748 13.879-50.623.721-2.626-2.862-4.919-6.735-6.169z" fill="url(#SVGID_00000161604222610211315630000014829124009740918205_)"/><path d="m162.128 328.812c-8.376-1.783-12.55-2.776-20.862-4.968-2.911-.768-5.253.464-5.752 2.468-4.235 16.987-8.471 33.975-12.706 50.962-.639 2.564 3.436 5.057 7.846 6.187 4.409 1.13 9.109.885 9.662-1.701 1.668-7.791 2.501-11.686 4.169-19.477 2.862.679 4.295 1.006 7.164 1.64 4.236 9.942 6.487 14.894 11.253 24.743.962 1.949 3.029 3.003 5.317 3.405 5.263.925 11.698-1.602 12.136-4.8.056-.41.021-1.002-.363-1.562-4.513-8.094-6.672-12.167-10.793-20.352 7.976-.813 14.28-5.295 15.481-14.426 1.797-13.676-11.109-19.758-22.552-22.119zm5.903 20.508c-.982 5.706-4.947 6.91-10.923 5.638-4.226-.9-6.336-1.374-10.547-2.372 1.287-6.013 1.93-9.019 3.217-15.031 4.085.968 6.131 1.428 10.23 2.301 5.796 1.233 9.005 3.758 8.023 9.464z" fill="url(#SVGID_00000030460784623012851610000004951883654686470556_)"/><path d="m239.065 338.272c-14.833-.716-29.473-1.963-44.214-3.763-3.366-.457-5.182 2.277-5.539 4.985-.411 3.118 1.005 6.093 4.139 6.519 5.766.783 8.654 1.128 14.434 1.725-1.374 14.926-2.747 29.851-4.121 44.777-.243 2.638 4.123 4.421 8.614 4.804 4.492.382 9.065-.641 9.22-3.286.88-14.968 1.759-29.935 2.639-44.903 5.791.387 8.689.535 14.486.736 3.15.11 4.989-2.588 5.05-5.736.054-2.734-1.324-5.74-4.708-5.858z" fill="url(#SVGID_00000023244420459953744230000007515225197712043183_)"/><path d="m294.604 333.685c-3.986.363-7.897 1.811-7.71 4.538.557 8.101.836 15.183 1.393 23.284-8.551.623-12.833.836-21.401 1.064-.216-8.118-.324-15.208-.54-23.326-.073-2.733-4.102-3.787-8.102-3.753s-8.008 1.157-8.025 3.89c-.113 17.566-.225 38.164-.338 55.73-.017 2.651 4.474 4.02 8.974 3.982 4.499-.038 8.962-1.484 8.892-4.134-.239-8.979-.358-13.469-.597-22.449 8.735-.232 13.101-.449 21.819-1.085.616 8.961.925 13.441 1.541 22.402.182 2.645 4.762 3.641 9.246 3.232 4.483-.408 8.826-2.216 8.557-4.853-1.783-17.472-3.566-37.975-5.349-55.447-.277-2.718-4.375-3.438-8.36-3.075z" fill="url(#SVGID_00000015313477242148613760000005225303984832771499_)"/><path d="m367.631 343.995c-3.342-13.815-17.071-15.862-29.19-13.49-7.158 1.382-10.748 1.999-17.944 3.084-4.167.628-6.691 2.795-6.434 4.85 2.185 17.451 4.371 34.901 6.556 52.352.257 2.055 3.578 3.459 8.266 2.752 8.095-1.221 12.134-1.915 20.186-3.469 12.651-2.472 26.687-10.197 23.423-25.217-1.946-8.346-2.918-12.518-4.863-20.862zm-20.539 34.995c-3.965.766-5.951 1.128-9.927 1.811-1.989-12.511-3.978-25.021-5.967-37.532 3.693-.634 5.537-.97 9.22-1.682 5.794-1.119 9.811.701 10.906 6.221 1.667 8.409 2.501 12.614 4.168 21.023 1.095 5.521-2.162 8.954-8.4 10.159z" fill="url(#SVGID_00000058567110709441793680000010972983439757238443_)"/><path d="m444.34 354.94c-12.503-12.928-24.546-26.161-36.238-39.831-2.004-2.342-6.844-2.08-11.368-.547-4.525 1.533-8.576 4.283-8.876 7.406-1.709 18.215-3.929 36.293-6.667 54.384-.033.35-.065.702-.006.942.726 2.972 7.66 3.423 12.472 2.027 2.797-.812 4.855-2.126 5.056-3.999.402-4.438.588-6.656.93-11.088 9.183-2.863 13.751-4.41 22.824-7.735 2.777 3.375 4.179 5.055 7.01 8.397 1.22 1.392 3.635 1.189 6.372.124 4.708-1.832 10.118-6.472 9.031-9.322-.09-.231-.315-.495-.54-.758zm-44.015-1.315c.615-9.491.853-14.23 1.192-23.687 5.598 7.446 8.459 11.135 14.307 18.437-6.174 2.208-9.274 3.258-15.499 5.25z" fill="url(#SVGID_00000141446269490886155760000001661397878774799775_)"/><path d="m478.64 341.631c-3.462-7.498-5.192-11.246-8.654-18.744-.206-.448-.177-.923-.079-1.249 2.963-11.927 5.521-23.954 7.656-36.056.036-.397-.116-.689-.229-.908-1.401-2.696-8.266-1.375-12.286.778-2.338 1.252-2.918 2.479-3.187 4.381-1.6 10.364-2.53 15.562-4.654 25.97-8.993-5.053-13.389-7.687-21.972-13.147-1.649-.981-2.816-1.362-5.225-.328-4.142 1.779-9.481 6.345-8.429 9.208.085.232.199.542.509.772 10.145 6.193 20.533 11.986 31.13 17.368.3.134.665.42.856.874 3.207 7.62 4.811 11.43 8.018 19.05 1.022 2.428 5.726 1.716 9.893-.291 4.167-2.006 7.756-5.289 6.653-7.678z" fill="url(#SVGID_00000060738868831797181490000011700167187769423536_)"/></g><path d="m255 338.99c-122.967 0-227.518-38.753-254.248-94.241-1.816-3.768-.232-8.295 3.537-10.111 3.766-1.819 8.295-.233 10.111 3.537 23.912 49.639 125.099 85.666 240.6 85.666s216.687-36.028 240.6-85.666c1.816-3.768 6.34-5.354 10.111-3.537 3.768 1.816 5.352 6.342 3.537 10.111-26.731 55.488-131.281 94.241-254.248 94.241z" fill="url(#SVGID_00000129902073232454379710000003312444183945625773_)"/><path d="m255 208.508c-122.968 0-227.518-38.754-254.248-94.242-1.816-3.768-.232-8.295 3.537-10.111 3.766-1.819 8.295-.233 10.111 3.537 23.912 49.639 125.099 85.668 240.6 85.668s216.687-36.029 240.6-85.667c1.816-3.768 6.34-5.355 10.111-3.537 3.768 1.816 5.352 6.342 3.537 10.111-26.73 55.487-131.281 94.241-254.248 94.241z" fill="url(#SVGID_00000005981614012694581940000001133904601049106818_)"/></g></g></svg>