<svg id="Capa_1" enable-background="new 0 0 512 512" height="512" viewBox="0 0 512 512" width="512" xmlns="http://www.w3.org/2000/svg" xmlns:xlink="http://www.w3.org/1999/xlink"><linearGradient id="lg1"><stop offset="0" stop-color="#fffaf8"/><stop offset="1" stop-color="#ffdfcf"/></linearGradient><linearGradient id="SVGID_1_" gradientUnits="userSpaceOnUse" x1="96.747" x2="177.302" xlink:href="#lg1" y1="83.184" y2="117.401"/><linearGradient id="lg2"><stop offset="0" stop-color="#f89580" stop-opacity="0"/><stop offset=".2599" stop-color="#f2917c" stop-opacity=".261"/><stop offset=".5954" stop-color="#e2856f" stop-opacity=".597"/><stop offset=".9709" stop-color="#c8725b" stop-opacity=".974"/><stop offset=".9972" stop-color="#c5715a"/></linearGradient><linearGradient id="SVGID_00000109734630071581960510000005971851714197111228_" gradientUnits="userSpaceOnUse" x1="150.517" x2="161.922" xlink:href="#lg2" y1="61.614" y2="83.475"/><linearGradient id="SVGID_00000129166231385077608670000012775363541496596668_" gradientUnits="userSpaceOnUse" x1="151.218" x2="123.654" xlink:href="#lg2" y1="111.583" y2="102.554"/><linearGradient id="SVGID_00000134209557809372052110000018423757273784887202_" gradientUnits="userSpaceOnUse" x1="302.223" x2="318.857" xlink:href="#lg1" y1="40.13" y2="77.675"/><linearGradient id="SVGID_00000080201087950885625360000010895783013817667727_" gradientUnits="userSpaceOnUse" x1="364.282" x2="350.5" xlink:href="#lg2" y1="52.739" y2="82.68"/><linearGradient id="SVGID_00000181081598877011586720000004057545176747582365_" gradientUnits="userSpaceOnUse" x1="364.018" x2="383.978" xlink:href="#lg2" y1="114.189" y2="108.961"/><linearGradient id="lg3"><stop offset="0" stop-color="#ffdfcf"/><stop offset="1" stop-color="#fd8087"/></linearGradient><linearGradient id="SVGID_00000030445597287549380880000004709256015126529673_" gradientUnits="userSpaceOnUse" x1="113.295" x2="153.216" xlink:href="#lg3" y1="87.715" y2="114.092"/><linearGradient id="lg4"><stop offset="0" stop-color="#fd4755" stop-opacity="0"/><stop offset=".2593" stop-color="#f74452" stop-opacity=".259"/><stop offset=".6276" stop-color="#e43b4c" stop-opacity=".628"/><stop offset="1" stop-color="#ca2e43"/></linearGradient><linearGradient id="SVGID_00000073705896601799500090000008547238952992248725_" gradientUnits="userSpaceOnUse" x1="156.891" x2="108.891" xlink:href="#lg4" y1="129.426" y2="112.317"/><linearGradient id="SVGID_00000062183704548072390980000007335519139359825817_" gradientUnits="userSpaceOnUse" x1="183.246" x2="157.582" xlink:href="#lg4" y1="111.217" y2="160.643"/><linearGradient id="SVGID_00000068673802551163360530000011345596755906864271_" gradientUnits="userSpaceOnUse" x1="285.178" x2="338.61" xlink:href="#lg3" y1="80.881" y2="144.332"/><linearGradient id="SVGID_00000132801863151218337490000015060179737708770983_" gradientUnits="userSpaceOnUse" x1="373.531" x2="355.947" xlink:href="#lg4" y1="78.01" y2="100.822"/><linearGradient id="SVGID_00000132766619418837653400000011593382006197225113_" gradientUnits="userSpaceOnUse" x1="329.602" x2="322.949" xlink:href="#lg4" y1="75.536" y2="53.674"/><linearGradient id="SVGID_00000088124762266502910610000017068378558150791847_" gradientUnits="userSpaceOnUse" x1="53.509" x2="126.222" xlink:href="#lg1" y1="70.035" y2="130.629"/><linearGradient id="SVGID_00000092452997032339305990000001426440261256902298_" gradientUnits="userSpaceOnUse" x1="86.158" x2="129.643" xlink:href="#lg2" y1="98.073" y2="130.866"/><linearGradient id="SVGID_00000031200133174494150350000003494929245692827544_" gradientUnits="userSpaceOnUse" x1="445.554" x2="398.505" xlink:href="#lg1" y1="69.348" y2="129.229"/><linearGradient id="SVGID_00000129199967660710735000000013434036196094302611_" gradientUnits="userSpaceOnUse" x1="445.273" x2="445.273" xlink:href="#lg2" y1="134.805" y2="200.579"/><linearGradient id="SVGID_00000170258197709879891790000015356575011156300986_" gradientUnits="userSpaceOnUse" x1="455.891" x2="519.112" xlink:href="#lg2" y1="118.748" y2="118.748"/><linearGradient id="SVGID_00000176018751942359769520000013040114016194166949_" gradientUnits="userSpaceOnUse" x1="201.901" x2="323.975" xlink:href="#lg1" y1="266.309" y2="266.309"/><linearGradient id="SVGID_00000182517324088724089730000017566263929025051577_" gradientUnits="userSpaceOnUse" x1="322.604" x2="389.614" xlink:href="#lg2" y1="281.918" y2="296.888"/><linearGradient id="SVGID_00000088098814144405476520000012683457229841532072_" gradientUnits="userSpaceOnUse" x1="256" x2="256" xlink:href="#lg2" y1="427.038" y2="504.771"/><linearGradient id="SVGID_00000151530731998756775430000003801514270424439172_" gradientUnits="userSpaceOnUse" x1="298.441" x2="248.898" xlink:href="#lg2" y1="478.798" y2="392.543"/><linearGradient id="lg5"><stop offset="0" stop-color="#5a5a5a"/><stop offset="1" stop-color="#444"/></linearGradient><linearGradient id="SVGID_00000066488318787578922730000009783702339320351655_" gradientUnits="userSpaceOnUse" x1="161.663" x2="198.57" xlink:href="#lg5" y1="196.788" y2="223.956"/><linearGradient id="SVGID_00000149364399342791970540000005439018621734976921_" gradientUnits="userSpaceOnUse" x1="313.863" x2="346.669" xlink:href="#lg5" y1="195.197" y2="219.802"/><linearGradient id="SVGID_00000181059345193016908000000002897998261756831116_" gradientUnits="userSpaceOnUse" x1="251.199" x2="261.892" xlink:href="#lg5" y1="409.706" y2="436.439"/><g><g><path d="m219.59 128.17c8.3 19.48 12.84 40.31 12.84 61.37 0 3.82-.15 7.64-.45 11.47-.94 11.77-4.18 23.1-9.43 33.35l-137.07-137.07 74.14-74.14h.01l3.26-.7c.08-.02.16-.03.25-.05 14.91-3.15 30.4 1.56 41.18 12.34l33.09 33.09c-13.63 6.83-22.98 20.92-22.98 37.2 0 7.29 1.87 15.42 5.16 23.14z" fill="url(#SVGID_1_)"/><path d="m219.59 128.17c8.3 19.48 12.84 40.31 12.84 61.37 0 3.82-.15 7.64-.45 11.47-.94 11.77-4.18 23.1-9.43 33.35l-137.07-137.07 74.14-74.14h.01l3.26-.7c.08-.02.16-.03.25-.05 14.91-3.15 30.4 1.56 41.18 12.34l33.09 33.09c-13.63 6.83-22.98 20.92-22.98 37.2 0 7.29 1.87 15.42 5.16 23.14z" fill="url(#SVGID_00000109734630071581960510000005971851714197111228_)"/><path d="m219.59 128.17c8.3 19.48 12.84 40.31 12.84 61.37 0 3.82-.15 7.64-.45 11.47-.94 11.77-4.18 23.1-9.43 33.35l-137.07-137.07 74.14-74.14h.01l3.26-.7c.08-.02.16-.03.25-.05 14.91-3.15 30.4 1.56 41.18 12.34l33.09 33.09c-13.63 6.83-22.98 20.92-22.98 37.2 0 7.29 1.87 15.42 5.16 23.14z" fill="url(#SVGID_00000129166231385077608670000012775363541496596668_)"/><path d="m426.52 97.29-137.07 137.07c-5.24-10.25-8.49-21.57-9.42-33.34-1.99-24.94 2.58-49.84 12.38-72.85 3.29-7.72 5.16-15.86 5.16-23.14 0-16.28-9.35-30.37-22.98-37.2l33.09-33.09c10.78-10.78 26.27-15.49 41.18-12.34.09.02.17.03.25.05l3.26.7h.01z" fill="url(#SVGID_00000134209557809372052110000018423757273784887202_)"/><path d="m426.52 97.29-137.07 137.07c-5.24-10.25-8.49-21.57-9.42-33.34-1.99-24.94 2.58-49.84 12.38-72.85 3.29-7.72 5.16-15.86 5.16-23.14 0-16.28-9.35-30.37-22.98-37.2l33.09-33.09c10.78-10.78 26.27-15.49 41.18-12.34.09.02.17.03.25.05l3.26.7h.01z" fill="url(#SVGID_00000080201087950885625360000010895783013817667727_)"/><path d="m426.52 97.29-137.07 137.07c-5.24-10.25-8.49-21.57-9.42-33.34-1.99-24.94 2.58-49.84 12.38-72.85 3.29-7.72 5.16-15.86 5.16-23.14 0-16.28-9.35-30.37-22.98-37.2l33.09-33.09c10.78-10.78 26.27-15.49 41.18-12.34.09.02.17.03.25.05l3.26.7h.01z" fill="url(#SVGID_00000181081598877011586720000004057545176747582365_)"/><path d="m190.824 64.877c-13.595-13.595-33.13-19.535-51.934-15.563-.114.025-.214.038-.315.063l-4.111.883h-.013l-48.5 48.5 136.6 136.6c.559-1.092 1.084-2.203 1.597-3.319-2.54-16.901-7.308-33.474-14.066-49.335-4.149-9.736-6.508-19.989-6.508-29.183 0-13.063 4.778-25.003 12.678-34.183-1.174-4.556-1.822-9.076-1.822-13.31 0-5.222.972-10.214 2.729-14.818z" fill="url(#SVGID_00000030445597287549380880000004709256015126529673_)"/><path d="m190.824 64.877c-13.595-13.595-33.13-19.535-51.934-15.563-.114.025-.214.038-.315.063l-4.111.883h-.013l-48.5 48.5 136.6 136.6c.559-1.092 1.084-2.203 1.597-3.319-2.54-16.901-7.308-33.474-14.066-49.335-4.149-9.736-6.508-19.989-6.508-29.183 0-13.063 4.778-25.003 12.678-34.183-1.174-4.556-1.822-9.076-1.822-13.31 0-5.222.972-10.214 2.729-14.818z" fill="url(#SVGID_00000073705896601799500090000008547238952992248725_)"/><path d="m190.824 64.877c-13.595-13.595-33.13-19.535-51.934-15.563-.114.025-.214.038-.315.063l-4.111.883h-.013l-48.5 48.5 136.6 136.6c.559-1.092 1.084-2.203 1.597-3.319-2.54-16.901-7.308-33.474-14.066-49.335-4.149-9.736-6.508-19.989-6.508-29.183 0-13.063 4.778-25.003 12.678-34.183-1.174-4.556-1.822-9.076-1.822-13.31 0-5.222.972-10.214 2.729-14.818z" fill="url(#SVGID_00000062183704548072390980000007335519139359825817_)"/><path d="m287.855 232.042c.513 1.116 1.036 2.226 1.595 3.318l136.6-136.6-48.5-48.5h-.012l-4.112-.883c-.101-.025-.202-.038-.315-.063-18.803-3.973-38.339 1.967-51.934 15.563l-26.335 26.335c1.757 4.604 2.729 9.596 2.729 14.818 0 4.229-.648 8.751-1.823 13.31 7.9 9.18 12.678 21.12 12.678 34.183 0 9.181-2.359 19.447-6.508 29.183-6.754 15.86-11.522 32.434-14.063 49.336z" fill="url(#SVGID_00000068673802551163360530000011345596755906864271_)"/><path d="m287.855 232.042c.513 1.116 1.036 2.226 1.595 3.318l136.6-136.6-48.5-48.5h-.012l-4.112-.883c-.101-.025-.202-.038-.315-.063-18.803-3.973-38.339 1.967-51.934 15.563l-26.335 26.335c1.757 4.604 2.729 9.596 2.729 14.818 0 4.229-.648 8.751-1.823 13.31 7.9 9.18 12.678 21.12 12.678 34.183 0 9.181-2.359 19.447-6.508 29.183-6.754 15.86-11.522 32.434-14.063 49.336z" fill="url(#SVGID_00000132801863151218337490000015060179737708770983_)"/><path d="m287.855 232.042c.513 1.116 1.036 2.226 1.595 3.318l136.6-136.6-48.5-48.5h-.012l-4.112-.883c-.101-.025-.202-.038-.315-.063-18.803-3.973-38.339 1.967-51.934 15.563l-26.335 26.335c1.757 4.604 2.729 9.596 2.729 14.818 0 4.229-.648 8.751-1.823 13.31 7.9 9.18 12.678 21.12 12.678 34.183 0 9.181-2.359 19.447-6.508 29.183-6.754 15.86-11.522 32.434-14.063 49.336z" fill="url(#SVGID_00000132766619418837653400000011593382006197225113_)"/><g><g><path d="m159.62 23.149-72.301 164.508c-5.439 12.375-19.656 18.273-32.258 13.383-26.693-10.359-46.09-33.839-51.223-62.007l-2.718-14.914c-6.65-36.45 16.99-71.53 53.26-79.09z" fill="url(#SVGID_00000088124762266502910610000017068378558150791847_)"/><path d="m159.62 23.149-72.301 164.508c-5.439 12.375-19.656 18.273-32.258 13.383-26.693-10.359-46.09-33.839-51.223-62.007l-2.718-14.914c-6.65-36.45 16.99-71.53 53.26-79.09z" fill="url(#SVGID_00000092452997032339305990000001426440261256902298_)"/></g><g><path d="m352.38 23.149 72.301 164.508c5.439 12.375 19.656 18.273 32.258 13.383 26.693-10.359 46.09-33.839 51.223-62.007l2.718-14.914c6.65-36.45-16.99-71.53-53.26-79.09z" fill="url(#SVGID_00000031200133174494150350000003494929245692827544_)"/><path d="m424.681 187.657c5.439 12.375 19.656 18.273 32.258 13.383 26.693-10.359 46.09-33.839 51.223-62.007l2.718-14.914c2.662-14.591.46-28.957-5.453-41.432h-126.88z" fill="url(#SVGID_00000129199967660710735000000013434036196094302611_)"/><path d="m457.62 45.029-49.492-10.29v115.255l16.553 37.663c5.439 12.375 19.656 18.273 32.258 13.383 26.693-10.359 46.09-33.839 51.223-62.007l2.718-14.914c6.65-36.45-16.99-71.53-53.26-79.09z" fill="url(#SVGID_00000170258197709879891790000015356575011156300986_)"/></g></g></g><g><path d="m304.245 50.623c67.92 24.907 105.716 97.421 87.234 167.363l-59.209 224.066c-6.68 28.42-32.04 48.51-61.24 48.51h-30.06c-29.2 0-54.56-20.09-61.24-48.51l-59.209-224.066c-18.482-69.942 19.315-142.456 87.234-167.363 31.149-11.422 65.341-11.422 96.49 0z" fill="url(#SVGID_00000176018751942359769520000013040114016194166949_)"/><path d="m304.245 50.623c-31.149-11.423-65.341-11.423-96.49 0-.729.268-1.451.548-2.173.826v428.205c10.166 6.921 22.394 10.907 35.388 10.907h30.06c29.2 0 54.56-20.09 61.24-48.51l59.209-224.066c18.482-69.94-19.314-142.455-87.234-167.362z" fill="url(#SVGID_00000182517324088724089730000017566263929025051577_)"/><path d="m149.244 326.682 30.486 115.37c6.68 28.42 32.04 48.51 61.24 48.51h30.06c29.2 0 54.56-20.09 61.24-48.51l30.486-115.37z" fill="url(#SVGID_00000088098814144405476520000012683457229841532072_)"/><path d="m227.941 437.846 52.063 52.063c22.237-3.193 41.126-18.08 49.439-38.927l-44.893-44.893z" fill="url(#SVGID_00000151530731998756775430000003801514270424439172_)"/><g><path d="m179 242.948c-14.681 0-26.582-11.901-26.582-26.582v-13.632c0-14.681 11.901-26.582 26.582-26.582 14.681 0 26.582 11.901 26.582 26.582v13.632c0 14.681-11.901 26.582-26.582 26.582z" fill="url(#SVGID_00000066488318787578922730000009783702339320351655_)"/><path d="m333 242.948c-14.681 0-26.582-11.901-26.582-26.582v-13.632c0-14.681 11.901-26.582 26.582-26.582 14.681 0 26.582 11.901 26.582 26.582v13.632c0 14.681-11.901 26.582-26.582 26.582z" fill="url(#SVGID_00000149364399342791970540000005439018621734976921_)"/></g><path d="m273.955 444.279 5.195-2.819c7.177-3.894 11.646-11.404 11.646-19.569v-.347c0-12.296-9.968-22.264-22.264-22.264h-25.063c-12.296 0-22.264 9.968-22.264 22.264v.347c0 8.165 4.47 15.675 11.646 19.569l5.195 2.819c11.198 6.076 24.71 6.076 35.909 0z" fill="url(#SVGID_00000181059345193016908000000002897998261756831116_)"/></g></g></svg>