<svg id="Capa_1" enable-background="new 0 0 512 512" height="512" viewBox="0 0 512 512" width="512" xmlns="http://www.w3.org/2000/svg" xmlns:xlink="http://www.w3.org/1999/xlink"><linearGradient id="lg1"><stop offset="0" stop-color="#fffaf8"/><stop offset="1" stop-color="#ffdfcf"/></linearGradient><linearGradient id="SVGID_1_" gradientTransform="matrix(0 1 1 0 75.893 -75.893)" gradientUnits="userSpaceOnUse" x1="328.973" x2="434.09" xlink:href="#lg1" y1="246.021" y2="428.313"/><linearGradient id="lg2"><stop offset="0" stop-color="#f89580" stop-opacity="0"/><stop offset=".2599" stop-color="#f2917c" stop-opacity=".261"/><stop offset=".5954" stop-color="#e2856f" stop-opacity=".597"/><stop offset=".9709" stop-color="#c8725b" stop-opacity=".974"/><stop offset=".9972" stop-color="#c5715a"/></linearGradient><linearGradient id="SVGID_00000152227762906602137610000012695277851746739893_" gradientUnits="userSpaceOnUse" x1="418.205" x2="344.423" xlink:href="#lg2" y1="302.485" y2="285.376"/><linearGradient id="SVGID_00000091001558139674870400000004758257954506263455_" gradientTransform="matrix(0 1 1 0 75.893 -75.893)" gradientUnits="userSpaceOnUse" x1="349.626" x2="316.509" xlink:href="#lg2" y1="256.519" y2="215.714"/><linearGradient id="SVGID_00000013187683086057324910000012002156120369449654_" gradientTransform="matrix(0 1 1 0 75.893 -75.893)" gradientUnits="userSpaceOnUse" x1="297.724" x2="311.917" xlink:href="#lg2" y1="384.778" y2="426.47"/><linearGradient id="SVGID_00000109732043017859890830000014509486976228994451_" gradientTransform="matrix(0 1 1 0 75.893 -75.893)" gradientUnits="userSpaceOnUse" x1="223.681" x2="185.833" xlink:href="#lg2" y1="335.351" y2="442.39"/><linearGradient id="SVGID_00000132071791174092171140000015966538194228618385_" gradientTransform="matrix(0 1 1 0 75.893 -75.893)" gradientUnits="userSpaceOnUse" x1="382.158" x2="382.158" xlink:href="#lg2" y1="395.215" y2="450.47"/><linearGradient id="SVGID_00000012434647648488218360000004177841015371263124_" gradientTransform="matrix(0 1 1 0 75.893 -75.893)" gradientUnits="userSpaceOnUse" x1="465.985" x2="478.995" xlink:href="#lg2" y1="373.521" y2="433.25"/><linearGradient id="SVGID_00000008847998245926324620000009569036781117706142_" gradientTransform="matrix(0 1 1 0 75.893 -75.893)" gradientUnits="userSpaceOnUse" x1="526.6" x2="542.567" xlink:href="#lg2" y1="349.31" y2="407.265"/><linearGradient id="SVGID_00000059996120612952943680000016304097520891304378_" gradientTransform="matrix(0 1 1 0 75.893 -75.893)" gradientUnits="userSpaceOnUse" x1="541.307" x2="603.402" xlink:href="#lg2" y1="327.386" y2="334.482"/><linearGradient id="SVGID_00000076578046636514264840000014004224073447740345_" gradientUnits="userSpaceOnUse" x1="370.875" x2="315.271" xlink:href="#lg2" y1="360.453" y2="388.255"/><linearGradient id="SVGID_00000112605932005498425420000003041708938850518419_" gradientTransform="matrix(0 1 -1 0 23.474 -75.893)" gradientUnits="userSpaceOnUse" x1="328.973" x2="434.09" xlink:href="#lg1" y1="-166.612" y2="15.68"/><linearGradient id="SVGID_00000080902364632546710880000017884141947152684193_" gradientUnits="userSpaceOnUse" x1="145.03" x2="211.327" xlink:href="#lg2" y1="302.69" y2="311.244"/><linearGradient id="SVGID_00000065059296247705693490000009836727797897743268_" gradientTransform="matrix(0 1 -1 0 23.474 -75.893)" gradientUnits="userSpaceOnUse" x1="349.626" x2="316.509" xlink:href="#lg2" y1="-156.114" y2="-196.919"/><linearGradient id="SVGID_00000064337539303921134530000013062210847339078036_" gradientTransform="matrix(0 1 -1 0 23.474 -75.893)" gradientUnits="userSpaceOnUse" x1="297.724" x2="311.917" xlink:href="#lg2" y1="-27.855" y2="13.837"/><linearGradient id="SVGID_00000044167759807912573310000006874534991398321566_" gradientUnits="userSpaceOnUse" x1="55.147" x2="12.374" xlink:href="#lg2" y1="320.975" y2="380.856"/><linearGradient id="SVGID_00000007418494124269477180000007317071679224454846_" gradientTransform="matrix(0 1 -1 0 23.474 -75.893)" gradientUnits="userSpaceOnUse" x1="465.985" x2="478.996" xlink:href="#lg2" y1="-39.113" y2="20.617"/><linearGradient id="SVGID_00000105393145496815462480000002412792637479686052_" gradientTransform="matrix(0 1 -1 0 23.474 -75.893)" gradientUnits="userSpaceOnUse" x1="526.6" x2="542.567" xlink:href="#lg2" y1="-63.323" y2="-5.368"/><linearGradient id="SVGID_00000007388874762540545220000014273450322215117489_" gradientTransform="matrix(0 1 -1 0 23.474 -75.893)" gradientUnits="userSpaceOnUse" x1="541.307" x2="603.402" xlink:href="#lg2" y1="-85.248" y2="-78.151"/><linearGradient id="SVGID_00000158028371689853768700000017468543084183342267_" gradientTransform="matrix(-1 0 0 1 99.367 0)" gradientUnits="userSpaceOnUse" x1="-41.758" x2="-97.362" xlink:href="#lg2" y1="360.453" y2="388.255"/><linearGradient id="SVGID_00000173120704454591758190000001679333404755035066_" gradientUnits="userSpaceOnUse" x1="144.945" x2="343.836" xlink:href="#lg1" y1="225.662" y2="259.88"/><linearGradient id="SVGID_00000166635426665371988860000010370953447653795004_" gradientUnits="userSpaceOnUse" x1="302.14" x2="389.111" xlink:href="#lg2" y1="254.299" y2="275.685"/><linearGradient id="SVGID_00000137850188970476978660000010085562155348691629_" gradientUnits="userSpaceOnUse" x1="256" x2="256" xlink:href="#lg2" y1="207.515" y2="112.053"/><linearGradient id="SVGID_00000113335173191564806040000010254190107808424832_" gradientUnits="userSpaceOnUse" x1="256" x2="256" xlink:href="#lg2" y1="412.076" y2="496.558"/><linearGradient id="SVGID_00000111153580442478513470000014875112466436584122_" gradientUnits="userSpaceOnUse" x1="298.442" x2="248.898" xlink:href="#lg2" y1="460.821" y2="374.563"/><linearGradient id="lg3"><stop offset="0" stop-color="#5a5a5a"/><stop offset="1" stop-color="#444"/></linearGradient><linearGradient id="SVGID_00000104690581473707008220000006144892297217909121_" gradientUnits="userSpaceOnUse" x1="251.199" x2="261.892" xlink:href="#lg3" y1="391.727" y2="418.46"/><linearGradient id="SVGID_00000050638408040043650410000004212927245801798582_" gradientUnits="userSpaceOnUse" x1="169.192" x2="206.099" xlink:href="#lg3" y1="235.965" y2="263.132"/><linearGradient id="SVGID_00000179621763337835062260000017871087634749013657_" gradientUnits="userSpaceOnUse" x1="306.334" x2="339.14" xlink:href="#lg3" y1="234.374" y2="258.978"/><linearGradient id="SVGID_00000182513764430429438410000005264896142189294997_" gradientUnits="userSpaceOnUse" x1="219.604" x2="304.079" xlink:href="#lg1" y1="24.464" y2="170.959"/><linearGradient id="SVGID_00000088115834205190210260000001675000938073419403_" gradientUnits="userSpaceOnUse" x1="236.202" x2="209.588" xlink:href="#lg2" y1="32.901" y2=".109"/><linearGradient id="SVGID_00000112592009128005619970000015546739547063244204_" gradientUnits="userSpaceOnUse" x1="194.491" x2="205.897" xlink:href="#lg2" y1="135.973" y2="169.478"/><linearGradient id="SVGID_00000031897527808210082260000016804705881357652393_" gradientUnits="userSpaceOnUse" x1="134.989" x2="104.573" xlink:href="#lg2" y1="96.253" y2="182.272"/><linearGradient id="SVGID_00000165202405278211919250000012126904744207588736_" gradientUnits="userSpaceOnUse" x1="262.345" x2="262.345" xlink:href="#lg2" y1="144.361" y2="188.765"/><linearGradient id="SVGID_00000167358718629671111260000017287201972904402080_" gradientUnits="userSpaceOnUse" x1="329.711" x2="340.166" xlink:href="#lg2" y1="126.927" y2="174.927"/><linearGradient id="SVGID_00000035500859778723774380000003283459055755213482_" gradientUnits="userSpaceOnUse" x1="378.423" x2="391.254" xlink:href="#lg2" y1="107.47" y2="154.045"/><linearGradient id="SVGID_00000088111751558874369760000002226592962588974009_" gradientUnits="userSpaceOnUse" x1="390.242" x2="440.143" xlink:href="#lg2" y1="89.851" y2="95.554"/><linearGradient id="SVGID_00000063605286573791856090000008493820398513772692_" gradientUnits="userSpaceOnUse" x1="337.795" x2="361.558" xlink:href="#lg2" y1="33.983" y2="17.35"/><g><g><path d="m329.163 440.702c0-4.342.41-8.586 1.153-12.714-16.288-9.421-27.255-27.018-27.255-47.187 0-11.691 3.694-22.513 9.962-31.387-13.285-12.949-21.546-31.028-21.546-51.044 0-20.017 8.261-38.096 21.546-51.044-6.268-8.875-9.962-19.696-9.962-31.387 0-20.169 10.967-37.766 27.255-47.187-.744-4.128-1.153-8.372-1.153-12.714 0-39.373 31.918-71.291 71.291-71.291s71.291 31.918 71.291 71.291c0 4.342-.41 8.586-1.153 12.714 16.288 9.421 27.255 27.018 27.255 47.187 0 11.047-3.297 21.32-8.947 29.906 14.196 13.03 23.1 31.735 23.1 52.524s-8.904 39.494-23.099 52.526c5.65 8.587 8.947 18.859 8.947 29.906 0 20.169-10.967 37.766-27.255 47.187.744 4.128 1.153 8.372 1.153 12.714 0 39.373-31.918 71.291-71.291 71.291s-71.292-31.917-71.292-71.291z" fill="url(#SVGID_1_)"/><path d="m329.163 440.702c0-4.342.41-8.586 1.153-12.714-16.288-9.421-27.255-27.018-27.255-47.187 0-11.691 3.694-22.513 9.962-31.387-13.285-12.949-21.546-31.028-21.546-51.044 0-20.017 8.261-38.096 21.546-51.044-6.268-8.875-9.962-19.696-9.962-31.387 0-20.169 10.967-37.766 27.255-47.187-.744-4.128-1.153-8.372-1.153-12.714 0-39.373 31.918-71.291 71.291-71.291s71.291 31.918 71.291 71.291c0 4.342-.41 8.586-1.153 12.714 16.288 9.421 27.255 27.018 27.255 47.187 0 11.047-3.297 21.32-8.947 29.906 14.196 13.03 23.1 31.735 23.1 52.524s-8.904 39.494-23.099 52.526c5.65 8.587 8.947 18.859 8.947 29.906 0 20.169-10.967 37.766-27.255 47.187.744 4.128 1.153 8.372 1.153 12.714 0 39.373-31.918 71.291-71.291 71.291s-71.292-31.917-71.292-71.291z" fill="url(#SVGID_00000152227762906602137610000012695277851746739893_)"/><path d="m362.774 369.658c39.371 0 71.289-31.918 71.289-71.289 0-23.257-11.137-43.901-28.359-56.917-9.146 17.234-27.276 28.969-48.157 28.969-18.404 0-34.68-9.121-44.548-23.095-13.277 12.941-21.527 31.034-21.527 51.043 0 39.371 31.918 71.289 71.302 71.289z" fill="url(#SVGID_00000091001558139674870400000004758257954506263455_)"/><circle cx="443.359" cy="215.937" fill="url(#SVGID_00000013187683086057324910000012002156120369449654_)" r="54.489"/><path d="m389.901 226.545c-.672-3.422-1.033-6.968-1.033-10.602 0-30.101 24.402-54.49 54.49-54.49 9.93 0 19.238 2.65 27.264 7.292.734-4.119 1.12-8.362 1.12-12.705 0-39.371-31.918-71.302-71.289-71.302s-71.289 31.93-71.289 71.302c0 35.787 26.367 65.415 60.737 70.505z" fill="url(#SVGID_00000109732043017859890830000014509486976228994451_)"/><path d="m440.708 369.658c39.371 0 71.289-31.918 71.289-71.289 0-20.781-8.897-39.483-23.083-52.524-9.743 14.808-26.505 24.576-45.556 24.576-20.296 0-38.003-11.1-47.385-27.55-16.202 13.066-26.555 33.075-26.555 55.498 0 39.371 31.918 71.289 71.29 71.289z" fill="url(#SVGID_00000132071791174092171140000015966538194228618385_)"/><path d="m443.358 435.285c30.088 0 54.49-24.389 54.49-54.49 0-11.037-3.285-21.316-8.934-29.902-12.692 11.647-29.616 18.765-48.206 18.765-16.948 0-32.503-5.911-44.735-15.791-4.517 7.939-7.105 17.135-7.105 26.928 0 30.101 24.402 54.49 54.49 54.49z" fill="url(#SVGID_00000012434647648488218360000004177841015371263124_)"/><path d="m400.453 512c39.371 0 71.289-31.93 71.289-71.302 0-4.343-.386-8.586-1.12-12.705-8.026 4.641-17.334 7.292-27.264 7.292-30.089 0-54.49-24.389-54.49-54.49 0-3.634.361-7.18 1.033-10.602-34.369 5.089-60.737 34.718-60.737 70.505 0 39.372 31.917 71.302 71.289 71.302z" fill="url(#SVGID_00000008847998245926324620000009569036781117706142_)"/><path d="m400.453 512c39.371 0 71.289-31.93 71.289-71.302 0-4.343-.386-8.586-1.12-12.705-8.026 4.641-17.334 7.292-27.264 7.292-30.089 0-54.49-24.389-54.49-54.49 0-3.634.361-7.18 1.033-10.602-34.369 5.089-60.737 34.718-60.737 70.505 0 39.372 31.917 71.302 71.289 71.302z" fill="url(#SVGID_00000059996120612952943680000016304097520891304378_)"/><path d="m400.453 369.409c3.584 0 7.118.261 10.552.784-4.94-25.012-26.99-43.876-53.458-43.876-30.089 0-54.49 24.389-54.49 54.478 0 20.171 10.95 37.766 27.226 47.198 5.998-33.311 35.141-58.584 70.17-58.584z" fill="url(#SVGID_00000076578046636514264840000014004224073447740345_)"/></g><g><path d="m182.837 440.703c0-4.342-.41-8.586-1.153-12.714 16.288-9.421 27.255-27.018 27.255-47.187 0-11.691-3.694-22.513-9.962-31.387 13.285-12.949 21.545-31.028 21.545-51.044 0-20.017-8.261-38.096-21.545-51.044 6.268-8.875 9.962-19.696 9.962-31.387 0-20.169-10.967-37.766-27.255-47.187.744-4.128 1.153-8.372 1.153-12.714 0-39.373-31.918-71.291-71.291-71.291s-71.291 31.918-71.291 71.291c0 4.342.41 8.586 1.153 12.714-16.288 9.421-27.255 27.018-27.255 47.187 0 11.047 3.297 21.32 8.947 29.906-14.196 13.029-23.1 31.734-23.1 52.523s8.904 39.494 23.099 52.526c-5.65 8.587-8.947 18.859-8.947 29.906 0 20.169 10.967 37.766 27.255 47.187-.744 4.128-1.153 8.372-1.153 12.714 0 39.373 31.918 71.291 71.291 71.291s71.292-31.917 71.292-71.29z" fill="url(#SVGID_00000112605932005498425420000003041708938850518419_)"/><path d="m182.837 440.703c0-4.342-.41-8.586-1.153-12.714 16.288-9.421 27.255-27.018 27.255-47.187 0-11.691-3.694-22.513-9.962-31.387 13.285-12.949 21.545-31.028 21.545-51.044 0-20.017-8.261-38.096-21.545-51.044 6.268-8.875 9.962-19.696 9.962-31.387 0-20.169-10.967-37.766-27.255-47.187.744-4.128 1.153-8.372 1.153-12.714 0-39.373-31.918-71.291-71.291-71.291s-71.291 31.918-71.291 71.291c0 4.342.41 8.586 1.153 12.714-16.288 9.421-27.255 27.018-27.255 47.187 0 11.047 3.297 21.32 8.947 29.906-14.196 13.029-23.1 31.734-23.1 52.523s8.904 39.494 23.099 52.526c-5.65 8.587-8.947 18.859-8.947 29.906 0 20.169 10.967 37.766 27.255 47.187-.744 4.128-1.153 8.372-1.153 12.714 0 39.373 31.918 71.291 71.291 71.291s71.292-31.917 71.292-71.29z" fill="url(#SVGID_00000080902364632546710880000017884141947152684193_)"/><path d="m149.226 369.658c-39.371 0-71.289-31.918-71.289-71.289 0-23.257 11.137-43.901 28.359-56.917 9.146 17.234 27.276 28.969 48.157 28.969 18.404 0 34.68-9.121 44.548-23.095 13.277 12.941 21.527 31.034 21.527 51.043 0 39.372-31.918 71.289-71.302 71.289z" fill="url(#SVGID_00000065059296247705693490000009836727797897743268_)"/><circle cx="68.641" cy="215.937" fill="url(#SVGID_00000064337539303921134530000013062210847339078036_)" r="54.489"/><path d="m71.292 369.658c-39.371 0-71.289-31.918-71.289-71.289 0-20.781 8.897-39.483 23.083-52.524 9.743 14.808 26.505 24.576 45.556 24.576 20.296 0 38.003-11.1 47.385-27.55 16.202 13.066 26.555 33.075 26.555 55.498 0 39.372-31.918 71.289-71.29 71.289z" fill="url(#SVGID_00000044167759807912573310000006874534991398321566_)"/><path d="m68.642 435.286c-30.088 0-54.49-24.389-54.49-54.49 0-11.037 3.285-21.316 8.934-29.902 12.692 11.647 29.616 18.765 48.206 18.765 16.948 0 32.503-5.911 44.735-15.791 4.517 7.939 7.105 17.135 7.105 26.928 0 30.1-24.402 54.49-54.49 54.49z" fill="url(#SVGID_00000007418494124269477180000007317071679224454846_)"/><path d="m111.547 512c-39.371 0-71.289-31.93-71.289-71.302 0-4.343.386-8.586 1.12-12.705 8.026 4.641 17.334 7.292 27.264 7.292 30.089 0 54.49-24.389 54.49-54.49 0-3.634-.361-7.18-1.033-10.602 34.369 5.089 60.737 34.718 60.737 70.505 0 39.372-31.917 71.302-71.289 71.302z" fill="url(#SVGID_00000105393145496815462480000002412792637479686052_)"/><path d="m111.547 512c-39.371 0-71.289-31.93-71.289-71.302 0-4.343.386-8.586 1.12-12.705 8.026 4.641 17.334 7.292 27.264 7.292 30.089 0 54.49-24.389 54.49-54.49 0-3.634-.361-7.18-1.033-10.602 34.369 5.089 60.737 34.718 60.737 70.505 0 39.372-31.917 71.302-71.289 71.302z" fill="url(#SVGID_00000007388874762540545220000014273450322215117489_)"/><path d="m111.547 369.409c-3.584 0-7.118.261-10.552.784 4.94-25.012 26.99-43.876 53.458-43.876 30.088 0 54.49 24.389 54.49 54.478 0 20.171-10.95 37.766-27.226 47.198-5.998-33.311-35.141-58.584-70.17-58.584z" fill="url(#SVGID_00000158028371689853768700000017468543084183342267_)"/></g><g><path d="m314.77 24.873h-58.77-58.77c-56.86 0-98.86 53.01-85.85 108.37l1.17 4.99 67.18 285.84c6.68 28.42 32.04 48.51 61.24 48.51h30.06c29.2 0 54.56-20.09 61.24-48.51l67.18-285.84 1.17-4.99c13.01-55.36-28.99-108.37-85.85-108.37z" fill="url(#SVGID_00000173120704454591758190000001679333404755035066_)"/><path d="m314.77 24.873h-58.77-46.96v438.993c9.432 5.561 20.377 8.717 31.93 8.717h30.06c29.2 0 54.56-20.09 61.24-48.51l67.18-285.84 1.17-4.99c13.01-55.36-28.99-108.37-85.85-108.37z" fill="url(#SVGID_00000166635426665371988860000010370953447653795004_)"/><path d="m314.77 24.873h-58.77-58.77c-56.86 0-98.86 53.01-85.85 108.37l1.17 4.99 35.743 152.079h215.415l35.743-152.079 1.17-4.99c13.009-55.36-28.991-108.37-85.851-108.37z" fill="url(#SVGID_00000137850188970476978660000010085562155348691629_)"/><path d="m155.812 322.304 23.919 101.768c6.68 28.423 32.039 48.513 61.237 48.513h30.065c29.197 0 54.556-20.09 61.237-48.513l23.919-101.768z" fill="url(#SVGID_00000113335173191564806040000010254190107808424832_)"/><path d="m329.444 433.004-44.893-44.893-56.61 31.756 52.066 52.066c22.235-3.193 41.123-18.08 49.437-38.929z" fill="url(#SVGID_00000111153580442478513470000014875112466436584122_)"/><path d="m273.955 426.3 5.195-2.819c7.177-3.894 11.646-11.404 11.646-19.569v-.347c0-12.296-9.968-22.264-22.264-22.264h-25.063c-12.296 0-22.264 9.968-22.264 22.264v.347c0 8.165 4.47 15.675 11.646 19.569l5.195 2.819c11.198 6.076 24.71 6.076 35.909 0z" fill="url(#SVGID_00000104690581473707008220000006144892297217909121_)"/></g><g><path d="m186.529 282.124c-14.681 0-26.582-11.901-26.582-26.582v-13.632c0-14.681 11.901-26.582 26.582-26.582 14.681 0 26.582 11.901 26.582 26.582v13.632c0 14.681-11.901 26.582-26.582 26.582z" fill="url(#SVGID_00000050638408040043650410000004212927245801798582_)"/><path d="m325.471 282.124c-14.681 0-26.582-11.901-26.582-26.582v-13.632c0-14.681 11.901-26.582 26.582-26.582 14.681 0 26.582 11.901 26.582 26.582v13.632c0 14.681-11.901 26.582-26.582 26.582z" fill="url(#SVGID_00000179621763337835062260000017871087634749013657_)"/></g><g><path d="m370.383 30.29c-3.489 0-6.9.329-10.218.927-7.571-13.089-21.712-21.903-37.921-21.903-9.395 0-18.092 2.969-25.224 8.005-10.405-10.676-24.934-17.315-41.02-17.315s-30.615 6.639-41.021 17.315c-7.132-5.037-15.829-8.005-25.224-8.005-16.209 0-30.35 8.814-37.921 21.903-3.317-.598-6.728-.927-10.218-.927-31.641 0-57.292 25.65-57.292 57.292s25.65 57.292 57.292 57.292c3.489 0 6.9-.329 10.218-.927 7.571 13.089 21.712 21.903 37.921 21.903 8.878 0 17.133-2.65 24.033-7.19 10.472 11.408 25.505 18.563 42.211 18.563s31.739-7.155 42.211-18.563c6.9 4.541 15.156 7.19 24.033 7.19 16.209 0 30.35-8.814 37.921-21.903 3.317.598 6.728.927 10.218.927 31.641 0 57.292-25.65 57.292-57.292s-25.649-57.292-57.291-57.292z" fill="url(#SVGID_00000182513764430429438410000005264896142189294997_)"/><path d="m313.29 57.3c0 31.64-25.65 57.29-57.29 57.29-18.69 0-35.28-8.95-45.74-22.79 13.85-7.35 23.28-21.92 23.28-38.7 0-14.79-7.33-27.87-18.56-35.8 10.4-10.67 24.94-17.3 41.02-17.3 31.64 0 57.29 25.65 57.29 57.3z" fill="url(#SVGID_00000088115834205190210260000001675000938073419403_)"/><circle cx="189.755" cy="122.061" fill="url(#SVGID_00000112592009128005619970000015546739547063244204_)" r="43.789"/><path d="m198.28 79.1c-2.75-.54-5.6-.83-8.52-.83-24.19 0-43.79 19.61-43.79 43.79 0 7.98 2.13 15.46 5.86 21.91-3.31.59-6.72.9-10.21.9-31.64 0-57.3-25.65-57.3-57.29s25.66-57.29 57.3-57.29c28.76 0 52.57 21.19 56.66 48.81z" fill="url(#SVGID_00000031897527808210082260000016804705881357652393_)"/><path d="m313.29 119.93c0 31.64-25.65 57.29-57.29 57.29-16.7 0-31.73-7.15-42.21-18.55 11.9-7.83 19.75-21.3 19.75-36.61 0-16.31-8.92-30.54-22.14-38.08 10.5-13.02 26.58-21.34 44.6-21.34 31.64 0 57.29 25.65 57.29 57.29z" fill="url(#SVGID_00000165202405278211919250000012126904744207588736_)"/><path d="m366.03 122.06c0 24.18-19.6 43.79-43.79 43.79-8.87 0-17.13-2.64-24.03-7.18 9.36-10.2 15.08-23.8 15.08-38.74 0-13.62-4.75-26.12-12.69-35.95 6.38-3.63 13.77-5.71 21.64-5.71 24.19 0 43.79 19.61 43.79 43.79z" fill="url(#SVGID_00000167358718629671111260000017287201972904402080_)"/><path d="m427.68 87.58c0 31.64-25.66 57.29-57.3 57.29-3.49 0-6.9-.31-10.21-.9 3.73-6.45 5.86-13.93 5.86-21.91 0-24.18-19.6-43.79-43.79-43.79-2.92 0-5.77.29-8.52.83 4.09-27.62 27.9-48.81 56.66-48.81 31.64 0 57.3 25.65 57.3 57.29z" fill="url(#SVGID_00000035500859778723774380000003283459055755213482_)"/><path d="m427.68 87.58c0 31.64-25.66 57.29-57.3 57.29-3.49 0-6.9-.31-10.21-.9 3.73-6.45 5.86-13.93 5.86-21.91 0-24.18-19.6-43.79-43.79-43.79-2.92 0-5.77.29-8.52.83 4.09-27.62 27.9-48.81 56.66-48.81 31.64 0 57.3 25.65 57.3 57.29z" fill="url(#SVGID_00000088111751558874369760000002226592962588974009_)"/><path d="m313.09 87.58c0 2.88.21 5.72.63 8.48-20.1-3.97-35.26-21.69-35.26-42.96 0-24.18 19.6-43.79 43.78-43.79 16.21 0 30.35 8.8 37.93 21.88-26.77 4.82-47.08 28.24-47.08 56.39z" fill="url(#SVGID_00000063605286573791856090000008493820398513772692_)"/></g></g></svg>