<svg id="Capa_1" enable-background="new 0 0 512 512" height="512" viewBox="0 0 512 512" width="512" xmlns="http://www.w3.org/2000/svg" xmlns:xlink="http://www.w3.org/1999/xlink"><linearGradient id="lg1"><stop offset="0" stop-color="#ffbf51"/><stop offset="1" stop-color="#c5715a"/></linearGradient><linearGradient id="SVGID_1_" gradientUnits="userSpaceOnUse" x1="119.149" x2="411.686" xlink:href="#lg1" y1="121.37" y2="425.207"/><linearGradient id="lg2"><stop offset="0" stop-color="#883f2e" stop-opacity="0"/><stop offset=".2979" stop-color="#8b402e" stop-opacity=".298"/><stop offset=".536" stop-color="#954430" stop-opacity=".536"/><stop offset=".7533" stop-color="#a64b34" stop-opacity=".753"/><stop offset=".9572" stop-color="#be5539" stop-opacity=".957"/><stop offset="1" stop-color="#c4573a"/></linearGradient><linearGradient id="SVGID_00000075843228742763413820000006601520848708082084_" gradientUnits="userSpaceOnUse" x1="110.886" x2="33.421" xlink:href="#lg2" y1="187.691" y2="76.483"/><linearGradient id="SVGID_00000181081795840364202750000016482142351450161793_" gradientUnits="userSpaceOnUse" x1="365.398" x2="497.992" xlink:href="#lg2" y1="214.021" y2="169.111"/><linearGradient id="SVGID_00000107552381529570980610000000918513066130371495_" gradientUnits="userSpaceOnUse" x1="346.284" x2="245.769" xlink:href="#lg2" y1="120.655" y2="71.467"/><linearGradient id="SVGID_00000145038556604996614970000008933023400953033626_" gradientUnits="userSpaceOnUse" x1="149.112" x2="284.914" xlink:href="#lg2" y1="129.292" y2="42.678"/><linearGradient id="SVGID_00000018951330014345607370000004399702831037990830_" gradientUnits="userSpaceOnUse" x1="391.789" x2="263.275" xlink:href="#lg2" y1="132.115" y2="69.226"/><linearGradient id="SVGID_00000180369094002652457540000008799366718358740376_" gradientUnits="userSpaceOnUse" x1="98.248" x2="269.92" xlink:href="#lg2" y1="147.67" y2="38.178"/><linearGradient id="SVGID_00000162324381621185283660000003868294563527329408_" gradientUnits="userSpaceOnUse" x1="256" x2="256" xlink:href="#lg2" y1="288.7" y2="430.108"/><linearGradient id="lg3"><stop offset="0" stop-color="#5a5a5a"/><stop offset="1" stop-color="#444"/></linearGradient><linearGradient id="SVGID_00000091005631767604847610000005159198462382958229_" gradientUnits="userSpaceOnUse" x1="400.599" x2="400.599" xlink:href="#lg3" y1="225.596" y2="238.605"/><linearGradient id="SVGID_00000152258529005070226130000008915818045317484432_" gradientUnits="userSpaceOnUse" x1="111.402" x2="111.402" xlink:href="#lg3" y1="225.596" y2="238.605"/><linearGradient id="SVGID_00000016790192428292255670000002084990374162118078_" gradientUnits="userSpaceOnUse" x1="363.503" x2="420.176" xlink:href="#lg2" y1="254.519" y2="187.153"/><linearGradient id="SVGID_00000117674463132258128530000014920640222497850527_" gradientUnits="userSpaceOnUse" x1="160.669" x2="76.194" xlink:href="#lg2" y1="268.079" y2="147.247"/><linearGradient id="SVGID_00000045599152584552429840000009706600987694569376_" gradientUnits="userSpaceOnUse" x1="233.849" x2="243.354" xlink:href="#lg1" y1="167.527" y2="215.527"/><linearGradient id="SVGID_00000129192563201188468570000012322358041448435635_" gradientUnits="userSpaceOnUse" x1="226.015" x2="253.816" xlink:href="#lg1" y1="182.262" y2="320.203"/><linearGradient id="SVGID_00000048473255996868796860000015455052568939566014_" gradientUnits="userSpaceOnUse" x1="226.963" x2="269.735" xlink:href="#lg1" y1="244.76" y2="499.255"/><linearGradient id="lg4"><stop offset="0" stop-color="#433f43" stop-opacity="0"/><stop offset=".2995" stop-color="#3e3b3e" stop-opacity=".3"/><stop offset=".6425" stop-color="#302e30" stop-opacity=".643"/><stop offset="1" stop-color="#1a1a1a"/></linearGradient><linearGradient id="SVGID_00000137110706107713701680000005735302574480396448_" gradientUnits="userSpaceOnUse" x1="151.944" x2="288.815" xlink:href="#lg4" y1="-87.314" y2="576.726"/><linearGradient id="SVGID_00000062879936938322354780000002778739172958681252_" gradientUnits="userSpaceOnUse" x1="290.812" x2="449.069" xlink:href="#lg4" y1="364.676" y2="421.349"/><linearGradient id="SVGID_00000070115587317825105390000008298555788842452142_" gradientUnits="userSpaceOnUse" x1="324.293" x2="249.679" xlink:href="#lg4" y1="299.026" y2="200.174"/><linearGradient id="SVGID_00000047022292935394074820000003901489666256897723_" gradientUnits="userSpaceOnUse" x1="248.251" x2="267.498" xlink:href="#lg3" y1="226.964" y2="269.736"/><linearGradient id="SVGID_00000114787117523351243420000007763439519012711320_" gradientUnits="userSpaceOnUse" x1="480.717" x2="443.647" xlink:href="#lg2" y1="193.839" y2="123.027"/><linearGradient id="SVGID_00000138564259051554257270000000183884098764320668_" gradientUnits="userSpaceOnUse" x1="441.566" x2="413.764" xlink:href="#lg1" y1="46.865" y2="129.558"/><linearGradient id="SVGID_00000003075412264001661300000004272969806252120484_" gradientUnits="userSpaceOnUse" x1="57.808" x2="114.125" xlink:href="#lg1" y1="50.657" y2="119.092"/><linearGradient id="SVGID_00000083046409590452140740000003287843001647087530_" gradientUnits="userSpaceOnUse" x1="256.003" x2="256.003" xlink:href="#lg4" y1="568.146" y2="425.527"/><g><path d="m508.991 282.718-21.644-110.088c-19.154-97.423-104.565-167.677-203.853-167.677h-54.988c-99.288 0-184.699 70.254-203.853 167.677l-21.644 110.088c-19.126 97.281 55.341 187.814 154.485 187.814h197.012c99.144 0 173.611-90.533 154.485-187.814z" fill="url(#SVGID_1_)"/><path d="m488.481 395.81-361.458-361.458-83.243 83.244c-8.761 17.019-15.282 35.478-19.127 55.034l-21.644 110.088c-19.126 97.281 55.341 187.814 154.485 187.814h197.012c57.375 0 106.485-30.321 133.975-74.722z" fill="url(#SVGID_00000075843228742763413820000006601520848708082084_)"/><path d="m487.347 172.63c-19.154-97.423-104.565-167.677-203.853-167.677h-54.988c-7.385 0-14.691.398-21.9 1.157v464.421h147.9c99.143 0 173.611-90.533 154.485-187.814z" fill="url(#SVGID_00000181081795840364202750000016482142351450161793_)"/><g><circle cx="359.442" cy="127.094" fill="url(#SVGID_00000107552381529570980610000000918513066130371495_)" r="83.283"/><circle cx="152.558" cy="127.094" fill="url(#SVGID_00000145038556604996614970000008933023400953033626_)" r="83.283"/></g><g><path d="m494.238 207.679-6.891-35.049c-7.814-39.746-26.659-74.966-52.973-102.742-78.888 3.736-140.361 33.67-140.361 70.047 0 38.904 70.309 70.442 157.04 70.442 14.978 0 29.465-.941 43.185-2.698z" fill="url(#SVGID_00000018951330014345607370000004399702831037990830_)"/><path d="m24.653 172.63-6.891 35.049c13.72 1.756 28.207 2.698 43.184 2.698 86.731 0 157.04-31.538 157.04-70.442 0-36.377-61.472-66.31-140.361-70.047-26.312 27.776-45.158 62.997-52.972 102.742z" fill="url(#SVGID_00000180369094002652457540000008799366718358740376_)"/></g><path d="m3.009 282.718c-19.126 97.281 55.341 187.814 154.485 187.814h197.012c99.143 0 173.611-90.533 154.485-187.814l-21.108-107.364h-463.765z" fill="url(#SVGID_00000162324381621185283660000003868294563527329408_)"/><g><g><path d="m421.599 242.172h-42c-4.143 0-7.5-3.358-7.5-7.5s3.357-7.5 7.5-7.5h42c4.143 0 7.5 3.358 7.5 7.5s-3.358 7.5-7.5 7.5z" fill="url(#SVGID_00000091005631767604847610000005159198462382958229_)"/></g><g><path d="m132.402 242.172h-42.001c-4.142 0-7.5-3.358-7.5-7.5s3.358-7.5 7.5-7.5h42.001c4.142 0 7.5 3.358 7.5 7.5s-3.357 7.5-7.5 7.5z" fill="url(#SVGID_00000152258529005070226130000008915818045317484432_)"/></g></g><g><circle cx="347.571" cy="273.458" fill="url(#SVGID_00000016790192428292255670000002084990374162118078_)" r="98.104"/><circle cx="164.429" cy="273.458" fill="url(#SVGID_00000117674463132258128530000014920640222497850527_)" r="98.104"/></g><path d="m378.892 259.231-2.079-7.854c-14.583-55.091-64.7-93.491-122.019-93.491-57.32 0-107.437 38.4-122.02 93.491l-2.079 7.854c-9.322 26.43 8.65 52.237 39.518 64.432 17.494 6.911 37.241 5.294 53.57-4.016 19.205-10.949 42.814-10.949 62.02 0h.001c16.329 9.309 36.076 10.927 53.57 4.015 30.867-12.193 48.84-38.001 39.518-64.431z" fill="url(#SVGID_00000045599152584552429840000009706600987694569376_)"/><path d="m429.407 313.029-2.905-10.056c-20.377-70.538-90.407-119.704-170.502-119.704-80.095 0-150.126 49.166-170.502 119.703l-2.905 10.056c-13.026 33.84 12.088 66.883 55.22 82.497 24.445 8.849 52.038 6.778 74.856-5.141 26.836-14.018 59.826-14.019 86.662 0h.001c22.818 11.919 50.411 13.99 74.855 5.141 43.133-15.613 68.246-48.656 55.22-82.496z" fill="url(#SVGID_00000129192563201188468570000012322358041448435635_)"/><path d="m458.118 394.477-3.386-12.872c-23.751-90.285-105.376-153.214-198.732-153.214-93.356 0-174.981 62.93-198.732 153.214l-3.386 12.871c-15.182 43.314 14.089 85.608 64.363 105.593 28.492 11.326 60.654 8.675 87.249-6.581 31.28-17.943 69.731-17.943 101.011 0l.001.001c26.596 15.256 58.757 17.907 87.249 6.581 50.274-19.986 79.545-62.28 64.363-105.593z" fill="url(#SVGID_00000048473255996868796860000015455052568939566014_)"/><path d="m458.118 394.477-3.386-12.872c-23.751-90.285-105.376-153.214-198.732-153.214-93.356 0-174.981 62.93-198.732 153.214l-3.386 12.871c-15.182 43.314 14.089 85.608 64.363 105.593 28.492 11.326 60.654 8.675 87.249-6.581 31.28-17.943 69.731-17.943 101.011 0l.001.001c26.596 15.256 58.757 17.907 87.249 6.581 50.274-19.986 79.545-62.28 64.363-105.593z" fill="url(#SVGID_00000137110706107713701680000005735302574480396448_)"/><path d="m454.732 381.605c-23.751-90.285-105.376-153.214-198.732-153.214-6.515 0-12.971.318-19.356.918v252.585c23.576-4.577 48.406-.714 69.862 11.594l.001.001c26.596 15.256 58.757 17.907 87.249 6.58 50.274-19.985 79.545-62.279 64.363-105.592z" fill="url(#SVGID_00000062879936938322354780000002778739172958681252_)"/><path d="m458.118 394.477-3.386-12.872c-23.751-90.285-105.376-153.214-198.732-153.214-.39 0-.778.01-1.167.012l-40.597 40.597 212.529 212.529c28.995-22.371 42.791-54.421 31.353-87.052z" fill="url(#SVGID_00000070115587317825105390000008298555788842452142_)"/><path d="m283.061 278.199 7.83-4.248c10.817-5.869 17.553-17.188 17.553-29.494v-.523c0-18.533-15.024-33.556-33.556-33.556h-37.774c-18.533 0-33.556 15.024-33.556 33.556v.523c0 12.306 6.736 23.625 17.553 29.494l7.83 4.248c16.877 9.158 37.241 9.158 54.12 0z" fill="url(#SVGID_00000047022292935394074820000003901489666256897723_)"/><g><path d="m487.347 172.63c-3.764-19.144-10.096-37.232-18.579-53.95h-48.522v11.978l73.251 73.251z" fill="url(#SVGID_00000114787117523351243420000007763439519012711320_)"/><path d="m483.283 110.295 6.238-22.095c4.54-16.078-3.818-32.985-19.349-39.142l-55.195-21.882c-23.251-9.218-45.361 15.574-33.554 37.623l28.623 53.453c16.873 31.508 63.526 26.44 73.237-7.957z" fill="url(#SVGID_00000138564259051554257270000000183884098764320668_)"/><path d="m28.717 110.295-6.239-22.095c-4.54-16.078 3.818-32.985 19.349-39.142l55.195-21.882c23.251-9.218 45.361 15.574 33.554 37.623l-28.623 53.453c-16.872 31.508-63.525 26.44-73.236-7.957z" fill="url(#SVGID_00000003075412264001661300000004272969806252120484_)"/></g><g><path d="m304.609 472.287c-8.141-11.972-14.964-24.597-20.671-37.146-10.944-24.064-44.93-24.064-55.874 0-5.707 12.549-12.53 25.174-20.671 37.146-19.424 28.563-55.822 40.5-88.048 28.2 28.219 10.828 59.896 8.062 86.151-6.999 31.28-17.943 69.731-17.943 101.011 0l.001.001c26.257 15.062 57.936 17.827 86.156 6.997-32.229 12.303-68.631.367-88.055-28.199z" fill="url(#SVGID_00000083046409590452140740000003287843001647087530_)"/></g></g></svg>