<svg id="Capa_1" enable-background="new 0 0 512 512" height="512" viewBox="0 0 512 512" width="512" xmlns="http://www.w3.org/2000/svg" xmlns:xlink="http://www.w3.org/1999/xlink"><linearGradient id="lg1"><stop offset="0" stop-color="#fffaf8"/><stop offset="1" stop-color="#ffdfcf"/></linearGradient><linearGradient id="SVGID_1_" gradientUnits="userSpaceOnUse" x1="214.506" x2="334.981" xlink:href="#lg1" y1="95.412" y2="356.322"/><linearGradient id="lg2"><stop offset="0" stop-color="#f89580" stop-opacity="0"/><stop offset=".2599" stop-color="#f2917c" stop-opacity=".261"/><stop offset=".5954" stop-color="#e2856f" stop-opacity=".597"/><stop offset=".9709" stop-color="#c8725b" stop-opacity=".974"/><stop offset=".9972" stop-color="#c5715a"/></linearGradient><linearGradient id="SVGID_00000182518350848204374390000003736356363964683658_" gradientUnits="userSpaceOnUse" x1="349.257" x2="419.831" xlink:href="#lg2" y1="224.543" y2="218.127"/><linearGradient id="SVGID_00000140730797847036942580000016172199387824531359_" gradientUnits="userSpaceOnUse" x1="155.794" x2="110.884" xlink:href="#lg2" y1="237.457" y2="242.804"/><linearGradient id="SVGID_00000155835651878380218150000017181605067827770028_" gradientUnits="userSpaceOnUse" x1="256.001" x2="256.001" xlink:href="#lg2" y1="301.369" y2="373.521"/><linearGradient id="lg3"><stop offset="0" stop-color="#5a5a5a"/><stop offset="1" stop-color="#444"/></linearGradient><linearGradient id="SVGID_00000112629219772087291190000008073973205392630424_" gradientUnits="userSpaceOnUse" x1="343.202" x2="355.498" xlink:href="#lg3" y1="331.837" y2="356.429"/><linearGradient id="SVGID_00000084528693237436651580000004862228985029206707_" gradientUnits="userSpaceOnUse" x1="365.989" x2="399.732" xlink:href="#lg3" y1="158.8" y2="179.236"/><linearGradient id="lg4"><stop offset="0" stop-color="#433f43" stop-opacity="0"/><stop offset=".2995" stop-color="#3e3b3e" stop-opacity=".3"/><stop offset=".6425" stop-color="#302e30" stop-opacity=".643"/><stop offset="1" stop-color="#1a1a1a"/></linearGradient><linearGradient id="SVGID_00000016036607585208031990000006859809060685672594_" gradientUnits="userSpaceOnUse" x1="362.869" x2="387.463" xlink:href="#lg4" y1="175.758" y2="177.896"/><linearGradient id="SVGID_00000107588465859647528740000000623455157770824117_" gradientUnits="userSpaceOnUse" x1="321.886" x2="345.648" xlink:href="#lg3" y1="76.067" y2="119.314"/><linearGradient id="SVGID_00000015324721906160901590000002826182901767234945_" gradientUnits="userSpaceOnUse" x1="140.705" x2="170.229" xlink:href="#lg3" y1="125.374" y2="184.423"/><linearGradient id="SVGID_00000116214129225132751130000001689390972474005693_" gradientUnits="userSpaceOnUse" x1="180.882" x2="101.753" xlink:href="#lg4" y1="148.56" y2="175.293"/><linearGradient id="SVGID_00000178894955775403462840000011877076495942088847_" gradientUnits="userSpaceOnUse" x1="151.224" x2="187.223" xlink:href="#lg3" y1="232.122" y2="258.622"/><linearGradient id="SVGID_00000127757717199710511860000008190660442789865088_" gradientUnits="userSpaceOnUse" x1="325.203" x2="357.203" xlink:href="#lg3" y1="230.571" y2="254.57"/><linearGradient id="SVGID_00000018942885926084791070000016178127855489201565_" gradientUnits="userSpaceOnUse" x1="258.084" x2="255.946" xlink:href="#lg1" y1="398.941" y2="432.089"/><linearGradient id="SVGID_00000129902129616826682730000003489617490391289007_" gradientUnits="userSpaceOnUse" x1="258.555" x2="271.387" xlink:href="#lg2" y1="406.284" y2="449.056"/><linearGradient id="SVGID_00000177477647896272871010000012084999460160794287_" gradientUnits="userSpaceOnUse" x1="227.251" x2="282.854" xlink:href="#lg1" y1="320.653" y2="423.306"/><linearGradient id="SVGID_00000155117563906455943570000006068671924508024986_" gradientUnits="userSpaceOnUse" x1="301.819" x2="368.829" xlink:href="#lg2" y1="359.486" y2="379.446"/><linearGradient id="SVGID_00000161600251559869294940000003710837016609120946_" gradientUnits="userSpaceOnUse" x1="299.015" x2="251.49" xlink:href="#lg2" y1="381.154" y2="305.114"/><linearGradient id="SVGID_00000062882098824060474940000011779964974158369424_" gradientUnits="userSpaceOnUse" x1="249.475" x2="263.185" xlink:href="#lg3" y1="323.343" y2="350.761"/><linearGradient id="SVGID_00000054948362889869440160000006658543390367191738_" gradientUnits="userSpaceOnUse" x1="256.002" x2="256.002" xlink:href="#lg2" y1="382.14" y2="442.733"/><linearGradient id="SVGID_00000075862839516160528110000003049756686038319271_" gradientUnits="userSpaceOnUse" x1="47.703" x2="141.802" xlink:href="#lg3" y1="168.865" y2="243.716"/><linearGradient id="SVGID_00000003103432857646627860000017843497654138747287_" gradientUnits="userSpaceOnUse" x1="76.986" x2="134.729" xlink:href="#lg4" y1="205.58" y2="218.411"/><linearGradient id="SVGID_00000032647973652243980630000011973872952374954933_" gradientUnits="userSpaceOnUse" x1="378.936" x2="467.332" xlink:href="#lg3" y1="183.542" y2="265.522"/><linearGradient id="SVGID_00000160879385384086150590000006679451526678363312_" gradientUnits="userSpaceOnUse" x1="435.494" x2="477.553" xlink:href="#lg4" y1="236.569" y2="264.371"/><linearGradient id="SVGID_00000137842185788713820870000002042243563846076845_" gradientUnits="userSpaceOnUse" x1="445.654" x2="445.654" xlink:href="#lg4" y1="286.067" y2="336.014"/><g><g><path d="m356.292 71.929h-200.583c-44.07 0-77.183 43.473-68.676 90.191l21.031 115.583c12.246 67.295 66.867 115.817 130.358 115.817h35.156c63.491 0 118.112-48.522 130.358-115.817l21.031-115.583c8.508-46.717-24.596-90.191-68.675-90.191z" fill="url(#SVGID_1_)"/></g><path d="m356.292 71.929h-116.994v321.592h34.281c63.491 0 118.112-48.522 130.358-115.817l21.031-115.583c8.507-46.718-24.597-90.192-68.676-90.192z" fill="url(#SVGID_00000182518350848204374390000003736356363964683658_)"/><g><path d="m239.301 71.926v321.599h-.88c-63.49 0-118.11-48.53-130.359-115.82l-21.03-115.59c-8.51-46.71 24.61-90.19 68.68-90.19h83.589z" fill="url(#SVGID_00000140730797847036942580000016172199387824531359_)"/></g><path d="m98.748 226.503 9.316 51.201c12.246 67.295 66.867 115.817 130.358 115.817h35.156c63.491 0 118.112-48.522 130.358-115.817l9.316-51.201z" fill="url(#SVGID_00000155835651878380218150000017181605067827770028_)"/><path d="m383.202 331.102c-.769-.553-1.55-1.096-2.354-1.619-21.776-14.17-48.323-11.989-59.295 4.872-8.671 13.325-5.012 31.826 7.648 45.996 25.225-9.121 42.691-26.943 54.001-49.249z" fill="url(#SVGID_00000112629219772087291190000008073973205392630424_)"/><path d="m411.517 153.564c-.786-3.996-1.687-7.944-2.675-11.853-2.209-.399-4.481-.619-6.806-.619-21.025 0-38.069 17.044-38.069 38.069s17.044 38.069 38.069 38.069c7.671 0 14.806-2.277 20.783-6.18z" fill="url(#SVGID_00000084528693237436651580000004862228985029206707_)"/><path d="m411.517 153.564c-.786-3.996-1.687-7.944-2.675-11.853-2.209-.399-4.481-.619-6.806-.619-21.025 0-38.069 17.044-38.069 38.069s17.044 38.069 38.069 38.069c7.671 0 14.806-2.277 20.783-6.18z" fill="url(#SVGID_00000016036607585208031990000006859809060685672594_)"/><path d="m378.449 87.393c.964-3.72 1.293-7.486 1.052-11.226-4.504-1.99-9.703-6.237-24.208-6.237l-90.082 2c2.557 19.538 20.555 37.9 45.752 44.427 31.044 8.041 61.259-4.926 67.486-28.964z" fill="url(#SVGID_00000107588465859647528740000000623455157770824117_)"/><path d="m202.634 94.028c-17.774-7.917-37.186-4.537-50.977 6.501-5.617 4.496-12.82 6.677-19.995 6.141-5.937-.444-11.819.022-17.481 1.29-12.291 15.521-21.675 33.56-27.28 53.372.045.263.085.526.133.789l10.257 56.367c1.997 1.149 4.072 2.197 6.23 3.119 27.877 11.909 58.858 1.227 74.189-22.678 3.884-6.056 9.957-10.501 16.927-12.288 17.112-4.386 31.483-17.867 35.84-36.831 5.207-22.663-6.601-46.321-27.843-55.782z" fill="url(#SVGID_00000015324721906160901590000002826182901767234945_)"/><path d="m202.634 94.028c-17.774-7.917-37.186-4.537-50.977 6.501-5.617 4.496-12.82 6.677-19.995 6.141-5.937-.444-11.819.022-17.481 1.29-12.291 15.521-21.675 33.56-27.28 53.372.045.263.085.526.133.789l10.257 56.367c1.997 1.149 4.072 2.197 6.23 3.119 27.877 11.909 58.858 1.227 74.189-22.678 3.884-6.056 9.957-10.501 16.927-12.288 17.112-4.386 31.483-17.867 35.84-36.831 5.207-22.663-6.601-46.321-27.843-55.782z" fill="url(#SVGID_00000116214129225132751130000001689390972474005693_)"/><g><path d="m168.134 277.147c-14.32 0-25.928-11.608-25.928-25.928v-13.297c0-14.32 11.608-25.928 25.928-25.928 14.32 0 25.928 11.608 25.928 25.928v13.297c.001 14.319-11.608 25.928-25.928 25.928z" fill="url(#SVGID_00000178894955775403462840000011877076495942088847_)"/><path d="m343.87 277.147c-14.32 0-25.928-11.608-25.928-25.928v-13.297c0-14.32 11.608-25.928 25.928-25.928 14.32 0 25.928 11.608 25.928 25.928v13.297c0 14.319-11.608 25.928-25.928 25.928z" fill="url(#SVGID_00000127757717199710511860000008190660442789865088_)"/></g><g><path d="m266.083 442.071h-18.411c-14.617 0-25.973-12.732-24.308-27.254l6.531-56.96h53.966l6.531 56.96c1.664 14.521-9.692 27.254-24.309 27.254z" fill="url(#SVGID_00000018942885926084791070000016178127855489201565_)"/><path d="m266.083 442.071h-18.411c-14.617 0-25.973-12.732-24.308-27.254l6.531-56.96h53.966l6.531 56.96c1.664 14.521-9.692 27.254-24.309 27.254z" fill="url(#SVGID_00000129902129616826682730000003489617490391289007_)"/><path d="m367.582 359.917c-14.292-49.047-59.246-82.77-110.332-82.77h-2.495c-51.086 0-96.04 33.724-110.332 82.77-8.2 28.139 7.088 55.63 33.741 69.236 15.976 8.156 35.177 6.713 49.941-3.474 16.793-11.588 39.002-11.588 55.795 0h.001c14.764 10.187 33.965 11.63 49.941 3.474 26.652-13.606 41.939-41.097 33.74-69.236z" fill="url(#SVGID_00000177477647896272871010000012084999460160794287_)"/><path d="m367.582 359.917c-14.292-49.046-59.246-82.77-110.332-82.77h-2.495c-1.941 0-3.87.065-5.792.161v140.19c12.006-1.736 24.514.989 34.937 8.181h.001c14.764 10.187 33.965 11.63 49.941 3.474 26.652-13.606 41.939-41.097 33.74-69.236z" fill="url(#SVGID_00000155117563906455943570000006068671924508024986_)"/><path d="m363.287 400.909-77.632-77.632-56.279 29.535 81.578 81.578c7.816.149 15.679-1.558 22.886-5.238 12.985-6.627 23.259-16.555 29.447-28.243z" fill="url(#SVGID_00000161600251559869294940000003710837016609120946_)"/><path d="m273.515 358.409 5.067-2.749c7-3.798 11.36-11.124 11.36-19.088v-.338c0-11.994-9.723-21.717-21.717-21.717h-24.446c-11.994 0-21.717 9.723-21.717 21.717v.338c0 7.964 4.36 15.29 11.36 19.088l5.067 2.749c10.923 5.927 24.103 5.927 35.026 0z" fill="url(#SVGID_00000062882098824060474940000011779964974158369424_)"/><path d="m144.423 359.917c-8.2 28.139 7.088 55.63 33.741 69.236 15.976 8.156 35.177 6.713 49.941-3.474 16.793-11.588 39.002-11.588 55.795 0h.001c14.764 10.187 33.965 11.63 49.941 3.474 26.653-13.606 41.941-41.097 33.741-69.236-3.047-10.458-7.5-20.21-13.097-29.096h-196.966c-5.598 8.885-10.05 18.638-13.097 29.096z" fill="url(#SVGID_00000054948362889869440160000006658543390367191738_)"/></g><g><g><path d="m125.212 253.777c4.783 16.975 7.209 34.528 7.209 52.164 0 19.74-16.07 35.36-35.29 35.36-1.4 0-2.82-.08-4.25-.25-10.54-1.25-19.95-7.16-25.65-16.11l-56.53-88.74c-19.91-31.25-11.26-72.66 19.48-93.34l89.202-59.983.169 45.743c.044 12.055-.703 24.092-1.956 36.082-3.119 29.861-.551 60.089 7.616 89.074z" fill="url(#SVGID_00000075862839516160528110000003049756686038319271_)"/><path d="m125.212 253.777c4.783 16.975 7.209 34.528 7.209 52.164 0 19.74-16.07 35.36-35.29 35.36-1.4 0-2.82-.08-4.25-.25-10.54-1.25-19.95-7.16-25.65-16.11l-56.53-88.74c-19.91-31.25-11.26-72.66 19.48-93.34l89.202-59.983.169 45.743c.044 12.055-.703 24.092-1.956 36.082-3.119 29.861-.551 60.089 7.616 89.074z" fill="url(#SVGID_00000003103432857646627860000017843497654138747287_)"/></g><g><path d="m386.788 253.777c-4.783 16.975-7.209 34.528-7.209 52.164 0 19.74 16.07 35.36 35.29 35.36 1.4 0 2.82-.08 4.25-.25 10.54-1.25 19.95-7.16 25.65-16.11l56.53-88.74c19.91-31.25 11.26-72.66-19.48-93.34l-89.202-59.983-.169 45.743c-.044 12.055.703 24.092 1.956 36.082 3.119 29.861.551 60.089-7.616 89.074z" fill="url(#SVGID_00000032647973652243980630000011973872952374954933_)"/><path d="m386.788 253.777c-4.783 16.975-7.209 34.528-7.209 52.164 0 19.74 16.07 35.36 35.29 35.36 1.4 0 2.82-.08 4.25-.25 10.54-1.25 19.95-7.16 25.65-16.11l56.53-88.74c19.91-31.25 11.26-72.66-19.48-93.34l-89.202-59.983-.169 45.743c-.044 12.055.703 24.092 1.956 36.082 3.119 29.861.551 60.089-7.616 89.074z" fill="url(#SVGID_00000160879385384086150590000006679451526678363312_)"/><path d="m395.126 205.513c-1.109 16.283-3.885 32.459-8.338 48.265-4.783 16.975-7.209 34.527-7.209 52.164 0 19.74 16.07 35.36 35.29 35.36 1.4 0 2.82-.08 4.25-.25 10.54-1.25 19.95-7.16 25.65-16.11l56.53-88.74c6.098-9.572 9.505-20.098 10.43-30.688h-116.603z" fill="url(#SVGID_00000137842185788713820870000002042243563846076845_)"/></g></g></g></svg>