<svg id="Capa_1" enable-background="new 0 0 512 512" height="512" viewBox="0 0 512 512" width="512" xmlns="http://www.w3.org/2000/svg" xmlns:xlink="http://www.w3.org/1999/xlink"><linearGradient id="lg1"><stop offset="0" stop-color="#ffbf51"/><stop offset="1" stop-color="#c5715a"/></linearGradient><linearGradient id="SVGID_1_" gradientTransform="matrix(.94 .342 -.342 .94 -158.112 -54.355)" gradientUnits="userSpaceOnUse" x1="309.88" x2="381.022" xlink:href="#lg1" y1="-15.606" y2="118.58"/><linearGradient id="lg2"><stop offset="0" stop-color="#883f2e" stop-opacity="0"/><stop offset=".2979" stop-color="#8b402e" stop-opacity=".298"/><stop offset=".536" stop-color="#954430" stop-opacity=".536"/><stop offset=".7533" stop-color="#a64b34" stop-opacity=".753"/><stop offset=".9572" stop-color="#be5539" stop-opacity=".957"/><stop offset="1" stop-color="#c4573a"/></linearGradient><linearGradient id="SVGID_00000054988078071250101630000001497146704095327679_" gradientTransform="matrix(.94 .342 -.342 .94 -158.112 -54.355)" gradientUnits="userSpaceOnUse" x1="332.769" x2="362.845" xlink:href="#lg2" y1="57.932" y2="88.587"/><linearGradient id="SVGID_00000120520773378231801920000006596931998409461147_" gradientTransform="matrix(.94 .342 -.342 .94 -158.112 -54.355)" gradientUnits="userSpaceOnUse" x1="280.321" x2="255.45" xlink:href="#lg2" y1="77.831" y2="94.604"/><linearGradient id="lg3"><stop offset="0" stop-color="#ffdfcf"/><stop offset="1" stop-color="#fd8087"/></linearGradient><linearGradient id="SVGID_00000148649983900927541190000011457472908831012013_" gradientTransform="matrix(.94 .342 -.342 .94 -158.112 -54.355)" gradientUnits="userSpaceOnUse" x1="330.057" x2="332.949" xlink:href="#lg3" y1="20.299" y2="103.008"/><linearGradient id="lg4"><stop offset="0" stop-color="#fd4755" stop-opacity="0"/><stop offset=".2593" stop-color="#f74452" stop-opacity=".259"/><stop offset=".6276" stop-color="#e43b4c" stop-opacity=".628"/><stop offset="1" stop-color="#ca2e43"/></linearGradient><linearGradient id="SVGID_00000162339669279161721260000005074568669202301622_" gradientTransform="matrix(.94 .342 -.342 .94 -158.112 -54.355)" gradientUnits="userSpaceOnUse" x1="323.455" x2="357.002" xlink:href="#lg4" y1="44.808" y2="85.295"/><linearGradient id="SVGID_00000064319461280461737250000009876595216952339096_" gradientTransform="matrix(.94 .342 -.342 .94 -158.112 -54.355)" gradientUnits="userSpaceOnUse" x1="329.018" x2="342.899" xlink:href="#lg4" y1="33.86" y2="-.844"/><linearGradient id="SVGID_00000047022870695482309740000017714952909781547918_" gradientTransform="matrix(-.94 .342 .342 .94 1061.632 -54.355)" gradientUnits="userSpaceOnUse" x1="677.789" x2="748.931" xlink:href="#lg1" y1="-149.514" y2="-15.328"/><linearGradient id="SVGID_00000099639527256267413600000012046919560472329875_" gradientTransform="matrix(-.94 .342 .342 .94 1061.632 -54.355)" gradientUnits="userSpaceOnUse" x1="700.678" x2="730.755" xlink:href="#lg2" y1="-75.976" y2="-45.321"/><linearGradient id="SVGID_00000046333096952733518760000001975223337332723892_" gradientTransform="matrix(-.94 .342 .342 .94 1061.632 -54.355)" gradientUnits="userSpaceOnUse" x1="648.23" x2="623.359" xlink:href="#lg2" y1="-56.077" y2="-39.304"/><linearGradient id="SVGID_00000109748558476329920010000011141899201892533396_" gradientTransform="matrix(-.94 .342 .342 .94 1061.632 -54.355)" gradientUnits="userSpaceOnUse" x1="697.966" x2="700.858" xlink:href="#lg3" y1="-113.609" y2="-30.9"/><linearGradient id="SVGID_00000102509968644585200730000006970029634363130040_" gradientTransform="matrix(-.94 .342 .342 .94 1061.632 -54.355)" gradientUnits="userSpaceOnUse" x1="691.364" x2="724.911" xlink:href="#lg4" y1="-89.1" y2="-48.613"/><linearGradient id="SVGID_00000100345316144757802190000001472923287325319103_" gradientTransform="matrix(-.94 .342 .342 .94 1061.632 -54.355)" gradientUnits="userSpaceOnUse" x1="696.927" x2="710.808" xlink:href="#lg4" y1="-100.049" y2="-134.752"/><linearGradient id="lg5"><stop offset="0" stop-color="#fffaf8"/><stop offset="1" stop-color="#ffdfcf"/></linearGradient><linearGradient id="SVGID_00000079457470507088706160000016644152530272465043_" gradientUnits="userSpaceOnUse" x1="244.095" x2="277.244" xlink:href="#lg5" y1="322.456" y2="507.45"/><linearGradient id="lg6"><stop offset="0" stop-color="#f89580" stop-opacity="0"/><stop offset=".2599" stop-color="#f2917c" stop-opacity=".261"/><stop offset=".5954" stop-color="#e2856f" stop-opacity=".597"/><stop offset=".9709" stop-color="#c8725b" stop-opacity=".974"/><stop offset=".9972" stop-color="#c5715a"/></linearGradient><linearGradient id="SVGID_00000096045067272053268560000011458699948149940641_" gradientUnits="userSpaceOnUse" x1="256" x2="256" xlink:href="#lg6" y1="415.994" y2="519.1"/><linearGradient id="SVGID_00000130642316846969757860000008122686934612823175_" gradientUnits="userSpaceOnUse" x1="404.881" x2="488.289" xlink:href="#lg6" y1="436.981" y2="493.655"/><linearGradient id="SVGID_00000031890290443800276670000005648052501469916802_" gradientUnits="userSpaceOnUse" x1="402.799" x2="318.321" xlink:href="#lg6" y1="369.271" y2="398.143"/><linearGradient id="SVGID_00000043422606465942647530000010857632812796523657_" gradientUnits="userSpaceOnUse" x1="110.423" x2="441.916" xlink:href="#lg1" y1="208.215" y2="386.793"/><linearGradient id="SVGID_00000059291537420869610890000001144491164711335342_" gradientUnits="userSpaceOnUse" x1="327.219" x2="479.064" xlink:href="#lg2" y1="258.688" y2="204.152"/><linearGradient id="lg7"><stop offset="0" stop-color="#5a5a5a"/><stop offset="1" stop-color="#444"/></linearGradient><linearGradient id="SVGID_00000181049456586665615130000016835462700210637455_" gradientUnits="userSpaceOnUse" x1="142.059" x2="183.623" xlink:href="#lg7" y1="308.901" y2="339.497"/><linearGradient id="SVGID_00000064332175447643395900000012474083068831386796_" gradientUnits="userSpaceOnUse" x1="327.863" x2="364.809" xlink:href="#lg7" y1="307.11" y2="334.819"/><linearGradient id="SVGID_00000129890745584923812950000017632666208299386297_" gradientUnits="userSpaceOnUse" x1="222.1" x2="287.439" xlink:href="#lg5" y1="374.42" y2="495.047"/><linearGradient id="SVGID_00000030450029230579449020000008656998524600069295_" gradientUnits="userSpaceOnUse" x1="317.078" x2="414.981" xlink:href="#lg6" y1="414.816" y2="411.489"/><linearGradient id="SVGID_00000170982551016948676100000001373366492168905878_" gradientUnits="userSpaceOnUse" x1="256" x2="256" xlink:href="#lg6" y1="457.817" y2="520.092"/><linearGradient id="SVGID_00000173161787464702507060000010429340111215197322_" gradientUnits="userSpaceOnUse" x1="305.252" x2="250.004" xlink:href="#lg6" y1="443.395" y2="350.72"/><linearGradient id="SVGID_00000121279093198127979700000000367913025129413816_" gradientUnits="userSpaceOnUse" x1="248.315" x2="264.457" xlink:href="#lg7" y1="377.67" y2="409.955"/><linearGradient id="SVGID_00000093168386380061754320000018434632796334111166_" gradientUnits="userSpaceOnUse" x1="144.67" x2="185.168" xlink:href="#lg5" y1="225.762" y2="261.124"/><linearGradient id="SVGID_00000150799497925981447850000004506591521995223194_" gradientUnits="userSpaceOnUse" x1="331.501" x2="371.998" xlink:href="#lg5" y1="225.762" y2="261.124"/><g><g><g><path d="m72.16 17.645c4.464-11.037 16.785-16.782 28.109-13.107 61.442 19.937 125.407 81.445 146.081 141.516-65.893-21.843-134.063 9.954-159.681 74.461-32.724-54.444-38.731-142.984-14.509-202.87z" fill="url(#SVGID_1_)"/><path d="m163.569 38.776-105.868 49.367c-2.312 47.032 7.664 96.926 28.968 132.371 25.618-64.507 93.788-96.304 159.681-74.461-13.459-39.106-45.267-78.818-82.781-107.277z" fill="url(#SVGID_00000054988078071250101630000001497146704095327679_)"/><path d="m151.409 150.901-67.766-145.326c-5.054 2.357-9.25 6.552-11.482 12.071-24.223 59.885-18.216 148.425 14.508 202.868 12.809-32.254 36.258-56.331 64.74-69.613z" fill="url(#SVGID_00000120520773378231801920000006596931998409461147_)"/><path d="m115.944 47.481c-8.481-3.269-18.016 1.177-20.963 9.775-10.698 31.214-7.069 74.682 9.292 101.902 13.438-33.836 49.196-50.515 83.759-39.058-10.336-30.033-41.301-60.751-72.088-72.619z" fill="url(#SVGID_00000148649983900927541190000011457472908831012013_)"/><path d="m115.944 47.481c-8.481-3.269-18.016 1.177-20.963 9.775-10.698 31.214-7.069 74.682 9.292 101.902 13.438-33.836 49.196-50.515 83.759-39.058-10.336-30.033-41.301-60.751-72.088-72.619z" fill="url(#SVGID_00000162339669279161721260000005074568669202301622_)"/><path d="m115.944 47.481c-8.481-3.269-18.016 1.177-20.963 9.775-10.698 31.214-7.069 74.682 9.292 101.902 13.438-33.836 49.196-50.515 83.759-39.058-10.336-30.033-41.301-60.751-72.088-72.619z" fill="url(#SVGID_00000064319461280461737250000009876595216952339096_)"/></g><g><path d="m439.84 17.645c-4.464-11.037-16.785-16.782-28.109-13.108-61.443 19.938-125.407 81.446-146.081 141.517 65.893-21.843 134.063 9.954 159.681 74.461 32.724-54.444 38.731-142.984 14.509-202.87z" fill="url(#SVGID_00000047022870695482309740000017714952909781547918_)"/><path d="m348.431 38.776 105.868 49.367c2.312 47.032-7.664 96.926-28.968 132.371-25.618-64.507-93.788-96.304-159.681-74.461 13.459-39.106 45.267-78.818 82.781-107.277z" fill="url(#SVGID_00000099639527256267413600000012046919560472329875_)"/><path d="m360.591 150.901 67.766-145.326c5.054 2.357 9.25 6.552 11.482 12.071 24.222 59.886 18.215 148.425-14.509 202.869-12.808-32.255-36.257-56.332-64.739-69.614z" fill="url(#SVGID_00000046333096952733518760000001975223337332723892_)"/><path d="m396.056 47.481c8.481-3.269 18.016 1.177 20.963 9.775 10.698 31.214 7.069 74.682-9.292 101.902-13.438-33.836-49.196-50.515-83.759-39.058 10.336-30.033 41.301-60.751 72.088-72.619z" fill="url(#SVGID_00000109748558476329920010000011141899201892533396_)"/><path d="m396.056 47.481c8.481-3.269 18.016 1.177 20.963 9.775 10.698 31.214 7.069 74.682-9.292 101.902-13.438-33.836-49.196-50.515-83.759-39.058 10.336-30.033 41.301-60.751 72.088-72.619z" fill="url(#SVGID_00000102509968644585200730000006970029634363130040_)"/><path d="m396.056 47.481c8.481-3.269 18.016 1.177 20.963 9.775 10.698 31.214 7.069 74.682-9.292 101.902-13.438-33.836-49.196-50.515-83.759-39.058 10.336-30.033 41.301-60.751 72.088-72.619z" fill="url(#SVGID_00000100345316144757802190000001472923287325319103_)"/></g></g><path d="m508.906 388.893c-12.76 57.031-63.591 101.612-126.863 101.612h-252.086c-63.271 0-114.103-44.581-126.863-101.612h.01c20.173-55.729 73.091-92.852 132.359-92.852h241.074c59.267 0 112.186 37.123 132.359 92.852z" fill="url(#SVGID_00000079457470507088706160000016644152530272465043_)"/><path d="m508.906 388.893c-12.76 57.031-63.591 101.612-126.863 101.612h-252.086c-63.271 0-114.103-44.581-126.863-101.612h.01c20.173-55.729 73.091-92.852 132.359-92.852h241.074c59.267 0 112.186 37.123 132.359 92.852z" fill="url(#SVGID_00000096045067272053268560000011458699948149940641_)"/><path d="m508.896 388.893c-20.173-55.729-73.091-92.852-132.359-92.852h-115.26v194.464h120.766c63.271 0 114.103-44.581 126.863-101.612z" fill="url(#SVGID_00000130642316846969757860000008122686934612823175_)"/><path d="m508.896 388.893c-20.173-55.729-73.091-92.852-132.359-92.852h-115.26v194.464h120.766c63.271 0 114.103-44.581 126.863-101.612z" fill="url(#SVGID_00000031890290443800276670000005648052501469916802_)"/><path d="m205.588 352.416 50.412 41.546 50.412-41.546c45.946-37.865 112.281-37.865 158.227 0l44.258 36.474c4.052-18.106 4.277-37.463-.169-57.05l-15.665-69.018c-23.095-101.754-113.544-173.974-217.887-173.974h-38.353c-104.343 0-194.792 72.22-217.887 173.975l-15.665 69.018c-4.446 19.587-4.22 38.944-.169 57.05l44.258-36.474c45.947-37.866 112.282-37.866 158.228-.001z" fill="url(#SVGID_00000043422606465942647530000010857632812796523657_)"/><path d="m493.064 262.823c-23.096-101.755-113.545-173.975-217.888-173.975h-19.273v305.035l.096.079 50.412-41.546c45.946-37.865 112.281-37.865 158.227 0l44.258 36.474c4.052-18.106 4.277-37.463-.169-57.05z" fill="url(#SVGID_00000059291537420869610890000001144491164711335342_)"/><g><path d="m161.583 360.886c-16.534 0-29.936-13.403-29.936-29.937v-15.352c0-16.534 13.403-29.937 29.936-29.937 16.533 0 29.937 13.403 29.937 29.937v15.352c0 16.534-13.403 29.937-29.937 29.937z" fill="url(#SVGID_00000181049456586665615130000016835462700210637455_)"/><path d="m349.415 360.886c-16.534 0-29.936-13.403-29.936-29.937v-15.352c0-16.534 13.403-29.937 29.936-29.937 16.534 0 29.936 13.403 29.936 29.937v15.352c.001 16.534-13.402 29.937-29.936 29.937z" fill="url(#SVGID_00000064332175447643395900000012474083068831386796_)"/></g><g><path d="m387.385 420.736c-16.829-57.753-69.762-97.462-129.916-97.462h-2.938c-60.154 0-113.087 39.71-129.916 97.462-6.552 22.484-.369 44.616 14.089 61.527 21.458 25.099 56.98 32.969 87.534 20.442l.357-.146c18.842-7.726 39.968-7.726 58.811 0l.358.147c30.553 12.527 66.076 4.658 87.534-20.442 14.456-16.912 20.639-39.044 14.087-61.528z" fill="url(#SVGID_00000129890745584923812950000017632666208299386297_)"/><path d="m387.385 420.735c-16.829-57.752-69.762-97.462-129.916-97.462h-2.938c-5.992 0-11.91.4-17.73 1.167v174.751c16.052-4.104 33.1-2.991 48.604 3.366l.358.147c30.553 12.527 66.076 4.658 87.534-20.442 14.457-16.91 20.64-39.043 14.088-61.527z" fill="url(#SVGID_00000030450029230579449020000008656998524600069295_)"/><path d="m124.615 420.736c-6.552 22.484-.369 44.616 14.089 61.527 21.458 25.099 56.98 32.969 87.534 20.442l.357-.146c18.842-7.726 39.969-7.726 58.811 0l.358.147c30.553 12.527 66.076 4.658 87.534-20.442 14.458-16.911 20.64-39.043 14.089-61.527v-.001c-2.474-8.49-5.734-16.587-9.677-24.229h-243.418c-3.943 7.641-7.203 15.738-9.677 24.229z" fill="url(#SVGID_00000170982551016948676100000001373366492168905878_)"/><path d="m289.234 375.561-64.495 36.896 95.934 95.934c19.953-1.325 39.088-10.293 52.625-26.127 3.587-4.195 6.662-8.713 9.162-13.476z" fill="url(#SVGID_00000173161787464702507060000010429340111215197322_)"/><path d="m276.622 418.96 5.967-3.237c8.243-4.473 13.376-13.098 13.376-22.476v-.399c0-14.123-11.449-25.572-25.572-25.572h-28.786c-14.123 0-25.572 11.449-25.572 25.572v.399c0 9.378 5.133 18.004 13.376 22.476l5.967 3.237c12.862 6.979 28.382 6.979 41.244 0z" fill="url(#SVGID_00000121279093198127979700000000367913025129413816_)"/></g><g><ellipse cx="162.585" cy="241.405" fill="url(#SVGID_00000093168386380061754320000018434632796334111166_)" rx="36.971" ry="20.018"/><ellipse cx="349.415" cy="241.405" fill="url(#SVGID_00000150799497925981447850000004506591521995223194_)" rx="36.971" ry="20.018"/></g></g></svg>