<svg id="Capa_1" enable-background="new 0 0 512 512" height="512" viewBox="0 0 512 512" width="512" xmlns="http://www.w3.org/2000/svg" xmlns:xlink="http://www.w3.org/1999/xlink"><linearGradient id="lg1"><stop offset="0" stop-color="#ffbf51"/><stop offset="1" stop-color="#c5715a"/></linearGradient><linearGradient id="SVGID_1_" gradientUnits="userSpaceOnUse" x1="85.009" x2="172.692" xlink:href="#lg1" y1="74.245" y2="239.631"/><linearGradient id="lg2"><stop offset="0" stop-color="#883f2e" stop-opacity="0"/><stop offset=".2979" stop-color="#8b402e" stop-opacity=".298"/><stop offset=".536" stop-color="#954430" stop-opacity=".536"/><stop offset=".7533" stop-color="#a64b34" stop-opacity=".753"/><stop offset=".9572" stop-color="#be5539" stop-opacity=".957"/><stop offset="1" stop-color="#c4573a"/></linearGradient><linearGradient id="SVGID_00000035521361043398002200000015342587748149278598_" gradientUnits="userSpaceOnUse" x1="113.221" x2="150.29" xlink:href="#lg2" y1="164.881" y2="202.663"/><linearGradient id="SVGID_00000152956979071117599750000011219834873436275633_" gradientUnits="userSpaceOnUse" x1="48.577" x2="17.924" xlink:href="#lg2" y1="189.406" y2="210.08"/><linearGradient id="lg3"><stop offset="0" stop-color="#ffdfcf"/><stop offset="1" stop-color="#fd8087"/></linearGradient><linearGradient id="SVGID_00000024691738028698410550000005080956524692990606_" gradientUnits="userSpaceOnUse" x1="117.548" x2="122.566" xlink:href="#lg3" y1="108.215" y2="251.729"/><linearGradient id="lg4"><stop offset="0" stop-color="#fd4755" stop-opacity="0"/><stop offset=".2593" stop-color="#f74452" stop-opacity=".259"/><stop offset=".6276" stop-color="#e43b4c" stop-opacity=".628"/><stop offset="1" stop-color="#ca2e43"/></linearGradient><linearGradient id="SVGID_00000095339411633429537320000017720267736014211251_" gradientUnits="userSpaceOnUse" x1="106.093" x2="164.302" xlink:href="#lg4" y1="150.742" y2="220.994"/><linearGradient id="SVGID_00000077290406062536840020000016849470394612325259_" gradientUnits="userSpaceOnUse" x1="115.745" x2="139.832" xlink:href="#lg4" y1="131.745" y2="71.529"/><linearGradient id="SVGID_00000018936732242864069120000007753258124048438712_" gradientTransform="matrix(-1 0 0 1 715.737 0)" gradientUnits="userSpaceOnUse" x1="288.746" x2="376.43" xlink:href="#lg1" y1="74.245" y2="239.631"/><linearGradient id="SVGID_00000116936498324912674900000009670192078749820317_" gradientTransform="matrix(-1 0 0 1 715.737 0)" gradientUnits="userSpaceOnUse" x1="316.958" x2="354.027" xlink:href="#lg2" y1="164.881" y2="202.663"/><linearGradient id="SVGID_00000040538460539067475970000012438220653065598092_" gradientUnits="userSpaceOnUse" x1="444.53" x2="486.589" xlink:href="#lg2" y1="179.692" y2="197.514"/><linearGradient id="SVGID_00000018933687384718008740000003928263120916213660_" gradientTransform="matrix(-1 0 0 1 715.737 0)" gradientUnits="userSpaceOnUse" x1="321.285" x2="326.303" xlink:href="#lg3" y1="108.215" y2="251.729"/><linearGradient id="SVGID_00000178896343745327896090000004778097034877073822_" gradientTransform="matrix(-1 0 0 1 715.737 0)" gradientUnits="userSpaceOnUse" x1="309.83" x2="368.039" xlink:href="#lg4" y1="150.742" y2="220.994"/><linearGradient id="SVGID_00000014598911362202759440000007216694905033161407_" gradientTransform="matrix(-1 0 0 1 715.737 0)" gradientUnits="userSpaceOnUse" x1="319.482" x2="343.569" xlink:href="#lg4" y1="131.745" y2="71.529"/><linearGradient id="lg5"><stop offset="0" stop-color="#fffaf8"/><stop offset="1" stop-color="#ffdfcf"/></linearGradient><linearGradient id="SVGID_00000155145279939005381020000002070509778960476548_" gradientUnits="userSpaceOnUse" x1="205.958" x2="327.544" xlink:href="#lg5" y1="215.951" y2="423.098"/><linearGradient id="lg6"><stop offset="0" stop-color="#f89580" stop-opacity="0"/><stop offset=".2599" stop-color="#f2917c" stop-opacity=".261"/><stop offset=".5954" stop-color="#e2856f" stop-opacity=".597"/><stop offset=".9709" stop-color="#c8725b" stop-opacity=".974"/><stop offset=".9972" stop-color="#c5715a"/></linearGradient><linearGradient id="SVGID_00000108272469014122625460000017146229325966170801_" gradientUnits="userSpaceOnUse" x1="256" x2="256" xlink:href="#lg6" y1="359.428" y2="407.45"/><linearGradient id="SVGID_00000114760995896788695210000009903902567122183871_" gradientUnits="userSpaceOnUse" x1="266.966" x2="445.23" xlink:href="#lg1" y1="187.647" y2="355.895"/><linearGradient id="SVGID_00000007424980505181871570000016184769701600747687_" gradientUnits="userSpaceOnUse" x1="351.723" x2="450.812" xlink:href="#lg2" y1="257.256" y2="270.8"/><linearGradient id="SVGID_00000132796102083302844040000003048694359059908226_" gradientUnits="userSpaceOnUse" x1="112.254" x2="262.476" xlink:href="#lg1" y1="196.328" y2="369.584"/><linearGradient id="lg7"><stop offset="0" stop-color="#5a5a5a"/><stop offset="1" stop-color="#444"/></linearGradient><linearGradient id="SVGID_00000086686828031463882780000015177972401881797789_" gradientUnits="userSpaceOnUse" x1="327.61" x2="364.451" xlink:href="#lg7" y1="299.992" y2="327.622"/><linearGradient id="SVGID_00000058558673032105248220000010925672129652049030_" gradientUnits="userSpaceOnUse" x1="141.409" x2="178.249" xlink:href="#lg7" y1="301.495" y2="329.125"/><linearGradient id="SVGID_00000055688814664827120460000000027072151261956754_" gradientUnits="userSpaceOnUse" x1="257.703" x2="255.956" xlink:href="#lg5" y1="424.112" y2="451.201"/><linearGradient id="SVGID_00000008107395203580159190000013361785297435450530_" gradientUnits="userSpaceOnUse" x1="258.088" x2="268.575" xlink:href="#lg6" y1="430.113" y2="465.067"/><linearGradient id="SVGID_00000062172874176199884290000015267822468235971503_" gradientUnits="userSpaceOnUse" x1="232.506" x2="277.946" xlink:href="#lg5" y1="360.134" y2="444.024"/><linearGradient id="SVGID_00000155853766441188223110000014006908912194064812_" gradientUnits="userSpaceOnUse" x1="293.445" x2="348.206" xlink:href="#lg6" y1="391.869" y2="408.181"/><linearGradient id="SVGID_00000101067611038735090210000016560754990914978727_" gradientUnits="userSpaceOnUse" x1="291.153" x2="252.315" xlink:href="#lg6" y1="409.576" y2="347.435"/><linearGradient id="SVGID_00000111151418701772150600000002995819843434102462_" gradientUnits="userSpaceOnUse" x1="250.668" x2="261.872" xlink:href="#lg7" y1="362.331" y2="384.739"/><linearGradient id="SVGID_00000162332751171223862980000009353597988838560187_" gradientUnits="userSpaceOnUse" x1="256.002" x2="256.002" xlink:href="#lg6" y1="410.381" y2="459.9"/><g><g><g><path d="m.127 79.799c.518-14.665 12.365-26.512 27.03-27.03 79.565-2.811 179.576 41.463 228.843 102.321-85.524 2.478-151.074 68.042-153.552 153.552-60.85-49.261-105.131-149.274-102.321-228.843z" fill="url(#SVGID_1_)"/><path d="m114.902 65.739-101.804 101.804c17.148 55.447 49.735 109.028 89.35 141.098 2.478-85.51 68.028-151.073 153.552-153.552-32.073-39.618-85.654-72.203-141.098-89.35z" fill="url(#SVGID_00000035521361043398002200000015342587748149278598_)"/><path d="m148.085 200.726-139.748-139.748c-4.86 4.86-7.951 11.488-8.21 18.82-2.81 79.57 41.471 179.582 102.322 228.843 1.238-42.756 18.246-80.525 45.636-107.915z" fill="url(#SVGID_00000152956979071117599750000011219834873436275633_)"/><g><path d="m52.134 76.397c-15.768-.298-28.677 12.611-28.379 28.379 1.081 57.244 32.795 125.966 75.626 160.639 1.83-63.146 50.236-111.562 113.392-113.392-34.677-42.835-103.397-74.545-160.639-75.626z" fill="url(#SVGID_00000024691738028698410550000005080956524692990606_)"/><path d="m52.134 76.397c-15.768-.298-28.677 12.611-28.379 28.379 1.081 57.244 32.795 125.966 75.626 160.639 1.83-63.146 50.236-111.562 113.392-113.392-34.677-42.835-103.397-74.545-160.639-75.626z" fill="url(#SVGID_00000095339411633429537320000017720267736014211251_)"/><path d="m52.134 76.397c-15.768-.298-28.677 12.611-28.379 28.379 1.081 57.244 32.795 125.966 75.626 160.639 1.83-63.146 50.236-111.562 113.392-113.392-34.677-42.835-103.397-74.545-160.639-75.626z" fill="url(#SVGID_00000077290406062536840020000016849470394612325259_)"/></g></g><g><path d="m511.873 79.799c-.518-14.665-12.365-26.512-27.03-27.03-79.565-2.811-179.576 41.463-228.843 102.321 85.524 2.478 151.074 68.042 153.552 153.552 60.85-49.261 105.131-149.274 102.321-228.843z" fill="url(#SVGID_00000018936732242864069120000007753258124048438712_)"/><path d="m397.098 65.739 101.804 101.804c-17.148 55.447-49.735 109.028-89.35 141.098-2.478-85.509-68.028-151.073-153.552-153.551 32.073-39.619 85.654-72.204 141.098-89.351z" fill="url(#SVGID_00000116936498324912674900000009670192078749820317_)"/><path d="m363.915 200.726 139.748-139.748c4.86 4.86 7.951 11.488 8.21 18.82 2.81 79.57-41.471 179.582-102.322 228.843-1.238-42.756-18.246-80.525-45.636-107.915z" fill="url(#SVGID_00000040538460539067475970000012438220653065598092_)"/><g><path d="m459.866 76.397c15.768-.298 28.677 12.611 28.379 28.379-1.081 57.244-32.795 125.966-75.626 160.639-1.83-63.146-50.236-111.562-113.392-113.392 34.677-42.835 103.397-74.545 160.639-75.626z" fill="url(#SVGID_00000018933687384718008740000003928263120916213660_)"/><path d="m459.866 76.397c15.768-.298 28.677 12.611 28.379 28.379-1.081 57.244-32.795 125.966-75.626 160.639-1.83-63.146-50.236-111.562-113.392-113.392 34.677-42.835 103.397-74.545 160.639-75.626z" fill="url(#SVGID_00000178896343745327896090000004778097034877073822_)"/><path d="m459.866 76.397c15.768-.298 28.677 12.611 28.379 28.379-1.081 57.244-32.795 125.966-75.626 160.639-1.83-63.146-50.236-111.562-113.392-113.392 34.677-42.835 103.397-74.545 160.639-75.626z" fill="url(#SVGID_00000014598911362202759440000007216694905033161407_)"/></g></g></g><path d="m398.069 218.992c-23.518-58.439-95.807-81.079-95.848-81.092-14.843-3.667-30.34-5.61-46.221-5.61-15.881 0-31.379 1.943-46.221 5.61-.041.013-72.33 22.653-95.848 81.092-23.524 58.454-40.49 59.612-40.491 59.612-9.774 63.001 40.915 121.116 108.615 121.116h147.891c67.7 0 118.389-58.115 108.615-121.116-.001 0-16.967-1.157-40.492-59.612z" fill="url(#SVGID_00000155145279939005381020000002070509778960476548_)"/><path d="m182.055 399.721h147.891c67.7 0 118.389-58.115 108.615-121.116h-365.121c-9.774 63 40.914 121.116 108.615 121.116z" fill="url(#SVGID_00000108272469014122625460000017146229325966170801_)"/><path d="m436.621 269.054c-16.489-65.396-69.09-115.017-134.4-131.154 10.951 8.385 28.535 25.773 25.747 49.472-4.006 34.05-54.324 85.023-16.877 154.338 11.39 21.083 29.55 28.541 49.308 28.712 47.1.407 84.132-41.144 78.693-87.931-.519-4.455-1.337-8.94-2.471-13.437z" fill="url(#SVGID_00000114760995896788695210000009903902567122183871_)"/><path d="m436.621 269.054c-16.489-65.396-69.09-115.017-134.4-131.154 10.951 8.385 28.535 25.773 25.747 49.472-4.006 34.05-54.324 85.023-16.877 154.338 11.39 21.083 29.55 28.541 49.308 28.712 47.1.407 84.132-41.144 78.693-87.931-.519-4.455-1.337-8.94-2.471-13.437z" fill="url(#SVGID_00000007424980505181871570000016184769701600747687_)"/><path d="m75.229 269.054c16.489-65.396 69.09-115.017 134.4-131.154-10.951 8.385-28.535 25.773-25.747 49.472 4.006 34.05 54.324 85.023 16.877 154.338-11.39 21.083-29.55 28.541-49.308 28.712-47.1.407-84.132-41.144-78.693-87.931.519-4.455 1.337-8.94 2.471-13.437z" fill="url(#SVGID_00000132796102083302844040000003048694359059908226_)"/><g><g><path d="m349.101 353.615c-16.486 0-29.851-13.365-29.851-29.851v-15.308c0-16.486 13.365-29.851 29.851-29.851 16.486 0 29.851 13.365 29.851 29.851v15.308c0 16.486-13.365 29.851-29.851 29.851z" fill="url(#SVGID_00000086686828031463882780000015177972401881797789_)"/></g><g><path d="m162.899 355.118c-16.486 0-29.851-13.365-29.851-29.851v-15.308c0-16.486 13.365-29.851 29.851-29.851 16.486 0 29.851 13.365 29.851 29.851v15.308c0 16.486-13.364 29.851-29.851 29.851z" fill="url(#SVGID_00000058558673032105248220000010925672129652049030_)"/></g></g><g><path d="m264.24 459.358h-15.046c-11.945 0-21.226-10.405-19.865-22.273l5.337-46.549h44.102l5.337 46.549c1.361 11.868-7.919 22.273-19.865 22.273z" fill="url(#SVGID_00000055688814664827120460000000027072151261956754_)"/><path d="m264.24 459.358h-15.046c-11.945 0-21.226-10.405-19.865-22.273l5.337-46.549h44.102l5.337 46.549c1.361 11.868-7.919 22.273-19.865 22.273z" fill="url(#SVGID_00000008107395203580159190000013361785297435450530_)"/><path d="m347.187 392.221c-11.68-40.082-48.417-67.642-90.166-67.642h-2.039c-41.749 0-78.486 27.56-90.166 67.642-6.701 22.996 5.792 45.462 27.574 56.581 13.056 6.665 28.748 5.486 40.813-2.839 13.724-9.47 31.873-9.47 45.597 0 12.065 8.325 27.757 9.504 40.813 2.839 21.782-11.119 34.275-33.585 27.574-56.581z" fill="url(#SVGID_00000062172874176199884290000015267822468235971503_)"/><path d="m347.187 392.22c-11.68-40.082-48.417-67.641-90.166-67.641h-2.039c-1.586 0-3.163.053-4.733.132v114.567c9.811-1.418 20.034.808 28.551 6.685 12.065 8.325 27.757 9.504 40.813 2.839 21.782-11.119 34.275-33.585 27.574-56.582z" fill="url(#SVGID_00000155853766441188223110000014006908912194064812_)"/><path d="m343.678 425.72-63.442-63.442-45.993 24.137 66.668 66.668c6.388.122 12.813-1.274 18.703-4.28 10.61-5.418 19.007-13.531 24.064-23.083z" fill="url(#SVGID_00000101067611038735090210000016560754990914978727_)"/><path d="m270.314 390.988 4.141-2.247c5.721-3.104 9.284-9.091 9.284-15.599v-.277c0-9.802-7.946-17.748-17.748-17.748h-19.978c-9.802 0-17.748 7.946-17.748 17.748v.277c0 6.509 3.563 12.495 9.284 15.599l4.141 2.247c8.927 4.844 19.697 4.844 28.624 0z" fill="url(#SVGID_00000111151418701772150600000002995819843434102462_)"/><path d="m164.817 392.221c-6.701 22.996 5.792 45.462 27.574 56.582 13.056 6.665 28.748 5.486 40.813-2.839 13.724-9.47 31.873-9.47 45.597 0 12.065 8.325 27.757 9.504 40.813 2.839 21.781-11.119 34.275-33.586 27.574-56.582-2.49-8.546-6.129-16.516-10.703-23.778h-160.965c-4.574 7.261-8.213 15.231-10.703 23.778z" fill="url(#SVGID_00000162332751171223862980000009353597988838560187_)"/></g></g></svg>