<svg id="Capa_1" enable-background="new 0 0 512 512" height="512" viewBox="0 0 512 512" width="512" xmlns="http://www.w3.org/2000/svg" xmlns:xlink="http://www.w3.org/1999/xlink"><linearGradient id="SVGID_1_" gradientUnits="userSpaceOnUse" x1="257.065" x2="270.116" y1="418.173" y2="440.259"><stop offset="0" stop-color="#fdb4ba"/><stop offset="1" stop-color="#fd8087"/></linearGradient><linearGradient id="lg1"><stop offset="0" stop-color="#fd4755" stop-opacity="0"/><stop offset=".2593" stop-color="#f74452" stop-opacity=".259"/><stop offset=".6276" stop-color="#e43b4c" stop-opacity=".628"/><stop offset="1" stop-color="#ca2e43"/></linearGradient><linearGradient id="SVGID_00000155125333247231248300000008940875522803425466_" gradientUnits="userSpaceOnUse" x1="256.897" x2="256.897" xlink:href="#lg1" y1="443.538" y2="408.426"/><linearGradient id="SVGID_00000065048480578645295270000010664296301340376492_" gradientUnits="userSpaceOnUse" x1="283.749" x2="259.655" xlink:href="#lg1" y1="435.505" y2="409.905"/><linearGradient id="lg2"><stop offset="0" stop-color="#fffaf8"/><stop offset="1" stop-color="#ffdfcf"/></linearGradient><linearGradient id="SVGID_00000083053354105954820450000013327739830729040024_" gradientUnits="userSpaceOnUse" x1="165.805" x2="368.261" xlink:href="#lg2" y1="128.375" y2="334.395"/><linearGradient id="lg3"><stop offset="0" stop-color="#f89580" stop-opacity="0"/><stop offset=".2599" stop-color="#f2917c" stop-opacity=".261"/><stop offset=".5954" stop-color="#e2856f" stop-opacity=".597"/><stop offset=".9709" stop-color="#c8725b" stop-opacity=".974"/><stop offset=".9972" stop-color="#c5715a"/></linearGradient><linearGradient id="SVGID_00000133513947484259866100000016181329009588693892_" gradientUnits="userSpaceOnUse" x1="340.377" x2="403.823" xlink:href="#lg3" y1="250.435" y2="268.97"/><linearGradient id="SVGID_00000159439668558130712000000018051123700644128684_" gradientUnits="userSpaceOnUse" x1="153.805" x2="84.3" xlink:href="#lg3" y1="247.224" y2="260.056"/><linearGradient id="SVGID_00000165931463153008389890000017857841903352220093_" gradientUnits="userSpaceOnUse" x1="47.703" x2="141.802" xlink:href="#lg2" y1="161.342" y2="236.193"/><linearGradient id="SVGID_00000017474527427807569470000011043206243724313996_" gradientUnits="userSpaceOnUse" x1="378.936" x2="467.332" xlink:href="#lg2" y1="176.019" y2="257.999"/><linearGradient id="SVGID_00000152229279991695272640000001314612933068733629_" gradientUnits="userSpaceOnUse" x1="99.656" x2="169.353" xlink:href="#lg3" y1="202.704" y2="225.128"/><linearGradient id="SVGID_00000171714256288906610260000001873374212934870204_" gradientUnits="userSpaceOnUse" x1="446.22" x2="489.25" xlink:href="#lg3" y1="233.262" y2="259.323"/><linearGradient id="SVGID_00000027589820520117238990000017518929856674780804_" gradientUnits="userSpaceOnUse" x1="445.654" x2="445.654" xlink:href="#lg3" y1="279.939" y2="342.258"/><linearGradient id="SVGID_00000149355016530952711620000004005145766828832413_" gradientUnits="userSpaceOnUse" x1="256.002" x2="256.002" xlink:href="#lg3" y1="374.617" y2="435.211"/><linearGradient id="SVGID_00000103965836882603373890000009388815195526621614_" gradientUnits="userSpaceOnUse" x1="256" x2="256" xlink:href="#lg3" y1="361.558" y2="446.266"/><linearGradient id="lg4"><stop offset="0" stop-color="#5a5a5a"/><stop offset="1" stop-color="#444"/></linearGradient><linearGradient id="SVGID_00000049901847462972433930000013958992820042013345_" gradientUnits="userSpaceOnUse" x1="151.224" x2="187.223" xlink:href="#lg4" y1="224.6" y2="251.099"/><linearGradient id="SVGID_00000158000877859634662400000000871668006098404785_" gradientUnits="userSpaceOnUse" x1="325.203" x2="357.203" xlink:href="#lg4" y1="223.048" y2="247.048"/><linearGradient id="SVGID_00000142886094774771277970000007188464041002767293_" gradientUnits="userSpaceOnUse" x1="299.015" x2="251.49" xlink:href="#lg3" y1="373.631" y2="297.592"/><linearGradient id="SVGID_00000159453322288042702530000014944140512341619353_" gradientUnits="userSpaceOnUse" x1="249.475" x2="263.185" xlink:href="#lg4" y1="315.82" y2="343.239"/><g><g><path d="m266.335 464.364h-18.875c-14.985 0-26.628-13.053-24.921-27.941l6.695-58.396h55.327l6.695 58.396c1.707 14.887-9.935 27.941-24.921 27.941z" fill="url(#SVGID_1_)"/><path d="m266.335 464.364h-18.875c-14.985 0-26.628-13.053-24.921-27.941l6.695-58.396h55.327l6.695 58.396c1.707 14.887-9.935 27.941-24.921 27.941z" fill="url(#SVGID_00000155125333247231248300000008940875522803425466_)"/><path d="m284.561 378.026h-28.561v86.337h10.335c14.985 0 26.628-13.053 24.921-27.941z" fill="url(#SVGID_00000065048480578645295270000010664296301340376492_)"/></g><path d="m391.581 74.685c-15.273-15.542-70.179-27.049-135.581-27.049-65.415 0-120.33 11.511-135.59 27.058-24.661 15.603-39.376 46.943-33.38 79.903l21.03 115.58c1.864 10.24 6.723 23.121 12.305 35.63 10.205 22.869 18.236 46.737 22.691 71.38 3.361 18.591 16.449 34.919 35.107 44.444 15.976 8.156 35.177 6.713 49.941-3.474 16.793-11.588 39.002-11.588 55.795 0l.075.05c15.121 10.081 34.621 11.452 50.703 2.99 17.848-9.391 30.448-25.058 34.06-42.918 4.948-24.467 12.058-48.432 22.321-71.187 5.821-12.908 10.953-26.324 12.881-36.915l21.03-115.58c6.005-32.967-8.715-64.312-33.388-79.912z" fill="url(#SVGID_00000083053354105954820450000013327739830729040024_)"/><path d="m391.581 74.685c-15.273-15.542-70.179-27.049-135.581-27.049-8.056 0-15.951.175-23.634.511v367.387c16.16-8.879 36.125-8.01 51.533 2.622l.075.05c15.121 10.081 34.621 11.452 50.703 2.99 17.848-9.391 30.448-25.058 34.06-42.918 4.948-24.467 12.059-48.432 22.321-71.187 5.821-12.907 10.953-26.324 12.881-36.915l21.03-115.58c6.005-32.966-8.715-64.311-33.388-79.911z" fill="url(#SVGID_00000133513947484259866100000016181329009588693892_)"/><path d="m120.41 74.69c13.38-13.63 57.26-24.15 111.96-26.54v367.38c-1.46.79-2.88 1.67-4.27 2.63-14.76 10.18-33.96 11.63-49.94 3.47-18.65-9.52-31.74-25.85-35.1-44.44-4.46-24.65-12.49-48.51-22.69-71.38-5.59-12.51-10.45-25.39-12.31-35.63l-21.03-115.58c-6-32.96 8.72-64.3 33.38-79.91z" fill="url(#SVGID_00000159439668558130712000000018051123700644128684_)"/><g><g><path d="m125.212 246.254c4.783 16.975 7.209 34.528 7.209 52.164 0 19.74-16.07 35.36-35.29 35.36-1.4 0-2.82-.08-4.25-.25-10.54-1.25-19.95-7.16-25.65-16.11l-56.53-88.74c-19.91-31.25-11.26-72.66 19.48-93.34l89.202-59.983.169 45.743c.044 12.055-.703 24.092-1.956 36.082-3.119 29.861-.551 60.089 7.616 89.074z" fill="url(#SVGID_00000165931463153008389890000017857841903352220093_)"/></g><g><path d="m386.788 246.254c-4.783 16.975-7.209 34.528-7.209 52.164 0 19.74 16.07 35.36 35.29 35.36 1.4 0 2.82-.08 4.25-.25 10.54-1.25 19.95-7.16 25.65-16.11l56.53-88.74c19.91-31.25 11.26-72.66-19.48-93.34l-89.202-59.983-.169 45.743c-.044 12.055.703 24.092 1.956 36.082 3.119 29.861.551 60.089-7.616 89.074z" fill="url(#SVGID_00000017474527427807569470000011043206243724313996_)"/></g></g><path d="m125.212 246.254c4.783 16.975 7.209 34.528 7.209 52.164 0 19.74-16.07 35.36-35.29 35.36-1.4 0-2.82-.08-4.25-.25-10.54-1.25-19.95-7.16-25.65-16.11l-56.53-88.74c-19.91-31.25-11.26-72.66 19.48-93.34l89.202-59.983.169 45.743c.044 12.055-.703 24.092-1.956 36.082-3.119 29.861-.551 60.089 7.616 89.074z" fill="url(#SVGID_00000152229279991695272640000001314612933068733629_)"/><path d="m386.788 246.254c-4.783 16.975-7.209 34.528-7.209 52.164 0 19.74 16.07 35.36 35.29 35.36 1.4 0 2.82-.08 4.25-.25 10.54-1.25 19.95-7.16 25.65-16.11l56.53-88.74c19.91-31.25 11.26-72.66-19.48-93.34l-89.202-59.983-.169 45.743c-.044 12.055.703 24.092 1.956 36.082 3.119 29.861.551 60.089-7.616 89.074z" fill="url(#SVGID_00000171714256288906610260000001873374212934870204_)"/><path d="m395.126 197.99c-1.109 16.283-3.885 32.459-8.338 48.265-4.783 16.975-7.209 34.527-7.209 52.164 0 19.74 16.07 35.36 35.29 35.36 1.4 0 2.82-.08 4.25-.25 10.54-1.25 19.95-7.16 25.65-16.11l56.53-88.74c6.098-9.572 9.505-20.098 10.43-30.688h-116.603z" fill="url(#SVGID_00000027589820520117238990000017518929856674780804_)"/><path d="m144.423 352.394c-8.2 28.139 7.088 55.63 33.741 69.236 15.976 8.156 35.177 6.713 49.941-3.474 16.793-11.588 39.002-11.588 55.795 0h.001c14.764 10.187 33.965 11.63 49.941 3.474 26.653-13.606 41.941-41.097 33.741-69.236-3.047-10.458-7.5-20.21-13.097-29.096h-196.966c-5.598 8.886-10.05 18.639-13.097 29.096z" fill="url(#SVGID_00000149355016530952711620000004005145766828832413_)"/><path d="m331.57 422.712c-1.24.56-2.49 1.05-3.75 1.48-5.17 1.81-10.55 2.7-15.93 2.7-9.83 0-19.62-2.96-27.99-8.74-8.4-5.79-18.14-8.68-27.9-8.68-9.75 0-19.5 2.89-27.9 8.68-12.94 8.94-29.3 11.14-43.91 6.04-1.27-.43-2.52-.92-3.76-1.48 8.37-.11 16.67-2.12 23.32-5.84 1.27-.71 2.49-1.45 3.64-2.22 41.13-27.26 48.61-80.87 48.61-80.87s7.48 53.61 48.61 80.87c1.15.77 2.37 1.51 3.64 2.22 6.65 3.72 14.95 5.73 23.32 5.84z" fill="url(#SVGID_00000103965836882603373890000009388815195526621614_)"/><g><path d="m168.134 269.624c-14.32 0-25.928-11.608-25.928-25.928v-13.296c0-14.32 11.608-25.928 25.928-25.928 14.32 0 25.928 11.608 25.928 25.928v13.297c.001 14.319-11.608 25.927-25.928 25.927z" fill="url(#SVGID_00000049901847462972433930000013958992820042013345_)"/><path d="m343.87 269.624c-14.32 0-25.928-11.608-25.928-25.928v-13.296c0-14.32 11.608-25.928 25.928-25.928 14.32 0 25.928 11.608 25.928 25.928v13.297c0 14.319-11.608 25.927-25.928 25.927z" fill="url(#SVGID_00000158000877859634662400000000871668006098404785_)"/></g><g><path d="m363.287 393.386-77.632-77.632-56.279 29.535 81.578 81.578c7.816.149 15.679-1.558 22.886-5.238 12.985-6.626 23.259-16.555 29.447-28.243z" fill="url(#SVGID_00000142886094774771277970000007188464041002767293_)"/><path d="m273.515 350.886 5.067-2.749c7-3.798 11.36-11.124 11.36-19.088v-.338c0-11.994-9.723-21.717-21.717-21.717h-24.446c-11.994 0-21.717 9.723-21.717 21.717v.338c0 7.964 4.36 15.29 11.36 19.088l5.067 2.749c10.923 5.927 24.103 5.927 35.026 0z" fill="url(#SVGID_00000159453322288042702530000014944140512341619353_)"/></g></g></svg>