<svg id="Capa_1" enable-background="new 0 0 512 512" height="512" viewBox="0 0 512 512" width="512" xmlns="http://www.w3.org/2000/svg" xmlns:xlink="http://www.w3.org/1999/xlink"><linearGradient id="SVGID_1_" gradientUnits="userSpaceOnUse" x1="144.922" x2="382.367" y1="138.884" y2="385.501"><stop offset="0" stop-color="#f89580"/><stop offset="1" stop-color="#c4573a"/></linearGradient><linearGradient id="lg1"><stop offset="0" stop-color="#c4573a" stop-opacity="0"/><stop offset=".2529" stop-color="#ba5338" stop-opacity=".253"/><stop offset=".6769" stop-color="#a04933" stop-opacity=".677"/><stop offset="1" stop-color="#883f2e"/></linearGradient><linearGradient id="SVGID_00000079465349022172467560000016664908898894624640_" gradientUnits="userSpaceOnUse" x1="307.715" x2="398.962" xlink:href="#lg1" y1="144.444" y2="166.543"/><linearGradient id="SVGID_00000081624619844007143850000000838666502444190108_" gradientUnits="userSpaceOnUse" x1="181.043" x2="100.489" xlink:href="#lg1" y1="146.948" y2="161.206"/><linearGradient id="SVGID_00000013909164194500955510000010271832047278622364_" gradientUnits="userSpaceOnUse" x1="256" x2="256" xlink:href="#lg1" y1="328.945" y2="403.498"/><linearGradient id="SVGID_00000029734342382006723660000010093197546142291872_" gradientUnits="userSpaceOnUse" x1="256" x2="256" xlink:href="#lg1" y1="404.866" y2="324.64"/><linearGradient id="SVGID_00000010992043198295297660000009980357945488441529_" gradientUnits="userSpaceOnUse" x1="390.504" x2="416.167" xlink:href="#lg1" y1="368.777" y2="391.233"/><linearGradient id="lg2"><stop offset="0" stop-color="#5a5a5a"/><stop offset="1" stop-color="#444"/></linearGradient><linearGradient id="SVGID_00000055683468225327572970000013384228111613054124_" gradientUnits="userSpaceOnUse" x1="203.756" x2="280.626" xlink:href="#lg2" y1="278.606" y2="288.084"/><linearGradient id="lg3"><stop offset="0" stop-color="#433f43" stop-opacity="0"/><stop offset=".2995" stop-color="#3e3b3e" stop-opacity=".3"/><stop offset=".6425" stop-color="#302e30" stop-opacity=".643"/><stop offset="1" stop-color="#1a1a1a"/></linearGradient><linearGradient id="SVGID_00000011004135247909896210000014071343849322147503_" gradientUnits="userSpaceOnUse" x1="256" x2="256" xlink:href="#lg3" y1="320.272" y2="408.796"/><linearGradient id="SVGID_00000014610181338760476790000000642975405557178501_" gradientUnits="userSpaceOnUse" x1="186.814" x2="166.441" xlink:href="#lg3" y1="209.16" y2="265.541"/><linearGradient id="SVGID_00000119837357998037963540000015560504351732135351_" gradientUnits="userSpaceOnUse" x1="324.925" x2="340.252" xlink:href="#lg3" y1="202.942" y2="256.051"/><linearGradient id="SVGID_00000069365778898513778420000010038258754302675621_" gradientUnits="userSpaceOnUse" x1="141.271" x2="199.014" xlink:href="#lg3" y1="143.576" y2="240.527"/><linearGradient id="SVGID_00000041259902735982533030000012544161201991328929_" gradientUnits="userSpaceOnUse" x1="290.996" x2="338.045" xlink:href="#lg3" y1="143.958" y2="228.789"/><linearGradient id="lg4"><stop offset="0" stop-color="#fffaf8"/><stop offset="1" stop-color="#ffdfcf"/></linearGradient><linearGradient id="SVGID_00000036966798144387148840000014909976494333795262_" gradientUnits="userSpaceOnUse" x1="189.574" x2="321.733" xlink:href="#lg4" y1="117.913" y2="191.973"/><linearGradient id="lg5"><stop offset="0" stop-color="#f89580" stop-opacity="0"/><stop offset=".2599" stop-color="#f2917c" stop-opacity=".261"/><stop offset=".5954" stop-color="#e2856f" stop-opacity=".597"/><stop offset=".9709" stop-color="#c8725b" stop-opacity=".974"/><stop offset=".9972" stop-color="#c5715a"/></linearGradient><linearGradient id="SVGID_00000060010374073154551610000001519927629328171653_" gradientUnits="userSpaceOnUse" x1="259.152" x2="264.142" xlink:href="#lg5" y1="149.838" y2="226.116"/><linearGradient id="SVGID_00000074433268857664333070000017660872188882734217_" gradientUnits="userSpaceOnUse" x1="47.703" x2="141.802" xlink:href="#lg2" y1="175.071" y2="249.923"/><linearGradient id="SVGID_00000124154666370764097140000008770888422690272652_" gradientUnits="userSpaceOnUse" x1="76.986" x2="134.729" xlink:href="#lg3" y1="211.786" y2="224.618"/><linearGradient id="SVGID_00000144310153831696744260000004474322617018700455_" gradientUnits="userSpaceOnUse" x1="378.936" x2="467.332" xlink:href="#lg2" y1="189.748" y2="271.728"/><linearGradient id="SVGID_00000002360607216980605290000000559143439955906957_" gradientUnits="userSpaceOnUse" x1="435.494" x2="477.553" xlink:href="#lg3" y1="242.775" y2="270.577"/><linearGradient id="SVGID_00000088812021060029972170000006428999275838318509_" gradientUnits="userSpaceOnUse" x1="445.654" x2="445.654" xlink:href="#lg3" y1="292.273" y2="342.22"/><linearGradient id="SVGID_00000008840818389935471940000002110248211341567389_" gradientUnits="userSpaceOnUse" x1="258.013" x2="290.058" xlink:href="#lg4" y1="395.967" y2="421.909"/><linearGradient id="SVGID_00000094606869497875822310000006828693678087397304_" gradientUnits="userSpaceOnUse" x1="278.141" x2="245.333" xlink:href="#lg5" y1="402.688" y2="392.769"/><linearGradient id="SVGID_00000016061958190624812600000002846287659638158237_" gradientUnits="userSpaceOnUse" x1="212.838" x2="268.535" xlink:href="#lg4" y1="342.751" y2="349.618"/><linearGradient id="SVGID_00000013158721454478572390000004950005193422698903_" gradientUnits="userSpaceOnUse" x1="279.743" x2="356.041" xlink:href="#lg5" y1="345.659" y2="364.733"/><linearGradient id="SVGID_00000138554142916337681340000005017842933633600695_" gradientUnits="userSpaceOnUse" x1="304.443" x2="271.294" xlink:href="#lg5" y1="328.533" y2="274.711"/><linearGradient id="SVGID_00000098188256987529990610000007263954270696904332_" gradientUnits="userSpaceOnUse" x1="255.999" x2="255.999" y1="403.797" y2="302.072"><stop offset="0" stop-color="#433f43" stop-opacity="0"/><stop offset=".3443" stop-color="#393639" stop-opacity=".344"/><stop offset=".9319" stop-color="#1e1d1e" stop-opacity=".932"/><stop offset="1" stop-color="#1a1a1a"/></linearGradient><linearGradient id="SVGID_00000069355526326856627490000010293494145802339766_" gradientUnits="userSpaceOnUse" x1="256" x2="256" xlink:href="#lg5" y1="415.324" y2="476.596"/><linearGradient id="SVGID_00000146464660621738148320000001584283003226433211_" gradientUnits="userSpaceOnUse" x1="241.34" x2="263.439" xlink:href="#lg2" y1="251.281" y2="291.201"/><g><path d="m456.423 270.919-17.147-91.471c-15.173-80.949-82.837-139.322-161.495-139.322h-43.562c-78.658 0-146.322 58.373-161.496 139.322l-17.147 91.471c-15.152 80.83 43.842 156.054 122.385 156.054h156.076c78.544 0 137.538-75.224 122.386-156.054z" fill="url(#SVGID_1_)"/><g><path d="m443.178 200.262-3.902-20.814c-15.173-80.949-82.837-139.322-161.495-139.322h-21.782v193.423h187.18v-33.287z" fill="url(#SVGID_00000079465349022172467560000016664908898894624640_)"/></g><path d="m256 40.127v193.42h-193.42l10.14-54.1c15.18-80.95 82.84-139.32 161.5-139.32z" fill="url(#SVGID_00000081624619844007143850000000838666502444190108_)"/><path d="m55.577 270.919c-15.152 80.83 43.842 156.054 122.385 156.054h156.076c78.543 0 137.537-75.224 122.385-156.054l-5.092-27.164h-390.662z" fill="url(#SVGID_00000013909164194500955510000010271832047278622364_)"/><path d="m55.577 270.919c-15.152 80.83 43.842 156.054 122.385 156.054h156.076c78.543 0 137.537-75.224 122.385-156.054l-5.092-27.164h-390.662z" fill="url(#SVGID_00000029734342382006723660000010093197546142291872_)"/><path d="m334.04 426.977h-80.73v-183.22h198.02l5.09 27.16c15.15 80.83-43.84 156.06-122.38 156.06z" fill="url(#SVGID_00000010992043198295297660000009980357945488441529_)"/><path d="m334.159 152.354c-49.202-24.601-107.115-24.601-156.317 0-64.784 35.219-98.01 147.244-81.142 219.027 5.775 24.576 24.342 44.233 48.637 51.097 10.358 2.926 21.288 4.494 32.626 4.494h65.769l12.268-45.306 12.269 45.307h65.769c11.338 0 22.268-1.568 32.626-4.494 24.295-6.863 42.862-26.52 48.637-51.097 16.867-71.783-16.359-183.808-81.142-219.028z" fill="url(#SVGID_00000055683468225327572970000013384228111613054124_)"/><path d="m96.699 371.382c5.775 24.576 24.342 44.233 48.637 51.097 10.358 2.926 21.288 4.495 32.626 4.495h65.769l12.269-45.308 12.269 45.307h65.769c11.338 0 22.268-1.568 32.626-4.494 24.295-6.864 42.862-26.52 48.637-51.097 5.055-21.512 5.606-46.639 2.162-72.229h-322.926c-3.444 25.59-2.893 50.717 2.162 72.229z" fill="url(#SVGID_00000011004135247909896210000014071343849322147503_)"/><g><g><path d="m205.944 207.076v16.452c0 18.207-11.321 33.597-25.754 34.096-12.25.423-22.688-9.639-26.081-23.587-1.294-5.32-.155-11.11 2.934-15.084l28.765-37.022c2.764-3.558 7.244-3.961 10.313-.825.719.734 1.406 1.515 2.058 2.337 4.804 6.058 7.765 14.406 7.765 23.633z" fill="url(#SVGID_00000014610181338760476790000000642975405557178501_)"/><path d="m357.892 234.036c-3.394 13.948-13.832 24.01-26.082 23.587-14.433-.499-25.754-15.889-25.754-34.096v-16.452c0-10.464 3.815-19.805 9.79-25.933 3.078-3.157 7.573-2.783 10.349.791l28.763 37.019c3.088 3.975 4.228 9.765 2.934 15.084z" fill="url(#SVGID_00000119837357998037963540000015560504351732135351_)"/></g><g><path d="m205.944 200.872v13.047c0 14.439-11.321 26.644-25.754 27.039-12.25.336-22.688-7.644-26.081-18.705-1.294-4.219-.155-8.811 2.934-11.963l28.765-29.36c2.764-2.822 7.244-3.141 10.313-.654.719.582 1.406 1.201 2.058 1.853 4.804 4.806 7.765 11.426 7.765 18.743z" fill="url(#SVGID_00000069365778898513778420000010038258754302675621_)"/><path d="m357.892 222.253c-3.394 11.062-13.832 19.041-26.082 18.705-14.433-.396-25.754-12.601-25.754-27.039v-13.047c0-8.299 3.815-15.706 9.79-20.566 3.078-2.504 7.573-2.207 10.349.627l28.763 29.358c3.088 3.152 4.228 7.744 2.934 11.962z" fill="url(#SVGID_00000041259902735982533030000012544161201991328929_)"/></g></g><path d="m299.76 129.427c-11.77 27.66-17.27 57.59-14.88 87.57.8 10.07 3.01 19.88 6.5 29.14h-70.75c3.49-9.27 5.7-19.08 6.5-29.16.36-4.6.54-9.19.54-13.78 0-25.32-5.46-50.35-15.43-73.77-3.96-9.28-6.21-19.05-6.21-27.81 0-27.6 22.37-49.98 49.97-49.98s49.97 22.38 49.97 49.98c0 8.75-2.25 18.53-6.21 27.81z" fill="url(#SVGID_00000036966798144387148840000014909976494333795262_)"/><path d="m299.76 129.427c-11.77 27.66-17.27 57.59-14.88 87.57.8 10.07 3.01 19.88 6.5 29.14h-70.75c3.49-9.27 5.7-19.08 6.5-29.16.36-4.6.54-9.19.54-13.78 0-25.32-5.46-50.35-15.43-73.77-3.96-9.28-6.21-19.05-6.21-27.81 0-27.6 22.37-49.98 49.97-49.98s49.97 22.38 49.97 49.98c0 8.75-2.25 18.53-6.21 27.81z" fill="url(#SVGID_00000060010374073154551610000001519927629328171653_)"/><g><g><path d="m125.212 259.984c4.783 16.975 7.209 34.528 7.209 52.164 0 19.74-16.07 35.36-35.29 35.36-1.4 0-2.82-.08-4.25-.25-10.54-1.25-19.95-7.16-25.65-16.11l-56.53-88.74c-19.91-31.25-11.26-72.66 19.48-93.34l89.202-59.983.169 45.743c.044 12.055-.703 24.092-1.956 36.082-3.119 29.86-.551 60.089 7.616 89.074z" fill="url(#SVGID_00000074433268857664333070000017660872188882734217_)"/><path d="m125.212 259.984c4.783 16.975 7.209 34.528 7.209 52.164 0 19.74-16.07 35.36-35.29 35.36-1.4 0-2.82-.08-4.25-.25-10.54-1.25-19.95-7.16-25.65-16.11l-56.53-88.74c-19.91-31.25-11.26-72.66 19.48-93.34l89.202-59.983.169 45.743c.044 12.055-.703 24.092-1.956 36.082-3.119 29.86-.551 60.089 7.616 89.074z" fill="url(#SVGID_00000124154666370764097140000008770888422690272652_)"/></g><g><path d="m386.788 259.984c-4.783 16.975-7.209 34.528-7.209 52.164 0 19.74 16.07 35.36 35.29 35.36 1.4 0 2.82-.08 4.25-.25 10.54-1.25 19.95-7.16 25.65-16.11l56.53-88.74c19.91-31.25 11.26-72.66-19.48-93.34l-89.202-59.983-.169 45.743c-.044 12.055.703 24.092 1.956 36.082 3.119 29.86.551 60.089-7.616 89.074z" fill="url(#SVGID_00000144310153831696744260000004474322617018700455_)"/><path d="m386.788 259.984c-4.783 16.975-7.209 34.528-7.209 52.164 0 19.74 16.07 35.36 35.29 35.36 1.4 0 2.82-.08 4.25-.25 10.54-1.25 19.95-7.16 25.65-16.11l56.53-88.74c19.91-31.25 11.26-72.66-19.48-93.34l-89.202-59.983-.169 45.743c-.044 12.055.703 24.092 1.956 36.082 3.119 29.86.551 60.089-7.616 89.074z" fill="url(#SVGID_00000002360607216980605290000000559143439955906957_)"/><path d="m395.126 211.719c-1.109 16.283-3.885 32.459-8.338 48.265-4.783 16.975-7.209 34.527-7.209 52.164 0 19.74 16.07 35.36 35.29 35.36 1.4 0 2.82-.08 4.25-.25 10.54-1.25 19.95-7.16 25.65-16.11l56.53-88.74c6.098-9.572 9.505-20.098 10.43-30.688h-116.603z" fill="url(#SVGID_00000088812021060029972170000006428999275838318509_)"/></g></g><g><path d="m265.823 443.202h-19.645c-15.597 0-27.714-13.586-25.937-29.081l6.968-60.777h57.583l6.968 60.777c1.776 15.495-10.341 29.081-25.937 29.081z" fill="url(#SVGID_00000008840818389935471940000002110248211341567389_)"/><path d="m265.823 443.202h-19.645c-15.597 0-27.714-13.586-25.937-29.081l6.968-60.777h57.583l6.968 60.777c1.776 15.495-10.341 29.081-25.937 29.081z" fill="url(#SVGID_00000094606869497875822310000006828693678087397304_)"/><g><path d="m312.769 232.55c47.054 25.581 71.187 79.473 58.936 131.611l-5.412 23.032c-3.853 16.39-11.994 41.368-23.079 64.352-14.49 30.039-58.586 25.847-67.297-6.363l-15.669-57.862c-1.174-4.335-7.323-4.335-8.497 0l-15.669 57.862c-8.711 32.21-52.806 36.402-67.297 6.363-11.085-22.984-19.225-47.962-23.079-64.352l-5.412-23.032c-12.251-52.138 11.882-106.03 58.936-131.611 35.401-19.245 78.139-19.245 113.539 0z" fill="url(#SVGID_00000016061958190624812600000002846287659638158237_)"/><path d="m312.769 232.55c-25.751-13.999-55.383-17.804-83.251-11.436v237.253c2.904-3.675 5.182-8.074 6.564-13.185l15.669-57.862c1.174-4.335 7.323-4.335 8.497 0l15.669 57.862c8.711 32.21 52.806 36.402 67.296 6.363 11.085-22.984 19.226-47.962 23.079-64.352l5.412-23.032c12.252-52.139-11.881-106.031-58.935-131.611z" fill="url(#SVGID_00000013158721454478572390000004950005193422698903_)"/><path d="m374.508 345.902-85.529-85.529-62.563 37.864 127.737 127.737c5.537-14.579 9.701-28.403 12.141-38.781l5.412-23.032c1.427-6.079 2.341-12.181 2.802-18.259z" fill="url(#SVGID_00000138554142916337681340000005017842933633600695_)"/><path d="m324.019 469.447c-53.567-83.146-30.296-211.811-68.021-211.811s-14.453 128.664-68.02 211.81c18.498 7.108 41.996-1.678 48.104-24.264l15.669-57.862c1.174-4.335 7.323-4.335 8.497 0l15.669 57.862c6.108 22.584 29.604 31.371 48.102 24.265z" fill="url(#SVGID_00000098188256987529990610000007263954270696904332_)"/><path d="m137.415 344.995c.434 6.378 1.381 12.785 2.88 19.165l5.412 23.032c3.853 16.39 11.994 41.368 23.079 64.352 14.49 30.039 58.586 25.847 67.296-6.363l15.669-57.862c1.174-4.335 7.323-4.335 8.497 0l15.669 57.862c8.711 32.21 52.806 36.402 67.296 6.363 11.085-22.984 19.226-47.962 23.079-64.352l5.412-23.032c1.499-6.381 2.446-12.787 2.88-19.165z" fill="url(#SVGID_00000069355526326856627490000010293494145802339766_)"/></g></g><path d="m276.481 303.505 5.926-3.215c8.187-4.442 13.285-13.009 13.285-22.323v-.396c0-14.027-11.371-25.397-25.397-25.397h-28.589c-14.027 0-25.397 11.371-25.397 25.397v.396c0 9.314 5.098 17.881 13.285 22.323l5.926 3.215c12.773 6.931 28.187 6.931 40.961 0z" fill="url(#SVGID_00000146464660621738148320000001584283003226433211_)"/></g></svg>