<svg id="Capa_1" enable-background="new 0 0 512 512" height="512" viewBox="0 0 512 512" width="512" xmlns="http://www.w3.org/2000/svg" xmlns:xlink="http://www.w3.org/1999/xlink"><linearGradient id="lg1"><stop offset="0" stop-color="#b9acac"/><stop offset="1" stop-color="#766e6e"/></linearGradient><linearGradient id="SVGID_1_" gradientUnits="userSpaceOnUse" x1="96.747" x2="177.302" xlink:href="#lg1" y1="61.745" y2="95.963"/><linearGradient id="lg2"><stop offset="0" stop-color="#433f43" stop-opacity="0"/><stop offset=".4672" stop-color="#413d41" stop-opacity=".467"/><stop offset=".6879" stop-color="#393639" stop-opacity=".688"/><stop offset=".8563" stop-color="#2c2b2c" stop-opacity=".856"/><stop offset=".9982" stop-color="#1a1a1a" stop-opacity=".998"/><stop offset="1" stop-color="#1a1a1a"/></linearGradient><linearGradient id="SVGID_00000178887604221428680450000014122662201721238715_" gradientUnits="userSpaceOnUse" x1="156.261" x2="164.815" xlink:href="#lg2" y1="45.57" y2="71.233"/><linearGradient id="SVGID_00000152249256134996089480000003370388662407230614_" gradientUnits="userSpaceOnUse" x1="151.218" x2="123.654" xlink:href="#lg2" y1="90.145" y2="81.116"/><linearGradient id="SVGID_00000079455406723241091300000009741560744634501819_" gradientUnits="userSpaceOnUse" x1="302.223" x2="318.857" xlink:href="#lg1" y1="18.692" y2="56.236"/><linearGradient id="SVGID_00000078006024398210370390000017662724004253140880_" gradientUnits="userSpaceOnUse" x1="356.57" x2="346.946" xlink:href="#lg2" y1="42.854" y2="72.082"/><linearGradient id="SVGID_00000130638644615357268840000014425465922222858899_" gradientUnits="userSpaceOnUse" x1="364.018" x2="383.978" xlink:href="#lg2" y1="92.751" y2="87.523"/><linearGradient id="lg3"><stop offset="0" stop-color="#ffdfcf"/><stop offset="1" stop-color="#fd8087"/></linearGradient><linearGradient id="SVGID_00000119108075004446451190000018418758275599466119_" gradientUnits="userSpaceOnUse" x1="113.295" x2="153.216" xlink:href="#lg3" y1="66.277" y2="92.654"/><linearGradient id="lg4"><stop offset="0" stop-color="#fd4755" stop-opacity="0"/><stop offset=".2593" stop-color="#f74452" stop-opacity=".259"/><stop offset=".6276" stop-color="#e43b4c" stop-opacity=".628"/><stop offset="1" stop-color="#ca2e43"/></linearGradient><linearGradient id="SVGID_00000130613686642027974560000006280815728427046078_" gradientUnits="userSpaceOnUse" x1="156.891" x2="108.891" xlink:href="#lg4" y1="107.988" y2="90.879"/><linearGradient id="SVGID_00000083082903855091211420000014972729369885982110_" gradientUnits="userSpaceOnUse" x1="183.246" x2="157.582" xlink:href="#lg4" y1="89.779" y2="139.205"/><linearGradient id="SVGID_00000141452348291439594460000007267037610646416293_" gradientUnits="userSpaceOnUse" x1="285.178" x2="338.61" xlink:href="#lg3" y1="59.443" y2="122.894"/><linearGradient id="SVGID_00000138539326075660500110000001408457305507148473_" gradientUnits="userSpaceOnUse" x1="373.531" x2="355.947" xlink:href="#lg4" y1="56.572" y2="79.384"/><linearGradient id="SVGID_00000097496410139855078480000006239795250628704162_" gradientUnits="userSpaceOnUse" x1="329.602" x2="322.949" xlink:href="#lg4" y1="54.097" y2="32.236"/><linearGradient id="SVGID_00000163047434563781815240000002132866213867663789_" gradientUnits="userSpaceOnUse" x1="53.509" x2="126.222" xlink:href="#lg1" y1="48.597" y2="109.191"/><linearGradient id="SVGID_00000134252074870972416090000014339606339747861166_" gradientUnits="userSpaceOnUse" x1="86.158" x2="129.643" xlink:href="#lg2" y1="76.635" y2="109.427"/><linearGradient id="SVGID_00000080207891399068454890000006701352097146814370_" gradientUnits="userSpaceOnUse" x1="445.554" x2="398.505" xlink:href="#lg1" y1="47.91" y2="107.791"/><linearGradient id="SVGID_00000115515952024129668560000002043455896905778336_" gradientUnits="userSpaceOnUse" x1="445.273" x2="445.273" xlink:href="#lg2" y1="113.367" y2="179.14"/><linearGradient id="SVGID_00000042725952637356470870000011177435620378222011_" gradientUnits="userSpaceOnUse" x1="455.891" x2="519.112" xlink:href="#lg2" y1="97.31" y2="97.31"/><linearGradient id="SVGID_00000023243819015477049360000015228492990350282140_" gradientUnits="userSpaceOnUse" x1="160.116" x2="293.084" xlink:href="#lg1" y1="199.39" y2="233.463"/><linearGradient id="SVGID_00000119819503445830176900000011820825491559057572_" gradientUnits="userSpaceOnUse" x1="342.33" x2="399.672" xlink:href="#lg2" y1="213.259" y2="204.117"/><linearGradient id="SVGID_00000135681695014603295320000004598647371136695696_" gradientUnits="userSpaceOnUse" x1="306.102" x2="273.588" xlink:href="#lg2" y1="120.875" y2="83.603"/><linearGradient id="SVGID_00000099661346613311515340000003418539338545778826_" gradientUnits="userSpaceOnUse" x1="199.684" x2="237.221" xlink:href="#lg2" y1="126.664" y2="79.611"/><linearGradient id="SVGID_00000151531610965778097730000012847383364180232891_" gradientUnits="userSpaceOnUse" x1="321.241" x2="286.347" xlink:href="#lg2" y1="172.241" y2="91.351"/><linearGradient id="SVGID_00000088095595562487063370000007319827151998295450_" gradientUnits="userSpaceOnUse" x1="195.214" x2="225.878" xlink:href="#lg2" y1="161.769" y2="92.511"/><linearGradient id="SVGID_00000100372687389470610370000008179276923552535737_" gradientUnits="userSpaceOnUse" x1="318.234" x2="288.627" xlink:href="#lg2" y1="201.947" y2="123.172"/><linearGradient id="SVGID_00000124845114702235199790000007092167450690655621_" gradientUnits="userSpaceOnUse" x1="197.401" x2="220.134" xlink:href="#lg2" y1="191.041" y2="123.897"/><linearGradient id="SVGID_00000065779803326464889130000004076826859394910108_" gradientUnits="userSpaceOnUse" x1="338.183" x2="338.183" xlink:href="#lg2" y1="222.136" y2="164.869"/><linearGradient id="SVGID_00000067929447842469476660000013986166467097271731_" gradientUnits="userSpaceOnUse" x1="228.244" x2="200.205" xlink:href="#lg2" y1="227.042" y2="141.022"/><linearGradient id="lg5"><stop offset="0" stop-color="#fffaf8"/><stop offset="1" stop-color="#ffdfcf"/></linearGradient><linearGradient id="SVGID_00000165912710609468519460000017905100158816730544_" gradientUnits="userSpaceOnUse" x1="186.073" x2="390.68" xlink:href="#lg5" y1="312.066" y2="516.673"/><linearGradient id="SVGID_00000087410977620597646820000002171424790569492398_" gradientUnits="userSpaceOnUse" x1="256" x2="256" xlink:href="#lg2" y1="419.753" y2="357.749"/><linearGradient id="lg6"><stop offset="0" stop-color="#f89580" stop-opacity="0"/><stop offset=".2599" stop-color="#f2917c" stop-opacity=".261"/><stop offset=".5954" stop-color="#e2856f" stop-opacity=".597"/><stop offset=".9709" stop-color="#c8725b" stop-opacity=".974"/><stop offset=".9972" stop-color="#c5715a"/></linearGradient><linearGradient id="SVGID_00000075155605353289815060000000817407587257029823_" gradientUnits="userSpaceOnUse" x1="395.959" x2="408.344" xlink:href="#lg6" y1="414.641" y2="422.21"/><linearGradient id="SVGID_00000172425964765600590230000017357002426007082904_" gradientUnits="userSpaceOnUse" x1="289.935" x2="314.189" xlink:href="#lg6" y1="460.876" y2="489.775"/><linearGradient id="SVGID_00000034768589231111584790000013308884802320618126_" gradientTransform="matrix(-1 0 0 1 2697.71 0)" gradientUnits="userSpaceOnUse" x1="2475.646" x2="2499.9" xlink:href="#lg6" y1="460.876" y2="489.775"/><linearGradient id="SVGID_00000035510250082588779250000002852800716700011686_" gradientUnits="userSpaceOnUse" x1="346.668" x2="362.149" xlink:href="#lg6" y1="438.471" y2="457.393"/><linearGradient id="SVGID_00000120555116375651942280000009453347613112410277_" gradientUnits="userSpaceOnUse" x1="121.479" x2="102.558" xlink:href="#lg6" y1="414.84" y2="439.782"/><linearGradient id="SVGID_00000080188954118359417400000018365277404496434843_" gradientTransform="matrix(-1 0 0 1 2920.645 0)" gradientUnits="userSpaceOnUse" x1="2755.313" x2="2770.795" xlink:href="#lg6" y1="438.471" y2="457.393"/><linearGradient id="SVGID_00000151524255837066012800000016664786174782408595_" gradientUnits="userSpaceOnUse" x1="234.11" x2="269.673" xlink:href="#lg5" y1="261.665" y2="450.089"/><linearGradient id="SVGID_00000121276246649803500910000009986487683337666201_" gradientUnits="userSpaceOnUse" x1="255.999" x2="255.999" xlink:href="#lg6" y1="390.75" y2="489.078"/><linearGradient id="SVGID_00000166642145730119840000000000451886795523328914_" gradientUnits="userSpaceOnUse" x1="119.912" x2="53.15" xlink:href="#lg6" y1="390.014" y2="395.736"/><linearGradient id="SVGID_00000169538740221863422310000012928218391930084017_" gradientUnits="userSpaceOnUse" x1="387.306" x2="442.623" xlink:href="#lg6" y1="396.58" y2="411.84"/><linearGradient id="SVGID_00000132793102246135464240000010652216207892862087_" gradientUnits="userSpaceOnUse" x1="350.323" x2="375.121" xlink:href="#lg6" y1="410.315" y2="414.13"/><linearGradient id="SVGID_00000171000160990536289840000000575926904132739485_" gradientUnits="userSpaceOnUse" x1="157.279" x2="133.753" xlink:href="#lg6" y1="413.711" y2="417.844"/><linearGradient id="SVGID_00000114760753793429010720000005074740968333057459_" gradientUnits="userSpaceOnUse" x1="131.119" x2="107.593" xlink:href="#lg6" y1="417.807" y2="425.755"/><linearGradient id="SVGID_00000176760052107981209200000017485878906911745708_" gradientUnits="userSpaceOnUse" x1="379.634" x2="398.073" xlink:href="#lg6" y1="418.452" y2="425.764"/><linearGradient id="SVGID_00000140729078223161648220000013784471923052169133_" gradientUnits="userSpaceOnUse" x1="259.802" x2="219.671" xlink:href="#lg6" y1="379.254" y2="301.5"/><linearGradient id="SVGID_00000084523126536605257800000002982799698834542483_" gradientUnits="userSpaceOnUse" x1="310.529" x2="271.559" xlink:href="#lg6" y1="329.33" y2="268.499"/><linearGradient id="lg7"><stop offset="0" stop-color="#5a5a5a"/><stop offset="1" stop-color="#444"/></linearGradient><linearGradient id="SVGID_00000101066180266691612640000002388224763662065029_" gradientUnits="userSpaceOnUse" x1="247.116" x2="266.884" xlink:href="#lg7" y1="272.902" y2="302.264"/><linearGradient id="SVGID_00000013160835245723771510000006528429009391024806_" gradientUnits="userSpaceOnUse" x1="172.204" x2="200.995" xlink:href="#lg7" y1="200.37" y2="221.562"/><linearGradient id="SVGID_00000077296399243885567890000012574135077294995365_" gradientUnits="userSpaceOnUse" x1="311.343" x2="336.934" xlink:href="#lg7" y1="199.129" y2="218.322"/><linearGradient id="SVGID_00000039818050826621457910000018215094075740868022_" gradientUnits="userSpaceOnUse" x1="143.182" x2="168.106" xlink:href="#lg5" y1="127.483" y2="178.716"/><linearGradient id="SVGID_00000013189841402856044400000014545634064516562819_" gradientUnits="userSpaceOnUse" x1="198.518" x2="223.096" xlink:href="#lg6" y1="148.429" y2="139.082"/><linearGradient id="SVGID_00000021829573778554981010000001218906889073726357_" gradientUnits="userSpaceOnUse" x1="157.715" x2="145.946" xlink:href="#lg6" y1="160.523" y2="140.445"/><linearGradient id="SVGID_00000158738322846454230610000012121280085300459399_" gradientUnits="userSpaceOnUse" x1="160.889" x2="158.466" xlink:href="#lg6" y1="144.584" y2="125.198"/><linearGradient id="SVGID_00000083806139287132521980000010365684082130383289_" gradientUnits="userSpaceOnUse" x1="333.008" x2="349.163" xlink:href="#lg5" y1="125.475" y2="169.785"/><linearGradient id="SVGID_00000078737253641995566240000017044487908493118091_" gradientTransform="matrix(-1 0 0 1 727.125 0)" gradientUnits="userSpaceOnUse" x1="372.84" x2="361.071" xlink:href="#lg6" y1="160.523" y2="140.445"/><linearGradient id="SVGID_00000079448967953244250620000008201731656573038761_" gradientTransform="matrix(-1 0 0 1 727.125 0)" gradientUnits="userSpaceOnUse" x1="376.014" x2="373.591" xlink:href="#lg6" y1="144.584" y2="125.198"/><g><g><path d="m219.59 106.732c8.3 19.48 12.84 40.31 12.84 61.37 0 3.82-.15 7.64-.45 11.47-.94 11.77-4.18 23.1-9.43 33.35l-137.07-137.07 74.14-74.14h.01l3.26-.7c.08-.02.16-.03.25-.05 14.91-3.15 30.4 1.56 41.18 12.34l33.09 33.09c-13.63 6.83-22.98 20.92-22.98 37.2 0 7.29 1.87 15.42 5.16 23.14z" fill="url(#SVGID_1_)"/><path d="m219.59 106.732c8.3 19.48 12.84 40.31 12.84 61.37 0 3.82-.15 7.64-.45 11.47-.94 11.77-4.18 23.1-9.43 33.35l-137.07-137.07 74.14-74.14h.01l3.26-.7c.08-.02.16-.03.25-.05 14.91-3.15 30.4 1.56 41.18 12.34l33.09 33.09c-13.63 6.83-22.98 20.92-22.98 37.2 0 7.29 1.87 15.42 5.16 23.14z" fill="url(#SVGID_00000178887604221428680450000014122662201721238715_)"/><path d="m219.59 106.732c8.3 19.48 12.84 40.31 12.84 61.37 0 3.82-.15 7.64-.45 11.47-.94 11.77-4.18 23.1-9.43 33.35l-137.07-137.07 74.14-74.14h.01l3.26-.7c.08-.02.16-.03.25-.05 14.91-3.15 30.4 1.56 41.18 12.34l33.09 33.09c-13.63 6.83-22.98 20.92-22.98 37.2 0 7.29 1.87 15.42 5.16 23.14z" fill="url(#SVGID_00000152249256134996089480000003370388662407230614_)"/><path d="m426.52 75.852-137.07 137.07c-5.24-10.25-8.49-21.57-9.42-33.34-1.99-24.94 2.58-49.84 12.38-72.85 3.29-7.72 5.16-15.86 5.16-23.14 0-16.28-9.35-30.37-22.98-37.2l33.09-33.09c10.78-10.78 26.27-15.49 41.18-12.34.09.02.17.03.25.05l3.26.7h.01z" fill="url(#SVGID_00000079455406723241091300000009741560744634501819_)"/><path d="m426.52 75.852-137.07 137.07c-5.24-10.25-8.49-21.57-9.42-33.34-1.99-24.94 2.58-49.84 12.38-72.85 3.29-7.72 5.16-15.86 5.16-23.14 0-16.28-9.35-30.37-22.98-37.2l33.09-33.09c10.78-10.78 26.27-15.49 41.18-12.34.09.02.17.03.25.05l3.26.7h.01z" fill="url(#SVGID_00000078006024398210370390000017662724004253140880_)"/><path d="m426.52 75.852-137.07 137.07c-5.24-10.25-8.49-21.57-9.42-33.34-1.99-24.94 2.58-49.84 12.38-72.85 3.29-7.72 5.16-15.86 5.16-23.14 0-16.28-9.35-30.37-22.98-37.2l33.09-33.09c10.78-10.78 26.27-15.49 41.18-12.34.09.02.17.03.25.05l3.26.7h.01z" fill="url(#SVGID_00000130638644615357268840000014425465922222858899_)"/><path d="m190.824 43.439c-13.595-13.595-33.13-19.535-51.934-15.563-.114.025-.214.038-.315.063l-4.111.883h-.013l-48.5 48.5 136.6 136.6c.559-1.092 1.084-2.203 1.597-3.319-2.54-16.901-7.308-33.474-14.066-49.335-4.149-9.736-6.508-19.989-6.508-29.183 0-13.063 4.778-25.003 12.678-34.183-1.174-4.556-1.822-9.076-1.822-13.31 0-5.222.972-10.214 2.729-14.818z" fill="url(#SVGID_00000119108075004446451190000018418758275599466119_)"/><path d="m190.824 43.439c-13.595-13.595-33.13-19.535-51.934-15.563-.114.025-.214.038-.315.063l-4.111.883h-.013l-48.5 48.5 136.6 136.6c.559-1.092 1.084-2.203 1.597-3.319-2.54-16.901-7.308-33.474-14.066-49.335-4.149-9.736-6.508-19.989-6.508-29.183 0-13.063 4.778-25.003 12.678-34.183-1.174-4.556-1.822-9.076-1.822-13.31 0-5.222.972-10.214 2.729-14.818z" fill="url(#SVGID_00000130613686642027974560000006280815728427046078_)"/><path d="m190.824 43.439c-13.595-13.595-33.13-19.535-51.934-15.563-.114.025-.214.038-.315.063l-4.111.883h-.013l-48.5 48.5 136.6 136.6c.559-1.092 1.084-2.203 1.597-3.319-2.54-16.901-7.308-33.474-14.066-49.335-4.149-9.736-6.508-19.989-6.508-29.183 0-13.063 4.778-25.003 12.678-34.183-1.174-4.556-1.822-9.076-1.822-13.31 0-5.222.972-10.214 2.729-14.818z" fill="url(#SVGID_00000083082903855091211420000014972729369885982110_)"/><path d="m287.855 210.604c.513 1.116 1.036 2.226 1.595 3.318l136.6-136.599-48.5-48.5h-.012l-4.112-.883c-.101-.025-.202-.038-.315-.063-18.803-3.973-38.339 1.967-51.934 15.563l-26.335 26.335c1.757 4.604 2.729 9.596 2.729 14.818 0 4.229-.648 8.751-1.823 13.31 7.9 9.18 12.678 21.12 12.678 34.183 0 9.181-2.359 19.447-6.508 29.183-6.754 15.858-11.522 32.432-14.063 49.335z" fill="url(#SVGID_00000141452348291439594460000007267037610646416293_)"/><path d="m287.855 210.604c.513 1.116 1.036 2.226 1.595 3.318l136.6-136.599-48.5-48.5h-.012l-4.112-.883c-.101-.025-.202-.038-.315-.063-18.803-3.973-38.339 1.967-51.934 15.563l-26.335 26.335c1.757 4.604 2.729 9.596 2.729 14.818 0 4.229-.648 8.751-1.823 13.31 7.9 9.18 12.678 21.12 12.678 34.183 0 9.181-2.359 19.447-6.508 29.183-6.754 15.858-11.522 32.432-14.063 49.335z" fill="url(#SVGID_00000138539326075660500110000001408457305507148473_)"/><path d="m287.855 210.604c.513 1.116 1.036 2.226 1.595 3.318l136.6-136.599-48.5-48.5h-.012l-4.112-.883c-.101-.025-.202-.038-.315-.063-18.803-3.973-38.339 1.967-51.934 15.563l-26.335 26.335c1.757 4.604 2.729 9.596 2.729 14.818 0 4.229-.648 8.751-1.823 13.31 7.9 9.18 12.678 21.12 12.678 34.183 0 9.181-2.359 19.447-6.508 29.183-6.754 15.858-11.522 32.432-14.063 49.335z" fill="url(#SVGID_00000097496410139855078480000006239795250628704162_)"/><g><g><path d="m159.62 1.711-72.301 164.508c-5.439 12.375-19.656 18.273-32.258 13.383-26.693-10.359-46.09-33.839-51.223-62.007l-2.718-14.914c-6.65-36.45 16.99-71.53 53.26-79.09z" fill="url(#SVGID_00000163047434563781815240000002132866213867663789_)"/><path d="m159.62 1.711-72.301 164.508c-5.439 12.375-19.656 18.273-32.258 13.383-26.693-10.359-46.09-33.839-51.223-62.007l-2.718-14.914c-6.65-36.45 16.99-71.53 53.26-79.09z" fill="url(#SVGID_00000134252074870972416090000014339606339747861166_)"/></g><g><path d="m352.38 1.711 72.301 164.508c5.439 12.375 19.656 18.273 32.258 13.383 26.693-10.359 46.09-33.839 51.223-62.007l2.718-14.914c6.65-36.45-16.99-71.53-53.26-79.09z" fill="url(#SVGID_00000080207891399068454890000006701352097146814370_)"/><path d="m424.681 166.219c5.439 12.375 19.656 18.273 32.258 13.383 26.693-10.359 46.09-33.839 51.223-62.007l2.718-14.914c2.662-14.591.46-28.957-5.453-41.432h-126.88z" fill="url(#SVGID_00000115515952024129668560000002043455896905778336_)"/><path d="m457.62 23.591-49.492-10.29v115.255l16.553 37.663c5.439 12.375 19.656 18.273 32.258 13.383 26.693-10.359 46.09-33.839 51.223-62.007l2.718-14.914c6.65-36.45-16.99-71.53-53.26-79.09z" fill="url(#SVGID_00000042725952637356470870000011177435620378222011_)"/></g></g></g><path d="m295.212 401.385h-78.432c-36.74 0-67.959-26.861-73.442-63.189l-25.288-167.547c-9.953-65.94 41.105-125.281 107.791-125.281h60.311c66.687 0 117.744 59.342 107.791 125.281l-25.288 167.547c-5.484 36.328-36.703 63.189-73.443 63.189z" fill="url(#SVGID_00000023243819015477049360000015228492990350282140_)"/><path d="m286.151 45.367h-29.555v356.017h38.616c36.74 0 67.959-26.861 73.442-63.189l25.288-167.547c9.953-65.939-41.104-125.281-107.791-125.281z" fill="url(#SVGID_00000119819503445830176900000011820825491559057572_)"/><g><g><ellipse cx="322.72" cy="139.925" fill="url(#SVGID_00000135681695014603295320000004598647371136695696_)" rx="66.094" ry="53.661"/><ellipse cx="189.104" cy="139.925" fill="url(#SVGID_00000099661346613311515340000003418539338545778826_)" rx="66.094" ry="53.661"/></g><g><ellipse cx="321.004" cy="171.692" fill="url(#SVGID_00000151531610965778097730000012847383364180232891_)" rx="64.397" ry="52.282"/><ellipse cx="190.82" cy="171.692" fill="url(#SVGID_00000088095595562487063370000007319827151998295450_)" rx="64.397" ry="52.282"/></g><g><ellipse cx="317.053" cy="198.806" fill="url(#SVGID_00000100372687389470610370000008179276923552535737_)" rx="60.488" ry="49.109"/><ellipse cx="194.771" cy="198.806" fill="url(#SVGID_00000124845114702235199790000007092167450690655621_)" rx="60.488" ry="49.109"/></g></g><path d="m283.207 173.348 95.86 95.86 14.091-93.362-20.673-14.426h-77.35z" fill="url(#SVGID_00000065779803326464889130000004076826859394910108_)"/><path d="m368.654 338.196 5.708-37.816-161.743-161.743-93.416 39.658 24.134 159.9c5.483 36.328 36.702 63.189 73.442 63.189h78.433c36.74.001 67.959-26.86 73.442-63.188z" fill="url(#SVGID_00000067929447842469476660000013986166467097271731_)"/><g><path d="m435.98 355.025c-1.49 7.07-3.76 13.92-6.74 20.45-3.3 7.25-5.58 14.93-6.34 22.85-1.07 11.14-4.11 22.04-8.89 32.27-1.68 3.59-7.1 2.25-6.97-1.72.14-3.9.05-7.83-.25-11.78-6.43 10.35-14.82 19.39-24.64 26.74-3.18 2.38-7.34-1.35-5.35-4.78 2.7-4.65 5.06-9.55 7.06-14.65-8.21 5.08-16.37 10.24-24.35 15.62-.05.04-.1.07-.15.11-8.72 5.87-16.09 13.47-21.88 22.24-6.22 9.44-14.11 17.72-23.24 24.55-3.18 2.38-7.35-1.32-5.36-4.76 2.77-4.76 5.18-9.78 7.21-15.03-17.51 10.97-33.78 22.53-48.92 39.81-5.91 6.74-16.43 6.74-22.34 0-15.14-17.28-31.41-28.84-48.92-39.81 2.03 5.25 4.44 10.27 7.21 15.03 1.99 3.44-2.18 7.14-5.36 4.76-9.13-6.83-17.02-15.11-23.24-24.55-5.79-8.77-13.16-16.37-21.88-22.24-.05-.04-.1-.07-.15-.11-7.98-5.39-16.14-10.54-24.35-15.62 2 5.1 4.36 10 7.06 14.65 1.99 3.43-2.17 7.16-5.35 4.78-9.82-7.35-18.21-16.39-24.64-26.74-.3 3.95-.39 7.88-.25 11.78.13 3.97-5.29 5.32-6.97 1.72-4.78-10.23-7.82-21.13-8.89-32.27-.76-7.92-3.04-15.6-6.34-22.85-2.98-6.53-5.25-13.38-6.74-20.45z" fill="url(#SVGID_00000165912710609468519460000017905100158816730544_)"/><path d="m435.98 355.025c-1.49 7.07-3.76 13.92-6.74 20.45-3.3 7.25-5.58 14.93-6.34 22.85-1.07 11.14-4.11 22.04-8.89 32.27-1.68 3.59-7.1 2.25-6.97-1.72.14-3.9.05-7.83-.25-11.78-6.43 10.35-14.82 19.39-24.64 26.74-3.18 2.38-7.34-1.35-5.35-4.78 2.7-4.65 5.06-9.55 7.06-14.65-8.21 5.08-16.37 10.24-24.35 15.62-.05.04-.1.07-.15.11-8.72 5.87-16.09 13.47-21.88 22.24-6.22 9.44-14.11 17.72-23.24 24.55-3.18 2.38-7.35-1.32-5.36-4.76 2.77-4.76 5.18-9.78 7.21-15.03-17.51 10.97-33.78 22.53-48.92 39.81-5.91 6.74-16.43 6.74-22.34 0-15.14-17.28-31.41-28.84-48.92-39.81 2.03 5.25 4.44 10.27 7.21 15.03 1.99 3.44-2.18 7.14-5.36 4.76-9.13-6.83-17.02-15.11-23.24-24.55-5.79-8.77-13.16-16.37-21.88-22.24-.05-.04-.1-.07-.15-.11-7.98-5.39-16.14-10.54-24.35-15.62 2 5.1 4.36 10 7.06 14.65 1.99 3.43-2.17 7.16-5.35 4.78-9.82-7.35-18.21-16.39-24.64-26.74-.3 3.95-.39 7.88-.25 11.78.13 3.97-5.29 5.32-6.97 1.72-4.78-10.23-7.82-21.13-8.89-32.27-.76-7.92-3.04-15.6-6.34-22.85-2.98-6.53-5.25-13.38-6.74-20.45z" fill="url(#SVGID_00000087410977620597646820000002171424790569492398_)"/><path d="m406.795 417.095c-6.428 10.345-14.825 19.386-24.649 26.741-3.178 2.382-7.355-1.325-5.357-4.756 8.426-14.521 13.645-31.461 14.362-49.797l.543-13.971c.036-.97.065-1.933.087-2.896l1.839.463 2.606 5.364c6.146 12.654 9.57 25.836 10.569 38.852z" fill="url(#SVGID_00000075155605353289815060000000817407587257029823_)"/><g><path d="m230.374 492.331c4.93 4.421 9.748 9.241 14.458 14.615 5.905 6.737 16.43 6.737 22.335 0 15.147-17.282 31.41-28.839 48.917-39.807 4.156-10.75 6.677-22.438 7.158-34.762l.159-34.045h-93.028v93.999z" fill="url(#SVGID_00000172425964765600590230000017357002426007082904_)"/></g><g><path d="m281.625 492.331c-4.93 4.421-9.748 9.241-14.458 14.615-5.905 6.737-16.43 6.737-22.335 0-15.147-17.282-31.41-28.839-48.917-39.807-4.156-10.75-6.677-22.438-7.158-34.762l-.159-34.045h93.028v93.999z" fill="url(#SVGID_00000034768589231111584790000013308884802320618126_)"/></g><path d="m323.402 398.331-.159 34.045c-.485 12.321-3.004 24.012-7.159 34.762-2.027 5.248-4.438 10.272-7.203 15.028-1.991 3.439 2.179 7.145 5.357 4.763 9.128-6.834 17.019-15.115 23.244-24.555 5.791-8.766 13.16-16.367 21.876-22.245.051-.029.101-.065.152-.101 7.977-5.386 16.135-10.54 24.344-15.628 3.201-8.185 5.452-16.919 6.566-26.068h-67.018z" fill="url(#SVGID_00000035510250082588779250000002852800716700011686_)"/><g><path d="m105.204 417.095c6.428 10.345 14.825 19.386 24.649 26.741 3.178 2.382 7.355-1.325 5.357-4.756-8.426-14.521-13.645-31.461-14.362-49.797l-.543-13.971c-.036-.97-.065-1.933-.087-2.896l-1.839.463-2.606 5.364c-6.146 12.654-9.57 25.836-10.569 38.852z" fill="url(#SVGID_00000120555116375651942280000009453347613112410277_)"/><path d="m188.597 398.331.159 34.045c.485 12.321 3.004 24.012 7.159 34.762 2.027 5.248 4.438 10.272 7.203 15.028 1.991 3.439-2.179 7.145-5.357 4.763-9.128-6.834-17.019-15.115-23.244-24.555-5.791-8.766-13.16-16.367-21.876-22.245-.051-.029-.101-.065-.152-.101-7.977-5.386-16.135-10.54-24.344-15.628-3.201-8.185-5.452-16.919-6.567-26.068h67.019z" fill="url(#SVGID_00000080188954118359417400000018365277404496434843_)"/></g></g><g><path d="m429.59 440.062c-6.02 11.27-13.11 21.88-21.12 31.71-2.68 3.29-7.6 3.57-10.62.59l-.05-.06c-5.81-5.82-9.41-13.86-9.41-22.73 0-1.58-.07-3.15-.18-4.71-3.63 7.69-7.9 15.1-12.74 22.17-3.58 5.21-11.77 1.76-10.51-4.43 1.95-9.7 3.07-19.66 3.29-29.79-1.06 3.18-2.2 6.33-3.46 9.45-2.35 5.87-11.1 4.28-11.22-2.04-.21-10.26-1.35-20.61-3.49-30.91-2.97-14.34-13.61-25.88-27.58-30.25-.01-.01-.01-.01-.01-.01-43.37-13.5-89.81-13.5-133.17 0h-.01c-13.97 4.38-24.61 15.92-27.58 30.26-2.14 10.3-3.29 20.65-3.49 30.91-.12 6.32-8.87 7.91-11.23 2.04-1.25-3.12-2.4-6.27-3.45-9.45.22 10.13 1.34 20.09 3.29 29.79 1.26 6.19-6.94 9.64-10.51 4.43-4.85-7.07-9.12-14.49-12.75-22.18-.11 1.56-.18 3.13-.18 4.72 0 8.87-3.59 16.91-9.41 22.73l-.05.06c-3.01 2.98-7.93 2.7-10.61-.59-7.46-9.13-14.1-18.95-19.84-29.34-28.91-52.38-20.01-117.71 23.29-158.99.785-.748 1.579-1.489 2.38-2.22 36.784-33.607 90.601-40.852 135.549-19.355l11.281 5.395 11.114-5.316c45.643-21.832 100.258-13.891 137.119 20.768.923.868 1.836 1.748 2.738 2.638 41.159 40.64 49.869 103.69 22.619 154.71z" fill="url(#SVGID_00000151524255837066012800000016664786174782408595_)"/><path d="m83.501 442.43c5.735 10.392 12.383 20.209 19.837 29.344 2.681 3.286 7.6 3.57 10.61.583l.056-.055c5.812-5.822 9.411-13.858 9.411-22.733 0-1.585.066-3.157.175-4.719 3.636 7.694 7.903 15.112 12.751 22.18 3.574 5.216 11.767 1.763 10.509-4.432-1.953-9.692-3.069-19.66-3.288-29.789 1.053 3.18 2.2 6.334 3.453 9.453 2.354 5.868 11.102 4.279 11.221-2.041.208-10.256 1.357-20.605 3.494-30.91 2.973-14.337 13.608-25.881 27.582-30.254.004-.001.006-.002.006-.002 43.363-13.507 89.807-13.507 133.169 0 0 0 .004.001.012.004 13.974 4.373 24.608 15.916 27.582 30.254 2.137 10.304 3.285 20.652 3.493 30.908.119 6.321 8.867 7.909 11.221 2.041 1.253-3.119 2.4-6.273 3.453-9.453-.219 10.13-1.335 20.097-3.288 29.789-1.258 6.195 6.935 9.648 10.509 4.432 4.845-7.065 9.111-14.479 12.746-22.169.108 1.559.174 3.128.174 4.709 0 8.876 3.598 16.911 9.411 22.733l.056.055c3.012 2.986 7.931 2.7 10.612-.586 8.016-9.824 15.101-20.439 21.12-31.708 18.969-35.515 20.51-76.858 5.816-112.415h-358.853c-14.942 36.32-12.998 78.636 6.95 114.781z" fill="url(#SVGID_00000121276246649803500910000009986487683337666201_)"/><g><path d="m309.741 375.498c-14.017-42.504-57.002-73.448-107.864-73.448-62.238 0-112.691 46.331-112.691 103.482 0 25 9.654 47.93 25.726 65.817 5.275-5.731 8.503-13.377 8.503-21.779 0-1.585.066-3.157.175-4.719 3.636 7.694 7.903 15.112 12.751 22.18 3.574 5.216 11.767 1.763 10.509-4.432-1.953-9.692-3.069-19.66-3.288-29.789 1.053 3.18 2.2 6.334 3.453 9.453 2.354 5.868 11.102 4.279 11.221-2.041.208-10.256 1.357-20.605 3.494-30.91 2.973-14.337 13.608-25.881 27.582-30.254.004-.001.006-.002.006-.002 39.14-12.194 80.792-13.377 120.423-3.558z" fill="url(#SVGID_00000166642145730119840000000000451886795523328914_)"/></g><path d="m422.622 405.532c0-57.152-50.454-103.482-112.691-103.482-50.861 0-93.846 30.944-107.864 73.447 39.629-9.817 81.278-8.634 120.418 3.558 0 0 .004.001.012.004 13.974 4.373 24.608 15.916 27.582 30.254 2.137 10.304 3.285 20.652 3.493 30.908.119 6.321 8.867 7.909 11.221 2.041 1.253-3.119 2.4-6.273 3.453-9.453-.219 10.13-1.335 20.097-3.288 29.789-1.258 6.195 6.935 9.648 10.509 4.432 4.845-7.065 9.111-14.479 12.746-22.169.108 1.559.174 3.128.174 4.709 0 8.404 3.229 16.051 8.506 21.782 16.074-17.888 25.729-40.818 25.729-65.82z" fill="url(#SVGID_00000169538740221863422310000012928218391930084017_)"/><path d="m366.738 437.148c.521-1.44 1.027-2.884 1.508-4.335.051-.154.102-.308.152-.462 8.92-27.197.304-57.126-21.473-75.699-.245-.209-.49-.418-.735-.626-15.068-12.806-34.222-19.792-53.997-19.792h-72.579c-19.775 0-38.929 6.986-53.997 19.792-.245.208-.49.417-.735.626-21.777 18.573-30.393 48.502-21.473 75.698.05.153.101.306.151.459.482 1.454.989 2.901 1.511 4.344.087.238.172.477.259.715.54 1.471 1.098 2.938 1.683 4.395 2.354 5.868 11.102 4.279 11.221-2.041.209-10.269 1.36-20.632 3.502-30.949 2.975-14.328 13.604-25.857 27.573-30.214l.006-.002c43.285-13.502 89.653-13.525 132.952-.068l.23.071c13.963 4.34 24.588 15.855 27.564 30.171 2.148 10.331 3.302 20.708 3.511 30.991.119 6.321 8.867 7.909 11.221 2.041.585-1.456 1.142-2.922 1.682-4.392.09-.242.176-.482.263-.723z" fill="url(#SVGID_00000132793102246135464240000010652216207892862087_)"/><path d="m366.738 437.148c.521-1.44 1.027-2.884 1.508-4.335.051-.154.102-.308.152-.462 8.92-27.197.304-57.126-21.473-75.699-.245-.209-.49-.418-.735-.626-15.068-12.806-34.222-19.792-53.997-19.792h-72.579c-19.775 0-38.929 6.986-53.997 19.792-.245.208-.49.417-.735.626-21.777 18.573-30.393 48.502-21.473 75.698.05.153.101.306.151.459.482 1.454.989 2.901 1.511 4.344.087.238.172.477.259.715.54 1.471 1.098 2.938 1.683 4.395 2.354 5.868 11.102 4.279 11.221-2.041.209-10.269 1.36-20.632 3.502-30.949 2.975-14.328 13.604-25.857 27.573-30.214l.006-.002c43.285-13.502 89.653-13.525 132.952-.068l.23.071c13.963 4.34 24.588 15.855 27.564 30.171 2.148 10.331 3.302 20.708 3.511 30.991.119 6.321 8.867 7.909 11.221 2.041.585-1.456 1.142-2.922 1.682-4.392.09-.242.176-.482.263-.723z" fill="url(#SVGID_00000171000160990536289840000000575926904132739485_)"/><path d="m123.83 392.726c-8.23 13.567-9.472 30.264-3.421 44.933 4.24 10.28 9.589 20.124 15.931 29.37 3.574 5.216 11.767 1.763 10.509-4.432-5.28-26.203-4.488-54.413 3.808-82.426l6.325-21.343c.441-1.481.89-2.948 1.35-4.41l-3.009-.242-6.672 6.755c-9.733 9.856-17.999 20.549-24.821 31.795z" fill="url(#SVGID_00000114760753793429010720000005074740968333057459_)"/><path d="m387.978 392.726c8.23 13.567 9.472 30.264 3.421 44.933-4.24 10.28-9.589 20.124-15.931 29.37-3.574 5.216-11.767 1.763-10.509-4.432 5.28-26.203 4.488-54.413-3.808-82.426l-6.325-21.343c-.441-1.481-.89-2.948-1.349-4.41l3.009-.242 6.672 6.755c9.732 9.856 17.998 20.549 24.82 31.795z" fill="url(#SVGID_00000176760052107981209200000017485878906911745708_)"/></g><path d="m256 288.978s-6.775 51.867-42.253 83.954c27.931-5.353 56.632-5.335 84.562.05-35.527-32.084-42.309-84.004-42.309-84.004z" fill="url(#SVGID_00000140729078223161648220000013784471923052169133_)"/><path d="m439.684 415.581-147.535-147.535-70.316 38.19 64.82 64.82c12.089 1.675 24.076 4.335 35.836 7.995 0 0 0 0 .01.01 13.97 4.37 24.61 15.91 27.58 30.25 2.14 10.3 3.28 20.65 3.49 30.91.12 6.32 8.87 7.91 11.22 2.04 1.26-3.12 2.4-6.27 3.46-9.45-.22 10.13-1.34 20.09-3.29 29.79-1.26 6.19 6.93 9.64 10.51 4.43 4.84-7.07 9.11-14.48 12.74-22.17.11 1.56.18 3.13.18 4.71 0 8.87 3.6 16.91 9.41 22.73l.05.06c3.02 2.98 7.94 2.7 10.62-.59 8.01-9.83 15.1-20.44 21.12-31.71 4.228-7.913 7.586-16.116 10.095-24.48z" fill="url(#SVGID_00000084523126536605257800000002982799698834542483_)"/><path d="m278.071 313.835 6.386-3.465c8.822-4.787 14.316-14.019 14.316-24.056v-.427c0-15.115-12.254-27.369-27.369-27.369h-30.809c-15.115 0-27.369 12.254-27.369 27.369v.427c0 10.037 5.494 19.269 14.316 24.056l6.386 3.465c13.767 7.469 30.377 7.469 44.143 0z" fill="url(#SVGID_00000101066180266691612640000002388224763662065029_)"/><g><path d="m185.729 236.378c-11.452 0-20.736-9.284-20.736-20.736v-10.634c0-11.452 9.284-20.736 20.736-20.736 11.452 0 20.736 9.284 20.736 20.736v10.634c-.001 11.452-9.284 20.736-20.736 20.736z" fill="url(#SVGID_00000013160835245723771510000006528429009391024806_)"/><path d="m326.271 236.378c-11.452 0-20.736-9.284-20.736-20.736v-10.634c0-11.452 9.284-20.736 20.736-20.736 11.452 0 20.736 9.284 20.736 20.736v10.634c0 11.452-9.283 20.736-20.736 20.736z" fill="url(#SVGID_00000077296399243885567890000012574135077294995365_)"/></g><g><g><path d="m230.944 168.243c.023-.889-.174-1.825-.661-2.762-4.962-9.574-10.877-18.579-17.664-26.843-9.722-11.839-24.527-18.438-39.824-17.615-12.668.682-25.523 2.844-38.334 6.633l-8.023 2.374c-.481.142-.874.49-1.075.949-.435.997.167 2.136 1.234 2.346.759.149 1.52.302 2.282.458l6.227 1.284c-8.471 3.385-16.829 7.42-25.001 12.144l-8.346 4.825c-.5.289-.847.785-.947 1.353-.218 1.234.764 2.347 2.016 2.294.891-.038 1.784-.072 2.68-.103l24.724-.819c2.327-.077 4.64-.1 6.947-.093-9.446 6.43-18.486 13.814-26.964 22.185l-6.859 6.774c-.411.406-.622.973-.575 1.549.1 1.249 1.331 2.079 2.529 1.712.853-.261 1.708-.52 2.568-.776l23.718-7.029c31.131-9.218 62.479-10.099 91.599-4.231 4.604.936 7.84-2.826 7.749-6.609z" fill="url(#SVGID_00000039818050826621457910000018215094075740868022_)"/><path d="m212.619 138.638c-9.565-11.648-24.052-18.207-39.085-17.633v50.569c16.956-1.12 33.647.052 49.661 3.279 4.604.935 7.84-2.827 7.748-6.61.023-.889-.174-1.825-.661-2.762-4.961-9.574-10.876-18.579-17.663-26.843z" fill="url(#SVGID_00000013189841402856044400000014545634064516562819_)"/><g><path d="m223.198 174.85c-29.126-5.866-60.467-4.982-91.603 4.234l-23.717 7.031c-.855.253-1.719.515-2.564.777-1.204.359-2.428-.466-2.535-1.719v-.136c0-.524.194-1.029.583-1.408l6.857-6.779c8.469-8.362 17.501-15.753 26.941-22.192 29.864.078 57.981 7.022 82.775 19.113 6.313 3.088 12.325-4.749 7.711-10.052-.622-.719-1.243-1.428-1.874-2.127.787.515 1.573 1.049 2.35 1.583 5.798 3.973 1.962 13.073-4.924 11.675z" fill="url(#SVGID_00000021829573778554981010000001218906889073726357_)"/><path d="m225.791 173.694c-1.661.923-3.739 1.117-5.856.078-26.698-13.024-57.252-20.075-89.7-19.006l-24.727.816c-.893.029-1.787.068-2.68.107-1.253.049-2.234-1.068-2.01-2.302.097-.563.447-1.059.942-1.35l8.343-4.827c8.177-4.72 16.53-8.76 24.999-12.14l14.811 3.05c27.592 5.701 51.94 17.86 71.82 34.283 1.28 1.058 2.718 1.427 4.058 1.291z" fill="url(#SVGID_00000158738322846454230610000012121280085300459399_)"/></g></g><g><path d="m281.056 168.243c-.023-.889.174-1.825.661-2.762 4.962-9.574 10.877-18.579 17.664-26.843 9.722-11.839 24.527-18.438 39.824-17.615 12.668.682 25.523 2.844 38.334 6.633l8.023 2.374c.481.142.874.49 1.075.949.435.997-.167 2.136-1.234 2.346-.759.149-1.52.302-2.282.458l-6.227 1.284c8.471 3.385 16.829 7.42 25.001 12.144l8.346 4.825c.5.289.847.785.947 1.353.218 1.234-.764 2.347-2.016 2.294-.891-.038-1.784-.072-2.68-.103l-24.724-.819c-2.327-.077-4.64-.1-6.947-.093 9.446 6.43 18.486 13.814 26.964 22.185l6.859 6.774c.411.406.622.973.575 1.549-.1 1.249-1.331 2.079-2.529 1.712-.853-.261-1.708-.52-2.568-.776l-23.718-7.029c-31.131-9.218-62.479-10.099-91.599-4.231-4.604.936-7.84-2.826-7.749-6.609z" fill="url(#SVGID_00000083806139287132521980000010365684082130383289_)"/><g><path d="m288.802 174.85c29.126-5.866 60.467-4.982 91.603 4.234l23.717 7.031c.855.253 1.719.515 2.564.777 1.204.359 2.428-.466 2.535-1.719v-.136c0-.524-.194-1.029-.583-1.408l-6.857-6.779c-8.469-8.362-17.501-15.753-26.941-22.192-29.864.078-57.981 7.022-82.775 19.113-6.313 3.088-12.324-4.749-7.711-10.052.622-.719 1.243-1.428 1.874-2.127-.787.515-1.573 1.049-2.35 1.583-5.798 3.973-1.962 13.073 4.924 11.675z" fill="url(#SVGID_00000078737253641995566240000017044487908493118091_)"/><path d="m286.209 173.694c1.661.923 3.739 1.117 5.856.078 26.698-13.024 57.252-20.075 89.7-19.006l24.727.816c.893.029 1.787.068 2.68.107 1.253.049 2.234-1.068 2.01-2.302-.097-.563-.447-1.059-.942-1.35l-8.343-4.827c-8.177-4.72-16.53-8.76-24.999-12.14l-14.811 3.05c-27.592 5.701-51.94 17.86-71.82 34.283-1.28 1.058-2.718 1.427-4.058 1.291z" fill="url(#SVGID_00000079448967953244250620000008201731656573038761_)"/></g></g></g></g></svg>