<svg id="Capa_1" enable-background="new 0 0 512 512" height="512" viewBox="0 0 512 512" width="512" xmlns="http://www.w3.org/2000/svg" xmlns:xlink="http://www.w3.org/1999/xlink"><linearGradient id="lg1"><stop offset="0" stop-color="#fffaf8"/><stop offset="1" stop-color="#ffdfcf"/></linearGradient><linearGradient id="SVGID_1_" gradientUnits="userSpaceOnUse" x1="228.644" x2="272.732" xlink:href="#lg1" y1="169.14" y2="169.14"/><linearGradient id="lg2"><stop offset="0" stop-color="#f89580" stop-opacity="0"/><stop offset=".2599" stop-color="#f2917c" stop-opacity=".261"/><stop offset=".5954" stop-color="#e2856f" stop-opacity=".597"/><stop offset=".9709" stop-color="#c8725b" stop-opacity=".974"/><stop offset=".9972" stop-color="#c5715a"/></linearGradient><linearGradient id="SVGID_00000047777855155150668510000016656790529245718937_" gradientUnits="userSpaceOnUse" x1="256" x2="256" xlink:href="#lg2" y1="201.68" y2="258.749"/><linearGradient id="lg3"><stop offset="0" stop-color="#ffbf51"/><stop offset="1" stop-color="#c5715a"/></linearGradient><linearGradient id="SVGID_00000106858383155151683670000010378922978651077523_" gradientUnits="userSpaceOnUse" x1="256.55" x2="255.481" xlink:href="#lg3" y1="260.017" y2="385.126"/><linearGradient id="lg4"><stop offset="0" stop-color="#c4573a" stop-opacity="0"/><stop offset=".2529" stop-color="#ba5338" stop-opacity=".253"/><stop offset=".6769" stop-color="#a04933" stop-opacity=".677"/><stop offset="1" stop-color="#883f2e"/></linearGradient><linearGradient id="SVGID_00000103947993156746073860000009921869853216897944_" gradientUnits="userSpaceOnUse" x1="256" x2="256" xlink:href="#lg4" y1="325.719" y2="397.723"/><linearGradient id="SVGID_00000100378731301739360020000015924840287789396916_" gradientUnits="userSpaceOnUse" x1="427.296" x2="369.554" xlink:href="#lg4" y1="309.639" y2="342.431"/><linearGradient id="SVGID_00000050625872173764336720000011686320234880362402_" gradientUnits="userSpaceOnUse" x1="418.433" x2="458.354" xlink:href="#lg4" y1="335.891" y2="325.198"/><linearGradient id="lg5"><stop offset="0" stop-color="#5a5a5a"/><stop offset="1" stop-color="#444"/></linearGradient><linearGradient id="SVGID_00000006697797891451055280000017017455177808654252_" gradientUnits="userSpaceOnUse" x1="132.571" x2="353.917" xlink:href="#lg5" y1="108.024" y2="232.064"/><linearGradient id="lg6"><stop offset="0" stop-color="#433f43" stop-opacity="0"/><stop offset=".2995" stop-color="#3e3b3e" stop-opacity=".3"/><stop offset=".6425" stop-color="#302e30" stop-opacity=".643"/><stop offset="1" stop-color="#1a1a1a"/></linearGradient><linearGradient id="SVGID_00000001656881467214645390000002198626338620091049_" gradientUnits="userSpaceOnUse" x1="371.296" x2="444.009" xlink:href="#lg6" y1="166.791" y2="184.969"/><linearGradient id="SVGID_00000049199302484915905370000009244286408647978632_" gradientUnits="userSpaceOnUse" x1="331.439" x2="410.568" xlink:href="#lg6" y1="154.17" y2="133.854"/><linearGradient id="SVGID_00000170975190301051100550000015794078889976484003_" gradientUnits="userSpaceOnUse" x1="155.648" x2="65.826" xlink:href="#lg6" y1="150.876" y2="126.282"/><linearGradient id="SVGID_00000014600898524085666110000018268016529685741712_" gradientUnits="userSpaceOnUse" x1="105.064" x2="194.885" xlink:href="#lg6" y1="171.684" y2="272.199"/><linearGradient id="SVGID_00000121960698996248822660000001774320028660025261_" gradientUnits="userSpaceOnUse" x1="300.901" x2="383.237" xlink:href="#lg6" y1="174.107" y2="272.483"/><linearGradient id="SVGID_00000093176853116053704290000015387381325497589641_" gradientUnits="userSpaceOnUse" x1="53.509" x2="126.222" xlink:href="#lg5" y1="79.615" y2="140.209"/><linearGradient id="SVGID_00000116205354718181219050000014287861596677390724_" gradientUnits="userSpaceOnUse" x1="86.158" x2="129.643" xlink:href="#lg6" y1="107.654" y2="140.446"/><linearGradient id="SVGID_00000122698393659791656020000009776173105729046938_" gradientUnits="userSpaceOnUse" x1="445.554" x2="398.505" xlink:href="#lg5" y1="78.928" y2="138.809"/><linearGradient id="SVGID_00000087397081313415233920000004128221794119934852_" gradientUnits="userSpaceOnUse" x1="445.273" x2="445.273" xlink:href="#lg6" y1="144.385" y2="210.159"/><linearGradient id="SVGID_00000021818323642707995390000000837060850918330276_" gradientUnits="userSpaceOnUse" x1="455.891" x2="519.112" xlink:href="#lg6" y1="128.328" y2="128.328"/><linearGradient id="SVGID_00000072980761515326021270000013769437400647991444_" gradientUnits="userSpaceOnUse" x1="256.164" x2="268.894" y1="444.672" y2="466.215"><stop offset="0" stop-color="#fdb4ba"/><stop offset="1" stop-color="#fd8087"/></linearGradient><linearGradient id="lg7"><stop offset="0" stop-color="#fd4755" stop-opacity="0"/><stop offset=".2593" stop-color="#f74452" stop-opacity=".259"/><stop offset=".6276" stop-color="#e43b4c" stop-opacity=".628"/><stop offset="1" stop-color="#ca2e43"/></linearGradient><linearGradient id="SVGID_00000060008064191325812550000003331016868035653023_" gradientUnits="userSpaceOnUse" x1="256" x2="256" xlink:href="#lg7" y1="445.849" y2="424.458"/><linearGradient id="SVGID_00000058580933944712509880000014557900406298072728_" gradientUnits="userSpaceOnUse" x1="282.191" x2="258.69" xlink:href="#lg7" y1="461.579" y2="436.608"/><linearGradient id="SVGID_00000055671472880355059040000007361371037059276705_" gradientUnits="userSpaceOnUse" x1="223.151" x2="284.06" xlink:href="#lg1" y1="281.718" y2="447.901"/><linearGradient id="SVGID_00000039130143318700104190000008890124304911455638_" gradientUnits="userSpaceOnUse" x1="314.711" x2="273.354" xlink:href="#lg2" y1="342.867" y2="275.943"/><linearGradient id="SVGID_00000122690349133231735650000017918556968243780234_" gradientUnits="userSpaceOnUse" x1="256.001" x2="256.001" xlink:href="#lg2" y1="406.924" y2="467.31"/><linearGradient id="SVGID_00000093175282069747216310000017786066982650022036_" gradientUnits="userSpaceOnUse" x1="303.013" x2="406.783" xlink:href="#lg2" y1="359.882" y2="376.425"/><linearGradient id="SVGID_00000053543711975859663410000003942342425858748841_" gradientUnits="userSpaceOnUse" x1="266.628" x2="194.44" xlink:href="#lg2" y1="472.849" y2="332.985"/><linearGradient id="SVGID_00000051369671259955660500000016302800721196512412_" gradientUnits="userSpaceOnUse" x1="247.114" x2="265.412" xlink:href="#lg5" y1="267.646" y2="307.249"/><linearGradient id="SVGID_00000165200421160819250750000005409671761156143534_" gradientUnits="userSpaceOnUse" x1="170.27" x2="182.151" xlink:href="#lg3" y1="140.981" y2="175.674"/><linearGradient id="SVGID_00000149357538398071547560000018405519055350255005_" gradientUnits="userSpaceOnUse" x1="329.953" x2="341.834" xlink:href="#lg3" y1="140.981" y2="175.674"/><g><path d="m190.49 51.977h131.019v234.326h-131.019z" fill="url(#SVGID_1_)"/><path d="m190.49 132.175h131.019v154.128h-131.019z" fill="url(#SVGID_00000047777855155150668510000016656790529245718937_)"/><path d="m443.237 294.852-.001-.002c-5.962-10.237-8.148-22.241-6.177-33.923l.002-.01c-1 4.98-3.11 4.58-6.1 8.53-3.19 4.2-7.38 7.65-12.29 9.97-31.02 14.64-67.29 17.49-96.5-.5-.14-.09-.29-.18-.44-.27-8.3-4.98-15.57-11.28-21.61-18.53h-88.24c-6.04 7.25-13.3 13.55-21.61 18.53-.15.09-.3.18-.45.27-16.31 10.05-34.82 10.16-53.39 10.16-14.69 0-29.41-3.2-43.1-9.66-9.51-4.5-16.32-8.21-18.39-18.49 1.971 11.683-.214 23.687-6.177 33.925-15.691 26.942-7.594 61.449 18.443 78.599l65.092 42.875.079-.461c24.21 17.454 52.656 27.411 82.793 27.411h41.66c30.137 0 58.583-9.957 82.793-27.411l.079.461 65.092-42.875c26.036-17.15 34.133-51.657 18.442-78.599z" fill="url(#SVGID_00000106858383155151683670000010378922978651077523_)"/><path d="m443.237 294.852-.001-.002c-5.962-10.237-8.148-22.241-6.177-33.923l.002-.01c-1 4.98-3.11 4.58-6.1 8.53-3.19 4.2-7.38 7.65-12.29 9.97-31.02 14.64-67.29 17.49-96.5-.5-.14-.09-.29-.18-.44-.27-8.3-4.98-15.57-11.28-21.61-18.53h-88.24c-6.04 7.25-13.3 13.55-21.61 18.53-.15.09-.3.18-.45.27-16.31 10.05-34.82 10.16-53.39 10.16-14.69 0-29.41-3.2-43.1-9.66-9.51-4.5-16.32-8.21-18.39-18.49 1.971 11.683-.214 23.687-6.177 33.925-15.691 26.942-7.594 61.449 18.443 78.599l65.092 42.875.079-.461c24.21 17.454 52.656 27.411 82.793 27.411h41.66c30.137 0 58.583-9.957 82.793-27.411l.079.461 65.092-42.875c26.036-17.15 34.133-51.657 18.442-78.599z" fill="url(#SVGID_00000103947993156746073860000009921869853216897944_)"/><path d="m443.236 294.85c-5.962-10.237-8.148-22.241-6.177-33.923l.002-.01c-1 4.98-3.11 4.58-6.1 8.53-3.19 4.2-7.38 7.65-12.29 9.97-23.732 11.2-50.533 15.486-74.898 8.833v137.625c5.455-2.99 10.748-6.331 15.85-10.01l.079.461 65.092-42.875c26.037-17.15 34.134-51.657 18.443-78.599z" fill="url(#SVGID_00000100378731301739360020000015924840287789396916_)"/><path d="m443.236 294.85c-5.962-10.237-8.148-22.241-6.177-33.923l.002-.01c-1 4.98-3.11 4.58-6.1 8.53-3.19 4.2-7.38 7.65-12.29 9.97-23.732 11.2-50.533 15.486-74.898 8.833v137.625c5.455-2.99 10.748-6.331 15.85-10.01l.079.461 65.092-42.875c26.037-17.15 34.134-51.657 18.443-78.599z" fill="url(#SVGID_00000050625872173764336720000011686320234880362402_)"/><path d="m352.38 32.727h-.01l-3.264-.692c-61.388-13.016-124.823-13.016-186.211 0l-3.264.692h-.01l-105.011 105.01c.25 3.36.66 6.74 1.23 10.13l18.923 112.055c1.809 10.71 8.742 19.858 18.565 24.494l.001.001c31.01 14.64 67.29 12.5 96.49-5.5.15-.09.3-.18.45-.27 24.13-14.48 39.48-40.01 41.71-68.06.3-3.83.45-7.65.45-11.47 0-21.06-4.54-41.89-12.84-61.37-3.29-7.72-5.16-15.85-5.16-23.14 0-22.96 18.61-41.58 41.57-41.58s41.57 18.62 41.57 41.58c0 7.28-1.87 15.42-5.16 23.14-9.8 23.01-14.37 47.91-12.38 72.85 1.11 14.02 5.51 27.41 12.64 39.11s17 21.7 29.06 28.94c.15.09.3.18.44.27 29.21 17.99 65.48 20.14 96.5 5.5 9.824-4.636 16.758-13.785 18.566-24.496l18.914-112.054c.57-3.39.99-6.77 1.24-10.13z" fill="url(#SVGID_00000006697797891451055280000017017455177808654252_)"/><path d="m352.37 32.727-3.264-.692c-35.106-7.444-70.881-10.622-106.561-9.552v52.784c4.222-1.445 8.744-2.24 13.455-2.24 22.96 0 41.57 18.62 41.57 41.58 0 7.28-1.87 15.42-5.16 23.14-9.8 23.01-14.37 47.91-12.38 72.85 1.11 14.02 5.51 27.41 12.64 39.11s17 21.7 29.06 28.94c.15.09.3.18.44.27 29.21 17.99 65.48 20.14 96.5 5.5 9.824-4.636 16.758-13.785 18.566-24.497l18.914-112.054c.57-3.39.99-6.77 1.24-10.13l-105.01-105.009z" fill="url(#SVGID_00000001656881467214645390000002198626338620091049_)"/><path d="m352.37 32.727-3.264-.692c-35.106-7.444-70.881-10.622-106.561-9.552v52.784c4.222-1.445 8.744-2.24 13.455-2.24 22.96 0 41.57 18.62 41.57 41.58 0 7.28-1.87 15.42-5.16 23.14-9.8 23.01-14.37 47.91-12.38 72.85 1.11 14.02 5.51 27.41 12.64 39.11s17 21.7 29.06 28.94c.15.09.3.18.44.27 29.21 17.99 65.48 20.14 96.5 5.5 9.824-4.636 16.758-13.785 18.566-24.497l18.914-112.054c.57-3.39.99-6.77 1.24-10.13l-105.01-105.009z" fill="url(#SVGID_00000049199302484915905370000009244286408647978632_)"/><path d="m162.89 32.037c26.28-5.57 52.93-8.76 79.65-9.55v52.77c-16.36 5.6-28.11 21.1-28.11 39.35 0 7.29 1.87 15.42 5.16 23.14 8.3 19.48 12.84 40.31 12.84 61.37 0 3.82-.15 7.64-.45 11.47-2.23 28.05-17.58 53.58-41.71 68.06-.15.09-.3.18-.45.27-16.31 10.05-34.82 15.16-53.39 15.16-14.69 0-29.41-3.2-43.1-9.66-9.82-4.64-16.76-13.78-18.57-24.49l-18.92-112.06c-.57-3.39-.98-6.77-1.23-10.13l105.01-105.01h.01z" fill="url(#SVGID_00000170975190301051100550000015794078889976484003_)"/><g><path d="m160.864 267.526c-14.681 0-26.582-11.901-26.582-26.582v-13.632c0-14.681 11.901-26.582 26.582-26.582 14.681 0 26.582 11.901 26.582 26.582v13.632c0 14.68-11.901 26.582-26.582 26.582z" fill="url(#SVGID_00000014600898524085666110000018268016529685741712_)"/><path d="m351.136 267.526c-14.681 0-26.582-11.901-26.582-26.582v-13.632c0-14.681 11.901-26.582 26.582-26.582 14.681 0 26.582 11.901 26.582 26.582v13.632c-.001 14.68-11.901 26.582-26.582 26.582z" fill="url(#SVGID_00000121960698996248822660000001774320028660025261_)"/></g><g><g><path d="m159.62 32.729-72.301 164.508c-5.439 12.375-19.656 18.273-32.258 13.383-26.693-10.359-46.09-33.839-51.223-62.007l-2.718-14.914c-6.65-36.45 16.99-71.53 53.26-79.09z" fill="url(#SVGID_00000093176853116053704290000015387381325497589641_)"/><path d="m159.62 32.729-72.301 164.508c-5.439 12.375-19.656 18.273-32.258 13.383-26.693-10.359-46.09-33.839-51.223-62.007l-2.718-14.914c-6.65-36.45 16.99-71.53 53.26-79.09z" fill="url(#SVGID_00000116205354718181219050000014287861596677390724_)"/></g><g><path d="m352.38 32.729 72.301 164.508c5.439 12.375 19.656 18.273 32.258 13.383 26.693-10.359 46.09-33.839 51.223-62.007l2.718-14.914c6.65-36.45-16.99-71.53-53.26-79.09z" fill="url(#SVGID_00000122698393659791656020000009776173105729046938_)"/><path d="m424.681 197.237c5.439 12.375 19.656 18.273 32.258 13.383 26.693-10.359 46.09-33.839 51.223-62.007l2.718-14.914c2.662-14.591.46-28.957-5.453-41.432h-126.88z" fill="url(#SVGID_00000087397081313415233920000004128221794119934852_)"/><path d="m457.62 54.609-49.492-10.29v115.255l16.553 37.663c5.439 12.375 19.656 18.273 32.258 13.383 26.693-10.359 46.09-33.839 51.223-62.007l2.718-14.914c6.65-36.45-16.99-71.53-53.26-79.09z" fill="url(#SVGID_00000021818323642707995390000000837060850918330276_)"/></g></g><g><path d="m265.206 489.727h-18.411c-14.617 0-25.973-12.732-24.308-27.254l6.531-56.96h53.966l6.531 56.96c1.664 14.522-9.692 27.254-24.309 27.254z" fill="url(#SVGID_00000072980761515326021270000013769437400647991444_)"/><path d="m265.206 489.727h-18.411c-14.617 0-25.973-12.732-24.308-27.254l6.531-56.96h53.966l6.531 56.96c1.664 14.522-9.692 27.254-24.309 27.254z" fill="url(#SVGID_00000060008064191325812550000003331016868035653023_)"/><path d="m282.983 405.513h-27.859v84.215h10.081c14.617 0 25.973-12.732 24.308-27.254z" fill="url(#SVGID_00000058580933944712509880000014557900406298072728_)"/></g><g><path d="m355.449 451.371c-8.839 5.221-18.459 7.785-28.058 7.785-12.552 0-25.063-4.378-35.748-12.911-10.728-8.565-23.185-12.837-35.643-12.837s-24.915 4.272-35.643 12.837c-18.86 15.052-43.396 17.183-63.807 5.126-27.816-16.413-45.938-46.518-45.938-79.661 0-7.426.907-15.01 2.827-22.626.088-.351.178-.701.268-1.051 12.961-50.257 58.564-85.191 110.465-85.191h63.653c51.901 0 97.505 34.935 110.465 85.191.09.35.18.7.268 1.051 10.476 41.571-9.059 82.193-43.109 102.287z" fill="url(#SVGID_00000055671472880355059040000007361371037059276705_)"/><path d="m398.56 349.084c-.088-.351-.178-.701-.268-1.051-12.961-50.257-58.564-85.191-110.465-85.191h-28.729l-49.574 49.574 141.372 141.372c1.537-.732 3.057-1.533 4.553-2.417 34.05-20.094 53.585-60.716 43.111-102.287z" fill="url(#SVGID_00000039130143318700104190000008890124304911455638_)"/><path d="m113.708 348.033c-.09.35-.18.7-.268 1.051-1.92 7.616-2.827 15.2-2.827 22.626 0 33.143 18.122 63.247 45.938 79.661 20.411 12.057 44.946 9.926 63.807-5.126 10.728-8.565 23.185-12.837 35.643-12.837s24.915 4.272 35.643 12.837c10.685 8.534 23.196 12.911 35.748 12.911 9.599 0 19.219-2.563 28.058-7.785 34.05-20.094 53.585-60.716 43.111-102.287-.088-.351-.178-.701-.268-1.051-.534-2.071-1.144-4.106-1.787-6.124h-281.01c-.645 2.018-1.254 4.053-1.788 6.124z" fill="url(#SVGID_00000122690349133231735650000017918556968243780234_)"/><path d="m398.292 348.033c-12.961-50.257-58.564-85.191-110.465-85.191h-31.824v170.566c12.457.001 24.913 4.273 35.64 12.837 10.685 8.534 23.196 12.911 35.748 12.911 9.599 0 19.219-2.563 28.058-7.785 34.05-20.094 53.585-60.716 43.111-102.287-.089-.35-.178-.701-.268-1.051z" fill="url(#SVGID_00000093175282069747216310000017786066982650022036_)"/><path d="m311.111 447.089c-1.338-1.153-2.619-2.35-3.836-3.589-43.385-44.197-51.275-131.084-51.275-131.084s-7.89 86.887-51.275 131.084c-1.217 1.24-2.497 2.437-3.836 3.589-11.945 10.286-28.946 12.513-42.766 5.174 20.089 11.037 43.853 8.646 62.234-6.021 21.456-17.12 49.83-17.12 71.286 0l.001.001c18.383 14.668 42.149 17.058 62.239 6.018-13.822 7.342-30.826 5.116-42.772-5.172z" fill="url(#SVGID_00000053543711975859663410000003942342425858748841_)"/><path d="m285.256 323.652 8.465-4.593c11.695-6.345 18.978-18.583 18.978-31.888v-.565c0-20.037-16.243-36.28-36.28-36.28h-40.839c-20.037 0-36.28 16.243-36.28 36.28v.565c0 13.305 7.283 25.543 18.978 31.888l8.465 4.593c18.248 9.901 40.265 9.901 58.513 0z" fill="url(#SVGID_00000051369671259955660500000016302800721196512412_)"/></g><g><path d="m182.662 174.809h-13.007c-9.187 0-16.634-7.447-16.634-16.634 0-9.187 7.447-16.634 16.634-16.634h13.007c9.187 0 16.634 7.447 16.634 16.634 0 9.187-7.448 16.634-16.634 16.634z" fill="url(#SVGID_00000165200421160819250750000005409671761156143534_)"/><path d="m342.345 174.809h-13.007c-9.187 0-16.634-7.447-16.634-16.634 0-9.187 7.447-16.634 16.634-16.634h13.007c9.187 0 16.634 7.447 16.634 16.634 0 9.187-7.447 16.634-16.634 16.634z" fill="url(#SVGID_00000149357538398071547560000018405519055350255005_)"/></g></g></svg>